<?xml version="1.0" encoding="UTF-8"?>
<svg width="288px" height="288px" viewBox="0 0 288 288" version="1.1" xmlns="http://www.w3.org/2000/svg" xmlns:xlink="http://www.w3.org/1999/xlink">
    <title>A4A4C9DC-7B5A-4C02-A998-46DF88321897</title>
    <defs>
        <filter x="-20.9%" y="-20.9%" width="141.8%" height="141.8%" filterUnits="objectBoundingBox" id="filter-1">
            <feOffset dx="0" dy="2" in="SourceAlpha" result="shadowOffsetOuter1"></feOffset>
            <feGaussianBlur stdDeviation="11" in="shadowOffsetOuter1" result="shadowBlurOuter1"></feGaussianBlur>
            <feColorMatrix values="0 0 0 0 0   0 0 0 0 0   0 0 0 0 0  0 0 0 0.1 0" type="matrix" in="shadowBlurOuter1" result="shadowMatrixOuter1"></feColorMatrix>
            <feMerge>
                <feMergeNode in="shadowMatrixOuter1"></feMergeNode>
                <feMergeNode in="SourceGraphic"></feMergeNode>
            </feMerge>
        </filter>
        <path d="M103.882476,0 C161.255184,0 207.764953,46.5097689 207.764953,103.882476 C207.764953,161.255184 161.255184,207.764953 103.882476,207.764953 C46.5097689,207.764953 0,161.255184 0,103.882476 C0,94.4847979 1.24788526,85.3785787 3.58699271,76.7204817 C11.1838324,80.7953514 19.8656246,83.1059811 29.0870934,83.1059811 C58.9209013,83.1059811 83.1059811,58.9209013 83.1059811,29.0870934 C83.1059811,19.8656246 80.7953514,11.1838324 76.7214842,3.58910861 C85.3785787,1.24788526 94.4847979,0 103.882476,0 Z" id="path-2"></path>
        <path d="M80.0949945,97.7444328 L80.0949945,76.7894868 C87.1683037,78.0097645 95.0915163,78.7588458 103.997901,78.7588458 C112.904286,78.7588458 120.824985,78.0097645 127.900808,76.7894868 L127.900808,97.7444328 L80.0949945,97.7444328 Z M80.0949945,129.982811 L80.0949945,109.027865 L127.900808,109.027865 L127.900808,129.982811 C120.824985,128.760258 112.904286,128.011263 103.997901,128.011263 C95.0915163,128.011263 87.1683037,128.760258 80.0949945,129.982811 Z M144.163031,72.3230285 C151.263136,69.8676015 157.069811,66.9520894 161.690633,64.0685618 C163.884711,62.7006085 165.173137,60.291928 165.173137,57.7380871 C165.173137,53.6047028 160.487268,51.1911017 157.014771,53.5185907 C151.75599,57.044269 144.325648,60.8184424 134.258409,63.5051422 C133.95319,63.5863337 133.662981,63.6749062 133.35526,63.7536373 C131.961758,64.1103877 130.508213,64.4400743 129.014639,64.7500781 C128.561813,64.8460317 128.096479,64.9321439 127.636148,65.0207164 C126.397757,65.2642908 125.124342,65.4857221 123.818403,65.6923913 C123.420617,65.7539 123.032838,65.8227898 122.627546,65.8818381 C120.928825,66.1278729 119.177566,66.3468438 117.363762,66.5289096 C117.051037,66.5584337 116.725803,66.5805769 116.408075,66.610101 C114.839447,66.7552616 113.223285,66.8708979 111.567094,66.9619308 C111.099257,66.9865342 110.631421,67.0135981 110.156079,67.0332809 C108.159644,67.119393 106.120678,67.1784414 103.999152,67.1784414 C101.88263,67.1784414 99.8511698,67.119393 97.8622397,67.0332809 C97.3643817,67.0135981 96.8790328,66.9865342 96.3936838,66.9594704 C94.8000379,66.8708979 93.2464209,66.7601823 91.7353344,66.6199424 C91.3475555,66.5854976 90.9522713,66.5584337 90.5719979,66.5215285 C88.8182369,66.3443835 87.1295227,66.1327936 85.4833391,65.8941398 C84.9404487,65.8154087 84.4200746,65.7268362 83.8871914,65.640724 C82.7838981,65.463579 81.7056228,65.2741322 80.6523655,65.0723837 C80.0194104,64.9518267 79.3839535,64.8312696 78.768511,64.7008712 C77.7002429,64.4745192 76.6644982,64.2334051 75.6487678,63.98491 C74.7080915,63.7536373 73.7974367,63.5125232 72.8992909,63.2640281 C63.2773726,60.5994715 56.1222279,56.9458551 51.0085511,53.5284321 C47.5235453,51.1960224 42.8226653,53.5973218 42.8226653,57.7430078 C42.8226653,60.2943884 44.1085899,62.6981481 46.2976639,64.0661015 C50.9134827,66.9447083 56.7076488,69.8552997 63.7927431,72.3082664 C63.9103277,72.3500923 64.0229086,72.3943786 64.1454968,72.4362045 C65.5640167,72.920893 67.0475834,73.3785177 68.5636735,73.826301 L68.5636735,97.8737399 L63.4149715,97.8737399 C61.1233238,97.8737399 59.2644872,99.7017783 59.2644872,101.955457 C59.2644872,105.788679 62.426761,108.896098 66.3220618,108.896098 L68.5636735,108.896098 L68.5636735,132.943537 C67.0475834,133.39132 65.5640167,133.851405 64.1454968,134.333633 C64.0229086,134.375459 63.9103277,134.419745 63.7927431,134.464032 C56.7076488,136.916998 50.9134827,139.825129 46.2976639,142.706197 C44.1085899,144.07169 42.8226653,146.475449 42.8226653,149.02929 C42.8226653,153.172516 47.5235453,155.573815 51.0085511,153.243866 C56.1222279,149.823983 63.2773726,146.172827 72.8992909,143.50581 C73.7974367,143.257314 74.7080915,143.0162 75.6487678,142.784928 C76.6644982,142.536433 77.7002429,142.295318 78.768511,142.068966 C79.3839535,141.938568 80.0194104,141.818011 80.6523655,141.697454 C81.7056228,141.495705 82.7838981,141.306259 83.8871914,141.131574 C84.4200746,141.045462 84.9404487,140.954429 85.4833391,140.875698 C87.1295227,140.637044 88.8182369,140.425454 90.5719979,140.250769 C90.9522713,140.211404 91.3475555,140.18434 91.7353344,140.149895 C93.2464209,140.012116 94.8000379,139.89894 96.3936838,139.810367 C96.8790328,139.785764 97.3643817,139.7587 97.8622397,139.736557 C99.8511698,139.650445 101.88263,139.591396 103.999152,139.591396 C106.120678,139.591396 108.159644,139.650445 110.156079,139.736557 C110.631421,139.75624 111.099257,139.783303 111.567094,139.807907 C113.223285,139.89894 114.839447,140.014576 116.408075,140.159737 C116.725803,140.189261 117.051037,140.211404 117.363762,140.240928 C119.177566,140.422994 120.928825,140.641965 122.627546,140.89046 C123.032838,140.949508 123.420617,141.015938 123.818403,141.079907 C125.124342,141.284116 126.397757,141.508007 127.636148,141.749121 C128.096479,141.837694 128.561813,141.926266 129.014639,142.01976 C130.508213,142.329763 131.961758,142.65945 133.35526,143.0162 C133.662981,143.094931 133.95319,143.185964 134.258409,143.264695 C144.325648,145.953856 151.75599,149.728029 157.014771,153.253707 C160.487268,155.581196 165.173137,153.167595 165.173137,149.034211 C165.173137,146.47791 163.884711,144.069229 161.690633,142.701276 C157.069811,139.817748 151.263136,136.902236 144.163031,134.446809 C144.065461,134.412364 143.970392,134.375459 143.872822,134.343475 C142.449299,133.856326 140.958227,133.39378 139.432129,132.943537 L139.432129,108.896098 L144.580831,108.896098 C146.872479,108.896098 148.731315,107.068059 148.731315,104.814381 C148.731315,100.981159 145.571544,97.8737399 141.671239,97.8737399 L139.432129,97.8737399 L139.432129,73.826301 C140.958227,73.3785177 142.449299,72.9159723 143.872822,72.4288235 C143.970392,72.3943786 144.065461,72.3574734 144.163031,72.3230285 Z" id="path-4"></path>
        <filter x="-18.8%" y="-21.7%" width="137.6%" height="145.3%" filterUnits="objectBoundingBox" id="filter-5">
            <feOffset dx="0" dy="1" in="SourceAlpha" result="shadowOffsetOuter1"></feOffset>
            <feGaussianBlur stdDeviation="7.5" in="shadowOffsetOuter1" result="shadowBlurOuter1"></feGaussianBlur>
            <feColorMatrix values="0 0 0 0 0   0 0 0 0 0   0 0 0 0 0  0 0 0 0.1 0" type="matrix" in="shadowBlurOuter1"></feColorMatrix>
        </filter>
    </defs>
    <g id="With-News-Sectoin" stroke="none" stroke-width="1" fill="none" fill-rule="evenodd">
        <g id="Ichi-Popover" transform="translate(-376.000000, -276.000000)">
            <g id="Group-90" transform="translate(370.000000, 170.000000)">
                <g id="image_ichi_v2" filter="url(#filter-1)" transform="translate(40.000000, 140.000000)">
                    <g id="icon_chain">
                        <g id="Group-89" transform="translate(12.235047, 12.235047)">
                            <mask id="mask-3" fill="white">
                                <use xlink:href="#path-2"></use>
                            </mask>
                            <use id="Combined-Shape" fill="#FFFFFF" xlink:href="#path-2"></use>
                            <g id="Fill-4" mask="url(#mask-3)">
                                <use fill="black" fill-opacity="1" filter="url(#filter-5)" xlink:href="#path-4"></use>
                                <use fill="#0072FF" fill-rule="evenodd" xlink:href="#path-4"></use>
                            </g>
                        </g>
                        <g id="Group-2">
                            <circle id="Oval" fill="#0072FF" cx="41.5529906" cy="41.5529906" r="41.5529906"></circle>
                            <text id="V2" font-family="Montserrat-ExtraBold, Montserrat" font-size="36.7051417" font-weight="700" fill="#FFFFFF">
                                <tspan x="15.936149" y="54.3525708">V2</tspan>
                            </text>
                        </g>
                    </g>
                </g>
            </g>
        </g>
    </g>
</svg>