<?xml version="1.0" encoding="UTF-8"?>
<svg width="561px" height="894px" viewBox="0 0 561 894" version="1.1" xmlns="http://www.w3.org/2000/svg" xmlns:xlink="http://www.w3.org/1999/xlink">
    <title>ichi_logo_vertical_dark</title>
    <defs>
        <polygon id="path-1" points="0.724830917 0.86030303 352.861029 0.86030303 352.861029 60.3195303 0.724830917 60.3195303"></polygon>
    </defs>
    <g id="ichi_logo_vertical_dark" stroke="none" stroke-width="1" fill="none" fill-rule="evenodd">
        <g id="Group">
            <g id="Group-23-Copy">
                <path d="M419.785545,130.090364 C419.785545,126.083545 416.228273,123.021424 412.267061,123.659909 C393.568576,126.643848 342.105394,133.875667 282.452667,133.875667 C221.959485,133.875667 170.515848,126.539606 151.804333,123.503545 C147.843121,122.865061 144.272818,125.914152 144.272818,129.940515 L144.272818,139.009606 C144.272818,142.280212 146.657364,145.036121 149.895394,145.459606 C153.980394,146.000364 160.143727,146.782182 167.916303,147.655212 L167.916303,189.677939 C167.916303,193.274303 170.828576,196.193091 174.431455,196.193091 L200.615848,196.193091 C204.218727,196.193091 207.131,193.274303 207.131,189.677939 L207.131,151.42097 C229.575697,153.206121 255.909939,154.64597 282.498273,154.64597 C308.936758,154.64597 334.85403,153.088848 356.927364,151.147333 L356.927364,189.677939 C356.927364,193.274303 359.839636,196.193091 363.442515,196.193091 L389.626909,196.193091 C393.229788,196.193091 396.142061,193.274303 396.142061,189.677939 L396.142061,146.945061 C403.992818,145.948242 410.188727,145.062182 414.267212,144.456273 C417.459636,143.980667 419.785545,141.244303 419.785545,138.019303 L419.785545,130.090364 Z" id="Fill-1" fill="#090F16"></path>
                <g id="Group-5" transform="translate(105.242424, 0.655500)">
                    <mask id="mask-2" fill="white">
                        <use xlink:href="#path-1"></use>
                    </mask>
                    <g id="Clip-4"></g>
                    <path d="M177.540561,60.3195303 C263.599197,60.3195303 329.011318,44.6375606 346.217833,40.0769545 C348.908591,39.3602879 350.797985,37.0213485 350.993439,34.2458939 L352.843742,7.91816667 C353.176015,3.25331818 348.661015,-0.199712121 344.230712,1.29877273 C324.743894,7.91165152 273.352379,21.3328636 177.195258,21.3328636 C81.7417727,21.3328636 29.3143485,7.8334697 9.31283333,1.20104545 C4.81086364,-0.290924242 0.289348485,3.31195455 0.758439394,8.02892424 L3.47525758,35.0928636 C3.74889394,37.816197 5.65131818,40.0704394 8.2964697,40.7415 C25.4313182,45.1066515 91.3190455,60.3195303 177.540561,60.3195303" id="Fill-3" fill="#0072FF" mask="url(#mask-2)"></path>
                </g>
                <path d="M425.664167,102.490227 L440.4275,71.9537121 C442.80553,67.0412879 438.4925,61.5490152 433.163106,62.7543182 C409.806288,68.0576515 356.838106,77.7847727 282.780379,77.7847727 C208.748712,77.7847727 154.718561,68.1488636 130.886136,62.9302273 C125.517652,61.7509848 121.243712,67.3409848 123.725985,72.2403788 L139.069167,102.496742 L139.961742,102.770379 C141.759924,103.317652 185.053106,116.159015 282.454621,116.159015 C379.908258,116.159015 422.947348,103.317652 424.7325,102.770379 L425.664167,102.490227 Z" id="Fill-6" fill="#004CAB"></path>
                <path d="M156.869864,246.619061 L407.181985,246.619061 C410.784864,246.619061 413.697136,243.706788 413.697136,240.103909 L413.697136,213.913 C413.697136,210.316636 410.784864,207.397848 407.181985,207.397848 L156.869864,207.397848 C153.2735,207.397848 150.354712,210.316636 150.354712,213.913 L150.354712,240.103909 C150.354712,243.706788 153.2735,246.619061 156.869864,246.619061" id="Fill-8" fill="#090F16"></path>
                <path d="M23.4936364,334.019818 C18.9004545,334.019818 14.3398485,334.150121 9.79878788,334.384667 C5.96136364,334.586636 3.09469697,338.16997 3.71363636,341.961788 C4.98409091,349.701788 6.56727273,357.337545 8.45015152,364.849515 C9.10166667,367.416485 11.2712121,369.286333 13.8837879,369.670727 C125.801061,386.056333 217.443182,465.697545 251.237273,571.008455 C252.038636,573.510273 254.227727,575.321485 256.840303,575.536485 C264.938636,576.207545 273.121667,576.539818 281.402424,576.500727 C284.015,573.555879 285.220303,572.194212 287.832879,569.242848 C272.470152,437.011333 159.790606,334.019818 23.4936364,334.019818" id="Fill-10" fill="#0072FF"></path>
                <g id="Group-14" transform="translate(0.000000, 257.261561)" fill="#090F16">
                    <path d="M207.133606,50.9523939 L207.133606,7.08587879 C207.133606,3.483 204.221333,0.570727273 200.618455,0.570727273 L174.427545,0.570727273 C170.831182,0.570727273 167.912394,3.483 167.912394,7.08587879 L167.912394,32.6187576 C139.226182,22.0186061 108.233606,16.2136061 75.9119394,16.2136061 C51.3172424,16.2136061 27.4978485,19.5884545 4.87072727,25.8560303 C2.12133333,26.6248182 0.179818182,29.1201212 0.101636364,31.9737576 C0.0364848485,34.3387576 -0.00260606061,36.7102727 -0.00260606061,39.0948182 C-0.00260606061,40.3457273 0.0104242424,41.5966364 0.029969697,42.8475455 C0.0951212121,46.567697 3.21587879,49.4343636 6.92951515,49.2193636 C12.4152727,48.9131515 17.9401212,48.7437576 23.4910303,48.7437576 C174.629515,48.7437576 299.485879,163.319212 315.825879,310.164212 C316.229818,313.832242 319.539515,316.516485 323.188,315.949667 C327.351182,315.298152 331.488303,314.561939 335.586333,313.74103 C338.387848,313.174212 340.531333,310.815727 340.80497,307.962091 C341.619364,299.531485 342.055879,290.996636 342.055879,282.357545 C342.055879,183.294667 287.621788,96.7734545 207.133606,50.9523939" id="Fill-12"></path>
                </g>
                <path d="M410.216742,544.48397 C458.676439,519.035788 498.790227,479.834121 525.306894,432.032455 C528.382045,426.494576 522.3425,420.161848 516.680833,423.015485 C467.634773,447.779576 427.266894,487.274424 401.395227,535.655939 C398.411288,541.245939 404.600682,547.435333 410.216742,544.48397" id="Fill-15" fill="#0072FF"></path>
                <path d="M359.463061,461.243788 C364.023667,477.740152 367.183515,494.816364 368.799273,512.335606 C369.372606,518.596667 377.738061,520.342727 380.858818,514.889545 C416.679121,452.402727 474.748667,404.249242 544.213212,381.315909 C546.239424,380.651364 547.842152,379.061667 548.461091,377.015909 C551.699121,366.226818 554.305182,355.164091 556.233667,343.860303 C556.963364,339.599394 553.269273,335.748939 548.982303,336.309242 C469.927455,346.687879 401.713818,391.896515 360.244879,455.97303 C359.23503,457.536667 358.967909,459.452121 359.463061,461.243788" id="Fill-17" fill="#0072FF"></path>
                <path d="M559.867818,280.600788 C559.691909,277.382303 557.124939,274.743667 553.91297,274.47003 C546.479182,273.82503 538.973727,273.473212 531.383576,273.473212 C482.018273,273.473212 435.799788,287.050788 396.142061,310.577 L396.142061,264.345485 C396.142061,260.742606 393.229788,257.830333 389.626909,257.830333 L363.442515,257.830333 C359.839636,257.830333 356.927364,260.742606 356.927364,264.345485 L356.927364,338.97003 C344.913424,349.426848 333.792061,360.880485 323.810848,373.298364 C322.045242,375.480939 321.947515,378.549576 323.465545,380.908061 C330.619182,392.029424 337.049636,403.652455 342.678727,415.718515 C344.731,420.109727 350.640242,421.002303 353.656758,417.210485 C401.829788,356.736848 473.281455,315.613212 554.323424,307.508364 C557.600545,307.182606 560.193576,304.524424 560.258727,301.227758 C560.284788,299.605485 560.297818,297.983212 560.297818,296.354424 C560.297818,291.064121 560.154485,285.819424 559.867818,280.600788" id="Fill-19" fill="#090F16"></path>
                <path d="M24.3275758,410.706409 C58.6493939,487.363682 126.413485,545.758985 209.058182,567.382773 C214.322424,568.763985 218.896061,563.506258 216.798182,558.483076 C184.228939,480.490197 115.572273,421.195803 31.8069697,401.572167 C26.4775758,400.321258 22.0863636,405.709288 24.3275758,410.706409" id="Fill-21" fill="#0072FF"></path>
            </g>
            <path d="M83.947143,889.258218 L86.3315796,847.137442 L69.6405237,847.137442 L69.6405237,727.115875 L82.7549248,727.115875 L88.7160162,683.636364 L7.49614585,683.636364 L3.17435458,727.115875 L43.2626942,727.115875 L24.4852563,737.834782 L24.1872018,846.986471 L6.75100942,846.835501 L2.72727273,889.258218 L83.947143,889.258218 Z M202.647376,890.767924 C218.493943,890.56663 231.235776,887.924645 240.872874,882.841971 C250.509972,877.759297 263.07794,867.61911 278.576777,852.42141 L278.576777,852.42141 L251.900893,818.754983 C239.97871,835.663682 227.013337,844.822561 213.004772,846.231619 C198.996207,847.640677 187.993026,846.055487 179.995228,841.476047 C171.997431,836.896608 164.595742,829.197111 157.790163,818.377557 C150.984583,807.558003 147.85501,796.008758 148.401444,783.729822 C148.947877,771.450886 154.685428,753.334423 165.614095,729.380433 L165.614095,729.380433 L218.667809,729.380433 C231.682858,728.373962 238.389086,733.154696 238.786492,743.722633 L238.786492,743.722633 L278.278723,743.722633 C276.689098,710.307823 262.680533,690.430037 236.253028,684.089275 L236.253028,684.089275 L123.737428,684.089275 L117.180228,701.299915 L113.7526,715.038233 L111.368163,729.380433 L146.836657,729.380433 L117.180228,742.816809 C112.610058,749.157571 109.728863,763.499771 108.536645,785.843409 C107.344427,808.187047 112.212651,828.089994 123.141319,845.552251 C134.069987,863.014509 146.091521,874.966342 159.205922,881.407751 C172.320323,887.84916 186.800808,890.969218 202.647376,890.767924 Z M293.330478,893.636364 L338.038664,885.936867 L338.038664,777.992942 L349.960847,797.166198 L404.65386,797.317169 L404.65386,881.345051 L448.616909,876.428895 L448.616909,797.166198 L459.942983,797.166198 L456.366328,755.649304 L448.616909,755.649304 L448.616909,684.542187 L403.610669,684.844128 L403.610669,753.837658 L338.038664,754.290569 L338.038664,684.240246 L293.032424,684.240246 L293.330478,893.636364 Z M551.594763,889.258218 L553.9792,847.137442 L537.288144,847.137442 L537.288144,727.115875 L550.402545,727.115875 L556.363636,683.636364 L475.143766,683.636364 L470.821975,727.115875 L510.910314,727.115875 L492.132877,737.834782 L491.834822,846.986471 L474.39863,846.835501 L470.374893,889.258218 L551.594763,889.258218 Z" id="ICHI" fill="#090F16" fill-rule="nonzero"></path>
        </g>
    </g>
</svg>