<svg width="13" height="12" viewBox="0 0 13 12" fill="none" xmlns="http://www.w3.org/2000/svg">
<path d="M2.94733 1.46391C2.94679 1.59592 2.97239 1.72674 3.02266 1.8488C3.07293 1.97087 3.14687 2.08177 3.24021 2.17512C3.33356 2.26847 3.44446 2.34241 3.56653 2.39268C3.6886 2.44295 3.81941 2.46855 3.95142 2.46801H8.60418L1.2432 9.82899C1.05566 10.0165 0.950308 10.2709 0.950308 10.5361C0.950308 10.8013 1.05566 11.0557 1.2432 11.2432C1.43074 11.4307 1.68509 11.5361 1.95031 11.5361C2.21552 11.5361 2.46988 11.4307 2.65741 11.2432L10.0184 3.88222L10.0184 8.53498C10.0137 8.80035 10.1146 9.0567 10.299 9.24766C10.4833 9.43862 10.7359 9.54853 11.0013 9.55322C11.2666 9.5579 11.523 9.45698 11.714 9.27266C11.9049 9.08833 12.0148 8.8357 12.0195 8.57034L12.0195 3.49331C12.019 2.69831 11.703 1.93601 11.1408 1.37386C10.5787 0.811705 9.81638 0.495672 9.02138 0.495178L3.94435 0.466894C3.68016 0.46768 3.42702 0.572975 3.24022 0.759783C3.05341 0.946591 2.94811 1.19973 2.94733 1.46391Z" fill="white"/>
</svg>
