<?xml version="1.0" encoding="UTF-8"?> <!-- Generator: Adobe Illustrator 24.1.3, SVG Export Plug-In . SVG Version: 6.00 Build 0) --> <svg xmlns="http://www.w3.org/2000/svg" xmlns:xlink="http://www.w3.org/1999/xlink" version="1.1" id="Layer_1" x="0px" y="0px" viewBox="0 0 687.84 184.54" style="enable-background:new 0 0 687.84 184.54;" xml:space="preserve"> <style type="text/css"> .st0{fill:#F26539;} .st1{fill:#05303E;} </style> <g> <path class="st0" d="M68.97,123.89c-4.34,0-7.86,3.52-7.86,7.86s3.52,7.86,7.86,7.86c4.34,0,7.86-3.52,7.86-7.86 S73.32,123.89,68.97,123.89"></path> <path class="st0" d="M63.42,70.6L7.83,126.19c-3.07,3.07-3.07,8.05,0,11.12c3.07,3.07,8.05,3.07,11.12,0l55.59-55.59 c3.07-3.07,3.07-8.05,0-11.12C71.46,67.53,66.49,67.53,63.42,70.6"></path> <path class="st0" d="M63.42,15.15L7.83,70.74c-3.07,3.07-3.07,8.05,0,11.12c3.07,3.07,8.05,3.07,11.12,0l55.59-55.59 c3.07-3.07,3.07-8.05,0-11.12C71.46,12.08,66.49,12.08,63.42,15.15"></path> </g> <g> <path class="st1" d="M528.92,130.09c0.04-0.02,0.07-0.03,0.07-0.03c-2.53-0.16-4.53-2.25-4.53-4.81v-7.45h-0.04V79.26h-0.02V54.96 h-1.08h-25.15c-2.67,0-4.82,2.16-4.82,4.83s2.16,4.82,4.82,4.82h0.74c1.93,0.01,3.5,1.46,3.75,3.33v41.8 c0,8.42-6.83,15.25-15.25,15.25c-8.42,0-15.25-6.82-15.25-15.25V54.96h-0.74h-25.15c-2.67,0-4.82,2.16-4.82,4.83 s2.16,4.82,4.82,4.82h0.35c2.1,0.01,3.8,1.72,3.8,3.82c0,0,0,0,0,0v34.5c0,20.43,16.56,36.99,37,36.99 c7.05,0,13.61-2.01,19.21-5.43c2.69,1.77,5.66,3.14,8.84,4.01c0.14,0.04,0.28,0.08,0.42,0.11c0.63,0.16,1.26,0.31,1.91,0.43 c0.25,0.05,0.5,0.1,0.75,0.15c0.01,0,0.02,0,0.03,0c0,0,0,0,0,0c0.07,0.01,0.13,0.03,0.19,0.04v-0.01 c1.65,0.27,3.34,0.43,5.07,0.43c0.13,0,0.26,0,0.38-0.01l0.02,0.06h4.74l-0.01-0.04c2.51-0.18,4.49-2.24,4.49-4.79 C533.47,132.31,531.46,130.23,528.92,130.09"></path> <path class="st1" d="M361.39,130.06h-0.55v0c0,0-0.01,0-0.01,0c-2.07,0-3.74-1.65-3.81-3.7V83.31c0-17.17-13.91-31.08-31.08-31.08 c-7.93,0-15.14,2.99-20.63,7.88v-44.8h-10.59h-15.39c-2.67,0-4.83,2.16-4.83,4.83c0,2.67,2.16,4.82,4.83,4.82h1.95 c1.98,0.12,3.56,1.75,3.58,3.76v97.56c-0.03,2.09-1.72,3.78-3.82,3.78c0,0,0,0-0.01,0v0h-1.7c-2.67,0-4.83,2.16-4.83,4.82 s2.16,4.83,4.83,4.83h5.53h20.45h5.53c2.67,0,4.83-2.16,4.83-4.83s-2.16-4.82-4.83-4.82h-1.37v0c0,0,0,0-0.01,0 c-1.97,0-3.57-1.5-3.78-3.41V82.77c0-8.42,6.83-15.25,15.25-15.25c8.42,0,15.25,6.82,15.25,15.25v43.73 c-0.13,1.99-1.77,3.57-3.8,3.57c0,0-0.01,0-0.01,0v0h-1.14c-2.67,0-4.83,2.16-4.83,4.82s2.16,4.83,4.83,4.83h30.17 c2.67,0,4.83-2.16,4.83-4.83S364.05,130.06,361.39,130.06"></path> <path class="st1" d="M420.96,97.73v11.41c0,8.42-6.82,15.25-15.25,15.25c-8.42,0-15.25-6.83-15.25-15.25V96.27h-0.02v-0.64h0.02 V82.77c0-8.42,6.83-15.25,15.25-15.25c8.42,0,15.25,6.83,15.25,15.25v11.41V97.73z M410.73,52.23c-7.76,0-14.83,2.86-20.28,7.56 V24.96v-9.65h-24.64c-2.67,0-4.83,2.16-4.83,4.83s2.16,4.82,4.83,4.82h0.65c1.88,0.12,3.38,1.58,3.55,3.45v106.04l0.01,0 c0,0.03-0.01,0.05-0.01,0.09c0,2.63,2.14,4.77,4.77,4.77c0.26,0,0.52-0.04,0.77-0.08v0.02c0.06-0.01,0.13-0.03,0.19-0.04h0 c5.53-0.93,10.58-3.3,14.71-6.74l0.21-0.18c5.42,4.59,12.41,7.36,20.07,7.36c17.17,0,31.08-13.91,31.08-31.08V97.73v-3.56V83.31 C441.82,66.15,427.9,52.23,410.73,52.23"></path> <path class="st1" d="M678.45,54.97h-26.18c-2.66,0-4.82,2.16-4.82,4.82c0,2.67,2.16,4.83,4.82,4.83h0.62 c2.08,0.01,3.07,1.69,2.24,3.78l-14.15,33.48l-14.23-33.61c-0.78-2.02,0.17-3.63,2.21-3.65h1.83c2.66,0,4.82-2.16,4.82-4.83 c0-2.66-2.16-4.82-4.82-4.82h-32.84c-2.29,0-4.2,1.6-4.69,3.74c-1.14-0.91-2.44-1.62-3.87-2.07c-0.06-0.07-0.13-0.12-0.22-0.14 c-12.23-2.63-22.01,1.57-27.49,4.31v-5.84h-21.74h-4.99c-2.67,0-4.82,2.16-4.82,4.82c0,2.67,2.16,4.83,4.82,4.83h1.21 c2.05,0.01,3.7,1.63,3.78,3.66v38.14h0.04v30.22h0.1v3.07h29.04c2.67,0,4.82-2.16,4.82-4.83c0-2.67-2.16-4.83-4.82-4.83h-3.61 c0,0-0.01,0-0.01,0c-1.94,0-3.52-1.45-3.77-3.32V82.05c0-7.4,5.28-13.55,12.27-14.94c-0.02,0.29-0.04,0.57-0.04,0.86 c0,6.56,5.32,11.89,11.89,11.89s11.89-5.32,11.89-11.89c0-1.19-0.18-2.34-0.51-3.43c0.25,0.04,0.49,0.08,0.75,0.08h1.48 c2.09,0.01,4.49,1.7,5.39,3.78l25.18,59.47l-3.24,7.66l-0.04-0.02c-0.26,0.69-4.52,10.59-4.82,11.26 c-2.34,5.16-5.89,9.63-10.27,13.11c-1.65,1.21-3.53,2.1-5.59,2.57c0.02-0.26,0.04-0.51,0.04-0.77c0-6.57-5.32-11.89-11.89-11.89 c-6.56,0-11.89,5.32-11.89,11.89c0,5.97,4.41,10.9,10.15,11.75c8.89,1.92,20.67-3.26,24.78-5.37c0.49-0.25,0.94-0.55,1.42-0.82 c0.02,0.02,0.03,0.03,0.05,0.05c0.35-0.21,0.67-0.45,1.01-0.67c0.21-0.13,0.43-0.23,0.63-0.37c-0.01-0.01-0.03-0.01-0.04-0.02 c8.56-5.57,15.43-13.5,19.67-22.9c0.04,0.01,0.07,0.02,0.11,0.03l31.67-74.93h0.01c0,0,0,0,0,0c0.89-2.1,3.32-3.81,5.42-3.82h1.24 c2.67,0,4.83-2.16,4.83-4.83C683.28,57.13,681.12,54.97,678.45,54.97"></path> <path class="st1" d="M149.29,88.89l14.08-41.23l14.08,41.23H149.29z M256.27,84.72c-13.1-4.16-20.07-8.86-20.17-13.59 c0.31-3.02,1.73-6.08,9.99-6.98c12.73-0.46,13.16,9.62,13.54,10.64c1.32,3.51,4.72,6.01,8.69,6.01c5.13,0,9.29-4.16,9.29-9.29 c0-1.05-0.18-2.05-0.5-2.99c-4.8-11.29-18.7-16.27-29.95-16.27c-10.14,0-18.32,2.37-24.3,7.04c-6.29,4.81-9.48,11.2-9.48,19.11 c0.5,9.94,8.84,17.05,24.84,21.14c7.25,1.71,12.72,4.1,16.27,7.13c3.3,2.72,4.91,5.84,4.91,9.49c-0.12,5.14-1.17,13.13-15.34,12.62 c-11.37-0.41-11.3-10.73-11.2-13.82c0.17-5.12-4.16-9.28-9.29-9.28c-5.13,0-9.32,4.16-9.29,9.28c0.03,4.95,1.65,9.02,3.64,11.97 c0.73,1.09,1.59,2.13,2.53,3.13h-1.8h-1.27c0,0,0,0-0.01,0c-2.1,0-4.39-1.69-5.15-3.78L175.33,18.53 c-0.66-1.87-2.43-3.22-4.53-3.22h-2.2h-2.41h-2.15h-6.25l-37.92,110.94c-0.74,2.11-3.04,3.81-5.15,3.81c0,0,0,0-0.01,0h0h-2.61 c-2.67,0-4.82,2.16-4.82,4.83s2.16,4.83,4.82,4.83h30.17c2.67,0,4.83-2.16,4.83-4.83s-2.16-4.83-4.83-4.83h-3.24c0,0,0,0-0.01,0 c-2.11,0-3.23-1.71-2.49-3.82c0,0,0,0,0-0.01h0l8.1-23.71h37.48l8.14,23.83c0.63,2.06-0.48,3.7-2.55,3.7c0,0,0,0-0.01,0h0h-0.65 h-2.57c-2.67,0-4.83,2.16-4.83,4.83s2.16,4.83,4.83,4.83h2.57h31.6h2.57c2.67,0,4.83-2.16,4.83-4.83c0-0.08-0.02-0.16-0.02-0.24 c5.11,3.28,11.58,5.38,18.61,5.4c23.54,0.07,35.47-9.95,35.47-29.67C279.6,98.98,271.62,90.36,256.27,84.72"></path> </g> </svg> 