<?xml version="1.0" encoding="UTF-8"?>
<svg width="663px" height="467px" viewBox="0 0 663 467" version="1.1" xmlns="http://www.w3.org/2000/svg" xmlns:xlink="http://www.w3.org/1999/xlink">
    <title>branded-dollars2</title>
    <defs>
        <ellipse id="path-1" cx="112.414837" cy="112.741935" rx="112.414837" ry="112.741935"></ellipse>
        <path d="M112.555177,0 C50.3814223,0 0,50.5721485 0,112.970943 L0,112.970943 C0,175.369737 50.3814223,225.941885 112.555177,225.941885 L112.555177,225.941885 C174.728933,225.941885 225.154356,175.369737 225.154356,112.970943 L225.154356,112.970943 C225.154356,50.5721485 174.728933,0 112.555177,0 Z" id="path-3"></path>
        <linearGradient x1="100%" y1="50%" x2="0%" y2="50%" id="linearGradient-5">
            <stop stop-color="#88EAFE" offset="0%"></stop>
            <stop stop-color="#03B5FF" offset="100%"></stop>
        </linearGradient>
        <ellipse id="path-6" cx="74.9432248" cy="75.1612903" rx="74.9432248" ry="75.1612903"></ellipse>
        <ellipse id="path-8" cx="79.9394398" cy="80.172043" rx="79.9394398" ry="80.172043"></ellipse>
        <path d="M84.7063468,0 L92.6242012,4.15682277 C96.6301329,6.25737563 96.6992007,9.88184013 92.7767259,12.2480908 L92.7767259,12.2480908 L55.4945096,34.7322854 C53.3812272,36.0059021 50.5417737,36.6557064 47.7445283,36.6557064 C45.3473005,36.6557064 42.982688,36.1782206 41.1332062,35.2088087 L41.1332062,35.2088087 L3.04999538,15.2246762 C-0.955936309,13.122198 -1.0250041,9.49773353 2.89747068,7.13340822 L2.89747068,7.13340822 L11.1481935,2.15831326 L38.6832182,16.6051496 C41.2396857,17.947116 44.3726773,18.6566061 47.7445283,18.6566061 C51.6315099,18.6566061 55.3506184,17.7035597 58.2178909,15.976524 L58.2178909,15.976524" id="path-10"></path>
        <linearGradient x1="49.999843%" y1="-162.486977%" x2="49.999843%" y2="100%" id="linearGradient-12">
            <stop stop-color="#B3F9BA" offset="0%"></stop>
            <stop stop-color="#F6FB8C" offset="100%"></stop>
        </linearGradient>
        <path d="M70.863395,9.41975701 L68.2205929,11.0370479 L65.57875,12.6533762 L58.3717182,17.063382 C55.4977308,18.8241112 51.767111,19.7915978 47.8705366,19.7915978 L47.8705366,19.7915978 C44.4910114,19.7915978 41.3493863,19.0695929 38.7852447,17.7064477 L38.7852447,17.7064477 L30.5287662,13.3089566 L27.7957922,11.8553201 L25.0628182,10.400721 L9.84871942,2.29886354 L2.9054882,6.5490656 C-1.02657933,8.95478586 -0.959430095,12.6418241 3.05705362,14.7808839 L3.05705362,14.7808839 L10.9969714,19.0070191 L13.7299454,20.462581 L16.4610008,21.9171802 L41.2429068,35.1096533 C43.0952665,36.0963933 45.4675531,36.5806179 47.8705366,36.5806179 L47.8705366,36.5806179 C50.6744969,36.5806179 53.5235432,35.9221495 55.6397035,34.6254287 L55.6397035,34.6254287 L79.4652124,20.0476688 L82.1080146,18.4294152 L84.7498575,16.813087 L93.0216843,11.7513514 C94.9498267,10.5730395 95.9158165,9.08570942 95.9273278,7.62340886 L95.9273278,7.62340886 L95.9273278,7.56853649 C95.9138979,6.06772902 94.8922702,4.59676441 92.8691596,3.51953312 L92.8691596,3.51953312 L86.2587968,0 L70.863395,9.41975701 Z" id="path-13"></path>
        <linearGradient x1="49.9999191%" y1="-98.9553649%" x2="49.9999191%" y2="157.815373%" id="linearGradient-15">
            <stop stop-color="#B1FFBF" offset="0%"></stop>
            <stop stop-color="#FFF06D" offset="100%"></stop>
        </linearGradient>
        <path d="M48.0556766,0 C45.2517163,0 42.4036293,0.649804392 40.2865098,1.923421 L40.2865098,1.923421 L2.9054882,24.3999143 C-1.02657933,26.7632769 -0.959430095,30.3848534 3.05705362,32.4873316 L3.05705362,32.4873316 L9.66837575,35.9452536 L12.4013497,37.3748233 L15.1343237,38.8053556 L30.3484225,46.7647374 L33.0804373,48.1933444 L35.8143705,49.6238768 L41.2429068,52.4647253 C43.0952665,53.4341372 45.4675531,53.9106604 47.8705366,53.9106604 L47.8705366,53.9106604 C50.6744969,53.9106604 53.5235432,53.260856 55.6397035,51.9872394 L55.6397035,51.9872394 L60.112802,49.2975306 L62.7556041,47.7091198 L65.397447,46.1207091 L80.7928488,36.8636439 L83.4356509,35.2752331 L86.0774938,33.6868224 L93.0216843,29.5107461 C94.9498267,28.3526503 95.9158165,26.8913124 95.9273278,25.4550041 L95.9273278,25.4550041 L95.9273278,25.4001317 C95.9138979,23.9253164 94.8922702,22.480344 92.8691596,21.4223661 L92.8691596,21.4223661 L54.6842657,1.44689778 C52.8309467,0.476523221 50.4596194,0 48.0556766,0 Z" id="path-16"></path>
        <linearGradient x1="49.9999191%" y1="0.000916769343%" x2="49.9999191%" y2="180.80126%" id="linearGradient-18">
            <stop stop-color="#B3F9BA" offset="0%"></stop>
            <stop stop-color="#F6FB8C" offset="100%"></stop>
        </linearGradient>
        <ellipse id="path-19" cx="99.9242998" cy="100.215054" rx="99.9242998" ry="100.215054"></ellipse>
        <polygon id="path-21" points="-1.56007078e-15 0 119.90916 0 119.90916 29.9606383 -1.56007078e-15 29.9606383"></polygon>
        <polygon id="path-23" points="0 0 119.909116 0 119.909116 29.9356727 0 29.9356727"></polygon>
    </defs>
    <g id="New-Site" stroke="none" stroke-width="1" fill="none" fill-rule="evenodd">
        <g id="Menu-Copy" transform="translate(-386.000000, -210.000000)">
            <g id="branded-dollars2" transform="translate(386.500000, 210.500000)">
                <ellipse id="path-1" stroke="#FFFFFF" stroke-width="4" opacity="0.2" cx="344.239213" cy="222.978495" rx="205.844058" ry="206.443011"></ellipse>
                <ellipse id="path-1-copy-3" stroke="#FFFFFF" stroke-width="4" opacity="0.2" cx="141.892506" cy="195.419355" rx="131.400454" ry="131.782796"></ellipse>
                <ellipse id="path-1-copy" stroke="#FFFFFF" stroke-width="4" opacity="0.1" cx="494.125662" cy="88.6903226" rx="79.9394398" ry="80.172043"></ellipse>
                <ellipse id="path-1-copy-2" stroke="#FFFFFF" stroke-width="4" opacity="0.2" cx="542.089326" cy="372.298925" rx="65.9500379" ry="66.1419355"></ellipse>
                <ellipse id="path-1-copy-4" stroke="#FFFFFF" stroke-width="4" opacity="0.1" cx="82.9371688" cy="319.686022" rx="36.4723694" ry="36.5784946"></ellipse>
                <ellipse id="path-1-copy-5" fill="#FFFFFF" opacity="0.2" transform="translate(593.550341, 274.589247) scale(1, -1) translate(-593.550341, -274.589247) " cx="593.550341" cy="274.589247" rx="4.99621499" ry="5.01075269"></ellipse>
                <ellipse id="path-1-copy-6" fill="#FFFFFF" opacity="0.2" transform="translate(604.542014, 356.765591) scale(1, -1) translate(-604.542014, -356.765591) " cx="604.542014" cy="356.765591" rx="10.991673" ry="11.0236559"></ellipse>
                <ellipse id="path-1-copy-7" fill="#FFFFFF" opacity="0.2" transform="translate(195.851628, 186.400000) scale(1, -1) translate(-195.851628, -186.400000) " cx="195.851628" cy="186.4" rx="10.991673" ry="11.0236559"></ellipse>
                <ellipse id="path-1-copy-8" fill="#FFFFFF" opacity="0.2" transform="translate(219.833460, 11.023656) scale(1, -1) translate(-219.833460, -11.023656) " cx="219.83346" cy="11.0236559" rx="10.991673" ry="11.0236559"></ellipse>
                <ellipse id="path-1-copy-9" fill="#FFFFFF" opacity="0.2" transform="translate(10.991673, 344.739785) scale(1, -1) translate(-10.991673, -344.739785) " cx="10.991673" cy="344.739785" rx="10.991673" ry="11.0236559"></ellipse>
                <ellipse id="path-1-copy-14" fill="#FFFFFF" opacity="0.1" transform="translate(328.750946, 275.591398) scale(1, -1) translate(-328.750946, -275.591398) " cx="328.750946" cy="275.591398" rx="10.991673" ry="11.0236559"></ellipse>
                <ellipse id="path-1-copy-10" fill="#FFFFFF" opacity="0.2" transform="translate(608.538986, 48.103226) scale(1, -1) translate(-608.538986, -48.103226) " cx="608.538986" cy="48.1032258" rx="4.99621499" ry="5.01075269"></ellipse>
                <ellipse id="path-1-copy-11" fill="#FFFFFF" opacity="0.1" transform="translate(56.956851, 197.423656) scale(1, -1) translate(-56.956851, -197.423656) " cx="56.9568509" cy="197.423656" rx="4.99621499" ry="5.01075269"></ellipse>
                <ellipse id="path-1-copy-12" fill="#FFFFFF" opacity="0.2" transform="translate(179.863740, 8.017204) scale(1, -1) translate(-179.863740, -8.017204) " cx="179.86374" cy="8.0172043" rx="4.99621499" ry="5.01075269"></ellipse>
                <ellipse id="path-1-copy-13" fill="#FFFFFF" opacity="0.1" transform="translate(312.763058, 460.989247) scale(1, -1) translate(-312.763058, -460.989247) " cx="312.763058" cy="460.989247" rx="4.99621499" ry="5.01075269"></ellipse>
                <ellipse id="path-1-copy-15" fill="#FFFFFF" opacity="0.2" transform="translate(349.735049, 290.623656) scale(1, -1) translate(-349.735049, -290.623656) " cx="349.735049" cy="290.623656" rx="4.99621499" ry="5.01075269"></ellipse>
                <ellipse id="path-1-copy-16" fill="#FFFFFF" opacity="0.2" transform="translate(468.644966, 202.434409) scale(1, -1) translate(-468.644966, -202.434409) " cx="468.644966" cy="202.434409" rx="4.99621499" ry="5.01075269"></ellipse>
                <g id="Group-12" transform="translate(227.327782, 7.516129)">
                    <g id="Fill-1" transform="translate(0.324682, 0.458014)">
                        <mask id="mask-2" fill="white">
                            <use xlink:href="#path-1"></use>
                        </mask>
                        <use id="Mask" fill="#FFFFFF" xlink:href="#path-1"></use>
                        <g id="Group-49" mask="url(#mask-2)">
                            <g transform="translate(-0.456685, -0.458014)">
                                <g id="Group-3" transform="translate(0.132004, 0.000000)">
                                    <mask id="mask-4" fill="white">
                                        <use xlink:href="#path-3"></use>
                                    </mask>
                                    <g id="Clip-2"></g>
                                    <path d="M112.555177,0 C50.3814223,0 0,50.5721485 0,112.970943 L0,112.970943 C0,175.369737 50.3814223,225.941885 112.555177,225.941885 L112.555177,225.941885 C174.728933,225.941885 225.154356,175.369737 225.154356,112.970943 L225.154356,112.970943 C225.154356,50.5721485 174.728933,0 112.555177,0 Z" id="Fill-1" stroke="#979797" fill="url(#linearGradient-5)" mask="url(#mask-4)"></path>
                                </g>
                                <g id="Group-48" transform="translate(0.000000, 18.521414)">
                                    <path d="M208.477885,153.891661 C188.897333,185.620609 154.09235,206.84679 114.315227,207.420471 L112.687181,207.420471 C81.7983091,207.420471 53.8135191,194.931886 33.4849453,174.720678 C61.2497291,171.322724 100.366833,166.11547 120.651406,159.231303 C136.051841,153.979919 150.880259,147.492916 164.036631,139.373129 C166.764708,137.5197 169.448783,137.607958 171.208833,137.607958 C172.968883,137.607958 174.904938,137.034278 176.180974,136.548856 C176.972996,136.28408 188.325316,145.021677 208.477885,153.891661" id="Fill-4" fill="#00A8FF"></path>
                                    <path d="M199.237624,159.672596 C197.037562,158.1722 194.925503,156.583546 193.341458,155.436185 C192.681439,154.950763 191.801414,155.656832 192.109423,156.407029 C192.989448,158.436976 194.353487,161.349508 195.981532,164.659204 C196.94956,166.600892 194.265484,168.233675 192.989448,166.468504 C189.029336,160.996474 185.817246,155.921607 183.881191,152.788429 C183.309175,151.817585 181.813133,152.214748 181.769131,153.31798 C181.637128,156.671805 181.417121,161.83493 181.417121,167.174572 C181.417121,168.189546 180.009082,168.410192 179.701073,167.439348 C178.293033,163.202938 176.796991,158.083942 175.916966,155.039022 C175.69696,154.244695 174.596929,154.244695 174.376923,155.039022 L173.496898,157.951554 C173.23289,158.745881 172.088858,158.613493 172.044857,157.775037 C172.044857,157.422003 172.044857,157.113098 172.000856,156.760064 C171.956854,155.877478 170.72482,155.656832 170.416811,156.495288 C168.744764,161.26125 165.620675,167.483477 163.112605,172.249439 C162.58459,173.308541 161.000545,172.690732 161.264552,171.54337 C162.716593,165.806565 164.564646,158.039812 165.44467,152.258878 C165.620675,151.023258 164.080632,150.27306 163.244608,151.199775 C161.088547,153.626885 158.184465,156.142254 155.764397,158.128071 C154.972375,158.79001 153.916345,157.819166 154.44436,156.936581 C155.060377,156.009866 155.632393,155.083151 156.160408,154.156436 C156.55642,153.450368 155.808398,152.656041 155.104379,153.053204 C152.420303,154.465341 148.900203,155.524444 146.700141,156.142254 C146.084124,156.318771 145.60011,155.612702 145.95212,155.083151 C146.260129,154.685988 146.524136,154.200566 146.700141,153.759273 C147.052151,152.920817 146.216128,152.12649 145.380104,152.479524 C141.904006,153.979919 137.899893,155.215539 134.159787,156.230512 C132.971754,156.539417 132.399738,154.818375 133.54377,154.377083 C144.236072,150.096543 154.488361,145.109935 163.904627,139.329 C166.632704,137.475571 169.31678,137.563829 171.076829,137.563829 C172.836879,137.563829 174.772934,136.990149 176.04897,136.504727 C176.796991,136.239951 187.269287,144.271479 205.881812,152.7443 C206.761837,153.141463 206.321824,154.509471 205.353797,154.332953 C203.021731,153.847531 200.953673,153.229722 199.545633,152.7443 C198.797612,152.479524 198.181595,153.31798 198.621607,153.979919 C199.193623,154.774246 199.985646,155.877478 201.21768,157.289615 C202.62572,158.745881 200.821669,160.731698 199.237624,159.672596" id="Fill-6" fill="#FFFFFF"></path>
                                    <path d="M172.000856,61.1760551 C192.146384,61.1760551 208.477885,77.5550766 208.477885,97.7592236 C208.477885,117.963371 192.146384,134.342392 172.000856,134.342392 C151.855327,134.342392 135.523826,117.963371 135.523826,97.7592236 C135.523826,77.5550766 151.855327,61.1760551 172.000856,61.1760551" id="Fill-8" fill="#D82123"></path>
                                    <path d="M162.23258,109.144576 L162.23258,99.8332995 L182.253145,99.8332995 L182.253145,109.276964 C179.26106,108.703284 175.828964,108.350249 171.868852,108.350249 C168.26075,108.30612 165.048659,108.659154 162.23258,109.144576 L162.23258,109.144576 Z M162.23258,86.3297415 C165.092661,86.8592928 168.348752,87.1681978 172.088858,87.1681978 C175.960967,87.1681978 179.349063,86.8151636 182.253145,86.241483 L182.253145,95.0232086 L162.23258,95.0232086 L162.23258,86.3297415 Z M196.641551,115.146158 C196.421545,114.969641 193.341458,112.366013 187.04928,110.468455 L187.04928,99.8774288 L188.897333,99.8774288 C190.21737,99.8774288 190.877388,98.8183262 190.877388,97.494448 C190.877388,96.1705697 189.425347,95.1114672 188.10531,95.1114672 L187.04928,95.1114672 L187.04928,85.1382511 C193.42946,83.1965631 196.509547,80.5488066 196.685552,80.3722895 C197.65358,79.489704 197.741582,78.033438 196.905559,77.0184646 C196.069535,76.0476206 194.529492,75.9152328 193.561464,76.7978183 C193.517463,76.8419475 186.829274,82.4463654 172.132859,82.4463654 C157.480446,82.4463654 150.616252,76.8860768 150.484248,76.7978183 C149.47222,75.9593621 147.976177,76.0917499 147.140154,77.0625939 C146.30413,78.0775672 146.392133,79.5779626 147.404161,80.4164188 C147.624167,80.5929359 150.880259,83.3289509 157.524447,85.270639 L157.524447,95.1114672 L155.8524,95.1114672 C154.532362,95.1114672 153.872344,96.1705697 153.872344,97.494448 C153.872344,98.8183262 155.324385,99.8774288 156.644422,99.8774288 L157.524447,99.8774288 L157.524447,110.291938 C150.792257,112.233626 147.580166,115.01377 147.36016,115.190287 C146.392133,116.072873 146.30413,117.529139 147.140154,118.544112 C147.976177,119.514956 149.516221,119.647344 150.484248,118.764758 C150.528249,118.720629 157.216438,113.116211 171.912853,113.116211 C186.565267,113.116211 193.473462,118.6765 193.561464,118.764758 C194.001477,119.161922 194.573493,119.338439 195.101508,119.338439 C195.761526,119.338439 196.421545,119.073663 196.905559,118.499983 C197.741582,117.485009 197.65358,115.984614 196.641551,115.146158 L196.641551,115.146158 Z" id="Fill-10" fill="#FFFFFF"></path>
                                    <polygon id="Fill-12" fill="#FFFFFF" points="21.4726062 87.0358099 34.1449639 66.1185339 47.1253303 47.4077215 54.9575514 43.6126039 64.2858148 13.8253437 82.6343327 48.5550826 100.23483 51.0704513 113.655208 70.7079784 115.327256 89.46292 133.675774 119.691473 130.771692 139.108354 108.243056 144.22735 85.582416 130.547275 82.5463303 112.807306 44.6172595 105.040554 42.9452123 137.5197 47.9613539 171.234466 23.1006521 145.065806 10.7803043 103.760805"></polygon>
                                    <path d="M71.5460197,103.849063 L66.4418756,100.40698 L49.1933887,88.7127224 L45.2332769,71.0168833 L46.2453055,68.6339025 L49.061385,69.4723587 L52.7574893,87.2564563 L73.8340843,101.863246 L71.5460197,103.849063 Z M127.647603,139.814422 C127.735606,137.828605 130.991698,134.651297 131.343708,127.76713 C130.903695,128.252552 130.507684,128.737974 130.111673,129.135138 C124.303509,135.489753 121.443428,134.121746 119.463372,131.032697 C118.011331,128.782104 116.999303,125.560667 115.635264,123.839625 C115.283254,123.398332 114.975246,122.957039 114.579235,122.471617 C111.323143,117.926302 107.011021,110.512584 105.382975,107.644181 C103.578924,104.466873 102.39089,103.363641 99.222801,102.436927 C96.0547116,101.510212 83.0303439,98.5535506 80.3022669,97.4061894 C77.5741899,96.2588283 64.9898346,85.9767074 64.9898346,85.9767074 L60.7217142,66.9569901 L65.6938545,55.3951202 L66.0458645,54.6007932 L60.0616955,47.7166264 L52.2734757,47.4077215 L39.3811117,58.4841694 L36.5650322,60.9112795 L36.3890273,62.8088383 L34.6729788,81.3431335 L30.9328732,77.5480159 L23.628667,83.3289509 L16.9404782,88.7127224 L16.6324695,94.6260451 L16.3244608,100.142204 C16.3244608,100.142204 17.1604844,102.83409 18.8765329,107.070501 C19.8885614,109.629998 21.2526,112.807306 22.9246472,116.24939 C23.980677,118.455853 25.2127117,120.838834 26.5767503,123.221815 C29.0848211,127.76713 32.1209068,132.488963 35.5970049,137.034278 C37.1370484,139.064224 38.8090956,141.005913 40.525144,142.903471 C41.4491701,130.23837 42.9452123,119.86799 44.2212484,112.674918 C44.7492633,109.629998 45.2772782,107.11463 45.6732893,105.30533 C45.981298,103.937322 46.2013042,102.922349 46.3773092,102.304539 C46.5093129,101.774988 46.5533142,101.510212 46.5533142,101.510212 L44.705262,97.0972845 L43.0332148,93.0815205 C56.4535937,106.938113 79.8622545,106.011398 79.8622545,106.011398 C79.8622545,106.011398 84.0863737,115.499192 88.2224905,124.810469 C88.3984955,125.207632 88.5745004,125.648925 88.7505054,126.046089 C89.1465166,126.972803 89.586529,127.899518 89.9825402,128.826233 C90.862565,128.252552 91.6545874,127.81126 92.3586073,127.458225 C100.718843,123.354203 96.7587315,134.298263 108.155053,138.887707 C108.199054,138.887707 108.199054,138.931837 108.243056,138.931837 C108.419061,139.020095 108.595066,139.064224 108.771071,139.108354 C111.323143,140.035069 116.471288,140.961783 120.78341,141.358947 C125.183534,141.80024 128.747635,141.75611 127.999613,140.785266 C127.735606,140.520491 127.647603,140.211586 127.647603,139.814422 L127.647603,139.814422 Z" id="Fill-14" fill="#93A5C3"></path>
                                    <path d="M105.734985,78.4747307 C107.31903,82.4463654 104.414948,89.6394371 99.8388184,87.3447149 C95.7027017,85.270639 72.9540595,65.5448533 72.9540595,65.5448533 C72.9540595,65.5448533 77.0021737,71.7229517 78.0142023,73.532252 C75.9021427,75.0326473 71.414016,80.0192553 74.3620992,85.0941219 C82.5463303,99.1713604 101.730872,96.1705697 101.730872,96.1705697 C101.730872,96.1705697 111.499148,104.908166 112.863186,106.187915 C113.743211,107.026371 105.998992,93.2580376 105.998992,93.2580376 C105.998992,93.2580376 112.819185,86.3297415 105.734985,78.4747307" id="Fill-16" fill="#0A1726"></path>
                                    <path d="M125.447541,126.090218 C123.775494,119.956249 117.791325,121.897937 117.791325,121.897937 C117.791325,121.897937 115.459259,122.162712 114.491232,116.425907 C114.491232,116.425907 113.611207,125.031115 117.219309,129.311655 C120.827411,133.592194 126.855581,131.209214 125.447541,126.090218" id="Fill-18" fill="#0A1726"></path>
                                    <path d="M72.690052,50.3202536 L65.4298471,33.815905 C65.4298471,33.8600343 64.1098098,45.2012578 72.690052,50.3202536" id="Fill-20" fill="#0A1726"></path>
                                    <path d="M108.155053,138.887707 C97.5507538,134.871943 92.314606,133.062643 92.314606,127.899518 C92.314606,127.723001 92.314606,127.590613 92.3586073,127.414096 C92.7106172,125.693054 94.8666781,123.927883 96.9347364,124.236788 C96.846734,123.089427 95.9227079,122.339229 94.3386632,121.942066 C97.4187501,122.074454 99.7948172,123.927883 101.246858,128.517328 C103.490922,135.798658 108.463062,138.931837 108.771071,139.108354 C108.595066,139.020095 108.419061,138.975966 108.243056,138.931837 C108.199054,138.931837 108.155053,138.887707 108.155053,138.887707 L108.155053,138.887707 Z M18.8765329,107.070501 C18.9645354,98.2887749 20.5485801,92.50784 20.5485801,92.50784 C20.5485801,92.50784 20.9445913,105.084683 22.9246472,116.24939 C24.0686795,122.648134 25.6967254,128.561457 28.0727925,131.42986 C27.3687726,128.737974 26.8847589,126.001959 26.5767503,123.221815 C25.0367068,110.11542 27.1487664,97.494448 27.1487664,97.494448 C27.1487664,97.494448 32.5169179,104.334486 37.7090645,108.350249 C37.7090645,108.350249 33.9689589,119.691473 35.5970049,137.034278 C36.2130223,143.741928 37.621062,151.332163 40.349139,159.496079 C22.0886236,141.623722 18.7445292,120.706446 18.8765329,107.070501 L18.8765329,107.070501 Z M51.3054483,56.807257 L46.2453055,68.5897732 L50.9534384,87.7860076 L70.4459887,100.848273 C69.0379489,100.715885 67.7179117,100.583497 66.3978744,100.362851 C47.4773403,97.3179309 37.2690521,84.1232778 39.8211241,68.3691269 C42.7692074,50.055478 58.6096545,51.026322 58.6096545,51.026322 L57.1576135,55.3068616 L51.3054483,56.807257 Z M116.471288,94.3171402 C118.583348,98.0681285 127.119589,113.248599 130.023671,118.853017 C131.167703,121.059481 130.947697,125.516537 130.155674,129.135138 C129.539657,131.871153 128.615631,134.121746 127.691605,134.651297 C125.491543,135.886917 117.703323,137.607958 113.831213,131.562248 C109.959104,125.516537 108.463062,119.206051 105.162969,118.235207 C101.862876,117.308492 92.490611,115.763968 87.6504743,112.719048 C94.9546805,112.542531 98.4747799,110.556713 98.4747799,110.556713 C98.4747799,110.556713 84.130375,103.937322 78.2342085,100.892402 C72.3380421,97.8916114 61.2937303,89.6835664 61.2937303,89.6835664 L56.0575825,68.545644 L62.4817638,53.2327857 C62.4817638,53.2327857 63.7577999,54.2036298 65.8258582,55.2627323 C66.9258893,55.8364129 68.333929,56.4100935 69.8299713,56.8513862 C63.9778061,50.2761243 57.597626,37.1697298 64.2418135,24.1074646 C72.1620371,38.0523153 81.050288,58.263523 81.050288,58.263523 C81.050288,58.263523 85.406411,59.3667549 90.2905489,62.8970968 C89.1465166,58.7930743 86.3304371,56.9396448 86.1544321,56.807257 C86.4624408,56.8513862 92.7546184,59.1902378 96.7147302,56.7631277 C96.7147302,56.7631277 95.7467029,68.236739 109.563093,69.516488 C113.215196,71.4581761 114.271226,85.0058633 112.599179,93.2580376 C112.071164,96.4353454 113.611207,98.8183262 116.383285,103.540159 C115.415258,100.848273 115.899272,97.0531552 116.471288,94.3171402 L116.471288,94.3171402 Z M156.864428,13.2516631 C127.5156,32.6685438 120.299396,36.55192 120.035389,36.7284371 C120.167392,36.3312736 128.879638,14.5314121 102.302888,5.04361805 C106.703012,10.8686823 106.439005,13.8253437 106.439005,13.8253437 C106.439005,13.8253437 87.4744694,-9.07774977 51.3494496,4.07277401 C62.5697663,3.41083489 69.78597,6.54401338 70.9740036,7.47072814 C70.0939787,7.0294354 54.4295365,4.7788424 37.8850695,10.0302261 C37.8410682,10.0743553 37.7530658,10.0743553 37.7090645,10.0743553 C29.4808322,17.4439442 22.3086298,26.0050234 16.544467,35.4486881 C14.7844174,38.317091 13.2003726,41.2296231 11.7043304,44.2304137 C8.22823228,51.2469684 5.45615403,58.7048158 3.47609813,66.5156973 C2.28806459,71.1492711 1.40803975,75.9152328 0.836023601,80.8135822 C0.264007453,85.270639 0,89.8159542 0,94.449528 C0,97.2296723 0.0880024843,100.009817 0.308008695,102.701702 C1.05602981,112.895565 3.12408819,122.736393 6.38018011,132.04767 C6.38018011,131.915282 6.33617887,131.738765 6.33617887,131.606377 C18.1285118,165.585918 45.6732893,192.195871 80.1702632,202.654509 C69.7419688,194.622981 58.873662,181.825491 51.9214657,162.408611 C58.9616645,177.191918 72.9540595,190.254183 85.406411,196.035118 C49.0173837,164.791591 50.5574272,113.072082 50.5574272,113.072082 C50.5574272,113.072082 57.6416272,117.264363 68.0259204,116.117002 C70.4899899,117.838043 75.9461439,121.412515 79.2462371,123.839625 C80.3462682,131.694636 82.9423414,135.269107 84.2183775,136.328209 C87.2104619,138.843578 98.5187812,147.978338 102.918905,149.302216 C106.351002,150.361319 124.215507,150.096543 128.747635,146.830977 C132.83975,143.874315 134.819806,134.165875 135.65583,129.57643 C136.403851,125.384149 136.007839,119.956249 132.83975,114.087055 C129.583658,108.129603 118.407343,86.1973537 118.407343,86.1973537 C118.407343,86.1973537 119.243366,74.0618033 113.743211,65.3242069 C113.743211,65.3242069 130.507684,46.3927482 157.920458,14.3990242 C158.844484,13.2957924 158.052462,12.4573362 156.864428,13.2516631 L156.864428,13.2516631 Z" id="Fill-22" fill="#0A1726"></path>
                                    <path d="M97.8587625,92.50784 L80.6982781,77.1949817 C80.6982781,77.1949817 76.4301576,81.9168141 79.950257,85.5354146 C87.1224594,92.9050034 97.8587625,92.50784 97.8587625,92.50784" id="Fill-24" fill="#FFD821"></path>
                                    <path d="M109.651095,62.9853554 C115.459259,56.6307399 137.547883,33.8600343 147.36016,23.3131377 C147.71217,22.9159742 147.228156,22.3422936 146.788144,22.6511985 C136.095842,29.9766581 111.323143,50.0996072 103.44692,55.527508 C101.950878,56.5424813 101.334861,58.4400401 101.950878,60.1169525 C102.7429,62.279287 103.09491,63.2060017 105.470977,64.0885872 C106.923018,64.6181385 108.595066,64.1327165 109.651095,62.9853554" id="Fill-26" fill="#93A5C3"></path>
                                    <path d="M108.331058,60.4258575 C110.575122,57.9546181 126.503571,42.1122086 130.287678,38.0523153 C130.419682,37.9199275 130.243677,37.6551519 130.067672,37.7875397 C125.931555,40.6118132 108.023049,54.4242761 104.986964,56.498352 C104.414948,56.8955155 103.886933,58.0870059 104.106939,58.748945 C104.414948,59.6756598 104.85496,60.4699867 106.174997,60.9554088 C106.747013,61.1319258 107.935047,60.8671502 108.331058,60.4258575" id="Fill-28" fill="#FFFFFF"></path>
                                    <path d="M39.425113,89.1981444 C39.425113,89.1981444 44.6172595,105.481847 69.3019564,106.408561 C74.8461129,110.865618 81.5783029,117.793914 81.5783029,117.793914 L67.9379179,109.629998 C67.9379179,109.629998 41.3171664,108.879801 39.425113,89.1981444" id="Fill-30" fill="#244063"></path>
                                    <path d="M111.323143,19.032598 C111.323143,19.032598 114.931244,27.2406431 111.323143,36.3754029 C120.695407,29.4471068 111.323143,19.032598 111.323143,19.032598" id="Fill-32" fill="#D82123"></path>
                                    <path d="M77.5741899,5.97033281 C100.894848,16.9143929 105.074966,39.9940034 105.074966,39.9940034 C108.991077,27.6378066 105.822987,11.0010701 77.5741899,5.97033281" id="Fill-34" fill="#D82123"></path>
                                    <path d="M95.2626892,43.789121 C88.2224905,34.301327 78.0142023,28.4762628 67.9379179,24.9459208 L63.9778061,17.8852369 C63.9778061,17.8852369 62.3057589,19.9151835 60.6777129,22.7394571 C46.3773092,19.0767273 30.9328732,20.3564763 30.9328732,20.3564763 C44.4412546,13.9136022 85.9344259,7.60311596 95.2626892,43.789121" id="Fill-36" fill="#D82123"></path>
                                    <path d="M56.5415962,36.6843078 C36.7850384,34.1248099 21.6046099,39.0231594 11.6603292,44.2304137 C13.1563714,41.2296231 14.7844174,38.2729617 16.5004658,35.4486881 C27.2367689,30.3738216 40.349139,28.6969091 56.5415962,36.6843078" id="Fill-38" fill="#D82123"></path>
                                    <path d="M41.1851626,49.0846339 C41.1851626,49.0846339 16.2804596,57.8222303 0.792022359,80.8135822 C1.36403851,75.9593621 2.24406335,71.1934004 3.43209689,66.5156973 C18.348518,46.9222995 41.1851626,49.0846339 41.1851626,49.0846339" id="Fill-40" fill="#D82123"></path>
                                    <path d="M6.33617887,131.606377 C6.33617887,131.738765 6.38018011,131.915282 6.38018011,132.04767 C3.12408819,122.780522 1.01202857,112.939694 0.308008695,102.701702 C0.352009937,102.613444 0.352009937,102.481056 0.396011179,102.392797 C3.78410682,91.2722203 10.3402919,84.7410877 12.9803664,82.5346239 C12.9803664,82.5346239 4.09211552,104.908166 6.33617887,131.606377" id="Fill-42" fill="#D82123"></path>
                                    <path d="M100.850847,139.637905 C100.850847,139.637905 94.7346743,137.431441 90.7745625,133.592194 C87.958483,130.856179 87.3864669,126.310864 90.3785514,123.442461 C83.9103688,126.487381 85.9344259,132.135928 87.5624719,133.724582 C92.666616,138.667061 100.850847,139.637905 100.850847,139.637905" id="Fill-44" fill="#244063"></path>
                                    <path d="M63.0977812,154.465341 C63.0977812,154.465341 76.9581725,187.121004 130.023671,198.373969 C78.4542147,203.272319 63.0977812,154.465341 63.0977812,154.465341" id="Fill-46" fill="#0A1726"></path>
                                </g>
                            </g>
                        </g>
                    </g>
                    <path d="M112.555177,2 C143.091564,2 170.742327,14.4206784 190.758224,34.5026612 C210.771572,54.5820866 223.15219,82.3207189 223.154356,112.962902 L223.154356,112.962902 L223.139398,114.815048 C222.648423,145.059354 210.097766,172.359535 190.104484,192.08972 C170.144192,211.787349 142.765366,223.939714 112.56327,223.941885 L112.56327,223.941885 L110.717972,223.926885 C80.5845699,223.434486 53.3872352,210.846242 33.7324582,190.789776 C14.1074834,170.763721 2.00213873,143.292054 2.00000028,112.978976 L2.00000028,112.978976 L2.01494527,111.126816 C2.50554066,80.8795213 15.0476292,53.5768385 35.0336352,33.8461247 C54.9843354,14.1502657 82.3530907,2 112.555177,2 Z" id="Fill-1" stroke="#FFFFFF" stroke-width="4"></path>
                </g>
                <g id="Group" transform="translate(510.113550, 93.701075)">
                    <mask id="mask-7" fill="white">
                        <use xlink:href="#path-6"></use>
                    </mask>
                    <use id="Mask" stroke="#FFFFFF" stroke-width="4" fill="#3872FA" xlink:href="#path-6"></use>
                    <g id="Group-2" mask="url(#mask-7)" fill="#FFFFFF">
                        <g transform="translate(35.223316, 18.790323)">
                            <path d="M73.6198316,32.8405008 L69.7798404,56.0221529 L56.0998717,39.8853146 L73.6198316,32.8405008 Z M69.8998401,65.9571467 L73.3198323,78.6618963 L47.1598921,85.8873463 L69.8998401,65.9571467 Z M12.8999705,59.5746658 L26.9399384,41.1497683 L51.2998827,41.1497683 L66.899847,59.5746658 L12.8999705,59.5746658 Z M65.0998511,64.1507842 L39.7199092,86.369043 L13.8599683,64.1507842 L65.0998511,64.1507842 Z M22.1999492,39.8853146 L9.65997791,56.3232133 L5.81998669,32.960925 L22.1999492,39.8853146 Z M32.1599264,85.8873463 L5.69998696,78.6618963 L9.29997873,66.2582071 L32.1599264,85.8873463 Z M37.0799152,91.9085546 L32.0999266,97.4480663 C27.8999362,93.4138567 23.2199469,89.8613438 18.2399583,86.7905275 L37.0799152,91.9085546 Z M61.2598599,86.7303155 C56.2798713,89.8011317 51.6598819,93.4740688 47.4598915,97.5082784 L42.3599031,91.9687667 L61.2598599,86.7303155 Z M79.4398183,25.6752629 L51.8998813,36.6338621 L26.2799399,36.6338621 L0,25.5548387 L5.93998642,61.7423008 L0.239999451,81.3112279 L15.1799653,90.2828284 C22.2599491,94.4976742 28.5599347,99.8565496 34.0199222,106.058394 L39.8399089,112.741935 L45.9598949,105.697122 C51.179883,99.6759134 57.299869,94.4976742 64.0798534,90.3430405 L78.71982,81.3112279 L73.439832,61.7423008 L79.4398183,25.6752629 Z" id="Fill-1"></path>
                            <path d="M33.6019951,11.3902457 L33.6019951,6.02110024 C35.4124935,6.33376381 37.4405348,6.5256959 39.720231,6.5256959 C41.9999271,6.5256959 44.0273248,6.33376381 45.8384668,6.02110024 L45.8384668,11.3902457 L33.6019951,11.3902457 Z M39.720231,19.0285237 C37.4405348,19.0285237 35.4124935,19.2204558 33.6019951,19.5337385 L33.6019951,14.1639739 L45.8384668,14.1639739 L45.8384668,19.5337385 C44.0273248,19.2204558 41.9999271,19.0285237 39.720231,19.0285237 L39.720231,19.0285237 Z M49.9782199,4.9871435 C50.003321,4.9784756 50.0277785,4.96918857 50.0528796,4.96052067 C51.8794685,4.34262316 53.3733066,3.60894727 54.5620697,2.88332015 C55.1265229,2.53908066 55.4579864,1.93294674 55.4579864,1.29028381 C55.4579864,0.250135712 54.2524892,-0.357236481 53.359147,0.22846596 C52.0062613,1.11568752 50.0947148,2.0654418 47.5047947,2.74153806 C47.4262732,2.76196954 47.3516135,2.78425843 47.2724485,2.80407077 C46.913953,2.89384546 46.5400108,2.97680965 46.1557707,3.05482076 C46.0392757,3.07896705 45.9195627,3.10063681 45.801137,3.12292569 C45.4825459,3.18422014 45.1549441,3.23994235 44.8189754,3.29194976 C44.7166401,3.30742815 44.6168792,3.32476396 44.5126131,3.33962321 C44.0755962,3.40153679 43.6250634,3.45663988 43.1584401,3.50245592 C43.0779878,3.50988555 42.9943174,3.51545777 42.9125779,3.5228874 C42.5090292,3.55941641 42.0932518,3.58851579 41.6671764,3.61142382 C41.5468198,3.61761518 41.4264632,3.62442567 41.3041757,3.62937876 C40.7905683,3.65104851 40.2660193,3.66590777 39.720231,3.66590777 C39.1757299,3.66590777 38.6531118,3.65104851 38.1414352,3.62937876 C38.0133552,3.62442567 37.8884932,3.61761518 37.7636312,3.61080468 C37.3536464,3.58851579 36.9539594,3.56065468 36.5652139,3.52536395 C36.4654531,3.51669604 36.3637614,3.50988555 36.2659314,3.50059851 C35.8147549,3.45602074 35.3803126,3.40277506 34.9568117,3.34271889 C34.8171465,3.32290655 34.6832739,3.30061766 34.5461832,3.27894791 C34.2623475,3.23437013 33.984948,3.18669668 33.7139847,3.13592755 C33.5511493,3.10558989 33.3876702,3.07525224 33.2293401,3.04243804 C32.9545151,2.98547755 32.6880571,2.92480225 32.4267481,2.86226953 C32.1847476,2.80407077 31.9504705,2.74339547 31.7194115,2.68086275 C29.2440554,2.01033871 27.403307,1.09092209 26.0877511,0.230942503 C25.1911908,-0.355998209 23.9818319,0.248278304 23.9818319,1.29152208 C23.9818319,1.93356588 24.3126518,2.53846153 24.8758178,2.88270101 C26.0632936,3.60708987 27.5539137,4.33952749 29.3766408,4.95680585 C29.4068908,4.96733116 29.4358537,4.9784756 29.467391,4.98900091 C29.8323226,5.11097066 30.2139882,5.22612991 30.6040209,5.33881262 L30.6040209,11.3902457 L29.2794544,11.3902457 C28.6899,11.3902457 28.2116916,11.8502635 28.2116916,12.4173919 C28.2116916,13.3820054 29.0252252,14.1639739 30.0273389,14.1639739 L30.6040209,14.1639739 L30.6040209,20.215407 C30.2139882,20.3280897 29.8323226,20.4438681 29.467391,20.5652187 C29.4358537,20.575744 29.4068908,20.5868884 29.3766408,20.5980329 C27.5539137,21.2153112 26.0632936,21.9471297 24.8758178,22.6721377 C24.3126518,23.015758 23.9818319,23.6206537 23.9818319,24.2633166 C23.9818319,25.3059413 25.1911908,25.9102178 26.0877511,25.3238962 C27.403307,24.4632975 29.2440554,23.5445 31.7194115,22.8733568 C31.9504705,22.8108241 32.1847476,22.7501488 32.4267481,22.69195 C32.6880571,22.6294173 32.9545151,22.568742 33.2293401,22.5117815 C33.3876702,22.4789673 33.5511493,22.4486297 33.7139847,22.418292 C33.984948,22.3675229 34.2623475,22.3198494 34.5461832,22.2758908 C34.6832739,22.254221 34.8171465,22.231313 34.9568117,22.2115007 C35.3803126,22.1514445 35.8147549,22.0981988 36.2659314,22.0542402 C36.3637614,22.044334 36.4654531,22.0375235 36.5652139,22.0288556 C36.9539594,21.994184 37.3536464,21.9657038 37.7636312,21.9434149 C37.8884932,21.9372235 38.0133552,21.930413 38.1414352,21.9248408 C38.6531118,21.9031711 39.1757299,21.8883118 39.720231,21.8883118 C40.2660193,21.8883118 40.7905683,21.9031711 41.3041757,21.9248408 C41.4264632,21.9297939 41.5468198,21.9366044 41.6671764,21.9427958 C42.0932518,21.9657038 42.5090292,21.9948032 42.9125779,22.0313322 C42.9943174,22.0387618 43.0779878,22.044334 43.1584401,22.0517637 C43.6250634,22.0975797 44.0755962,22.1526828 44.5126131,22.2152155 C44.6168792,22.2300748 44.7166401,22.2467914 44.8189754,22.262889 C45.1549441,22.3142772 45.4825459,22.3706186 45.801137,22.4312939 C45.9195627,22.4535828 46.0392757,22.4758717 46.1557707,22.4993988 C46.5400108,22.5774099 46.913953,22.6603741 47.2724485,22.7501488 C47.3516135,22.7699611 47.4262732,22.7928692 47.5047947,22.8126815 C50.0947148,23.4893969 52.0062613,24.4391512 53.359147,25.3263727 C54.2524892,25.9120752 55.4579864,25.304703 55.4579864,24.2645549 C55.4579864,23.6212728 55.1265229,23.0151389 54.5620697,22.6708994 C53.3733066,21.9452723 51.8794685,21.2115964 50.0528796,20.5936989 C50.0277785,20.585031 50.003321,20.575744 49.9782199,20.5676952 C49.6120011,20.4451063 49.2284046,20.3287088 48.8357974,20.215407 L48.8357974,14.1639739 L50.1603639,14.1639739 C50.7499183,14.1639739 51.2281267,13.703956 51.2281267,13.1368277 C51.2281267,12.1722141 50.4152368,11.3902457 49.4118358,11.3902457 L48.8357974,11.3902457 L48.8357974,5.33881262 C49.2284046,5.22612991 49.6120011,5.10973239 49.9782199,4.9871435 L49.9782199,4.9871435 Z" id="Fill-4"></path>
                        </g>
                    </g>
                </g>
                <g id="Oval" transform="translate(364.224073, 265.068817)">
                    <mask id="mask-9" fill="white">
                        <use xlink:href="#path-8"></use>
                    </mask>
                    <use id="Mask" stroke="#FFFFFF" stroke-width="4" fill="#031928" xlink:href="#path-8"></use>
                    <g id="Group-10" mask="url(#mask-9)">
                        <g transform="translate(31.975776, 30.465376)">
                            <g id="Group-3" transform="translate(0.000343, 62.757627)">
                                <mask id="mask-11" fill="white">
                                    <use xlink:href="#path-10"></use>
                                </mask>
                                <g id="Clip-2"></g>
                                <path d="M47.7445283,18.6566061 C44.3726773,18.6566061 41.2396857,17.947116 38.6832182,16.6051496 L11.1481935,2.15831326 L2.89747068,7.13340822 C-1.0250041,9.49773353 -0.955936309,13.122198 3.04999538,15.2246762 L41.1332062,35.2088087 C42.982688,36.1782206 45.3473005,36.6557064 47.7445283,36.6557064 C50.5417737,36.6557064 53.3812272,36.0059021 55.4945096,34.7322854 L92.7767259,12.2480908 C96.6992007,9.88184013 96.6301329,6.25737563 92.6242012,4.15682277 L84.7063468,0 L58.2178909,15.976524 C55.3506184,17.7035597 51.6315099,18.6566061 47.7445283,18.6566061" id="Fill-1" fill="url(#linearGradient-12)" mask="url(#mask-11)"></path>
                            </g>
                            <g id="Group-6" transform="translate(0.000000, 39.470563)">
                                <mask id="mask-14" fill="white">
                                    <use xlink:href="#path-13"></use>
                                </mask>
                                <g id="Clip-5"></g>
                                <path d="M70.863395,9.41975701 L68.2205929,11.0370479 L65.57875,12.6533762 L58.3717182,17.063382 C55.4977308,18.8241112 51.767111,19.7915978 47.8705366,19.7915978 L47.8705366,19.7915978 C44.4910114,19.7915978 41.3493863,19.0695929 38.7852447,17.7064477 L38.7852447,17.7064477 L30.5287662,13.3089566 L27.7957922,11.8553201 L25.0628182,10.400721 L9.84871942,2.29886354 L2.9054882,6.5490656 C-1.02657933,8.95478586 -0.959430095,12.6418241 3.05705362,14.7808839 L3.05705362,14.7808839 L10.9969714,19.0070191 L13.7299454,20.462581 L16.4610008,21.9171802 L41.2429068,35.1096533 C43.0952665,36.0963933 45.4675531,36.5806179 47.8705366,36.5806179 L47.8705366,36.5806179 C50.6744969,36.5806179 53.5235432,35.9221495 55.6397035,34.6254287 L55.6397035,34.6254287 L79.4652124,20.0476688 L82.1080146,18.4294152 L84.7498575,16.813087 L93.0216843,11.7513514 C94.9498267,10.5730395 95.9158165,9.08570942 95.9273278,7.62340886 L95.9273278,7.62340886 L95.9273278,7.56853649 C95.9138979,6.06772902 94.8922702,4.59676441 92.8691596,3.51953312 L92.8691596,3.51953312 L86.2587968,0 L70.863395,9.41975701 Z" id="Fill-4" fill="url(#linearGradient-15)" mask="url(#mask-14)"></path>
                            </g>
                            <g id="Group-9">
                                <mask id="mask-17" fill="white">
                                    <use xlink:href="#path-16"></use>
                                </mask>
                                <g id="Clip-8"></g>
                                <path d="M48.0556766,0 C45.2517163,0 42.4036293,0.649804392 40.2865098,1.923421 L40.2865098,1.923421 L2.9054882,24.3999143 C-1.02657933,26.7632769 -0.959430095,30.3848534 3.05705362,32.4873316 L3.05705362,32.4873316 L9.66837575,35.9452536 L12.4013497,37.3748233 L15.1343237,38.8053556 L30.3484225,46.7647374 L33.0804373,48.1933444 L35.8143705,49.6238768 L41.2429068,52.4647253 C43.0952665,53.4341372 45.4675531,53.9106604 47.8705366,53.9106604 L47.8705366,53.9106604 C50.6744969,53.9106604 53.5235432,53.260856 55.6397035,51.9872394 L55.6397035,51.9872394 L60.112802,49.2975306 L62.7556041,47.7091198 L65.397447,46.1207091 L80.7928488,36.8636439 L83.4356509,35.2752331 L86.0774938,33.6868224 L93.0216843,29.5107461 C94.9498267,28.3526503 95.9158165,26.8913124 95.9273278,25.4550041 L95.9273278,25.4550041 L95.9273278,25.4001317 C95.9138979,23.9253164 94.8922702,22.480344 92.8691596,21.4223661 L92.8691596,21.4223661 L54.6842657,1.44689778 C52.8309467,0.476523221 50.4596194,0 48.0556766,0 Z" id="Fill-7" fill="url(#linearGradient-18)" mask="url(#mask-17)"></path>
                                <path d="M41.2504223,25.6411046 L41.2504223,19.8308431 C43.2476769,20.1691943 45.4849144,20.3768951 47.9997654,20.3768951 C50.5146164,20.3768951 52.7511439,20.1691943 54.7491085,19.8308431 L54.7491085,25.6411046 L41.2504223,25.6411046 Z M47.9997654,33.9069252 C45.4849144,33.9069252 43.2476769,34.114626 41.2504223,34.4536473 L41.2504223,28.6427157 L54.7491085,28.6427157 L54.7491085,34.4536473 C52.7511439,34.114626 50.5146164,33.9069252 47.9997654,33.9069252 L47.9997654,33.9069252 Z M59.3158848,18.7119389 C59.3435751,18.7025589 59.3705555,18.6925088 59.3982458,18.6831288 C61.4132506,18.0144663 63.0611809,17.2205134 64.3725671,16.4352705 C64.9952448,16.0627491 65.3608993,15.4068167 65.3608993,14.7113541 C65.3608993,13.5857499 64.0310529,12.9284775 63.0455607,13.5622998 C61.5531224,14.5224134 59.4443964,15.5501972 56.5873212,16.2818399 C56.5007001,16.30395 56.4183391,16.3280701 56.331008,16.3495102 C55.9355332,16.4466605 55.5230181,16.5364409 55.0991429,16.6208612 C54.9706313,16.6469913 54.8385696,16.6704414 54.707928,16.6945614 C54.3564737,16.7608917 53.9950793,16.8211919 53.6244547,16.8774721 C53.5115633,16.8942222 53.4015119,16.9129823 53.2864905,16.9290623 C52.8043946,16.9960626 52.3073885,17.0556928 51.7926321,17.105273 C51.703881,17.113313 51.6115799,17.119343 51.5214088,17.1273831 C51.0762333,17.1669132 50.6175676,17.1984033 50.1475419,17.2231934 C50.0147702,17.2298934 49.8819986,17.2372635 49.7470969,17.2426235 C49.1805099,17.2660736 48.6018528,17.2821536 47.9997654,17.2821536 C47.399098,17.2821536 46.8225709,17.2660736 46.2581139,17.2426235 C46.1168222,17.2372635 45.9790805,17.2298934 45.8413388,17.2225234 C45.3890632,17.1984033 44.9481478,17.1682532 44.5193025,17.1300631 C44.4092512,17.120683 44.2970698,17.113313 44.1891485,17.103263 C43.6914323,17.0550228 43.2121764,16.9974026 42.7449907,16.9324123 C42.5909188,16.9109722 42.443237,16.8868522 42.2920051,16.8634021 C41.9788912,16.8151619 41.6728775,16.7635717 41.3739638,16.7086315 C41.1943316,16.6758014 41.0139893,16.6429713 40.8393272,16.6074611 C40.5361535,16.5458209 40.2422098,16.4801607 39.9539463,16.4124904 C39.686983,16.3495102 39.4285398,16.2838499 39.1736467,16.2161797 C36.442953,15.490567 34.412328,14.4956133 32.9610701,13.5649798 C31.972028,12.9298175 30.6379215,13.5837399 30.6379215,14.7126941 C30.6379215,15.4074867 31.002866,16.0620791 31.6241237,16.4346005 C32.9340898,17.2185034 34.5784701,18.0111163 36.5892148,18.6791088 C36.6225853,18.6904988 36.6545356,18.7025589 36.6893261,18.7139489 C37.091901,18.8459394 37.5129362,18.9705599 37.9432015,19.0925003 L37.9432015,25.6411046 L36.4820035,25.6411046 C35.8316355,25.6411046 35.304099,26.1389164 35.304099,26.7526387 C35.304099,27.7965026 36.2015501,28.6427157 37.3070337,28.6427157 L37.9432015,28.6427157 L37.9432015,35.19132 C37.5129362,35.3132604 37.091901,35.4385509 36.6893261,35.5698714 C36.6545356,35.5812614 36.6225853,35.5933215 36.5892148,35.6053815 C34.5784701,36.273374 32.9340898,37.0653169 31.6241237,37.8498898 C31.002866,38.2217412 30.6379215,38.8763336 30.6379215,39.5717962 C30.6379215,40.7000804 31.972028,41.3540028 32.9610701,40.7195105 C34.412328,39.788207 36.442953,38.7939233 39.1736467,38.0676406 C39.4285398,37.9999704 39.686983,37.9343102 39.9539463,37.8713299 C40.2422098,37.8036597 40.5361535,37.7379994 40.8393272,37.6763592 C41.0139893,37.6408491 41.1943316,37.6080189 41.3739638,37.5751888 C41.6728775,37.5202486 41.9788912,37.4686584 42.2920051,37.4210883 C42.443237,37.3976382 42.5909188,37.3728481 42.7449907,37.351408 C43.2121764,37.2864178 43.6914323,37.2287975 44.1891485,37.1812274 C44.2970698,37.1705073 44.4092512,37.1631373 44.5193025,37.1537573 C44.9481478,37.1162371 45.3890632,37.085417 45.8413388,37.0612969 C45.9790805,37.0545969 46.1168222,37.0472269 46.2581139,37.0411968 C46.8225709,37.0177468 47.399098,37.0016667 47.9997654,37.0016667 C48.6018528,37.0016667 49.1805099,37.0177468 49.7470969,37.0411968 C49.8819986,37.0465569 50.0147702,37.0539269 50.1475419,37.0606269 C50.6175676,37.085417 51.0762333,37.1169071 51.5214088,37.1564373 C51.6115799,37.1644773 51.703881,37.1705073 51.7926321,37.1785474 C52.3073885,37.2281275 52.8043946,37.2877578 53.2864905,37.355428 C53.4015119,37.3715081 53.5115633,37.3895981 53.6244547,37.4070182 C53.9950793,37.4626284 54.3564737,37.5235986 54.707928,37.5892589 C54.8385696,37.613379 54.9706313,37.6374991 55.0991429,37.6629591 C55.5230181,37.7473795 55.9355332,37.8371598 56.331008,37.9343102 C56.4183391,37.9557502 56.5007001,37.9805403 56.5873212,38.0019804 C59.4443964,38.7342931 61.5531224,39.7620769 63.0455607,40.7221905 C64.0310529,41.3560128 65.3608993,40.6987404 65.3608993,39.5731362 C65.3608993,38.8770036 64.9952448,38.2210712 64.3725671,37.8485498 C63.0611809,37.0633069 61.4132506,36.269354 59.3982458,35.6006915 C59.3705555,35.5913115 59.3435751,35.5812614 59.3158848,35.5725514 C58.9118898,35.4398909 58.4887246,35.3139304 58.0556193,35.19132 L58.0556193,28.6427157 L59.5168173,28.6427157 C60.1671853,28.6427157 60.6947218,28.1449039 60.6947218,27.5311816 C60.6947218,26.4873177 59.7979807,25.6411046 58.6910771,25.6411046 L58.0556193,25.6411046 L58.0556193,19.0925003 C58.4887246,18.9705599 58.9118898,18.8445994 59.3158848,18.7119389 L59.3158848,18.7119389 Z" id="Fill-4" fill="#000000" mask="url(#mask-17)"></path>
                            </g>
                        </g>
                    </g>
                </g>
                <g id="oneICHI" transform="translate(96.426949, 233.000000)">
                    <g id="Mask" fill="#003B83" fill-rule="nonzero">
                        <ellipse id="path-1" cx="99.9242998" cy="100.215054" rx="99.9242998" ry="100.215054"></ellipse>
                    </g>
                    <g id="Group-13-Clipped">
                        <mask id="mask-20" fill="white">
                            <use xlink:href="#path-19"></use>
                        </mask>
                        <use id="path-1" stroke="#FFFFFF" stroke-width="4" xlink:href="#path-19"></use>
                        <g id="Group-13" mask="url(#mask-20)">
                            <g transform="translate(39.969720, 50.107527)" id="Group">
                                <g id="Fill-1-Clipped">
                                    <mask id="mask-22" fill="white">
                                        <use xlink:href="#path-21"></use>
                                    </mask>
                                    <g id="path-3"></g>
                                    <path d="M3.40560204,11.3047108 C7.92942541,14.1454434 13.6079172,17.0177108 20.5515162,19.4384882 C20.6667854,19.4798095 20.7772243,19.5235231 20.8973239,19.564627 C22.2875806,20.0430844 23.7415099,20.4945744 25.2272754,20.9364951 L25.2272754,28.9086843 C27.3240776,27.91545 29.608604,27.4128522 32.0646071,27.4128522 C33.687598,27.4128522 35.2159582,27.612717 36.6481509,28.0076618 L36.6481509,23.6121599 C43.5454227,24.8383159 51.2713156,25.5910165 59.9558094,25.5910165 C68.6403032,25.5910165 76.3637809,24.8383159 83.2634678,23.6121599 L83.2634678,29.9606383 C84.6954411,28.7995089 86.5235013,28.100961 88.5144754,28.100961 L94.6817087,28.100961 L94.6817087,20.9364951 C96.1773545,20.4945744 97.6387488,20.0380824 99.0338358,19.5574501 C99.1295641,19.5235231 99.2226578,19.4869864 99.3183861,19.4530594 C106.276695,17.0298896 111.967483,14.1528378 116.496136,11.3071032 C118.646511,9.95720057 119.909204,7.58013677 119.909204,5.05997068 C119.909204,0.980903098 115.316878,-1.40094528 111.913691,0.895868154 C106.759728,4.3753415 99.4775675,8.09969811 89.6113994,10.7512225 C89.3121385,10.8312554 89.0278077,10.9186826 88.7261316,10.9963233 C87.3604657,11.3484244 85.9359575,11.6737755 84.472148,11.9797709 C84.0284164,12.074375 83.5723894,12.15941 83.1211927,12.2468372 C81.9074625,12.4871533 80.6594809,12.7057214 79.3796632,12.9095008 C78.9897238,12.9703954 78.6096647,13.0382493 78.2124798,13.0965342 C76.5477726,13.3394601 74.831249,13.5554184 73.0536877,13.7350574 C72.7471813,13.7641998 72.428599,13.7861653 72.1170428,13.8153078 C70.5796805,13.9584101 68.9957716,14.0725874 67.3727807,14.1624069 C66.914119,14.1867648 66.4556768,14.2135149 65.9897696,14.2328706 C64.0332663,14.3179056 62.0350468,14.3761905 59.9558094,14.3761905 C57.8816219,14.3761905 55.8906478,14.3179056 53.9413902,14.2328706 C53.4535269,14.2135149 52.9777393,14.1867648 52.5021714,14.1600147 C50.9402184,14.0725874 49.4175668,13.9634121 47.9366316,13.8248769 C47.5565725,13.7909499 47.1692679,13.7641998 46.7964542,13.7278806 C45.0777351,13.553026 43.4226884,13.3442446 41.8093583,13.1087131 C41.2773634,13.0310725 40.7673245,12.9436453 40.2452097,12.8586103 C39.1638745,12.6837559 38.1071302,12.49694 37.074757,12.2977276 C36.4544987,12.1787657 35.8318253,12.0598038 35.2284732,11.9310552 C34.1816089,11.7077025 33.166581,11.4697787 32.171094,11.224678 C31.2491597,10.9963233 30.3566464,10.7583994 29.4764287,10.5130812 C20.0465271,7.8837398 13.0342057,4.27812764 8.02251904,0.905654784 C4.60703678,-1.3961607 -1.56007078e-15,0.973726236 -1.56007078e-15,5.06475525 C-1.56007078e-15,7.58252905 1.26027694,9.95480828 3.40560204,11.3047108" id="Fill-1" fill="#FFFFFF" fill-rule="nonzero" mask="url(#mask-22)"></path>
                                </g>
                                <g id="Fill-4-Clipped" transform="translate(0.000044, 70.279381)">
                                    <mask id="mask-24" fill="white">
                                        <use xlink:href="#path-23"></use>
                                    </mask>
                                    <g id="path-5"></g>
                                    <path d="M116.496136,18.6261326 C111.967483,15.7806154 106.276695,12.9033461 99.3181666,10.4801763 C99.2226578,10.4462493 99.1295641,10.4099301 99.0338358,10.3781779 C97.6387488,9.89754562 96.1773545,9.44105368 94.6817087,8.99674066 L94.6817087,1.85924231 L88.5144754,1.85924231 C86.5235013,1.85924231 84.6952215,1.16112933 83.2632483,0 L83.2632483,6.32346817 C76.3637809,5.09491982 68.6403032,4.3422192 59.9558094,4.3422192 C51.2710961,4.3422192 43.5452032,5.09491982 36.6481509,6.32346817 L36.6481509,1.92448651 C35.2484531,2.32182371 33.7613703,2.52299334 32.1888784,2.52299334 C29.6814981,2.52299334 27.3561335,2.01495848 25.2272754,1.01541728 L25.2272754,8.99674066 C23.7415099,9.43866139 22.2875806,9.89276104 20.8973239,10.3686087 C20.7772243,10.4099301 20.6667854,10.4536437 20.5515162,10.4971399 C13.6079172,12.9179173 7.92920586,15.7877923 3.40560204,18.6309172 C1.26005738,19.9784275 0,22.3507067 0,24.8708728 C0,28.9597269 4.60703678,31.3293965 8.02251904,29.0299733 C13.0342057,25.6551081 20.0465271,22.0521057 29.4764287,19.4201546 C30.3566464,19.1748363 31.2491597,18.9369125 32.171094,18.7087753 C33.166581,18.4634571 34.1816089,18.2255332 35.2284732,18.0021805 C35.8316056,17.873432 36.4544987,17.75447 37.074757,17.6355081 C38.1071302,17.4365133 39.1638745,17.24948 40.2449902,17.0770178 C40.7673245,16.9922002 41.2773634,16.9021632 41.8093583,16.8245226 C43.4226884,16.5889911 45.0777351,16.3802097 46.7964542,16.2079649 C47.1692679,16.1690359 47.5565725,16.1422858 47.9366316,16.1083588 C49.4175668,15.9724334 50.9402184,15.8606483 52.5019519,15.7732211 C52.9777393,15.7490807 53.4533073,15.7223306 53.9413902,15.7003651 C55.8906478,15.6153301 57.8814024,15.5572628 59.9558094,15.5572628 C62.0350468,15.5572628 64.0332663,15.6153301 65.9897696,15.7003651 C66.4556768,15.7199383 66.914119,15.7464709 67.3727807,15.7708288 C68.9957716,15.8606483 70.5796805,15.9748256 72.1170428,16.1179279 C72.428599,16.1470704 72.7471813,16.1690359 73.0536877,16.1981783 C74.831249,16.3778173 76.547553,16.5939931 78.2124798,16.8390939 C78.6096647,16.8973787 78.9897238,16.9630579 79.3796632,17.0261273 C80.6594809,17.2275144 81.9074625,17.4484748 83.1211927,17.6866161 C83.5723894,17.7738259 84.0284164,17.8612531 84.472148,17.9536823 C85.9359575,18.2594602 87.3604657,18.5848113 88.7261316,18.9369125 C89.0278077,19.0145531 89.3121385,19.1043726 89.6113994,19.1822307 C99.4775675,21.8359299 106.759728,25.560504 111.913471,29.0397599 C115.316878,31.3365733 119.909204,28.9547249 119.909204,24.8758748 C119.909204,22.3530989 118.646511,19.9760351 116.496136,18.6261326" id="Fill-4" fill="#FFFFFF" fill-rule="nonzero" mask="url(#mask-24)"></path>
                                </g>
                                <path d="M32.1144254,38.278426 C30.7340489,38.278426 28.8225557,38.937175 27.5554723,42.0758561 C26.7551745,43.9546717 26.3630396,46.5829257 26.3630396,50.0952386 C26.3630396,53.5333906 26.7286078,56.1659943 27.4808218,58.1435461 C28.66557,61.2583043 30.5463247,61.9120512 31.9159428,61.9120512 C33.0550223,61.9120512 35.1507268,61.4272868 36.3879499,58.1816051 C37.1526789,56.2701675 37.5432769,53.619513 37.5432769,50.3164164 C37.5432769,47.339106 37.5432769,38.278426 32.1144254,38.278426 M32.1888564,68.0178212 C28.883813,68.0178212 26.1239382,66.833204 23.7513681,64.396333 C20.7032104,61.245038 19.1566267,56.3417187 19.1566267,49.8249101 C19.1566267,43.6119221 20.7730308,38.8380039 23.9606092,35.6362532 C26.2679699,33.3222589 28.9189427,32.1974488 32.0645852,32.1974488 C35.9194079,32.1974488 38.9036734,33.7148115 41.1881998,36.8367466 C43.567796,40.0893876 44.7742806,44.5999369 44.7742806,50.2426905 C44.7742806,55.6238149 43.5436443,60.0256239 41.1159644,63.3258931 C38.7980649,66.4832776 35.8781305,68.0178212 32.1888564,68.0178212" id="Fill-7" fill="#FFFFFF" fill-rule="nonzero"></path>
                                <path d="M72.0977874,67.3541572 C70.4045372,67.3541572 68.8724444,66.2974186 68.2853398,64.7241634 L68.2741423,64.694586 L59.0664359,47.3578963 L59.0664359,59.410458 L59.0664359,64.2030796 C59.0664359,65.9405328 57.6392931,67.3541572 55.8852246,67.3541572 C54.1311562,67.3541572 52.7040134,65.9405328 52.7040134,64.2030796 L52.7040134,36.9470963 C52.7040134,34.7074803 54.5434908,32.8854272 56.8043046,32.8854272 C58.4872355,32.8854272 60.0245977,33.9304219 60.6299258,35.4856262 L60.6393669,35.509984 L70.0918832,53.8296863 C70.0918832,53.8296863 69.8000873,41.2097176 69.8000873,39.674304 L69.8000873,36.0367222 C69.8000873,34.2990516 71.2272302,32.8854272 72.9812985,32.8854272 C74.7355865,32.8854272 76.1627294,34.2990516 76.1627294,36.0367222 L76.1627294,63.3277199 C76.1627294,65.5477627 74.3390603,67.3541572 72.0977874,67.3541572" id="Fill-9" fill="#FFFFFF" fill-rule="nonzero"></path>
                                <path d="M88.5144315,67.3541572 C86.5961319,67.3541572 85.0352767,65.8083045 85.0352767,63.9077409 L85.0352767,36.3318435 C85.0352767,34.4314973 86.5961319,32.8854272 88.5144315,32.8854272 L98.179043,32.8854272 C99.5978427,32.8854272 100.752292,34.0289406 100.752292,35.4345182 L100.752292,35.7785727 C100.752292,37.1841502 99.5978427,38.3276636 98.179043,38.3276636 L91.869315,38.3276636 L91.869315,47.3372357 L97.2608413,47.3372357 C98.6798604,47.3372357 99.8343092,48.480749 99.8343092,49.8863267 C99.8343092,51.2919043 98.6798604,52.4352002 97.2608413,52.4352002 L91.869315,52.4352002 L91.869315,61.7153182 L98.179043,61.7153182 C99.5978427,61.7153182 100.752292,62.8588316 100.752292,64.2644093 L100.752292,64.8050662 C100.752292,66.2106438 99.5978427,67.3541572 98.179043,67.3541572 L88.5144315,67.3541572 Z" id="Fill-11" fill="#FFFFFF" fill-rule="nonzero"></path>
                            </g>
                        </g>
                    </g>
                </g>
                <g id="oneGIV-GIV" transform="translate(69.772070, 43.593548)" fill-rule="nonzero">
                    <g id="Group-5">
                        <path d="M49.9621499,0 C77.5568698,0 99.9242998,22.4325134 99.9242998,50.1075269 C99.9242998,77.7825403 77.5568698,100.215054 49.9621499,100.215054 C22.36743,100.215054 0,77.7825403 0,50.1075269 C0,22.4325134 22.36743,0 49.9621499,0" id="Fill-1" stroke="#FFFFFF" stroke-width="4" fill="#5426EC"></path>
                        <g id="giveth-logo-blue" transform="translate(19.984860, 20.043011)" fill="#FFFFFF">
                            <path d="M59.9525087,30.8069125 C59.893688,31.6519733 59.8729765,32.5024352 59.7698331,33.341264 C58.6762652,42.2488864 54.5339624,49.3866175 47.2625641,54.6131982 C41.8307625,58.5185924 35.7001543,60.3412482 29.0227623,60.1094173 C21.3010956,59.8431026 14.6440009,56.9605893 9.06183359,51.6010591 C9.01046905,51.5516184 9.01171174,51.3542714 9.06183359,51.3015071 C16.0242161,44.3072507 22.9930883,37.3200575 29.96845,30.339927 C30.1334118,30.1884625 30.3468167,30.10096 30.5703266,30.0931394 C40.3652158,30.0809523 50.1599668,30.0774901 59.9545799,30.0827527 L59.9525087,30.8069125 Z" id="Path"></path>
                            <path d="M44.162311,18.2792746 L44.162311,15.3315085 C45.1394054,15.503167 46.2339039,15.6085414 47.4642161,15.6085414 C48.6945283,15.6085414 49.7886794,15.503167 50.7661211,15.3315085 L50.7661211,18.2792746 L44.162311,18.2792746 Z M47.4642161,22.4728391 C46.2339039,22.4728391 45.1394054,22.5782135 44.162311,22.7502119 L44.162311,19.8021059 L50.7661211,19.8021059 L50.7661211,22.7502119 C49.7886794,22.5782135 48.6945283,22.4728391 47.4642161,22.4728391 L47.4642161,22.4728391 Z M53.0002736,14.763846 C53.0138202,14.7590872 53.0270195,14.7539884 53.0405662,14.7492296 C54.0263443,14.4099917 54.8325426,14.0071892 55.4740973,13.6088057 C55.7787228,13.4198115 55.9576079,13.0870322 55.9576079,12.7341976 C55.9576079,12.1631358 55.3070221,11.8296766 54.8249009,12.1512387 C54.0947721,12.6383408 53.0631438,13.1597745 51.6654091,13.5309646 C51.6230325,13.5421819 51.58274,13.5544189 51.5400159,13.5652963 C51.3465423,13.6145843 51.1447322,13.6601333 50.9373645,13.7029629 C50.8744942,13.7162197 50.8098872,13.7281169 50.7459749,13.7403539 C50.5740368,13.7740058 50.3972359,13.8045983 50.2159194,13.8331514 C50.1606908,13.8416493 50.1068517,13.851167 50.050581,13.859325 C49.8147307,13.8933169 49.571586,13.9235695 49.3197574,13.9487234 C49.2763388,13.9528024 49.2311833,13.9558617 49.18707,13.9599408 C48.9692818,13.9799959 48.7448939,13.995972 48.5149486,14.008549 C48.4499942,14.0119482 48.3850398,14.0156872 48.3190434,14.0184065 C48.0418585,14.0303036 47.7587685,14.0384617 47.4642161,14.0384617 C47.1703583,14.0384617 46.8883105,14.0303036 46.6121676,14.0184065 C46.543045,14.0156872 46.4756592,14.0119482 46.4082733,14.008209 C46.1870116,13.995972 45.9713076,13.9806756 45.7615085,13.9613004 C45.7076693,13.9565416 45.6527881,13.9528024 45.5999909,13.9477037 C45.3564988,13.9232296 45.1220378,13.8939966 44.8934819,13.8610247 C44.818107,13.8501473 44.7458583,13.8379103 44.6718729,13.8260132 C44.5186917,13.801539 44.368984,13.7753654 44.2227498,13.7474922 C44.1348704,13.7308362 44.0466436,13.7141803 43.9611956,13.6961646 C43.8128773,13.6648922 43.6690746,13.6315802 43.5280507,13.5972485 C43.3974472,13.5652963 43.271012,13.5319844 43.1463135,13.4976526 C41.810407,13.1295218 40.8169872,12.624744 40.1070047,12.1525984 C39.6231468,11.8303564 38.9704769,12.1621161 38.9704769,12.7348774 C38.9704769,13.087372 39.1490146,13.4194716 39.4529455,13.6084658 C40.0938054,14.0061696 40.8982671,14.4082921 41.881961,14.74719 C41.8982865,14.7529686 41.9139172,14.7590872 41.9309373,14.7648658 C42.1278845,14.8318296 42.3338629,14.8950542 42.5443567,14.9569193 L42.5443567,18.2792746 L41.8295113,18.2792746 C41.511339,18.2792746 41.2532583,18.5318335 41.2532583,18.843198 C41.2532583,19.3727898 41.6923082,19.8021059 42.2331315,19.8021059 L42.5443567,19.8021059 L42.5443567,23.1244612 C42.3338629,23.1863263 42.1278845,23.2498909 41.9309373,23.3165147 C41.9139172,23.3222933 41.8982865,23.3284119 41.881961,23.3345304 C40.8982671,23.6734283 40.0938054,24.075211 39.4529455,24.4732546 C39.1490146,24.661909 38.9704769,24.9940085 38.9704769,25.3468431 C38.9704769,25.9192644 39.6231468,26.2510241 40.1070047,25.929122 C40.8169872,25.4566365 41.810407,24.9521986 43.1463135,24.5837279 C43.271012,24.5493962 43.3974472,24.5160842 43.5280507,24.484132 C43.6690746,24.4498003 43.8128773,24.4164883 43.9611956,24.3852159 C44.0466436,24.3672003 44.1348704,24.3505443 44.2227498,24.3338883 C44.368984,24.3060151 44.5186917,24.2798415 44.6718729,24.2557073 C44.7458583,24.2438101 44.818107,24.2312333 44.8934819,24.2203558 C45.1220378,24.1873839 45.3564988,24.1581509 45.5999909,24.1340167 C45.6527881,24.1285781 45.7076693,24.1248389 45.7615085,24.1200801 C45.9713076,24.1010448 46.1870116,24.0854085 46.4082733,24.0731715 C46.4756592,24.0697723 46.543045,24.0660332 46.6121676,24.062974 C46.8883105,24.0510769 47.1703583,24.0429188 47.4642161,24.0429188 C47.7587685,24.0429188 48.0418585,24.0510769 48.3190434,24.062974 C48.3850398,24.0656933 48.4499942,24.0694324 48.5149486,24.0728315 C48.7448939,24.0854085 48.9692818,24.1013846 49.18707,24.1214398 C49.2311833,24.1255188 49.2763388,24.1285781 49.3197574,24.1326571 C49.571586,24.157811 49.8147307,24.1880636 50.050581,24.2223954 C50.1068517,24.2305534 50.1606908,24.2397312 50.2159194,24.2485691 C50.3972359,24.2767822 50.5740368,24.3077147 50.7459749,24.3410267 C50.8098872,24.3532636 50.8744942,24.3655007 50.9373645,24.3784176 C51.1447322,24.4212472 51.3465423,24.4667962 51.5400159,24.5160842 C51.58274,24.5269616 51.6230325,24.5395386 51.6654091,24.5504159 C53.0631438,24.921946 54.0947721,25.4433796 54.8249009,25.9304817 C55.3070221,26.2520439 55.9576079,25.9185846 55.9576079,25.3475228 C55.9576079,24.9943484 55.7787228,24.661569 55.4740973,24.4725748 C54.8325426,24.0741913 54.0263443,23.6713888 53.0405662,23.332151 C53.0270195,23.3273921 53.0138202,23.3222933 53.0002736,23.3178745 C52.8026317,23.2505707 52.5956113,23.1866662 52.3837281,23.1244612 L52.3837281,19.8021059 L53.0985735,19.8021059 C53.4167458,19.8021059 53.6748265,19.549547 53.6748265,19.2381825 C53.6748265,18.7085907 53.236124,18.2792746 52.6946059,18.2792746 L52.3837281,18.2792746 L52.3837281,14.9569193 C52.5956113,14.8950542 52.8026317,14.8311497 53.0002736,14.763846 L53.0002736,14.763846 Z" id="Fill-4"></path>
                            <path d="M30.7053657,0 C31.5288554,0.0627355871 32.3540022,0.099296724 33.1745923,0.188206761 C37.9796636,0.710587853 42.4050237,2.30155126 46.4506728,4.96109699 C46.4781167,4.98177346 46.504392,5.00396604 46.5293766,5.02757178 L43.9719188,7.58726683 C43.4151933,8.1444087 42.8621958,8.70528978 42.2988427,9.25536871 C42.2265616,9.3022779 42.1358018,9.31021393 42.056518,9.27655755 C37.9835297,6.92639658 33.5993165,5.84548874 28.9038782,6.03383398 C18.3985841,6.45844174 9.24036685,13.9206528 6.72143253,24.153201 C5.16226976,30.4932345 6.02966796,36.5162664 9.24036685,42.2011077 C9.27101989,42.2551184 9.2726768,42.3743576 9.23581031,42.4088414 C7.8420635,43.8169991 6.443484,45.2215562 5.04007182,46.6225124 C5.02640222,46.6362228 5.00941879,46.6474405 4.97752305,46.6731995 C4.84538359,46.4679585 4.71241567,46.2693651 4.58731813,46.066617 C1.12476723,40.4528206 -0.4037425,34.3512655 0.0908484529,27.7652751 C1.12186762,14.0743758 11.2821078,2.85800069 24.8017557,0.476125714 C26.1687156,0.235570052 27.5667428,0.174496335 28.9498577,0.0303291249 L29.2323628,0 L30.7053657,0 Z" id="Path"></path>
                        </g>
                    </g>
                </g>
            </g>
        </g>
    </g>
</svg>