<svg width="70" height="70" viewBox="0 0 70 70" fill="none" xmlns="http://www.w3.org/2000/svg">
<mask id="mask0_183_772" style="mask-type:alpha" maskUnits="userSpaceOnUse" x="0" y="0" width="70" height="70">
<path d="M0 0H70V70H0V0Z" fill="white"/>
</mask>
<g mask="url(#mask0_183_772)">
<path fill-rule="evenodd" clip-rule="evenodd" d="M29.0393 54.1681V15.2785H39.2628C39.2628 15.5309 39.2628 15.7387 39.2628 15.9466C39.2628 19.0001 39.2703 22.0535 39.2541 25.1068C39.2518 25.5304 39.3552 25.6876 39.8028 25.6742C40.8315 25.6434 41.8626 25.6396 42.8909 25.6755C43.3717 25.6922 43.4696 25.5171 43.4674 25.0738C43.451 21.7239 43.4606 18.3738 43.4577 15.0238C43.4558 12.8419 42.1525 11.5437 39.9732 11.5432C39.4055 11.5432 38.8378 11.5432 38.2282 11.5432V5.7092H35.3033V11.5036H32.1602V5.6962H29.2172V11.5432C28.8999 11.5432 28.6394 11.5593 28.3815 11.5407C26.2107 11.3843 24.7866 12.9724 24.8136 15.0872C24.8729 19.7451 24.832 24.4043 24.832 29.0629V29.7465H19.1145V32.6541H24.8005V35.831H19.1031V38.7187H24.832C24.832 38.9938 24.832 39.202 24.832 39.4103C24.8321 44.4702 24.8281 49.5302 24.8341 54.5901C24.8364 56.5811 26.1615 57.9001 28.1442 57.911C28.4879 57.9129 28.8316 57.9112 29.2475 57.9112V64.1963H32.1865V57.9447H35.3175V64.1878H38.2756V57.9113C38.8592 57.9113 39.3816 57.9115 39.9039 57.9112C42.1487 57.9098 43.4566 56.6154 43.4579 54.387C43.46 50.7578 43.4585 47.1286 43.4585 43.4993V42.874H39.2371V54.1681H29.0393ZM70.0001 34.923C70.0001 54.4145 54.4086 70.0051 34.921 70.0001C15.6381 69.995 0.0158358 54.3148 1.18856e-05 34.9942C-0.0158929 15.5801 15.9325 -0.308848 35.6019 0.00455826C54.5171 0.306011 70.0297 15.7961 70.0001 34.923Z" fill="#FF0000"/>
</g>
<path fill-rule="evenodd" clip-rule="evenodd" d="M29.0392 54.168H39.237V42.874H43.4584V43.4993C43.4584 47.1286 43.4599 50.7578 43.4578 54.387C43.4565 56.6154 42.1486 57.9098 39.9039 57.9112C39.3815 57.9115 38.8591 57.9113 38.2755 57.9113V64.1878H35.3174V57.9446H32.1865V64.1963H29.2474V57.9112C28.8315 57.9112 28.4878 57.9129 28.1441 57.911C26.1615 57.9001 24.8363 56.5811 24.834 54.5901C24.828 49.5302 24.832 44.4701 24.8319 39.4102C24.8319 39.202 24.8319 38.9938 24.8319 38.7186H19.103V35.831H24.8004V32.654H19.1144V29.7465H24.8319V29.0629C24.8319 24.4043 24.8728 19.745 24.8136 15.0871C24.7865 12.9724 26.2106 11.3842 28.3814 11.5407C28.6393 11.5592 28.8999 11.5432 29.2172 11.5432V5.69617H32.1601V11.5036H35.3032V5.70917H38.2281V11.5432C38.8378 11.5432 39.4054 11.5432 39.9731 11.5432C42.1524 11.5436 43.4557 12.8419 43.4576 15.0238C43.4605 18.3738 43.4509 21.7238 43.4674 25.0738C43.4695 25.5171 43.3716 25.6922 42.8909 25.6754C41.8626 25.6396 40.8314 25.6433 39.8027 25.6742C39.3552 25.6876 39.2517 25.5304 39.254 25.1068C39.2702 22.0535 39.2627 19 39.2627 15.9466C39.2627 15.7387 39.2627 15.5309 39.2627 15.2785H29.0392V54.168Z" fill="white" stroke="white"/>
</svg>
