<svg width="66" height="70" viewBox="0 0 66 70" fill="none" xmlns="http://www.w3.org/2000/svg">
<mask id="mask0_183_796" style="mask-type:alpha" maskUnits="userSpaceOnUse" x="0" y="0" width="66" height="70">
<path d="M0 0H66V70H0V0Z" fill="white"/>
</mask>
<g mask="url(#mask0_183_796)">
<path fill-rule="evenodd" clip-rule="evenodd" d="M23.5279 44.2907C23.5279 41.8559 23.5033 39.5508 23.5426 37.2468C23.5545 36.5396 23.3434 36.2875 22.6238 36.3008C20.6489 36.3374 18.6723 36.3443 16.698 36.2975C15.9066 36.2787 15.6373 36.5059 15.6444 37.3303C15.6811 41.6185 15.6813 45.9074 15.6377 50.1955C15.6293 51.0471 15.8763 51.3011 16.7242 51.2927C20.7089 51.2524 24.6941 51.2867 28.679 51.2641C31.5091 51.2479 34.2303 50.6775 36.7526 49.3717C41.7481 46.7855 44.0582 42.4866 44.5297 37.0351C44.5858 36.3874 44.2502 36.3067 43.7338 36.3098C41.7244 36.3212 39.713 36.3623 37.706 36.2898C36.7561 36.2554 36.4539 36.5664 36.3089 37.5024C35.8355 40.5613 34.1794 42.7628 31.1995 43.8054C28.7244 44.6713 26.1596 44.134 23.5279 44.2907ZM51.6498 33.2212C51.6936 33.0097 51.7394 32.881 51.7445 32.7509C52.0459 24.9459 47.4526 18.6629 39.4917 17.5784C34.2657 16.8666 28.895 17.2067 23.5882 17.1228C23.3567 17.1191 22.914 17.5829 22.9119 17.8317C22.8719 22.734 22.8723 27.6369 22.9128 32.5392C22.9148 32.788 23.3467 33.2426 23.5868 33.2482C25.9318 33.3019 28.2786 33.2804 30.7958 33.2804V24.096C32.7974 24.096 34.6299 24.0629 36.4608 24.1031C40.0379 24.182 42.8925 26.6401 43.497 30.1667C43.6665 31.1564 43.704 32.1686 43.807 33.2212H51.6498ZM65.9809 35.0122C65.9811 38.5542 66.0308 42.0972 65.9692 45.6381C65.8792 50.8193 63.5868 54.7862 59.0817 57.3651C52.8496 60.9326 46.5708 64.419 40.3124 67.9405C35.3076 70.7566 30.3757 70.6656 25.3884 67.7852C19.2592 64.2451 13.0393 60.8621 6.88923 57.3577C2.32685 54.7582 0.051799 50.7519 0.0194882 45.5243C-0.0230476 38.6449 0.0198972 31.7648 0.00292374 24.8852C-0.0105732 19.3128 2.38329 15.1677 7.25344 12.4381C13.4577 8.96086 19.6426 5.44934 25.8522 1.98174C30.6447 -0.694355 35.452 -0.646546 40.2314 2.04262C46.4576 5.54577 52.6809 9.05362 58.9032 12.5635C63.586 15.2049 65.9191 19.2421 65.9741 24.5904C66.0097 28.0641 65.9807 31.5383 65.9809 35.0122Z" fill="#074BF3"/>
</g>
<path fill-rule="evenodd" clip-rule="evenodd" d="M51.6496 33.2212H43.8066C43.7038 32.1686 43.6664 31.1562 43.4966 30.1667C42.8921 26.6399 40.0377 24.182 36.4606 24.1031C34.6297 24.0627 32.7972 24.096 30.7954 24.096V33.2805C28.2784 33.2805 25.9316 33.3019 23.5866 33.248C23.3465 33.2425 22.9146 32.7881 22.9124 32.5392C22.8719 27.6367 22.8717 22.734 22.9117 17.8315C22.9138 17.5829 23.3563 17.1191 23.588 17.1228C28.8948 17.2068 34.2655 16.8664 39.4915 17.5784C47.4522 18.6629 52.0457 24.9459 51.7443 32.7509C51.7392 32.881 51.6934 33.0095 51.6496 33.2212Z" fill="white"/>
<path fill-rule="evenodd" clip-rule="evenodd" d="M23.5281 44.2907C26.1598 44.1339 28.7246 44.6713 31.1997 43.8054C34.1796 42.7628 35.8357 40.5613 36.3091 37.5024C36.4541 36.5664 36.7563 36.2554 37.7062 36.2898C39.7132 36.3623 41.7246 36.3212 43.734 36.3098C44.2504 36.3067 44.586 36.3874 44.53 37.0351C44.0584 42.4866 41.7484 46.7855 36.7529 49.3717C34.2306 50.6775 31.5093 51.2479 28.6792 51.2641C24.6944 51.2867 20.7091 51.2524 16.7244 51.2927C15.8766 51.301 15.6295 51.0471 15.6379 50.1955C15.6815 45.9074 15.6813 41.6184 15.6447 37.3303C15.6375 36.5059 15.9068 36.2787 16.6982 36.2975C18.6725 36.3443 20.6492 36.3374 22.624 36.3008C23.3436 36.2875 23.5547 36.5396 23.5428 37.2468C23.5036 39.5508 23.5281 41.8559 23.5281 44.2907Z" fill="white"/>
</svg>
