<svg width="40" height="40" viewBox="0 0 40 40" fill="none" xmlns="http://www.w3.org/2000/svg">
<g clip-path="url(#clip0_121_397)">
<path d="M20 0C8.95469 0 1.10105e-05 9.181 1.10105e-05 20.5066C-0.00439544 24.8049 1.31391 28.9959 3.76862 32.4874C6.22334 35.9789 9.69034 38.5943 13.6797 39.9641C14.6797 40.1532 15.0453 39.5205 15.0453 38.9763C15.0453 38.4888 15.0273 37.1995 15.0172 35.4889C9.45313 36.7272 8.28126 32.7387 8.28126 32.7387C7.37423 30.3698 6.06173 29.7387 6.06173 29.7387C4.24376 28.4677 6.19688 28.4932 6.19688 28.4932C8.20391 28.6385 9.25938 30.6068 9.25938 30.6068C11.0438 33.74 13.9414 32.836 15.0813 32.3102C15.2617 30.985 15.7789 30.081 16.3516 29.568C11.9117 29.0494 7.24141 27.2909 7.24141 19.4351C7.24141 17.1963 8.02266 15.366 9.30157 13.9299C9.09376 13.4113 8.40938 11.3256 9.49688 8.50441C9.49688 8.50441 11.1766 7.95309 14.9969 10.606C18.2743 9.68526 21.7343 9.68526 25.0117 10.606C28.8281 7.95229 30.5047 8.51079 30.5047 8.51079C31.5984 11.3344 30.9102 13.4184 30.7047 13.9363C31.9875 15.3724 32.7602 17.2019 32.7602 19.4415C32.7602 27.318 28.0852 29.0517 23.6297 29.56C24.3477 30.1935 24.9875 31.4445 24.9875 33.3562C24.9875 36.0985 24.9625 38.3093 24.9625 38.9811C24.9625 39.5301 25.3227 40.1684 26.3375 39.9665C30.324 38.5936 33.7876 35.9765 36.239 32.4848C38.6905 28.9931 40.0061 24.8032 40 20.5066C40 9.181 31.0453 0 20 0Z" fill="white"/>
</g>
<defs>
<clipPath id="clip0_121_397">
<rect width="40" height="40" fill="white"/>
</clipPath>
</defs>
</svg>
