<svg width="50" height="50" viewBox="0 0 50 50" fill="none" xmlns="http://www.w3.org/2000/svg">
<circle cx="25" cy="25" r="25" fill="#FFAC32"/>
<path d="M23.3447 27.8408C22.898 27.8184 22.6235 27.7932 22.3504 27.7932C19.0132 27.7932 15.676 27.7932 12.3388 27.782C12.0237 27.782 11.6652 27.754 11.4005 27.6055C10.8403 27.2933 10.8711 26.6252 11.4719 26.0917C13.1132 24.6381 14.7638 23.1951 16.4238 21.763C21.4009 17.4609 26.3803 13.1616 31.3621 8.8651C31.5736 8.68304 31.7934 8.50799 32.0007 8.32033C32.4208 7.93241 32.8732 7.87779 33.3143 8.26151C33.7162 8.61022 33.6574 9.00513 33.4249 9.45607C31.7976 12.6056 30.19 15.7664 28.5739 18.9215C28.0473 19.9522 27.5152 20.9801 26.92 22.1327C27.3275 22.1677 27.5922 22.2097 27.8555 22.2097C31.0522 22.2097 34.2493 22.2097 37.447 22.2097C37.727 22.2097 38.0337 22.1439 38.2802 22.2377C38.6177 22.3666 39.0546 22.5542 39.1765 22.8343C39.2815 23.0794 39.1121 23.5933 38.8964 23.8048C37.8321 24.8173 36.7159 25.7766 35.604 26.7373C30.6437 31.0226 25.6806 35.3046 20.7147 39.5834C19.9025 40.2836 19.0832 40.9838 18.2766 41.684C17.8438 42.0649 17.4055 42.1223 16.9602 41.7414C16.5512 41.3913 16.6185 40.9992 16.8509 40.551C18.833 36.7167 20.8053 32.8786 22.7677 29.0368C22.9386 28.6965 23.0996 28.3394 23.3447 27.8408Z" fill="white"/>
</svg>
