<svg width="84" height="40" viewBox="0 0 84 40" fill="none" xmlns="http://www.w3.org/2000/svg">
<g clip-path="url(#clip0_144_528)">
<path d="M83.7191 20.0119C83.7191 20.0119 78.0014 10.6068 63.9693 3.92031C54.1433 -0.762367 44.4735 -0.439425 39.002 0.767643C30.3725 2.67089 23.1646 6.90357 23.1646 6.90357C23.1646 6.90357 23.9851 10.268 28.7869 9.24888C34.2002 8.10005 44.6165 3.49943 54.3445 7.3774C59.9166 9.5983 61.8834 18.1695 50.4533 16.5919C46.1015 16.118 42.9673 18.5322 43.8356 21.1581C44.2274 22.3254 45.2756 21.0946 49.54 21.9522C50.5989 22.1666 56.8142 23.9005 58.0927 24.2816C61.5948 25.3272 63.4372 26.0472 67.9214 25.2822C75.5052 23.9931 79.8147 19.2151 83.7191 20.0119Z" fill="url(#paint0_linear_144_528)"/>
<path d="M55.684 9.24887C55.164 8.84149 54.5915 8.50584 53.982 8.25093C51.4613 7.22516 48.762 6.71049 46.0407 6.7368C41.186 6.71562 36.5536 8.06034 32.8318 9.14035C31.3574 9.56917 30.0868 9.93447 28.9724 10.1727C28.3404 10.3129 27.6953 10.3848 27.0479 10.3871H27.0215C27.5059 11.2474 28.8506 12.8065 32.1515 12.3883C36.8739 11.7901 41.4851 9.57182 48.034 8.94711C50.587 8.74451 53.155 8.8458 55.684 9.24887Z" fill="url(#paint1_linear_144_528)"/>
<path d="M53.5212 12.0151C51.7774 12.0026 50.0354 12.1292 48.3118 12.3936C46.4888 12.7758 44.6921 13.2745 42.9329 13.8866C41.0005 14.5139 39.1767 15.1069 37.3423 15.3398C37.922 16.1075 39.1661 17.0657 41.6703 16.748C45.5932 16.253 49.6115 12.3565 57.3621 13.3439C57.4796 13.1641 57.5622 12.9639 57.6057 12.7536C57.6257 12.6382 57.6363 12.5213 57.6374 12.4042C56.2827 12.1314 54.9031 12.001 53.5212 12.0151Z" fill="url(#paint2_linear_144_528)"/>
<path d="M50.6464 9.79159C49.8042 9.7853 48.9622 9.82152 48.1237 9.90012C44.5131 10.2389 41.551 11.0648 38.6869 11.8643C36.7324 12.4529 34.7433 12.9197 32.731 13.2619C33.496 14.0004 34.8486 14.7046 37.1992 14.4055C40.5557 13.9793 44.0499 12.2401 48.1396 11.4645C49.4287 11.221 54.0346 10.7551 57.4229 11.3904C57.2712 11.0353 57.0736 10.7016 56.8352 10.3978C54.7935 10.0189 52.7229 9.81608 50.6464 9.79159Z" fill="url(#paint3_linear_144_528)"/>
<path d="M0 19.9881C0 19.9881 5.71769 29.3932 19.7499 36.0797C29.5758 40.7624 39.2456 40.4394 44.7171 39.2324C53.3466 37.3291 60.5546 33.0991 60.5546 33.0991C60.5546 33.0991 59.734 29.732 54.9322 30.7538C49.5189 31.9026 39.1053 36.5006 29.3746 32.6253C23.8158 30.4044 21.8358 21.8305 33.2658 23.4108C37.6176 23.882 40.7518 21.4678 39.8835 18.8446C39.4918 17.6746 38.4435 18.9055 34.1791 18.0504C33.1202 17.836 26.9049 16.1048 25.6264 15.7237C22.1243 14.6648 20.2819 13.9554 15.7978 14.7204C8.21388 16.0069 3.90444 20.7875 0 19.9881Z" fill="url(#paint4_linear_144_528)"/>
<path d="M28.0352 30.7538C28.556 31.1593 29.1283 31.494 29.7372 31.7491C32.2579 32.7748 34.9572 33.2895 37.6785 33.2632C42.5332 33.287 47.1656 31.9397 50.8874 30.8596C52.3618 30.4335 53.6324 30.0655 54.7442 29.8273C55.3771 29.6879 56.0232 29.6169 56.6713 29.6155H56.6977C56.2133 28.7552 54.8686 27.1934 51.5677 27.6143C46.8453 28.2099 42.2341 30.4308 35.6852 31.0555C33.1322 31.2568 30.5644 31.1555 28.0352 30.7538Z" fill="url(#paint5_linear_144_528)"/>
<path d="M30.1951 27.9849C31.9387 28.0015 33.6808 27.8776 35.4046 27.6143C37.2288 27.2335 39.0264 26.7348 40.7861 26.1214C42.7184 25.4967 44.5423 24.9037 46.3767 24.6681C45.797 23.9005 44.5529 22.9422 42.0487 23.2599C38.1257 23.7575 34.1075 27.6514 26.3568 26.664C26.2394 26.8438 26.1568 27.044 26.1133 27.2543C26.092 27.3705 26.0814 27.4883 26.0815 27.6064C27.436 27.874 28.8145 28.0008 30.1951 27.9849Z" fill="url(#paint6_linear_144_528)"/>
<path d="M33.0724 30.2085C33.9433 30.2085 34.793 30.1767 35.5951 30.1026C39.2057 29.7638 42.1678 28.9379 45.0319 28.1385C46.986 27.5477 48.9752 27.08 50.9878 26.7382C50.2228 25.9996 48.8702 25.2982 46.5196 25.5946C43.1631 26.0208 39.6716 27.7626 35.5792 28.5355C34.2901 28.7791 29.6842 29.2476 26.2959 28.6097C26.4476 28.9642 26.6442 29.2979 26.8809 29.6023C28.9236 29.981 30.995 30.1838 33.0724 30.2085Z" fill="url(#paint7_linear_144_528)"/>
</g>
<defs>
<linearGradient id="paint0_linear_144_528" x1="49.6378" y1="8.4914" x2="67.7899" y2="32.7974" gradientUnits="userSpaceOnUse">
<stop stop-color="#09CCFF"/>
<stop offset="0.98" stop-color="#0067E0"/>
</linearGradient>
<linearGradient id="paint1_linear_144_528" x1="27.0348" y1="9.54825" x2="55.6786" y2="9.67824" gradientUnits="userSpaceOnUse">
<stop stop-color="#00BEF0"/>
<stop offset="0.98" stop-color="#0057BC"/>
</linearGradient>
<linearGradient id="paint2_linear_144_528" x1="23.4354" y1="15.7976" x2="61.8605" y2="13.5128" gradientUnits="userSpaceOnUse">
<stop stop-color="#00A2D1"/>
<stop offset="0.98" stop-color="#00389B"/>
</linearGradient>
<linearGradient id="paint3_linear_144_528" x1="9669.5" y1="1041.16" x2="11972" y2="1041.16" gradientUnits="userSpaceOnUse">
<stop stop-color="#00A2D1"/>
<stop offset="0.98" stop-color="#00389B"/>
</linearGradient>
<linearGradient id="paint4_linear_144_528" x1="34.0628" y1="31.5106" x2="15.9107" y2="7.20458" gradientUnits="userSpaceOnUse">
<stop stop-color="#8243C8"/>
<stop offset="1" stop-color="#5131A9"/>
</linearGradient>
<linearGradient id="paint5_linear_144_528" x1="56.6664" y1="30.4559" x2="28.02" y2="30.3259" gradientUnits="userSpaceOnUse">
<stop stop-color="#8243C8"/>
<stop offset="0.98" stop-color="#5433AB"/>
</linearGradient>
<linearGradient id="paint6_linear_144_528" x1="36.2291" y1="23.1974" x2="36.2291" y2="27.9864" gradientUnits="userSpaceOnUse">
<stop stop-color="#8243C8"/>
<stop offset="1" stop-color="#5433AB"/>
</linearGradient>
<linearGradient id="paint7_linear_144_528" x1="-13427.1" y1="-7054.03" x2="-11124.8" y2="-7054.03" gradientUnits="userSpaceOnUse">
<stop stop-color="#8243C8"/>
<stop offset="0.98" stop-color="#5432AB"/>
</linearGradient>
<clipPath id="clip0_144_528">
<rect width="83.7165" height="40" fill="white"/>
</clipPath>
</defs>
</svg>
