<svg width="40" height="40" viewBox="0 0 40 40" fill="none" xmlns="http://www.w3.org/2000/svg">
<path fill-rule="evenodd" clip-rule="evenodd" d="M20 0C25.3043 0 30.3914 2.10714 34.1421 5.85786C37.8929 9.60859 40 14.6957 40 20C40 25.3043 37.8929 30.3914 34.1421 34.1421C30.3914 37.8929 25.3043 40 20 40C14.6957 40 9.60859 37.8929 5.85786 34.1421C2.10714 30.3914 0 25.3043 0 20C0 14.6957 2.10714 9.60859 5.85786 5.85786C9.60859 2.10714 14.6957 0 20 0V0Z" fill="white"/>
<path fill-rule="evenodd" clip-rule="evenodd" d="M15.8532 19.0234V15.2406C17.2222 15.4824 18.61 15.6016 20.0001 15.5969C21.3902 15.6016 22.778 15.4824 24.147 15.2406V19.0234H15.8532ZM20.0001 24.4031C18.61 24.3976 17.2221 24.5169 15.8532 24.7594V20.9766H24.147V24.7594C22.7781 24.5169 21.3903 24.3976 20.0001 24.4031ZM26.9532 14.5125L27.0032 14.4938C28.0741 14.1237 29.0995 13.633 30.0595 13.0313C30.247 12.9105 30.4011 12.7444 30.5073 12.5483C30.6136 12.3522 30.6686 12.1324 30.6673 11.9094C30.6675 11.7437 30.6224 11.5812 30.5369 11.4393C30.4513 11.2974 30.3286 11.1817 30.182 11.1046C30.0353 11.0275 29.8704 10.992 29.7051 11.0019C29.5397 11.0119 29.3802 11.0668 29.2439 11.1609C28.0293 11.9679 26.6885 12.5663 25.2767 12.9313L25.1204 12.975C24.8782 13.0391 24.6236 13.0969 24.3642 13.1516L24.1236 13.2C23.9079 13.2422 23.6861 13.2828 23.4579 13.3188C23.3876 13.3297 23.3204 13.3422 23.2501 13.3516C22.9532 13.3953 22.6486 13.4344 22.3329 13.4672L22.1657 13.4813C21.8923 13.5078 21.6095 13.5281 21.322 13.5438L21.0751 13.5563C20.7267 13.5719 20.372 13.5828 20.0017 13.5828C19.6314 13.5828 19.2782 13.5719 18.9314 13.5563L18.6751 13.5438C18.3986 13.5281 18.1267 13.5078 17.8642 13.4828L17.6611 13.4656C17.3486 13.4344 17.0611 13.3969 16.7736 13.3547L16.4954 13.3094C16.3032 13.2781 16.1142 13.2453 15.9314 13.2094L15.6032 13.1438C15.4157 13.1031 15.2361 13.0594 15.0579 13.0156C14.8798 12.9719 14.7361 12.9328 14.5798 12.8891C13.2231 12.5256 11.9341 11.9452 10.7626 11.1703C10.6261 11.0762 10.4665 11.0211 10.3009 11.0109C10.1354 11.0008 9.97023 11.0361 9.82327 11.113C9.67631 11.1898 9.55312 11.3054 9.46698 11.4471C9.38085 11.5888 9.33504 11.7513 9.33449 11.9172C9.33331 12.14 9.38822 12.3596 9.49416 12.5556C9.60011 12.7517 9.75368 12.9179 9.94074 13.0391C10.8995 13.6388 11.9225 14.1288 12.9907 14.5L13.0532 14.5219C13.3001 14.6078 13.5595 14.6891 13.8236 14.7687V19.0312H12.9236C12.7317 19.0312 12.5477 19.1075 12.412 19.2431C12.2763 19.3788 12.2001 19.5628 12.2001 19.7547C12.2011 19.9162 12.234 20.0759 12.2967 20.2247C12.3594 20.3735 12.4509 20.5085 12.5658 20.6219C12.6807 20.7354 12.8168 20.8251 12.9664 20.886C13.116 20.9468 13.2761 20.9776 13.4376 20.9766H13.8282V25.2391C13.5642 25.3187 13.3048 25.3953 13.0579 25.4859L12.9954 25.5078C11.9272 25.879 10.9041 26.369 9.94543 26.9687C9.75827 27.0898 9.60462 27.256 9.49866 27.4521C9.3927 27.6481 9.33785 27.8677 9.33918 28.0906C9.33973 28.2565 9.38554 28.419 9.47167 28.5607C9.55781 28.7025 9.681 28.818 9.82796 28.8948C9.97492 28.9717 10.1401 29.007 10.3056 28.9969C10.4711 28.9868 10.6308 28.9317 10.7673 28.8375C11.9363 28.0605 13.2232 27.4775 14.5782 27.1109C14.7345 27.0672 14.8907 27.025 15.0564 26.9828C15.222 26.9406 15.4142 26.8969 15.6017 26.8562C15.7079 26.8328 15.8189 26.8125 15.9298 26.7906C16.1126 26.7547 16.3017 26.7219 16.4939 26.6906L16.772 26.6453C17.0595 26.6031 17.3532 26.5656 17.6595 26.5344C17.7251 26.5344 17.7939 26.5219 17.8626 26.5172C18.1251 26.4922 18.397 26.4719 18.6736 26.4562L18.9298 26.4437C19.2767 26.4281 19.6314 26.4172 20.0001 26.4172C20.3689 26.4172 20.7251 26.4281 21.0736 26.4437L21.3204 26.4562C21.6079 26.4719 21.8907 26.4922 22.1642 26.5187C22.2189 26.5187 22.2767 26.5266 22.3314 26.5328C22.6439 26.5641 22.9564 26.6031 23.2486 26.6484C23.3189 26.6578 23.3861 26.6703 23.4564 26.6812C23.6845 26.7172 23.9064 26.7578 24.122 26.8L24.3626 26.8484C24.622 26.9031 24.8767 26.9609 25.1189 27.025L25.2751 27.0687C26.6869 27.4337 28.0278 28.0321 29.2423 28.8391C29.3786 28.9331 29.5381 28.9881 29.7035 28.9981C29.8689 29.008 30.0338 28.9725 30.1804 28.8954C30.327 28.8183 30.4498 28.7026 30.5353 28.5607C30.6209 28.4188 30.666 28.2563 30.6657 28.0906C30.6672 27.8675 30.6122 27.6477 30.506 27.4516C30.3997 27.2555 30.2456 27.0894 30.0579 26.9687C29.0979 26.367 28.0726 25.8763 27.0017 25.5062C26.9845 25.5062 26.9689 25.4922 26.9517 25.4875C26.7032 25.4016 26.4423 25.3187 26.1704 25.2391V20.9766H27.0689C27.2607 20.9766 27.4447 20.9003 27.5804 20.7647C27.7161 20.629 27.7923 20.445 27.7923 20.2531C27.7923 20.0915 27.7604 19.9315 27.6985 19.7822C27.6367 19.6329 27.5459 19.4973 27.4316 19.383C27.3172 19.2688 27.1815 19.1783 27.0321 19.1166C26.8827 19.0549 26.7227 19.0232 26.5611 19.0234H26.1704V14.7609C26.4361 14.6812 26.697 14.6047 26.9517 14.5125H26.9532Z" fill="#0C0F18"/>
</svg>
