<svg width="50" height="50" viewBox="0 0 50 50" fill="none" xmlns="http://www.w3.org/2000/svg">
<path fill-rule="evenodd" clip-rule="evenodd" d="M25 0C38.8071 0 50 11.1929 50 25C50 38.8071 38.8071 50 25 50C11.1929 50 0 38.8071 0 25C0 11.1929 11.1929 0 25 0Z" fill="#03A9F4"/>
<path fill-rule="evenodd" clip-rule="evenodd" d="M41.1941 14.9572C39.9761 15.4893 38.6875 15.8427 37.3684 16.0066C38.759 15.182 39.7984 13.8757 40.2895 12.3356C38.9881 13.108 37.5639 13.6521 36.079 13.9441C33.5751 11.2662 29.3744 11.1252 26.6965 13.6292C25.3526 14.8858 24.5906 16.6438 24.5922 18.4835C24.5875 18.9921 24.6393 19.4996 24.7468 19.9967C19.4042 19.7343 14.4263 17.2089 11.0593 13.0527C9.28289 16.0873 10.1783 19.9806 13.102 21.9342C12.0508 21.9059 11.0218 21.6249 10.102 21.1152V21.1875C10.1081 24.3459 12.3282 27.0672 15.4211 27.7072C14.8532 27.8565 14.268 27.9294 13.6809 27.9243C13.2582 27.9321 12.8358 27.8946 12.4211 27.8125C13.302 30.5131 15.7886 32.3658 18.6283 32.4375C16.2801 34.273 13.3851 35.27 10.4047 35.2698C9.87361 35.2742 9.34285 35.2435 8.8158 35.1777C11.8549 37.137 15.3972 38.1724 19.0132 38.1581C31.2336 38.1581 37.9145 28.0362 37.9145 19.2632C37.9145 18.9704 37.9145 18.6875 37.8915 18.4046C39.1926 17.4656 40.3117 16.2974 41.1941 14.9572Z" fill="white"/>
</svg>
