<svg width="150" height="150" viewBox="0 0 150 150" fill="none" xmlns="http://www.w3.org/2000/svg">
<mask id="mask0_183_1253" style="mask-type:alpha" maskUnits="userSpaceOnUse" x="2" y="2" width="146" height="146">
<path d="M147.671 75.0014C147.671 34.8672 115.136 2.33203 75.0014 2.33203C34.8672 2.33203 2.33203 34.8672 2.33203 75.0014C2.33203 115.136 34.8672 147.671 75.0014 147.671C115.136 147.671 147.671 115.136 147.671 75.0014Z" fill="white"/>
</mask>
<g mask="url(#mask0_183_1253)">
<path d="M147.671 75.0014C147.671 34.8672 115.136 2.33203 75.0014 2.33203C34.8672 2.33203 2.33203 34.8672 2.33203 75.0014C2.33203 115.136 34.8672 147.671 75.0014 147.671C115.136 147.671 147.671 115.136 147.671 75.0014Z" fill="url(#paint0_linear_183_1253)"/>
<path fill-rule="evenodd" clip-rule="evenodd" d="M197.598 35.3293L203.007 40.7382L40.7382 203.007L35.3292 197.598L197.598 35.3293ZM186.78 24.5114L192.189 29.9203L29.9203 192.189L24.5113 186.78L186.78 24.5114ZM175.962 13.6935L181.371 19.1025L19.1024 181.371L13.6935 175.962L175.962 13.6935ZM165.144 2.87563L170.553 8.28458L8.28452 170.553L2.87557 165.144L165.144 2.87563ZM154.326 -7.94226L159.735 -2.53331L-2.53337 159.735L-7.94232 154.326L154.326 -7.94226ZM143.508 -18.7601L148.917 -13.3512L-13.3513 148.917L-18.7602 143.508L143.508 -18.7601ZM132.69 -29.578L138.099 -24.1691L-24.1691 138.099L-29.5781 132.69L132.69 -29.578ZM121.872 -40.3959L127.281 -34.987L-34.987 127.281L-40.396 121.872L121.872 -40.3959ZM111.054 -51.2138L116.463 -45.8049L-45.8049 116.463L-51.2139 111.055L111.054 -51.2138Z" fill="black" fill-opacity="0.04"/>
</g>
<path d="M75.0014 4.33203C114.031 4.33203 145.671 35.9718 145.671 75.0014C145.671 114.031 114.031 145.671 75.0014 145.671C35.9718 145.671 4.33203 114.031 4.33203 75.0014C4.33203 35.9718 35.9718 4.33203 75.0014 4.33203Z" stroke="#009F44" stroke-width="4"/>
<path fill-rule="evenodd" clip-rule="evenodd" d="M58.842 70.9641V56.4997C63.5353 57.342 68.7924 57.8591 74.7019 57.8591C80.6115 57.8591 85.8669 57.342 90.5619 56.4997V70.9641H58.842ZM74.7019 91.5416C68.7924 91.5416 63.5353 92.0587 58.842 92.9027V78.4366H90.5619V92.9027C85.8669 92.0587 80.6115 91.5416 74.7019 91.5416ZM101.293 53.7142C101.358 53.6909 101.422 53.6658 101.487 53.6425C106.222 51.9779 110.094 50.0014 113.175 48.0465C114.639 47.1191 115.498 45.4862 115.498 43.7549C115.498 40.9527 112.373 39.3165 110.057 40.8944C106.55 43.2845 101.595 45.8432 94.8814 47.6646C94.6778 47.7196 94.4843 47.7797 94.2791 47.833C93.3498 48.0749 92.3804 48.2984 91.3844 48.5085C91.0824 48.5736 90.7721 48.632 90.4651 48.692C89.6392 48.8571 88.79 49.0073 87.9191 49.1474C87.6538 49.1891 87.3952 49.2358 87.1249 49.2758C85.9921 49.4426 84.8242 49.591 83.6146 49.7145C83.406 49.7345 83.1892 49.7495 82.9773 49.7695C81.9312 49.8679 80.8534 49.9463 79.7489 50.008C79.4369 50.0247 79.1249 50.0431 78.8079 50.0564C77.4765 50.1148 76.1168 50.1548 74.7019 50.1548C73.2905 50.1548 71.9357 50.1148 70.6093 50.0564C70.2773 50.0431 69.9536 50.0247 69.63 50.0064C68.5672 49.9463 67.5311 49.8713 66.5234 49.7762C66.2648 49.7528 66.0012 49.7345 65.7476 49.7095C64.578 49.5894 63.4519 49.4459 62.354 49.2841C61.992 49.2308 61.645 49.1707 61.2896 49.1123C60.5538 48.9922 59.8347 48.8638 59.1323 48.727C58.7102 48.6453 58.2865 48.5636 57.876 48.4752C57.1636 48.3217 56.4729 48.1583 55.7955 47.9898C55.1682 47.833 54.5609 47.6696 53.9619 47.5011C47.5452 45.6947 42.7736 43.2178 39.3633 40.901C37.0392 39.3198 33.9043 40.9477 33.9043 43.7582C33.9043 45.4879 34.7619 47.1175 36.2217 48.0449C39.2999 49.9964 43.164 51.9695 47.8889 53.6325C47.9673 53.6608 48.0424 53.6909 48.1242 53.7192C49.0701 54.0478 50.0595 54.358 51.0706 54.6616V70.9641H47.637C46.1087 70.9641 44.8691 72.2034 44.8691 73.7313C44.8691 76.3299 46.978 78.4366 49.5757 78.4366H51.0706V94.7391C50.0595 95.0427 49.0701 95.3546 48.1242 95.6815C48.0424 95.7098 47.9673 95.7399 47.8889 95.7699C43.164 97.4328 39.2999 99.4044 36.2217 101.358C34.7619 102.283 33.9043 103.913 33.9043 105.644C33.9043 108.453 37.0392 110.081 39.3633 108.501C42.7736 106.183 47.5452 103.708 53.9619 101.9C54.5609 101.731 55.1682 101.568 55.7955 101.411C56.4729 101.242 57.1636 101.079 57.876 100.926C58.2865 100.837 58.7102 100.755 59.1323 100.674C59.8347 100.537 60.5538 100.408 61.2896 100.29C61.645 100.232 61.992 100.17 62.354 100.117C63.4519 99.9548 64.578 99.8113 65.7476 99.6929C66.0012 99.6662 66.2648 99.6479 66.5234 99.6245C67.5311 99.5311 68.5672 99.4544 69.63 99.3943C69.9536 99.3777 70.2773 99.3593 70.6093 99.3443C71.9357 99.2859 73.2905 99.2459 74.7019 99.2459C76.1168 99.2459 77.4765 99.2859 78.8079 99.3443C79.1249 99.3577 79.4369 99.376 79.7489 99.3927C80.8534 99.4544 81.9312 99.5328 82.9773 99.6312C83.1892 99.6512 83.406 99.6662 83.6146 99.6862C84.8242 99.8097 85.9921 99.9581 87.1249 100.127C87.3952 100.167 87.6538 100.212 87.9191 100.255C88.79 100.393 89.6392 100.545 90.4651 100.709C90.7721 100.769 91.0824 100.829 91.3844 100.892C92.3804 101.102 93.3498 101.326 94.2791 101.568C94.4843 101.621 94.6778 101.683 94.8814 101.736C101.595 103.559 106.55 106.118 110.057 108.508C112.373 110.086 115.498 108.45 115.498 105.647C115.498 103.914 114.639 102.282 113.175 101.354C110.094 99.3993 106.222 97.4228 101.487 95.7582C101.422 95.7349 101.358 95.7098 101.293 95.6882C100.344 95.3579 99.3494 95.0443 98.3316 94.7391V78.4366H101.765C103.294 78.4366 104.533 77.1973 104.533 75.6694C104.533 73.0708 102.426 70.9641 99.8249 70.9641H98.3316V54.6616C99.3494 54.358 100.344 54.0445 101.293 53.7142Z" fill="white"/>
<defs>
<linearGradient id="paint0_linear_183_1253" x1="75.0014" y1="3.87641" x2="75.0014" y2="146.742" gradientUnits="userSpaceOnUse">
<stop stop-color="#02B54E"/>
<stop offset="1" stop-color="#01A848"/>
</linearGradient>
</defs>
</svg>
