<?xml version="1.0" encoding="UTF-8"?>
<svg width="114px" height="115px" viewBox="0 0 114 115" version="1.1" xmlns="http://www.w3.org/2000/svg" xmlns:xlink="http://www.w3.org/1999/xlink">
    <title>4AF02B00-8A72-4434-8990-E48576FBB00A</title>
    <defs>
        <polygon id="path-1" points="0 0 18.3679815 0 18.3679815 26.1588157 0 26.1588157"></polygon>
        <polygon id="path-3" points="0 0 27.2518711 0 27.2518711 15.6663844 0 15.6663844"></polygon>
    </defs>
    <g id="New-Site" stroke="none" stroke-width="1" fill="none" fill-rule="evenodd" opacity="0.85">
        <g id="Assets_Dark" transform="translate(-636.000000, -2604.000000)">
            <g id="img_bubbles_onetokens" transform="translate(138.000000, 2553.000000)">
                <g id="Group-35" transform="translate(-0.405177, 15.935960)">
                    <g id="Group-31-Copy-5" transform="translate(561.405177, 86.499937) rotate(-345.000000) translate(-561.405177, -86.499937) translate(471.405177, 21.064040)">
                        <g id="Group-23" transform="translate(39.283708, 26.479247)">
                            <g id="icon_chain" transform="translate(0.000000, 0.000000)">
                                <path d="M46.5,0 C72.1812409,0 93,20.8187591 93,46.5 C93,72.1812409 72.1812409,93 46.5,93 C20.8187591,93 0,72.1812409 0,46.5 C0,42.2935649 0.558536067,38.2175828 1.60549074,34.3421714 C5.00614421,36.1657194 8.89228752,37.2 13.02,37.2 C26.3742453,37.2 37.2,26.3742453 37.2,13.02 C37.2,8.89228752 36.1657194,5.00614421 34.3421804,1.60659213 C38.2175828,0.558536067 42.2935649,0 46.5,0 Z" id="Combined-Shape" fill="#000C2C"></path>
                                <g id="Group-13" transform="translate(29.651016, 17.713594)">
                                    <g id="Group-3" transform="translate(19.369675, 31.602903)">
                                        <mask id="mask-2" fill="white">
                                            <use xlink:href="#path-1"></use>
                                        </mask>
                                        <g id="Clip-2"></g>
                                        <path d="M0.0177589259,26.1588299 C0.012254271,26.0355235 0.00517001945,25.9517951 0.00517001945,25.8681144 C0.0046913538,20.7990234 0.00588801791,15.7299324 0,10.660889 C-0.000191035774,10.4742385 0.063471495,10.3816039 0.220713159,10.2923984 C6.17722844,6.9135442 12.1310632,3.53007015 18.0855681,0.147548635 C18.1660796,0.101826657 18.249176,0.0605339947 18.363625,0 L18.363625,0.289143888 C18.363625,5.35823489 18.3624762,10.4272783 18.3679815,15.4963693 C18.3682201,15.6871156 18.3101101,15.7899901 18.1429601,15.8846727 C12.1980285,19.251763 6.25606467,22.6239971 0.313670027,25.9953739 C0.226600747,26.0447155 0.138478401,26.0921997 0.0177589259,26.1588299" id="Fill-1" fill="#FFFFFF" mask="url(#mask-2)"></path>
                                    </g>
                                    <path d="M13.7597234,36.4198326 C13.5773996,36.3176249 13.4256626,36.23423 13.2753616,36.1482155 C8.92610981,33.658749 4.57752816,31.1679966 0.225547983,28.6831975 C0.058206474,28.58761 -0.000238601194,28.4836878 0,28.2930367 C0.00526605372,23.2313755 0.00416512274,18.1696667 0.00416512274,13.1079579 L0.00416512274,12.8085742 C0.106360238,12.8582492 0.174761558,12.8868254 0.238567689,12.9233078 C4.69197711,15.4711174 9.14486001,18.0197843 13.598796,20.5665938 C13.7096071,20.6299378 13.7747536,20.6924245 13.7747536,20.8383062 C13.7701104,25.979314 13.7708763,31.1203695 13.7704933,36.261425 C13.7704933,36.3007173 13.7653237,36.339962 13.7597234,36.4198326" id="Fill-4" fill="#FFFFFF"></path>
                                    <path d="M19.3717717,36.4247144 L19.3717717,36.1183295 C19.3717717,31.0651459 19.3730162,26.0119148 19.3672236,20.9587312 C19.366985,20.7520297 19.4228932,20.6367246 19.6099557,20.53004 C24.045128,17.9996619 28.4758486,15.4616158 32.9076703,12.9254272 C32.9742048,12.8873255 33.0436113,12.8543676 33.1429823,12.8027399 L33.1429823,13.067975 C33.1429823,18.1529258 33.142025,23.2378766 33.1470993,28.3228274 C33.1472903,28.497714 33.0896111,28.5876815 32.9396451,28.6733149 C28.4988725,31.2099322 24.0609718,33.7515027 19.622401,36.2919778 C19.5550528,36.3305081 19.4851676,36.3647995 19.3717717,36.4247144" id="Fill-6" fill="#FFFFFF"></path>
                                    <path d="M13.7581342,57.7485213 C13.664938,57.7013229 13.5948135,57.6696509 13.5283747,57.6316445 C9.08209737,55.0869782 4.63653806,52.5412166 0.188441823,49.9997413 C0.0536974436,49.922776 0.000565557089,49.841429 0.000708866556,49.6843549 C0.00496928102,44.582687 0.00420341599,39.4811144 0.00468208163,34.3795417 C0.00468208163,34.3177694 0.0114791338,34.2560447 0.0168880556,34.1639816 C0.10376587,34.2061792 0.172933056,34.2348983 0.237313585,34.271714 C4.68335156,36.8167613 9.1284322,39.3633803 13.5770071,41.9039982 C13.7331957,41.9931561 13.7745524,42.0921251 13.7744092,42.2608202 C13.7701487,47.3386269 13.7710103,52.416386 13.7704838,57.4941452 C13.7704838,57.5699674 13.7633038,57.6457421 13.7581342,57.7485213" id="Fill-8" fill="#FFFFFF"></path>
                                    <g id="Group-12" transform="translate(3.664861, 0.000000)">
                                        <mask id="mask-4" fill="white">
                                            <use xlink:href="#path-3"></use>
                                        </mask>
                                        <g id="Clip-11"></g>
                                        <path d="M27.2518711,7.84659166 C26.6462634,8.19360243 26.0751195,8.5210861 25.5037842,8.84814113 C21.5832732,11.092614 17.6619486,13.3357533 13.7444532,15.5853699 C13.5639962,15.6890064 13.4361446,15.696722 13.250566,15.5881323 C8.93276253,13.0619454 4.61041176,10.5433787 0.289066183,8.02309755 C0.200560905,7.97151745 0.113874557,7.91693683 0,7.84768709 C0.0723263789,7.79805969 0.1251232,7.75657652 0.182563077,7.72304707 C4.55876373,5.17052235 8.93553879,2.61895018 13.3106385,0.0645680068 C13.4308315,-0.00563428133 13.5222566,-0.0292573037 13.6568574,0.0479461625 C18.1411886,2.62023611 22.6282961,5.18771572 27.1148292,7.75624313 C27.148623,7.77557972 27.1800234,7.79901223 27.2518711,7.84659166" id="Fill-10" fill="#FFFFFF" mask="url(#mask-4)"></path>
                                    </g>
                                </g>
                            </g>
                        </g>
                    </g>
                </g>
            </g>
        </g>
    </g>
</svg>