<?xml version="1.0" encoding="UTF-8"?>
<svg width="100px" height="100px" viewBox="0 0 100 100" version="1.1" xmlns="http://www.w3.org/2000/svg" xmlns:xlink="http://www.w3.org/1999/xlink">
    <title>D6CFEF04-30EC-4576-84BD-AA20D261C33E</title>
    <g id="New-Site" stroke="none" stroke-width="1" fill="none" fill-rule="evenodd">
        <g id="Assets_Dark" transform="translate(-309.000000, -2978.000000)">
            <g id="img_bubbles_onetokens" transform="translate(138.000000, 2553.000000)">
                <g id="Group-35" transform="translate(-0.405177, 15.935960)">
                    <g id="Group-31" transform="translate(121.405177, 374.064040)">
                        <g id="Group-23" transform="translate(36.000000, 21.000000)">
                            <g id="icon_bitcoin" transform="translate(14.000000, 14.000000)">
                                <path d="M50,0 C77.6142375,0 100,22.3857625 100,50 C100,77.6142375 77.6142375,100 50,100 C22.3857625,100 0,77.6142375 0,50 C0,45.4766284 0.600662205,41.0935491 1.72657535,36.9261731 C5.38274884,38.8878166 9.56149225,40 14,40 C28.3594035,40 40,28.3594035 40,14 C40,9.56149225 38.8878166,5.38274884 36.9269335,1.72725346 C41.0935491,0.600662205 45.4766284,0 50,0 Z" id="Combined-Shape" fill="#EA973D"></path>
                                <g id="Group-27" transform="translate(32.000000, 26.000000)">
                                    <path d="M8.09446884,4.89994311 C8.07148033,4.97122746 8.05968623,5.00177219 8.05181017,5.03327644 C7.68639287,6.49326645 7.32217498,7.95353631 6.95487863,9.41304656 C6.91817698,9.55889363 7.0053334,9.57932342 7.11080067,9.604151 C7.84027593,9.77594511 8.57378918,9.93310653 9.2965478,10.1296083 C9.83911651,10.2770546 10.3925598,10.4236612 10.8969076,10.6636213 C11.8417152,11.1131965 12.254149,12.1144159 12.000196,13.128149 C11.3236942,15.8291585 10.6525898,18.5316073 9.97972621,21.2336163 C9.0725398,24.8767147 8.1731495,28.5217722 7.25101056,32.1610725 C7.10644285,32.7317872 6.73043085,33.1675293 6.11857678,33.2757952 C5.82056579,33.3285288 5.49085064,33.3071795 5.19359927,33.2396533 C4.24323445,33.0235613 3.30018598,32.7746857 2.35721746,32.5273294 C2.18230492,32.4814324 2.1009456,32.512177 2.02746234,32.6836513 C1.3785468,34.1983739 0.720315912,35.7090585 0.0651634885,37.2211425 C-0.0397840378,37.4633814 -0.0387845375,37.4631015 0.224803668,37.5295483 C2.97950632,38.2238012 5.73420897,38.918174 8.48863175,39.6133864 C8.54312451,39.6270995 8.5949386,39.6513274 8.6537492,39.6727967 C8.05924645,42.0655603 7.46966124,44.4383339 6.87531841,46.8302979 C8.34846184,47.196115 9.78626294,47.5531365 11.2283419,47.9111975 C11.2564478,47.8143259 11.2749186,47.7576742 11.2893114,47.7000231 C11.8473924,45.4687387 12.4067927,43.2377742 12.9591165,41.0050106 C12.9963379,40.8544858 13.0512305,40.8316173 13.1902809,40.8683189 C14.1910605,41.1327467 15.1927997,41.3936163 16.1962579,41.6476493 C16.3585368,41.6887487 16.3868826,41.7493584 16.3460231,41.9118372 C15.7884618,44.1283289 15.2406557,46.3473394 14.6837342,48.5639911 C14.6452335,48.7173544 14.668062,48.7735263 14.826223,48.8119071 C15.7797462,49.0432315 16.7306707,49.2853104 17.6825548,49.5232714 C18.1118601,49.6305778 18.5414853,49.7366048 18.9999361,49.8503479 C19.5985568,47.4529466 20.1921,45.0757352 20.7824848,42.7110376 C21.5642939,42.8288586 22.3108007,42.9439211 23.058147,43.0534663 C24.3028047,43.2358152 25.5528596,43.3200131 26.81223,43.296185 C27.7592764,43.2782739 28.694209,43.184201 29.616068,42.9699881 C31.5773674,42.514176 33.206193,41.5336662 34.4269026,39.9108377 C35.224064,38.8510476 35.7665128,37.6652804 36.1611955,36.4073894 C36.6084119,34.982102 36.8770376,33.5357452 36.6648636,32.0328566 C36.4911905,30.8027917 36.0029546,29.7153754 35.208112,28.7636912 C34.4727997,27.8832515 33.5690515,27.2107077 32.582225,26.6411925 C32.4367377,26.5571945 32.2904908,26.4745158 32.1152185,26.3744858 C32.2308806,26.3443809 32.3068027,26.3255103 32.3822449,26.3048806 C34.0336592,25.852147 35.3958581,24.9838611 36.3344688,23.5231915 C37.1246737,22.2935663 37.4846138,20.9232914 37.626063,19.4824918 C37.720176,18.5239311 37.6404159,17.5851605 37.3527997,16.6662999 C36.8804359,15.1567347 35.928152,13.9917572 34.7106008,13.0230815 C33.3644339,11.952097 31.8375973,11.2069896 30.2493114,10.5765848 C29.8124898,10.4032315 29.3700311,10.2439911 28.9242539,10.0760351 C28.9433644,9.99227694 28.9583169,9.92139238 28.9757882,9.85110752 C29.5278322,7.63165725 30.0779571,5.41176719 30.6364778,3.1939561 C30.6782569,3.02803906 30.6407557,2.97490563 30.4827947,2.93620498 C29.1827247,2.61772422 27.8843739,2.29216699 26.5856632,1.96828893 C26.3175173,1.90144236 26.3167577,1.90032292 26.2524299,2.15867374 C25.7956982,3.99299658 25.3397262,5.8275593 24.8826747,7.66184216 C24.7887217,8.03897359 24.6913304,8.41526545 24.5936992,8.79907354 C23.4484319,8.52988813 22.3282719,8.26661977 21.1994364,8.00127244 C21.2086717,7.94697959 21.2119501,7.91511552 21.2195863,7.88437089 C21.7659931,5.69446585 22.3125998,3.50460078 22.8596862,1.31485565 C22.9250136,1.05310653 22.9267327,1.0517472 22.6807757,0.990617769 C21.3805058,0.667419369 20.0789966,0.349258449 18.7808057,0.0179441062 C18.5991365,-0.0284327054 18.5393264,0.0107077244 18.4960281,0.186899628 C18.0184668,2.13060777 17.5339891,4.07267674 17.0505508,6.01498559 C16.9648736,6.35905355 16.8752784,6.702162 16.780206,7.07409603 C13.8720201,6.34614001 10.9911805,5.62502057 8.09446884,4.89994311" id="Path" fill="#FFFFFF"></path>
                                    <path d="M14.4250555,35.5664099 C14.5296432,35.1390635 14.6300331,34.7210725 14.7343009,34.304081 C15.3958102,31.6590436 16.0600381,29.0146058 16.7163499,26.3682889 C16.7632065,26.1791035 16.8190985,26.1298482 17.0223169,26.1772644 C18.644066,26.5559151 20.2748906,26.8983039 21.8588187,27.4232415 C23.2711525,27.8913274 24.6433864,28.4453304 25.8463849,29.3459201 C26.6332315,29.9350256 27.2840261,30.640193 27.5959901,31.5946757 C28.1830565,33.3908177 27.41616,35.7665898 25.2449256,36.552117 C24.2199581,36.9229716 23.164206,37.0095683 22.0882639,36.9924169 C20.6137612,36.9689086 19.1683239,36.730188 17.7370396,36.4012325 C16.690163,36.1606328 15.6511625,35.8859301 14.6088836,35.6256203 C14.552232,35.6114673 14.4974194,35.5899581 14.4250555,35.5664099" id="Fill-6" fill="#EA973D"></path>
                                    <path d="M17.880124,21.7167667 C18.5934873,18.8540381 19.3014533,16.0128986 20.0138571,13.1537682 C20.7846717,13.332119 21.534177,13.4993154 22.2804438,13.6796253 C23.626051,14.0047827 24.9472305,14.4032634 26.1868906,15.0344279 C27.0064408,15.4516992 27.7655813,15.9524888 28.3412534,16.6850825 C29.2450815,17.8350675 29.3148466,19.1055123 28.8290096,20.4336083 C28.3968257,21.6151375 27.5084698,22.3050725 26.3249016,22.6349476 C25.4192744,22.8873014 24.4926178,22.9124489 23.5573654,22.8549976 C21.7496692,22.7438532 20.0122979,22.2836033 18.2735673,21.8250326 C18.1473904,21.7917692 18.0218931,21.7558671 17.880124,21.7167667" id="Fill-8" fill="#EA973D"></path>
                                </g>
                            </g>
                        </g>
                    </g>
                </g>
            </g>
        </g>
    </g>
</svg>