<?xml version="1.0" encoding="UTF-8"?>
<svg width="40px" height="40px" viewBox="0 0 40 40" version="1.1" xmlns="http://www.w3.org/2000/svg" xmlns:xlink="http://www.w3.org/1999/xlink">
    <title>6B6FD41C-66EF-4C70-BA6D-EE4AAA7BE023</title>
    <defs>
        <polygon id="path-1" points="0 -1.77635795e-15 2 -1.77635795e-15 2 2.31636395 0 2.31636395"></polygon>
    </defs>
    <g id="New-Site" stroke="none" stroke-width="1" fill="none" fill-rule="evenodd">
        <g id="Assets_Dark" transform="translate(-167.000000, -15.000000)">
            <g id="icon_sun" transform="translate(167.000000, 15.000000)">
                <circle id="Oval" fill="#0F284C" cx="20" cy="20" r="20"></circle>
                <g id="Group-20" transform="translate(10.000000, 10.000000)">
                    <path d="M16.25,10.0000063 C16.25,13.4517584 13.45175,16.2500023 10,16.2500023 C6.54825,16.2500023 3.75,13.4517584 3.75,10.0000063 C3.75,6.54825409 6.54825,3.75000234 10,3.75000234 C13.45175,3.75000234 16.25,6.54825409 16.25,10.0000063" id="Fill-1" stroke="#FFFFFF" stroke-width="1.5"></path>
                    <path d="M10,2.25000141 C10.339125,2.25000141 10.672375,2.27412642 11,2.31637645 L11,1 C11,0.44775028 10.55225,0 10,0 C9.44775,0 9,0.44775028 9,1 L9,2.31637645 C9.327625,2.27412642 9.660875,2.25000141 10,2.25000141" id="Fill-3" fill="#FFFFFF"></path>
                    <g id="Group-7" transform="translate(9.000000, 17.683636)">
                        <mask id="mask-2" fill="white">
                            <use xlink:href="#path-1"></use>
                        </mask>
                        <g id="Clip-6"></g>
                        <path d="M1,0.0663750415 C0.660875,0.0663750415 0.327625,0.0422500264 0,-1.77635795e-15 L0,1.31637582 C0,1.86862617 0.44775,2.31637645 1,2.31637645 C1.55225,2.31637645 2,1.86862617 2,1.31637582 L2,-1.77635795e-15 C1.672375,0.0422500264 1.339125,0.0663750415 1,0.0663750415" id="Fill-5" fill="#FFFFFF" mask="url(#mask-2)"></path>
                    </g>
                    <path d="M2.25,10.0000056 C2.25,9.66088104 2.274125,9.32763083 2.316375,9.00000563 L1,9.00000563 C0.44775,9.00000563 0,9.4477559 0,10.0000056 C0,10.5522566 0.44775,11.0000056 1,11.0000056 L2.316375,11.0000056 C2.274125,10.6723817 2.25,10.3391315 2.25,10.0000056" id="Fill-8" fill="#FFFFFF"></path>
                    <path d="M17.75,10.0000056 C17.75,10.3391315 17.725875,10.6723817 17.683625,11.0000056 L19,11.0000056 C19.55225,11.0000056 20,10.5522566 20,10.0000056 C20,9.4477559 19.55225,9.00000563 19,9.00000563 L17.683625,9.00000563 C17.725875,9.32763083 17.75,9.66088104 17.75,10.0000056" id="Fill-10" fill="#FFFFFF"></path>
                    <path d="M4.5199,4.51990282 C4.75965,4.28015268 5.0124,4.06152754 5.274025,3.85977741 L4.34315,2.92890183 C3.95265,2.53840159 3.3194,2.53840159 2.9289,2.92890183 C2.5384,3.31940207 2.5384,3.95265247 2.9289,4.34315271 L3.859775,5.2740283 C4.061525,5.01240313 4.28015,4.75965297 4.5199,4.51990282" id="Fill-12" fill="#FFFFFF"></path>
                    <path d="M15.4801,15.4800597 C15.24035,15.7198098 14.9876,15.938435 14.725975,16.1401851 L15.65685,17.0710607 C16.04735,17.4615609 16.6806,17.4615609 17.0711,17.0710607 C17.4616,16.6805604 17.4616,16.047435 17.0711,15.6569348 L16.140225,14.7260592 C15.938475,14.9875594 15.71985,15.2403095 15.4801,15.4800597" id="Fill-14" fill="#FFFFFF"></path>
                    <path d="M4.5199,15.4800597 C4.28015,15.2403095 4.061525,14.9875594 3.859775,14.7260592 L2.9289,15.6569348 C2.5384,16.047435 2.5384,16.6805604 2.9289,17.0710607 C3.3194,17.4615609 3.95265,17.4615609 4.34315,17.0710607 L5.274025,16.1401851 C5.0124,15.938435 4.75965,15.7198098 4.5199,15.4800597" id="Fill-16" fill="#FFFFFF"></path>
                    <path d="M15.4801,4.51990282 C15.71985,4.75965297 15.938475,5.01240313 16.140225,5.2740283 L17.0711,4.34315271 C17.4616,3.95265247 17.4616,3.31940207 17.0711,2.92890183 C16.6806,2.53840159 16.04735,2.53840159 15.65685,2.92890183 L14.725975,3.85977741 C14.9876,4.06152754 15.24035,4.28015268 15.4801,4.51990282" id="Fill-18" fill="#FFFFFF"></path>
                </g>
            </g>
        </g>
    </g>
</svg>