<?xml version="1.0" encoding="UTF-8"?>
<svg width="300px" height="300px" viewBox="0 0 300 300" version="1.1" xmlns="http://www.w3.org/2000/svg" xmlns:xlink="http://www.w3.org/1999/xlink">
    <title>goldin_light</title>
    <g id="Page-1" stroke="none" stroke-width="1" fill="none" fill-rule="evenodd">
        <g id="Desktop-HD-Copy" transform="translate(-700.000000, -30.000000)">
            <g id="goldin_light" transform="translate(700.000000, 29.999919)">
                <path d="M75,48.0000812 L177,48.0000812 L177,48.0000812 L177,182.000081 L31,182.000081 L31,92.0000812 C31,67.6995522 50.699471,48.0000812 75,48.0000812 Z" id="Rectangle" fill="#000000"></path>
                <g id="Group-8">
                    <path d="M142.985535,170.155173 C142.985535,170.155173 152.773954,161.985653 153.310283,163.058636 C153.846775,164.131458 155.563452,172.070821 155.99258,172.392748 C156.421709,172.714676 158.245586,174.75328 162.429996,174.538553 C166.614243,174.323989 174.231843,174.891991 174.661134,174.554308 C175.0901,174.216788 177.879761,172.392748 177.235905,169.281324 C176.592213,166.169899 176.960594,104.418285 176.960594,104.418285 L210.817732,104.156292 C210.817732,104.156292 213.50279,103.896736 214.091421,105.555427 C214.680214,107.214117 265.864757,223.563959 265.864757,223.563959 C265.864757,223.563959 266.031406,224.780689 263.610776,224.738621 C261.190472,224.696715 229.991267,224.738621 229.991267,224.738621 C229.991267,224.738621 227.707562,224.816585 226.665602,222.503644 C225.623804,220.190541 219.353199,203.70077 219.353199,203.70077 C219.353199,203.70077 218.5872,200.803747 215.185357,200.803747 L170.68869,200.803747 C170.68869,200.803747 167.501087,200.158755 166.467573,203.737316 C165.434058,207.315714 159.202111,222.389784 159.202111,222.389784 C159.202111,222.389784 157.643637,224.766883 155.90617,224.766883 C154.168703,224.766883 121.317954,224.73456 121.317954,224.73456 C121.317954,224.73456 119.198462,224.836238 120.670363,221.62817 C122.142589,218.420102 142.985535,170.155173 142.985535,170.155173" id="Fill-4" stroke="#FFC613" fill="#FFC613"></path>
                    <g id="Group-3" fill="#FFFFFF">
                        <path d="M142.666076,170.002103 C142.772465,170.053105 142.879179,170.104107 142.985567,170.155108 C142.845556,170.839245 142.783347,171.551968 142.545719,172.200209 C142.268783,172.956138 141.806032,173.641411 141.479557,174.38191 C134.537322,190.128097 127.602235,205.87737 120.670396,221.628268 C120.453395,222.121392 120.232009,222.62345 120.107591,223.144024 C119.85713,224.193293 120.231846,224.68593 121.317824,224.734657 C122.262492,224.776726 123.210408,224.74554 124.1567,224.745215 C132.466883,224.743104 140.777066,224.738718 149.087087,224.739693 C151.360071,224.739855 153.633218,224.745378 155.906202,224.767039 C157.598515,224.78306 158.613026,223.905475 159.202144,222.389719 C161.6192,216.170443 164.054285,209.957989 166.467605,203.737251 C167.400578,201.332377 168.129219,200.797997 170.68856,200.803519 C177.888239,200.819275 185.087593,200.857932 192.28711,200.857445 C199.919816,200.856957 207.552522,200.81895 215.18539,200.803844 C217.689993,200.798809 218.442186,201.34862 219.353232,203.700867 C221.781983,209.971795 224.221616,216.238499 226.665634,222.503579 C227.339051,224.229351 228.126815,224.74554 229.991299,224.745215 C241.197857,224.743104 252.404414,224.740667 263.610809,224.738556 C264.098086,224.738556 264.5865,224.764544 265.072315,224.738881 C265.841887,224.698112 266.131167,224.268658 265.864789,223.564056 C265.57827,222.806666 265.282493,222.051387 264.956505,221.310239 C258.007449,205.506715 251.04751,189.707902 244.10219,173.902754 C234.09206,151.123214 224.091188,128.339612 214.091453,105.555362 C213.674344,104.604522 213.002227,104.157364 211.947272,104.158014 C205.640772,104.161912 199.334109,104.095805 193.028096,104.138848 C187.671785,104.175394 182.316774,104.361533 176.960626,104.418382 C172.117743,104.469871 167.274211,104.438686 162.431165,104.439173 C148.192609,104.440635 133.954377,104.44031 119.716145,104.43901 C118.202013,104.438848 116.685282,104.36868 115.174399,104.437549 C113.4254,104.517137 112.946244,105.052492 112.841642,106.779726 C112.826861,107.022227 112.838069,107.266678 112.839693,107.510154 C112.868767,111.893208 112.907262,116.276263 112.923829,120.659318 C112.932113,122.90339 112.856098,125.148599 112.907262,127.391209 C112.933088,128.522829 113.49638,129.032845 114.613381,129.209889 C114.958535,129.264626 115.31441,129.267387 115.665574,129.2669 C121.97045,129.258292 128.275327,129.247734 134.580203,129.231816 C135.905758,129.228405 137.232938,129.154502 138.556383,129.199656 C140.014802,129.249358 140.476254,129.892076 140.010254,131.268471 C137.306517,139.258348 132.374787,145.221317 124.270885,148.14644 C114.788801,151.569072 105.222255,151.38748 95.6573339,148.486559 C87.8339404,146.113683 81.6905153,141.518501 77.7460085,134.292186 C71.6246733,123.078647 70.6525558,111.291746 74.6378314,99.2207632 C77.8956025,89.3532456 84.4717295,82.3866493 94.3070895,78.7980181 C102.830538,75.6880551 111.543699,75.5516176 120.233471,78.0505355 C127.95145,80.2699189 133.22736,85.255735 135.986809,92.8298031 C136.911336,95.3673783 136.849451,95.5881147 139.908251,95.5809679 C151.113509,95.5548174 162.318767,95.6199501 173.524025,95.6407406 C174.061166,95.6417151 174.606429,95.5915256 175.1335,95.490172 C175.863766,95.3496739 176.263983,94.8823754 176.228736,94.1113411 C176.209083,93.6802636 176.212331,93.2391157 176.118449,92.8221691 C175.732039,91.1080918 175.378925,89.3824822 174.894085,87.6953675 C171.839671,77.0685103 165.953853,68.4474468 156.741558,62.1960103 C152.18097,59.101153 147.170789,56.9694794 141.97999,55.2009895 C133.61978,52.3523693 125.052315,50.4916217 116.250469,49.7491743 C109.057125,49.1423522 101.873526,49.2734297 94.7094178,50.1909719 C86.4161269,51.2532353 78.2941951,53.0272477 70.5205038,56.1755431 C60.967602,60.044196 52.8503805,65.8645549 46.6322396,74.1490726 C39.016751,84.2953125 35.3022389,95.8873026 34.3085188,108.415676 C33.5628227,117.817845 34.704675,127.053364 37.209116,136.120773 C41.3384631,151.071075 50.1469681,162.249692 64.1821679,169.073354 C73.5895363,173.646934 83.638486,175.903513 94.0056275,176.857276 C100.566324,177.460849 107.12897,177.364206 113.696813,176.889111 C121.696926,176.310389 129.534125,175.001401 137.04355,172.061985 C138.901699,171.334481 140.791035,170.686565 142.666076,170.002103 M147.15747,0 L153.004793,0 C153.177289,0.0449918909 153.348973,0.126691967 153.522119,0.129778054 C162.169498,0.285381777 170.728517,1.24580434 179.212983,2.91131644 C193.335243,5.68343413 206.774016,10.4064457 219.516632,17.0874979 C237.275115,26.3985453 252.574474,38.7700159 265.415358,54.1707239 C275.449527,66.2053238 283.404647,79.4928748 289.262203,94.0262301 C295.137788,108.60409 298.629615,123.735984 299.712019,139.420612 C299.777964,140.377461 299.902707,141.330249 300,142.284825 L300,157.877682 C299.953384,158.109463 299.877044,158.339621 299.864537,158.573189 C299.503952,165.415692 298.663724,172.201184 297.349376,178.922842 C294.641903,192.769624 290.085864,205.980998 283.63854,218.537796 C275.729223,233.942077 265.47513,247.589401 252.858718,259.437374 C236.361958,274.929365 217.335418,286.173602 195.77715,293.094232 C184.819916,296.611721 173.598253,298.811938 162.122069,299.705279 C161.246433,299.773498 160.375182,299.900514 159.501819,300.000081 L140.660444,300.000081 C140.457412,299.952166 140.256979,299.881998 140.051023,299.858933 C135.64604,299.369383 131.218317,299.032349 126.838997,298.373226 C110.88555,295.971602 95.7512159,290.997155 81.4085443,283.610201 C66.4114599,275.886052 53.0974299,265.90776 41.4539477,253.70976 C30.3289282,242.054911 21.2936769,228.950089 14.3944853,214.384898 C6.20092377,197.087222 1.50503601,178.882723 0.295127393,159.779361 C0.217163085,158.5485 0.0992420678,157.3204 0,156.091001 L0,144.071506 C0.0449919031,143.899173 0.123443489,143.728139 0.130427791,143.554181 C0.408500492,136.681304 1.18684417,129.865601 2.41364505,123.097814 C4.86724681,109.561589 9.11532708,96.6125329 15.1668193,84.2636395 C23.2497689,67.7696448 34.0028338,53.2375889 47.3962899,40.6648729 C57.8566637,30.8457582 69.4878016,22.6913434 82.281907,16.2003292 C93.9365966,10.2872253 106.162862,5.98343421 118.950308,3.29334144 C128.02178,1.38500308 137.192494,0.299350379 146.466511,0.130102905 C146.697643,0.125879839 146.92715,0.0451543165 147.15747,0" id="Fill-1"></path>
                    </g>
                    <path d="M192.924598,137.33354 C193.329363,138.331483 193.645931,139.096508 193.950966,139.866243 C198.357574,150.98931 202.763207,162.112702 207.16754,173.236744 C207.900243,175.087259 207.628504,175.478055 205.619137,175.478592 C197.174303,175.478592 188.729469,175.478592 180.284635,175.478592 C180.176459,175.478592 180.068121,175.47903 179.959783,175.478055 C178.32968,175.463112 177.974292,174.940914 178.58014,173.412651 C181.258052,166.658995 183.940349,159.906963 186.622808,153.155093 C188.597092,148.185844 190.574624,143.217732 192.551019,138.249296 C192.639541,138.026773 192.731799,137.805711 192.924598,137.33354" id="Fill-6" fill="#FFFFFF"></path>
                </g>
            </g>
        </g>
    </g>
</svg>