<?xml version="1.0" encoding="UTF-8"?>
<svg width="100px" height="100px" viewBox="0 0 100 100" version="1.1" xmlns="http://www.w3.org/2000/svg" xmlns:xlink="http://www.w3.org/1999/xlink">
    <title>17DF814F-6668-49CA-A5C7-30E34482DA7C</title>
    <g id="New-Site" stroke="none" stroke-width="1" fill="none" fill-rule="evenodd">
        <g id="Assets_Dark" transform="translate(-1252.000000, -1199.000000)" fill="#4CBBFD">
            <path d="M1278.2979,1248.99791 C1278.27493,1235.90668 1288.86836,1225.27599 1301.95978,1225.25293 C1315.0512,1225.22851 1325.68204,1235.82323 1325.7051,1248.91302 C1325.71082,1252.2772 1325.00143,1255.60252 1323.62293,1258.67029 L1307.98748,1243.01347 L1296.01411,1254.98523 L1311.65532,1270.6219 C1299.73951,1275.97897 1285.7358,1270.66363 1280.37865,1258.74799 C1279.00015,1255.6831 1278.29076,1252.35778 1278.2979,1248.99791 M1342.63125,1248.99791 C1342.63556,1241.15152 1340.35485,1233.47348 1336.06683,1226.9034 L1352.00014,1210.96888 L1340.03397,1199 L1324.11073,1214.93452 C1310.68116,1206.1773 1293.34632,1206.1773 1279.91675,1214.93452 L1263.96905,1199 L1252,1210.96888 L1267.93475,1226.90196 C1259.1774,1240.33134 1259.1774,1257.66593 1267.93475,1271.0953 L1252,1287.03126 L1263.96905,1299.00014 L1279.9038,1283.06562 C1293.33337,1291.82285 1310.66821,1291.82285 1324.09778,1283.06562 L1340.03253,1299.00014 L1352.00014,1287.03126 L1336.06683,1271.10969 C1340.35773,1264.53242 1342.63844,1256.85006 1342.63125,1248.99791" id="icon_quantstamp_light"></path>
        </g>
    </g>
</svg>