<?xml version="1.0" encoding="UTF-8"?>
<svg width="600px" height="241px" viewBox="0 0 600 241" version="1.1" xmlns="http://www.w3.org/2000/svg" xmlns:xlink="http://www.w3.org/1999/xlink">
    <title>collider_light</title>
    <defs>
        <polygon id="path-1" points="0 0 600 0 600 149.371529 0 149.371529"></polygon>
        <polygon id="path-3" points="0 0 36.0877342 0 36.0877342 62.3146093 0 62.3146093"></polygon>
    </defs>
    <g id="Page-1" stroke="none" stroke-width="1" fill="none" fill-rule="evenodd">
        <g id="Desktop-HD-Copy" transform="translate(-30.000000, -30.000000)">
            <g id="collider_light" transform="translate(30.000000, 30.000000)">
                <g id="Group-3">
                    <mask id="mask-2" fill="white">
                        <use xlink:href="#path-1"></use>
                    </mask>
                    <g id="Clip-2"></g>
                    <path d="M299.769664,138.113308 C394.98921,138.113308 490.208302,138.114215 585.427849,138.111042 C589.597091,138.111042 589.05886,138.291017 589.059768,134.430836 C589.071113,94.3144139 589.067029,54.1984457 589.065668,14.0820241 C589.065668,10.9657718 589.061583,10.9596517 586.051851,10.9596517 C395.386302,10.9596517 204.721208,10.9596517 14.0561128,10.9596517 C10.9891992,10.9596517 10.9842071,10.9648651 10.9842071,14.0249034 C10.9832995,54.0656173 10.9773999,94.1063313 10.9923759,134.147045 C10.9937374,138.471446 10.3842575,138.108321 15.0186645,138.108775 C109.935513,138.116114 204.852815,138.113308 299.769664,138.113308 L299.769664,138.113308 Z M600,149.371529 C598.642625,149.328008 597.28525,149.246861 595.927422,149.246861 C398.907943,149.240967 201.888465,149.241421 4.86898641,149.241421 C-4.53819721e-05,149.241421 -4.53819721e-05,149.241421 -4.53819721e-05,144.280532 C-4.53819721e-05,97.3010113 -4.53819721e-05,50.3210372 -4.53819721e-05,3.34151645 C-4.53819721e-05,0.00448805612 -4.53819721e-05,-0.000158444661 3.27517155,-0.000158444661 C201.428746,-0.000158444661 399.581866,-0.000158444661 597.734986,0.00176802211 C598.490142,0.00176802211 599.245298,0.0330484132 600,0.0498219563 L600,149.371529 Z" id="Fill-1" fill="#FFFFFF" mask="url(#mask-2)"></path>
                </g>
                <path d="M175.529209,192.08454 L175.529209,200.951851 C175.529209,213.015202 175.543731,225.078553 175.497895,237.141904 C175.494265,238.025008 175.150269,239.617135 174.794928,239.666549 C173.198391,239.888231 171.53378,239.730923 169.913643,239.53916 C169.709425,239.51468 169.502937,238.480614 169.502029,237.91394 C169.480699,219.140265 169.477069,200.366591 169.51882,181.592463 C169.520182,180.954161 170.083372,179.751453 170.281237,179.77248 C171.460261,179.899241 172.986911,179.945935 173.701677,180.686691 C176.736369,183.834224 179.534168,187.208879 182.405031,190.512361 C192.899158,202.587045 203.389655,214.664903 213.867445,226.753187 C214.1057,227.027457 214.183303,227.440902 214.335787,227.789973 C214.576765,227.659412 214.818651,227.52885 215.060083,227.397835 C215.060083,226.616279 215.060083,225.833816 215.060083,225.051806 C215.05736,211.027764 215.037392,197.004175 215.087766,182.980133 C215.091397,181.965107 215.418147,180.205699 215.920979,180.078764 C217.39317,179.706572 219.06005,179.830787 220.581254,180.121377 C220.942494,180.190738 221.217963,181.670437 221.220232,182.502767 C221.259714,196.074377 221.248823,209.645533 221.248823,223.217143 C221.249276,228.042483 221.291482,232.86873 221.206617,237.692257 C221.191641,238.543175 220.549033,240.133034 220.352529,240.109277 C219.116324,239.958046 217.52977,239.80799 216.781875,238.995607 C212.285883,234.111333 207.980495,229.052069 203.621557,224.042673 C194.606428,213.682517 185.598561,203.315107 176.582524,192.956311 C176.40145,192.748229 176.154572,192.59772 175.529209,192.08454" id="Fill-4" fill="#FFFFFF"></path>
                <path d="M404.143525,197.968201 C404.143525,201.657927 404.183915,205.347653 404.12265,209.036472 C404.099959,210.391503 404.595984,210.900602 405.953358,210.920549 C408.59232,210.959083 411.242627,211.341701 413.862075,211.176232 C415.588859,211.066978 417.538468,210.633586 418.920349,209.674774 C422.716551,207.040421 425.085944,203.343895 425.721292,198.662263 C426.618039,192.043513 423.272027,186.918969 416.700263,185.708101 C413.258494,185.073879 409.652443,185.346789 406.123087,185.157294 C404.481167,185.069346 404.087252,185.869489 404.117204,187.351455 C404.190269,190.889312 404.140802,194.428983 404.143525,197.968201 M422.695676,214.542275 C427.12541,220.005463 431.406291,225.862603 436.344304,231.103202 C438.423252,233.309149 441.762911,234.599805 444.767651,235.580831 C446.957785,236.295747 446.351936,237.513415 446.394595,238.831725 C446.450415,240.558946 445.27593,240.443345 444.087376,240.438358 C438.054296,240.412065 433.287374,237.767738 429.618695,233.187654 C425.706316,228.303833 421.961395,223.283557 418.245066,218.247414 C417.288867,216.951318 416.265504,216.381471 414.664428,216.420458 C412.023197,216.484832 409.366083,216.502059 406.738466,216.275843 C404.544702,216.0868 404.067737,216.961291 404.10132,218.963236 C404.205699,225.141794 404.025078,231.326698 404.194807,237.502988 C404.261518,239.918832 403.060711,240.022193 401.288092,239.932885 C399.667048,239.852191 398.052811,240.359477 398.069025,237.585949 C398.178065,219.194893 398.13949,200.803383 398.101823,182.412326 C398.0991,180.85284 398.443096,180.03003 400.208908,180.04635 C406.006455,180.098937 411.927895,179.288367 417.578404,180.195045 C431.011922,182.350219 436.475004,196.047857 428.753715,207.306984 C427.104534,209.711041 425.005618,211.808187 422.695676,214.542275" id="Fill-6" fill="#FFFFFF"></path>
                <path d="M365.040557,200.16626 C364.780973,207.087387 365.03012,214.073794 364.150163,220.915133 C362.550902,233.347048 353.975071,240.507538 341.407442,240.795861 C335.964782,240.920076 330.651914,240.347963 325.895884,237.480593 C318.698303,233.140326 315.630482,226.187919 315.303278,218.283047 C314.802261,206.165748 315.022363,194.018983 314.898167,181.885818 C314.882587,180.331319 315.489797,179.651764 317.041407,179.783685 C317.56693,179.828112 318.103345,179.833553 318.627053,179.780512 C320.472738,179.591923 321.135769,180.355346 321.122608,182.236249 C321.05272,192.034718 321.066334,201.835001 321.107632,211.633923 C321.119431,214.265556 321.146206,216.919856 321.483394,219.522475 C323.033189,231.489265 330.89017,236.023562 342.091802,235.097844 C352.938093,234.201592 358.486039,227.831273 358.677097,216.316462 C358.86271,205.162963 358.722933,194.00493 358.785106,182.849164 C358.790552,181.890805 359.077366,180.206651 359.513487,180.109183 C361.0061,179.776432 362.643028,179.87798 364.177846,180.115983 C364.488259,180.164943 364.760551,181.532214 364.76645,182.292917 C364.814555,188.247978 364.793226,194.203039 364.793226,200.157647 C364.875821,200.160367 364.957962,200.16354 365.040557,200.16626" id="Fill-8" fill="#FFFFFF"></path>
                <path d="M25.982722,173.90406 C28.1823862,173.90406 29.9554599,173.660163 31.6046407,174.006061 C32.4410305,174.18105 33.3391397,175.297624 33.7244326,176.195688 C39.4316695,189.494841 45.0599416,202.827995 50.7018284,216.155255 C52.5742886,220.578483 54.4326803,225.007605 56.4685156,229.839746 C57.7069896,226.885789 58.7702892,224.335757 59.8440267,221.790712 C65.9964607,207.205889 72.1511637,192.622427 78.305413,178.038965 C80.2205322,173.501041 81.1349789,173.053142 86.3824964,174.239984 C86.1773698,174.870578 86.0239788,175.501626 85.7721088,176.09142 C76.9103711,196.814453 68.0191352,217.524792 59.2082253,238.268678 C58.4993589,239.936965 57.6107799,240.539906 55.8259069,240.459665 C54.1744569,240.384411 53.917595,239.225223 53.4551527,238.149903 C48.0637744,225.616893 42.6823801,213.079803 37.2996244,200.543166 C33.8496869,192.508639 30.3988417,184.474565 26.9552577,176.437771 C26.6670822,175.765016 26.4288268,175.071408 25.982722,173.90406" id="Fill-10" fill="#FFFFFF"></path>
                <path d="M466.75381,209.77673 C466.753356,200.807417 466.749272,191.838105 466.755625,182.868793 C466.757441,179.808755 466.768786,179.792435 469.724968,179.789715 C477.580587,179.780195 485.437568,179.858169 493.291826,179.741661 C495.548671,179.708567 496.075556,180.551778 496.093709,182.642124 C496.112769,184.814071 495.41661,185.523093 493.233737,185.476852 C487.344519,185.352638 481.449854,185.493626 475.559274,185.403865 C473.622372,185.374398 472.868123,185.966912 472.917136,187.982457 C473.03286,192.728463 473.004269,197.479003 472.927574,202.226369 C472.900344,203.944523 473.41906,204.627705 475.249769,204.593705 C480.686076,204.493517 486.128735,204.664426 491.563227,204.513917 C494.002961,204.445916 493.742015,205.886174 493.801466,207.42798 C493.865,209.077228 493.633552,210.115827 491.517391,210.066413 C486.082446,209.938572 480.641147,210.070493 475.203026,209.999319 C473.573813,209.978012 472.910782,210.469432 472.928027,212.175346 C472.995193,218.807696 473.0079,225.441405 472.920766,232.073302 C472.89626,233.957832 473.716766,234.335917 475.375477,234.32005 C481.719877,234.258849 488.067907,234.396211 494.408676,234.245249 C496.741763,234.189488 496.960505,235.286115 496.961416,237.118511 C496.96232,238.940934 496.7817,240.014441 494.427283,239.973641 C486.045686,239.828572 477.658644,239.856679 469.275686,239.960494 C467.240759,239.986334 466.702075,239.298619 466.718866,237.362861 C466.798284,228.167786 466.754264,218.971805 466.75381,209.77673" id="Fill-12" fill="#FFFFFF"></path>
                <path d="M110.650687,209.84269 C110.650687,200.643082 110.692893,191.44302 110.61529,182.244319 C110.59986,180.396509 111.142628,179.735087 113.044133,179.754128 C121.205173,179.834369 129.368482,179.857942 137.52816,179.744459 C139.882123,179.71242 139.782283,181.01169 139.792721,182.621497 C139.803613,184.257144 139.841733,185.525133 137.510008,185.476172 C131.39161,185.346517 125.267767,185.482066 119.147554,185.407718 C117.338175,185.385958 116.585288,185.897324 116.631578,187.835802 C116.746394,192.659329 116.746848,197.488749 116.629762,202.312276 C116.584834,204.168246 117.296423,204.611612 119.004147,204.587131 C124.444084,204.50961 129.888559,204.657852 135.326227,204.517317 C137.756886,204.454303 137.467802,205.893654 137.528614,207.432287 C137.59351,209.081988 137.390653,210.115147 135.272676,210.06528 C129.834555,209.939252 124.390533,210.086133 118.95105,209.991839 C117.159824,209.960559 116.611156,210.552619 116.6343,212.322908 C116.721434,218.881817 116.724611,225.443899 116.632485,232.002808 C116.607525,233.80891 117.219728,234.348383 118.980095,234.32617 C125.327217,234.247289 131.67797,234.392811 138.02237,234.246382 C140.361357,234.192888 140.759357,235.145807 140.727136,237.177672 C140.697184,239.073536 140.418084,240.007414 138.148078,239.970694 C129.837731,239.834692 121.522393,239.841492 113.211592,239.96752 C111.007844,240.000614 110.596683,239.172817 110.614382,237.214846 C110.696069,228.091399 110.650687,218.967045 110.650687,209.84269" id="Fill-14" fill="#FFFFFF"></path>
                <g id="Group-18" transform="translate(518.560145, 178.685391)">
                    <mask id="mask-4" fill="white">
                        <use xlink:href="#path-3"></use>
                    </mask>
                    <g id="Clip-17"></g>
                    <path d="M0,56.8231779 C0.823228974,55.5991626 1.59789924,54.4159478 2.40524452,53.2558533 C3.30743813,51.9593038 4.13656676,52.9543829 4.90125299,53.4204154 C9.98675678,56.5203475 15.4580073,57.4039052 21.243755,56.1631164 C24.9528235,55.3675064 28.0909869,53.7082857 29.2754564,49.7193558 C30.4749019,45.6787453 29.3566901,42.193475 26.3269897,39.4507741 C23.6494533,37.0276771 20.7077939,34.8947171 17.8750512,32.6434356 C14.746418,30.1573245 11.4262729,27.8756693 8.51910381,25.153822 C4.60717781,21.4908428 2.89355454,16.8672384 3.74991236,11.4276237 C4.38299087,7.40696007 6.46239283,4.30430795 10.0371308,2.53356581 C18.5131217,-1.66480669 26.8429827,-0.149747746 35.3371264,3.47560425 C34.8097879,4.70097957 34.3355463,5.62896451 34.0074346,6.6063634 C33.4773732,8.1826231 32.6668512,8.26014407 31.0857433,7.83445875 C27.5414112,6.88154017 23.9008694,6.26046574 20.2762113,5.64120466 C19.2691854,5.46893584 18.1632267,5.68653856 17.1312407,5.87694094 C10.1238103,7.16850376 7.39816909,13.5973041 11.7525693,19.2785485 C13.7756976,21.9178882 16.5984563,23.9905541 19.224711,26.115354 C22.9759848,29.1495519 27.0898606,31.7621446 30.6741288,34.9717847 C37.674298,41.2405564 37.8689866,51.7847683 31.3553122,57.6400948 C30.6305621,58.2910896 29.8232168,58.8749903 28.9822889,59.3695831 C21.2932213,63.8952664 8.05847679,63.1001098 0.971174203,57.7076423 C0.679368123,57.4855062 0.425682898,57.2130495 0,56.8231779" id="Fill-16" fill="#FFFFFF" mask="url(#mask-4)"></path>
                </g>
                <path d="M271.299102,212.776111 C271.298648,220.994241 271.198354,229.214183 271.357645,237.429139 C271.407565,239.987785 270.110094,239.927037 268.293908,239.957411 C266.38968,239.989145 265.256946,239.845436 265.273284,237.372472 C265.379024,221.088082 265.32865,204.802331 265.325019,188.517034 C265.324565,185.53225 265.315035,185.524997 262.34297,185.52001 C257.582855,185.512304 252.820017,185.427076 248.063532,185.555371 C245.881113,185.614758 245.5825,184.565732 245.638774,182.786376 C245.69187,181.109022 245.538026,179.728605 248.019966,179.745227 C261.620035,179.837406 275.221466,179.834233 288.821081,179.749458 C291.326166,179.733591 291.098349,181.185636 291.173683,182.832163 C291.25764,184.651866 290.874616,185.618838 288.720334,185.558997 C283.888061,185.424356 279.046712,185.617932 274.215348,185.473316 C271.994354,185.407129 271.199262,185.978336 271.242375,188.349299 C271.391227,196.489001 271.299556,204.633689 271.299102,212.776111" id="Fill-19" fill="#FFFFFF"></path>
                <path d="M376.996756,74.6668829 C376.996756,81.2960591 377.049399,87.9256887 376.961812,94.5535049 C376.938213,96.3410206 377.544062,96.9348947 379.300798,96.8977209 C382.921826,96.8206533 386.551476,97.0427894 390.167512,96.8999876 C401.357345,96.4593421 407.854681,90.4775339 409.334134,79.4165156 C411.14669,65.8630395 403.491205,54.9185293 390.431635,52.8417834 C386.816961,52.2664962 383.051618,52.6817547 379.362064,52.5054058 C377.432876,52.4129247 376.937759,53.1908544 376.961812,55.0060238 C377.048945,61.5585857 376.996302,68.112961 376.996756,74.6668829 M365.462474,74.4869073 C365.462474,64.6081972 365.507402,54.729487 365.424807,44.8512301 C365.408469,42.8628853 365.917655,42.0446084 368.0556,42.0287415 C374.699974,41.9793276 381.350248,41.4629744 387.986454,41.6220964 C407.959968,42.1017291 421.867273,57.2817856 421.072635,77.2282483 C420.677358,87.1522924 417.734791,95.7258396 409.367263,101.783355 C403.407248,106.097783 396.590876,108.042607 389.361074,108.068447 C382.195714,108.094741 375.029447,107.480467 367.860911,107.20937 C365.884072,107.134569 365.406654,106.219277 365.422158,104.348347 C365.507856,94.3948363 365.462474,84.4408718 365.462474,74.4869073" id="Fill-21" fill="#FFFFFF"></path>
                <path d="M174.783084,74.855472 C174.563889,72.9908886 174.466771,71.1027317 174.106438,69.2658021 C171.047694,53.6709404 152.386627,46.6151722 140.231065,56.5423896 C132.760285,62.6438793 130.735795,70.8221149 132.492531,79.9596158 C133.975614,87.6777123 138.467068,93.279169 145.956455,95.9860562 C160.5041,101.243882 174.58068,90.803938 174.783084,74.855472 M153.197602,41.1432496 C171.825087,41.0948632 186.249747,55.6547519 186.353758,74.6097622 C186.455781,93.4301309 171.948526,108.237996 153.380038,108.26569 C134.748015,108.293757 120.288412,93.6885341 120.23973,74.7924578 C120.191294,55.8891281 134.586456,41.1918777 153.197602,41.1432496" id="Fill-23" fill="#FFFFFF"></path>
                <path d="M516.143918,62.8935331 C516.143918,65.0011061 516.115781,67.1095858 516.149818,69.2167054 C516.213806,73.2378224 515.367886,73.284063 520.175652,73.2505159 C522.304975,73.2355557 524.825489,73.3865176 526.479662,72.3587981 C530.306724,69.9814883 532.38068,66.2210413 532.396187,61.5511963 C532.409271,57.4357848 530.738306,54.621003 526.761484,53.5774166 C523.761282,52.7895134 520.529178,52.8316739 517.391922,52.682072 C517.00436,52.6634851 516.231505,53.7274718 516.206545,54.3145458 C516.081291,57.1696748 516.149818,60.032964 516.143918,62.8935331 M535.48163,79.468967 C539.467075,84.3577748 543.261462,89.2338891 547.307718,93.8924006 C549.670758,96.6124347 552.955051,97.9162376 556.557018,98.1379204 C558.271549,98.2435484 558.767574,99.0083313 558.63052,100.587764 C558.468507,102.464134 558.370028,104.350931 558.360498,106.233648 C558.354144,107.528838 557.952967,108.149912 556.541588,108.15779 C549.382128,108.193433 542.791758,106.65888 537.989892,100.912808 C534.074335,96.2270965 530.328961,91.3877027 526.738793,86.4494809 C525.372796,84.5708441 523.912404,83.8586485 521.662366,83.8640886 C516.143918,83.8785954 516.143918,83.7942744 516.143464,89.4165847 C516.143464,94.6200097 516.091729,99.8243415 516.171601,105.026407 C516.197469,106.729601 515.750456,107.517958 513.888888,107.41097 C511.553985,107.277235 509.20093,107.292648 506.863305,107.406436 C505.130621,107.490757 504.677709,106.781282 504.692231,105.152888 C504.757127,97.763009 504.719007,90.37177 504.719007,82.9814376 C504.719007,70.3872268 504.75985,57.7930159 504.677016,45.1992585 C504.664094,43.2208871 505.190979,42.3210092 507.254497,42.2933555 C513.362911,42.2122078 519.517614,41.4995589 525.567031,42.0263388 C533.478924,42.7158674 539.954477,46.4468474 542.851662,54.3199859 C545.861849,62.5027548 543.835997,69.8844738 538.234047,76.3989553 C537.840585,76.8568276 537.424886,77.2956598 537.02144,77.7449187 C536.620264,78.1914577 536.22181,78.6402633 535.48163,79.468967" id="Fill-25" fill="#FFFFFF"></path>
                <path d="M102.52382,40.1004187 C101.44736,43.4311004 100.391775,46.6965012 99.2535951,50.2175852 C97.2881019,49.7003254 95.5172974,49.0842377 93.6938497,48.7832206 C88.1976391,47.8747293 82.7027899,46.6171669 77.1666431,46.3560436 C66.5445387,45.8560107 58.5759183,51.5472285 54.9058782,61.4930329 C49.8984314,75.0641892 55.8284937,89.5374902 68.7682554,95.1996943 C75.5265387,98.1563713 82.5171776,97.5457237 89.4728725,96.1671198 C92.0442151,95.6571134 94.5747138,94.7758224 97.003557,93.7743965 C98.7711848,93.0454274 99.5835221,93.4244188 100.20707,95.1434803 C100.873732,96.9813166 101.701499,98.769739 102.577371,100.520534 C103.230417,101.825244 102.865092,102.519306 101.661563,103.237848 C96.8860177,106.090257 91.6244318,107.336033 86.1985632,108.032361 C75.1444225,109.450859 64.8989884,107.623903 55.7449908,100.804324 C33.2441552,84.0416615 38.14087,48.99765 61.3142665,38.1297541 C68.4741802,34.7718721 76.0851907,34.287706 83.7166232,35.4659341 C89.5826969,36.3717054 95.3289622,38.0563132 101.123332,39.4172369 C101.542662,39.5156114 101.918878,39.7989483 102.52382,40.1004187" id="Fill-27" fill="#FFFFFF"></path>
                <path d="M445.860812,74.7405958 C445.860812,64.7145505 445.911186,54.6880518 445.819061,44.6629131 C445.800001,42.5653135 446.491168,41.9669061 448.546971,41.9863996 C458.292296,42.0766141 468.038528,42.0856809 477.783399,41.9804704 C479.937228,41.9582926 480.558961,42.7212622 480.420546,44.7254739 C480.286215,46.6761916 480.29983,48.6486696 480.417369,50.601654 C480.525378,52.388263 479.82468,52.9748837 478.067037,52.9535768 C472.023973,52.8819492 465.978187,53.0106975 459.936939,52.8846692 C457.798994,52.8397887 457.177715,53.5945981 457.273471,55.6232902 C457.411886,58.5568468 457.376488,61.5035503 457.28527,64.4407337 C457.233535,66.1189947 457.874328,66.6820418 459.533493,66.6593748 C464.820947,66.5877472 470.112031,66.7282823 475.397215,66.591374 C477.622293,66.5333466 478.347497,67.3130896 478.176407,69.4560231 C478.020747,71.4040208 478.059322,73.3783121 478.165515,75.3322032 C478.258549,77.0499047 477.526537,77.5231906 475.900955,77.5018837 C470.46238,77.4302561 465.021989,77.5227373 459.583413,77.4483897 C457.987329,77.4266294 457.248057,77.8042608 457.279824,79.5677495 C457.368773,84.4660775 457.366958,89.3680321 457.280278,94.26636 C457.249418,96.002195 457.935594,96.4278803 459.560268,96.4092934 C465.980456,96.3363059 472.403366,96.4337738 478.824008,96.347186 C480.640648,96.3227057 481.443455,96.8014317 481.323647,98.7403626 C481.183417,100.993457 481.24559,103.262419 481.30141,105.522314 C481.334539,106.872358 480.801754,107.394604 479.438026,107.390524 C468.861757,107.360604 458.284581,107.347457 447.707859,107.397376 C445.670208,107.406844 445.86172,106.109388 445.86172,104.818732 C445.860359,94.7926866 445.860812,84.7666412 445.860812,74.7405958" id="Fill-29" fill="#FFFFFF"></path>
                <path d="M211.025943,74.4747125 C211.025943,64.6807767 211.022313,54.8863876 211.028213,45.0924518 C211.030028,42.0333202 211.042281,42.0319602 214.189067,42.0265201 C216.151837,42.0233468 218.124592,42.1448416 220.075562,41.9943331 C222.105498,41.8374778 222.665058,42.6494079 222.64872,44.5878855 C222.571571,53.7036261 222.615138,62.8198201 222.615591,71.9360141 C222.616045,79.2442922 222.67368,86.5525702 222.579286,93.8594882 C222.553418,95.8351396 223.171974,96.4516806 225.166512,96.4222136 C232.413559,96.3143189 239.663329,96.4317337 246.91083,96.345146 C248.758784,96.3233857 249.51031,96.8614991 249.401393,98.7664296 C249.272962,101.019524 249.337404,103.285313 249.375071,105.545208 C249.397309,106.888451 248.827765,107.396644 247.474474,107.393017 C235.997827,107.363097 224.52118,107.345417 213.044987,107.408965 C211.146659,107.419311 211.014144,106.418339 211.017267,104.987601 C211.038197,95.8714067 211.026851,86.7552127 211.025943,77.6390188 C211.025943,76.5840989 211.025943,75.5296324 211.025943,74.4747125" id="Fill-31" fill="#FFFFFF"></path>
                <path d="M268.397787,74.6918619 C268.39688,64.8956594 268.395194,55.0990036 268.397787,45.3028011 C268.398695,42.0315069 268.404141,42.0301469 271.782829,42.0265201 C273.671172,42.0242534 275.566324,42.1303348 277.445137,41.9988665 C279.379317,41.8633181 279.883964,42.6838617 279.866265,44.4967644 C279.791839,52.0317119 279.835859,59.5675661 279.836313,67.1034204 C279.836767,75.9952115 279.897125,84.8879094 279.792293,93.7787939 C279.767786,95.8813802 280.443978,96.4544007 282.495243,96.4231203 C289.743652,96.3125056 296.995237,96.422667 304.244099,96.350586 C305.972245,96.3338125 306.720594,96.8129918 306.621207,98.6408547 C306.494138,100.97011 306.557218,103.311606 306.59307,105.647209 C306.612584,106.895705 306.078439,107.387577 304.831342,107.385311 C293.277092,107.364004 281.722388,107.351764 270.167684,107.39259 C268.293409,107.398911 268.395194,106.229296 268.396426,104.984881 C268.40051,94.8872078 268.398695,84.7895348 268.397787,74.6918619" id="Fill-33" fill="#FFFFFF"></path>
                <path d="M337.03094,74.7664815 C337.03094,84.7866335 336.985558,94.8067854 337.070423,104.825577 C337.08676,106.768135 336.581659,107.561025 334.536747,107.41641 C332.283079,107.256834 330.005357,107.293555 327.745789,107.405983 C326.020366,107.491664 325.556109,106.789895 325.571085,105.158328 C325.637796,98.0019187 325.598768,90.8446025 325.598314,83.6872864 C325.598314,70.7294977 325.643242,57.7712557 325.554294,44.8139203 C325.539317,42.680507 326.078909,41.8060161 328.320779,41.9882583 C330.495936,42.1650605 332.703316,42.1360468 334.883919,41.9968718 C336.865296,41.8708435 337.056808,42.9117099 337.050455,44.4807162 C337.01188,54.5761224 337.030487,64.6710753 337.03094,74.7664815" id="Fill-35" fill="#FFFFFF"></path>
            </g>
        </g>
    </g>
</svg>