<?xml version="1.0" encoding="UTF-8"?>
<svg width="107px" height="34px" viewBox="0 0 107 34" version="1.1" xmlns="http://www.w3.org/2000/svg" xmlns:xlink="http://www.w3.org/1999/xlink">
    <title>0A6D629E-79D8-4253-831B-ABB5E27976D4</title>
    <defs>
        <linearGradient x1="50%" y1="0%" x2="50%" y2="100%" id="linearGradient-1">
            <stop stop-color="#006EF5" offset="0%"></stop>
            <stop stop-color="#0062DB" offset="100%"></stop>
        </linearGradient>
        <polygon id="path-2" points="0 0 17.8544909 0 17.8544909 20.4 0 20.4"></polygon>
        <polygon id="path-4" points="0 0 8.21519688 0 8.21519688 20.2079944 0 20.2079944"></polygon>
    </defs>
    <g id="New-Site" stroke="none" stroke-width="1" fill="none" fill-rule="evenodd">
        <g id="Assets_Dark" transform="translate(-30.000000, -18.000000)">
            <g id="img_logo_ichi_white" transform="translate(30.000000, 18.000000)">
                <path d="M12.4581984,15.1544041 L12.4581984,8.0109059 C14.8028101,8.42689605 17.429142,8.68225634 20.3813691,8.68225634 C23.3335962,8.68225634 25.9590946,8.42689605 28.3045399,8.0109059 L28.3045399,15.1544041 L12.4581984,15.1544041 Z M20.3813691,25.3169199 C17.429142,25.3169199 14.8028101,25.5722802 12.4581984,25.9890941 L12.4581984,18.8447722 L28.3045399,18.8447722 L28.3045399,25.9890941 C25.9590946,25.5722802 23.3335962,25.3169199 20.3813691,25.3169199 L20.3813691,25.3169199 Z M33.6655576,6.63525531 C33.6980638,6.6237229 33.7297365,6.61136676 33.7622426,6.59983436 C36.1276917,5.77773897 38.0622256,4.80160367 39.6016845,3.83617702 C40.3326566,3.37817599 40.7619048,2.57173171 40.7619048,1.71668661 C40.7619048,0.332798586 39.2007751,-0.475293172 38.0438888,0.303967586 C36.2918895,1.48439112 33.8164196,2.74801269 30.4624495,3.64753991 C30.3607636,3.67472342 30.2640786,3.70437816 30.1615591,3.73073794 C29.6973043,3.85018065 29.2130457,3.9605622 28.7154512,4.0643538 C28.5645893,4.09647977 28.4095598,4.12531077 28.2561974,4.15496552 C27.8436191,4.23651606 27.4193719,4.31065292 26.9842893,4.37984732 C26.8517641,4.40044089 26.7225729,4.42350569 26.5875473,4.44327552 C26.0216065,4.52564981 25.4381624,4.59896292 24.833881,4.6599199 C24.7296946,4.66980481 24.6213407,4.6772185 24.5154873,4.68710341 C23.9928881,4.73570424 23.4544525,4.77442016 22.9026811,4.80489864 C22.7468182,4.81313607 22.5909553,4.82219724 22.4325919,4.82878719 C21.7674656,4.85761819 21.08817,4.87738801 20.3813691,4.87738801 C19.6762353,4.87738801 18.9994401,4.85761819 18.3368143,4.82878719 C18.1709495,4.82219724 18.0092521,4.81313607 17.8475548,4.8040749 C17.3166207,4.77442016 16.7990224,4.73735173 16.2955935,4.69039838 C16.1664023,4.67886598 16.0347106,4.66980481 15.9080199,4.65744867 C15.3237423,4.59813918 14.7611355,4.52729729 14.2126981,4.44739424 C14.0318304,4.42103446 13.8584642,4.39137972 13.6809305,4.36254872 C13.3133607,4.30323923 12.9541258,4.23981103 12.6032259,4.17226412 C12.3923525,4.13190072 12.1806457,4.09153731 11.9756067,4.04787894 C11.6197058,3.9720946 11.2746403,3.8913678 10.9362428,3.80816977 C10.6228499,3.73073794 10.319459,3.65001113 10.0202355,3.5668131 C6.814627,2.67469957 4.43084114,1.45144141 2.72718439,0.307262557 C1.56613064,-0.473645686 0,0.330327358 0,1.7183341 C0,2.57255546 0.428414662,3.37735224 1.15771978,3.83535328 C2.69551171,4.79913244 4.62587816,5.77362026 6.98632626,6.5948919 C7.02550036,6.60889553 7.06300748,6.6237229 7.10384857,6.63772653 C7.57643828,6.80000388 8.07069878,6.95322005 8.57579467,7.10314126 L8.57579467,15.1544041 L6.86046903,15.1544041 C6.09699076,15.1544041 5.47770654,15.766445 5.47770654,16.5209935 C5.47770654,17.8043849 6.53123987,18.8447722 7.82898623,18.8447722 L8.57579467,18.8447722 L8.57579467,26.896035 C8.07069878,27.0459562 7.57643828,27.1999961 7.10384857,27.3614497 C7.06300748,27.3754534 7.02550036,27.3902807 6.98632626,27.4051081 C4.62587816,28.2263797 2.69551171,29.2000438 1.15771978,30.1646467 C0.428414662,30.621824 0,31.4266208 0,32.2816659 C0,33.6688489 1.56613064,34.4728219 2.72718439,33.6927374 C4.43084114,32.5477348 6.814627,31.3253004 10.0202355,30.4323632 C10.319459,30.3491651 10.6228499,30.2684383 10.9362428,30.1910065 C11.2746403,30.1078085 11.6197058,30.0270817 11.9756067,29.9512973 C12.1806457,29.9076389 12.3923525,29.8672755 12.6032259,29.8269121 C12.9541258,29.7593652 13.3133607,29.695937 13.6809305,29.6374513 C13.8584642,29.6086203 14.0318304,29.5781418 14.2126981,29.551782 C14.7611355,29.471879 15.3237423,29.4010371 15.9080199,29.3425513 C16.0347106,29.3293714 16.1664023,29.3203103 16.2955935,29.3087779 C16.7990224,29.2626483 17.3166207,29.2247561 17.8475548,29.1951014 C18.0092521,29.1868639 18.1709495,29.1778028 18.3368143,29.1703891 C18.9994401,29.1415581 19.6762353,29.1217882 20.3813691,29.1217882 C21.08817,29.1217882 21.7674656,29.1415581 22.4325919,29.1703891 C22.5909553,29.176979 22.7468182,29.1860402 22.9026811,29.1942776 C23.4544525,29.2247561 23.9928881,29.263472 24.5154873,29.3120728 C24.6213407,29.3219578 24.7296946,29.3293714 24.833881,29.3392564 C25.4381624,29.4002133 26.0216065,29.4735264 26.5875473,29.5567245 C26.7225729,29.5764943 26.8517641,29.5987354 26.9842893,29.6201527 C27.4193719,29.6885233 27.8436191,29.7634839 28.2561974,29.8442107 C28.4095598,29.8738655 28.5645893,29.9035202 28.7154512,29.9348225 C29.2130457,30.0386141 29.6973043,30.1489956 30.1615591,30.2684383 C30.2640786,30.2947981 30.3607636,30.3252766 30.4624495,30.3516364 C33.8164196,31.2519873 36.2918895,32.5156089 38.0438888,33.6960324 C39.2007751,34.4752932 40.7619048,33.6672014 40.7619048,32.2833134 C40.7619048,31.4274445 40.3326566,30.6210003 39.6016845,30.1629992 C38.0622256,29.1975726 36.1276917,28.2214373 33.7622426,27.3993419 C33.7297365,27.3878095 33.6980638,27.3754534 33.6655576,27.3647447 C33.1913009,27.2016436 32.6945399,27.0467799 32.1861101,26.896035 L32.1861101,18.8447722 L33.9014357,18.8447722 C34.664914,18.8447722 35.2841982,18.2327312 35.2841982,17.4781827 C35.2841982,16.1947913 34.2314984,15.1544041 32.932085,15.1544041 L32.1861101,15.1544041 L32.1861101,7.10314126 C32.6945399,6.95322005 33.1913009,6.79835639 33.6655576,6.63525531 L33.6655576,6.63525531 Z" id="Fill-4" fill="url(#linearGradient-1)"></path>
                <g id="Group-11" transform="translate(53.330159, 7.480000)">
                    <path d="M7.42215774,0.133985124 L0.793277036,0.133985124 C0.363116724,0.133985124 0,0.498294474 0,0.92965063 L0,2.40446341 C0,2.83581956 0.362900454,3.20012891 0.781165936,3.19991193 C0.781382206,3.19991193 2.41313663,3.24439282 2.41313663,3.24439282 L2.41313663,17.2259304 L0.793277036,17.2480623 C0.363116724,17.2480623 0,17.6123717 0,18.0437278 L0,19.5463141 C0,19.9440383 0.307751696,20.2768856 0.731856458,20.3378569 L0.762350477,20.3421965 L7.4530843,20.3421965 L7.48336205,20.3378569 C7.90746681,20.2768856 8.21521851,19.9440383 8.21521851,19.5463141 L8.21521851,18.0437278 C8.21521851,17.6123717 7.85188551,17.2480623 7.42799702,17.2480623 L5.80229814,17.2259304 L5.80229814,3.24417584 L7.42215774,3.20012891 C7.85188551,3.20012891 8.21521851,2.83581956 8.21521851,2.40446341 L8.21521851,0.92965063 C8.21521851,0.498294474 7.85188551,0.133985124 7.42215774,0.133985124" id="Fill-1" fill="#FFFFFF"></path>
                    <g id="Group-5" transform="translate(8.730606, 0.000000)">
                        <mask id="mask-3" fill="white">
                            <use xlink:href="#path-2"></use>
                        </mask>
                        <g id="Clip-4"></g>
                        <path d="M16.4111075,15.037579 C16.2419847,14.8676837 16.0092785,14.7704767 15.7724633,14.7704767 C15.5587889,14.7704767 15.3589557,14.8490234 15.2071345,14.9922302 C13.8883222,16.0756111 12.2922523,16.6480043 10.5902102,16.6480043 C7.28604266,16.6480043 3.82443082,14.3046207 3.75133168,10.3816231 C3.71024045,8.46221836 4.31882321,6.80145377 5.511334,5.57942264 C6.68092021,4.38039139 8.30272623,3.7199044 10.0776512,3.7199044 C11.8367884,3.7199044 13.558511,4.36324998 15.0470949,5.57247928 C15.2077833,5.71047854 15.4106442,5.7866385 15.6184793,5.7866385 C15.8762727,5.7866385 16.1228201,5.67120516 16.2822108,5.48395146 L17.4931045,4.18597735 C17.8508145,3.82644156 17.8387034,3.25144467 17.451797,2.86391847 C15.4458961,1.01698506 12.8820196,0 10.2325002,0 C7.43786394,0 4.73730496,1.11853168 2.8237512,3.06874755 C0.933122012,4.99531259 -0.0426865993,7.52009139 0.00143240703,10.3675194 C0.0622041756,16.6473533 5.35929644,20.4000217 10.4455258,20.4000217 C13.1028309,20.4000217 15.6321043,19.3886781 17.5763683,17.5432636 C17.9358085,17.1822089 17.9477033,16.607429 17.6070786,16.2654686 L16.4111075,15.037579 Z" id="Fill-3" fill="#FFFFFF" mask="url(#mask-3)"></path>
                    </g>
                    <path d="M42.0320692,0.0504912362 L40.3401918,0.0504912362 C39.8804026,0.0504912362 39.4930637,0.419791125 39.43878,0.90973187 L39.436401,0.931429866 L39.3572463,9.00959371 L32.3920663,8.98464101 L32.3129116,0.931429866 L32.3105327,0.90973187 C32.256249,0.419791125 31.8686938,0.0504912362 31.4089046,0.0504912362 L29.7172434,0.0504912362 C29.2338808,0.0504912362 28.8407026,0.457328658 28.8407026,0.957467461 L28.8407026,19.4908106 C28.8407026,19.9994116 29.2256625,20.3977868 29.7172434,20.3977868 L31.4089046,20.3977868 C31.88167,20.3977868 32.2610069,20.0345624 32.3109652,19.5337726 L32.3129116,19.5148954 L32.3914175,12.4111885 L39.3578951,12.4111885 L39.436401,19.5148954 L39.4383474,19.5337726 C39.4880895,20.0345624 39.8674264,20.3977868 40.3401918,20.3977868 L42.0320692,20.3977868 C42.5234338,20.3977868 42.9083938,19.9994116 42.9083938,19.4908106 L42.9083938,0.957467461 C42.9083938,0.457328658 42.5152156,0.0504912362 42.0320692,0.0504912362" id="Fill-6" fill="#FFFFFF"></path>
                    <g id="Group-10" transform="translate(45.454644, 0.134072)">
                        <mask id="mask-5" fill="white">
                            <use xlink:href="#path-4"></use>
                        </mask>
                        <g id="Clip-9"></g>
                        <path d="M7.42215774,3.06614379 C7.85188551,3.06614379 8.21521851,2.70183444 8.21521851,2.27047828 L8.21521851,0.795665506 C8.21521851,0.36430935 7.85188551,0 7.42215774,0 L0.793277036,0 C0.363116724,0 0,0.36430935 0,0.795665506 L0,2.27047828 C0,2.70161746 0.362900454,3.06614379 0.781165936,3.06592681 C0.781382206,3.06592681 2.41313663,3.1104077 2.41313663,3.1104077 L2.41313663,17.0919453 L0.793277036,17.1138602 C0.363116724,17.1138602 0,17.4783866 0,17.9097427 L0,19.4123289 C0,19.8100532 0.307751696,20.1429004 0.731856458,20.2036548 L0.762350477,20.2079944 L7.4530843,20.2079944 L7.48336205,20.2036548 C7.90746681,20.1429004 8.21521851,19.8100532 8.21521851,19.4123289 L8.21521851,17.9097427 C8.21521851,17.4783866 7.85188551,17.1138602 7.42799702,17.1138602 L5.80208187,17.0919453 L5.80208187,3.11019072 L7.42215774,3.06614379 Z" id="Fill-8" fill="#FFFFFF" mask="url(#mask-5)"></path>
                    </g>
                </g>
            </g>
        </g>
    </g>
</svg>