<?xml version="1.0" encoding="UTF-8"?>
<svg width="1000px" height="1000px" viewBox="0 0 1000 1000" version="1.1" xmlns="http://www.w3.org/2000/svg" xmlns:xlink="http://www.w3.org/1999/xlink">
    <title>ichi_logo_horizontal_light</title>
    <defs>
        <polygon id="path-1" points="0.0382019199 0.925490196 211.994327 0.925490196 211.994327 36.714902 0.0382019199 36.714902"></polygon>
    </defs>
    <g id="ichi_logo_horizontal_light" stroke="none" stroke-width="1" fill="none" fill-rule="evenodd">
        <g id="Group-Copy-3" transform="translate(50.000000, 326.000000)">
            <path d="M500.957961,258.026769 L502.972053,222.631158 L488.873407,222.631158 L488.873407,121.772698 L499.950914,121.772698 L504.986145,85.2352941 L436.381126,85.2352941 L432.730583,121.772698 L466.59251,121.772698 L450.731534,130.780184 L450.479772,222.504292 L435.751722,222.377426 L432.352941,258.026769 L500.957961,258.026769 Z M601.221994,259.295429 C614.607315,259.126274 625.370121,256.906119 633.510411,252.634964 C641.650701,248.363809 652.266646,239.842644 665.358246,227.071468 L665.358246,227.071468 L642.825588,198.780353 C632.755126,212.989343 621.803499,220.68588 609.970707,221.869962 C598.137915,223.054045 588.843718,221.721952 582.088117,217.873684 C575.332515,214.025415 569.080437,207.55525 563.331882,198.463188 C557.583327,189.371125 554.939831,179.665877 555.401393,169.347444 C555.862956,159.02901 560.709366,143.805092 569.940622,123.675688 L569.940622,123.675688 L614.754176,123.675688 C625.747763,122.829915 631.412398,126.847338 631.74808,135.727957 L631.74808,135.727957 L665.106484,135.727957 C663.763756,107.648285 651.930964,90.9442635 629.608107,85.6158921 L629.608107,85.6158921 L534.568126,85.6158921 L529.029372,100.078615 L526.134114,111.623419 L524.120022,123.675688 L554.079645,123.675688 L529.029372,134.966761 C525.169029,140.295133 522.735334,152.347401 521.728288,171.123567 C520.721241,189.899734 524.833347,206.6249 534.064603,221.299065 C543.295859,235.973231 553.450241,246.016789 564.527749,251.429737 C575.605257,256.842686 587.836672,259.464583 601.221994,259.295429 Z M677.820442,261.705882 L715.584673,255.235717 L715.584673,164.526536 L725.655134,180.638517 L771.853377,180.765383 L771.853377,251.377048 L808.988204,247.245825 L808.988204,180.638517 L818.555142,180.638517 L815.534004,145.75037 L808.988204,145.75037 L808.988204,85.99649 L770.972211,86.250222 L770.972211,144.227978 L715.584673,144.608576 L715.584673,85.7427581 L677.56868,85.7427581 L677.820442,261.705882 Z M895.971815,258.026769 L897.985908,222.631158 L883.887261,222.631158 L883.887261,121.772698 L894.964769,121.772698 L900,85.2352941 L831.394981,85.2352941 L827.744438,121.772698 L861.606365,121.772698 L845.745388,130.780184 L845.493627,222.504292 L830.765577,222.377426 L827.366796,258.026769 L895.971815,258.026769 Z" id="ICHI" fill="#FFFFFF" fill-rule="nonzero"></path>
            <g id="Group-23">
                <path d="M252.675294,78.3129412 C252.675294,75.9011765 250.534118,74.0580392 248.149804,74.4423529 C236.894902,76.2384314 205.918431,80.5913725 170.012549,80.5913725 C133.600784,80.5913725 102.636078,76.1756863 91.3733333,74.3482353 C88.9890196,73.9639216 86.84,75.7992157 86.84,78.2227451 L86.84,83.6815686 C86.84,85.6501961 88.2752941,87.3090196 90.2243137,87.5639216 C92.6831373,87.8894118 96.3929412,88.36 101.071373,88.8854902 L101.071373,114.179608 C101.071373,116.344314 102.824314,118.101176 104.992941,118.101176 L120.753725,118.101176 C122.922353,118.101176 124.675294,116.344314 124.675294,114.179608 L124.675294,91.1521569 C138.185098,92.2266667 154.036078,93.0933333 170.04,93.0933333 C185.953725,93.0933333 201.553725,92.1560784 214.84,90.987451 L214.84,114.179608 C214.84,116.344314 216.592941,118.101176 218.761569,118.101176 L234.522353,118.101176 C236.69098,118.101176 238.443922,116.344314 238.443922,114.179608 L238.443922,88.4580392 C243.169412,87.8580392 246.898824,87.3247059 249.353725,86.96 C251.275294,86.6737255 252.675294,85.0266667 252.675294,83.0854902 L252.675294,78.3129412 Z" id="Fill-1" fill="#FFFFFF"></path>
                <g id="Group-5" transform="translate(63.745098, -0.003529)">
                    <mask id="mask-2" fill="white">
                        <use xlink:href="#path-1"></use>
                    </mask>
                    <g id="Clip-4"></g>
                    <path d="M106.466275,36.714902 C158.266275,36.714902 197.638824,27.2756863 207.995686,24.5305882 C209.615294,24.0992157 210.752549,22.6913725 210.870196,21.0207843 L211.983922,5.17372549 C212.183922,2.36588235 209.466275,0.28745098 206.799608,1.18941176 C195.070196,5.16980392 164.136863,13.2482353 106.258431,13.2482353 C48.8035294,13.2482353 17.2466667,5.1227451 5.20745098,1.13058824 C2.49764706,0.23254902 -0.223921569,2.40117647 0.0584313725,5.24039216 L1.69372549,21.5305882 C1.85843137,23.1698039 3.00352941,24.5266667 4.59568627,24.9305882 C14.9094118,27.5580392 54.5682353,36.714902 106.466275,36.714902" id="Fill-3" fill="#0072FF" mask="url(#mask-2)"></path>
                </g>
                <path d="M256.213725,61.7 L265.1,43.3196078 C266.531373,40.3627451 263.935294,37.0568627 260.727451,37.7823529 C246.668627,40.9745098 214.786275,46.8294118 170.209804,46.8294118 C125.64902,46.8294118 93.127451,41.0294118 78.7823529,37.8882353 C75.5509804,37.1784314 72.9784314,40.5431373 74.472549,43.4921569 L83.7078431,61.7039216 L84.245098,61.8686275 C85.327451,62.1980392 111.386275,69.927451 170.013725,69.927451 C228.672549,69.927451 254.578431,62.1980392 255.652941,61.8686275 L256.213725,61.7 Z" id="Fill-6" fill="#004CAB"></path>
                <path d="M94.4223529,148.453333 L245.08902,148.453333 C247.257647,148.453333 249.010588,146.700392 249.010588,144.531765 L249.010588,128.767059 C249.010588,126.602353 247.257647,124.84549 245.08902,124.84549 L94.4223529,124.84549 C92.2576471,124.84549 90.5007843,126.602353 90.5007843,128.767059 L90.5007843,144.531765 C90.5007843,146.700392 92.2576471,148.453333 94.4223529,148.453333" id="Fill-8" fill="#FFFFFF"></path>
                <path d="M14.1411765,201.061176 C11.3764706,201.061176 8.63137255,201.139608 5.89803922,201.280784 C3.58823529,201.402353 1.8627451,203.559216 2.23529412,205.841569 C3,210.500392 3.95294118,215.096471 5.08627451,219.618039 C5.47843137,221.163137 6.78431373,222.288627 8.35686275,222.52 C75.7215686,232.382745 130.882353,280.32 151.223529,343.708235 C151.705882,345.214118 153.023529,346.304314 154.596078,346.433725 C159.470588,346.837647 164.396078,347.037647 169.380392,347.014118 C170.952941,345.241569 171.678431,344.421961 173.25098,342.64549 C164.003922,263.053333 96.1803922,201.061176 14.1411765,201.061176" id="Fill-10" fill="#0072FF"></path>
                <g id="Group-14" transform="translate(0.000000, 154.859216)" fill="#FFFFFF">
                    <path d="M124.676863,30.6690196 L124.676863,4.26509804 C124.676863,2.09647059 122.923922,0.343529412 120.755294,0.343529412 L104.990588,0.343529412 C102.825882,0.343529412 101.06902,2.09647059 101.06902,4.26509804 L101.06902,19.6337255 C83.8023529,13.2533333 65.147451,9.75921569 45.692549,9.75921569 C30.8886275,9.75921569 16.5513725,11.7905882 2.93176471,15.5631373 C1.27686275,16.0258824 0.108235294,17.5278431 0.0611764706,19.2454902 C0.0219607843,20.6690196 -0.00156862745,22.0964706 -0.00156862745,23.5317647 C-0.00156862745,24.2847059 0.0062745098,25.0376471 0.0180392157,25.7905882 C0.057254902,28.0298039 1.93568627,29.7552941 4.17098039,29.6258824 C7.47294118,29.4415686 10.7984314,29.3396078 14.1396078,29.3396078 C105.112157,29.3396078 180.265098,98.3043137 190.100392,186.692549 C190.343529,188.900392 192.335686,190.516078 194.531765,190.174902 C197.037647,189.782745 199.527843,189.339608 201.99451,188.84549 C203.680784,188.504314 204.97098,187.084706 205.135686,185.367059 C205.625882,180.292549 205.888627,175.155294 205.888627,169.955294 C205.888627,110.327843 173.123922,58.2494118 124.676863,30.6690196" id="Fill-12"></path>
                </g>
                <path d="M246.915686,327.742745 C276.084314,312.425098 300.229412,288.82902 316.190196,260.056471 C318.041176,256.723137 314.405882,252.911373 310.998039,254.62902 C281.476471,269.534902 257.178431,293.307451 241.605882,322.42902 C239.809804,325.793725 243.535294,329.519216 246.915686,327.742745" id="Fill-15" fill="#0072FF"></path>
                <path d="M216.366275,277.639216 C219.111373,287.568627 221.013333,297.847059 221.985882,308.392157 C222.33098,312.160784 227.366275,313.211765 229.244706,309.929412 C250.80549,272.317647 285.758431,243.333333 327.570196,229.529412 C328.789804,229.129412 329.75451,228.172549 330.127059,226.941176 C332.076078,220.447059 333.644706,213.788235 334.80549,206.984314 C335.244706,204.419608 333.021176,202.101961 330.440784,202.439216 C282.856471,208.686275 241.797647,235.898039 216.836863,274.466667 C216.22902,275.407843 216.068235,276.560784 216.366275,277.639216" id="Fill-17" fill="#0072FF"></path>
                <path d="M336.992941,168.907451 C336.887059,166.970196 335.341961,165.381961 333.408627,165.217255 C328.934118,164.82902 324.416471,164.617255 319.847843,164.617255 C290.134118,164.617255 262.31451,172.789804 238.443922,186.950588 L238.443922,159.123137 C238.443922,156.95451 236.69098,155.201569 234.522353,155.201569 L218.761569,155.201569 C216.592941,155.201569 214.84,156.95451 214.84,159.123137 L214.84,204.040784 C207.608627,210.334902 200.91451,217.22902 194.906667,224.703529 C193.843922,226.017255 193.785098,227.864314 194.698824,229.283922 C199.004706,235.978039 202.875294,242.974118 206.263529,250.236863 C207.498824,252.88 211.055686,253.417255 212.871373,251.134902 C241.867451,214.734902 284.875294,189.981961 333.655686,185.103529 C335.628235,184.907451 337.18902,183.307451 337.228235,181.323137 C337.243922,180.346667 337.251765,179.370196 337.251765,178.389804 C337.251765,175.20549 337.16549,172.048627 336.992941,168.907451" id="Fill-19" fill="#FFFFFF"></path>
                <path d="M14.6431373,247.22 C35.3019608,293.361176 76.0901961,328.510196 125.835294,341.525882 C129.003922,342.357255 131.756863,339.192549 130.494118,336.16902 C110.890196,289.223922 69.5647059,253.533725 19.145098,241.721961 C15.9372549,240.96902 13.2941176,244.212157 14.6431373,247.22" id="Fill-21" fill="#0072FF"></path>
            </g>
        </g>
    </g>
</svg>