<?xml version="1.0" encoding="UTF-8"?>
<svg width="353px" height="309px" viewBox="0 0 353 309" version="1.1" xmlns="http://www.w3.org/2000/svg" xmlns:xlink="http://www.w3.org/1999/xlink">
    <title>accomplice</title>
    <defs>
        <polygon id="path-1" points="1.42108547e-14 0 352.2465 0 352.2465 308.738891 1.42108547e-14 308.738891"></polygon>
    </defs>
    <g id="Page-1" stroke="none" stroke-width="1" fill="none" fill-rule="evenodd">
        <g id="Desktop-HD" transform="translate(-57.000000, -410.000000)">
            <g id="accomplice" transform="translate(57.000000, 410.000000)">
                <mask id="mask-2" fill="white">
                    <use xlink:href="#path-1"></use>
                </mask>
                <g id="Clip-2"></g>
                <path d="M72.193,172.930891 C66.196,172.930891 60.197,172.847891 54.202,172.956891 C49.499,173.042891 47.345,175.320891 47.87,179.841891 C49.707,195.689891 54.08,210.803891 61.588,224.921891 C64.349,230.114891 68.876,230.120891 71.763,224.909891 C79.742,210.504891 87.616,196.042891 95.425,181.545891 C98.096,176.586891 95.924,173.081891 90.183,172.958891 C84.189,172.829891 78.19,172.929891 72.193,172.930891 M162.275,159.086891 C171.924,159.086891 181.575,159.164891 191.223,159.054891 C196.29,158.996891 198.591,155.550891 196.449,151.099891 C187.373,132.245891 178.237,113.419891 168.895,94.6968907 C168.021,92.9448907 165.562,90.9748907 163.813,90.9506667 C162.069,90.9268907 159.598,92.8358907 158.638,94.5608907 C148.38,112.996891 138.32,131.542891 128.296,150.106891 C125.325,155.607891 127.492,159.037891 133.825,159.074891 C143.308,159.128891 152.792,159.088891 162.275,159.086891 M281.655,159.086891 C286.982,159.086891 292.31,159.030891 297.636,159.105891 C302.116,159.167891 304.102,156.945891 303.745,152.616891 C303.499,149.637891 303.199,146.638891 302.595,143.716891 C292.527,94.9518907 264.033,61.9138907 217.457,44.5368907 C215.435,43.7828907 211.914,44.4008907 210.401,45.7978907 C209.251,46.8588907 209.465,50.4898907 210.315,52.4348907 C213.839,60.4998907 217.828,68.3618907 221.656,76.2928907 C234.08,102.032891 246.578,127.738891 258.868,153.542891 C260.874,157.754891 263.519,159.532891 268.176,159.164891 C272.643,158.812891 277.16,159.088891 281.655,159.086891 M90.32,261.583891 C104.566,273.974891 120.053,283.256891 137.687,288.528891 C176.507,300.133891 213.024,294.849891 247.118,272.987891 C252.539,269.510891 253.197,266.623891 250.33,260.767891 C238.848,237.307891 227.349,213.856891 215.867,190.396891 C215.294,189.225891 214.819,188.006891 214.093,186.337891 C215.681,186.173891 216.902,185.939891 218.123,185.938891 C235.454,185.913891 252.787,186.032891 270.116,185.826891 C273.53,185.786891 275.134,186.993891 276.495,189.921891 C280.419,198.369891 284.575,206.711891 288.772,215.029891 C289.38,216.233891 290.646,217.758891 291.732,217.864891 C292.632,217.951891 294.318,216.331891 294.627,215.190891 C297.781,203.513891 301.045,191.847891 303.581,180.029891 C304.696,174.835891 302.533,172.952891 297.256,172.949891 C239.429,172.913891 181.602,172.939891 123.776,172.909891 C117.82,172.906891 114.444,176.182891 111.779,181.102891 C91.488,218.559891 71.102,255.964891 50.725,293.374891 C46.291,301.514891 39.966,303.715891 31.703,299.740891 C34.099,295.252891 36.467,290.759891 38.889,286.296891 C44.842,275.326891 50.74,264.326891 56.83,253.434891 C58.941,249.659891 58.87,246.382891 56.513,242.733891 C44.006,223.370891 36.673,202.183891 34.59,179.211891 C34.213,175.051891 32.285,172.814891 27.899,172.906891 C23.235,173.004891 18.565,173.020891 13.901,172.900891 C5.695,172.689891 0.839,167.982891 1.42108547e-14,159.088891 C8.818,159.088891 17.594,159.097891 26.371,159.085891 C32.862,159.076891 33.841,157.872891 34.69,151.349891 C41.582,98.3428907 69.163,60.1548907 117.146,36.6668907 C117.723,36.3848907 118.381,36.2658907 118.98,36.0768907 C122.529,43.3128907 120.378,49.8718907 112.931,54.1908907 C94.591,64.8288907 79.521,78.8978907 68.02,96.7318907 C57.76,112.641891 51.42,130.024891 48.778,148.749891 C47.531,157.584891 48.897,159.087891 57.714,159.088891 C71.38,159.089891 85.047,158.927891 98.709,159.159891 C105.098,159.268891 109.458,156.816891 112.476,151.231891 C126.161,125.907891 139.915,100.619891 153.732,75.3678907 C156.102,71.0348907 156.124,67.0818907 153.915,62.6028907 C144.273,43.0608907 134.856,23.4078907 125.36,3.79389068 C124.871,2.78489068 124.406,1.76389068 123.621,0.0888906807 L145.534,0.0888906807 C157.2,0.0888906807 168.868,0.226890681 180.529,2.84217094e-14 C183.899,-0.0621093193 185.595,0.958890681 186.839,4.09989068 C188.611,8.57289068 191.174,12.7268907 193.048,17.1648907 C195.405,22.7478907 199.498,25.7208907 205.328,26.9608907 C240.348,34.4078907 268.586,52.6408907 290.091,81.1428907 C306.001,102.226891 315.13,126.081891 317.581,152.410891 C318.017,157.106891 320.104,159.328891 324.921,159.126891 C329.246,158.945891 333.586,159.027891 337.918,159.104891 C346.283,159.251891 351.022,163.562891 352.247,172.498891 C350.847,172.641891 349.458,172.897891 348.067,172.905891 C340.402,172.946891 332.736,172.889891 325.07,172.938891 C319.572,172.973891 318.308,174.410891 317.583,179.964891 C310.005,237.998891 279.211,278.801891 224.58,299.381891 C179.822,316.242891 136.497,309.914891 96.35,283.644891 C88.196,278.308891 85.973,270.194891 90.32,261.583891" id="Fill-1" fill="#000000" mask="url(#mask-2)"></path>
            </g>
        </g>
    </g>
</svg>