<?xml version="1.0" encoding="UTF-8"?>
<svg width="100px" height="100px" viewBox="0 0 100 100" version="1.1" xmlns="http://www.w3.org/2000/svg" xmlns:xlink="http://www.w3.org/1999/xlink">
    <title>0455EE87-A199-4FFF-AED7-508005A14681</title>
    <defs>
        <polygon id="path-1" points="0 0 100 0 100 100 0 100"></polygon>
    </defs>
    <g id="New-Site" stroke="none" stroke-width="1" fill="none" fill-rule="evenodd">
        <g id="Assets_Light" transform="translate(-1252.000000, -1199.000000)">
            <g id="icon_quantstamp_dark" transform="translate(1252.000000, 1199.000000)">
                <mask id="mask-2" fill="white">
                    <use xlink:href="#path-1"></use>
                </mask>
                <g id="Clip-2"></g>
                <path d="M26.2977562,49.9979136 C26.2747874,36.9066822 36.8682181,26.2759922 49.9596379,26.2529273 C63.0510577,26.228508 73.6819007,36.8232252 73.7049583,49.9130177 C73.7106793,53.2771965 73.001285,56.6025247 71.6227864,59.6702875 L55.9873316,44.013474 L44.0139634,55.985231 L59.6551739,71.6218997 C47.739363,76.9789732 33.7356592,71.6636282 28.3785087,59.7479888 C27.0000101,56.6831039 26.2906157,53.3577757 26.2977562,49.9979136 M90.631102,49.9979136 C90.6354188,42.1515204 88.3547087,34.4734801 84.0666859,27.9034029 L100,11.9688792 L88.0338265,0 L72.1105849,15.9345237 C58.6810157,7.17729856 41.3461801,7.17729856 27.9166109,15.9345237 L11.9689075,0 L-0.000143893381,11.9688792 L15.9346091,27.901964 C7.17725794,41.33134 7.17725794,58.6659261 15.9346091,72.0953021 L-0.000143893381,88.0312647 L11.9689075,100.000144 L27.9036605,84.0656202 C41.3332297,92.8228453 58.6680653,92.8228453 72.0976345,84.0656202 L88.0323875,100.000144 L100,88.0312647 L84.0666859,72.1096912 C88.3575866,65.5324194 90.6382966,57.8500624 90.631102,49.9979136" id="Fill-1" fill="#052892" mask="url(#mask-2)"></path>
            </g>
        </g>
    </g>
</svg>