<?xml version="1.0" encoding="UTF-8"?>
<svg width="489px" height="303px" viewBox="0 0 489 303" version="1.1" xmlns="http://www.w3.org/2000/svg" xmlns:xlink="http://www.w3.org/1999/xlink">
    <title>first_mile_dark</title>
    <defs>
        <polygon id="path-1" points="0 302.429 488.744 302.429 488.744 0 0 0"></polygon>
    </defs>
    <g id="Page-1" stroke="none" stroke-width="1" fill="none" fill-rule="evenodd">
        <g id="Desktop-HD" transform="translate(-107.000000, -298.000000)">
            <g id="first_mile_dark" transform="translate(107.000000, 298.000000)">
                <polygon id="Fill-1" fill="#00C7FF" points="0 176.5748 0 249.5978 17.057 249.5978 17.057 222.6808 43.974 222.6808 43.974 206.4228 17.057 206.4228 17.057 192.2098 43.974 192.2098 43.974 176.5748"></polygon>
                <g id="Group-31">
                    <path d="M55.2034,176.575 L55.2034,192.21 C55.2034,192.21 73.2594,189.052 73.2594,176.575 L55.2034,176.575 Z" id="Fill-2" fill="#00C7FF"></path>
                    <path d="M55.2034,206.4461 L55.2034,249.5981 L73.2594,249.5981 L73.2594,200.9411 C73.2594,200.9411 66.4334,206.4461 55.2034,206.4461" id="Fill-4" fill="#00C7FF"></path>
                    <path d="M117.2952,210.6297 L105.7352,210.6297 L105.7352,192.2097 L117.2952,192.2097 C117.2952,192.2097 126.6532,192.0247 126.6532,201.4197 C126.6532,210.8157 117.2952,210.6297 117.2952,210.6297 L117.2952,210.6297 Z M129.7352,222.4087 C129.7352,222.4087 143.1672,216.0247 143.1672,200.9417 C143.1672,185.8587 132.8182,176.5747 113.1122,176.5747 L89.3322,176.5747 L89.3322,248.8307 L105.2952,248.8307 L105.2952,225.2697 L113.5522,225.2697 L127.0942,249.5977 L145.2592,249.5977 L129.7352,222.4087 Z" id="Fill-6" fill="#00C7FF"></path>
                    <path d="M303.7551,288.5115 L299.8831,288.5115 L299.8831,282.3415 L303.7551,282.3415 C303.7551,282.3415 306.8891,282.2805 306.8891,285.4265 C306.8891,288.5735 303.7551,288.5115 303.7551,288.5115 L303.7551,288.5115 Z M307.9221,292.4565 C307.9221,292.4565 312.4201,290.3185 312.4201,285.2665 C312.4201,280.2145 308.9541,277.1055 302.3541,277.1055 L294.3891,277.1055 L294.3891,301.3075 L299.7351,301.3075 L299.7351,293.4155 L302.5011,293.4155 L307.0361,301.5645 L313.1211,301.5645 L307.9221,292.4565 Z" id="Fill-8" fill="#262626"></path>
                    <path d="M187.093,199.6199 L201.295,191.4739 C201.295,191.4739 194.249,174.7389 174.213,174.7389 C154.176,174.7389 150.103,188.1709 150.103,197.4189 C150.103,206.6659 155.497,214.7029 170.579,219.3269 C185.662,223.9499 186.543,226.3729 186.543,228.5739 C186.543,230.7759 185.222,234.6299 176.525,234.6299 C167.827,234.6299 163.424,229.1249 161.002,224.3909 L146.579,232.9779 C146.579,232.9779 152.635,251.1429 176.084,251.1429 C199.533,251.1429 203.387,235.3999 203.387,227.6929 C203.387,219.9869 197.992,211.5109 185.002,207.2169 C172.011,202.9229 166.727,201.8219 166.727,196.8679 C166.727,191.9139 171.79,191.3629 174.984,191.3629 C178.176,191.3629 183.79,192.4649 187.093,199.6199" id="Fill-10" fill="#00C7FF"></path>
                    <path d="M382.9026,285.0701 L387.4486,282.4621 C387.4486,282.4621 385.1936,277.1051 378.7786,277.1051 C372.3646,277.1051 371.0606,281.4051 371.0606,284.3651 C371.0606,287.3261 372.7876,289.8981 377.6166,291.3791 C382.4446,292.8591 382.7256,293.6341 382.7256,294.3391 C382.7256,295.0441 382.3026,296.2771 379.5186,296.2771 C376.7346,296.2771 375.3256,294.5151 374.5496,293.0001 L369.9326,295.7491 C369.9326,295.7491 371.8716,301.5641 379.3786,301.5641 C386.8846,301.5641 388.1186,296.5241 388.1186,294.0571 C388.1186,291.5901 386.3916,288.8771 382.2326,287.5021 C378.0746,286.1281 376.3816,285.7751 376.3816,284.1891 C376.3816,282.6031 378.0036,282.4261 379.0256,282.4261 C380.0486,282.4261 381.8446,282.7791 382.9026,285.0701" id="Fill-12" fill="#262626"></path>
                    <polygon id="Fill-14" fill="#00C7FF" points="206.9104 176.575 206.9104 192.21 225.6254 192.21 225.6254 250.152 243.2404 250.152 243.2404 192.21 261.1844 192.21 261.1844 176.575"></polygon>
                    <polygon id="Fill-16" fill="#262626" points="272.4143 176.575 272.4143 249.271 289.2583 249.271 289.2583 207.657 308.4143 237.712 328.3413 207.436 328.3413 250.152 345.5153 250.152 345.5153 176.575 328.0113 176.575 308.9653 208.428 288.8173 176.575"></polygon>
                    <mask id="mask-2" fill="white">
                        <use xlink:href="#path-1"></use>
                    </mask>
                    <g id="Clip-19"></g>
                    <polygon id="Fill-18" fill="#262626" mask="url(#mask-2)" points="360.598 249.382 377.442 249.382 377.442 176.575 360.598 176.575"></polygon>
                    <polygon id="Fill-20" fill="#262626" mask="url(#mask-2)" points="391.9739 176.575 391.9739 249.382 435.1299 249.382 435.1299 233.638 408.7069 233.638 408.7069 176.575"></polygon>
                    <polygon id="Fill-21" fill="#262626" mask="url(#mask-2)" points="443.1663 176.575 443.1663 249.382 488.7443 249.382 488.7443 233.419 459.2393 233.419 459.2393 220.317 485.8823 220.317 485.8823 204.684 459.1293 204.684 459.1293 192.134 488.7443 192.134 488.7443 176.575"></polygon>
                    <polygon id="Fill-22" fill="#262626" mask="url(#mask-2)" points="334.3245 277.1336 334.3245 301.5646 349.6185 301.5646 349.6185 296.2076 339.7185 296.2076 339.7185 291.8116 348.6575 291.8116 348.6575 286.5656 339.6805 286.5656 339.6805 282.3546 349.6185 282.3546 349.6185 277.1336"></polygon>
                    <polygon id="Fill-23" fill="#262626" mask="url(#mask-2)" points="93.8118 277.4988 102.7778 301.5638 110.0908 301.5638 118.1138 277.4988 111.1138 277.4988 106.2018 294.9578 100.4968 277.4988"></polygon>
                    <polygon id="Fill-24" fill="#262626" mask="url(#mask-2)" points="136.9885 277.4988 136.9885 301.5638 152.9535 301.5638 152.9535 296.3728 143.0445 296.3728 143.0445 291.3398 152.1675 291.3398 152.1675 286.3858 143.2015 286.3858 143.2015 282.5318 152.9535 282.5318 152.9535 277.4988"></polygon>
                    <polygon id="Fill-25" fill="#262626" mask="url(#mask-2)" points="174.9739 277.4988 174.9739 301.5638 180.4009 301.5638 180.4009 288.6658 190.1529 301.5638 194.5569 301.5638 194.5569 277.4988 189.4219 277.4988 189.4219 291.0028 179.2209 277.4988"></polygon>
                    <polygon id="Fill-26" fill="#262626" mask="url(#mask-2)" points="214.4543 277.4988 214.4543 282.3748 220.7453 282.3748 220.7453 301.5638 226.5653 301.5638 226.5653 282.1388 232.8563 282.1388 232.8563 277.4988"></polygon>
                    <path d="M252.439681,277.4988 L252.439681,296.0588 C252.439681,296.0588 252.3607,302.4288 262.4277,302.4288 C272.4947,302.4288 272.0227,296.0588 272.0227,296.0588 L272.0227,277.4988 L266.1247,277.4988 L266.1247,294.2498 C266.1247,294.2498 265.8127,296.9238 262.2327,296.9238 C258.6527,296.9238 258.3377,294.2498 258.3377,294.2498 L258.3377,277.4988 L252.439681,277.4988 Z" id="Fill-27" fill="#262626" mask="url(#mask-2)"></path>
                    <polygon id="Fill-28" fill="#00C7FF" mask="url(#mask-2)" points="93.4573 150.6087 138.0273 150.6087 191.3703 98.6247 215.5383 122.7917 239.0883 99.8747 191.3703 52.1567"></polygon>
                    <polygon id="Fill-29" fill="#00C7FF" mask="url(#mask-2)" points="195.4807 48.0467 243.5277 -0.0003 291.4327 47.9047 268.5067 70.9727 243.5277 45.9927 218.6917 70.8297"></polygon>
                    <polygon id="Fill-30" fill="#262626" mask="url(#mask-2)" points="295.6848 52.157 220.6498 127.192 244.0908 150.634 295.6558 99.069 347.6498 151.063 393.8348 151.063"></polygon>
                </g>
            </g>
        </g>
    </g>
</svg>