<?xml version="1.0" encoding="UTF-8"?>
<svg width="806px" height="226px" viewBox="0 0 806 226" version="1.1" xmlns="http://www.w3.org/2000/svg" xmlns:xlink="http://www.w3.org/1999/xlink">
    <title>logo_goldin_dark</title>
    <defs>
        <polygon id="path-1" points="0 0 156.100594 0 156.100594 148.803986 0 148.803986"></polygon>
        <polygon id="path-3" points="-6.21724894e-15 0 173.50357 0 173.50357 207.686109 -6.21724894e-15 207.686109"></polygon>
    </defs>
    <g id="Page-1" stroke="none" stroke-width="1" fill="none" fill-rule="evenodd">
        <g id="Desktop" transform="translate(-109.000000, -194.000000)">
            <g id="logo_goldin_dark" transform="translate(109.000000, 194.000000)">
                <g id="Group-3" transform="translate(649.103338, 71.452703)">
                    <mask id="mask-2" fill="white">
                        <use xlink:href="#path-1"></use>
                    </mask>
                    <g id="Clip-2"></g>
                    <path d="M156.100894,148.574097 C152.623894,148.633097 149.147894,148.736097 145.670894,148.743097 C129.710894,148.778097 113.750894,148.786097 97.7908944,148.803986 C95.4898944,148.803986 93.1878944,148.803986 90.7328944,148.803986 C89.3738944,144.679097 89.8968944,142.624097 94.8088944,142.291097 C103.323894,141.714097 107.198894,137.503097 108.111894,129.013097 C108.235894,127.859097 108.404894,126.700097 108.401894,125.544097 C108.330894,94.8640974 108.279894,64.1830974 108.096894,33.5050974 C108.078894,30.3900974 107.521894,27.2150974 106.754894,24.1820974 C104.657894,15.8790974 98.5888944,10.9650974 90.0308944,10.2060974 C74.3488944,8.81509736 63.0718944,15.7230974 55.2208944,28.7720974 C50.0668944,37.3370974 47.5068944,46.8090974 47.4158944,56.7360974 C47.2078944,79.4570974 47.2158944,102.180097 47.3798944,124.901097 C47.4688944,137.191097 50.6658944,140.675097 62.8398944,142.456097 C67.3018944,143.109097 65.6418944,145.911097 65.6758944,148.490097 L0.531894428,148.490097 C-0.503105572,144.881097 -0.461105572,142.598097 4.69589443,142.335097 C16.4038944,141.737097 21.1368944,136.685097 21.1808944,124.974097 C21.2958944,94.1260974 21.2538944,63.2760974 21.1608944,32.4270974 C21.1518944,29.3130974 20.6438944,26.1320974 19.8768944,23.1050974 C18.1558944,16.3050974 13.6568944,12.3430974 6.65389443,11.3010974 C4.68889443,11.0080974 2.71989443,10.7490974 0.424894428,10.4290974 L0.424894428,5.47009736 C15.8468944,4.63209736 31.2848944,3.79409736 47.0698944,2.93709736 L47.0698944,30.2640974 C47.3388944,30.3540974 47.6088944,30.4450974 47.8768944,30.5350974 C48.7098944,29.0530974 49.5538944,27.5760974 50.3748944,26.0870974 C62.4298944,4.21309736 89.1468944,-5.59390264 112.645894,3.22409736 C125.212894,7.94009736 131.306894,17.6310974 133.187894,30.3010974 C133.962894,35.5260974 134.276894,40.8620974 134.301894,46.1500974 C134.414894,70.1990974 134.349894,94.2490974 134.354894,118.298097 C134.354894,120.122097 134.358894,121.947097 134.423894,123.769097 C134.901894,137.178097 138.869894,141.287097 152.369894,142.527097 C153.634894,142.644097 154.857894,143.228097 156.100894,143.595097 L156.100894,148.574097 Z" id="Fill-1" fill="#000000" mask="url(#mask-2)"></path>
                </g>
                <path d="M375.736532,0 C375.811532,2.317 375.950532,4.635 375.951532,6.953 C375.963532,68.127 375.960532,129.301 375.964532,190.476 C375.965532,192.464 375.938532,194.458 376.065532,196.442 C376.850532,208.695 380.963532,213.083 393.221532,213.825 C397.937532,214.11 397.757532,216.462 397.016532,219.887 L350.158532,219.887 L350.158532,212.579 C350.158532,154.056 350.168532,95.535 350.135532,37.013 C350.133532,33.373 350.018532,29.705 349.564532,26.099 C348.320532,16.214 343.319532,11.1 333.432532,10.296 C328.985532,9.934 327.944532,8.298 329.279532,4.105 C333.976532,4.105 338.745532,4.352 343.479532,4.053 C352.409532,3.489 361.326532,2.681 370.230532,1.798 C371.777532,1.645 373.237532,0.622 374.737532,0 L375.736532,0 Z" id="Fill-4" fill="#000000"></path>
                <path d="M532.503132,2.124 L532.503132,7.338 C532.503132,67.213 532.487132,127.088 532.539132,186.963 C532.542132,191.089 532.643132,195.291 533.404132,199.327 C535.193132,208.797 539.647132,212.693 549.131132,213.848 C554.008132,214.443 554.008132,214.443 553.248132,219.374 C537.875132,220.211 522.564132,221.045 506.506132,221.919 L506.506132,217.219 C506.506132,180.233 506.405132,143.247 506.565132,106.261 C506.615132,94.485 500.599132,86.789 490.694132,81.991 C475.917132,74.833 459.469132,79.495 450.126132,92.98 C444.148132,101.61 440.923132,111.376 439.469132,121.641 C436.400132,143.303 435.972132,164.982 441.945132,186.247 C443.614132,192.187 446.457132,198.124 450.058132,203.137 C459.719132,216.585 477.483132,219.253 491.260132,210.025 C491.936132,209.572 492.631132,209.148 493.347132,208.693 C495.628132,214.148 495.025132,216.105 490.339132,218.884 C468.488132,231.841 435.331132,223.053 421.421132,200.6 C414.257132,189.034 411.156132,176.217 410.083132,162.854 C408.691132,145.539 409.057132,128.367 415.579132,111.892 C426.722132,83.747 452.522132,68.354 481.538132,72.487 C490.092132,73.706 493.988132,75.778 506.506132,85.922 L506.506132,71.779 C506.506132,59.34 506.548132,46.9 506.475132,34.461 C506.457132,31.492 506.322132,28.475 505.782132,25.564 C503.833132,15.054 499.511132,11.224 488.755132,10.096 C487.791132,9.995 486.831132,9.858 485.605132,9.705 L485.605132,4.668 C501.111132,3.827 516.415132,2.997 532.503132,2.124" id="Fill-6" fill="#000000"></path>
                <g id="Group-10" transform="translate(0.000000, 17.431491)">
                    <mask id="mask-4" fill="white">
                        <use xlink:href="#path-3"></use>
                    </mask>
                    <g id="Clip-9"></g>
                    <path d="M104.548532,118.167609 L138.891532,118.167609 L172.983532,118.167609 C174.091532,121.515609 173.705532,123.664609 169.077532,124.229609 C162.956532,124.978609 160.500532,127.439609 160.132532,133.671609 C159.499532,144.419609 159.381532,155.202609 159.256532,165.974609 C159.121532,177.586609 159.165532,189.202609 159.267532,200.816609 C159.291532,203.523609 158.780532,205.291609 155.648532,205.463609 C129.401532,206.902609 103.033532,209.394609 76.9065321,205.938609 C36.8725321,200.643609 12.3715321,177.812609 3.76953214,138.301609 C-3.27546786,105.942609 -0.98746786,74.1726088 15.2525321,44.5706088 C39.2755321,0.781608753 86.2095321,-6.33239125 116.339532,4.45560875 C125.405532,7.70260875 133.561532,13.6226088 141.892532,18.7106088 C147.740532,22.2826088 149.931532,21.8246088 151.825532,15.2046088 C152.816532,11.7406088 153.388532,8.15660875 154.184532,4.46360875 L160.309532,4.46360875 C160.309532,8.31860875 160.333532,11.9036088 160.304532,15.4896088 C160.175532,31.7476088 160.058532,48.0066088 159.858532,64.2646088 C159.832532,66.3616088 160.779532,69.0836088 156.938532,69.3606088 C153.485532,69.6106088 152.337532,68.1756088 151.858532,64.9466088 C151.080532,59.7096088 149.963532,54.5066088 148.688532,49.3626088 C142.807532,25.6356088 123.787532,9.50360875 99.3195321,6.51360875 C75.6135321,3.61560875 58.2155321,13.0026088 45.8415321,32.6186088 C35.6795321,48.7286088 31.3495321,66.7566088 29.9235321,85.4636088 C28.1125321,109.219609 28.5925321,132.895609 35.3425321,156.014609 C36.6845321,160.606609 38.4565321,165.136609 40.5595321,169.437609 C48.6305321,185.942609 61.1915321,196.781609 80.1715321,197.907609 C90.5755321,198.525609 101.085532,197.976609 111.509532,197.343609 C114.994532,197.131609 118.484532,195.284609 121.761532,193.741609 C129.280532,190.201609 132.830532,184.370609 132.454532,175.813609 C131.981532,165.047609 132.452532,154.241609 132.006532,143.474609 C131.452532,130.077609 127.858532,126.389609 114.562532,124.384609 C112.593532,124.087609 110.582532,124.081609 108.591532,123.923609 C103.743532,123.537609 103.640532,123.380609 104.548532,118.167609" id="Fill-8" fill="#000000" mask="url(#mask-4)"></path>
                </g>
                <path d="M291.548032,145.102 C291.098032,139.477 290.731032,130.347 289.557032,121.321 C288.027032,109.555 284.998032,98.179 277.181032,88.733 C265.339032,74.422 244.843032,74.077 233.636032,88.858 C228.867032,95.147 225.242032,102.943 223.318032,110.608 C217.590032,133.416 217.952032,156.605 221.783032,179.733 C223.511032,190.165 226.795032,200.038 233.855032,208.239 C245.488032,221.753 265.293032,221.948 276.567032,208.159 C280.468032,203.386 283.462032,197.563 285.627032,191.758 C290.801032,177.886 291.026032,163.192 291.548032,145.102 M190.271032,145.613 C192.160032,135.907 193.156032,123.123 197.221032,111.395 C207.672032,81.248 232.449032,69.93 260.508032,72.074 C290.720032,74.383 309.260032,90.793 316.228032,120.358 C320.631032,139.04 320.620032,157.914 316.152032,176.585 C308.497032,208.573 286.526032,224.928 252.544032,224.414 C222.339032,223.956 200.236032,205.384 193.969032,174.652 C192.221032,166.081 191.712032,157.258 190.271032,145.613" id="Fill-11" fill="#000000"></path>
                <path d="M634.989432,219.9506 L567.679432,219.9506 C566.241432,214.5076 566.359432,214.3336 571.990432,213.8826 C583.053432,212.9956 588.091432,208.2276 588.170432,197.0816 C588.393432,165.7286 588.508432,134.3716 588.096432,103.0226 C587.934432,90.6386 583.604432,83.0006 569.773432,82.2546 C568.980432,82.2116 568.202432,81.8816 567.267432,81.6476 L567.267432,76.9296 C582.908432,76.0916 598.208432,75.2706 614.233432,74.4126 L614.233432,79.1676 C614.233432,116.1616 614.231432,153.1566 614.238432,190.1516 C614.238432,192.3066 614.248432,194.4666 614.358432,196.6176 C614.977432,208.6566 619.085432,213.1236 631.031432,213.8106 C635.823432,214.0866 636.124432,216.1996 634.989432,219.9506" id="Fill-13" fill="#000000"></path>
                <path d="M599.445532,5.70634508 C609.299532,5.7455 617.528532,13.9585 617.564656,23.7905 C617.601532,33.9265 609.328532,42.1395 599.160532,42.0605 C589.072532,41.9815 581.186532,34.0825 581.134283,24.0055 C581.082532,13.7675 589.188532,5.6655 599.445532,5.70634508" id="Fill-15" fill="#000000"></path>
            </g>
        </g>
    </g>
</svg>