<?xml version="1.0" encoding="UTF-8"?>
<svg width="80px" height="100px" viewBox="0 0 80 100" version="1.1" xmlns="http://www.w3.org/2000/svg" xmlns:xlink="http://www.w3.org/1999/xlink">
    <title>F43D9BFC-3DEF-4C67-A39F-D24B9BBDD7C9</title>
    <defs>
        <path d="M0,0 L0,39.9980833 C0,51.0439627 8.95368421,60.0023333 20,60.0023333 L20,60.0023333 C31.0463158,60.0023333 40,51.0439627 40,39.9980833 L40,39.9980833 L40,30.000125 L40,0 L0,0 Z" id="path-1"></path>
        <linearGradient x1="69.7818696%" y1="-5.55283289%" x2="30.7555773%" y2="81.2211656%" id="linearGradient-3">
            <stop stop-color="#8ECF49" offset="0%"></stop>
            <stop stop-color="#00AAFF" offset="100%"></stop>
        </linearGradient>
        <polygon id="path-4" points="0 0 80 0 80 100 0 100"></polygon>
    </defs>
    <g id="New-Site" stroke="none" stroke-width="1" fill="none" fill-rule="evenodd">
        <g id="Assets_Light" transform="translate(-1256.000000, -1334.000000)">
            <g id="icon_solidified" transform="translate(1256.000000, 1334.000000)">
                <g id="Group-3" transform="translate(20.000000, 19.999667)">
                    <mask id="mask-2" fill="white">
                        <use xlink:href="#path-1"></use>
                    </mask>
                    <g id="Clip-2"></g>
                    <path d="M0,0 L0,39.9980833 C0,51.0439627 8.95368421,60.0023333 20,60.0023333 L20,60.0023333 C31.0463158,60.0023333 40,51.0439627 40,39.9980833 L40,39.9980833 L40,30.000125 L40,0 L0,0 Z" id="Fill-1" fill="url(#linearGradient-3)" mask="url(#mask-2)"></path>
                </g>
                <g id="Group-6">
                    <mask id="mask-5" fill="white">
                        <use xlink:href="#path-4"></use>
                    </mask>
                    <g id="Clip-5"></g>
                    <path d="M80,40.0001667 L80,60.00025 C80,82.0920087 62.0905263,100.000417 40,100.000417 C19.5515789,100.000417 2.68631579,84.6566027 0.290526316,64.8544369 L10,60.00025 L10,63.3335972 L10.0252632,63.3335972 C10.68,78.6815778 23.8526316,90.9337122 40,90.9337122 C56.1494737,90.9337122 69.32,78.6815778 69.9747368,63.3335972 L70,63.3335972 L70,50.0002083 L0,50.0002083 L0,0 L80,0 L80,25.0001042 L70,30.000125 L70,10.0000417 L10,10.0000417 L10,40.0001667 L80,40.0001667 Z" id="Fill-4" fill="#000000" mask="url(#mask-5)"></path>
                </g>
            </g>
        </g>
    </g>
</svg>