<?xml version="1.0" encoding="UTF-8"?>
<svg width="34px" height="34px" viewBox="0 0 34 34" version="1.1" xmlns="http://www.w3.org/2000/svg" xmlns:xlink="http://www.w3.org/1999/xlink">
    <title>47E77026-01AD-47A0-B134-2BCD24D260D4</title>
    <g id="With-News-Sectoin" stroke="none" stroke-width="1" fill="none" fill-rule="evenodd">
        <g id="Ichi-Popover" transform="translate(-1026.000000, -180.000000)" fill="#0676FF">
            <g id="Group-42" transform="translate(1026.000000, 180.000000)">
                <g id="Group-15" fill-opacity="0.1">
                    <circle id="Oval" cx="17" cy="17" r="17"></circle>
                </g>
                <path d="M11.7951043,10.3079912 L17,15.512 L22.2048957,10.3079912 C22.5839618,9.92892511 23.1804324,9.89976618 23.5929453,10.2205144 L23.6920088,10.3079912 C24.1026637,10.7186461 24.1026637,11.3844493 23.6920088,11.7951043 L23.6920088,11.7951043 L18.488,17 L23.6920088,22.2048957 C24.1026637,22.6155507 24.1026637,23.2813539 23.6920088,23.6920088 C23.2813539,24.1026637 22.6155507,24.1026637 22.2048957,23.6920088 L17,18.488 L11.7951043,23.6920088 C11.4160382,24.0710749 10.8195676,24.1002338 10.4070547,23.7794856 L10.3079912,23.6920088 C9.89733627,23.2813539 9.89733627,22.6155507 10.3079912,22.2048957 L10.3079912,22.2048957 L15.512,17 L10.3079912,11.7951043 C9.89733627,11.3844493 9.89733627,10.7186461 10.3079912,10.3079912 C10.7186461,9.89733627 11.3844493,9.89733627 11.7951043,10.3079912 Z" id="Combined-Shape"></path>
            </g>
        </g>
    </g>
</svg>