<?xml version="1.0" encoding="UTF-8"?>
<svg width="90px" height="100px" viewBox="0 0 90 100" version="1.1" xmlns="http://www.w3.org/2000/svg" xmlns:xlink="http://www.w3.org/1999/xlink">
    <title>5F7613D6-46F6-42F1-A2BB-3965737722D3</title>
    <defs>
        <polygon id="path-1" points="0 0 90 0 90 87.0742663 0 87.0742663"></polygon>
        <polygon id="path-3" points="0 0 64.1924814 0 64.1924814 13.3687503 0 13.3687503"></polygon>
    </defs>
    <g id="New-Site" stroke="none" stroke-width="1" fill="none" fill-rule="evenodd">
        <g id="Assets_Light" transform="translate(-1136.000000, -1334.000000)">
            <g id="icon_certik" transform="translate(1136.000000, 1334.000000)">
                <g id="Group-3" transform="translate(0.000000, 12.925734)">
                    <mask id="mask-2" fill="white">
                        <use xlink:href="#path-1"></use>
                    </mask>
                    <g id="Clip-2"></g>
                    <path d="M85.9242172,9.08076079 C85.8786325,9.07071667 85.833153,9.06067255 85.7876735,9.05062843 C85.7053472,9.21453991 85.6198626,9.3768486 85.541221,9.54246972 C83.3069362,14.2518795 81.0758097,18.9627851 78.8387876,23.6708058 C76.5789206,28.4268031 74.451702,33.2539641 72.0244452,37.9203124 C64.8259486,51.7590786 57.5080683,65.5338403 50.2379836,79.3342466 C50.1519726,79.4976238 50.0810162,79.6691218 49.9517365,79.9473653 C50.209243,79.801405 50.361473,79.7259672 50.5028594,79.6333263 C51.7838648,78.7937875 53.0846623,77.9830988 54.3392432,77.1044521 C65.4344472,69.334471 73.9011055,59.3114015 79.4263362,46.7968563 C83.9901812,36.4600684 86.0525494,25.5837831 86.0754813,14.2872476 C86.0788685,12.5518588 85.9772766,10.8162564 85.9242172,9.08076079 M4.25917456,8.73605516 C4.20422019,8.7561434 4.14916054,8.77623164 4.09410089,8.79621302 C3.19419669,24.7432827 6.13330822,39.8270923 14.1010608,53.7427922 C20.4598715,64.8485963 29.3103682,73.4376006 40.211758,79.9372143 C28.2275986,56.2034946 16.2433339,32.4697749 4.25917456,8.73605516 M45.0378469,80.7568785 C52.2291848,67.106493 59.3686213,53.5547321 66.5384827,39.9449504 L24.4300618,39.9449504 C31.2988322,53.5477867 38.140336,67.0967694 45.0378469,80.7568785 M90.0001053,16.4971675 C89.8814586,28.719258 86.8226476,42.1136254 79.9894606,54.5235622 C73.868154,65.6407995 65.4225509,74.561794 54.9261602,81.4798414 C52.0202108,83.3949558 48.9484507,85.0518081 45.9440677,86.8119866 C45.3447282,87.1632102 44.6950664,87.1551963 44.0807775,86.8269459 C38.4994344,83.8451247 33.1398038,80.5161402 28.2454956,76.4512638 C15.679999,66.0153169 7.26861085,52.8363639 2.95553468,36.9634497 C0.768308474,28.9140498 -0.163705081,20.6998835 0.0233714006,12.3558917 C0.0976966654,9.04186654 0.39668215,5.74728855 1.01244486,2.487117 C1.06181958,2.2257562 1.07792689,1.95755684 1.13203906,1.69737141 C1.33585451,0.718924593 1.96614539,0.128351747 2.91584541,0.0117758518 C3.68067976,-0.0821473492 4.47562321,0.392811272 4.87377923,1.18480077 C6.1001461,3.62391898 7.32198608,6.06549479 8.5521429,8.50268966 C13.0661921,17.4451614 17.5859262,26.3845345 22.0892371,35.3325626 C22.3086335,35.768627 22.550138,35.932859 23.0437799,35.9323247 C37.7636564,35.9174723 52.4836383,35.9203573 67.2036201,35.9203573 C67.3965921,35.9203573 67.6017761,35.8769752 67.7804305,35.9283712 C68.5249465,36.142717 68.7871904,35.7175515 69.0741744,35.1097755 C74.2770482,24.0941547 79.5021354,13.0895398 84.7216429,2.08203981 C84.873557,1.76201707 85.0047316,1.43141595 85.1655942,1.11620157 C85.5477482,0.367807826 86.3613256,-0.0858871809 87.1101579,0.0169047638 C88.0286961,0.142990517 88.6510912,0.714543648 88.8531169,1.61744586 C89.5408888,4.69148064 90.0001053,9.87649011 90.0001053,16.4971675" id="Fill-1" fill="#000000" mask="url(#mask-2)"></path>
                </g>
                <g id="Group-6" transform="translate(13.236146, 0.000000)">
                    <mask id="mask-4" fill="white">
                        <use xlink:href="#path-3"></use>
                    </mask>
                    <g id="Clip-5"></g>
                    <path d="M0,11.2095043 C-0.00574340884,10.270486 0.525903316,9.56152077 1.49086844,9.25902181 C3.73273319,8.55625401 5.97680875,7.86139329 8.22098959,7.16642571 C15.7910073,4.82219237 23.3623936,2.48233998 30.9298846,0.130092716 C31.5084847,-0.0498466135 32.047185,-0.0398024941 32.6249428,0.139602573 C42.5708424,3.22784871 52.5203213,6.30434109 62.468958,9.38361163 C63.6384756,9.74552048 64.2484481,10.494769 64.1884404,11.4931972 C64.1071669,12.845093 62.8948018,13.6712752 61.5472616,13.2648089 C59.6170155,12.6825706 57.6937177,12.077359 55.7676827,11.4808024 C47.9298414,9.05301051 40.0931581,6.62190622 32.251211,4.20800516 C31.9579104,4.11771494 31.5910216,4.11151751 31.2989843,4.20148717 C21.8325143,7.11855587 12.3721504,10.0562471 2.905154,12.9713924 C2.45351748,13.1105142 1.93145092,13.1753735 1.47286614,13.0949137 C0.573698883,12.936986 0.00573173829,12.1354866 0,11.2095043" id="Fill-4" fill="#000000" mask="url(#mask-4)"></path>
                </g>
            </g>
        </g>
    </g>
</svg>