<?xml version="1.0" encoding="UTF-8"?>
<svg width="24px" height="20px" viewBox="0 0 24 20" version="1.1" xmlns="http://www.w3.org/2000/svg" xmlns:xlink="http://www.w3.org/1999/xlink">
    <title>D6FA30C7-FC6B-4955-B4C5-272012501EBF</title>
    <defs>
        <linearGradient x1="50%" y1="0%" x2="50%" y2="100%" id="linearGradient-1">
            <stop stop-color="#006EF5" offset="0%"></stop>
            <stop stop-color="#0062DB" offset="100%"></stop>
        </linearGradient>
    </defs>
    <g id="New-Site" stroke="none" stroke-width="1" fill="none" fill-rule="evenodd">
        <g id="Assets_Light" transform="translate(-237.000000, -25.000000)" fill="url(#linearGradient-1)">
            <path d="M244.335201,33.9143553 L244.335201,29.7122976 C245.715673,29.9569977 247.262018,30.1072096 249.000245,30.1072096 C250.738473,30.1072096 252.284327,29.9569977 253.66529,29.7122976 L253.66529,33.9143553 L244.335201,33.9143553 Z M249.000245,39.8923058 C247.262018,39.8923058 245.715673,40.0425178 244.335201,40.2877024 L244.335201,36.0851601 L253.66529,36.0851601 L253.66529,40.2877024 C252.284327,40.0425178 250.738473,39.8923058 249.000245,39.8923058 L249.000245,39.8923058 Z M256.821777,28.9030914 C256.840916,28.8963076 256.859564,28.8890393 256.878704,28.8822555 C258.271445,28.39867 259.410469,27.8244727 260.31688,27.2565747 C260.747265,26.9871623 261,26.5127834 261,26.0098157 C261,25.1957639 260.08083,24.7204158 259.399673,25.1788045 C258.368122,25.8731712 256.910602,26.6164781 254.935835,27.1456117 C254.875964,27.161602 254.819037,27.179046 254.758675,27.1945517 C254.485329,27.2648121 254.200204,27.3297425 253.907228,27.3907964 C253.818403,27.409694 253.727124,27.4266534 253.636827,27.4440974 C253.393907,27.4920683 253.144116,27.5356782 252.887946,27.5763808 C252.809917,27.5884946 252.733851,27.6020622 252.65435,27.6136915 C252.321133,27.6621469 251.97761,27.7052723 251.621818,27.7411294 C251.560474,27.746944 251.496677,27.751305 251.434352,27.7571197 C251.126654,27.7857084 250.809631,27.8084824 250.484756,27.826411 C250.392986,27.8312565 250.301217,27.8365866 250.207975,27.8404631 C249.816358,27.8574225 249.416399,27.8690518 249.000245,27.8690518 C248.585073,27.8690518 248.186586,27.8574225 247.796442,27.8404631 C247.698783,27.8365866 247.603578,27.8312565 247.508373,27.8259264 C247.195767,27.8084824 246.891013,27.7866775 246.594602,27.7590579 C246.518536,27.7522741 246.440998,27.746944 246.366404,27.7396757 C246.02239,27.7047878 245.691136,27.6631161 245.368224,27.6161143 C245.261732,27.6006085 245.159656,27.5831645 245.055127,27.5662051 C244.838708,27.5313172 244.627196,27.4940065 244.420591,27.454273 C244.296432,27.4305298 244.171782,27.4067867 244.051058,27.3811053 C243.841509,27.3365262 243.63834,27.2890399 243.439096,27.2400999 C243.254575,27.1945517 243.075943,27.1470654 242.899765,27.0981254 C241.01235,26.5733527 239.608813,25.8537891 238.605725,25.1807427 C237.922114,24.7213849 237,25.1943102 237,26.0107848 C237,26.5132679 237.252244,26.9866778 237.681648,27.2560902 C238.587077,27.8230191 239.723648,28.3962472 241.113444,28.8793482 C241.13651,28.8875856 241.158593,28.8963076 241.18264,28.904545 C241.460894,29 241.751907,29.0901294 242.0493,29.1783184 L242.0493,33.9143553 L241.039342,33.9143553 C240.589817,33.9143553 240.225192,34.2743794 240.225192,34.7182315 C240.225192,35.4731676 240.845496,36.0851601 241.60959,36.0851601 L242.0493,36.0851601 L242.0493,40.8211971 C241.751907,40.909386 241.460894,41 241.18264,41.0949704 C241.158593,41.1032079 241.13651,41.1119298 241.113444,41.1206518 C239.723648,41.6037528 238.587077,42.1764964 237.681648,42.7439098 C237.252244,43.0128377 237,43.4862475 237,43.9892152 C237,44.8052052 237.922114,45.2781306 238.605725,44.8192573 C239.608813,44.1457264 241.01235,43.4266473 242.899765,42.9013901 C243.075943,42.8524501 243.254575,42.8049637 243.439096,42.7594156 C243.63834,42.7104756 243.841509,42.6629892 244.051058,42.6184102 C244.171782,42.5927288 244.296432,42.5689856 244.420591,42.5452424 C244.627196,42.505509 244.838708,42.4681982 245.055127,42.4337949 C245.159656,42.4168355 245.261732,42.3989069 245.368224,42.3834012 C245.691136,42.3363994 246.02239,42.2947277 246.366404,42.2603243 C246.440998,42.2525714 246.518536,42.2472413 246.594602,42.2404576 C246.891013,42.2133225 247.195767,42.191033 247.508373,42.173589 C247.603578,42.1687435 247.698783,42.1634134 247.796442,42.1590524 C248.186586,42.142093 248.585073,42.1304637 249.000245,42.1304637 C249.416399,42.1304637 249.816358,42.142093 250.207975,42.1590524 C250.301217,42.1629288 250.392986,42.1682589 250.484756,42.1731045 C250.809631,42.191033 251.126654,42.2138071 251.434352,42.2423958 C251.496677,42.2482104 251.560474,42.2525714 251.621818,42.2583861 C251.97761,42.2942431 252.321133,42.3373685 252.65435,42.3863085 C252.733851,42.3979378 252.809917,42.4110208 252.887946,42.4236192 C253.144116,42.4638373 253.393907,42.5079317 253.636827,42.5554181 C253.727124,42.5728621 253.818403,42.590306 253.907228,42.6087191 C254.200204,42.669773 254.485329,42.7347033 254.758675,42.8049637 C254.819037,42.8204695 254.875964,42.838398 254.935835,42.8539037 C256.910602,43.3835219 258.368122,44.1268288 259.399673,44.8211955 C260.08083,45.2795842 261,44.8042361 261,43.9901843 C261,43.4867321 260.747265,43.0123531 260.31688,42.7429407 C259.410469,42.1750427 258.271445,41.6008455 256.878704,41.1172599 C256.859564,41.1104762 256.840916,41.1032079 256.821777,41.0969086 C256.542542,41.0009668 256.250056,40.9098706 255.9507,40.8211971 L255.9507,36.0851601 L256.960658,36.0851601 C257.410183,36.0851601 257.774808,35.725136 257.774808,35.281284 C257.774808,34.5263478 257.154994,33.9143553 256.389919,33.9143553 L255.9507,33.9143553 L255.9507,29.1783184 C256.250056,29.0901294 256.542542,28.9990332 256.821777,28.9030914 L256.821777,28.9030914 Z" id="img_logo_ichi_symbol"></path>
        </g>
    </g>
</svg>