<?xml version="1.0" encoding="UTF-8"?>
<svg width="514px" height="396px" viewBox="0 0 514 396" version="1.1" xmlns="http://www.w3.org/2000/svg" xmlns:xlink="http://www.w3.org/1999/xlink">
    <title>Group 19</title>
    <defs>
        <filter x="-19.2%" y="-27.3%" width="138.5%" height="154.6%" filterUnits="objectBoundingBox" id="filter-1">
            <feOffset dx="0" dy="0" in="SourceAlpha" result="shadowOffsetOuter1"></feOffset>
            <feGaussianBlur stdDeviation="20" in="shadowOffsetOuter1" result="shadowBlurOuter1"></feGaussianBlur>
            <feColorMatrix values="0 0 0 0 1   0 0 0 0 1   0 0 0 0 1  0 0 0 0.5 0" type="matrix" in="shadowBlurOuter1" result="shadowMatrixOuter1"></feColorMatrix>
            <feMerge>
                <feMergeNode in="shadowMatrixOuter1"></feMergeNode>
                <feMergeNode in="SourceGraphic"></feMergeNode>
            </feMerge>
        </filter>
        <linearGradient x1="50%" y1="0%" x2="50%" y2="100%" id="linearGradient-2">
            <stop stop-color="#FCEE21" offset="0%"></stop>
            <stop stop-color="#FFFC9C" offset="100%"></stop>
        </linearGradient>
    </defs>
    <g id="New-Site" stroke="none" stroke-width="1" fill="none" fill-rule="evenodd">
        <g id="Ichi-Light-Copy" transform="translate(-192.000000, -215.000000)">
            <g id="Group-85-Copy" transform="translate(0.000000, 70.000000)">
                <g id="Group-19" filter="url(#filter-1)" transform="translate(249.000000, 202.000000)">
                    <g id="Group-84">
                        <path d="M87.3916601,188.580303 C87.3157172,188.580303 87.2107886,188.564646 87.0704972,188.444034 C78.7179442,181.226424 67.986815,175.246252 55.1663882,170.6624 L54.7043543,170.199666 L54.0689852,170.199666 C51.7095397,169.016736 43.9164129,164.893879 37.6067802,159.049975 C36.7256114,158.233522 37.54591,156.789652 38.6989658,157.124815 C42.201612,158.141903 45.5830974,158.653926 48.8208131,158.653926 C52.538534,158.653926 56.0533542,157.960404 59.2678813,156.593657 C61.1194953,155.807357 62.5554527,154.346091 63.3090839,152.478918 C64.0627151,150.611745 64.0447439,148.562493 63.2580689,146.709237 C62.5803805,145.112862 61.361237,143.789025 59.8255684,142.981849 C46.7703564,136.132456 27.5226145,122.528186 18.2639649,108.51917 C17.5712038,107.471349 18.8581741,106.251308 19.8819532,106.979622 C25.4907087,110.96679 31.8710668,114.592121 38.024176,116.089339 C38.6079504,116.231986 39.2114351,116.305049 39.8143401,116.305049 C43.2937975,116.305049 46.3031051,113.94209 47.13094,110.558563 C47.7350044,108.091807 47.0654321,105.506759 45.3407759,103.643645 C37.0293828,94.6499011 17.4007672,69.6767515 12.659847,48.8195008 C12.3949166,47.6533875 13.8911645,46.9291331 14.6488538,47.8546014 C30.9985937,67.8304537 49.7825625,85.6787725 70.5932197,101.000029 C73.261654,102.980276 75.90632,105.044604 78.4443181,107.127488 C84.465252,112.069118 87.9186222,119.396902 87.9186222,127.233231 L87.9186222,188.06596 C87.9186222,188.566386 87.3968775,188.580303 87.3916601,188.580303" id="Fill-1" fill-opacity="0.5" fill="#FF25F2"></path>
                        <path d="M94.6986947,185.382508 C94.6227519,185.382508 94.5178232,185.366852 94.3775318,185.246239 C86.0249788,178.02863 75.2938497,172.048457 62.4734228,167.464605 L62.0113889,167.001871 L61.3760198,167.001871 C59.0165743,165.818941 51.2234475,161.696084 44.9138149,155.85218 C44.032646,155.035727 44.8529446,153.591857 46.0060004,153.927021 C49.5086466,154.944108 52.890132,155.456131 56.1278477,155.456131 C59.8455686,155.456131 63.3603888,154.76261 66.5749159,153.395862 C68.4265299,152.609562 69.8624873,151.148296 70.6161185,149.281123 C71.3697497,147.41395 71.3517785,145.364699 70.5651035,143.511442 C69.8874151,141.915067 68.6682716,140.59123 67.132603,139.784055 C54.077391,132.934661 34.8296491,119.330392 25.5709995,105.321375 C24.8782384,104.273555 26.1652087,103.053514 27.1889878,103.781827 C32.7977434,107.768995 39.1781014,111.394326 45.3312106,112.891544 C45.914985,113.034191 46.5184697,113.107255 47.1213747,113.107255 C50.6008322,113.107255 53.6101397,110.744295 54.4379746,107.360769 C55.042039,104.894013 54.3724667,102.308964 52.6478105,100.44585 C44.3364174,91.4521063 24.7078018,66.4789567 19.9668816,45.621706 C19.7019512,44.4555927 21.1981991,43.7313383 21.9558884,44.6568067 C38.306208,64.6326589 57.0895971,82.4809777 77.9002543,97.8022343 C80.5681089,99.7824815 83.2133546,101.846809 85.7513527,103.929693 C91.7722866,108.871323 95.2256568,116.199108 95.2256568,124.035436 L95.2256568,184.868166 C95.2256568,185.368591 94.7039121,185.382508 94.6986947,185.382508" id="Fill-3" fill="#FFFFFF"></path>
                        <path d="M70.5649296,143.511442 C71.3516046,145.364699 71.3701555,147.41395 70.6159446,149.281123 C69.8623133,151.148296 68.4269357,152.609562 66.5753217,153.395862 C63.7231173,154.608365 60.6343886,155.287969 57.3775422,155.426558 C59.5265507,155.831305 61.6239644,156.035998 63.6639862,156.035998 C67.3822868,156.035998 70.897107,155.342477 74.1116341,153.97573 C75.9632481,153.189429 77.3986258,151.728163 78.152257,149.86099 C78.906468,147.993817 78.887917,145.944566 78.101242,144.09131 C77.4241333,142.494935 76.2049898,141.171097 74.6693212,140.363922 C62.5161479,133.9877 45.0011781,121.757717 35.1686093,108.7971 C32.4132175,107.306841 29.7221743,105.582315 27.1893936,103.781827 C26.1656145,103.053514 24.8780645,104.273555 25.5708255,105.321375 C34.8300549,119.330392 54.0777968,132.934661 67.1330088,139.784055 C68.6686774,140.59123 69.8878209,141.915067 70.5649296,143.511442" id="Fill-5" fill="#FDF796"></path>
                        <path d="M54.4381485,107.360885 C53.840461,109.803866 52.1024714,111.70873 49.8746215,112.582591 C50.8752119,112.927612 51.8746429,113.229723 52.867697,113.471527 C53.4508916,113.614175 54.054956,113.687238 54.6572813,113.687238 C58.1373185,113.687238 61.1460463,111.324278 61.9744609,107.940752 C62.5785254,105.473996 61.908953,102.888947 60.1842969,101.025833 C52.8729144,93.1141223 36.8089746,72.8384786 29.8204941,53.8750748 C27.1422047,50.8533857 24.5160896,47.7841476 21.9560623,44.6569226 C21.198373,43.7308744 19.7021251,44.4551288 19.9670555,45.621822 C24.7079757,66.4790727 44.3365913,91.4522223 52.6479845,100.445966 C54.3726406,102.30908 55.0422129,104.894129 54.4381485,107.360885" id="Fill-7" fill="#FDF796"></path>
                        <path d="M70.0098512,168.044241 L69.5478172,167.581506 L68.9118684,167.581506 C66.5524229,166.398577 58.7592961,162.27572 52.4502432,156.431816 C52.0653116,156.075777 52.0050211,155.599706 52.1551676,155.204237 C50.1516679,154.958953 48.1012112,154.53507 46.0061164,153.926789 C44.8530606,153.592205 44.032762,155.036075 44.9139308,155.851948 C51.2229837,161.695852 59.0161105,165.818709 61.375556,167.001639 L62.0115048,167.001639 L62.4735387,167.464373 C75.2939656,172.048225 86.024515,178.028977 94.3776478,185.246007 C94.5173594,185.36662 94.6228678,185.382276 94.6988106,185.382276 C94.7040281,185.382276 95.2257728,185.368359 95.2257728,184.868513 L95.2257728,180.659836 C88.0790298,175.712987 79.6331424,171.485174 70.0098512,168.044241" id="Fill-9" fill="#FDF796"></path>
                        <path d="M115.127783,250.043928 C109.266271,250.043928 104.496944,245.273939 104.496944,239.4109 L104.496944,88.6842252 C104.496944,82.8211859 109.266271,78.0511966 115.127783,78.0511966 L146.746091,78.0511966 C147.295083,78.0511966 147.742044,78.4976945 147.742044,79.0468289 L147.742044,247.696625 C147.742044,248.991469 146.689279,250.043928 145.394773,250.043928 L115.127783,250.043928 Z" id="Fill-11" fill-opacity="0.5" fill="#FF25F2"></path>
                        <path d="M243.561039,166.317395 C235.794,166.317395 229.474512,159.996841 229.474512,152.227197 C229.474512,144.458134 235.794,138.136999 243.561039,138.136999 C251.327499,138.136999 257.646987,144.458134 257.646987,152.227197 C257.646987,159.996841 251.327499,166.317395 243.561039,166.317395 M284.711624,78.1004274 L165.167738,78.1004274 C164.618746,78.1004274 164.172365,78.5469253 164.172365,79.0960597 L164.172365,247.795145 C164.172365,249.089988 165.22513,250.142448 166.519056,250.142448 L284.711624,250.142448 C290.573715,250.142448 295.342462,245.372458 295.342462,239.508839 L295.342462,88.7346157 C295.342462,82.8704166 290.573715,78.1004274 284.711624,78.1004274" id="Fill-13" fill-opacity="0.5" fill="#FF25F2"></path>
                        <path d="M107.59147,243.665387 C101.729958,243.665387 96.9606319,238.895398 96.9606319,233.032358 L96.9606319,82.3056838 C96.9606319,76.4426444 101.729958,71.6726551 107.59147,71.6726551 L139.209779,71.6726551 C139.75877,71.6726551 140.205732,72.119153 140.205732,72.6682875 L140.205732,241.318084 C140.205732,242.612927 139.152967,243.665387 137.85846,243.665387 L107.59147,243.665387 Z" id="Fill-15" fill="#FFFFFF"></path>
                        <path d="M109.340283,243.763906 C115.799466,241.114575 121.806585,233.945034 127.36164,222.255281 C132.916695,210.565528 137.198078,196.08451 140.20579,178.812228 C140.205751,215.664471 140.205751,235.533979 140.20579,238.420752 C140.205848,242.750911 140.373007,243.763906 136.081475,243.763906 C133.220453,243.763906 124.306723,243.763906 109.340283,243.763906 Z" id="Path-9" fill="#FFE9FD"></path>
                        <path d="M109.134733,242.890162 L109.134733,92.1634877 C109.134733,86.3004483 113.904059,81.5298792 119.765571,81.5298792 L140.20579,81.5298792 L140.20579,72.6683455 C140.20579,72.119211 139.758828,71.6721333 139.209837,71.6721333 L107.591528,71.6721333 C101.730016,71.6721333 96.9606899,76.4427024 96.9606899,82.3057418 L96.9606899,233.032416 C96.9606899,238.895456 101.730016,243.665445 107.591528,243.665445 L109.174154,243.665445 C109.155603,243.408564 109.134733,243.151682 109.134733,242.890162" id="Fill-17" fill="#F1EFF5"></path>
                        <path d="M239.024727,161.938854 C231.257687,161.938854 224.938199,155.618299 224.938199,147.848656 C224.938199,140.079592 231.257687,133.758458 239.024727,133.758458 C246.791186,133.758458 253.110674,140.079592 253.110674,147.848656 C253.110674,155.618299 246.791186,161.938854 239.024727,161.938854 M277.175311,71.7218859 L157.631425,71.7218859 C157.082434,71.7218859 156.636052,72.1683838 156.636052,72.7175182 L156.636052,241.416603 C156.636052,242.711447 157.688817,243.763906 158.982744,243.763906 L277.175311,243.763906 C283.037403,243.763906 287.80615,238.993917 287.80615,233.130298 L287.80615,82.3560742 C287.80615,76.4918752 283.037403,71.7218859 277.175311,71.7218859" id="Fill-19" fill="#FFFFFF"></path>
                        <path d="M168.809863,87.3151563 C168.809863,83.764922 170.758314,83.3189441 173.805816,83.3189441 C175.837484,83.3189441 213.837711,83.3189441 287.806497,83.3189441 L287.806497,82.3557843 C287.806497,76.4921651 283.037171,71.721596 277.175079,71.721596 L157.631773,71.721596 C157.082782,71.721596 156.63582,72.1686737 156.63582,72.7178082 L156.63582,241.416893 C156.63582,242.711157 157.688585,243.764196 158.983092,243.764196 L168.809863,243.764196 L168.809863,87.3151563 Z" id="Fill-21" fill="#F1EFF5"></path>
                        <path d="M313.331872,187.705979 C312.962592,187.705979 312.576501,187.549414 312.299397,187.287314 C312.015336,187.018836 311.870986,186.671495 311.870986,186.254571 L311.870986,126.489377 C311.870986,119.313517 315.000295,112.591694 320.455426,108.047274 C323.32908,105.653581 326.347663,103.280184 329.427696,100.993766 C350.136323,85.7490524 368.868117,67.9679983 385.173219,48.083765 C385.974387,47.1066885 387.554114,47.878492 387.263096,49.1078109 C382.785947,67.9940923 366.011275,91.3772454 354.673183,103.637382 C353.306792,105.112565 352.59548,107.034245 352.672582,109.046965 C352.749684,111.058525 353.605346,112.919899 355.081883,114.288387 C356.479579,115.58323 358.298149,116.297047 360.203677,116.297047 C360.806582,116.297047 361.410067,116.223984 361.99616,116.080177 C367.476218,114.747062 373.593385,111.670865 380.250268,106.907254 C381.330279,106.134291 382.683917,107.425076 381.951735,108.533782 C371.755684,123.972172 349.353126,138.166167 340.191869,142.981385 C338.404024,143.920771 337.093285,145.495111 336.495018,147.417951 C335.89675,149.340791 336.083419,151.381345 337.019661,153.163857 C337.826046,154.699346 339.150119,155.918807 340.746657,156.596672 C343.957126,157.96168 347.470787,158.654042 351.188508,158.654622 L351.189668,158.654622 C354.336368,158.654622 357.626258,158.168113 361.03557,157.201474 C362.250655,156.857033 363.113853,158.373966 362.182828,159.227531 C355.910877,164.974017 348.271375,169.029609 345.939756,170.202681 L345.267285,170.202681 L344.810469,170.677592 C332.6486,175.027758 322.352838,180.643774 314.198548,187.376614 C313.930139,187.597543 313.646078,187.705979 313.331872,187.705979" id="Fill-23" fill-opacity="0.5" fill="#FF25F2"></path>
                        <path d="M306.954992,184.226774 C306.585713,184.226774 306.199622,184.07021 305.922517,183.80811 C305.638456,183.539631 305.494107,183.192291 305.494107,182.775366 L305.494107,123.010172 C305.494107,115.834313 308.623416,109.11249 314.078546,104.568069 C316.9522,102.174377 319.970783,99.8009792 323.050816,97.5145621 C343.759443,82.269848 362.491238,64.4887938 378.796339,44.6045606 C379.597507,43.627484 381.177234,44.3992875 380.886217,45.6286064 C376.409067,64.5148879 359.634395,87.898041 348.296303,100.158178 C346.929912,101.63336 346.2186,103.555041 346.295702,105.567761 C346.372804,107.579321 347.228466,109.440695 348.705003,110.809182 C350.102699,112.104026 351.92127,112.817843 353.826797,112.817843 C354.429702,112.817843 355.033187,112.744779 355.61928,112.600972 C361.099339,111.267857 367.216505,108.191661 373.873388,103.42805 C374.9534,102.655087 376.307037,103.945871 375.574856,105.054578 C365.378805,120.492968 342.976246,134.686962 333.814989,139.502181 C332.027144,140.441566 330.716405,142.015906 330.118138,143.938747 C329.519871,145.861587 329.706539,147.90214 330.642781,149.684653 C331.449167,151.220142 332.773239,152.439603 334.369778,153.117468 C337.580247,154.482476 341.093907,155.174837 344.811628,155.175417 L344.812788,155.175417 C347.959488,155.175417 351.249378,154.688908 354.65869,153.722269 C355.873776,153.377828 356.736973,154.894761 355.805949,155.748326 C349.533998,161.494812 341.894496,165.550405 339.562877,166.723477 L338.890406,166.723477 L338.433589,167.198388 C326.27172,171.548553 315.975958,177.164569 307.821668,183.89741 C307.553259,184.118339 307.269198,184.226774 306.954992,184.226774" id="Fill-25" fill="#FFFFFF"></path>
                        <path d="M354.6584,153.722095 C351.249088,154.688734 347.959198,155.175823 344.813078,155.175823 L344.811338,155.175823 C343.593934,155.175243 342.400298,155.093482 341.229851,154.945616 C341.917395,155.642616 342.734215,156.209727 343.644949,156.596498 C346.370775,157.755653 349.317474,158.42482 352.420115,158.60226 C353.566215,157.705785 354.707096,156.754802 355.805659,155.748152 C356.737263,154.895167 355.873486,153.377654 354.6584,153.722095" id="Fill-27" fill="#FDF796"></path>
                        <path d="M314.769858,126.489145 C314.769858,119.313286 317.898587,112.591463 323.354298,108.047042 C326.227372,105.653349 329.245955,103.280532 332.326567,100.993535 C347.029333,90.1703094 360.72919,78.0620981 373.278309,64.8364823 C376.699215,58.3158733 379.437795,51.7372776 380.885927,45.6289544 C381.177524,44.3990556 379.597797,43.6272521 378.796629,44.6043287 C362.490948,64.4885619 343.759153,82.269616 323.051106,97.5143301 C319.970493,99.8013272 316.95191,102.174145 314.078836,104.567837 C308.623126,109.112258 305.494397,115.834081 305.494397,123.00994 L305.494397,182.775134 C305.494397,183.192059 305.638746,183.539979 305.922807,183.808458 C306.199911,184.070558 306.586002,184.226542 306.955282,184.226542 C307.269488,184.226542 307.552969,184.118687 307.821958,183.897178 C309.987198,182.109446 312.307803,180.402897 314.769858,178.775209 L314.769858,126.489145 Z" id="Fill-29" fill="#FDF796"></path>
                        <path d="M375.574914,105.054288 C376.307095,103.945582 374.953458,102.655377 373.873446,103.42834 C367.567292,107.940288 361.74694,110.935883 356.492391,112.372795 C356.878482,113.077333 357.374139,113.726205 357.980523,114.288097 C359.378219,115.58352 361.196789,116.296757 363.101737,116.296757 C363.705222,116.296757 364.308127,116.223694 364.894799,116.079887 C365.504081,115.931441 366.122639,115.75864 366.747573,115.567284 C370.138913,112.199414 373.192279,108.661643 375.574914,105.054288" id="Fill-31" fill="#FDF796"></path>
                        <path d="M341.803596,146.064251 L341.803596,146.064251 C339.819807,147.106852 339.05632,149.560851 340.09865,151.545737 C340.534017,152.374948 341.24301,153.027878 342.105049,153.393775 C351.541092,157.405877 362.075697,153.943489 369.788243,149.889056 C371.354637,149.066224 373.04335,150.755958 372.210878,152.316961 C365.778925,164.374144 348.553234,172.822812 346.747997,173.681596 C346.747417,173.682175 346.747417,173.682175 346.746837,173.682755 C333.087561,178.475359 323.343689,184.336659 316.4126,190.059371 C313.217204,192.698347 308.392804,190.399753 308.392804,186.25486 L308.392804,126.489087 C308.392804,118.343109 311.971973,110.586803 318.230011,105.373795 C321.46135,102.681471 324.557615,100.276181 327.354746,98.1996754 C349.52194,81.8810469 369.372586,62.6491645 386.375667,41.0322874 C388.224962,38.6809251 391.998335,40.1601669 391.754275,43.1418451 C389.912516,65.5948909 367.727351,94.6450882 357.22637,106.000052 C355.703455,107.644556 355.801427,110.212788 357.446082,111.7361 C358.446093,112.662728 359.844369,113.025145 361.168441,112.700999 C369.616067,110.645949 378.708918,104.147375 385.524063,98.3463819 C387.421475,96.7314511 390.240056,98.5922456 389.501497,100.972021 C382.182578,124.566826 342.287659,145.811428 341.803596,146.064251 L341.803596,146.064251 Z M298.821108,239.509303 C298.821108,247.303301 292.503939,253.622116 284.711972,253.622116 L166.519404,253.622116 C163.301979,253.622116 160.693835,251.013293 160.693835,247.795029 L160.693835,79.0965236 C160.693835,76.6245488 162.697334,74.6211069 165.168085,74.6211069 L284.711392,74.6211069 C292.503939,74.6211069 298.821108,80.9399221 298.821108,88.7339199 L298.821108,239.509303 Z M145.395121,253.523539 L115.127551,253.523539 C107.335583,253.523539 101.018994,247.205303 101.018994,239.410726 L101.018994,88.6846311 C101.018994,80.8900535 107.335583,74.5712383 115.12813,74.5712383 L146.74586,74.5712383 C149.21719,74.5712383 151.22011,76.5752601 151.22011,79.046655 L151.22011,247.696451 C151.22011,250.914715 148.611966,253.523539 145.395121,253.523539 L145.395121,253.523539 Z M91.3968623,188.066366 C91.3968623,191.487004 87.3846455,193.313007 84.7962121,191.076458 C77.8042533,185.034819 67.7305224,178.758335 53.2637012,173.678696 C53.2631215,173.678116 53.2625418,173.678116 53.261962,173.678116 C51.3848405,172.78802 32.8518889,163.732231 27.0912476,150.899185 C26.5695029,149.736551 27.8327048,148.578556 28.9457602,149.197274 C36.7435246,153.529464 47.9372675,157.630866 57.9072291,153.392035 C59.9704395,152.515855 60.9321889,150.13318 60.0568173,148.069432 C59.6904365,147.207169 59.0376759,146.498571 58.2086816,146.062511 C44.9065104,139.083227 15.3751804,119.382232 10.1994729,99.4011607 C9.71193143,97.5194909 11.9189115,96.1254897 13.3850142,97.4017779 C20.3021895,103.424281 29.9341765,110.540414 38.8461558,112.708538 C41.0229907,113.241436 43.2195359,111.908901 43.7528749,109.731499 C44.0769363,108.406501 43.7146136,107.007861 42.7882269,106.00759 C31.6489775,93.9538863 7.36234111,62.0049318 8.15771193,39.1343814 C8.21568356,37.4597244 10.3478803,36.7853386 11.368181,38.1149745 C28.866339,60.9199999 49.4972841,81.1486743 72.6552128,98.1979358 C75.1248044,100.031477 77.8274419,102.120739 80.6506605,104.437889 C87.4687044,110.03303 91.3968623,118.411534 91.3968623,127.233057 L91.3968623,188.066366 Z M397.066795,84.0439523 C396.313164,81.9326551 393.990821,80.8326466 391.880653,81.5864742 C391.258617,81.8085634 390.700351,82.1790987 390.253969,82.6661873 C385.98088,87.2135075 381.364019,91.4245046 376.443387,95.2614873 C376.422517,95.2777235 376.394111,95.2522094 376.409763,95.2307543 C390.166432,76.4465295 408.076188,45.4955269 396.023306,24.1969971 C394.920686,22.2451634 392.444717,21.5574406 390.493972,22.6603484 C389.982082,22.9497023 389.539758,23.3463316 389.196566,23.8235624 C370.69434,49.8271364 348.186853,72.7318989 322.512955,91.6842852 C318.29262,94.816729 313.435177,98.6629895 308.431645,103.105934 C308.416573,103.11927 308.392804,103.108833 308.392804,103.089117 L308.392804,88.6846311 C308.392804,75.6022426 297.790372,64.9964677 284.711392,64.9964677 L115.078275,64.9964677 C101.999294,64.9964677 91.3968623,75.6022426 91.3968623,88.6846311 L91.3968623,102.893122 C91.3968623,102.912838 91.3730939,102.923275 91.358601,102.909938 C86.4310121,98.5481757 81.6524104,94.7680201 77.4923659,91.6802262 C51.8149901,72.7301593 29.3034451,49.8271364 10.7971604,23.8241423 C9.48816093,22.0045184 6.95248166,21.5910729 5.13333178,22.8998337 C4.65622523,23.2431152 4.25969926,23.6861339 3.9704208,24.1975769 C-8.08651964,45.5204612 9.88526662,76.5242318 23.6465731,95.3003384 C23.6622254,95.3217935 23.6338193,95.3473076 23.6129495,95.3310713 C18.6905781,91.4511785 14.0580648,87.2169867 9.75135214,82.6621283 C8.23423448,81.010086 5.6660911,80.9010709 4.01447924,82.4185839 C3.52983638,82.8639221 3.16055708,83.420015 2.93852572,84.0398932 C-6.29403671,109.877625 24.5236839,134.421093 42.4925716,146.132095 C42.5146008,146.146592 42.4960499,146.180804 42.4711221,146.172686 C35.8664138,144.05675 29.7173626,140.719033 24.3439719,136.332336 C22.6326492,134.882667 20.0708827,135.095479 18.6215919,136.807247 C18.1734711,137.336086 17.8685403,137.971621 17.7352056,138.651806 C12.7658771,163.811093 48.5135055,180.44169 50.0300434,181.135211 C50.1436678,181.186239 50.26193,181.232629 50.3755544,181.274379 C58.4568002,184.096594 65.0116528,187.30442 70.3212748,190.591689 C83.4553282,198.723169 91.3968623,213.118958 91.3968623,228.569525 L91.3968623,239.468133 C91.4380222,252.525007 102.051469,263.147598 115.055666,263.147598 L138.567801,263.147598 C138.579975,263.147598 138.59041,263.157456 138.59041,263.170213 L138.59041,277.023245 C138.59041,279.5822 140.516228,281.830346 143.069878,281.990389 C145.847299,282.16435 148.162686,279.953895 148.162686,277.212282 L148.162686,263.170213 C148.162686,263.157456 148.173121,263.147598 148.185875,263.147598 L251.654227,263.147598 C251.666981,263.147598 251.676836,263.157456 251.676836,263.170213 L251.676836,277.023245 C251.676836,279.5822 253.602654,281.830346 256.156304,281.990389 C258.934305,282.16435 261.249112,279.953895 261.249112,277.212282 L261.249112,263.170213 C261.249112,263.157456 261.259547,263.147598 261.272301,263.147598 L284.711392,263.147598 C297.790372,263.147598 308.392804,252.541823 308.392804,239.459435 L308.392804,226.560284 C308.392804,213.646637 314.465913,201.43289 324.89501,193.820391 C330.895074,189.440652 338.922406,185.024962 349.627448,181.285397 C349.74513,181.243646 349.861074,181.197257 349.975278,181.146229 C351.498772,180.450388 387.246401,163.82211 382.277072,138.651226 C381.846343,136.450049 379.713567,135.014297 377.512384,135.445139 C376.832376,135.578508 376.197587,135.883519 375.668306,136.331756 C370.295495,140.719033 364.145864,144.05675 357.541156,146.172106 C357.516228,146.180224 357.497677,146.146012 357.519706,146.131515 C375.479318,134.425152 406.299358,109.881684 397.066795,84.0439523 L397.066795,84.0439523 Z" id="Fill-33" fill="#1B005C"></path>
                        <path d="M234.329404,31.5818984 C224.314225,34.400054 210.899589,35.9517792 196.557406,35.9517792 C182.214644,35.9517792 168.800588,34.400054 158.785409,31.5818984 C149.451975,28.9562588 145.973677,25.9328301 145.973677,24.6443648 C145.973677,23.3553195 149.451975,20.3324707 158.785409,17.7062512 C168.800008,14.8886755 182.214644,13.3369503 196.557406,13.3369503 C210.900168,13.3369503 224.314225,14.8886755 234.329404,17.7062512 C243.662837,20.3324707 247.140556,23.3553195 247.140556,24.6443648 C247.140556,25.9328301 243.662837,28.9562588 234.329404,31.5818984 M196.957411,5.79867406 C161.772687,5.79867406 133.249483,15.1449769 133.249483,26.6739007 C133.249483,38.2028244 161.772687,47.5491273 196.957411,47.5491273 C232.142134,47.5491273 260.665338,38.2028244 260.665338,26.6739007 C260.665338,15.1449769 232.142134,5.79867406 196.957411,5.79867406" id="Fill-38" fill-opacity="0.15" fill="#1B005C"></path>
                        <path d="M234.329404,25.7832243 C224.314225,28.6013799 210.899589,30.1531051 196.557406,30.1531051 C182.214644,30.1531051 168.800588,28.6013799 158.785409,25.7832243 C149.451975,23.1575847 145.973677,20.1341561 145.973677,18.8456907 C145.973677,17.5566455 149.451975,14.5337967 158.785409,11.9075772 C168.800008,9.09000146 182.214644,7.53827628 196.557406,7.53827628 C210.900168,7.53827628 224.314225,9.09000146 234.329404,11.9075772 C243.662837,14.5337967 247.140556,17.5566455 247.140556,18.8456907 C247.140556,20.1341561 243.662837,23.1575847 234.329404,25.7832243 M196.957411,0 C161.772687,0 133.249483,9.34630285 133.249483,20.8752266 C133.249483,32.4041504 161.772687,41.7504532 196.957411,41.7504532 C232.142134,41.7504532 260.665338,32.4041504 260.665338,20.8752266 C260.665338,9.34630285 232.142134,0 196.957411,0" id="Fill-40" fill="url(#linearGradient-2)"></path>
                        <path d="M140.205732,81.5298792 C128.767626,81.5298792 120.763858,81.5298792 116.194428,81.5298792 C109.340283,81.5298792 109.340283,87.1428627 109.340283,93.7756953 C109.340283,98.1975838 109.340283,148.193654 109.340283,243.763906" id="Path-6" stroke="#1B005C" stroke-width="2" stroke-linecap="round"></path>
                        <path d="M288.3359,83.1629265 C217.928277,83.1629265 180.803827,83.1629265 176.962552,83.1629265 C171.200638,83.1629265 168.514429,83.1629265 168.514429,90.5724848 C168.514429,95.5117797 168.27996,146.575684 167.811021,243.764196" id="Path-8" stroke="#1B005C" stroke-width="2"></path>
                        <path d="M288.3359,83.764922 L288.3359,231.485787 C288.3359,238.314901 285.64952,242.374768 280.276759,243.665387 L280.276759,243.665387 L167.811021,243.665387 C195.313819,222.205406 219.768832,197.905808 241.17606,170.766592 C242.094255,170.92006 243.037792,171 244,171 C253.388841,171 261,163.388841 261,154 C261,151.197724 260.32197,148.553809 259.121015,146.223362 C274.714579,122.986118 284.453022,102.166776 288.3359,83.764922 L288.3359,83.764922 Z" id="Combined-Shape" fill-opacity="0.1" fill="#FF25F2"></path>
                        <path d="M243.561039,138.137173 C235.794,138.137173 229.474512,144.457728 229.474512,152.227371 C229.474512,159.996435 235.794,166.317569 243.561039,166.317569 C251.327499,166.317569 257.646987,159.996435 257.646987,152.227371 C257.646987,144.457728 251.327499,138.137173 243.561039,138.137173 M243.536111,204.146379 C240.896663,204.146379 238.749973,201.99855 238.749973,199.358994 L238.749973,175.575153 L235.667042,174.478043 C226.24839,171.12525 219.89296,162.176156 219.85296,152.208816 C219.85296,139.178615 230.465827,128.562403 243.511183,128.562403 C256.55654,128.562403 267.169987,139.178615 267.169987,152.227371 C267.169987,162.179636 260.834267,171.121771 251.405181,174.478043 L248.322249,175.575153 L248.322249,199.358994 C248.322249,201.99855 246.17556,204.146379 243.536111,204.146379" id="Fill-36" fill="#1B005C"></path>
                    </g>
                </g>
            </g>
        </g>
    </g>
</svg>