<?xml version="1.0" encoding="UTF-8"?>
<svg width="1270px" height="440px" viewBox="0 0 1270 440" version="1.1" xmlns="http://www.w3.org/2000/svg" xmlns:xlink="http://www.w3.org/1999/xlink">
    <title>ichi_logo_dark_horizontal</title>
    <defs>
        <linearGradient x1="50%" y1="0%" x2="50%" y2="100%" id="linearGradient-1">
            <stop stop-color="#006EF5" offset="0%"></stop>
            <stop stop-color="#0062DB" offset="100%"></stop>
        </linearGradient>
    </defs>
    <g id="ichi_logo_dark_horizontal" stroke="none" stroke-width="1" fill="none" fill-rule="evenodd">
        <g id="Group" transform="translate(20.000000, 20.000000)">
            <path d="M146.704018,178.287107 L146.704018,94.2459518 C174.313465,99.1399536 205.240364,102.144192 240.004907,102.144192 C274.769451,102.144192 305.686535,99.1399536 333.305797,94.2459518 L333.305797,178.287107 L146.704018,178.287107 Z M240.004907,297.846117 C205.240364,297.846117 174.313465,300.850355 146.704018,305.754048 L146.704018,221.703202 L333.305797,221.703202 L333.305797,305.754048 C305.686535,300.850355 274.769451,297.846117 240.004907,297.846117 L240.004907,297.846117 Z M396.435538,78.0618271 C396.818321,77.9261518 397.191289,77.7807854 397.574072,77.6451101 C425.428893,67.9733997 448.209386,56.4894549 466.337593,45.1314944 C474.945302,39.7432469 480,30.2556672 480,20.1963131 C480,3.91527749 461.616604,-5.59168437 447.993457,3.57608925 C427.362437,17.463425 398.212044,32.329561 358.716696,42.9122342 C357.519272,43.2320402 356.380738,43.5809196 355.1735,43.8910345 C349.706574,45.296243 344.00409,46.5948494 338.144566,47.8159271 C336.368061,48.1938797 334.54248,48.5330679 332.73653,48.8819472 C327.878131,49.8413654 322.882323,50.7135637 317.75892,51.5276155 C316.198344,51.7698928 314.677027,52.0412434 313.087005,52.2738297 C306.422656,53.2429389 299.552193,54.1054462 292.436356,54.822587 C291.209488,54.9388801 289.933545,55.0261 288.687046,55.1423931 C282.533074,55.7141675 276.192618,56.1696489 269.695123,56.5282193 C267.859728,56.6251302 266.024333,56.7317323 264.159493,56.809261 C256.327165,57.1484492 248.327983,57.3810355 240.004907,57.3810355 C231.701462,57.3810355 223.731725,57.1484492 215.928842,56.809261 C213.975667,56.7317323 212.071567,56.6251302 210.167468,56.5185282 C203.915346,56.1696489 197.820264,55.7335497 191.892036,55.1811574 C190.370719,55.0454821 188.819957,54.9388801 187.328085,54.7935137 C180.447807,54.0957551 173.822718,53.2623211 167.364482,52.3222851 C165.234639,52.0121702 163.19313,51.6632908 161.102546,51.3241026 C156.774154,50.6263439 152.543912,49.8801298 148.411819,49.0854602 C145.928637,48.6105966 143.435641,48.1357331 141.021163,47.6221052 C136.830181,46.7305247 132.766793,45.7807976 128.781924,44.8019972 C125.091504,43.8910345 121.518863,42.9413075 117.995297,41.9625071 C80.2470095,31.4670538 52.1762601,17.0757813 32.1145077,3.61485362 C18.4422861,-5.57230219 -1.36424205e-12,3.88620421 -1.36424205e-12,20.2156953 C-1.36424205e-12,30.2653583 5.04488294,39.7335558 13.6329619,45.1218033 C31.7415397,56.4603817 54.4729578,67.9249442 82.2688887,77.5869636 C82.7301912,77.7517122 83.1718638,77.9261518 83.6527962,78.0909004 C89.2178714,80.0000456 95.0381352,81.8025889 100.985993,83.5663677 L100.985993,178.287107 L80.7868316,178.287107 C71.7963398,178.287107 64.503834,185.487589 64.503834,194.36463 C64.503834,209.463352 76.9099274,221.703202 92.1918004,221.703202 L100.985993,221.703202 L100.985993,316.423941 C95.0381352,318.18772 89.2178714,319.999954 83.6527962,321.899409 C83.1718638,322.064157 82.7301912,322.238597 82.2688887,322.413036 C54.4729578,332.075056 31.7415397,343.529927 13.6329619,354.878197 C5.04488294,360.256753 -1.36424205e-12,369.724951 -1.36424205e-12,379.784305 C-1.36424205e-12,396.104105 18.4422861,405.562611 32.1145077,396.385146 C52.1762601,382.914528 80.2470095,368.532946 117.995297,358.027802 C121.518863,357.049001 125.091504,356.099274 128.781924,355.188312 C132.766793,354.209511 136.830181,353.259784 141.021163,352.368204 C143.435641,351.854576 145.928637,351.379712 148.411819,350.904849 C152.543912,350.110179 156.774154,349.363965 161.102546,348.675897 C163.19313,348.336709 165.234639,347.978139 167.364482,347.668024 C173.822718,346.727988 180.447807,345.894554 187.328085,345.206486 C188.819957,345.051429 190.370719,344.944827 191.892036,344.809151 C197.820264,344.26645 203.915346,343.82066 210.167468,343.471781 C212.071567,343.37487 213.975667,343.268268 215.928842,343.181048 C223.731725,342.84186 231.701462,342.609273 240.004907,342.609273 C248.327983,342.609273 256.327165,342.84186 264.159493,343.181048 C266.024333,343.258577 267.859728,343.365179 269.695123,343.46209 C276.192618,343.82066 282.533074,344.276141 288.687046,344.847916 C289.933545,344.964209 291.209488,345.051429 292.436356,345.167722 C299.552193,345.884863 306.422656,346.74737 313.087005,347.72617 C314.677027,347.958757 316.198344,348.220416 317.75892,348.472384 C322.882323,349.276745 327.878131,350.158635 332.73653,351.108362 C334.54248,351.457241 336.368061,351.80612 338.144566,352.174382 C344.00409,353.39546 349.706574,354.694066 355.1735,356.099274 C356.380738,356.409389 357.519272,356.76796 358.716696,357.078075 C398.212044,367.670439 427.362437,382.536575 447.993457,396.423911 C461.616604,405.591684 480,396.084723 480,379.803687 C480,369.734642 474.945302,360.247062 466.337593,354.858815 C448.209386,343.500854 425.428893,332.016909 397.574072,322.345199 C397.191289,322.209523 396.818321,322.064157 396.435538,321.938173 C390.850833,320.019337 385.001125,318.197411 379.014007,316.423941 L379.014007,221.703202 L399.213168,221.703202 C408.20366,221.703202 415.496166,214.50272 415.496166,205.625679 C415.496166,190.526957 403.099888,178.287107 387.798385,178.287107 L379.014007,178.287107 L379.014007,83.5663677 C385.001125,81.8025889 390.850833,79.9806635 396.435538,78.0618271 L396.435538,78.0618271 Z" id="Fill-4" fill="url(#linearGradient-1)"></path>
            <path d="M655.428042,328.655462 C667.225816,328.655462 673.124703,325.294118 673.124703,318.571429 L673.124703,318.571429 L673.124703,101.428571 C673.124703,94.7058824 667.225816,91.3445378 655.428042,91.3445378 L655.428042,91.3445378 L647.08056,91.3445378 C635.060187,91.3445378 629.05,94.7058824 629.05,101.428571 L629.05,101.428571 L629.05,318.571429 C629.05,325.294118 635.060187,328.655462 647.08056,328.655462 L647.08056,328.655462 L655.428042,328.655462 Z M834.04717,330 C844.954546,330 856.084522,328.879552 867.437097,326.638655 C878.789672,324.397759 888.027551,321.260504 895.150736,317.226891 C902.719119,312.969188 906.503311,308.263305 906.503311,303.109244 C906.503311,301.316527 905.612913,298.291317 903.832117,294.033613 C902.051321,289.77591 899.880975,286.022409 897.321081,282.773109 C894.761187,279.52381 892.256942,277.89916 889.808347,277.89916 C888.47275,277.89916 886.024156,278.795518 882.462564,280.588235 C875.561979,283.94958 868.327495,286.7507 860.759111,288.991597 C853.190728,291.232493 844.286748,292.352941 834.04717,292.352941 C812.455018,292.352941 796.372203,285.518207 785.798727,271.848739 C775.22525,258.179272 769.938512,237.563025 769.938512,210 C769.938512,181.988796 775.22525,161.260504 785.798727,147.815126 C796.372203,134.369748 812.677617,127.647059 834.714969,127.647059 C844.064148,127.647059 852.24468,128.543417 859.256565,130.336134 C866.268449,132.128852 872.111686,134.145658 876.786276,136.386555 C881.460866,138.627451 884.13206,139.747899 884.799859,139.747899 C887.025854,139.747899 889.530098,138.067227 892.312592,134.705882 C895.095086,131.344538 897.54368,127.478992 899.658376,123.109244 C901.773071,118.739496 902.830419,115.210084 902.830419,112.521008 C902.830419,108.935574 900.047925,105.57423 894.482937,102.436975 C888.250151,98.8515406 879.56877,95.8823529 868.438795,93.5294118 C857.308819,91.1764706 846.290143,90 835.382767,90 C761.70233,90 724.862111,129.887955 724.862111,209.663866 C724.862111,250.896359 733.710441,281.260504 751.407102,300.756303 C769.103763,320.252101 796.650453,330 834.04717,330 Z M969.610272,328.319328 C981.408046,328.319328 987.306933,325.070028 987.306933,318.571429 L987.306933,226.2703 L1088.14451,226.2703 L1088.14451,318.571429 C1088.14451,325.070028 1094.0434,328.319328 1105.84117,328.319328 L1114.52255,328.319328 C1126.32033,328.319328 1132.21921,325.070028 1132.21921,318.571429 L1132.21921,101.428571 C1132.21921,94.929972 1126.32033,91.6806723 1114.52255,91.6806723 L1105.84117,91.6806723 C1094.0434,91.6806723 1088.14451,94.929972 1088.14451,101.428571 L1088.14451,188.287107 L987.306933,188.287107 L987.306933,101.428571 C987.306933,94.929972 981.408046,91.6806723 969.610272,91.6806723 L960.928891,91.6806723 C949.131117,91.6806723 943.23223,94.929972 943.23223,101.428571 L943.23223,318.571429 C943.23223,325.070028 949.131117,328.319328 960.928891,328.319328 L969.610272,328.319328 Z M1211.35334,328.655462 C1223.15111,328.655462 1229.05,325.294118 1229.05,318.571429 L1229.05,318.571429 L1229.05,101.428571 C1229.05,94.7058824 1223.15111,91.3445378 1211.35334,91.3445378 L1211.35334,91.3445378 L1203.00586,91.3445378 C1190.98548,91.3445378 1184.9753,94.7058824 1184.9753,101.428571 L1184.9753,101.428571 L1184.9753,318.571429 C1184.9753,325.294118 1190.98548,328.655462 1203.00586,328.655462 L1203.00586,328.655462 L1211.35334,328.655462 Z" id="ICHI" fill="#FFFFFF" fill-rule="nonzero"></path>
        </g>
    </g>
</svg>