<?xml version="1.0" encoding="UTF-8"?>
<svg width="135px" height="136px" viewBox="0 0 135 136" version="1.1" xmlns="http://www.w3.org/2000/svg" xmlns:xlink="http://www.w3.org/1999/xlink">
    <title>1244A99A-8029-4385-BF21-551EAB56ADC7</title>
    <defs>
        <path d="M55,0 C85.3756612,0 110,24.6243388 110,55 C110,85.3756612 85.3756612,110 55,110 C24.6243388,110 0,85.3756612 0,55 C0,50.0244015 0.660699151,45.2031176 1.89915057,40.6190951 C5.92160342,42.7767526 10.5179493,44 15.4,44 C31.1953438,44 44,31.1953438 44,15.4 C44,10.5179493 42.7767526,5.92160342 40.6200349,1.90073948 C45.2031176,0.660699151 50.0244015,0 55,0 Z" id="path-1"></path>
        <polygon id="path-3" points="0 0 76.5076472 0 76.5076472 72.0077193 0 72.0077193"></polygon>
    </defs>
    <g id="New-Site" stroke="none" stroke-width="1" fill="none" fill-rule="evenodd" opacity="0.75">
        <g id="Assets_Dark" transform="translate(-197.000000, -3228.000000)">
            <g id="img_bubbles_onetokens" transform="translate(138.000000, 2553.000000)">
                <g id="Group-35" transform="translate(-0.405177, 15.935960)">
                    <g id="Group-31-Copy-8" transform="translate(148.377028, 725.075735) rotate(-345.000000) translate(-148.377028, -725.075735) translate(58.877028, 647.075735)">
                        <g id="Fill-1" transform="translate(14.242861, 30.251172)">
                            <mask id="mask-2" fill="white">
                                <use xlink:href="#path-1"></use>
                            </mask>
                            <use id="Mask" fill="#003B84" xlink:href="#path-1"></use>
                            <g id="Group-30" mask="url(#mask-2)">
                                <g transform="translate(13.664109, 15.678379)">
                                    <polygon id="Fill-1" fill="#FFFFFF" points="18.2059971 39.6773832 20.2266371 24.4592698 2.67227907 12.2725013 18.7111571 17.702827 22.4997609 11.8935832 36.3286362 3.30586325 66.8275989 20.1025775 68.4061999 45.7393032 54.8300008 64.619586 44.095399 66.2615003 49.652159 56.0951794 49.652159 46.3075841 45.610879 38.6670632 41.506478 35.9519003 35.1918818 42.4558594 35.1918818 49.3385441 30.2667162 53.948105 24.0152409 54.7059412 21.2369571 56.2845422 16.6905172 54.8323756 14.796119 48.0126194 18.2059971 43.2135032"></polygon>
                                    <g id="Group-29" stroke-width="1" fill="none">
                                        <path d="M46.2422039,12.1461632 C42.8956392,11.451448 39.2332773,11.6410032 39.2332773,11.6410032 C39.2332773,11.6410032 38.033402,17.1977632 30.5822439,18.6501223 C30.6455573,18.6501223 40.4329601,21.996687 46.2422039,12.1461632" id="Fill-2" fill="#94A6C3"></path>
                                        <path d="M49.2731639,62.5358635 C53.3144439,59.3788541 56.3454039,55.0215845 57.734642,50.0962264 C57.7977629,49.9068635 58.3660439,49.5910664 58.744962,49.3385826 C59.3763639,48.9596645 60.0077657,48.6438673 60.1342001,48.1387073 C60.3866839,46.6865407 60.5129257,45.1712531 60.5129257,43.6557731 C60.5129257,43.0871073 59.9446448,42.5188264 59.3763639,41.9505454 C58.9343248,41.5716273 58.4922858,41.1297807 58.4922858,40.8139835 C57.8608839,35.0676683 55.208842,29.7004636 50.9781992,25.7854255 L50.5361601,26.2274645 C54.640561,30.0793817 57.2926029,35.3203445 57.8608839,40.8771045 C57.9240048,41.3822645 58.4291648,41.8874245 58.9343248,42.3925845 C59.3763639,42.7715026 59.8815239,43.3397835 59.8815239,43.5922673 C59.8815239,45.0446264 59.755282,46.4969854 59.5026057,47.9493445 C59.4394848,48.2022131 58.8712039,48.4545045 58.4291648,48.7073731 C57.7977629,49.0227854 57.229482,49.3385826 57.1032401,49.8437426 C55.5877601,55.2109473 52.114761,59.8840141 47.5052001,62.9149741 C48.3259648,61.1466254 50.9148858,55.4005026 52.3041239,52.4957845 L52.0516401,43.1506131 L44.0322011,35.3834654 L39.4857611,36.0150598 L34.497282,44.0974273 C34.497282,44.0974273 36.8337192,47.0652664 33.550083,50.5382654 C30.3297601,53.9481435 27.8039602,54.7057873 27.8039602,54.7057873 L25.467523,53.4429835 C26.1620458,52.5589054 27.5512839,51.2331731 28.6247249,50.3489026 C30.456002,48.8334226 32.2872792,48.7073731 32.2872792,47.0652664 C32.3504001,43.6557731 28.6878458,44.6025873 28.6878458,44.6025873 L27.3619211,45.8655835 L26.7936402,50.5382654 L24.0151639,54.0112645 L23.6995592,53.9481435 L19.1531192,52.9378235 C19.1531192,52.9378235 21.931403,51.4854645 22.3734421,49.8437426 C22.8154811,48.2653341 21.4893639,43.0239864 21.426243,42.7085741 C21.4893639,42.7715026 22.7523602,43.8449435 23.3206411,45.6129073 C24.3309611,42.8346235 25.6568858,40.1827741 26.0358039,39.9299054 C26.414722,39.6776141 31.529443,36.9620664 31.529443,36.9620664 L29.8246001,41.4453854 L31.0874039,40.7508626 L34.1183639,33.2997045 C34.1183639,33.2997045 37.086203,31.8473455 39.2962058,31.8473455 C43.2743648,31.7842245 49.146922,26.9221798 46.4948801,18.2080255 C47.2525239,18.5238227 60.3866839,25.0909026 62.6600001,37.9723864 C64.3648429,47.8862235 58.744962,57.1684663 49.2731639,62.5358635" id="Fill-4" fill="#94A6C3"></path>
                                        <path d="M34.2448367,13.5354398 C35.6971958,11.8304046 35.1287224,9.30460456 35.1287224,9.30460456 L30.8980796,15.5560798 C30.8349586,15.5560798 32.4135596,15.6192008 34.2448367,13.5354398" id="Fill-6" fill="#1B314F"></path>
                                        <path d="M20.0370241,47.6969762 L20.5421841,45.1711762 C20.5421841,45.1711762 18.4584232,48.8333456 18.2690604,49.3385056 C18.0796975,49.906979 18.3953023,50.917299 19.2162594,50.8539856 C20.0370241,50.7910571 21.0473441,49.5913743 21.0473441,48.7072962 C21.0473441,47.5707343 20.0370241,47.6969762 20.0370241,47.6969762" id="Fill-8" fill="#1B314F"></path>
                                        <g id="Group-12">
                                            <mask id="mask-4" fill="white">
                                                <use xlink:href="#path-3"></use>
                                            </mask>
                                            <g id="Clip-11"></g>
                                            <path d="M48.6418005,62.5990037 C52.7462014,59.4418018 55.9034033,55.0216037 57.2926414,50.0331247 C57.3557624,49.8437618 57.9240433,49.5279647 58.3029614,49.2756733 C58.9343633,48.9596837 59.5659576,48.5809581 59.6921995,48.0757981 C59.9446833,46.623439 60.0711176,45.107959 60.0711176,43.592479 C60.0711176,43.0241981 59.5028367,42.4557247 58.9343633,41.8874437 C58.6187586,41.5087181 58.1135986,41.066679 58.1135986,40.7508818 C57.6084386,36.1413209 55.7771614,31.7842438 52.9357567,28.1850028 C51.6727605,20.6076028 46.6211605,18.2713581 46.4949186,18.2080447 C46.6211605,18.3976 49.9046043,23.1334028 47.6314805,28.6901628 C45.2950433,34.3100438 39.2964367,33.4261581 38.7912767,33.489279 C38.2861167,33.489279 36.3285977,36.015079 33.8659186,40.6879533 C33.5501215,40.561519 32.2241967,40.2457218 30.7085243,40.4983981 C31.8452786,37.3410037 33.5501215,32.8576847 33.8659186,32.478959 C33.9921605,32.3525247 34.9393596,32.1000409 35.5707615,31.9106781 C36.7706367,31.5948809 37.3389177,31.4055181 37.5282805,31.1528419 C37.6545224,30.963479 38.2859243,29.51112 38.9175186,27.99564 C39.4857996,27.99564 40.9381586,27.8693981 41.0644005,27.8060847 C41.1906424,27.6798428 42.3905177,24.5857619 42.3905177,24.2068438 C42.3905177,23.8912391 39.9278386,17.7661981 38.9806396,15.429761 C39.4226786,14.924601 39.8647177,14.2931991 40.3067567,13.5984838 C53.2513614,14.9877219 63.3545614,25.975 63.3545614,39.2985228 C63.3545614,49.5279647 57.3557624,58.4314818 48.6418005,62.5990037 M52.6199595,37.7830428 C53.2513614,34.56272 53.3144824,31.7842438 53.1251195,29.51112 C55.5877986,32.7945638 57.1032786,36.7727228 57.5453176,40.8771237 C57.6084386,41.3822837 58.1135986,41.8874437 58.6187586,42.3926037 C59.0607976,42.7715218 59.5659576,43.2766818 59.5659576,43.592479 C59.5659576,45.0448381 59.4395233,46.4970047 59.1870395,47.9493637 C59.1239186,48.138919 58.5556376,48.4545237 58.1135986,48.7071999 C57.4820042,49.0228047 56.9137233,49.3386018 56.7874814,49.8437618 C55.3982433,54.705999 52.4304043,58.9997628 48.4524376,62.0307227 C54.3248024,55.9056818 57.1663995,45.8024818 52.6199595,37.7830428 M27.4250805,49.8437618 C27.9933615,49.0228047 27.9302405,47.633759 27.9933615,47.1917199 C28.0564824,46.7498733 28.1829167,45.9287237 28.6880767,45.8024818 C29.1932367,45.6762399 30.3929196,45.8656028 30.3929196,46.7498733 C30.3929196,47.5706381 29.5088415,47.7601933 28.8774396,48.3282818 C28.4354005,48.7705133 27.5513224,49.7175199 27.4250805,49.8437618 M33.3607586,49.086118 C33.1080824,49.4017228 32.0346415,50.3489218 31.2769977,51.0434447 C30.5191615,51.7381599 29.6983967,52.4326828 29.0668024,53.0640847 C28.8143186,53.3169533 28.3091586,53.4430028 27.5513224,53.4430028 L26.8567996,53.4430028 L26.4778815,53.4430028 L26.2253977,53.4430028 L25.6569243,53.4430028 C26.6041234,52.180199 29.3825996,49.2756733 30.3297986,48.644079 C31.4663605,47.8862428 32.0346415,47.128599 31.3401186,45.8024818 C30.6454034,44.4763647 28.8143186,44.7921618 28.8143186,44.7921618 C28.8143186,44.7921618 29.8877596,44.3501228 30.8349586,44.3501228 C29.6350834,44.0345181 28.1196034,44.3501228 27.4250805,45.0448381 C26.6674368,45.7395533 26.7936786,48.2020399 26.4778815,49.7808333 C26.1622768,51.4223628 25.0886434,52.2433199 23.4469215,53.7587999 C22.5628434,54.5795647 21.9314415,54.8324333 21.4262815,54.8324333 C20.3528405,54.642878 19.0898443,54.3272733 18.2059587,54.0112837 C17.5743643,53.190519 16.6273577,50.4751637 16.3746815,49.3386018 C16.5640443,48.7071999 17.3218806,47.3810828 17.7007987,46.623439 C18.4584424,45.1710799 18.9004815,44.3501228 19.0267234,43.592479 C19.2793996,42.5190381 20.1003568,35.8886447 20.4159615,33.1103609 C21.2369187,34.1838019 22.3734805,35.9519581 22.1209968,37.08852 C23.9520815,34.499599 22.6261568,31.973799 21.9945624,30.963479 C21.4262815,29.953159 20.6686377,27.932519 21.3000396,25.7854447 C21.9314415,23.6385628 24.2047577,17.7028847 24.2047577,17.7028847 C24.2047577,17.7028847 24.9624015,19.0290019 26.0358424,18.7765181 C27.1092834,18.5238419 35.7601243,5.51592382 35.7601243,5.51592382 C35.7601243,5.51592382 38.0965615,10.6306447 35.6338824,14.35632 C33.1080824,18.0818028 30.6454034,18.7765181 30.6454034,18.7765181 C30.6454034,18.7765181 34.1184024,19.40792 37.3389177,17.0714828 C38.6648424,20.1655638 39.9278386,23.3860791 39.9909596,23.8281181 C39.8015967,24.2699647 37.2756043,30.3318847 37.0231205,30.7108028 C36.8968786,30.8370447 36.0128005,31.0897209 35.3813986,31.2159628 C34.3079577,31.53176 33.6763634,31.7211228 33.4238796,31.9106781 C32.9818405,32.2894038 30.9612005,37.8461637 30.0140015,40.561519 C28.8774396,40.8771237 27.7408777,41.5087181 26.9199205,42.7715218 C27.3619596,42.4557247 28.7511977,42.2663618 29.7615177,42.14012 C30.6454034,42.076999 33.3607586,43.5293581 34.0552815,46.2447133 L34.0552815,46.3707628 C34.1815233,47.3810828 33.8659186,48.3282818 33.3607586,49.086118 M57.5453176,7.53656381 C57.5453176,7.53656381 60.7025195,7.66299814 63.9859633,8.04172381 C56.5981186,2.23248004 49.5889995,0.527444771 43.9059977,0.527444771 C36.0759215,0.527444771 30.7718377,3.74796004 30.4560405,3.93732287 L32.9187196,0.0222847725 C32.9187196,0.0222847725 23.0680034,-0.924721839 19.5950043,9.49408286 C18.7111187,7.28408003 17.8901615,4.06356476 17.8901615,4.06356476 C17.8901615,4.06356476 12.7754406,8.54688381 15.1749987,15.9980419 C9.30244152,13.85116 0.904276811,10.883321 0.588479646,10.8202 C0.146440592,10.7570791 0.0201987023,10.9464419 0.0201987023,10.9464419 C0.0201987023,10.9464419 -0.106043187,11.1358047 0.272682481,11.4516019 C0.967397755,12.0198829 14.2277996,21.8074781 17.1325177,23.7016838 C16.5009234,25.975 16.5009234,27.0484409 17.1325177,28.1218819 C18.0164034,29.5742409 18.0795243,30.3318847 17.9532824,31.4055181 C17.8270406,32.478959 16.6904787,41.7612018 16.4378024,42.8977637 C16.1853187,44.0345181 13.5330843,48.0757981 13.6595187,49.2756733 C13.7857606,50.4751637 15.4274824,55.5898846 16.8798415,56.158358 C17.9532824,56.5370837 20.6055168,57.3582333 22.3734805,57.3582333 C23.0048824,57.3582333 23.5731634,57.231799 23.8258396,56.9791228 C24.8992805,56.0319237 25.2150777,55.8427533 25.9727215,55.8427533 L26.1622768,55.8427533 C26.4778815,55.8427533 26.8567996,55.9056818 27.2988386,55.9056818 C28.3091586,55.9056818 29.6350834,55.716319 30.5822824,54.8324333 C31.9715205,53.4430028 34.3710786,51.5486047 35.1287224,50.664719 C36.0759215,49.4648437 36.5810815,47.8231218 36.3285977,46.1813999 C36.1390424,44.6659199 36.9599996,43.3398028 37.9071986,42.0138781 C39.1068814,40.4350847 41.3168843,37.59368 41.3168843,37.59368 C45.6739614,40.8771237 48.3891243,45.8656028 48.3891243,51.4223628 C48.3891243,61.273079 39.8015967,69.2292046 29.1932367,69.2292046 C27.5513224,69.2292046 25.9727215,69.0398418 24.3941205,68.6609237 C29.2563577,70.3659589 33.3607586,70.9342399 36.7073233,70.9342399 C43.8428767,70.9342399 47.6314805,68.345319 47.6314805,68.345319 C47.6314805,68.345319 46.3053633,70.0501618 44.1584814,72.0078733 L44.2216024,72.0078733 C56.0298376,70.3659589 61.7759605,60.6414846 61.7759605,60.6414846 C61.7759605,60.6414846 61.3339214,63.798879 60.7656405,65.9459533 C76.4887214,54.137718 73.8366795,39.3616437 73.7735585,38.8564837 C73.8998004,39.046039 75.4784014,40.9402447 76.2993585,41.9505647 C78.8251585,15.934921 57.5453176,7.53656381 57.5453176,7.53656381" id="Fill-10" fill="#1B314F" mask="url(#mask-4)"></path>
                                        </g>
                                        <path d="M31.8453171,28.5008 C33.045,27.1115619 32.4135981,24.5226409 30.2035952,24.0806019 C30.7718762,22.7544847 31.5926409,20.1024428 31.5926409,20.1024428 C31.5926409,20.1024428 25.1519952,30.2056428 24.5835219,30.3950056 C24.0152409,30.5845609 23.44696,28.3743657 23.44696,28.3743657 C22.2472771,32.984119 25.4676,33.6155209 25.8465181,32.1631619 C27.6144819,31.7211228 30.6454418,29.8267247 31.8453171,28.5008" id="Fill-13" fill="#1B314F"></path>
                                        <path d="M26.3516203,30.963556 L29.6350641,25.3436751 C29.6350641,25.3436751 31.5294622,26.2908741 30.5822632,27.8063541 C29.3825803,29.5743179 26.3516203,30.963556 26.3516203,30.963556" id="Fill-15" fill="#FFD923"></path>
                                        <path d="M66.9537638,56.9791035 C66.0065648,58.2420997 64.9331238,59.5680245 63.6703201,60.8312131 C71.816001,45.1712531 64.0492382,30.8370255 63.733441,30.2687445 C64.301722,30.8370255 64.8700029,31.4686198 65.3751629,32.0369007 C71.6266382,38.9828988 72.3842819,49.4017035 66.9537638,56.9791035" id="Fill-17" fill="#D82122"></path>
                                        <path d="M74.5311638,36.8358437 C71.6897591,29.1953228 67.6484791,22.6913638 58.744962,16.8189991 C50.157242,11.1358047 40.9381201,11.5778438 40.4329601,11.6409647 L40.3067182,11.6409647 C40.622323,11.5147229 40.9381201,11.4516019 41.2537248,11.388481 C43.2112439,10.7570791 45.7370439,10.2519191 48.2628439,9.93612192 C54.9563582,8.98892286 61.712801,11.2622391 66.322362,16.1242838 C66.3854829,16.1874047 66.3854829,16.1874047 66.4486038,16.2505257 C71.6897591,21.8072857 74.4049219,28.7532838 74.5311638,36.8358437" id="Fill-19" fill="#D82122"></path>
                                        <path d="M56.7243605,5.57925645 C47.3156833,3.81129267 41.2537633,4.69517834 36.8968786,6.33709267 C36.7706367,5.83193267 36.3285977,4.82161267 35.9496796,4.0006555 C34.6235624,5.57925645 33.2345167,7.47365455 32.3504386,8.67333738 C29.9508805,10.3152517 28.9405605,11.8938527 28.9405605,11.8938527 C30.3297986,7.15785739 34.3710786,3.6217374 39.2964367,2.73785173 C40.6854824,2.48517551 42.2009624,2.35893362 43.8428767,2.35893362 C48.1997614,2.42205456 52.5568386,3.49549551 56.7243605,5.57925645" id="Fill-21" fill="#D82122"></path>
                                        <path d="M21.9314607,17.7030964 C14.543616,17.4506126 17.0062951,8.86289266 17.132537,8.35773266 C17.132537,8.42085361 17.637697,15.1141755 21.9314607,17.7030964" id="Fill-23" fill="#D82122"></path>
                                        <path d="M29.1932367,2.23248004 C23.5100424,5.64235815 24.6467968,13.7880391 24.6467968,13.7880391 C19.2162787,5.51611626 28.7511977,2.42184288 29.1932367,2.23248004" id="Fill-25" fill="#D82122"></path>
                                        <path d="M19.8476805,19.9762202 C20.2265987,20.2920174 20.6055168,20.8602983 20.1634777,21.681063 C19.9108015,22.1231021 19.5320758,22.0599811 18.9636024,21.8074974 C18.2059587,21.4285792 13.6595187,18.7765374 9.55511774,16.0611821 C14.2277996,17.702904 18.9636024,19.4710602 19.7214387,19.8499783 L19.8476805,19.9762202 Z" id="Fill-27" fill="#FFFFFF"></path>
                                    </g>
                                </g>
                            </g>
                        </g>
                    </g>
                </g>
            </g>
        </g>
    </g>
</svg>