<?xml version="1.0" encoding="UTF-8"?>
<svg width="60px" height="60px" viewBox="0 0 60 60" version="1.1" xmlns="http://www.w3.org/2000/svg" xmlns:xlink="http://www.w3.org/1999/xlink">
    <title>377C3976-B13B-4AF0-BBF0-C3065409669F</title>
    <defs>
        <linearGradient x1="14.4113173%" y1="12.6221874%" x2="100%" y2="100%" id="linearGradient-1">
            <stop stop-color="#02A39D" offset="0%"></stop>
            <stop stop-color="#0068E9" offset="100%"></stop>
        </linearGradient>
        <path d="M24,5.72748198e-14 C37.254834,5.72748198e-14 48,10.745166 48,24 C48,37.254834 37.254834,48 24,48 C10.745166,48 0,37.254834 0,24 C0,21.828525 0.288386022,19.7244062 0.82894782,17.7238538 C2.5837139,18.6661505 4.58951333,19.2 6.72,19.2 C13.6125137,19.2 19.2,13.6125137 19.2,6.72 C19.2,4.58951333 18.6661505,2.5837139 17.7249242,0.829074383 C19.7244062,0.288386022 21.828525,5.72748198e-14 24,5.72748198e-14 Z" id="path-2"></path>
    </defs>
    <g id="New-Site" stroke="none" stroke-width="1" fill="none" fill-rule="evenodd">
        <g id="Assets_Dark" transform="translate(-160.000000, -2889.000000)">
            <g id="img_bubbles_onetokens" transform="translate(138.000000, 2553.000000)">
                <g id="Group-35" transform="translate(-0.405177, 15.935960)">
                    <g id="Group-31-Copy-6" transform="translate(44.810392, 356.064040) rotate(-345.000000) translate(-44.810392, -356.064040) translate(9.405177, 315.064040)">
                        <g id="icon_chain" transform="translate(17.068380, 9.506779)">
                            <g id="Oval">
                                <mask id="mask-3" fill="white">
                                    <use xlink:href="#path-2"></use>
                                </mask>
                                <use id="Mask" fill="url(#linearGradient-1)" xlink:href="#path-2"></use>
                                <circle stroke="#000000" stroke-width="3.15710339" opacity="0.2" stroke-linecap="round" mask="url(#mask-3)" cx="24.04875" cy="24.04875" r="23.0435517"></circle>
                            </g>
                            <g id="Group-8" transform="translate(10.136250, 10.533750)" fill="#FFFFFF">
                                <path d="M10.0643898,22.6623977 C7.03313765,22.6623977 4.56702091,20.1967248 4.56702091,17.1659443 C4.56702091,14.1352239 7.03313765,11.6694909 10.0643898,11.6694909 C13.095642,11.6694909 15.5616987,14.1352239 15.5616987,17.1659443 C15.5616987,20.1967248 13.095642,22.6623977 10.0643898,22.6623977 M10.0643898,10.4855904 C6.38033673,10.4855904 3.38299627,13.4823442 3.38299627,17.1659443 C3.38299627,20.8495444 6.38033673,23.8462381 10.0643898,23.8462381 C13.7485031,23.8462381 16.7457233,20.8494843 16.7457233,17.1659443 C16.7457233,13.4824043 13.7485031,10.4855904 10.0643898,10.4855904" id="Fill-1"></path>
                                <g id="Group-5">
                                    <path d="M10.0643681,26.0449096 C5.16774051,26.0449096 1.18408221,22.0618025 1.18408221,17.1659864 C1.18408221,12.2701102 5.16774051,8.28700303 10.0643681,8.28700303 C14.9609957,8.28700303 18.944654,12.2701102 18.944654,17.1659864 C18.944654,22.0618025 14.9609957,26.0449096 10.0643681,26.0449096 M17.7606319,1.1838404 C22.6571994,1.1838404 26.6409178,5.16694753 26.6409178,10.0627636 C26.6409178,14.1597941 23.9032726,17.6451255 20.0187037,18.65246 C20.1298185,17.9051953 20.1605434,17.1322002 20.093141,16.3232546 C22.6341707,15.3726112 24.442011,12.9370574 24.442011,10.0627035 C24.442011,6.37916355 21.4447372,3.38240973 17.760692,3.38240973 C17.4337211,3.38240973 17.1686209,3.64740914 17.1686209,3.97432993 C17.1686209,4.30125071 17.4337211,4.56625013 17.760692,4.56625013 C20.7919377,4.56625013 23.257989,7.03198311 23.257989,10.0627035 C23.257989,12.2718536 21.9139688,14.2645193 19.9191333,15.1187938 C18.9145905,10.2781057 14.4639253,6.78195304 9.37741643,7.12702941 C10.6090591,3.58819308 13.9422028,1.1838404 17.7606319,1.1838404 M27.825,10.0627636 C27.825,4.51418808 23.3101191,0 17.7606319,0 C13.0923068,0 9.26816556,3.148371 8.08173839,7.29968783 C3.47847073,8.22291742 0,12.2957204 0,17.1659864 C0,22.714622 4.51488088,27.22875 10.0643681,27.22875 C14.6557907,27.22875 18.5388565,24.1386332 19.7427806,19.9292425 C24.4267989,18.9917049 27.825,14.865878 27.825,10.0627636" id="Fill-3"></path>
                                </g>
                                <path d="M10.0643898,17.7596861 C9.89543244,17.5349055 9.69532915,17.3347732 9.47051358,17.1659623 C9.69532915,16.9970312 9.89543244,16.7969591 10.0643898,16.5721785 C10.2332871,16.7969591 10.4333904,16.9970913 10.658206,17.1659623 C10.4333904,17.3348333 10.2332871,17.5349055 10.0643898,17.7596861 M12.4324993,16.573982 C11.4531476,16.573982 10.6564022,15.7773606 10.6564022,14.7982214 C10.6564022,14.4713607 10.3913014,14.2063012 10.0643898,14.2063012 C9.73741818,14.2063012 9.4723174,14.4713607 9.4723174,14.7982214 C9.4723174,15.7773606 8.67557199,16.573982 7.69628043,16.573982 C7.36930877,16.573982 7.10426811,16.8391017 7.10426811,17.1659623 C7.10426811,17.492823 7.36930877,17.7578825 7.69628043,17.7578825 C8.67557199,17.7578825 9.4723174,18.554504 9.4723174,19.5337032 C9.4723174,19.8605038 9.73741818,20.1255633 10.0643898,20.1255633 C10.3913014,20.1255633 10.6564022,19.8605038 10.6564022,19.5337032 C10.6564022,18.554504 11.4531476,17.7578825 12.4324993,17.7578825 C12.7594108,17.7578825 13.0244515,17.492823 13.0244515,17.1659623 C13.0244515,16.8391017 12.7594108,16.573982 12.4324993,16.573982" id="Fill-6"></path>
                            </g>
                        </g>
                    </g>
                </g>
            </g>
        </g>
    </g>
</svg>