<svg width="183" height="40" viewBox="0 0 183 40" fill="none" xmlns="http://www.w3.org/2000/svg">
<path fill-rule="evenodd" clip-rule="evenodd" d="M21.1135 2.64213e-05C20.7443 0.00350931 20.3755 0.00645027 20.0063 0.00350598C16.0778 -0.0335552 12.5391 1.06284 9.21536 3.13627C4.82422 5.98192 1.50043 10.6293 0.383033 15.7571C-0.693547 21.3059 0.533221 26.6282 3.63602 31.2865L3.90769 31.6858C4.20765 32.1272 4.51275 32.5453 4.84414 32.9648H5.20958V33.3303C8.14793 36.9341 13.2041 39.1474 17.7273 39.8555C22.8034 40.4432 28.4038 39.2479 32.4993 36.0932L32.9832 35.7056C33.0408 35.6609 33.0983 35.6162 33.156 35.5715C33.1951 35.5412 33.2342 35.5109 33.2733 35.4806C33.8615 35.0251 34.4495 34.5697 34.9932 34.0612L35.1759 33.513H35.5413L35.8811 33.1226L36.2722 32.5994C37.7532 30.6257 39.1917 28.411 39.8075 25.9921L39.9267 25.4732C40.5839 22.9555 40.8103 20.5836 40.6575 17.9817C40.2509 13.1268 37.6671 8.19851 33.9911 5.02986L33.5314 4.64301C30.1305 1.64153 25.6392 -0.00761279 21.1135 2.64213e-05ZM34.9932 19.4434H34.6278C33.8055 21.668 32.3343 24.0877 30.6029 25.7087L30.2425 26.0213C28.6727 27.387 26.9166 28.1623 24.9435 28.7622C21.6101 29.652 18.6527 29.4031 15.6019 27.7229C14.5449 27.1391 13.4815 26.5788 12.3929 26.0556C9.31318 24.6117 6.27778 24.3081 3.01697 25.4732V26.0213L3.38241 26.5695C3.68329 27.2523 3.96472 27.8479 4.47874 28.3967C5.036 28.5544 5.4875 28.5431 6.06506 28.5127C9.29073 28.1934 11.6928 29.2227 14.5627 30.5208C16.6794 31.4821 18.6722 32.3041 21.0389 32.291L21.5518 32.2795C22.0492 32.2768 22.5465 32.2717 23.0438 32.2633C26.5171 32.0298 29.9516 29.8365 32.2314 27.315C34.1498 25.0815 35.1841 22.3868 34.9932 19.4434ZM36.8204 18.5298H38.6476C38.8172 23.9584 37.3147 28.1588 33.7141 32.2339L33.3758 32.6186C30.1207 36.0883 25.5286 37.7901 20.8462 37.9593C16.0997 38.0453 11.2927 36.1677 7.84546 32.9048C7.62443 32.6898 7.40434 32.4737 7.18524 32.2567L6.86547 31.9401L6.86545 31.9401C6.34877 31.4141 6.19173 31.2543 6.14401 31.0666C6.12317 30.9847 6.12317 30.8974 6.12317 30.7721C7.5569 30.1839 8.92767 30.3406 10.3829 30.7607L10.8048 30.8795C12.213 31.2992 13.5251 31.91 14.8534 32.5283L14.9723 32.5836C19.0902 34.4898 23.2658 34.4967 27.4767 32.9611C31.607 31.3625 34.1552 28.4984 35.9415 24.5402C36.7015 22.7632 36.7542 20.8803 36.8074 18.9803L36.8075 18.9765C36.8117 18.8277 36.8158 18.6788 36.8204 18.5298ZM13.3319 9.54382C13.2643 9.45522 13.1816 9.37817 13.0199 9.22764C12.0275 8.99329 11.405 8.94401 10.5646 9.5474C9.86328 10.1631 9.5735 10.5832 9.49106 11.5231C9.55662 12.2442 9.66771 12.6069 10.1477 13.144C10.3873 13.4109 10.6082 13.6943 10.8272 13.9784C10.7803 14.4106 10.6414 14.7154 10.4461 15.1033C9.44729 16.9192 9.07294 18.6735 9.18272 20.7391H9.91361L9.76015 21.0267L9.55958 21.4129C9.26287 21.9776 9.10478 22.4847 9 23.1145C10.4942 23.6792 11.9466 24.2673 13.3245 25.0816L13.7165 25.3185C13.9757 25.475 14.2347 25.6315 14.4938 25.7882C16.817 27.1946 18.9787 27.9918 21.7291 27.9159C24.3425 27.6986 27.5306 26.2048 29.2592 24.1994L29.6475 23.6626C29.8688 23.3755 29.9742 23.2388 30.0687 23.0949C30.1547 22.9641 30.2316 22.8273 30.3784 22.5663C30.4513 21.9591 30.4325 21.5985 30.1957 21.036L30.013 20.7391H30.5611C30.6135 18.8554 30.5191 17.3846 29.7275 15.6686C29.4925 15.1916 29.2907 14.7366 29.1301 14.2296C29.0903 14.0022 29.0712 13.8931 29.0988 13.7974C29.1243 13.7091 29.1895 13.6322 29.3149 13.4845C29.4646 13.3479 29.542 13.2773 29.6165 13.2038C29.6962 13.1253 29.7727 13.0435 29.9309 12.8742C30.3888 12.2558 30.4361 11.6249 30.3784 10.8721C30.1432 10.139 29.9043 9.83837 29.3163 9.34184C28.6723 9.01349 28.3485 8.93903 27.6376 9.04491C26.7562 9.38069 26.4934 9.93704 26.1209 10.7544L25.9931 11.0548C25.7279 11.023 25.5938 11.0069 25.4681 10.9652C25.3393 10.9225 25.2194 10.853 24.9767 10.7122C23.6375 9.96048 22.1602 9.90544 20.6563 9.89071L19.9861 9.89C18.4724 9.85917 17.2196 9.92409 15.81 10.5096C15.3162 10.7237 14.8106 10.8889 14.2989 11.0548L13.9677 10.5524L13.568 9.95852C13.457 9.74227 13.4028 9.63669 13.3319 9.54382Z" fill="#020202"/>
<path d="M20.4669 20.4485C20.6056 20.4433 20.7443 20.4382 20.8873 20.4328C21.625 20.4302 21.9147 20.4435 22.4761 20.9574C22.8414 21.617 22.9176 22.1885 22.7509 22.9153C22.4927 23.3704 22.2209 23.6367 21.8373 24.0116C21.7242 24.1247 21.6112 24.2377 21.4947 24.3542C20.8888 24.675 20.5034 24.6629 19.8273 24.5598C19.1326 24.1143 18.6392 23.5998 18.1829 22.9153C18.1215 22.4813 18.1215 22.4813 18.1143 22.0017C18.1092 21.8434 18.104 21.6851 18.0986 21.522C18.1829 21.0881 18.1829 21.0881 18.4555 20.7626C19.1152 20.442 19.7487 20.4461 20.4669 20.4485Z" fill="#020202"/>
<path d="M16.7381 15.1646C17.0864 15.241 17.0864 15.241 17.5433 15.5379C17.8961 16.0966 17.8987 16.4174 17.8173 17.0682C17.6594 17.542 17.531 17.7398 17.1321 18.0389C16.5663 18.2118 16.1911 18.1385 15.6247 17.9818C15.107 17.6605 15.0712 17.4147 14.9052 16.817C14.8938 16.1546 14.8938 16.1546 15.1565 15.6179C15.7205 15.1639 16.0308 15.1158 16.7381 15.1646Z" fill="#020202"/>
<path d="M25.126 15.241C25.8021 15.4968 25.8021 15.4968 26.0396 15.9719C26.122 17.269 26.122 17.269 25.8569 17.7991C25.2602 18.0975 24.6723 18.0956 24.0297 17.9818C23.5729 17.6963 23.5729 17.6963 23.2988 17.251C23.195 16.5247 23.1849 16.1428 23.5957 15.5265C24.1541 15.1591 24.4683 15.1588 25.126 15.241Z" fill="#020202"/>
<path d="M13.0666 10.3074C13.0666 10.428 13.0666 10.5486 13.0666 10.6729C13.3078 10.7935 13.549 10.9141 13.7975 11.0383C13.7975 11.1589 13.7975 11.2795 13.7975 11.4038C13.4391 11.6576 13.0737 11.9019 12.7012 12.1347C12.3472 12.009 12.3472 12.009 11.9703 11.7692C11.799 11.3238 11.799 11.3238 11.7876 10.8556C12.1765 10.262 12.323 10.3074 13.0666 10.3074Z" fill="#020202"/>
<path d="M28.0498 10.4902C28.4038 10.5131 28.4038 10.5131 28.7807 10.673C29.1004 11.0498 29.1004 11.0498 29.3288 11.4038C28.7807 11.7693 28.7807 11.7693 28.1982 11.7008C28.0286 11.6631 27.8591 11.6254 27.6843 11.5866C27.6843 10.8557 27.6843 10.8557 28.0498 10.4902Z" fill="#020202"/>
<path d="M88.609 14.5552C88.7367 14.5539 88.8643 14.5526 88.9959 14.5513C89.9902 14.5634 90.5781 14.7799 91.2788 15.4756C91.6402 16.1002 91.6096 16.6969 91.6068 17.3988C91.6088 17.542 91.6107 17.6853 91.6128 17.8328C91.6212 18.4441 91.6233 19.0554 91.626 19.6667C91.6288 20.1137 91.6349 20.5606 91.641 21.0075C91.6405 21.1453 91.6399 21.2832 91.6394 21.4252C91.6504 22.1961 91.7113 22.6643 92.2634 23.223C92.6855 23.1627 93.1076 23.1024 93.5425 23.0403C93.8939 22.2995 93.9518 21.7059 93.9515 20.8898C93.9544 20.652 93.9574 20.4142 93.9604 20.1692C93.9634 19.7952 93.965 19.4212 93.9637 19.0472C93.96 16.2627 93.96 16.2627 95.0043 15.1833C95.9439 14.4226 96.9563 14.5224 98.1105 14.6351C98.8918 14.8862 99.3393 15.2151 99.7842 15.9102C100.124 16.727 100.045 17.636 100.041 18.5065C100.042 18.7214 100.044 18.9362 100.045 19.1576C100.046 19.611 100.045 20.0643 100.043 20.5177C100.041 21.2108 100.047 21.9033 100.054 22.5963C100.054 23.0374 100.054 23.4785 100.053 23.9196C100.055 24.1264 100.058 24.3331 100.06 24.5461C100.041 26.1479 100.041 26.1479 99.5016 26.8184C98.7 27.5311 98.0723 27.6594 97.0142 27.654C96.7372 27.6554 96.7372 27.6554 96.4546 27.6569C95.7496 27.5931 95.2202 27.4216 94.6731 26.9688C94.4561 26.6947 94.4561 26.6947 94.4561 26.3293C94.3258 26.3931 94.1956 26.457 94.0614 26.5227C93.8864 26.6059 93.7114 26.689 93.5311 26.7747C93.3594 26.8573 93.1877 26.94 93.0107 27.0252C91.8831 27.46 90.7056 27.4678 89.5112 27.4827C89.2983 27.4907 89.2983 27.4907 89.0812 27.4988C88.1032 27.5095 87.5551 27.3464 86.7818 26.6947C85.5333 24.9607 85.622 22.8739 85.6278 20.8186C85.6284 20.3916 85.6241 19.9649 85.6194 19.5379C85.6038 16.1139 85.6038 16.1139 86.6333 14.8914C87.2985 14.5597 87.8824 14.5344 88.609 14.5552Z" fill="#020202"/>
<path d="M160.259 14.8746C160.784 15.1829 160.784 15.1829 160.967 15.7311C161.084 15.652 161.202 15.5728 161.323 15.4913C162.681 14.6546 163.768 14.421 165.352 14.6348C166.023 14.8546 166.316 15.0418 166.791 15.5484C167.149 16.5017 167.185 17.535 166.864 18.5083C166.601 19.0178 166.33 19.3456 165.843 19.6482C165.217 19.7793 164.712 19.8183 164.073 19.751C163.896 19.6304 163.719 19.5098 163.536 19.3855C162.965 19.0125 162.849 18.9763 162.211 18.9973C161.981 19.0048 161.752 19.0123 161.515 19.0201C161.519 19.2247 161.523 19.4293 161.527 19.6401C161.54 20.4022 161.548 21.1642 161.555 21.9264C161.559 22.2557 161.564 22.585 161.57 22.9143C161.579 23.3887 161.583 23.863 161.586 24.3376C161.59 24.4838 161.594 24.63 161.598 24.7807C161.598 25.7492 161.425 26.2905 160.784 27.0598C159.805 27.7941 158.667 27.7253 157.495 27.608C156.774 27.3676 156.504 27.2081 156.068 26.5916C155.996 26.4446 155.924 26.2977 155.851 26.1462C155.79 26.0256 155.73 25.905 155.668 25.7808C155.649 25.4937 155.641 25.2058 155.638 24.918C155.637 24.7387 155.635 24.5593 155.633 24.3746C155.632 24.1801 155.632 23.9855 155.631 23.7851C155.63 23.5855 155.629 23.3858 155.628 23.1801C155.626 22.7568 155.625 22.3334 155.624 21.9101C155.622 21.2636 155.617 20.6173 155.611 19.9708C155.61 19.5597 155.609 19.1486 155.608 18.7374C155.606 18.5444 155.603 18.3514 155.601 18.1525C155.605 16.9109 155.745 16.0928 156.581 15.1258C157.524 14.3304 159.157 14.438 160.259 14.8746Z" fill="#020202"/>
<path fill-rule="evenodd" clip-rule="evenodd" d="M65.9515 16.0967C65.3682 13.4723 63.9972 11.3549 61.7489 9.88419C59.8183 8.78442 57.2674 8.5473 55.1159 9.13546L54.6227 9.33603C52.5123 10.153 51.0129 11.6865 49.9583 13.6735C48.4071 17.1093 48.338 22.3752 49.5065 25.9637C49.9674 26.737 50.2984 27.2745 51.151 27.6082C52.4778 27.7503 53.6991 27.6584 54.794 26.843C54.9506 26.6399 55.0536 26.5063 55.1204 26.3565C55.2486 26.0689 55.2434 25.7217 55.228 24.7075L55.1709 23.4056H59.9216L59.876 24.7189C59.8385 25.4781 59.8328 26.009 60.2614 26.6717C60.8917 27.2974 61.3944 27.5827 62.2942 27.6474C63.5878 27.6614 64.2569 27.6112 65.2206 26.6946C66.0486 24.9466 66.1781 23.0898 66.1752 21.1779L66.1684 20.4592C66.1677 18.9918 66.1573 17.5512 65.9515 16.0967ZM59.7389 14.8177C59.4601 14.1095 59.124 13.7433 58.4599 13.3559C57.5738 13.2102 56.8739 13.2202 56.0845 13.6642C55.5723 14.2565 55.3723 14.7574 55.3121 15.5402L55.3179 16.1288L55.3215 16.7694L55.3308 17.4329C55.3365 18.2057 55.3438 18.9784 55.3536 19.7512H59.7389C59.7459 19.1785 59.7525 18.6058 59.7568 18.0331L59.7618 17.3301L59.7711 16.6356L59.7746 15.9682C59.7777 15.6403 59.7792 15.4873 59.7735 15.3346C59.7686 15.201 59.7583 15.0677 59.7389 14.8177Z" fill="#020202"/>
<path fill-rule="evenodd" clip-rule="evenodd" d="M76.9395 14.3862L76.4467 14.3952C73.4585 14.3844 70.8795 15.3771 69.1107 17.879C68.1351 19.5789 68.0994 21.6815 68.464 23.5655C69.1942 25.391 70.0002 26.7792 71.8479 27.6318C73.1204 28.0377 74.4416 27.9103 75.6387 27.3505L76.2297 27.0486L76.8264 26.7453L77.2803 26.5119C77.2728 27.0599 77.2668 27.6079 77.2625 28.156L77.2575 28.8301L77.2482 29.4936L77.2446 30.1342C77.237 30.9109 77.2914 31.4789 77.6458 32.1762C78.2659 32.7964 78.6268 33.0502 79.4987 33.1662C79.525 33.1668 79.5513 33.1675 79.5775 33.1681C80.5995 33.1931 81.5736 33.2169 82.3965 32.5417C83.2405 31.2946 83.2405 31.2946 83.2214 28.5957V28.5957C83.2192 28.319 83.2181 28.0422 83.2181 27.7655C83.2191 27.1847 83.2192 26.6039 83.2158 26.0231C83.2105 25.2721 83.2068 24.5213 83.2089 23.7703C83.2107 23.1819 83.2112 22.5935 83.2095 22.0052C83.2084 21.7237 83.2075 21.4423 83.2066 21.1608C83.2077 20.7595 83.2084 20.3583 83.205 19.957L83.2012 19.5855C83.1948 18.141 82.7704 17.0876 81.7984 16.0175C80.5236 14.861 78.6156 14.385 76.9395 14.3862ZM76.6406 17.8903C76.4303 17.7768 76.164 17.7671 75.4531 17.7412L75.0876 18.1067C74.6144 18.8724 74.4727 19.4621 74.4734 20.3411L74.4824 20.7447C74.4806 21.1415 74.4842 21.5355 74.5014 21.9319C74.5888 22.7975 74.7874 23.7249 75.4531 24.3192C75.7162 24.3696 75.8504 24.3953 75.9847 24.3963C76.1243 24.3973 76.2642 24.3716 76.5494 24.3192C77.0217 23.8474 77.2569 23.5403 77.372 22.8774L77.3709 22.3029L77.3713 21.6722L77.3602 21.0188C77.3613 20.8426 77.3674 20.6642 77.3735 20.4851C77.4002 19.707 77.4273 18.9157 77.0419 18.232C76.8726 18.0636 76.7667 17.9583 76.6406 17.8903Z" fill="#020202"/>
<path fill-rule="evenodd" clip-rule="evenodd" d="M111.632 15.7313C111.216 15.454 110.783 15.2171 110.341 14.984C107.487 13.6628 104.779 14.5105 103.227 17.1931C102.189 19.4954 102.176 22.0354 103.018 24.3935C103.668 25.9218 104.474 26.9245 106.005 27.6318C107.508 28.1001 108.949 27.8319 110.353 27.2199L110.821 27.0129C111.314 26.8627 111.523 26.8761 111.997 27.0601C112.532 27.3943 112.978 27.5944 113.607 27.6696C114.809 27.7086 115.626 27.6566 116.565 26.8773C117.095 25.9392 117.179 25.1578 117.19 24.0886L117.186 23.5134C117.187 23.1062 117.188 22.699 117.188 22.2918C117.185 21.6538 117.182 21.016 117.185 20.378C117.187 19.9598 117.188 19.5416 117.188 19.1234L117.186 18.5228C117.187 18.4589 117.187 18.3956 117.188 18.3328C117.196 17.2403 117.203 16.3282 116.565 15.3659C116 14.7859 115.677 14.6639 114.874 14.5522L114.844 14.5508C113.785 14.5013 112.947 14.4621 112.111 15.1832L111.632 15.7313ZM111.266 18.4721C110.869 17.9644 110.698 17.7645 110.056 17.6727C108.696 17.8875 108.48 19.6071 108.457 20.7368L108.457 21.1559L108.456 21.5638C108.477 22.6138 108.661 23.569 109.439 24.3192C110.037 24.4083 110.391 24.3941 110.93 24.1143C111.088 23.9526 111.172 23.8671 111.226 23.7657C111.287 23.6519 111.311 23.5181 111.361 23.234L111.363 22.5841L111.366 21.875C111.362 21.5035 111.358 21.1326 111.362 20.7611L111.366 20.3932L111.363 19.6834C111.362 19.3364 111.361 19.1745 111.347 19.0139C111.334 18.8733 111.31 18.7338 111.266 18.4721Z" fill="#020202"/>
<path fill-rule="evenodd" clip-rule="evenodd" d="M177.412 15.9141C176.932 15.5605 176.449 15.2559 175.925 14.9719C173.8 13.9897 171.637 14.1481 169.907 15.7214C168.603 17.1095 168.23 18.7988 168.234 20.6509L168.241 21.1559C168.241 21.2226 168.241 21.2893 168.241 21.3559C168.241 21.9179 168.241 22.479 168.275 23.0402C168.491 24.3329 169.075 25.8135 170.08 26.6947L170.651 27.0601C170.988 27.2884 171.316 27.4839 171.683 27.6597C173.141 28.1054 174.594 27.811 175.95 27.22L176.418 27.013C176.911 26.8628 177.12 26.8761 177.594 27.0601C177.794 27.1853 177.907 27.2555 178.024 27.3171C178.174 27.3961 178.331 27.4607 178.691 27.6083C179.859 27.7318 181.004 27.7917 181.98 27.0601C182.746 26.2065 182.797 25.5158 182.807 24.3865L182.801 23.7704C182.802 23.3368 182.802 22.9032 182.801 22.4696C182.796 21.7882 182.79 21.1071 182.792 20.4258C182.794 19.9799 182.794 19.5341 182.793 19.0882L182.79 18.4486L182.791 17.8314L182.784 17.2548C182.778 16.239 182.454 15.658 181.74 14.9434C180.82 14.3709 179.539 14.4971 178.508 14.635C178.031 14.9172 177.823 15.1025 177.549 15.5829L177.412 15.9141ZM175.853 17.789C175.695 17.7668 175.535 17.7582 175.219 17.7413C174.634 18.3265 174.347 18.9568 174.123 19.7512C174.121 19.7753 174.119 19.7995 174.117 19.8236C174.003 21.2975 173.876 22.9311 174.853 24.1366C175.507 24.3267 175.912 24.429 176.533 24.1198C176.688 23.9559 176.771 23.8691 176.823 23.767C176.883 23.6519 176.905 23.5174 176.952 23.2312L176.948 22.5777L176.945 21.8661C176.939 21.4931 176.932 21.1204 176.931 20.7474C176.931 20.5747 176.935 20.4046 176.939 20.2368C176.96 19.4122 176.979 18.6449 176.498 17.924C176.174 17.8489 176.014 17.8118 175.853 17.789Z" fill="#020202"/>
<path fill-rule="evenodd" clip-rule="evenodd" d="M123.744 8.93584L123.23 8.94116C122.328 8.94868 121.953 9.21434 121.231 9.76644C120.571 10.474 120.34 11.2229 120.33 12.1804L120.334 12.5619C120.332 12.9917 120.331 13.4214 120.333 13.8513C120.335 14.1584 120.336 14.4655 120.336 14.7727C120.336 15.4151 120.336 16.0574 120.338 16.6998C120.343 17.533 120.346 18.366 120.345 19.1992C120.344 19.8504 120.344 20.5016 120.345 21.1528L120.347 22.0866C120.347 22.5321 120.347 22.9777 120.349 23.4232L120.352 23.8342C120.348 24.9022 120.397 25.8651 121.088 26.7288C122.001 27.4646 122.765 27.6717 123.912 27.6844L124.417 27.681C124.778 27.6821 125.138 27.6828 125.498 27.6831C126.061 27.6796 126.623 27.6767 127.185 27.6797C128.245 27.6863 129.303 27.685 130.361 27.641C132.46 27.4901 134.329 26.8243 135.751 25.2328C136.71 23.8267 137.065 22.5415 136.847 20.8475L136.665 20.4821C136.175 19.4829 135.622 18.8695 134.766 18.1588L134.472 17.924L134.883 17.5585C135.75 16.6738 136.159 15.7891 136.185 14.5436C136.114 12.9342 135.798 11.7976 134.655 10.6151C133.186 9.37115 131.553 8.9098 129.648 8.90381L129.099 8.91065C128.707 8.91135 128.315 8.91231 127.922 8.9135C127.311 8.91928 126.699 8.92494 126.087 8.9267C125.684 8.92741 125.281 8.9286 124.878 8.93033L124.302 8.93349L123.744 8.93584ZM126.798 12.2596C128.38 12.2069 128.907 12.1893 129.354 12.3694C129.578 12.4594 129.781 12.5988 130.087 12.8077C130.513 13.2342 130.517 13.4087 130.53 13.953L130.532 14.0525C130.517 14.7539 130.483 14.9568 130.064 15.5486C129.003 16.2867 128.362 16.2845 127.109 16.2802H127.109C127.009 16.2798 126.906 16.2795 126.798 16.2795V12.2596ZM126.798 19.203C128.422 19.203 129.003 19.203 129.512 19.3938C129.796 19.5 130.057 19.6653 130.463 19.9224L130.463 19.9225C130.993 20.7594 130.997 21.5289 130.817 22.492C130.277 23.2709 129.728 23.5835 128.808 23.771H126.798V19.203Z" fill="#020202"/>
<path fill-rule="evenodd" clip-rule="evenodd" d="M153.11 17.5583C152.786 16.5383 152.231 15.7105 151.282 15.1829C147.594 13.4276 142.239 14.1669 139.994 17.8159C139.213 19.475 138.959 21.4383 139.406 23.2226C140.181 25.1996 141.494 26.374 143.425 27.2425C145.49 27.8722 148.127 27.9935 150.121 27.1062L150.552 26.8771C151 26.6417 151.415 26.3973 151.828 26.1034C152.688 25.3498 153.239 24.557 153.384 23.4168C153.336 23.1251 153.313 22.9855 153.251 22.8669C153.193 22.7579 153.102 22.6667 152.927 22.4918C152.273 22.5208 151.729 22.648 151.106 22.8508C149.794 23.2891 148.649 23.5829 147.263 23.4054C146.637 23.275 146.145 23.0934 145.769 22.5428L145.583 22.1955L145.253 21.5782C145.841 21.5857 146.429 21.5917 147.018 21.596L147.742 21.601L148.454 21.6103L149.143 21.6138C150.592 21.6271 151.513 21.3248 152.562 20.2991C153.162 19.4176 153.266 18.595 153.11 17.5583ZM147.445 16.8274L146.886 16.7817C145.5 16.8997 145.132 18.7747 145.07 19.9337L145.53 19.9529L146.132 19.9679C146.18 19.9695 146.227 19.9712 146.273 19.9729C146.778 19.9915 147.148 20.0052 147.604 19.7202C147.698 19.5685 147.749 19.4856 147.783 19.3961C147.824 19.2881 147.841 19.1707 147.877 18.9116L147.868 18.3805C147.865 17.667 147.851 17.4366 147.445 16.8274Z" fill="#020202"/>
</svg>
