<svg xmlns="http://www.w3.org/2000/svg" xmlns:xlink="http://www.w3.org/1999/xlink" version="1.0" x="0" y="0" width="2400" height="574.6088111995184" viewBox="35.87 92.88654815673829 268.26 64.22689987182618" preserveAspectRatio="xMidYMid meet" color-interpolation-filters="sRGB"><g><defs><linearGradient id="92" x1="0%" y1="0%" x2="100%" y2="0%"><stop offset="0%" stop-color="#fa71cd"></stop> <stop offset="100%" stop-color="#9b59b6"></stop></linearGradient><linearGradient id="93" x1="0%" y1="0%" x2="100%" y2="0%"><stop offset="0%" stop-color="#f9d423"></stop> <stop offset="100%" stop-color="#f83600"></stop></linearGradient><linearGradient id="94" x1="0%" y1="0%" x2="100%" y2="0%"><stop offset="0%" stop-color="#0064d2"></stop> <stop offset="100%" stop-color="#1cb0f6"></stop></linearGradient><linearGradient id="95" x1="0%" y1="0%" x2="100%" y2="0%"><stop offset="0%" stop-color="#f00978"></stop> <stop offset="100%" stop-color="#3f51b1"></stop></linearGradient><linearGradient id="96" x1="0%" y1="0%" x2="100%" y2="0%"><stop offset="0%" stop-color="#7873f5"></stop> <stop offset="100%" stop-color="#ec77ab"></stop></linearGradient><linearGradient id="97" x1="0%" y1="0%" x2="100%" y2="0%"><stop offset="0%" stop-color="#f9d423"></stop> <stop offset="100%" stop-color="#e14fad"></stop></linearGradient><linearGradient id="98" x1="0%" y1="0%" x2="100%" y2="0%"><stop offset="0%" stop-color="#009efd"></stop> <stop offset="100%" stop-color="#2af598"></stop></linearGradient><linearGradient id="99" x1="0%" y1="0%" x2="100%" y2="0%"><stop offset="0%" stop-color="#ffcc00"></stop> <stop offset="100%" stop-color="#00b140"></stop></linearGradient><linearGradient id="100" x1="0%" y1="0%" x2="100%" y2="0%"><stop offset="0%" stop-color="#d51007"></stop> <stop offset="100%" stop-color="#ff8177"></stop></linearGradient><linearGradient id="102" x1="0%" y1="0%" x2="100%" y2="0%"><stop offset="0%" stop-color="#a2b6df"></stop> <stop offset="100%" stop-color="#0c3483"></stop></linearGradient><linearGradient id="103" x1="0%" y1="0%" x2="100%" y2="0%"><stop offset="0%" stop-color="#7ac5d8"></stop> <stop offset="100%" stop-color="#eea2a2"></stop></linearGradient><linearGradient id="104" x1="0%" y1="0%" x2="100%" y2="0%"><stop offset="0%" stop-color="#00ecbc"></stop> <stop offset="100%" stop-color="#007adf"></stop></linearGradient><linearGradient id="105" x1="0%" y1="0%" x2="100%" y2="0%"><stop offset="0%" stop-color="#b88746"></stop> <stop offset="100%" stop-color="#fdf5a6"></stop></linearGradient></defs><g fill="#fff" class="icon-text-wrapper icon-svg-group iconsvg" transform="translate(38.5,95.51655006408691)"><g class="iconsvg-imagesvg" transform="translate(0,0)"><g><rect fill="#fff" fill-opacity="0" stroke-width="2" x="0" y="0" width="60" height="58.96689991351521" class="image-rect"></rect> <svg filter="url(#colors1932917966)" x="0" y="0" width="60" height="58.96689991351521" filtersec="colorsf9544163531" class="image-svg-svg primary" style="overflow: visible;"><svg xmlns="http://www.w3.org/2000/svg" viewBox="-0.27359 0.3584100000000001 453.40747 445.66916"><g stroke-width="2" fill="none" stroke-linecap="butt"><path stroke="#070f14" d="M 391.74 372.78 Q 393.03 369.85 395.31 367.71 Q 397.18 365.95 397.90 364.99 Q 399.04 363.48 400.15 361.95 Q 400.19 361.90 402.52 359.16 Q 404.03 357.38 404.80 356.26 Q 416.58 339.29 421.37 330.81 Q 424.74 324.83 427.73 318.50 Q 431.77 309.92 433.36 305.83 Q 434.83 302.06 439.22 288.97 Q 442.11 280.36 443.30 274.92 Q 445.22 266.12 446.02 260.50 Q 446.73 255.45 447.56 251.86 Q 448.15 249.27 448.08 248.04 Q 447.95 245.86 448.39 244.12 Q 448.92 242.07 448.95 238.29 C 448.98 233.24 449.61 227.89 449.60 223.24 Q 449.59 214.44 449.57 210.32 C 449.56 208.02 448.85 205.52 448.67 203.25 Q 447.79 192.15 445.63 181.23 Q 444.82 177.13 443.69 172.83 Q 441.99 166.41 441.49 164.48 Q 439.63 157.31 437.74 152.07 Q 426.83 121.79 408.58 95.38 C 407.37 93.63 405.56 91.79 404.39 89.93 C 401.77 85.76 399.23 83.14 395.84 79.11 Q 391.33 73.76 390.54 72.96 Q 389.68 72.09 389.27 71.55 Q 388.47 70.45 387.81 69.84 Q 376.12 58.79 366.44 50.86 Q 364.72 49.46 364.57 49.34 Q 358.06 44.38 349.40 38.47 Q 338.08 30.73 321.03 23.25 Q 304.70 16.08 287.89 10.97 Q 277.31 7.76 266.85 6.56 Q 258.46 5.59 258.41 5.58 C 253.24 4.41 247.38 4.98 241.93 4.06 C 239.43 3.64 236.81 4.13 233.79 4.01 C 227.25 3.74 220.72 3.87 214.25 3.94 C 211.59 3.96 208.80 4.46 206.03 4.59 Q 201.25 4.82 199.87 5.02 C 195.55 5.65 191.62 5.96 187.59 6.75 Q 183.00 7.63 168.44 11.03 Q 157.08 13.68 153.80 15.59 Q 152.31 16.46 148.83 17.33 Q 145.35 18.19 136.02 22.55 Q 135.39 22.84 132.24 24.10 Q 131.07 24.57 128.50 25.78 Q 101.38 38.53 79.38 57.65 Q 65.38 69.81 52.32 86.06 Q 43.15 97.47 39.77 102.53 Q 36.57 107.33 26.61 124.60 Q 23.60 129.83 18.38 142.97 C 17.45 145.32 15.71 148.44 14.98 151.20 Q 13.71 155.95 12.21 160.10 C 9.73 166.97 8.05 175.83 7.01 180.87 Q 5.80 186.71 5.20 192.83 Q 4.60 198.92 4.10 205.02 Q 4.00 206.17 3.34 209.88 Q 2.91 212.31 2.99 214.81 C 3.27 223.62 2.97 233.30 3.83 241.10 Q 5.57 256.75 8.33 269.03 C 9.45 274.04 11.57 278.96 12.99 283.99 Q 14.17 288.14 14.63 289.39 Q 21.48 308.23 26.20 317.83 Q 32.15 329.93 37.01 337.26 Q 37.94 338.67 52.02 358.34 Q 56.78 364.99 61.12 369.60 Q 63.28 371.89 71.03 380.22 Q 77.22 386.88 86.60 393.56 Q 94.46 399.17 98.70 401.95 Q 109.17 408.83 125.43 417.32 Q 134.31 421.95 143.66 425.50 Q 168.82 435.04 194.00 439.34 Q 201.82 440.67 203.82 441.01 Q 208.26 441.75 213.32 442.09 Q 217.59 442.37 222.79 442.72 Q 230.61 443.24 245.33 441.64 Q 253.38 440.76 274.32 437.21 Q 275.67 436.98 279.19 436.06 Q 280.74 435.66 284.06 434.89 Q 286.72 434.27 291.20 432.65 Q 297.31 430.43 303.61 428.36 Q 312.01 425.60 315.92 423.91 Q 345.16 411.28 363.93 396.42 Q 376.94 386.12 380.10 383.10 Q 383.63 379.74 384.50 378.76 Q 386.70 376.29 389.64 374.98"></path><path stroke="#5f737d" stroke-opacity=".965" d="M 146.06 76.34 Q 147.49 76.55 151.92 77.61 Q 167.12 81.27 175.60 94.18 A 0.36 0.35 56.1 0 0 176.10 94.28 Q 180.65 91.09 187.51 89.26 Q 194.11 87.51 199.99 86.97 Q 231.64 84.09 263.12 87.86 Q 273.22 89.07 281.23 94.47 A 0.70 0.68 32.7 0 0 282.20 94.27 C 283.31 92.49 284.62 90.30 286.39 88.68 Q 297.36 78.59 311.46 76.97 Q 332.18 74.58 347.29 87.07 Q 352.86 91.66 356.39 97.56 Q 360.72 104.82 362.23 110.29 Q 365.13 120.80 363.47 129.79 Q 360.73 144.67 351.42 156.81 A 1.77 1.76 49.3 0 0 351.28 158.75 C 353.02 161.88 354.83 165.01 356.23 168.34 Q 363.43 185.56 364.90 203.52 Q 365.67 213.04 365.65 229.08 Q 365.65 229.09 365.80 230.31 Q 365.97 231.65 366.72 230.52 Q 369.21 226.77 372.02 223.60 Q 373.40 222.03 374.36 221.94 Q 375.79 221.80 377.31 221.88 Q 377.83 221.92 378.03 222.40 L 380.22 227.53" data-o-stroke=".965"></path><path stroke="#070f14" d="M340.35 286.16Q334.43 290.13 328.91 294.47 321.95 299.95 319.01 301.87 313.71 305.34 308.12 307.81 302.98 310.08 297.81 312.27 296.09 313 292.24 314.09 290.05 314.72 286.79 316.32C286.11 316.65 285.29 316.59 284.78 316.78Q276.91 319.71 273.87 320.35 259.73 323.29 255.78 324.17 254.11 324.54 250.13 324.89 247.86 325.09 244.45 325.61 240.52 326.22 229.75 325.97 226.45 325.9 216.34 324.09 209.22 322.82 203.27 320.87 181.17 313.64 161.12 301.46 152.82 296.42 144.29 291.79 139.96 289.44 136.03 287.86 130.41 285.59 128.12 284.43 123.3 282 120.33 280.7 115.24 278.49 108.29 277.25 93.44 274.6 79.2 274.89C75.42 274.97 71.43 275.95 67.79 275.78Q64.38 275.63 59.62 276.66 52.1 278.28 48.62 279.08 42.48 280.48 37.86 284.03M33.71 285.78C32.29 287.52 34.6 291.77 35.51 293.03 37.25 295.43 37.44 297.92 39.15 300.59Q40.49 302.69 41.14 303.99 44.41 310.61 49.76 315.42M343.16 318.22Q345.59 317.64 347.31 315.78 348.92 314.04 348.95 314.01 352.39 310.76 352.94 310.28 355.07 308.42 356.71 306.37C358.91 303.63 362.43 300.03 364.82 296.66Q378.64 277.18 385.19 258.34 385.24 258.21 387.19 252.93 387.99 250.77 388.62 247.3 389.37 243.19 390.15 239.63 391.2 234.85 388.86 228.59"></path><path stroke="#5f737d" stroke-opacity=".965" d="M 387.15 216.24 Q 385.52 205.99 385.98 196.03 A 1.09 1.09 0.0 0 1 387.06 194.99 Q 396.79 194.85 405.44 196.98 A 2.14 2.11 -3.1 0 1 406.93 198.30 L 409.58 205.49" data-o-stroke=".965"></path><path stroke="#070f14" d="M 408.98 207.90 Q 407.87 208.99 407.88 210.38 Q 407.99 218.97 407.80 227.56 Q 407.71 231.53 407.23 235.79 Q 407.11 236.90 406.37 243.99 Q 406.00 247.52 405.02 251.44 Q 403.99 255.55 403.25 258.80 Q 401.77 265.29 398.93 271.95 Q 397.82 274.57 392.97 284.43 Q 390.34 289.78 384.94 299.60 Q 382.66 303.76 379.84 307.35 Q 378.26 309.37 374.18 314.70 Q 373.02 316.22 372.82 316.53 Q 370.48 319.97 365.09 326.62 Q 361.71 330.80 356.15 335.63 Q 346.31 344.19 346.20 344.28 C 345.03 345.28 343.70 345.61 342.84 346.49 Q 341.70 347.66 340.49 348.30 Q 337.56 349.86 332.12 353.16 Q 328.91 355.11 326.73 356.08 Q 324.14 357.23 321.30 359.01 Q 317.91 361.14 313.05 363.06 Q 303.33 366.90 299.36 368.41 Q 292.81 370.90 285.33 372.74 Q 277.74 374.60 267.71 376.94 Q 263.93 377.82 262.79 377.90 Q 259.58 378.13 257.76 378.48 Q 254.93 379.01 250.22 378.91 Q 234.21 378.59 228.89 378.51 Q 226.81 378.48 225.18 378.21 Q 223.37 377.91 221.45 377.90 Q 219.63 377.88 215.87 377.10 Q 210.08 375.89 204.35 375.07 Q 201.69 374.69 199.80 374.17 Q 195.93 373.10 195.29 372.87 Q 187.42 370.04 179.99 367.43 Q 171.92 364.60 165.09 361.14 Q 164.97 361.08 153.76 355.64 Q 148.21 352.95 142.20 350.57 Q 132.53 346.75 125.57 343.80 Q 123.87 343.08 119.47 342.25 Q 117.61 341.89 113.33 340.67 Q 106.80 338.80 99.94 338.97"></path><path stroke="#070f14" d="M 68.42 346.25 Q 69.63 349.62 72.38 352.40 Q 80.30 360.39 84.56 364.07 C 86.84 366.05 88.76 368.28 91.08 370.26 Q 96.04 374.49 98.93 377.15 Q 100.65 378.73 103.69 380.75 Q 104.81 381.49 108.17 383.93 Q 115.40 389.17 124.11 393.92 Q 130.04 397.16 134.77 400.17 Q 136.53 401.28 139.35 402.37 Q 140.69 402.88 143.89 404.43 Q 158.12 411.31 173.18 415.32 Q 181.28 417.48 192.71 419.60 Q 207.98 422.43 217.41 422.56 Q 241.99 422.89 246.00 422.30 Q 252.39 421.36 256.48 420.89 Q 263.38 420.08 282.66 415.45 Q 287.79 414.21 294.87 411.68 Q 303.25 408.69 306.90 407.34 Q 323.22 401.28 337.33 391.04 Q 337.51 390.90 347.87 383.73 Q 350.57 381.86 353.12 379.69 Q 356.71 376.63 358.17 375.43 Q 361.87 372.40 365.61 368.84 Q 386.10 349.31 400.41 326.95 Q 406.27 317.78 410.44 309.51 Q 413.20 304.02 417.07 295.00 Q 419.86 288.48 422.42 280.39 Q 424.46 273.92 427.28 265.56 Q 427.57 264.70 428.37 257.65 Q 428.52 256.34 428.95 253.96 C 429.54 250.73 429.16 247.45 429.84 244.69 Q 430.21 243.19 430.34 240.53 Q 430.41 239.05 430.93 236.42 Q 431.23 234.93 431.42 227.50 Q 431.70 216.38 429.68 208.41"></path><path stroke="#5f737d" stroke-opacity=".965" d="M 428.45 206.72 L 426.77 191.76" data-o-stroke=".965"></path><path stroke="#647882" d="M 426.77 191.76 Q 423.69 173.64 418.66 159.34 Q 411.04 137.64 397.42 116.59 Q 384.98 97.37 373.90 85.81 Q 359.42 70.72 346.10 62.05 Q 330.70 52.04 324.99 48.75 Q 311.18 40.79 294.17 34.97 Q 281.09 30.48 260.96 27.07 Q 252.91 25.70 241.06 25.17 Q 228.81 24.63 217.49 24.88 Q 203.30 25.20 192.80 27.00 Q 164.26 31.91 136.93 44.71 Q 123.45 51.04 106.06 63.71 C 97.73 69.78 91.61 74.35 85.40 80.64 Q 75.38 90.79 66.43 101.93 Q 59.60 110.44 54.74 118.15 Q 39.07 142.99 31.52 167.74 Q 20.31 204.53 25.42 243.88 Q 25.59 245.20 27.73 261.86 A 0.66 0.66 0.0 0 0 28.62 262.39 Q 33.20 260.62 38.49 258.74 Q 41.95 257.52 48.65 256.22 Q 68.00 252.48 86.51 252.30 A 0.57 0.57 0.0 0 0 87.05 251.55 Q 86.02 248.42 85.86 244.27 Q 85.65 238.91 86.42 218.20 Q 86.89 205.76 88.09 198.25 Q 89.77 187.71 93.34 175.57 Q 96.22 165.80 101.05 158.96 Q 101.29 158.62 101.04 158.30 C 100.35 157.38 99.13 156.66 98.53 155.88 C 90.42 145.36 87.60 130.16 89.66 117.15 Q 93.00 96.06 110.67 83.87 Q 125.84 73.41 146.06 76.34"></path><path stroke="#bad3de" stroke-opacity=".965" d="M 426.77 191.76 Q 422.97 187.08 421.52 180.02 Q 420.31 174.17 419.66 172.19 Q 418.12 167.53 417.17 164.48 C 415.27 158.32 412.38 151.44 410.34 146.69 C 409.29 144.23 407.57 141.72 406.35 139.65 Q 404.71 136.86 403.06 134.64 Q 393.44 121.74 385.36 109.29 Q 377.66 97.43 373.87 92.98 Q 364.53 82.02 354.44 74.16 C 350.32 70.96 346.31 68.87 340.94 65.94 C 332.58 61.39 324.89 56.67 317.22 51.94 Q 314.79 50.44 312.21 49.30 C 308.55 47.69 304.34 45.89 300.42 43.77 Q 295.70 41.23 293.67 40.57 Q 280.28 36.23 275.83 34.64 Q 268.43 31.99 262.26 30.86 Q 253.30 29.23 248.22 28.90 Q 240.28 28.39 215.93 28.45 Q 195.54 28.49 172.28 34.91 Q 162.07 37.73 158.09 39.97 C 153.72 42.44 151.77 45.50 151.94 50.40 Q 152.17 56.99 151.17 62.32 Q 150.26 67.21 149.25 68.35 Q 146.28 71.67 146.06 76.34" data-o-stroke=".965"></path><path stroke="#070f14" d="M344.65 227.61Q346.09 222.32 346.17 216.4 346.19 214.84 345.78 212.36 345.45 210.34 345.3 208.3 344.91 202.96 344.8 202.21 342.81 187.53 337.19 173.78C336.25 171.48 334.65 168.73 333.73 166.49 331.97 162.21 329.22 158.95 326.58 154.55A1.97 1.96 52.6 0 1 326.9 152.13C328.86 150.25 329.91 149.21 332.4 147.72Q334.32 146.58 336.65 144.55 338.14 143.26 339.13 140.93 339.52 139.99 341.12 136.88 341.7 135.75 342.98 131.51 343.84 128.65 343.47 125.97C343.17 123.7 343.43 120.42 342.66 117.61Q340.22 108.66 333.29 102.98 319.7 91.85 303.64 100.93C302.54 101.56 300.91 103.24 299.3 104.54 296.32 106.97 300.06 109.53 297.91 111.73Q295.08 114.62 293.17 118.27A1.65 1.65 0 0 1 291 118.99Q287.36 117.27 280.53 113.89 275.1 111.21 266.18 108.8 263.91 108.19 259.14 107.59 252.86 106.81 252.06 106.72 246.82 106.1 241.39 106.12 226.89 106.17 212.54 107.62M189.16 173.05Q183.66 170.31 178.31 172.04C176.8 172.52 173.6 173.71 172.28 175.23Q164.01 184.7 171.48 194.94 176.28 201.52 185.15 200.9 187.88 200.71 190.29 198.48 193.87 195.15 194.86 193.12 199.89 182.78 192.52 174.94C191.62 173.98 190.15 173.55 189.16 173.05"></path></g><path fill="#333333" d="M 391.74 372.78 Q 393.03 369.85 395.31 367.71 Q 397.18 365.95 397.90 364.99 Q 399.04 363.48 400.15 361.95 Q 400.19 361.90 402.52 359.16 Q 404.03 357.38 404.80 356.26 Q 416.58 339.29 421.37 330.81 Q 424.74 324.83 427.73 318.50 Q 431.77 309.92 433.36 305.83 Q 434.83 302.06 439.22 288.97 Q 442.11 280.36 443.30 274.92 Q 445.22 266.12 446.02 260.50 Q 446.73 255.45 447.56 251.86 Q 448.15 249.27 448.08 248.04 Q 447.95 245.86 448.39 244.12 Q 448.92 242.07 448.95 238.29 C 448.98 233.24 449.61 227.89 449.60 223.24 Q 449.59 214.44 449.57 210.32 C 449.56 208.02 448.85 205.52 448.67 203.25 Q 447.79 192.15 445.63 181.23 Q 444.82 177.13 443.69 172.83 Q 441.99 166.41 441.49 164.48 Q 439.63 157.31 437.74 152.07 Q 426.83 121.79 408.58 95.38 C 407.37 93.63 405.56 91.79 404.39 89.93 C 401.77 85.76 399.23 83.14 395.84 79.11 Q 391.33 73.76 390.54 72.96 Q 389.68 72.09 389.27 71.55 Q 388.47 70.45 387.81 69.84 Q 376.12 58.79 366.44 50.86 Q 364.72 49.46 364.57 49.34 Q 358.06 44.38 349.40 38.47 Q 338.08 30.73 321.03 23.25 Q 304.70 16.08 287.89 10.97 Q 277.31 7.76 266.85 6.56 Q 258.46 5.59 258.41 5.58 C 253.24 4.41 247.38 4.98 241.93 4.06 C 239.43 3.64 236.81 4.13 233.79 4.01 C 227.25 3.74 220.72 3.87 214.25 3.94 C 211.59 3.96 208.80 4.46 206.03 4.59 Q 201.25 4.82 199.87 5.02 C 195.55 5.65 191.62 5.96 187.59 6.75 Q 183.00 7.63 168.44 11.03 Q 157.08 13.68 153.80 15.59 Q 152.31 16.46 148.83 17.33 Q 145.35 18.19 136.02 22.55 Q 135.39 22.84 132.24 24.10 Q 131.07 24.57 128.50 25.78 Q 101.38 38.53 79.38 57.65 Q 65.38 69.81 52.32 86.06 Q 43.15 97.47 39.77 102.53 Q 36.57 107.33 26.61 124.60 Q 23.60 129.83 18.38 142.97 C 17.45 145.32 15.71 148.44 14.98 151.20 Q 13.71 155.95 12.21 160.10 C 9.73 166.97 8.05 175.83 7.01 180.87 Q 5.80 186.71 5.20 192.83 Q 4.60 198.92 4.10 205.02 Q 4.00 206.17 3.34 209.88 Q 2.91 212.31 2.99 214.81 C 3.27 223.62 2.97 233.30 3.83 241.10 Q 5.57 256.75 8.33 269.03 C 9.45 274.04 11.57 278.96 12.99 283.99 Q 14.17 288.14 14.63 289.39 Q 21.48 308.23 26.20 317.83 Q 32.15 329.93 37.01 337.26 Q 37.94 338.67 52.02 358.34 Q 56.78 364.99 61.12 369.60 Q 63.28 371.89 71.03 380.22 Q 77.22 386.88 86.60 393.56 Q 94.46 399.17 98.70 401.95 Q 109.17 408.83 125.43 417.32 Q 134.31 421.95 143.66 425.50 Q 168.82 435.04 194.00 439.34 Q 201.82 440.67 203.82 441.01 Q 208.26 441.75 213.32 442.09 Q 217.59 442.37 222.79 442.72 Q 230.61 443.24 245.33 441.64 Q 253.38 440.76 274.32 437.21 Q 275.67 436.98 279.19 436.06 Q 280.74 435.66 284.06 434.89 Q 286.72 434.27 291.20 432.65 Q 297.31 430.43 303.61 428.36 Q 312.01 425.60 315.92 423.91 Q 345.16 411.28 363.93 396.42 Q 376.94 386.12 380.10 383.10 Q 383.63 379.74 384.50 378.76 Q 386.70 376.29 389.64 374.98 Q 359.32 406.71 321.12 422.86 Q 297.89 432.69 273.12 438.36 Q 267.64 439.61 247.80 442.57 Q 228.17 445.50 206.23 442.54 Q 178.11 438.75 151.76 429.74 Q 146.47 427.94 136.89 423.92 Q 130.21 421.12 122.47 417.01 Q 101.51 405.88 85.83 394.26 Q 78.75 389.01 72.38 382.64 Q 57.22 367.50 44.04 349.13 Q 36.39 338.47 32.69 332.51 Q 20.16 312.30 13.31 291.27 Q 11.26 284.96 8.28 273.81 Q 5.51 263.48 4.35 256.05 Q -0.79 223.23 4.14 190.81 C 8.79 160.21 19.63 129.80 37.48 103.89 Q 50.64 84.79 64.89 69.39 Q 77.10 56.20 94.09 44.36 Q 126.24 21.95 162.73 10.98 Q 167.77 9.46 184.66 5.90 C 200.48 2.57 218.39 2.15 235.30 2.43 Q 253.57 2.74 272.56 5.92 Q 282.10 7.51 291.99 10.60 Q 318.55 18.88 342.61 32.68 Q 345.83 34.53 356.65 42.14 Q 365.14 48.13 369.95 52.34 C 378.83 60.10 387.21 67.66 395.35 77.19 C 398.16 80.47 404.18 86.94 407.84 92.18 Q 422.75 113.53 432.86 136.40 Q 448.08 170.85 450.76 208.31 Q 451.41 217.28 450.93 228.31 Q 450.07 248.12 445.68 269.99 Q 443.48 280.91 441.20 288.10 Q 426.00 335.98 391.74 372.78 Z"></path><path fill="#333333" d="M 391.74 372.78 L 389.64 374.98 Q 386.70 376.29 384.50 378.76 Q 383.63 379.74 380.10 383.10 Q 376.94 386.12 363.93 396.42 Q 345.16 411.28 315.92 423.91 Q 312.01 425.60 303.61 428.36 Q 297.31 430.43 291.20 432.65 Q 286.72 434.27 284.06 434.89 Q 280.74 435.66 279.19 436.06 Q 275.67 436.98 274.32 437.21 Q 253.38 440.76 245.33 441.64 Q 230.61 443.24 222.79 442.72 Q 217.59 442.37 213.32 442.09 Q 208.26 441.75 203.82 441.01 Q 201.82 440.67 194.00 439.34 Q 168.82 435.04 143.66 425.50 Q 134.31 421.95 125.43 417.32 Q 109.17 408.83 98.70 401.95 Q 94.46 399.17 86.60 393.56 Q 77.22 386.88 71.03 380.22 Q 63.28 371.89 61.12 369.60 Q 56.78 364.99 52.02 358.34 Q 37.94 338.67 37.01 337.26 Q 32.15 329.93 26.20 317.83 Q 21.48 308.23 14.63 289.39 Q 14.17 288.14 12.99 283.99 C 11.57 278.96 9.45 274.04 8.33 269.03 Q 5.57 256.75 3.83 241.10 C 2.97 233.30 3.27 223.62 2.99 214.81 Q 2.91 212.31 3.34 209.88 Q 4.00 206.17 4.10 205.02 Q 4.60 198.92 5.20 192.83 Q 5.80 186.71 7.01 180.87 C 8.05 175.83 9.73 166.97 12.21 160.10 Q 13.71 155.95 14.98 151.20 C 15.71 148.44 17.45 145.32 18.38 142.97 Q 23.60 129.83 26.61 124.60 Q 36.57 107.33 39.77 102.53 Q 43.15 97.47 52.32 86.06 Q 65.38 69.81 79.38 57.65 Q 101.38 38.53 128.50 25.78 Q 131.07 24.57 132.24 24.10 Q 135.39 22.84 136.02 22.55 Q 145.35 18.19 148.83 17.33 Q 152.31 16.46 153.80 15.59 Q 157.08 13.68 168.44 11.03 Q 183.00 7.63 187.59 6.75 C 191.62 5.96 195.55 5.65 199.87 5.02 Q 201.25 4.82 206.03 4.59 C 208.80 4.46 211.59 3.96 214.25 3.94 C 220.72 3.87 227.25 3.74 233.79 4.01 C 236.81 4.13 239.43 3.64 241.93 4.06 C 247.38 4.98 253.24 4.41 258.41 5.58 Q 258.46 5.59 266.85 6.56 Q 277.31 7.76 287.89 10.97 Q 304.70 16.08 321.03 23.25 Q 338.08 30.73 349.40 38.47 Q 358.06 44.38 364.57 49.34 Q 364.72 49.46 366.44 50.86 Q 376.12 58.79 387.81 69.84 Q 388.47 70.45 389.27 71.55 Q 389.68 72.09 390.54 72.96 Q 391.33 73.76 395.84 79.11 C 399.23 83.14 401.77 85.76 404.39 89.93 C 405.56 91.79 407.37 93.63 408.58 95.38 Q 426.83 121.79 437.74 152.07 Q 439.63 157.31 441.49 164.48 Q 441.99 166.41 443.69 172.83 Q 444.82 177.13 445.63 181.23 Q 447.79 192.15 448.67 203.25 C 448.85 205.52 449.56 208.02 449.57 210.32 Q 449.59 214.44 449.60 223.24 C 449.61 227.89 448.98 233.24 448.95 238.29 Q 448.92 242.07 448.39 244.12 Q 447.95 245.86 448.08 248.04 Q 448.15 249.27 447.56 251.86 Q 446.73 255.45 446.02 260.50 Q 445.22 266.12 443.30 274.92 Q 442.11 280.36 439.22 288.97 Q 434.83 302.06 433.36 305.83 Q 431.77 309.92 427.73 318.50 Q 424.74 324.83 421.37 330.81 Q 416.58 339.29 404.80 356.26 Q 404.03 357.38 402.52 359.16 Q 400.19 361.90 400.15 361.95 Q 399.04 363.48 397.90 364.99 Q 397.18 365.95 395.31 367.71 Q 393.03 369.85 391.74 372.78 Z M 146.06 76.34 Q 147.49 76.55 151.92 77.61 Q 167.12 81.27 175.60 94.18 A 0.36 0.35 56.1 0 0 176.10 94.28 Q 180.65 91.09 187.51 89.26 Q 194.11 87.51 199.99 86.97 Q 231.64 84.09 263.12 87.86 Q 273.22 89.07 281.23 94.47 A 0.70 0.68 32.7 0 0 282.20 94.27 C 283.31 92.49 284.62 90.30 286.39 88.68 Q 297.36 78.59 311.46 76.97 Q 332.18 74.58 347.29 87.07 Q 352.86 91.66 356.39 97.56 Q 360.72 104.82 362.23 110.29 Q 365.13 120.80 363.47 129.79 Q 360.73 144.67 351.42 156.81 A 1.77 1.76 49.3 0 0 351.28 158.75 C 353.02 161.88 354.83 165.01 356.23 168.34 Q 363.43 185.56 364.90 203.52 Q 365.67 213.04 365.65 229.08 Q 365.65 229.09 365.80 230.31 Q 365.97 231.65 366.72 230.52 Q 369.21 226.77 372.02 223.60 Q 373.40 222.03 374.36 221.94 Q 375.79 221.80 377.31 221.88 Q 377.83 221.92 378.03 222.40 L 380.22 227.53 Q 364.32 256.94 359.54 264.01 Q 353.91 272.35 340.35 286.16 Q 334.43 290.13 328.91 294.47 Q 321.95 299.95 319.01 301.87 Q 313.71 305.34 308.12 307.81 Q 302.98 310.08 297.81 312.27 Q 296.09 313.00 292.24 314.09 Q 290.05 314.72 286.79 316.32 C 286.11 316.65 285.29 316.59 284.78 316.78 Q 276.91 319.71 273.87 320.35 Q 259.73 323.29 255.78 324.17 Q 254.11 324.54 250.13 324.89 Q 247.86 325.09 244.45 325.61 Q 240.52 326.22 229.75 325.97 Q 226.45 325.90 216.34 324.09 Q 209.22 322.82 203.27 320.87 Q 181.17 313.64 161.12 301.46 Q 152.82 296.42 144.29 291.79 Q 139.96 289.44 136.03 287.86 Q 130.41 285.59 128.12 284.43 Q 123.30 282.00 120.33 280.70 Q 115.24 278.49 108.29 277.25 Q 93.44 274.60 79.20 274.89 C 75.42 274.97 71.43 275.95 67.79 275.78 Q 64.38 275.63 59.62 276.66 Q 52.10 278.28 48.62 279.08 Q 42.48 280.48 37.86 284.03 L 33.71 285.78 C 32.29 287.52 34.60 291.77 35.51 293.03 C 37.25 295.43 37.44 297.92 39.15 300.59 Q 40.49 302.69 41.14 303.99 Q 44.41 310.61 49.76 315.42 Q 50.95 316.64 53.80 316.20 Q 57.40 315.64 57.75 315.62 Q 72.09 314.60 81.39 314.01 Q 90.12 313.45 94.11 313.85 Q 99.47 314.38 106.63 316.62 Q 119.33 320.60 128.45 324.37 Q 147.15 332.10 149.39 333.03 Q 157.10 336.25 167.68 341.09 C 178.42 345.99 187.71 350.57 197.23 353.20 Q 208.62 356.34 221.31 358.49 Q 228.54 359.72 238.28 359.53 C 252.54 359.24 264.05 358.65 276.41 354.91 Q 299.06 348.05 318.92 336.44 Q 329.09 330.48 343.16 318.22 Q 345.59 317.64 347.31 315.78 Q 348.92 314.04 348.95 314.01 Q 352.39 310.76 352.94 310.28 Q 355.07 308.42 356.71 306.37 C 358.91 303.63 362.43 300.03 364.82 296.66 Q 378.64 277.18 385.19 258.34 Q 385.24 258.21 387.19 252.93 Q 387.99 250.77 388.62 247.30 Q 389.37 243.19 390.15 239.63 Q 391.20 234.85 388.86 228.59 L 387.15 216.24 Q 385.52 205.99 385.98 196.03 A 1.09 1.09 0.0 0 1 387.06 194.99 Q 396.79 194.85 405.44 196.98 A 2.14 2.11 -3.1 0 1 406.93 198.30 L 409.58 205.49 L 408.98 207.90 Q 407.87 208.99 407.88 210.38 Q 407.99 218.97 407.80 227.56 Q 407.71 231.53 407.23 235.79 Q 407.11 236.90 406.37 243.99 Q 406.00 247.52 405.02 251.44 Q 403.99 255.55 403.25 258.80 Q 401.77 265.29 398.93 271.95 Q 397.82 274.57 392.97 284.43 Q 390.34 289.78 384.94 299.60 Q 382.66 303.76 379.84 307.35 Q 378.26 309.37 374.18 314.70 Q 373.02 316.22 372.82 316.53 Q 370.48 319.97 365.09 326.62 Q 361.71 330.80 356.15 335.63 Q 346.31 344.19 346.20 344.28 C 345.03 345.28 343.70 345.61 342.84 346.49 Q 341.70 347.66 340.49 348.30 Q 337.56 349.86 332.12 353.16 Q 328.91 355.11 326.73 356.08 Q 324.14 357.23 321.30 359.01 Q 317.91 361.14 313.05 363.06 Q 303.33 366.90 299.36 368.41 Q 292.81 370.90 285.33 372.74 Q 277.74 374.60 267.71 376.94 Q 263.93 377.82 262.79 377.90 Q 259.58 378.13 257.76 378.48 Q 254.93 379.01 250.22 378.91 Q 234.21 378.59 228.89 378.51 Q 226.81 378.48 225.18 378.21 Q 223.37 377.91 221.45 377.90 Q 219.63 377.88 215.87 377.10 Q 210.08 375.89 204.35 375.07 Q 201.69 374.69 199.80 374.17 Q 195.93 373.10 195.29 372.87 Q 187.42 370.04 179.99 367.43 Q 171.92 364.60 165.09 361.14 Q 164.97 361.08 153.76 355.64 Q 148.21 352.95 142.20 350.57 Q 132.53 346.75 125.57 343.80 Q 123.87 343.08 119.47 342.25 Q 117.61 341.89 113.33 340.67 Q 106.80 338.80 99.94 338.97 Q 84.65 336.35 68.24 342.25 A 1.06 1.05 71.6 0 0 67.59 343.56 L 68.42 346.25 Q 69.63 349.62 72.38 352.40 Q 80.30 360.39 84.56 364.07 C 86.84 366.05 88.76 368.28 91.08 370.26 Q 96.04 374.49 98.93 377.15 Q 100.65 378.73 103.69 380.75 Q 104.81 381.49 108.17 383.93 Q 115.40 389.17 124.11 393.92 Q 130.04 397.16 134.77 400.17 Q 136.53 401.28 139.35 402.37 Q 140.69 402.88 143.89 404.43 Q 158.12 411.31 173.18 415.32 Q 181.28 417.48 192.71 419.60 Q 207.98 422.43 217.41 422.56 Q 241.99 422.89 246.00 422.30 Q 252.39 421.36 256.48 420.89 Q 263.38 420.08 282.66 415.45 Q 287.79 414.21 294.87 411.68 Q 303.25 408.69 306.90 407.34 Q 323.22 401.28 337.33 391.04 Q 337.51 390.90 347.87 383.73 Q 350.57 381.86 353.12 379.69 Q 356.71 376.63 358.17 375.43 Q 361.87 372.40 365.61 368.84 Q 386.10 349.31 400.41 326.95 Q 406.27 317.78 410.44 309.51 Q 413.20 304.02 417.07 295.00 Q 419.86 288.48 422.42 280.39 Q 424.46 273.92 427.28 265.56 Q 427.57 264.70 428.37 257.65 Q 428.52 256.34 428.95 253.96 C 429.54 250.73 429.16 247.45 429.84 244.69 Q 430.21 243.19 430.34 240.53 Q 430.41 239.05 430.93 236.42 Q 431.23 234.93 431.42 227.50 Q 431.70 216.38 429.68 208.41 Q 429.02 206.90 428.45 206.72 L 426.77 191.76 Q 423.69 173.64 418.66 159.34 Q 411.04 137.64 397.42 116.59 Q 384.98 97.37 373.90 85.81 Q 359.42 70.72 346.10 62.05 Q 330.70 52.04 324.99 48.75 Q 311.18 40.79 294.17 34.97 Q 281.09 30.48 260.96 27.07 Q 252.91 25.70 241.06 25.17 Q 228.81 24.63 217.49 24.88 Q 203.30 25.20 192.80 27.00 Q 164.26 31.91 136.93 44.71 Q 123.45 51.04 106.06 63.71 C 97.73 69.78 91.61 74.35 85.40 80.64 Q 75.38 90.79 66.43 101.93 Q 59.60 110.44 54.74 118.15 Q 39.07 142.99 31.52 167.74 Q 20.31 204.53 25.42 243.88 Q 25.59 245.20 27.73 261.86 A 0.66 0.66 0.0 0 0 28.62 262.39 Q 33.20 260.62 38.49 258.74 Q 41.95 257.52 48.65 256.22 Q 68.00 252.48 86.51 252.30 A 0.57 0.57 0.0 0 0 87.05 251.55 Q 86.02 248.42 85.86 244.27 Q 85.65 238.91 86.42 218.20 Q 86.89 205.76 88.09 198.25 Q 89.77 187.71 93.34 175.57 Q 96.22 165.80 101.05 158.96 Q 101.29 158.62 101.04 158.30 C 100.35 157.38 99.13 156.66 98.53 155.88 C 90.42 145.36 87.60 130.16 89.66 117.15 Q 93.00 96.06 110.67 83.87 Q 125.84 73.41 146.06 76.34 Z M 212.54 107.62 Q 194.03 108.21 177.34 115.34 C 173.52 116.97 168.68 119.80 165.28 121.45 Q 164.28 121.94 163.68 121.01 Q 161.15 117.15 158.45 112.50 C 157.80 111.38 156.75 110.21 155.61 110.09 Q 152.67 109.81 155.24 108.77 Q 155.65 108.60 155.72 107.24 Q 155.78 105.96 153.82 104.20 Q 145.64 96.90 133.69 98.45 Q 125.46 99.52 119.22 105.48 Q 112.92 111.52 111.73 120.25 Q 110.74 127.52 113.20 135.17 Q 114.47 139.09 116.54 142.06 C 119.65 146.50 124.29 149.81 127.60 153.13 A 1.88 1.88 0.0 0 1 127.91 155.36 Q 126.62 157.72 125.81 158.84 C 121.65 164.66 117.79 170.89 115.13 178.36 Q 111.44 188.70 111.20 189.47 C 107.70 201.04 107.62 214.28 108.07 227.00 A 0.81 0.81 0.0 0 0 109.12 227.74 L 116.10 225.60 A 1.07 1.07 0.0 0 1 117.44 226.91 C 116.84 228.98 116.01 230.70 114.80 232.10 Q 110.47 237.08 109.43 239.70 Q 107.25 245.14 105.37 251.07 A 1.75 1.74 -66.7 0 0 106.18 253.11 Q 108.95 254.68 112.16 255.69 Q 129.97 261.25 144.71 269.70 Q 151.16 273.40 157.81 277.10 Q 164.38 280.77 170.72 284.76 Q 178.00 289.34 186.55 293.87 Q 195.36 298.55 202.96 300.65 Q 216.74 304.45 229.00 305.97 Q 250.85 308.68 272.02 300.66 Q 291.72 293.20 307.11 283.56 Q 324.84 272.46 337.94 253.95 C 340.48 250.36 344.47 242.03 342.85 237.44 Q 341.95 234.88 340.48 232.62 Q 339.32 230.83 336.64 227.20 A 0.54 0.54 0.0 0 1 337.13 226.34 Q 339.59 226.62 341.74 228.00 Q 342.90 228.76 344.65 227.61 Q 346.09 222.32 346.17 216.40 Q 346.19 214.84 345.78 212.36 Q 345.45 210.34 345.30 208.30 Q 344.91 202.96 344.80 202.21 Q 342.81 187.53 337.19 173.78 C 336.25 171.48 334.65 168.73 333.73 166.49 C 331.97 162.21 329.22 158.95 326.58 154.55 A 1.97 1.96 52.6 0 1 326.90 152.13 C 328.86 150.25 329.91 149.21 332.40 147.72 Q 334.32 146.58 336.65 144.55 Q 338.14 143.26 339.13 140.93 Q 339.52 139.99 341.12 136.88 Q 341.70 135.75 342.98 131.51 Q 343.84 128.65 343.47 125.97 C 343.17 123.70 343.43 120.42 342.66 117.61 Q 340.22 108.66 333.29 102.98 Q 319.70 91.85 303.64 100.93 C 302.54 101.56 300.91 103.24 299.30 104.54 C 296.32 106.97 300.06 109.53 297.91 111.73 Q 295.08 114.62 293.17 118.27 A 1.65 1.65 0.0 0 1 291.00 118.99 Q 287.36 117.27 280.53 113.89 Q 275.10 111.21 266.18 108.80 Q 263.91 108.19 259.14 107.59 Q 252.86 106.81 252.06 106.72 Q 246.82 106.10 241.39 106.12 Q 226.89 106.17 212.54 107.62 Z"></path><path fill="#333333" d="M 426.77 191.76 Q 422.97 187.08 421.52 180.02 Q 420.31 174.17 419.66 172.19 Q 418.12 167.53 417.17 164.48 C 415.27 158.32 412.38 151.44 410.34 146.69 C 409.29 144.23 407.57 141.72 406.35 139.65 Q 404.71 136.86 403.06 134.64 Q 393.44 121.74 385.36 109.29 Q 377.66 97.43 373.87 92.98 Q 364.53 82.02 354.44 74.16 C 350.32 70.96 346.31 68.87 340.94 65.94 C 332.58 61.39 324.89 56.67 317.22 51.94 Q 314.79 50.44 312.21 49.30 C 308.55 47.69 304.34 45.89 300.42 43.77 Q 295.70 41.23 293.67 40.57 Q 280.28 36.23 275.83 34.64 Q 268.43 31.99 262.26 30.86 Q 253.30 29.23 248.22 28.90 Q 240.28 28.39 215.93 28.45 Q 195.54 28.49 172.28 34.91 Q 162.07 37.73 158.09 39.97 C 153.72 42.44 151.77 45.50 151.94 50.40 Q 152.17 56.99 151.17 62.32 Q 150.26 67.21 149.25 68.35 Q 146.28 71.67 146.06 76.34 Q 125.84 73.41 110.67 83.87 Q 93.00 96.06 89.66 117.15 C 87.60 130.16 90.42 145.36 98.53 155.88 C 99.13 156.66 100.35 157.38 101.04 158.30 Q 101.29 158.62 101.05 158.96 Q 96.22 165.80 93.34 175.57 Q 89.77 187.71 88.09 198.25 Q 86.89 205.76 86.42 218.20 Q 85.65 238.91 85.86 244.27 Q 86.02 248.42 87.05 251.55 A 0.57 0.57 0.0 0 1 86.51 252.30 Q 68.00 252.48 48.65 256.22 Q 41.95 257.52 38.49 258.74 Q 33.20 260.62 28.62 262.39 A 0.66 0.66 0.0 0 1 27.73 261.86 Q 25.59 245.20 25.42 243.88 Q 20.31 204.53 31.52 167.74 Q 39.07 142.99 54.74 118.15 Q 59.60 110.44 66.43 101.93 Q 75.38 90.79 85.40 80.64 C 91.61 74.35 97.73 69.78 106.06 63.71 Q 123.45 51.04 136.93 44.71 Q 164.26 31.91 192.80 27.00 Q 203.30 25.20 217.49 24.88 Q 228.81 24.63 241.06 25.17 Q 252.91 25.70 260.96 27.07 Q 281.09 30.48 294.17 34.97 Q 311.18 40.79 324.99 48.75 Q 330.70 52.04 346.10 62.05 Q 359.42 70.72 373.90 85.81 Q 384.98 97.37 397.42 116.59 Q 411.04 137.64 418.66 159.34 Q 423.69 173.64 426.77 191.76 Z"></path><path fill="#333333" fill-opacity=".925" d="M 426.77 191.76 L 428.45 206.72 Q 420.79 206.77 413.12 206.61 C 411.65 206.58 410.87 206.10 409.58 205.49 L 406.93 198.30 A 2.14 2.11 -3.1 0 0 405.44 196.98 Q 396.79 194.85 387.06 194.99 A 1.09 1.09 0.0 0 0 385.98 196.03 Q 385.52 205.99 387.15 216.24 C 385.24 216.95 385.50 219.26 385.00 220.81 Q 384.67 221.83 383.31 223.13 Q 381.49 224.87 380.22 227.53 L 378.03 222.40 Q 377.83 221.92 377.31 221.88 Q 375.79 221.80 374.36 221.94 Q 373.40 222.03 372.02 223.60 Q 369.21 226.77 366.72 230.52 Q 365.97 231.65 365.80 230.31 Q 365.65 229.09 365.65 229.08 Q 365.67 213.04 364.90 203.52 Q 363.43 185.56 356.23 168.34 C 354.83 165.01 353.02 161.88 351.28 158.75 A 1.77 1.76 49.3 0 1 351.42 156.81 Q 360.73 144.67 363.47 129.79 Q 365.13 120.80 362.23 110.29 Q 360.72 104.82 356.39 97.56 Q 352.86 91.66 347.29 87.07 Q 332.18 74.58 311.46 76.97 Q 297.36 78.59 286.39 88.68 C 284.62 90.30 283.31 92.49 282.20 94.27 A 0.70 0.68 32.7 0 1 281.23 94.47 Q 273.22 89.07 263.12 87.86 Q 231.64 84.09 199.99 86.97 Q 194.11 87.51 187.51 89.26 Q 180.65 91.09 176.10 94.28 A 0.36 0.35 56.1 0 1 175.60 94.18 Q 167.12 81.27 151.92 77.61 Q 147.49 76.55 146.06 76.34 Q 146.28 71.67 149.25 68.35 Q 150.26 67.21 151.17 62.32 Q 152.17 56.99 151.94 50.40 C 151.77 45.50 153.72 42.44 158.09 39.97 Q 162.07 37.73 172.28 34.91 Q 195.54 28.49 215.93 28.45 Q 240.28 28.39 248.22 28.90 Q 253.30 29.23 262.26 30.86 Q 268.43 31.99 275.83 34.64 Q 280.28 36.23 293.67 40.57 Q 295.70 41.23 300.42 43.77 C 304.34 45.89 308.55 47.69 312.21 49.30 Q 314.79 50.44 317.22 51.94 C 324.89 56.67 332.58 61.39 340.94 65.94 C 346.31 68.87 350.32 70.96 354.44 74.16 Q 364.53 82.02 373.87 92.98 Q 377.66 97.43 385.36 109.29 Q 393.44 121.74 403.06 134.64 Q 404.71 136.86 406.35 139.65 C 407.57 141.72 409.29 144.23 410.34 146.69 C 412.38 151.44 415.27 158.32 417.17 164.48 Q 418.12 167.53 419.66 172.19 Q 420.31 174.17 421.52 180.02 Q 422.97 187.08 426.77 191.76 Z" data-o-fill=".925"></path><path fill="#333333" d="M 344.65 227.61 Q 344.82 219.10 344.59 214.98 Q 344.33 210.23 343.28 201.13 Q 342.34 193.04 340.67 187.50 Q 337.08 175.59 331.07 164.71 Q 327.00 157.35 324.97 153.58 A 1.50 1.49 56.8 0 1 325.36 151.68 Q 331.99 146.50 334.26 144.50 C 340.36 139.11 342.70 128.11 341.87 120.56 C 340.69 109.87 332.16 101.19 321.80 98.72 Q 313.15 96.66 305.56 101.31 Q 301.02 104.09 299.84 105.40 Q 299.50 105.79 299.48 106.30 Q 299.40 107.95 299.96 109.16 A 2.02 2.00 -35.4 0 1 299.57 111.42 Q 295.64 115.45 293.22 121.56 A 0.66 0.66 0.0 0 1 292.24 121.87 C 276.98 111.74 258.93 107.26 240.50 107.31 Q 226.52 107.35 212.54 107.62 Q 226.89 106.17 241.39 106.12 Q 246.82 106.10 252.06 106.72 Q 252.86 106.81 259.14 107.59 Q 263.91 108.19 266.18 108.80 Q 275.10 111.21 280.53 113.89 Q 287.36 117.27 291.00 118.99 A 1.65 1.65 0.0 0 0 293.17 118.27 Q 295.08 114.62 297.91 111.73 C 300.06 109.53 296.32 106.97 299.30 104.54 C 300.91 103.24 302.54 101.56 303.64 100.93 Q 319.70 91.85 333.29 102.98 Q 340.22 108.66 342.66 117.61 C 343.43 120.42 343.17 123.70 343.47 125.97 Q 343.84 128.65 342.98 131.51 Q 341.70 135.75 341.12 136.88 Q 339.52 139.99 339.13 140.93 Q 338.14 143.26 336.65 144.55 Q 334.32 146.58 332.40 147.72 C 329.91 149.21 328.86 150.25 326.90 152.13 A 1.97 1.96 52.6 0 0 326.58 154.55 C 329.22 158.95 331.97 162.21 333.73 166.49 C 334.65 168.73 336.25 171.48 337.19 173.78 Q 342.81 187.53 344.80 202.21 Q 344.91 202.96 345.30 208.30 Q 345.45 210.34 345.78 212.36 Q 346.19 214.84 346.17 216.40 Q 346.09 222.32 344.65 227.61 Z"></path><path fill="#333333" d="M154.03 125.92A.97.96 55.8 0 1 153.79 127.22Q148.79 130.85 141.29 135.53C139.09 136.91 134.8 132.8 133.06 131.04 131.24 129.22 130.08 127.89 131.19 125.2Q133.53 119.53 139.45 116.68C140.77 116.05 143.56 116.68 144.95 117.45Q150.68 120.66 154.03 125.92ZM317.98 132.04C313.67 133.24 308.77 128.96 305.74 126.43A.7.7 0 0 1 305.63 125.49Q308.58 121.49 311.37 118.89C316.13 114.44 323.01 122.08 325.11 126.12A2.08 2.08 0 0 1 324.6 128.67Q321.83 130.97 317.98 132.04Z"></path><path fill="#333333" d="M 183.2955 202.0620 A 16.25 15.58 87.3 0 1 166.9673 186.5639 A 16.25 15.58 87.3 0 1 181.7645 169.5980 A 16.25 15.58 87.3 0 1 198.0927 185.0961 A 16.25 15.58 87.3 0 1 183.2955 202.0620 Z M 189.16 173.05 Q 183.66 170.31 178.31 172.04 C 176.80 172.52 173.60 173.71 172.28 175.23 Q 164.01 184.70 171.48 194.94 Q 176.28 201.52 185.15 200.90 Q 187.88 200.71 190.29 198.48 Q 193.87 195.15 194.86 193.12 Q 199.89 182.78 192.52 174.94 C 191.62 173.98 190.15 173.55 189.16 173.05 Z"></path><circle fill="#333333" cx="274.65" cy="186.25" r="15.84"></circle><path fill="#333333" d="M 189.16 173.05 C 190.15 173.55 191.62 173.98 192.52 174.94 Q 199.89 182.78 194.86 193.12 Q 193.87 195.15 190.29 198.48 Q 187.88 200.71 185.15 200.90 Q 176.28 201.52 171.48 194.94 Q 164.01 184.70 172.28 175.23 C 173.60 173.71 176.80 172.52 178.31 172.04 Q 183.66 170.31 189.16 173.05 Z"></path><path fill="#333333" d="M 408.98 207.90 Q 409.08 216.64 409.02 225.25 Q 408.91 240.95 405.18 256.59 Q 403.10 265.31 398.70 275.48 Q 390.92 293.47 383.63 304.63 Q 381.19 308.36 370.98 321.41 Q 363.93 330.43 357.53 336.16 Q 348.52 344.24 340.54 349.81 Q 338.89 350.95 324.66 358.63 Q 316.22 363.18 308.20 366.31 Q 293.43 372.06 289.88 372.91 Q 281.18 375.00 272.46 376.94 Q 243.25 383.45 214.69 378.14 Q 205.60 376.45 202.28 375.73 C 194.08 373.95 187.21 371.10 179.27 368.43 Q 175.19 367.05 168.67 364.00 Q 160.55 360.20 155.66 357.90 Q 145.62 353.20 140.86 351.39 Q 135.79 349.47 130.82 347.30 Q 126.63 345.48 120.46 343.94 Q 110.29 341.40 99.94 338.97 Q 106.80 338.80 113.33 340.67 Q 117.61 341.89 119.47 342.25 Q 123.87 343.08 125.57 343.80 Q 132.53 346.75 142.20 350.57 Q 148.21 352.95 153.76 355.64 Q 164.97 361.08 165.09 361.14 Q 171.92 364.60 179.99 367.43 Q 187.42 370.04 195.29 372.87 Q 195.93 373.10 199.80 374.17 Q 201.69 374.69 204.35 375.07 Q 210.08 375.89 215.87 377.10 Q 219.63 377.88 221.45 377.90 Q 223.37 377.91 225.18 378.21 Q 226.81 378.48 228.89 378.51 Q 234.21 378.59 250.22 378.91 Q 254.93 379.01 257.76 378.48 Q 259.58 378.13 262.79 377.90 Q 263.93 377.82 267.71 376.94 Q 277.74 374.60 285.33 372.74 Q 292.81 370.90 299.36 368.41 Q 303.33 366.90 313.05 363.06 Q 317.91 361.14 321.30 359.01 Q 324.14 357.23 326.73 356.08 Q 328.91 355.11 332.12 353.16 Q 337.56 349.86 340.49 348.30 Q 341.70 347.66 342.84 346.49 C 343.70 345.61 345.03 345.28 346.20 344.28 Q 346.31 344.19 356.15 335.63 Q 361.71 330.80 365.09 326.62 Q 370.48 319.97 372.82 316.53 Q 373.02 316.22 374.18 314.70 Q 378.26 309.37 379.84 307.35 Q 382.66 303.76 384.94 299.60 Q 390.34 289.78 392.97 284.43 Q 397.82 274.57 398.93 271.95 Q 401.77 265.29 403.25 258.80 Q 403.99 255.55 405.02 251.44 Q 406.00 247.52 406.37 243.99 Q 407.11 236.90 407.23 235.79 Q 407.71 231.53 407.80 227.56 Q 407.99 218.97 407.88 210.38 Q 407.87 208.99 408.98 207.90 Z"></path><path fill="#333333" d="M 68.42 346.25 Q 69.87 347.86 71.39 349.36 Q 84.04 361.94 87.05 364.85 Q 95.98 373.51 101.98 378.10 Q 110.48 384.61 120.51 390.48 Q 125.31 393.29 128.73 395.31 Q 133.89 398.37 137.04 399.96 Q 155.27 409.16 175.61 414.42 Q 199.53 420.60 222.54 421.39 Q 248.47 422.27 273.04 416.53 Q 284.19 413.92 297.55 409.57 Q 320.22 402.19 341.53 386.78 Q 353.25 378.30 354.97 376.95 Q 360.67 372.44 367.19 365.68 Q 377.23 355.26 380.51 351.51 Q 398.77 330.63 411.20 305.91 Q 413.77 300.80 421.59 279.82 Q 425.41 269.55 427.59 251.96 Q 430.24 230.47 429.68 208.41 Q 431.70 216.38 431.42 227.50 Q 431.23 234.93 430.93 236.42 Q 430.41 239.05 430.34 240.53 Q 430.21 243.19 429.84 244.69 C 429.16 247.45 429.54 250.73 428.95 253.96 Q 428.52 256.34 428.37 257.65 Q 427.57 264.70 427.28 265.56 Q 424.46 273.92 422.42 280.39 Q 419.86 288.48 417.07 295.00 Q 413.20 304.02 410.44 309.51 Q 406.27 317.78 400.41 326.95 Q 386.10 349.31 365.61 368.84 Q 361.87 372.40 358.17 375.43 Q 356.71 376.63 353.12 379.69 Q 350.57 381.86 347.87 383.73 Q 337.51 390.90 337.33 391.04 Q 323.22 401.28 306.90 407.34 Q 303.25 408.69 294.87 411.68 Q 287.79 414.21 282.66 415.45 Q 263.38 420.08 256.48 420.89 Q 252.39 421.36 246.00 422.30 Q 241.99 422.89 217.41 422.56 Q 207.98 422.43 192.71 419.60 Q 181.28 417.48 173.18 415.32 Q 158.12 411.31 143.89 404.43 Q 140.69 402.88 139.35 402.37 Q 136.53 401.28 134.77 400.17 Q 130.04 397.16 124.11 393.92 Q 115.40 389.17 108.17 383.93 Q 104.81 381.49 103.69 380.75 Q 100.65 378.73 98.93 377.15 Q 96.04 374.49 91.08 370.26 C 88.76 368.28 86.84 366.05 84.56 364.07 Q 80.30 360.39 72.38 352.40 Q 69.63 349.62 68.42 346.25 Z"></path><path fill="#333333" d="M 250.55 257.74 C 247.29 263.42 242.51 267.38 237.08 271.54 Q 234.66 273.39 233.01 273.91 C 228.39 275.36 221.79 274.90 218.10 271.54 Q 209.71 263.90 208.22 262.53 Q 206.41 260.84 204.68 257.09 Q 202.27 251.86 201.77 243.31 Q 201.45 238.00 203.90 234.64 Q 206.58 230.95 210.56 229.55 Q 213.09 228.66 218.52 228.71 Q 227.14 228.79 235.75 228.99 C 239.83 229.09 244.03 229.21 247.03 231.41 C 252.92 235.76 254.07 241.10 253.57 248.23 Q 253.23 253.08 250.55 257.74 Z"></path><path fill="#333333" d="M343.16 318.22Q366.81 297.64 379.76 269.04 385.92 255.44 388.55 240.76 389.09 237.76 388.86 228.59 391.2 234.85 390.15 239.63 389.37 243.19 388.62 247.3 387.99 250.77 387.19 252.93 385.24 258.21 385.19 258.34 378.64 277.18 364.82 296.66C362.43 300.03 358.91 303.63 356.71 306.37Q355.07 308.42 352.94 310.28 352.39 310.76 348.95 314.01 348.92 314.04 347.31 315.78 345.59 317.64 343.16 318.22ZM340.35 286.16Q319.77 306.01 295.36 314.82 278.65 320.86 262.52 324.27 251.44 326.62 240 327.06 220.77 327.79 203.52 322.42 187.18 317.32 172.41 309.16 161.52 303.14 148.32 295.26C143.13 292.16 137.18 289.75 130.46 286.96Q128.01 285.94 123.42 283.65 113.61 278.75 102.54 277.54 82.53 275.34 63.01 277.43 50.24 278.8 37.86 284.03 42.48 280.48 48.62 279.08 52.1 278.28 59.62 276.66 64.38 275.63 67.79 275.78C71.43 275.95 75.42 274.97 79.2 274.89Q93.44 274.6 108.29 277.25 115.24 278.49 120.33 280.7 123.3 282 128.12 284.43 130.41 285.59 136.03 287.86 139.96 289.44 144.29 291.79 152.82 296.42 161.12 301.46 181.17 313.64 203.27 320.87 209.22 322.82 216.34 324.09 226.45 325.9 229.75 325.97 240.52 326.22 244.45 325.61 247.86 325.09 250.13 324.89 254.11 324.54 255.78 324.17 259.73 323.29 273.87 320.35 276.91 319.71 284.78 316.78C285.29 316.59 286.11 316.65 286.79 316.32Q290.05 314.72 292.24 314.09 296.09 313 297.81 312.27 302.98 310.08 308.12 307.81 313.71 305.34 319.01 301.87 321.95 299.95 328.91 294.47 334.43 290.13 340.35 286.16ZM33.71 285.78Q33.74 286.01 33.61 286.22A.56.55 44.5 0 0 33.62 286.82Q37.47 292.46 41.59 301.4 44.01 306.65 49.76 315.42 44.41 310.61 41.14 303.99 40.49 302.69 39.15 300.59C37.44 297.92 37.25 295.43 35.51 293.03 34.6 291.77 32.29 287.52 33.71 285.78Z"></path></svg></svg> <defs><filter id="colors1932917966"><feColorMatrix type="matrix" values="0 0 0 0 0.99609375  0 0 0 0 0.99609375  0 0 0 0 0.99609375  0 0 0 1 0" class="icon-feColorMatrix "></feColorMatrix></filter> <filter id="colorsf9544163531"><feColorMatrix type="matrix" values="0 0 0 0 0.99609375  0 0 0 0 0.99609375  0 0 0 0 0.99609375  0 0 0 1 0" class="icon-fecolormatrix"></feColorMatrix></filter> <filter id="colorsb2171912131"><feColorMatrix type="matrix" values="0 0 0 0 0  0 0 0 0 0  0 0 0 0 0  0 0 0 1 0" class="icon-fecolormatrix"></feColorMatrix></filter></defs></g></g> <g transform="translate(67,11.683450698852539)"><g fill-rule="" class="tp-name iconsvg-namesvg"><g transform="scale(1)"><g><path d="M17.6-3.96L17.6-6.08 10.96-6.08 10.96-3.96Q10.96-1.92 9.88-0.96 8.8 0 6.16 0L6.16 0Q5.04 0 4.32-0.32 3.6-0.64 3.06-1.4 2.52-2.16 2.26-3.62 2-5.08 1.86-7.14 1.72-9.2 1.72-12.36L1.72-12.36Q1.72-15.12 2.3-17.42 2.88-19.72 3.86-21.32 4.84-22.92 6.08-24.14 7.32-25.36 8.78-26.04 10.24-26.72 11.62-27.06 13-27.4 14.4-27.4L14.4-27.4Q16.08-27.4 17.72-26.94 19.36-26.48 21.04-25.36 22.72-24.24 23.98-22.58 25.24-20.92 26.04-18.28 26.84-15.64 26.84-12.36L26.84-12.36Q26.84-7.08 26.46-4.54 26.08-2 25.18-1 24.28 0 22.4 0L22.4 0Q19.76 0 18.68-0.96 17.6-1.92 17.6-3.96L17.6-3.96ZM14.32-20.88L14.32-20.88Q12.6-20.88 11.78-19.88 10.96-18.88 10.96-16.32L10.96-16.32 10.96-11.6 17.6-11.6 17.6-16.4Q17.6-18.08 17.2-19.1 16.8-20.12 16.1-20.5 15.4-20.88 14.32-20.88ZM43.08-6.2L43.08-13.04Q42.4-14.4 41.16-14.4L41.16-14.4Q40.16-14.4 39.6-13.04 39.04-11.68 39.04-9.92L39.04-9.92Q39.04-7.88 39.64-6.3 40.24-4.72 41.2-4.72L41.2-4.72Q42.4-4.72 43.08-6.2L43.08-6.2ZM43.08 3.76L43.12-1.72Q40.48 0.24 37.4 0.24L37.4 0.24Q34.28 0.24 32.2-2.4 30.12-5.04 30.12-9.08L30.12-9.08Q30.12-13.92 33.42-16.62 36.72-19.32 41.96-19.32L41.96-19.32Q46.48-19.32 49.14-17.34 51.8-15.36 51.8-11.68L51.8-11.68 51.88 3.4Q51.88 5.88 50.68 7.04 49.48 8.2 47.48 8.2L47.48 8.2Q45.32 8.2 44.2 7.02 43.08 5.84 43.08 3.76L43.08 3.76ZM64.08-15.76L64.12-8.44Q64.12-6.16 65.88-6.16L65.88-6.16Q66.48-6.16 66.94-6.54 67.4-6.92 67.64-7.6 67.88-8.28 67.88-9.16L67.88-9.16 67.88-14.52Q67.88-15.88 68.36-16.9 68.84-17.92 69.76-18.48 70.68-19.04 71.92-19.04L71.92-19.04Q74.08-19.04 75.28-18.1 76.48-17.16 76.48-14.64L76.48-14.64 76.48-4.24Q76.48-1.8 75.48-0.88 74.48 0.04 71.96 0.04L71.96 0.04Q70.88 0.04 70.12-0.18 69.36-0.4 68.9-0.84 68.44-1.28 68.2-2L68.2-2Q66.56-0.92 64.74-0.48 62.92-0.04 60.68-0.04L60.68-0.04Q57.84-0.04 56.6-2.26 55.36-4.48 55.36-9.56L55.36-9.56Q55.36-12.08 55.48-13.66 55.6-15.24 55.86-16.38 56.12-17.52 56.66-18.08 57.2-18.64 57.94-18.88 58.68-19.12 59.88-19.12L59.88-19.12Q62.12-19.12 63.1-18.28 64.08-17.44 64.08-15.76L64.08-15.76ZM92.96-5.76L92.96-13.24Q92.28-14.4 91.2-14.4L91.2-14.4Q90.16-14.4 89.52-12.88 88.88-11.36 88.88-9.4L88.88-9.4Q88.88-7.56 89.48-6.12 90.08-4.68 91.16-4.68L91.16-4.68Q92.28-4.68 92.96-5.76L92.96-5.76ZM87.52 0.24L87.52 0.24Q84.36 0.24 82.28-2.34 80.2-4.92 80.2-9.4L80.2-9.4Q80.2-13.96 82.26-16.66 84.32-19.36 87.52-19.36L87.52-19.36Q90.76-19.36 93.52-17.08L93.52-17.08Q94.6-19.08 97-19.08L97-19.08Q99.16-19.08 100.36-18.14 101.56-17.2 101.56-14.68L101.56-14.68 101.56-4.28Q101.56-1.88 100.56-0.94 99.56 0 97.04 0L97.04 0Q94.4 0 93.56-1.48L93.56-1.48Q91 0.24 87.52 0.24ZM126.72-14.24L126.72-14.24Q130.44-12.04 130.44-8.36L130.44-8.36Q130.44-6.76 129.82-5.3 129.2-3.84 127.98-2.64 126.76-1.44 124.76-0.74 122.76-0.04 120.24-0.04L120.24-0.04 110.96-0.04Q108.52-0.04 107.46-1.28 106.4-2.52 106.4-5.72L106.4-5.72 106.4-22.64Q106.4-24 106.88-25.04 107.36-26.08 108.42-26.72 109.48-27.36 110.96-27.36L110.96-27.36 120.12-27.36Q124.12-27.32 126.78-25.18 129.44-23.04 129.44-19.68L129.44-19.68Q129.44-18.6 129.26-17.78 129.08-16.96 128.72-16.32 128.36-15.68 127.88-15.2 127.4-14.72 126.72-14.24ZM121.8-9L121.8-9Q121.8-10.32 121.12-11.04 120.44-11.76 119.16-12.06 117.88-12.36 115.64-12.36L115.64-12.36 115.64-5.44Q118.76-5.44 120.28-6.22 121.8-7 121.8-9ZM121.28-19.68L121.28-19.68Q121.28-21.36 119.98-21.98 118.68-22.6 115.64-22.6L115.64-22.6 115.64-16.48Q117.52-16.48 118.7-16.76 119.88-17.04 120.58-17.74 121.28-18.44 121.28-19.68ZM142.52-11.2L142.52-11.2Q145.28-11.24 145.52-11.24L145.52-11.24Q146.12-11.24 146.4-11.96L146.4-11.96Q146.6-12.48 146.6-13.4L146.6-13.4Q146.6-15.92 145.08-15.92L145.08-15.92Q144.52-15.92 143.98-15.32 143.44-14.72 143.04-13.62 142.64-12.52 142.52-11.2ZM145.24 0.24L145.24 0.24Q140.36 0.24 137.18-2.28 134-4.8 134-9.16L134-9.16Q134-13.88 137.14-16.62 140.28-19.36 145.24-19.36L145.24-19.36Q149.92-19.36 152.1-17.7 154.28-16.04 154.28-13.16L154.28-13.16Q154.28-12.6 154.14-12.08 154-11.56 153.7-11.06 153.4-10.56 152.9-10.14 152.4-9.72 151.76-9.38 151.12-9.04 150.24-8.86 149.36-8.68 148.36-8.68L148.36-8.68 142.72-8.64Q143.12-7.36 144.16-6.62 145.2-5.88 146.8-5.88L146.8-5.88Q148.52-5.88 150.32-6.32L150.32-6.32Q151.08-6.52 151.98-6.96 152.88-7.4 153.28-7.4L153.28-7.4Q153.96-7.4 154.34-7 154.72-6.6 154.72-6L154.72-6Q154.72-5.28 154.08-4.26 153.44-3.24 152.3-2.22 151.16-1.2 149.28-0.48 147.4 0.24 145.24 0.24ZM166.64-12.32L166.64-4.28Q166.64-1.88 165.64-0.94 164.64 0 162.08 0L162.08 0Q159.72 0 158.88-1.1 158.04-2.2 158.04-4.72L158.04-4.72 158.04-14.56Q158.04-15.92 158.52-16.94 159-17.96 159.92-18.52 160.84-19.08 162.08-19.08L162.08-19.08Q165.12-19.08 166.08-17.32L166.08-17.32Q168.4-19.08 170.56-19.08L170.56-19.08Q174.76-19.08 174.76-15.08L174.76-15.08Q174.76-13.48 173.84-12.48 172.92-11.48 171.44-11.48L171.44-11.48Q170.56-11.48 170.02-11.84 169.48-12.2 169.02-12.56 168.56-12.92 167.96-12.92L167.96-12.92Q167.08-12.92 166.64-12.32L166.64-12.32ZM189.12-5.76L189.12-13.24Q188.44-14.4 187.36-14.4L187.36-14.4Q186.32-14.4 185.68-12.88 185.04-11.36 185.04-9.4L185.04-9.4Q185.04-7.56 185.64-6.12 186.24-4.68 187.32-4.68L187.32-4.68Q188.44-4.68 189.12-5.76L189.12-5.76ZM183.68 0.24L183.68 0.24Q180.52 0.24 178.44-2.34 176.36-4.92 176.36-9.4L176.36-9.4Q176.36-13.96 178.42-16.66 180.48-19.36 183.68-19.36L183.68-19.36Q186.92-19.36 189.68-17.08L189.68-17.08Q190.76-19.08 193.16-19.08L193.16-19.08Q195.32-19.08 196.52-18.14 197.72-17.2 197.72-14.68L197.72-14.68 197.72-4.28Q197.72-1.88 196.72-0.94 195.72 0 193.2 0L193.2 0Q190.56 0 189.72-1.48L189.72-1.48Q187.16 0.24 183.68 0.24Z" transform="translate(-1.7200000286102295, 27.399999618530273)"></path></g> </g></g> </g></g><defs v-gra="od"></defs></g></svg>