<svg width="1441" height="300" viewBox="0 0 1441 300" fill="none" xmlns="http://www.w3.org/2000/svg">
<circle cx="177" cy="150" r="120" fill="black"/>
<path d="M178.979 189.365C228.62 203.996 247.749 202.687 278.1 193.886C273.742 204.816 267.524 214.85 259.821 223.623C236.667 230.021 217.334 229.118 176.323 214.8C137.668 201.304 112.705 201.582 85.8963 208.376C81.689 201.334 78.3136 193.767 75.9004 185.801C107.411 177.937 134.481 176.25 178.979 189.365Z" fill="#DCEFFE"/>
<path d="M94.2733 220.375C113.828 244.559 144.249 260.1 178.416 260.1C203.676 260.1 226.889 251.606 245.176 237.404C227.408 239.806 208.968 237.34 176.761 227.165C141.794 216.118 118.362 215.573 94.2733 220.375Z" fill="#DCEFFE"/>
<path fill-rule="evenodd" clip-rule="evenodd" d="M258.898 187.592C236.107 194.239 217.406 193.486 177.203 178.999C145.78 167.675 123.694 166.048 102.057 169.831C105.819 154.505 109.55 140.49 111.531 134.771C112.804 131.096 113.88 127.985 114.565 125.855C115.193 123.901 115.876 121.98 116.612 120.096C111.461 115.401 108.095 107.636 108.095 98.8501C108.095 84.5183 117.053 72.9 128.104 72.9C134.687 72.9 140.527 77.0223 144.173 83.3848C146.252 81.9228 148.393 80.6021 150.59 79.4298C158.665 75.1189 167.321 72.9 176.063 72.9C184.804 72.9 193.46 75.1189 201.536 79.4298C204.521 81.0231 207.405 82.8906 210.167 85.0142C213.711 77.7349 219.969 72.9 227.098 72.9C238.148 72.9 247.107 84.5183 247.107 98.8501C247.107 108.922 242.683 117.653 236.217 121.954C236.689 123.239 237.137 124.539 237.56 125.855C238.565 128.982 240.662 134.197 243.101 140.261L243.113 140.292C246.113 147.752 253.035 168.509 258.898 187.592ZM134.891 91.2773C132.828 93.3702 130.859 95.6228 128.995 98.0253C126.687 100.999 124.558 104.18 122.622 107.54C120.816 105.453 119.679 102.412 119.679 99.0254C119.679 92.7311 123.608 87.6285 128.455 87.6285C130.998 87.6285 133.288 89.033 134.891 91.2773ZM161.806 119.54C161.806 123.22 158.741 126.203 154.96 126.203C151.179 126.203 148.114 123.22 148.114 119.54C148.114 115.86 151.179 112.877 154.96 112.877C158.741 112.877 161.806 115.86 161.806 119.54ZM196.206 148.354C196.206 154.003 184.118 164.427 177.776 164.427C170.841 164.427 159.347 154.003 159.347 148.354C159.347 142.705 167.598 138.126 177.776 138.126C187.955 138.126 196.206 142.705 196.206 148.354ZM207.088 119.54C207.088 123.22 204.023 126.203 200.242 126.203C196.461 126.203 193.396 123.22 193.396 119.54C193.396 115.86 196.461 112.877 200.242 112.877C204.023 112.877 207.088 115.86 207.088 119.54ZM222.814 98.0253C220.95 95.6228 218.981 93.3702 216.917 91.2773C218.52 89.033 220.81 87.6285 223.353 87.6285C228.2 87.6285 232.129 92.7311 232.129 99.0254C232.129 102.412 230.992 105.453 229.187 107.54C227.25 104.18 225.121 100.999 222.814 98.0253Z" fill="white"/>
<path d="M377.04 76.2001C379.76 74.6 383.84 73.08 389.28 71.64C394.88 70.2 400.48 69.48 406.08 69.48C414.08 69.48 421.12 70.68 427.2 73.0801C433.44 75.3201 437.44 78.92 439.2 83.88C442.08 92.2 445.2 101.88 448.56 112.92C451.92 123.96 455.28 135.4 458.64 147.24C462 158.92 465.28 170.52 468.48 182.04C471.68 193.4 474.48 203.48 476.88 212.28C474.96 214.52 472.08 216.28 468.24 217.56C464.4 219 459.84 219.72 454.56 219.72C450.72 219.72 447.44 219.4 444.72 218.76C442.16 218.12 440 217.16 438.24 215.88C436.64 214.6 435.28 212.92 434.16 210.84C433.2 208.76 432.32 206.36 431.52 203.64L427.2 187.08H383.76C382.48 191.88 381.2 196.84 379.92 201.96C378.64 207.08 377.36 212.04 376.08 216.84C373.84 217.64 371.44 218.28 368.88 218.76C366.48 219.4 363.52 219.72 360 219.72C351.84 219.72 345.76 218.36 341.76 215.64C337.92 212.76 336 208.84 336 203.88C336 201.64 336.32 199.4 336.96 197.16C337.6 194.92 338.32 192.28 339.12 189.24C340.24 184.92 341.76 179.56 343.68 173.16C345.76 166.76 348 159.88 350.4 152.52C352.8 145 355.36 137.32 358.08 129.48C360.8 121.64 363.36 114.28 365.76 107.4C368.16 100.36 370.32 94.12 372.24 88.6801C374.32 83.24 375.92 79.08 377.04 76.2001ZM405.84 107.16C403.6 113.88 401.04 121.4 398.16 129.72C395.44 137.88 392.96 146.2 390.72 154.68H420.48C418.24 146.04 415.92 137.64 413.52 129.48C411.28 121.16 409.2 113.72 407.28 107.16H405.84Z" fill="black"/>
<path d="M546.754 221.16C538.274 221.16 530.354 219.88 522.994 217.32C515.634 214.92 509.234 211.16 503.794 206.04C498.354 200.92 494.114 194.52 491.074 186.84C488.034 179.16 486.514 170.12 486.514 159.72C486.514 149.64 488.114 140.76 491.314 133.08C494.514 125.24 498.994 118.68 504.754 113.4C510.674 107.96 517.714 103.88 525.874 101.16C534.194 98.44 543.394 97.08 553.474 97.08C562.434 97.08 570.834 98.28 578.674 100.68C586.514 103.08 592.514 105.72 596.674 108.6C599.874 110.84 602.354 113.4 604.114 116.28C606.034 119.16 606.994 122.76 606.994 127.08V257.64C605.394 258.12 602.834 258.6 599.314 259.08C595.794 259.72 592.194 260.04 588.514 260.04C584.994 260.04 581.794 259.8 578.914 259.32C576.194 258.84 573.874 257.88 571.954 256.44C570.034 255 568.594 253 567.634 250.44C566.674 248.04 566.194 244.84 566.194 240.84V218.04C563.474 219.16 560.434 219.96 557.074 220.44C553.714 220.92 550.274 221.16 546.754 221.16ZM566.434 131.4C564.994 130.76 563.314 130.2 561.394 129.72C559.474 129.24 557.234 129 554.674 129C546.034 129 539.394 131.56 534.754 136.68C530.114 141.64 527.794 149.16 527.794 159.24C527.794 169.8 530.034 177.4 534.514 182.04C538.994 186.68 545.314 189 553.474 189C558.914 189 563.234 187.88 566.434 185.64V131.4Z" fill="black"/>
<path d="M632.413 102.36C634.013 101.88 636.493 101.4 639.853 100.92C643.373 100.44 646.973 100.2 650.653 100.2C654.173 100.2 657.293 100.44 660.013 100.92C662.893 101.4 665.293 102.36 667.213 103.8C669.133 105.24 670.573 107.24 671.533 109.8C672.653 112.2 673.213 115.4 673.213 119.4V171C673.213 177.56 674.813 182.28 678.013 185.16C681.213 187.88 685.853 189.24 691.933 189.24C695.613 189.24 698.573 188.92 700.813 188.28C703.213 187.64 705.053 187 706.333 186.36V102.36C707.933 101.88 710.413 101.4 713.773 100.92C717.293 100.44 720.893 100.2 724.573 100.2C728.093 100.2 731.213 100.44 733.933 100.92C736.813 101.4 739.213 102.36 741.133 103.8C743.053 105.24 744.493 107.24 745.453 109.8C746.573 112.2 747.133 115.4 747.133 119.4V192.36C747.133 200.36 743.773 206.36 737.053 210.36C731.453 213.88 724.733 216.52 716.893 218.28C709.213 220.2 700.813 221.16 691.693 221.16C683.053 221.16 675.053 220.2 667.693 218.28C660.493 216.36 654.253 213.4 648.973 209.4C643.693 205.4 639.613 200.28 636.733 194.04C633.853 187.64 632.413 179.96 632.413 171V102.36Z" fill="black"/>
<path d="M822.021 191.4C824.741 191.4 827.701 191.16 830.901 190.68C834.261 190.04 836.741 189.24 838.341 188.28V169.08L821.061 170.52C816.581 170.84 812.901 171.8 810.021 173.4C807.141 175 805.701 177.4 805.701 180.6C805.701 183.8 806.901 186.44 809.301 188.52C811.861 190.44 816.101 191.4 822.021 191.4ZM820.101 97.08C828.741 97.08 836.581 97.96 843.621 99.7201C850.821 101.48 856.901 104.2 861.861 107.88C866.981 111.4 870.901 115.96 873.621 121.56C876.341 127 877.701 133.48 877.701 141V194.76C877.701 198.92 876.501 202.36 874.101 205.08C871.861 207.64 869.141 209.88 865.941 211.8C855.541 218.04 840.901 221.16 822.021 221.16C813.541 221.16 805.861 220.36 798.981 218.76C792.261 217.16 786.421 214.76 781.461 211.56C776.661 208.36 772.901 204.28 770.181 199.32C767.621 194.36 766.341 188.6 766.341 182.04C766.341 171 769.621 162.52 776.181 156.6C782.741 150.68 792.901 147 806.661 145.56L838.101 142.2V140.52C838.101 135.88 836.021 132.6 831.861 130.68C827.861 128.6 822.021 127.56 814.341 127.56C808.261 127.56 802.341 128.2 796.581 129.48C790.821 130.76 785.621 132.36 780.981 134.28C778.901 132.84 777.141 130.68 775.701 127.8C774.261 124.76 773.541 121.64 773.541 118.44C773.541 114.28 774.501 111 776.421 108.6C778.501 106.04 781.621 103.88 785.781 102.12C790.421 100.36 795.861 99.0801 802.101 98.2801C808.501 97.48 814.501 97.08 820.101 97.08Z" fill="black"/>
<path d="M946.567 187.32C948.807 187.96 951.687 188.44 955.207 188.76C958.727 188.92 962.087 189 965.287 189C971.687 189 976.967 187.72 981.127 185.16C985.447 182.44 987.607 178.28 987.607 172.68C987.607 167.4 985.847 163.64 982.327 161.4C978.807 159.16 973.447 158.04 966.247 158.04H946.567V187.32ZM946.567 128.76H964.087C970.967 128.76 975.927 127.48 978.967 124.92C982.167 122.36 983.767 118.6 983.767 113.64C983.767 109.32 981.927 105.88 978.247 103.32C974.727 100.76 969.367 99.48 962.167 99.48C959.767 99.48 956.967 99.5601 953.767 99.7201C950.727 99.8801 948.327 100.12 946.567 100.44V128.76ZM962.167 221.16C959.447 221.16 956.247 221.08 952.567 220.92C948.887 220.76 945.047 220.44 941.047 219.96C937.207 219.48 933.367 218.84 929.527 218.04C925.687 217.4 922.167 216.44 918.967 215.16C910.167 211.8 905.767 205.96 905.767 197.64V85.56C905.767 82.2 906.647 79.64 908.407 77.88C910.327 75.96 912.887 74.44 916.087 73.32C921.527 71.4 928.327 70.04 936.487 69.24C944.647 68.28 953.047 67.8 961.687 67.8C982.167 67.8 997.927 71.24 1008.97 78.12C1020.01 85.0001 1025.53 95.6401 1025.53 110.04C1025.53 117.24 1023.45 123.48 1019.29 128.76C1015.13 133.88 1009.53 137.64 1002.49 140.04C1010.49 142.28 1017.13 146.36 1022.41 152.28C1027.85 158.2 1030.57 165.64 1030.57 174.6C1030.57 190.44 1024.65 202.2 1012.81 209.88C1001.13 217.4 984.247 221.16 962.167 221.16Z" fill="black"/>
<path d="M1112.22 221.16C1102.78 221.16 1093.98 219.88 1085.82 217.32C1077.82 214.6 1070.78 210.6 1064.7 205.32C1058.78 200.04 1054.06 193.4 1050.54 185.4C1047.18 177.4 1045.5 168.04 1045.5 157.32C1045.5 146.76 1047.18 137.72 1050.54 130.2C1054.06 122.52 1058.62 116.28 1064.22 111.48C1069.82 106.52 1076.22 102.92 1083.42 100.68C1090.62 98.28 1097.98 97.08 1105.5 97.08C1113.98 97.08 1121.66 98.36 1128.54 100.92C1135.58 103.48 1141.58 107 1146.54 111.48C1151.66 115.96 1155.58 121.32 1158.3 127.56C1161.18 133.8 1162.62 140.6 1162.62 147.96C1162.62 153.4 1161.1 157.56 1158.06 160.44C1155.02 163.32 1150.78 165.16 1145.34 165.96L1086.06 174.84C1087.82 180.12 1091.42 184.12 1096.86 186.84C1102.3 189.4 1108.54 190.68 1115.58 190.68C1122.14 190.68 1128.3 189.88 1134.06 188.28C1139.98 186.52 1144.78 184.52 1148.46 182.28C1151.02 183.88 1153.18 186.12 1154.94 189C1156.7 191.88 1157.58 194.92 1157.58 198.12C1157.58 205.32 1154.22 210.68 1147.5 214.2C1142.38 216.92 1136.62 218.76 1130.22 219.72C1123.82 220.68 1117.82 221.16 1112.22 221.16ZM1105.5 126.84C1101.66 126.84 1098.3 127.48 1095.42 128.76C1092.7 130.04 1090.46 131.72 1088.7 133.8C1086.94 135.72 1085.58 137.96 1084.62 140.52C1083.82 142.92 1083.34 145.4 1083.18 147.96L1124.22 141.24C1123.74 138.04 1121.98 134.84 1118.94 131.64C1115.9 128.44 1111.42 126.84 1105.5 126.84Z" fill="black"/>
<path d="M1223.06 217.08C1221.46 217.56 1218.9 218.04 1215.38 218.52C1212.02 219 1208.5 219.24 1204.82 219.24C1201.3 219.24 1198.1 219 1195.22 218.52C1192.5 218.04 1190.18 217.08 1188.26 215.64C1186.34 214.2 1184.82 212.28 1183.7 209.88C1182.74 207.32 1182.26 204.04 1182.26 200.04V128.04C1182.26 124.36 1182.9 121.24 1184.18 118.68C1185.62 115.96 1187.62 113.56 1190.18 111.48C1192.74 109.4 1195.86 107.56 1199.54 105.96C1203.38 104.2 1207.46 102.68 1211.78 101.4C1216.1 100.12 1220.58 99.16 1225.22 98.52C1229.86 97.7201 1234.5 97.3201 1239.14 97.3201C1246.82 97.3201 1252.9 98.8401 1257.38 101.88C1261.86 104.76 1264.1 109.56 1264.1 116.28C1264.1 118.52 1263.78 120.76 1263.14 123C1262.5 125.08 1261.7 127 1260.74 128.76C1257.38 128.76 1253.94 128.92 1250.42 129.24C1246.9 129.56 1243.46 130.04 1240.1 130.68C1236.74 131.32 1233.54 132.04 1230.5 132.84C1227.62 133.48 1225.14 134.28 1223.06 135.24V217.08Z" fill="black"/>
<path d="M1327.33 191.4C1330.05 191.4 1333.01 191.16 1336.21 190.68C1339.57 190.04 1342.05 189.24 1343.65 188.28V169.08L1326.37 170.52C1321.89 170.84 1318.21 171.8 1315.33 173.4C1312.45 175 1311.01 177.4 1311.01 180.6C1311.01 183.8 1312.21 186.44 1314.61 188.52C1317.17 190.44 1321.41 191.4 1327.33 191.4ZM1325.41 97.08C1334.05 97.08 1341.89 97.96 1348.93 99.7201C1356.13 101.48 1362.21 104.2 1367.17 107.88C1372.29 111.4 1376.21 115.96 1378.93 121.56C1381.65 127 1383.01 133.48 1383.01 141V194.76C1383.01 198.92 1381.81 202.36 1379.41 205.08C1377.17 207.64 1374.45 209.88 1371.25 211.8C1360.85 218.04 1346.21 221.16 1327.33 221.16C1318.85 221.16 1311.17 220.36 1304.29 218.76C1297.57 217.16 1291.73 214.76 1286.77 211.56C1281.97 208.36 1278.21 204.28 1275.49 199.32C1272.93 194.36 1271.65 188.6 1271.65 182.04C1271.65 171 1274.93 162.52 1281.49 156.6C1288.05 150.68 1298.21 147 1311.97 145.56L1343.41 142.2V140.52C1343.41 135.88 1341.33 132.6 1337.17 130.68C1333.17 128.6 1327.33 127.56 1319.65 127.56C1313.57 127.56 1307.65 128.2 1301.89 129.48C1296.13 130.76 1290.93 132.36 1286.29 134.28C1284.21 132.84 1282.45 130.68 1281.01 127.8C1279.57 124.76 1278.85 121.64 1278.85 118.44C1278.85 114.28 1279.81 111 1281.73 108.6C1283.81 106.04 1286.93 103.88 1291.09 102.12C1295.73 100.36 1301.17 99.0801 1307.41 98.2801C1313.81 97.48 1319.81 97.08 1325.41 97.08Z" fill="black"/>
</svg>
