<?xml version="1.0" encoding="UTF-8"?>
<svg width="106px" height="101px" viewBox="0 0 106 101" version="1.1" xmlns="http://www.w3.org/2000/svg" xmlns:xlink="http://www.w3.org/1999/xlink">
    <title>D79EBF76-1D9D-4AE8-A3A3-DC58189DC11D</title>
    <defs>
        <polygon id="path-1" points="0 0 106 0 106 100 0 100"></polygon>
    </defs>
    <g id="New-Site" stroke="none" stroke-width="1" fill="none" fill-rule="evenodd">
        <g id="Assets_Light" transform="translate(-470.000000, -1198.000000)">
            <g id="icon_1inch" transform="translate(470.000000, 1198.660377)">
                <polygon id="Fill-1" fill="#FFFFFF" points="25.2240889 55.101569 28.0236501 33.9675663 3.70239567 17.0433135 25.9239792 24.5846239 31.1730231 16.5170948 50.3326866 4.59098453 92.5884633 27.9172535 94.7755871 63.5199998 75.9660021 89.7398037 61.0934 92.0199958 68.7921932 77.9016193 68.7921932 64.3091943 63.1930709 53.6984972 57.5064955 49.927842 48.7577335 58.9601501 48.7577335 68.5184096 41.9340031 74.9198913 33.272694 75.9723288 29.4234307 78.164595 23.124418 76.1479132 20.4997628 66.6770449 25.2240889 60.0123203"></polygon>
                <g id="Group-29">
                    <path d="M64.0677604,16.8678627 C59.4311538,15.9030838 54.3570159,16.1663268 54.3570159,16.1663268 C54.3570159,16.1663268 52.6946098,23.8832217 42.3711612,25.9001708 C42.4588808,25.9001708 56.0191553,30.5476791 64.0677604,16.8678627" id="Fill-2" fill="#94A6C3"></path>
                    <path d="M68.2671022,86.846055 C73.8662246,82.4617897 78.0655663,76.4106751 79.9903313,69.5706333 C80.0777843,69.3076576 80.8651275,68.8690974 81.3901119,68.5184631 C82.2649081,67.9922444 83.1397043,67.5536842 83.3148769,66.8521483 C83.6646887,64.8354664 83.8395946,62.731126 83.8395946,60.6265183 C83.8395946,59.8367893 83.0522514,59.0475949 82.2649081,58.2584004 C81.6524708,57.7321817 81.0400334,57.1185716 81.0400334,56.6800114 C80.1652372,48.6998736 76.4908798,41.2462217 70.6293986,35.8092517 L70.0169612,36.423129 C75.7035366,41.7724405 79.377894,49.0507752 80.1652372,56.76767 C80.2526902,57.4692059 80.9525805,58.1707418 81.6524708,58.8722777 C82.2649081,59.3984964 82.9647984,60.1876909 82.9647984,60.5383252 C82.9647984,62.5552743 82.7898925,64.5722235 82.439814,66.5891726 C82.3523611,66.9403414 81.5650178,67.2907085 80.9525805,67.6418773 C80.0777843,68.0799029 79.290441,68.5184631 79.1155351,69.219999 C77.0158642,76.6736508 72.2040851,83.1633256 65.8176195,87.3725409 C66.9547746,84.9167644 70.541679,76.9368938 72.466444,72.9029956 L72.1166321,59.9249824 L61.0058404,49.1384337 L54.7068277,50.0155541 L47.7953777,61.2398611 C47.7953777,61.2398611 51.0324703,65.3614179 46.48305,70.1845106 C42.0213494,74.9199447 38.5218979,75.972115 38.5218979,75.972115 L35.2848053,74.2184088 C36.2470545,72.9906542 38.1718195,71.1495568 39.659053,69.9215349 C42.1962553,67.8169272 44.7334576,67.6418773 44.7334576,65.3614179 C44.8209106,60.6265183 39.746506,61.941397 39.746506,61.941397 L37.9094606,63.6953704 L37.1221173,70.1845106 L33.2725874,75.0076033 L32.8353226,74.9199447 L26.5363099,73.5168729 C26.5363099,73.5168729 30.3855732,71.4999238 30.9980106,69.219999 C31.6104479,67.028 29.7731359,59.7491308 29.6856829,59.3111051 C29.7731359,59.3984964 31.522995,60.8892268 32.3103382,63.3444688 C33.7101188,59.486155 35.5471642,55.8034256 36.0721486,55.4522568 C36.5971329,55.1018897 43.6834889,51.3307 43.6834889,51.3307 L41.3214591,57.5568645 L43.0710515,56.5923529 L47.2703933,46.2446316 C47.2703933,46.2446316 51.3822821,44.2276825 54.4442022,44.2276825 C59.9558716,44.1400239 68.0921963,37.3879079 64.4178389,25.2862133 C65.467541,25.7247734 83.6646887,34.8447401 86.8143284,52.7337718 C89.1763581,66.501514 81.3901119,79.3921358 68.2671022,86.846055" id="Fill-4" fill="#94A6C3"></path>
                    <path d="M47.4456192,18.7972067 C49.4578371,16.429356 48.6702272,12.9216765 48.6702272,12.9216765 L42.808746,21.6033503 C42.721293,21.6033503 44.9084169,21.6910088 47.4456192,18.7972067" id="Fill-6" fill="#1B314F"></path>
                    <path d="M27.7609446,66.2386986 L28.4608349,62.7310191 C28.4608349,62.7310191 25.5738208,67.8168203 25.3114619,68.5183562 C25.049103,69.3078179 25.4863678,70.7108897 26.6237895,70.6229639 C27.7609446,70.5355725 29.1607252,68.869525 29.1607252,67.6417704 C29.1607252,66.0633814 27.7609446,66.2386986 27.7609446,66.2386986" id="Fill-8" fill="#1B314F"></path>
                    <g id="Group-12">
                        <mask id="mask-2" fill="white">
                            <use xlink:href="#path-1"></use>
                        </mask>
                        <g id="Clip-11"></g>
                        <path d="M67.3923593,86.9337403 C73.0789346,82.5492077 77.4531823,76.4107018 79.3779473,69.4830015 C79.4654003,69.2200257 80.2527435,68.7814656 80.7777279,68.4310985 C81.6525241,67.9922711 82.5275869,67.4663196 82.7024929,66.7647837 C83.0523047,64.7478346 83.2274772,62.6432269 83.2274772,60.5386192 C83.2274772,59.7494247 82.440134,58.959963 81.6525241,58.1707685 C81.2152593,57.6448171 80.515369,57.0309397 80.515369,56.5923796 C79.8154787,50.1908979 77.2782764,44.1400506 73.3415601,39.1416408 C71.5917011,28.6186023 64.5927981,25.3741658 64.4178922,25.28624 C64.5927981,25.549483 69.1419517,32.1262818 65.9925787,39.8431767 C62.7554861,47.6477301 54.4445221,46.4202427 53.7446318,46.5079013 C53.0447415,46.5079013 50.3326333,50.0155808 46.9206348,56.5049883 C46.4831034,56.3294038 44.646058,55.8908437 42.5461205,56.2417453 C44.1210736,51.8569455 46.4831034,45.630781 46.9206348,45.1048295 C47.0955407,44.9292451 48.4078683,44.5786108 49.2826646,44.315635 C50.9450707,43.8770749 51.7324139,43.6140991 51.9947728,43.2631976 C52.1696787,43.0002218 53.0444749,40.9832727 53.9195378,38.878665 C54.706881,38.878665 56.7190989,38.7033479 56.8940049,38.615422 C57.0689108,38.4401049 58.7313169,34.1432309 58.7313169,33.6170122 C58.7313169,33.1787193 55.3193183,24.6726299 54.0069907,21.4279262 C54.6194281,20.7263903 55.2318654,19.8495373 55.8443027,18.8847584 C73.7788249,20.8140489 87.7766309,36.0725214 87.7766309,54.5754305 C87.7766309,68.7814656 79.4654003,81.1461359 67.3923593,86.9337403 M72.9040287,52.4708228 C73.7788249,47.9986317 73.8662779,44.1400506 73.603919,40.9832727 C77.0159175,45.5431224 79.1155884,51.067751 79.7280258,56.7676967 C79.8154787,57.4692326 80.515369,58.1707685 81.2152593,58.8723044 C81.8276966,59.3985232 82.5275869,60.1000591 82.5275869,60.5386192 C82.5275869,62.5555683 82.3524144,64.5722502 82.0026026,66.5891993 C81.9151496,66.8524423 81.1278064,67.2907352 80.515369,67.6416368 C79.6403062,68.0799297 78.8529629,68.5184898 78.678057,69.2200257 C76.753292,75.9724089 72.6414032,81.9353304 67.1300004,86.1445458 C75.2660585,77.6384565 79.2030414,63.6077385 72.9040287,52.4708228 M37.9969669,69.2200257 C38.7843101,68.0799297 38.6968572,66.1509064 38.7843101,65.5370291 C38.8717631,64.923419 39.0469356,63.7830557 39.7468259,63.6077385 C40.4467162,63.4324214 42.1088557,63.6953971 42.1088557,64.923419 C42.1088557,66.0632478 40.883981,66.3264908 40.0091848,67.115418 C39.3967475,67.7295626 38.1718728,69.0447085 37.9969669,69.2200257 M46.2207445,68.1678555 C45.870666,68.6061484 44.3834325,69.9215616 43.3337304,70.8860732 C42.2837616,71.8508521 41.1466065,72.8153638 40.2715437,73.6922168 C39.9217318,74.0433857 39.2218415,74.2184356 38.1718728,74.2184356 L37.2096236,74.2184356 L36.6846392,74.2184356 L36.3348274,74.2184356 L35.5472175,74.2184356 C36.8595451,72.4647294 40.7090751,68.4310985 42.0214027,67.5539782 C43.5960892,66.5015407 44.3834325,65.4493705 43.4211833,63.6077385 C42.4586675,61.7661066 39.9217318,62.2046668 39.9217318,62.2046668 C39.9217318,62.2046668 41.4089654,61.5907894 42.721293,61.5907894 C41.0588869,61.1524965 38.959216,61.5907894 37.9969669,62.5555683 C36.9472647,63.5203472 37.1221706,66.9401009 36.6846392,69.1326344 C36.2473744,71.412292 34.7598743,72.552388 32.4852975,74.6569957 C31.2604228,75.7968245 30.3856266,76.1479933 29.6857363,76.1479933 C28.1985027,75.8847503 26.4486437,75.4464574 25.2240356,75.00763 C24.3489728,73.8678012 23.0369118,70.0968788 22.6868333,68.5184898 C22.9491922,67.6416368 23.9991609,65.8000048 24.5241453,64.7478346 C25.5738474,62.7308855 26.1862848,61.5907894 26.3611907,60.5386192 C26.7112692,59.0478888 27.8486909,49.8399964 28.2859557,45.9816826 C29.4233774,47.4724129 30.9980639,49.9279222 30.6482521,51.5063112 C33.1851877,47.9109731 31.3481424,44.4032936 30.4730795,43.0002218 C29.6857363,41.59715 28.6360341,38.7910064 29.5108303,35.8092784 C30.3856266,32.8278177 33.5352662,24.5847041 33.5352662,24.5847041 C33.5352662,24.5847041 34.5849683,26.4263361 36.0722019,26.0757017 C37.5594354,25.7248002 49.5450234,7.66018403 49.5450234,7.66018403 C49.5450234,7.66018403 52.782116,14.7632016 49.3701175,19.9371958 C45.870666,25.1109228 42.4586675,26.0757017 42.4586675,26.0757017 C42.4586675,26.0757017 47.2704466,26.9525548 51.7324139,23.7078511 C53.5694593,28.004725 55.3193183,32.4771834 55.4067713,33.0910607 C55.1444124,33.7046708 51.6446943,42.1231015 51.2948825,42.6493202 C51.1199766,42.8246374 49.8951019,43.175539 49.0203057,43.3508561 C47.5330721,43.7894163 46.6580093,44.052392 46.3081975,44.315635 C45.6957601,44.8415865 42.8961989,52.5584814 41.5838713,56.3294038 C40.0091848,56.7676967 38.4344983,57.6448171 37.2970766,59.3985232 C37.9095139,58.959963 39.8342789,58.6969873 41.2340595,58.5216701 C42.4586675,58.4340115 46.2207445,60.4509606 47.1829937,64.2218831 L47.1829937,64.396933 C47.3578996,65.8000048 46.9206348,67.115418 46.2207445,68.1678555 M79.7280258,10.4663276 C79.7280258,10.4663276 84.1022735,10.641912 88.6514271,11.1678635 C78.4156981,3.10033433 68.7046869,0.732483651 60.8309878,0.732483651 C49.9825549,0.732483651 42.6338401,5.20494202 42.1963086,5.46791776 L45.6083072,0.030947755 C45.6083072,0.030947755 31.9603131,-1.2841982 27.148534,13.1848126 C25.9239259,10.1156933 24.7865042,5.64323492 24.7865042,5.64323492 C24.7865042,5.64323492 17.7001483,11.8693994 21.0246938,22.2171207 C12.8883692,19.2356599 1.25285962,15.1141031 0.815328202,15.0264446 C0.202890865,14.938786 0.0279849469,15.2017617 0.0279849469,15.2017617 C0.0279849469,15.2017617 -0.146920971,15.4647375 0.377796783,15.9032976 C1.34031258,16.6924921 19.7123662,30.2849171 23.7368021,32.9154763 C22.8617392,36.0725214 22.8617392,37.5632518 23.7368021,39.0539822 C24.9614101,41.0709313 25.0488631,42.1231015 24.8739572,43.6140991 C24.6990512,45.1048295 23.1243647,57.9954514 22.7742863,59.5738403 C22.4244744,61.1524965 18.7498504,66.7647837 18.9250229,68.4310985 C19.0999289,70.0968788 21.3745057,77.1998963 23.3867236,77.989358 C24.8739572,78.5153095 28.5485812,79.6556728 30.9980639,79.6556728 C31.8728601,79.6556728 32.6602034,79.4800884 33.0102818,79.1291868 C34.4975154,77.8137736 34.9350468,77.5510651 35.9847489,77.5510651 L36.2473744,77.5510651 C36.6846392,77.5510651 37.2096236,77.6384565 37.8220609,77.6384565 C39.2218415,77.6384565 41.0588869,77.3754807 42.3712146,76.1479933 C44.2959795,74.2184356 47.6205251,71.5876091 48.6702272,70.3601218 C49.9825549,68.693807 50.6824452,66.4138821 50.3326333,64.1339573 C50.0700078,62.0293496 51.2074295,60.1877176 52.5197572,58.3463529 C54.1818966,56.1538194 57.2438167,52.207847 57.2438167,52.207847 C63.2804705,56.7676967 67.0422808,63.6953971 67.0422808,71.412292 C67.0422808,85.0923756 55.1444124,96.1413655 40.4467162,96.1413655 C38.1718728,96.1413655 35.9847489,95.8783898 33.7976251,95.352171 C40.5341692,97.7200217 46.2207445,98.5092162 50.8573511,98.5092162 C60.7435348,98.5092162 65.9925787,94.9138781 65.9925787,94.9138781 C65.9925787,94.9138781 64.1552667,97.2814615 61.1807996,100.000214 L61.2682526,100.000214 C77.6283549,97.7200217 85.589507,84.2152553 85.589507,84.2152553 C85.589507,84.2152553 84.9770697,88.6000551 84.1897264,91.5817831 C105.973779,75.1832145 102.299421,54.6630891 102.211968,53.9615532 C102.386874,54.2247962 104.573998,56.8553553 105.71142,58.2584271 C109.210871,22.1294621 79.7280258,10.4663276 79.7280258,10.4663276" id="Fill-10" fill="#1B314F" mask="url(#mask-2)"></path>
                    </g>
                    <path d="M44.1211269,39.5802009 C45.7832664,37.6509104 44.9084702,34.0555723 41.8465501,33.441695 C42.6338934,31.6000631 43.7710485,27.9170664 43.7710485,27.9170664 C43.7710485,27.9170664 34.8476472,41.9477843 34.0600373,42.2107601 C33.272694,42.4740031 32.4853508,39.4046165 32.4853508,39.4046165 C30.8232113,45.8063654 35.284912,46.6832185 35.8098963,44.6662694 C38.2593791,44.052392 42.4587208,41.4215656 44.1211269,39.5802009" id="Fill-13" fill="#1B314F"></path>
                    <path d="M36.5097066,43.0003287 L41.0588603,35.1957753 C41.0588603,35.1957753 43.6835155,36.5111885 42.3711879,38.6157962 C40.7090484,41.0710382 36.5097066,43.0003287 36.5097066,43.0003287" id="Fill-15" fill="#FFD923"></path>
                    <path d="M92.7632626,79.1291601 C91.4509349,80.8831335 89.9637014,82.7244982 88.2141089,84.4787388 C99.4998066,62.731126 88.7390933,42.8246107 88.3015619,42.0354162 C89.0889052,42.8246107 89.8762484,43.701731 90.5761387,44.4909255 C99.2374478,54.1371108 100.28715,68.6061217 92.7632626,79.1291601" id="Fill-17" fill="#D82122"></path>
                    <path d="M103.261617,51.1554096 C99.3249007,40.5447126 93.7257784,31.5124045 81.3901119,23.3572167 C69.4919769,15.4647375 56.7190456,16.0786148 56.0191553,16.1662734 L55.8442494,16.1662734 C56.2815142,15.9909562 56.7190456,15.9032976 57.1563104,15.815639 C59.8684186,14.938786 63.3678701,14.2372501 66.8673216,13.7986899 C76.141068,12.4832767 85.5020007,15.6403219 91.8884663,22.3924378 C91.9759193,22.4800964 91.9759193,22.4800964 92.0633723,22.567755 C99.3249007,30.2846499 103.086711,39.9308352 103.261617,51.1554096" id="Fill-19" fill="#D82122"></path>
                    <path d="M78.590604,7.74813659 C65.5550473,5.29289458 57.1563637,6.52038196 51.1199766,8.80057406 C50.9450707,8.09903816 50.3326333,6.69596637 49.8076489,5.55587032 C47.9703369,7.74813659 46.0458386,10.378963 44.8209639,12.0450105 C41.4964183,14.3252026 40.0966377,16.5174689 40.0966377,16.5174689 C42.0214027,9.94040286 47.6205251,5.02965158 54.4445221,3.8021642 C56.3690205,3.45126263 58.4686914,3.27594547 60.7435348,3.27594547 C66.779922,3.36360405 72.8165758,4.85433442 78.590604,7.74813659" id="Fill-21" fill="#D82122"></path>
                    <path d="M30.3856532,24.5849981 C20.1499243,24.2343638 23.5619228,12.3082535 23.7368287,11.6067176 C23.7368287,11.6943762 24.436719,20.98966 30.3856532,24.5849981" id="Fill-23" fill="#D82122"></path>
                    <path d="M40.4467162,3.10033433 C32.5727504,7.83576844 34.1477035,19.1480014 34.1477035,19.1480014 C26.6238162,7.66045128 39.8342789,3.36331007 40.4467162,3.10033433" id="Fill-25" fill="#D82122"></path>
                    <path d="M27.4986124,27.741776 C28.0235968,28.1803361 28.5485812,28.9695306 27.9361438,30.1093594 C27.5860654,30.7232367 27.0613476,30.6355782 26.2737377,30.2849438 C25.2240356,29.7587251 18.9250229,26.0757285 13.2384476,22.304806 C19.7123662,24.5847308 26.2737377,27.0402401 27.3237065,27.5664588 L27.4986124,27.741776 Z" id="Fill-27" fill="#FFFFFF"></path>
                </g>
            </g>
        </g>
    </g>
</svg>