<?xml version="1.0" encoding="UTF-8"?>
<svg width="100px" height="100px" viewBox="0 0 100 100" version="1.1" xmlns="http://www.w3.org/2000/svg" xmlns:xlink="http://www.w3.org/1999/xlink">
    <title>57DD50AB-1F5D-4C67-BB6C-C61E7AF34571</title>
    <g id="New-Site" stroke="none" stroke-width="1" fill="none" fill-rule="evenodd">
        <g id="Assets_Light" transform="translate(-330.000000, -1199.000000)">
            <g id="icon_chain" transform="translate(330.000000, 1199.000000)">
                <path d="M52.8301887,5.66037736 C78.8813561,5.66037736 100,26.7790212 100,52.8301887 C100,78.8813561 78.8813561,100 52.8301887,100 C26.7790212,100 5.66037736,78.8813561 5.66037736,52.8301887 C5.66037736,48.5628627 6.2270383,44.4278875 7.28921777,40.4964055 C10.7390479,42.347158 14.6809747,43.3962264 18.8679245,43.3962264 C32.4145316,43.3962264 43.3962264,32.4145316 43.3962264,18.8679245 C43.3962264,14.6809747 42.347158,10.7390479 40.4975334,7.29065644 C44.4278875,6.2270383 48.5628627,5.66037736 52.8301887,5.66037736 Z" id="Combined-Shape" fill="#3B5ECA"></path>
                <path d="M42.3476255,52.8345928 C42.3476255,54.9553683 42.3492124,57.0762028 42.344531,59.1969783 C42.3441541,59.360553 42.3925745,59.4571606 42.5403947,59.5398151 C43.2481144,59.9355673 43.94905,60.3432624 44.6520685,60.7473116 C47.5783796,62.4292536 50.5038577,64.1126343 53.4315573,65.7921917 C53.8963021,66.0587987 53.7207707,66.0605527 54.2002538,65.7865946 C55.8316113,64.8545342 57.4586644,63.9150834 59.0877407,62.9790814 C61.0769055,61.8361476 63.0653165,60.6918736 65.0578138,59.5546748 C65.2301516,59.4563132 65.2882125,59.3426189 65.2879546,59.1475906 C65.2825789,54.9388137 65.2822616,50.7300566 65.2886896,46.5212994 C65.2890059,46.3133822 65.2159091,46.202112 65.0404768,46.1046176 C64.4239447,45.761899 63.8153073,45.4051879 63.2035557,45.053995 C61.4769839,44.0627324 59.7502535,43.0717457 58.0237809,42.080286 C56.6746543,41.3054937 55.3247342,40.5320022 53.9786823,39.7519677 C53.8511349,39.6780635 53.7556627,39.6852174 53.6348993,39.7548845 C52.0132814,40.690512 50.3897989,41.6229469 48.7665941,42.5558744 C47.1890922,43.4625118 45.6113918,44.3687944 44.0337907,45.275215 C43.525049,45.5675013 43.0179934,45.8626847 42.5063754,46.1499061 C42.3875758,46.2165972 42.3286025,46.2972809 42.346713,46.43291 C42.3527631,46.4780803 42.3476255,46.5247089 42.3476255,46.5706675 C42.3476056,48.6586294 42.3476056,50.7466111 42.3476255,52.8345928 M33.9622642,64.1634607 L33.9622642,41.5057249 C34.0341311,41.4731676 34.1089933,41.4458921 34.1772897,41.4071662 C34.6304302,41.1502357 35.0824401,40.8913344 35.5342913,40.6321966 C37.6391017,39.4250351 39.7440113,38.2180904 41.8483259,37.0101208 C43.9355217,35.8119855 46.0214281,34.6116626 48.1090801,33.4143155 C49.9564947,32.3547457 51.8061507,31.2990188 53.6524544,30.2375373 C53.7728608,30.1683038 53.8637507,30.1748863 53.9794162,30.2431343 C54.3825296,30.4810074 54.7918518,30.7084354 55.1979803,30.9412435 C57.0513259,32.0036907 58.9046715,33.0661379 60.7574815,34.1295114 C62.8390041,35.3241585 64.9195349,36.5205595 67.0013352,37.714773 C69.1289177,38.9352373 71.2566986,40.155406 73.3874748,41.370293 C73.5334105,41.453519 73.5840922,41.5478405 73.5840129,41.7125779 C73.5802836,49.1267881 73.5800853,56.5409983 73.5849057,63.9552281 C73.5849057,64.1334457 73.5194655,64.2231162 73.3712288,64.3076035 C71.6183144,65.3067098 69.866491,66.3077278 68.1193292,67.3167078 C65.9382283,68.5763118 63.7636734,69.8471295 61.5827114,71.107029 C59.0993053,72.5416185 56.6112773,73.9683249 54.12801,75.4031902 C53.9785633,75.4895695 53.8631953,75.4976103 53.7115468,75.4081369 C53.1153667,75.0563922 52.5122835,74.7161962 51.9108269,74.37332 C48.7546328,72.574097 45.5978436,70.7758987 42.4418479,68.9763209 C39.8758037,67.5131157 37.3108902,66.0479003 34.7445088,64.5852863 C34.4872121,64.4386603 34.2231909,64.3037802 33.9622642,64.1634607" id="Fill-1" fill="#FFFFFF"></path>
                <g id="Group-2">
                    <circle id="Oval" fill="#0072FF" cx="18.8679245" cy="18.8679245" r="18.8679245"></circle>
                    <g id="Group" transform="translate(7.547170, 9.433962)" fill="#FFFFFF">
                        <path d="M5.51861478,15.0943396 L5.51861478,13.2958651 C6.78997761,13.1674026 7.76037623,12.8007494 8.42981065,12.1959053 C9.09924506,11.5910612 9.43396226,10.8550783 9.43396226,9.98795664 C9.43396226,9.29211829 9.25113354,8.73277131 8.88547609,8.3099157 C8.51981863,7.88706008 8.06977869,7.56858022 7.53535626,7.35447611 C7.00093383,7.14037201 6.32868667,6.94232571 5.51861478,6.76033721 L5.51861478,6.76033721 L5.51861478,3.51665998 C6.48620065,3.62371203 7.39753153,3.91275258 8.25260742,4.38378161 L8.25260742,4.38378161 L8.94454383,2.76194299 C8.49450389,2.48360765 7.96851971,2.25879834 7.36659128,2.08751505 C6.76466286,1.91623177 6.14867069,1.81453232 5.51861478,1.7824167 L5.51861478,1.7824167 L5.51861478,0 L4.13474196,0 L4.13474196,1.81453232 C2.87463012,1.93228958 1.91266975,2.29626656 1.24886084,2.90646327 C0.585051923,3.51665998 0.253147467,4.25531915 0.253147467,5.12244079 C0.253147467,5.81827914 0.433163443,6.37762612 0.793195396,6.80048173 C1.15322735,7.22333735 1.60045454,7.54449351 2.13487697,7.76395022 C2.6692994,7.98340693 3.33592106,8.18412953 4.13474196,8.36611802 L4.13474196,8.36611802 L4.13474196,11.5776796 C3.49343504,11.5241536 2.87463012,11.3876623 2.2783272,11.1682055 C1.68202428,10.9487488 1.17572935,10.6784424 0.759442401,10.3572862 L0.759442401,10.3572862 L0,11.9791248 C0.438788943,12.3431018 1.02946637,12.6428476 1.77203227,12.8783621 C2.51459817,13.1138766 3.30216807,13.2583969 4.13474196,13.3119229 L4.13474196,13.3119229 L4.13474196,15.0943396 L5.51861478,15.0943396 Z M4.13474196,6.42312324 C3.58344303,6.27325037 3.16153059,6.09126188 2.86900462,5.87715777 C2.57647866,5.66305366 2.43021568,5.37936572 2.43021568,5.02609394 C2.43021568,4.65141175 2.57085316,4.33560819 2.85212813,4.07868326 C3.13340309,3.82175833 3.56094103,3.65047504 4.13474196,3.5648334 L4.13474196,3.5648334 L4.13474196,6.42312324 Z M5.51861478,11.545564 L5.51861478,8.703332 C6.0811647,8.85320487 6.51432815,9.03786966 6.81810511,9.25732637 C7.12188207,9.47678309 7.27377055,9.76849993 7.27377055,10.1324769 C7.27377055,10.4964539 7.13032032,10.8015523 6.84341985,11.047772 C6.55651939,11.2939917 6.1149177,11.4599224 5.51861478,11.545564 L5.51861478,11.545564 Z" id="$1" fill-rule="nonzero"></path>
                        <polygon id="Path" points="18.2075472 18.8679245 18.2075472 0 10.3396226 0 10.3396226 3.08490566 14.5283019 3.08490566 14.5283019 18.8679245"></polygon>
                    </g>
                </g>
            </g>
        </g>
    </g>
</svg>