<?xml version="1.0" encoding="utf-8"?>
<!-- Generator: Adobe Illustrator 23.1.0, SVG Export Plug-In . SVG Version: 6.00 Build 0)  -->
<svg version="1.1" id="Layer_1" xmlns="http://www.w3.org/2000/svg" xmlns:xlink="http://www.w3.org/1999/xlink" x="0px" y="0px"
	 viewBox="0 0 100 100" style="enable-background:new 0 0 100 100;" xml:space="preserve">
<style type="text/css">
	.st0{fill:url(#SVGID_1_);}
	.st1{fill:#50D19D;}
	.st2{fill:#333336;}
</style>
<title>Asset 54</title>
<g>
	<g>
		<g>
			<linearGradient id="SVGID_1_" gradientUnits="userSpaceOnUse" x1="1.5405" y1="50" x2="98.4595" y2="50">
				<stop  offset="0" style="stop-color:#45DCA3"/>
				<stop  offset="1" style="stop-color:#128D89"/>
			</linearGradient>
			<path class="st0" d="M52.5,1.7c-0.8-0.1-1.7-0.1-2.5-0.1C23.3,1.5,1.5,23.3,1.5,50c0,7.4,1.7,14.3,4.6,20.6
				c0.1,0.3,0.3,0.6,0.4,0.7C13.8,86,28.2,96.6,45.3,98.2c0.1,0,0.3,0,0.4,0c1,0.1,2,0.1,3,0.2c0.3,0,0.6,0,0.9,0c0,0,0,0,0,0
				c0,0,0,0,0,0c0.1,0,0.2,0,0.2,0c26.7,0,48.5-21.7,48.5-48.5C98.5,24.1,78.1,3,52.5,1.7z M72.1,26.5c0,12.2-9.9,22.1-22.1,22.1
				c-13.7,0-24.9,11.2-24.9,24.9c0,6.5,2.5,12.3,6.5,16.8c-1.5-1.1-2.9-2.2-3.9-3.2c-4.9-4.9-7.9-11.6-7.9-17.9
				c0-12.9,8.1-20.3,24.7-22.6c14.5-2,21.8-9.2,21.8-21.3c0-6.3-2.8-12-8-16.1c-2.8-2.2-6.2-3.8-9.8-4.8c0.5,0,1-0.1,1.5-0.1
				C62.2,4.4,72.1,14.3,72.1,26.5z M8.8,69.5C8.1,67.2,5.2,57.1,9,49.6c1.8-3.6,5-6.1,9.5-7.5c1.7-0.5,3.3-1,4.9-1.4
				c13.8-4,21.4-6.2,21.7-16.8c0.2-5.3-3.1-10-8.5-12.3c-1.3-0.5-2.7-0.9-4.2-1.1c5.1-0.8,10.2-0.3,14,1.7c4.6,2.4,7,6.6,7,12.1
				c0,7.7-3.8,12.2-12.3,14.6c-1,0.3-2.1,0.6-3.1,0.9C24.8,43.2,8.4,47.6,9.7,67c0.2,2.6,0.9,5.3,2.2,8C10.7,73.3,9.7,71.4,8.8,69.5
				z M11.7,25.3C11.7,25.3,11.7,25.3,11.7,25.3C17,18.4,23.3,17,27,17.9c2.6,0.6,4.3,2.2,4.7,4.4c0.4,2.1,0.1,3.8-0.9,5.1
				c-2.3,3-7.9,3.8-12.6,4.2c-5.3,0.4-9.4,2.5-12.2,6.3c0,0,0,0,0,0C7.3,33.4,9.2,29.2,11.7,25.3z M35.2,6.9c0,0,0.1,0,0.1,0
				c7.4-1.7,15.5,0.1,21.2,4.6c4.5,3.6,6.9,8.5,6.9,13.9c0,10.6-6.3,16.7-19.4,18.5c-18,2.5-27.1,11-27.1,25.4
				c0,4.9,1.6,10,4.4,14.4c-5.2-5.1-8.5-11.2-8.8-16.8C11.4,49.7,25.2,46,38.7,42.4c1.1-0.3,2.1-0.6,3.2-0.9
				c9.7-2.7,14.4-8.3,14.4-17.3c0-6.5-3-11.7-8.5-14.6c-4-2.1-9-2.8-14.1-2.3C34.1,7.3,34.7,7.1,35.2,6.9z M4.9,52.9
				c-0.1-4.1,0.5-9.4,3.4-13.3c2.3-3,5.7-4.8,10.2-5.1c5.6-0.4,11.7-1.4,14.6-5.3c1.5-2,2-4.5,1.4-7.4c-0.6-3.3-3.2-5.8-6.8-6.6
				c-1.6-0.4-3.5-0.4-5.6,0c5-2.5,9.9-2.3,13.4-0.9c4.3,1.8,6.9,5.5,6.8,9.6c-0.3,8.5-6,10.2-19.7,14.2c-1.5,0.4-3.2,0.9-4.9,1.4
				c-5.2,1.6-9,4.5-11.2,8.9C5.7,49.8,5.2,51.3,4.9,52.9z M50,95.6C50,95.6,50,95.6,50,95.6c-0.1,0-0.2,0-0.2,0
				c-12.1-0.1-21.9-10-21.9-22.1c0-12.2,9.9-22.1,22.1-22.1c13.7,0,24.9-11.2,24.9-24.9c0-7.7-3.5-14.6-9-19.2
				C83.2,13.7,95.6,30.4,95.6,50C95.6,75.2,75.2,95.6,50,95.6z"/>
			<g>
				<circle class="st1" cx="51.7" cy="73.5" r="15.3"/>
				<path class="st2" d="M59.8,78.5c-0.9-0.5-2-0.9-3.1-1.3v-2.7h0.2c0.4,0,0.8-0.1,0.9-0.4c0.1-0.1,0.2-0.4,0.1-0.7
					c-0.1-0.6-0.6-1-1.2-1h-0.1v-2.7c1.1-0.3,2.2-0.8,3.1-1.3c0.2-0.1,0.4-0.4,0.5-0.6s0-0.6-0.1-0.8c-0.3-0.5-0.9-0.7-1.4-0.4
					c-4.3,2.4-9.9,2.4-14.2,0c-0.5-0.3-1.2-0.1-1.4,0.4c-0.1,0.2-0.2,0.5-0.1,0.8c0.1,0.3,0.3,0.5,0.5,0.6c0.9,0.5,2,0.9,3.1,1.3
					v2.7h-0.2c-0.2,0-0.7,0-0.9,0.4c-0.1,0.1-0.2,0.4-0.2,0.7c0.1,0.6,0.6,1,1.2,1h0.1v2.7c-1.1,0.3-2.2,0.8-3.1,1.3
					c-0.2,0.1-0.4,0.4-0.5,0.6c-0.1,0.3,0,0.6,0.1,0.8c0.3,0.5,0.9,0.7,1.4,0.4c4.3-2.4,9.9-2.4,14.2,0c0.2,0.1,0.3,0.1,0.5,0.1
					c0.4,0,0.7-0.2,0.9-0.5c0.1-0.2,0.2-0.5,0.1-0.8S60.1,78.7,59.8,78.5z M54.6,74.6v2.2c-1-0.2-2-0.3-2.9-0.3s-1.8,0.1-2.9,0.3
					v-2.2H54.6z M54.6,70.3v2.2h-5.7v-2.2C50.9,70.6,52.5,70.6,54.6,70.3z"/>
			</g>
		</g>
	</g>
</g>
</svg>
