<?xml version="1.0" encoding="UTF-8"?>
<svg width="100px" height="92px" viewBox="0 0 100 92" version="1.1" xmlns="http://www.w3.org/2000/svg" xmlns:xlink="http://www.w3.org/1999/xlink">
    <title>C6981977-7435-401F-95C1-10298C65CD22</title>
    <defs>
        <polygon id="path-1" points="-1.39122439e-15 28.0150293 77.6924186 81.5320979 96.9066727 53.1031152 19.2142541 0"></polygon>
        <linearGradient x1="35.5558543%" y1="8.0466912%" x2="51.4549987%" y2="54.0282646%" id="linearGradient-3">
            <stop stop-color="#02B8FF" offset="0%"></stop>
            <stop stop-color="#F952A0" offset="100%"></stop>
        </linearGradient>
        <path d="M1.6839859,5.28522344 C-4.58153173,14.902323 7.11410117,34.5504757 28.8345623,49.1851925 L28.8345623,49.1851925 C50.1373222,64.2422254 72.6931857,68.0012569 79.3764045,58.3883387 L79.3764045,58.3883387 C80.4248344,56.7785198 80.967846,54.8760066 81.0472092,52.7602447 L81.0472092,52.7602447 L81.0472092,51.6521876 C80.6671011,41.1277355 69.6899142,25.9118114 52.2258281,14.4841883 L52.2258281,14.4841883 C38.8050893,5.0008918 24.8914632,0 14.7580327,0 L14.7580327,0 C8.80579093,0 4.15677685,1.72689658 1.6839859,5.28522344" id="path-4"></path>
        <linearGradient x1="36.4592733%" y1="13.3718556%" x2="55.470097%" y2="64.7095246%" id="linearGradient-6">
            <stop stop-color="#02B8FF" offset="0%"></stop>
            <stop stop-color="#F952A0" offset="100%"></stop>
        </linearGradient>
        <path d="M1.84022382,5.28522344 C-4.84299499,15.3204578 7.2703391,34.554657 28.573099,49.6075086 L28.573099,49.6075086 C49.875859,64.6603601 72.4358994,68.423573 79.1149412,58.8106548 L79.1149412,58.8106548 C85.3804589,49.1893738 73.684826,29.5370398 52.382066,14.4841883 L52.382066,14.4841883 C38.9613273,5.0008918 25.0435241,0 14.9100936,0 L14.9100936,0 C8.96202886,0 4.31301478,1.72689658 1.84022382,5.28522344" id="path-7"></path>
        <linearGradient x1="28.9648526%" y1="-7.21075299%" x2="48.0335076%" y2="44.7816485%" id="linearGradient-9">
            <stop stop-color="#02B8FF" offset="0%"></stop>
            <stop stop-color="#F952A0" offset="100%"></stop>
        </linearGradient>
    </defs>
    <g id="New-Site" stroke="none" stroke-width="1" fill="none" fill-rule="evenodd">
        <g id="Assets_Light" transform="translate(-1202.000000, -1203.000000)">
            <g id="icon_sushiswap" transform="translate(1202.000000, 1203.000000)">
                <g id="Group-3" transform="translate(1.422523, 5.285223)">
                    <mask id="mask-2" fill="white">
                        <use xlink:href="#path-1"></use>
                    </mask>
                    <g id="Clip-2"></g>
                    <polygon id="Fill-1" fill="url(#linearGradient-3)" mask="url(#mask-2)" points="-1.39122439e-15 28.0150293 77.6924186 81.5320979 96.9066727 53.1031152 19.2142541 0"></polygon>
                </g>
                <g id="Group-6" transform="translate(18.952791, 0.000000)">
                    <mask id="mask-5" fill="white">
                        <use xlink:href="#path-4"></use>
                    </mask>
                    <g id="Clip-5"></g>
                    <path d="M1.6839859,5.28522344 C-4.58153173,14.902323 7.11410117,34.5504757 28.8345623,49.1851925 L28.8345623,49.1851925 C50.1373222,64.2422254 72.6931857,68.0012569 79.3764045,58.3883387 L79.3764045,58.3883387 C80.4248344,56.7785198 80.967846,54.8760066 81.0472092,52.7602447 L81.0472092,52.7602447 L81.0472092,51.6521876 C80.6671011,41.1277355 69.6899142,25.9118114 52.2258281,14.4841883 L52.2258281,14.4841883 C38.8050893,5.0008918 24.8914632,0 14.7580327,0 L14.7580327,0 C8.80579093,0 4.15677685,1.72689658 1.6839859,5.28522344" id="Fill-4" fill="url(#linearGradient-6)" mask="url(#mask-5)"></path>
                </g>
                <g id="Group-9" transform="translate(0.000000, 27.596895)">
                    <mask id="mask-8" fill="white">
                        <use xlink:href="#path-7"></use>
                    </mask>
                    <g id="Clip-8"></g>
                    <path d="M1.84022382,5.28522344 C-4.84299499,15.3204578 7.2703391,34.554657 28.573099,49.6075086 L28.573099,49.6075086 C49.875859,64.6603601 72.4358994,68.423573 79.1149412,58.8106548 L79.1149412,58.8106548 C85.3804589,49.1893738 73.684826,29.5370398 52.382066,14.4841883 L52.382066,14.4841883 C38.9613273,5.0008918 25.0435241,0 14.9100936,0 L14.9100936,0 C8.96202886,0 4.31301478,1.72689658 1.84022382,5.28522344" id="Fill-7" fill="url(#linearGradient-9)" mask="url(#mask-8)"></path>
                </g>
                <g id="Group-22" transform="translate(16.337841, 3.079697)">
                    <path d="M81.9896837,55.3086413 L81.9896837,55.3086413 L62.7754296,83.7418054 C56.0963878,93.358905 33.5363474,89.1775573 12.2335874,74.5428405 C8.05657567,71.6158972 4.29726509,68.6889538 0.537954511,65.3438757 C3.46186274,64.9257409 7.22535033,63.2532019 10.9804839,59.0718542 C17.6678797,51.9635632 21.0053121,50.2910241 23.9333973,50.7091589 C26.8531286,50.7091589 30.198915,53.6361023 35.6248532,60.7443933 C41.0549685,67.8526843 48.5735897,69.9433581 53.1724796,66.1801452 C53.5860038,65.7620105 54.007882,65.7620105 54.4214061,65.3438757 C58.1848937,62.4169323 59.4379972,61.162528 66.5389172,47.7822156 C68.2055449,44.4371374 74.0575384,39.0013855 81.9896837,41.5101941 C84.0781896,46.945946 84.0781896,51.5454284 81.9896837,55.3086413" id="Fill-10" fill="#0E0F23"></path>
                    <path d="M60.6885946,41.0924774 C57.7646863,45.2738251 47.7398581,43.1831513 37.7150299,36.492995 C28.1079029,29.8028388 22.2600864,21.0220087 25.1839947,16.840661 C28.1079029,12.6593134 38.1327311,14.7499872 48.1575593,21.4401435 C57.7646863,28.1302997 63.6125028,36.9111298 60.6885946,41.0924774 M79.0674463,53.6365204 C73.2196298,61.9992157 52.7522722,57.8178681 33.120317,44.0194208 C13.0706606,30.2209735 1.37502767,12.6593134 7.22284412,4.29661808 C13.0706606,-4.06607723 33.5380182,0.115270422 53.1699734,13.9137177 C72.8019286,27.7121649 84.4975615,45.2738251 79.0674463,53.6365204" id="Fill-12" fill="#FFFFFF"></path>
                    <path d="M2.62854889,11.8230439 C2.62854889,11.4049091 2.21084772,10.9867743 1.79314654,11.4049091 C1.37544537,11.8230439 0.957744192,11.8230439 0.957744192,12.2411786 C1.37544537,13.4955829 1.79314654,14.3318524 1.79314654,15.168122 C1.79314654,15.5862567 2.21084772,16.0043915 2.62854889,15.5862567 C3.04625007,15.5862567 3.46395124,15.168122 3.04625007,14.7499872 C3.04625007,13.9137177 3.04625007,13.0774482 2.62854889,11.8230439" id="Fill-14" fill="#FFFFFF"></path>
                    <path d="M4.71705477,18.5136182 C4.71705477,18.0954835 4.29935359,17.6773487 3.88165242,18.0954835 C3.46395124,18.5136182 3.46395124,18.5136182 3.46395124,18.931753 C8.05866417,29.3851221 17.6657912,40.6747608 30.1968265,49.0374561 C30.6145276,49.4514095 31.0322288,49.0374561 31.44993,49.0374561 C31.8676312,48.6193214 31.44993,48.2011866 31.44993,47.7830518 C18.5011936,39.4203565 9.3117677,28.5488526 4.71705477,18.5136182" id="Fill-16" fill="#FFFFFF"></path>
                    <path d="M55.2593147,59.489989 C54.8374365,59.489989 54.4239123,59.489989 54.4239123,59.9081238 C54.4239123,60.3262585 54.4239123,60.7443933 54.8374365,60.7443933 C56.094717,61.162528 57.7655217,61.5806628 59.0144482,61.9987976 C59.4363264,61.9987976 59.8540276,61.9987976 59.8540276,61.5806628 C59.8540276,61.162528 59.8540276,60.7443933 59.4363264,60.7443933 C58.1832229,60.3262585 56.5124182,59.9081238 55.2593147,59.489989" id="Fill-18" fill="#FFFFFF"></path>
                    <path d="M62.7771004,61.1642006 C62.3593993,61.1642006 61.9416981,61.5823354 61.9416981,61.9962888 C61.9416981,62.4186049 62.3593993,62.8325583 62.7771004,62.8325583 C66.1187098,63.2548744 69.8780204,63.6730092 72.8019286,63.2548744 C73.2196298,63.2548744 73.637331,62.8325583 73.637331,62.4186049 C73.637331,61.9962888 73.2196298,61.5823354 72.8019286,61.5823354 C69.4603192,61.9962888 66.1187098,61.5823354 62.7771004,61.1642006" id="Fill-20" fill="#FFFFFF"></path>
                </g>
            </g>
        </g>
    </g>
</svg>