<?xml version="1.0" encoding="utf-8"?>
<!-- Generator: Adobe Illustrator 24.2.3, SVG Export Plug-In . SVG Version: 6.00 Build 0)  -->
<svg version="1.1" id="Слой_1" xmlns="http://www.w3.org/2000/svg" xmlns:xlink="http://www.w3.org/1999/xlink" x="0px" y="0px"
	 viewBox="0 0 512 512" style="enable-background:new 0 0 512 512;" xml:space="preserve">
<style type="text/css">
	.st0{fill:url(#SVGID_1_);}
	.st1{fill:#00A8FF;}
	.st2{fill:#FFFFFF;}
	.st3{fill:#D82123;}
	.st4{fill:#FFFFFF;enable-background:new    ;}
	.st5{fill:#93A5C3;}
	.st6{fill:#0A1726;}
	.st7{fill:#FFD821;}
	.st8{fill:#244063;}
</style>
<g>
	
		<radialGradient id="SVGID_1_" cx="417.7505" cy="261.812" r="310.141" gradientTransform="matrix(1 0 0 0.9987 0 0.3277)" gradientUnits="userSpaceOnUse">
		<stop  offset="0" style="stop-color:#C3FFFF"/>
		<stop  offset="0.8296" style="stop-color:#00B6FF"/>
	</radialGradient>
	<path class="st0" d="M0.3,256C0.3,114.6,114.8,0,256.1,0S512,114.6,512,256S397.4,512,256.1,512S0.3,397.4,0.3,256z"/>
	<path class="st1" d="M473.8,390.7c-44.5,71.9-123.6,120-214,121.3c-1.2,0-2.4,0-3.7,0c-70.2,0-133.8-28.3-180-74.1
		c63.1-7.7,152-19.5,198.1-35.1c0,0,0,0,0,0h0c35-11.9,68.7-26.6,98.6-45c6.2-4.2,12.3-4,16.3-4c4,0,8.4-1.3,11.3-2.4
		C402.2,350.8,428,370.6,473.8,390.7z"/>
	<path class="st2" d="M452.8,403.8c-5-3.4-9.8-7-13.4-9.6c-1.5-1.1-3.5,0.5-2.8,2.2c2,4.6,5.1,11.2,8.8,18.7
		c2.2,4.4-3.9,8.1-6.8,4.1c-9-12.4-16.3-23.9-20.7-31c-1.3-2.2-4.7-1.3-4.8,1.2c-0.3,7.6-0.8,19.3-0.8,31.4c0,2.3-3.2,2.8-3.9,0.6
		c-3.2-9.6-6.6-21.2-8.6-28.1c-0.5-1.8-3-1.8-3.5,0l-2,6.6c-0.6,1.8-3.2,1.5-3.3-0.4c0-0.8,0-1.5-0.1-2.3c-0.1-2-2.9-2.5-3.6-0.6
		c-3.8,10.8-10.9,24.9-16.6,35.7c-1.2,2.4-4.8,1-4.2-1.6c3.3-13,7.5-30.6,9.5-43.7c0.4-2.8-3.1-4.5-5-2.4
		c-4.9,5.5-11.5,11.2-17,15.7c-1.8,1.5-4.2-0.7-3-2.7c1.4-2.1,2.7-4.2,3.9-6.3c0.9-1.6-0.8-3.4-2.4-2.5c-6.1,3.2-14.1,5.6-19.1,7
		c-1.4,0.4-2.5-1.2-1.7-2.4c0.7-0.9,1.3-2,1.7-3c0.8-1.9-1.1-3.7-3-2.9c-7.9,3.4-17,6.2-25.5,8.5c-2.7,0.7-4-3.2-1.4-4.2
		c24.3-9.7,47.6-21,69-34.1c6.2-4.2,12.3-4,16.3-4c4,0,8.4-1.3,11.3-2.4c1.7-0.6,25.5,17.6,67.8,36.8c2,0.9,1,4-1.2,3.6
		c-5.3-1.1-10-2.5-13.2-3.6c-1.7-0.6-3.1,1.3-2.1,2.8c1.3,1.8,3.1,4.3,5.9,7.5C460.5,401.7,456.4,406.2,452.8,403.8z"/>
	<g>
		<circle class="st3" cx="390.9" cy="263.5" r="82.9"/>
		<path class="st4" d="M446.9,302.9c-0.5-0.4-7.5-6.3-21.8-10.6v-24h4.2c3,0,4.5-2.4,4.5-5.4s-3.3-5.4-6.3-5.4h-2.4v-22.6
			c14.5-4.4,21.5-10.4,21.9-10.8c2.2-2,2.4-5.3,0.5-7.6c-1.9-2.2-5.4-2.5-7.6-0.5c-0.1,0.1-15.3,12.8-48.7,12.8
			c-33.3,0-48.9-12.6-49.2-12.8c-2.3-1.9-5.7-1.6-7.6,0.6c-1.9,2.3-1.7,5.7,0.6,7.6c0.5,0.4,7.9,6.6,23,11v22.3h-3.8
			c-3,0-4.5,2.4-4.5,5.4s3.3,5.4,6.3,5.4h2v23.6c-15.3,4.4-22.6,10.7-23.1,11.1c-2.2,2-2.4,5.3-0.5,7.6c1.9,2.2,5.4,2.5,7.6,0.5
			c0.1-0.1,15.3-12.8,48.7-12.8c33.3,0,49,12.6,49.2,12.8c1,0.9,2.3,1.3,3.5,1.3c1.5,0,3-0.6,4.1-1.9
			C449.4,308.2,449.2,304.8,446.9,302.9z M368.7,237.6c6.5,1.2,13.9,1.9,22.4,1.9c8.8,0,16.5-0.8,23.1-2.1v19.9h-45.5V237.6z
			 M368.7,289.3v-21.1h45.5v21.4c-6.8-1.3-14.6-2.1-23.6-2.1C382.4,287.4,375.1,288.2,368.7,289.3z"/>
	</g>
	<g>
		<polygon class="st2" points="48.8,239.2 77.6,191.8 107.1,149.4 124.9,140.8 146.1,73.3 187.8,152 227.8,157.7 258.3,202.2 
			262.1,244.7 303.8,313.2 297.2,357.2 246,368.8 194.5,337.8 187.6,297.6 101.4,280 97.6,353.6 109,430 52.5,370.7 24.5,277.1 		
			"/>
		<path class="st5" d="M290.1,358.8c0.2-4.5,7.6-11.7,8.4-27.3c-1,1.1-1.9,2.2-2.8,3.1c-13.2,14.4-19.7,11.3-24.2,4.3
			c-3.3-5.1-5.6-12.4-8.7-16.3c-0.8-1-1.5-2-2.4-3.1c-7.4-10.3-17.2-27.1-20.9-33.6c-4.1-7.2-6.8-9.7-14-11.8
			c-7.2-2.1-36.8-8.8-43-11.4c-6.2-2.6-34.8-25.9-34.8-25.9l-9.7-43.1l11.3-26.2l0.8-1.8l-13.6-15.6l-17.7-0.7l-29.3,25.1l-6.4,5.5
			l-0.4,4.3v0l-3.9,42l-8.5-8.6l-16.6,13.1l0,0L38.5,243l-0.7,13.4l-0.7,12.5c0,0,1.9,6.1,5.8,15.7c2.3,5.8,5.4,13,9.2,20.8
			c2.4,5,5.2,10.4,8.3,15.8c5.7,10.3,12.6,21,20.5,31.3c3.5,4.6,7.3,9,11.2,13.3c2.1-28.7,5.5-52.2,8.4-68.5c0,0,0,0,0,0
			c0,0,0,0,0,0c0,0,0,0,0,0c1.2-6.9,2.4-12.6,3.3-16.7c0.7-3.1,1.2-5.4,1.6-6.8v0c0.3-1.2,0.4-1.8,0.4-1.8l-4.2-10c0,0,0,0,0,0
			l-3.8-9.1c30.5,31.4,83.7,29.3,83.7,29.3s9.6,21.5,19,42.6l0,0c0.4,0.9,0.8,1.9,1.2,2.8v0c0.9,2.1,1.9,4.2,2.8,6.3
			c2-1.3,3.8-2.3,5.4-3.1c19-9.3,10,15.5,35.9,25.9c0.1,0,0.1,0.1,0.2,0.1c0.4,0.2,0.8,0.3,1.2,0.4c0,0,0,0,0,0
			c5.8,2.1,17.5,4.2,27.3,5.1h0c10,1,18.1,0.9,16.4-1.3C290.3,360.4,290.1,359.7,290.1,358.8z M162.6,277.3l-11.6-7.8L111.8,243
			l-9-40.1l2.3-5.4l6.4,1.9l8.4,40.3l47.9,33.1L162.6,277.3z"/>
		<g>
			<path class="st6" d="M240.3,219.8c3.6,9-3,25.3-13.4,20.1c-9.4-4.7-61.1-49.4-61.1-49.4s9.2,14,11.5,18.1
				c-4.8,3.4-15,14.7-8.3,26.2c18.6,31.9,62.2,25.1,62.2,25.1s22.2,19.8,25.3,22.7c2,1.9-15.6-29.3-15.6-29.3
				S256.4,237.6,240.3,219.8z"/>
			<path class="st6" d="M285.1,327.7c-3.8-13.9-17.4-9.5-17.4-9.5s-5.3,0.6-7.5-12.4c0,0-2,19.5,6.2,29.2
				C274.6,344.7,288.3,339.3,285.1,327.7z"/>
			<path class="st6" d="M165.2,156l-16.5-37.4C148.7,118.7,145.7,144.4,165.2,156z"/>
			<path class="st6" d="M356.5,72c-66.7,44-83.1,52.8-83.7,53.2c0.3-0.9,20.1-50.3-40.3-71.8c10,13.2,9.4,19.9,9.4,19.9
				s-43.1-51.9-125.2-22.1c25.5-1.5,41.9,5.6,44.6,7.7c-2-1-37.6-6.1-75.2,5.8c-0.1,0.1-0.3,0.1-0.4,0.1
				c-18.7,16.7-35,36.1-48.1,57.5c-4,6.5-7.6,13.1-11,19.9c-7.9,15.9-14.2,32.8-18.7,50.5c-2.7,10.5-4.7,21.3-6,32.4
				C0.6,235.2,0,245.5,0,256c0,6.3,0.2,12.6,0.7,18.7c1.7,23.1,6.4,45.4,13.8,66.5c0-0.3-0.1-0.7-0.1-1
				c26.8,77,89.4,137.3,167.8,161C158.5,483,133.8,454,118,410c16,33.5,47.8,63.1,76.1,76.2c-82.7-70.8-79.2-188-79.2-188
				s16.1,9.5,39.7,6.9c5.6,3.9,18,12,25.5,17.5c2.5,17.8,8.4,25.9,11.3,28.3c6.8,5.7,32.5,26.4,42.5,29.4c7.8,2.4,48.4,1.8,58.7-5.6
				c9.3-6.7,13.8-28.7,15.7-39.1c1.7-9.5,0.8-21.8-6.4-35.1c-7.4-13.5-32.8-63.2-32.8-63.2s1.9-27.5-10.6-47.3
				c0,0,38.1-42.9,100.4-115.4C361,72.1,359.2,70.2,356.5,72z M264.7,255.7c4.8,8.5,24.2,42.9,30.8,55.6c2.6,5,2.1,15.1,0.3,23.3
				c-1.4,6.2-3.5,11.3-5.6,12.5c-5,2.8-22.7,6.7-31.5-7c-8.8-13.7-12.2-28-19.7-30.2c-7.5-2.1-28.8-5.6-39.8-12.5
				c16.6-0.4,24.6-4.9,24.6-4.9s-32.6-15-46-21.9c-13.4-6.8-38.5-25.4-38.5-25.4l-11.9-47.9l14.6-34.7c0,0,2.9,2.2,7.6,4.6
				c2.5,1.3,5.7,2.6,9.1,3.6c-13.3-14.9-27.8-44.6-12.7-74.2c18,31.6,38.2,77.4,38.2,77.4s9.9,2.5,21,10.5c-2.6-9.3-9-13.5-9.4-13.8
				c0.7,0.1,15,5.4,24-0.1c0,0-2.2,26,29.2,28.9c8.3,4.4,10.7,35.1,6.9,53.8c-1.2,7.2,2.3,12.6,8.6,23.3
				C262.3,270.5,263.4,261.9,264.7,255.7z M116.6,170.7l-11.5,26.7l10.7,43.5l44.3,29.6c-3.2-0.3-6.2-0.6-9.2-1.1
				c-43-6.9-66.2-36.8-60.4-72.5c6.7-41.5,42.7-39.3,42.7-39.3l-3.3,9.7L116.6,170.7z M42.9,284.6c0.2-19.9,3.8-33,3.8-33
				s0.9,28.5,5.4,53.8c2.6,14.5,6.3,27.9,11.7,34.4c-1.6-6.1-2.7-12.3-3.4-18.6c-3.5-29.7,1.3-58.3,1.3-58.3s12.2,15.5,24,24.6
				c0,0-8.5,25.7-4.8,65c1.4,15.2,4.6,32.4,10.8,50.9C50.2,362.9,42.6,315.5,42.9,284.6z M245.8,356.7c-24.1-9.1-36-13.2-36-24.9
				c0-0.4,0-0.7,0.1-1.1c0.8-3.9,5.7-7.9,10.4-7.2c-0.2-2.6-2.3-4.3-5.9-5.2c7,0.3,12.4,4.5,15.7,14.9c5.1,16.5,16.4,23.6,17.1,24
				c-0.4-0.2-0.8-0.3-1.2-0.4C245.9,356.8,245.8,356.7,245.8,356.7z"/>
		</g>
		<path class="st7" d="M222.4,251.6l-39-34.7c0,0-9.7,10.7-1.7,18.9C198,252.5,222.4,251.6,222.4,251.6z"/>
		<path class="st5" d="M249.2,184.7c13.2-14.4,63.4-66,85.7-89.9c0.8-0.9-0.3-2.2-1.3-1.5c-24.3,16.6-80.6,62.2-98.5,74.5
			c-3.4,2.3-4.8,6.6-3.4,10.4c1.8,4.9,2.6,7,8,9C243,188.4,246.8,187.3,249.2,184.7z"/>
		<path class="st2" d="M246.2,178.9c5.1-5.6,41.3-41.5,49.9-50.7c0.3-0.3-0.1-0.9-0.5-0.6c-9.4,6.4-50.1,37.7-57,42.4
			c-1.3,0.9-2.5,3.6-2,5.1c0.7,2.1,1.7,3.9,4.7,5C242.6,180.5,245.3,179.9,246.2,178.9z"/>
		<path class="st8" d="M89.6,244.1c0,0,11.8,36.9,67.9,39c12.6,10.1,27.9,25.8,27.9,25.8l-31-18.5
			C154.4,290.4,93.9,288.7,89.6,244.1z"/>
		<g>
			<path class="st3" d="M253,85.1c0,0,8.2,18.6,0,39.3C274.3,108.7,253,85.1,253,85.1z"/>
			<path class="st3" d="M176.3,55.5c53,24.8,62.5,77.1,62.5,77.1C247.7,104.6,240.5,66.9,176.3,55.5z"/>
			<path class="st3" d="M216.5,141.2c-16-21.5-39.2-34.7-62.1-42.7l-9-16c0,0-3.8,4.6-7.5,11c-32.5-8.3-67.6-5.4-67.6-5.4
				C101,73.5,195.3,59.2,216.5,141.2z"/>
			<path class="st3" d="M128.5,125.1c-44.9-5.8-79.4,5.3-102,17.1c3.4-6.8,7.1-13.5,11-19.9C61.9,110.8,91.7,107,128.5,125.1z"/>
			<path class="st3" d="M93.6,153.2c0,0-56.6,19.8-91.8,71.9c1.3-11,3.3-21.8,6-32.4C41.7,148.3,93.6,153.2,93.6,153.2z"/>
			<path class="st3" d="M14.4,340.2c0,0.3,0.1,0.7,0.1,1c-7.4-21-12.2-43.3-13.8-66.5c0.1-0.2,0.1-0.5,0.2-0.7
				c7.7-25.2,22.6-40,28.6-45C29.5,229,9.3,279.7,14.4,340.2z"/>
		</g>
		<path class="st8" d="M229.2,358.4c0,0-13.9-5-22.9-13.7c-6.4-6.2-7.7-16.5-0.9-23c-14.7,6.9-10.1,19.7-6.4,23.3
			C210.6,356.2,229.2,358.4,229.2,358.4z"/>
	</g>
	<path class="st6" d="M143.4,392c0,0,31.5,74,152.1,99.5C178.3,502.6,143.4,392,143.4,392z"/>
</g>
</svg>
