<?xml version="1.0" encoding="UTF-8"?>
<svg width="100px" height="100px" viewBox="0 0 100 100" version="1.1" xmlns="http://www.w3.org/2000/svg" xmlns:xlink="http://www.w3.org/1999/xlink">
    <title>419E11E6-A99C-45FB-84F0-06EDFD5D4D46</title>
    <g id="New-Site" stroke="none" stroke-width="1" fill="none" fill-rule="evenodd">
        <g id="Assets_Light" transform="translate(-50.000000, -1199.000000)">
            <g id="icon_bitcoin" transform="translate(50.000000, 1199.000000)">
                <path d="M52.8301887,5.66037736 C78.8813561,5.66037736 100,26.7790212 100,52.8301887 C100,78.8813561 78.8813561,100 52.8301887,100 C26.7790212,100 5.66037736,78.8813561 5.66037736,52.8301887 C5.66037736,48.5628627 6.2270383,44.4278875 7.28921777,40.4964055 C10.7390479,42.347158 14.6809747,43.3962264 18.8679245,43.3962264 C32.4145316,43.3962264 43.3962264,32.4145316 43.3962264,18.8679245 C43.3962264,14.6809747 42.347158,10.7390479 40.4975334,7.29065644 C44.4278875,6.2270383 48.5628627,5.66037736 52.8301887,5.66037736 Z" id="Combined-Shape" fill="#EA973D"></path>
                <g id="Group-27" transform="translate(35.849057, 30.188679)">
                    <path d="M7.63629135,4.62258784 C7.61460408,4.68983723 7.60347757,4.71865301 7.59604733,4.748374 C7.25131403,6.12572306 6.90771225,7.50333614 6.56120626,8.8802326 C6.52658206,9.01782418 6.6088051,9.03709756 6.70830252,9.06051981 C7.39648673,9.22258972 8.08848035,9.37085521 8.77032811,9.55623422 C9.28218539,9.69533448 9.80430169,9.83364269 10.2801015,10.0600201 C11.1714294,10.4841476 11.5605179,11.4286942 11.3209396,12.3850462 C10.6827304,14.9331684 10.049613,17.4826484 9.41483604,20.0317135 C8.55899981,23.4685988 7.71051839,26.9073323 6.840576,30.3406345 C6.70419137,30.8790445 6.34946307,31.290122 5.77224225,31.3922596 C5.4910998,31.4420083 5.18004778,31.4218674 4.89962195,31.3581634 C4.00305137,31.1543031 3.113383,30.9195148 2.22379006,30.6861598 C2.05877822,30.6428607 1.98202415,30.6718651 1.91270032,30.8336333 C1.30051585,32.2626169 0.679543313,33.6877911 0.0614749891,35.1142854 C-0.0375321111,35.3428126 -0.0365891863,35.3425486 0.212078932,35.4052342 C2.81085502,36.0601898 5.4096311,36.7152585 8.00814316,37.3711192 C8.05955142,37.3840562 8.10843264,37.4069127 8.16391434,37.4271667 C7.60306269,39.6844908 7.04685023,41.9229565 6.48614944,44.1795263 C7.8759074,44.5246368 9.23232353,44.8614495 10.5927754,45.1992429 C10.6192904,45.1078546 10.6367157,45.0544097 10.6502938,45.0000218 C11.1767853,42.8950365 11.7045214,40.790353 12.2255816,38.6839722 C12.2606961,38.5419678 12.3124816,38.5203937 12.4436613,38.5550178 C13.387793,38.804478 14.3328299,39.0505814 15.2794886,39.2902351 C15.4325819,39.3290082 15.4593232,39.3861872 15.4207765,39.539469 C14.8947753,41.630499 14.3779771,43.7239051 13.8525794,45.8150859 C13.816258,45.9597683 13.8377944,46.0127607 13.9870028,46.048969 C14.886553,46.2671995 15.7836516,46.4955759 16.6816555,46.7200674 C17.0866605,46.8212998 17.4919673,46.9213253 17.924468,47.0286301 C18.4892045,44.7669308 19.049151,42.5242785 19.6061178,40.2934317 C20.3436735,40.4045836 21.0479252,40.5131331 21.7529689,40.6164777 C22.9271742,40.7885049 24.1064714,40.8679369 25.2945566,40.8454575 C26.1879966,40.8285603 27.0700085,40.7398122 27.9396868,40.5377246 C29.7899692,40.1077132 31.3265971,39.182704 32.47821,37.6517336 C33.2302491,36.6519317 33.7419932,35.5332834 34.1143354,34.3465938 C34.5362376,33.001983 34.7896581,31.6374955 34.589494,30.2196761 C34.4256514,29.0592374 33.9650515,28.033373 33.2152,27.1355578 C32.5215091,26.3049542 31.6689166,25.670479 30.7379481,25.1332005 C30.6006959,25.0539571 30.4627272,24.9759583 30.2973759,24.8815904 C30.4064912,24.8531895 30.4781157,24.8353871 30.5492877,24.8159251 C32.1072257,24.3888179 33.392319,23.5696803 34.2778008,22.1916901 C35.0232771,21.0316663 35.3628432,19.7389542 35.4962859,18.3797093 C35.5850717,17.4754067 35.5098263,16.5897741 35.2384903,15.7229245 C34.792864,14.2988063 33.894483,13.1997709 32.7458498,12.285926 C31.475881,11.2755632 30.0354691,10.5726317 28.5370862,9.97791018 C28.1249904,9.8143693 27.7075765,9.66414253 27.287032,9.50569345 C27.3050607,9.42667636 27.3191669,9.35980413 27.3356492,9.29349766 C27.8564454,7.19967665 28.3754312,5.10544075 28.9023376,3.01316613 C28.9417518,2.85664062 28.9063733,2.80651474 28.7573535,2.77000469 C27.5308724,2.46955115 26.3060131,2.16242169 25.0808144,1.85687635 C24.8278465,1.79381354 24.8271299,1.79275747 24.7664433,2.03648466 C24.3355644,3.76697791 23.9054021,5.49769745 23.4742214,7.22815298 C23.3855865,7.58393735 23.2937079,7.93892967 23.201603,8.30101278 C22.1211621,8.04706428 21.0644075,7.79869789 19.9994683,7.54837023 C20.0081809,7.49715056 20.0112737,7.46709011 20.0184776,7.43808575 C20.5339557,5.37213759 21.0496224,3.30622715 21.5657417,1.24042986 C21.6273713,0.993496722 21.6289931,0.992214344 21.3969582,0.934545065 C20.1702885,0.629640914 18.9424496,0.329489103 17.7177412,0.0169284021 C17.5463552,-0.0268233069 17.4899306,0.0101016268 17.4490831,0.176320404 C16.9985536,2.01000733 16.5414991,3.84214787 16.0854253,5.6745147 C16.0045978,5.99910712 15.920074,6.32279434 15.830383,6.6736755 C13.0868114,5.98692454 10.3690382,5.30662318 7.63629135,4.62258784" id="Path" fill="#FFFFFF"></path>
                    <path d="M13.608543,33.5532169 C13.7072106,33.1500599 13.801918,32.7557288 13.9002839,32.3623406 C14.5243492,29.8670222 15.1509793,27.3722696 15.7701414,24.8757443 C15.8143457,24.6972675 15.8670741,24.6508001 16.0587895,24.6955325 C17.5887415,25.0527501 19.1272553,25.3757584 20.621527,25.8709825 C21.9539174,26.312573 23.2484777,26.8352174 24.383382,27.6848303 C25.1256901,28.2405902 25.7396472,28.9058424 26.0339529,29.8062979 C26.5877892,31.5007714 25.8643019,33.7420658 23.8159676,34.4831293 C22.8490171,34.8329921 21.8530245,34.9146871 20.8379848,34.8985065 C19.4469445,34.8763289 18.0833244,34.6511207 16.7330562,34.3407853 C15.7454368,34.1138045 14.7652476,33.8546511 13.7819657,33.6090757 C13.7285207,33.5957239 13.6768107,33.5754322 13.608543,33.5532169" id="Fill-6" fill="#EA973D"></path>
                    <path d="M16.8680415,20.4875157 C17.5410258,17.7868284 18.2089182,15.1065081 18.8809973,12.4092153 C19.6081809,12.5774708 20.3152613,12.7352032 21.0192866,12.9053069 C22.2887274,13.2120591 23.5351231,13.5879844 24.7046138,14.1834225 C25.4777744,14.5770747 26.1939446,15.0495178 26.7370316,15.7406439 C27.5896996,16.8255354 27.6555157,18.0240682 27.1971788,19.2769889 C26.7894582,20.3916392 25.9513866,21.0425213 24.8348128,21.3537242 C23.9804476,21.5917938 23.1062432,21.6155178 22.2239296,21.5613185 C20.5185559,21.4564652 18.8795263,21.0222672 17.2392144,20.5896534 C17.1201796,20.5582728 17.001786,20.524403 16.8680415,20.4875157" id="Fill-8" fill="#EA973D"></path>
                </g>
                <g id="Group-2">
                    <circle id="Oval" fill="#0072FF" cx="18.8679245" cy="18.8679245" r="18.8679245"></circle>
                    <g id="Group" transform="translate(7.547170, 9.433962)" fill="#FFFFFF">
                        <path d="M5.51861478,15.0943396 L5.51861478,13.2958651 C6.78997761,13.1674026 7.76037623,12.8007494 8.42981065,12.1959053 C9.09924506,11.5910612 9.43396226,10.8550783 9.43396226,9.98795664 C9.43396226,9.29211829 9.25113354,8.73277131 8.88547609,8.3099157 C8.51981863,7.88706008 8.06977869,7.56858022 7.53535626,7.35447611 C7.00093383,7.14037201 6.32868667,6.94232571 5.51861478,6.76033721 L5.51861478,6.76033721 L5.51861478,3.51665998 C6.48620065,3.62371203 7.39753153,3.91275258 8.25260742,4.38378161 L8.25260742,4.38378161 L8.94454383,2.76194299 C8.49450389,2.48360765 7.96851971,2.25879834 7.36659128,2.08751505 C6.76466286,1.91623177 6.14867069,1.81453232 5.51861478,1.7824167 L5.51861478,1.7824167 L5.51861478,0 L4.13474196,0 L4.13474196,1.81453232 C2.87463012,1.93228958 1.91266975,2.29626656 1.24886084,2.90646327 C0.585051923,3.51665998 0.253147467,4.25531915 0.253147467,5.12244079 C0.253147467,5.81827914 0.433163443,6.37762612 0.793195396,6.80048173 C1.15322735,7.22333735 1.60045454,7.54449351 2.13487697,7.76395022 C2.6692994,7.98340693 3.33592106,8.18412953 4.13474196,8.36611802 L4.13474196,8.36611802 L4.13474196,11.5776796 C3.49343504,11.5241536 2.87463012,11.3876623 2.2783272,11.1682055 C1.68202428,10.9487488 1.17572935,10.6784424 0.759442401,10.3572862 L0.759442401,10.3572862 L0,11.9791248 C0.438788943,12.3431018 1.02946637,12.6428476 1.77203227,12.8783621 C2.51459817,13.1138766 3.30216807,13.2583969 4.13474196,13.3119229 L4.13474196,13.3119229 L4.13474196,15.0943396 L5.51861478,15.0943396 Z M4.13474196,6.42312324 C3.58344303,6.27325037 3.16153059,6.09126188 2.86900462,5.87715777 C2.57647866,5.66305366 2.43021568,5.37936572 2.43021568,5.02609394 C2.43021568,4.65141175 2.57085316,4.33560819 2.85212813,4.07868326 C3.13340309,3.82175833 3.56094103,3.65047504 4.13474196,3.5648334 L4.13474196,3.5648334 L4.13474196,6.42312324 Z M5.51861478,11.545564 L5.51861478,8.703332 C6.0811647,8.85320487 6.51432815,9.03786966 6.81810511,9.25732637 C7.12188207,9.47678309 7.27377055,9.76849993 7.27377055,10.1324769 C7.27377055,10.4964539 7.13032032,10.8015523 6.84341985,11.047772 C6.55651939,11.2939917 6.1149177,11.4599224 5.51861478,11.545564 L5.51861478,11.545564 Z" id="$1" fill-rule="nonzero"></path>
                        <polygon id="Path" points="18.2075472 18.8679245 18.2075472 0 10.3396226 0 10.3396226 3.08490566 14.5283019 3.08490566 14.5283019 18.8679245"></polygon>
                    </g>
                </g>
            </g>
        </g>
    </g>
</svg>