<?xml version="1.0" encoding="UTF-8"?>
<svg width="30px" height="30px" viewBox="0 0 30 30" version="1.1" xmlns="http://www.w3.org/2000/svg" xmlns:xlink="http://www.w3.org/1999/xlink">
    <title>DCEED1A9-C174-468C-BBCA-A5C288148DCB</title>
    <defs>
        <path d="M15.2101537,0.0905 L0.761653707,5.661875 C-0.224721293,6.0575 -0.218846293,6.60775 0.581778707,6.852875 L0.581778707,6.852875 L4.28965371,8.010125 L12.8737787,2.594625 C13.2790287,2.348875 13.6510287,2.480875 13.3457787,2.751875 L13.3457787,2.751875 L6.39015371,9.02875 L12.4351537,13.49475 C13.1250287,13.8755 13.6227787,13.678375 13.7947787,12.8545 L13.7947787,12.8545 L16.2551537,1.259125 C16.4559037,0.4545 16.0924037,0 15.6026537,0 L15.6026537,0 C15.4776537,0 15.3444037,0.029625 15.2101537,0.0905" id="path-1"></path>
        <linearGradient x1="60.9377099%" y1="47.431765%" x2="80.0378299%" y2="73.1093878%" id="linearGradient-3">
            <stop stop-color="#EFF6FB" offset="0%"></stop>
            <stop stop-color="#FFFFFF" offset="100%"></stop>
        </linearGradient>
    </defs>
    <g id="New-Site" stroke="none" stroke-width="1" fill="none" fill-rule="evenodd">
        <g id="Assets_Light" transform="translate(-1047.000000, -2589.000000)">
            <g id="icon_telegram" transform="translate(1047.000000, 2589.000000)">
                <g id="Group-3" stroke="#FFFFFF" stroke-width="2">
                    <path d="M15,1 C18.8660417,1 22.3660436,2.56697591 24.8995338,5.10046616 C27.4307046,7.63163692 28.99713,11.1275504 28.999996,14.9899619 C28.9181342,18.9261351 27.3374717,22.4218347 24.8218595,24.9374469 C22.2976028,27.4617036 18.8333334,28.9971867 15.0100381,28.999996 C11.0738649,28.9181342 7.57816529,27.3374717 5.06255314,24.8218595 C2.53829641,22.2976028 1.0028133,18.8333334 1.00000395,15.0100381 C1.08186579,11.0738649 2.66252832,7.57816529 5.17814047,5.06255314 C7.70471034,2.53598327 11.1730164,1 15,1 Z" id="Fill-1"></path>
                </g>
                <g id="Group-8" transform="translate(10.250000, 10.000000)">
                    <path d="M2,11.875 C1.514,11.875 1.596625,11.6915 1.429,11.22875 L0,6.525875 L11,0" id="Fill-4" fill="#C8DAEA"></path>
                    <path d="M2,11.875 C2.375,11.875 2.540625,11.7035 2.75,11.5 L4.75,9.55525 L2.25525,8.050875" id="Fill-6" fill="#A9C9DD"></path>
                </g>
                <g id="Group-11" transform="translate(6.114846, 9.022500)">
                    <mask id="mask-2" fill="white">
                        <use xlink:href="#path-1"></use>
                    </mask>
                    <g id="Clip-10"></g>
                    <path d="M15.2101537,0.0905 L0.761653707,5.661875 C-0.224721293,6.0575 -0.218846293,6.60775 0.581778707,6.852875 L0.581778707,6.852875 L4.28965371,8.010125 L12.8737787,2.594625 C13.2790287,2.348875 13.6510287,2.480875 13.3457787,2.751875 L13.3457787,2.751875 L6.39015371,9.02875 L12.4351537,13.49475 C13.1250287,13.8755 13.6227787,13.678375 13.7947787,12.8545 L13.7947787,12.8545 L16.2551537,1.259125 C16.4559037,0.4545 16.0924037,0 15.6026537,0 L15.6026537,0 C15.4776537,0 15.3444037,0.029625 15.2101537,0.0905" id="Fill-9" fill="url(#linearGradient-3)" mask="url(#mask-2)"></path>
                </g>
            </g>
        </g>
    </g>
</svg>