<?xml version="1.0" encoding="UTF-8"?>
<svg width="100px" height="78px" viewBox="0 0 100 78" version="1.1" xmlns="http://www.w3.org/2000/svg" xmlns:xlink="http://www.w3.org/1999/xlink">
    <title>CAEB8690-AF9D-4217-904D-3CB4F449F6D8</title>
    <defs>
        <path d="M18.5598459,0 C17.6798749,0 16.8501879,0.350587103 16.2467792,0.951164581 L16.2467792,0.951164581 L0.48272696,16.641001 C0.151857856,16.9703176 0.00226278262,17.3744562 0,17.7713378 L0,17.7713378 L0,17.7891049 C0.00427414496,18.6224062 0.655955541,19.418922 1.6392603,19.418922 L1.6392603,19.418922 L81.4403123,19.418922 C82.3202833,19.418922 83.1497189,19.0685852 83.7531276,18.4680077 L83.7531276,18.4680077 L99.5171798,2.77792108 C100.548003,1.75193455 99.8191356,0 98.3606465,0 L98.3606465,0 L18.5598459,0 Z" id="path-1"></path>
        <linearGradient x1="90.7378503%" y1="34.9186568%" x2="35.5093374%" y2="55.3645416%" id="linearGradient-3">
            <stop stop-color="#00FFA3" offset="0%"></stop>
            <stop stop-color="#DB1FFF" offset="100%"></stop>
        </linearGradient>
        <path d="M18.5598459,0 C17.7052684,0 16.87533,0.350336862 16.2467792,0.950914341 L16.2467792,0.950914341 L0.48272696,16.641001 C0.151857856,16.9703176 0.00226278262,17.374206 0,17.7710876 L0,17.7710876 L0,17.7888547 C0.00427414496,18.6221559 0.655955541,19.4186718 1.6392603,19.4186718 L1.6392603,19.4186718 L81.4403123,19.4186718 C82.3202833,19.4186718 83.1497189,19.0685852 83.7531276,18.4675072 L83.7531276,18.4675072 L99.5171798,2.77767084 C100.548003,1.75168431 99.8191356,0 98.3606465,0 L98.3606465,0 L18.5598459,0 Z" id="path-4"></path>
        <linearGradient x1="66.5910443%" y1="43.8579856%" x2="11.3625314%" y2="64.3036084%" id="linearGradient-6">
            <stop stop-color="#00FFA3" offset="0%"></stop>
            <stop stop-color="#DB1FFF" offset="100%"></stop>
        </linearGradient>
        <path d="M1.6392603,0 C0.655955541,0 0.00427414496,0.79626564 0,1.62981713 L0,1.62981713 L0,1.64758422 C0.00226278262,2.04421559 0.151857856,2.44835419 0.48272696,2.77767084 L0.48272696,2.77767084 L16.2467792,18.4675072 C16.8501879,19.0683349 17.6798749,19.418922 18.5598459,19.418922 L18.5598459,19.418922 L98.3606465,19.418922 C99.8191356,19.418922 100.548003,17.6672377 99.5171798,16.641001 L99.5171798,16.641001 L83.7531276,0.950914341 C83.1497189,0.350587103 82.3202833,0 81.4403123,0 L81.4403123,0 L1.6392603,0 Z" id="path-7"></path>
        <linearGradient x1="78.5870946%" y1="39.4168829%" x2="23.3585548%" y2="59.8627706%" id="linearGradient-9">
            <stop stop-color="#00FFA3" offset="0%"></stop>
            <stop stop-color="#DB1FFF" offset="100%"></stop>
        </linearGradient>
    </defs>
    <g id="New-Site" stroke="none" stroke-width="1" fill="none" fill-rule="evenodd">
        <g id="Assets_Light" transform="translate(-1062.000000, -1210.000000)">
            <g id="icon_solana" transform="translate(1062.000000, 1210.000000)">
                <g id="Group-3" transform="translate(0.000000, 58.581078)">
                    <mask id="mask-2" fill="white">
                        <use xlink:href="#path-1"></use>
                    </mask>
                    <g id="Clip-2"></g>
                    <path d="M18.5598459,0 C17.6798749,0 16.8501879,0.350587103 16.2467792,0.951164581 L16.2467792,0.951164581 L0.48272696,16.641001 C0.151857856,16.9703176 0.00226278262,17.3744562 0,17.7713378 L0,17.7713378 L0,17.7891049 C0.00427414496,18.6224062 0.655955541,19.418922 1.6392603,19.418922 L1.6392603,19.418922 L81.4403123,19.418922 C82.3202833,19.418922 83.1497189,19.0685852 83.7531276,18.4680077 L83.7531276,18.4680077 L99.5171798,2.77792108 C100.548003,1.75193455 99.8191356,0 98.3606465,0 L98.3606465,0 L18.5598459,0 Z" id="Fill-1" fill="url(#linearGradient-3)" mask="url(#mask-2)"></path>
                </g>
                <g id="Group-6">
                    <mask id="mask-5" fill="white">
                        <use xlink:href="#path-4"></use>
                    </mask>
                    <g id="Clip-5"></g>
                    <path d="M18.5598459,0 C17.7052684,0 16.87533,0.350336862 16.2467792,0.950914341 L16.2467792,0.950914341 L0.48272696,16.641001 C0.151857856,16.9703176 0.00226278262,17.374206 0,17.7710876 L0,17.7710876 L0,17.7888547 C0.00427414496,18.6221559 0.655955541,19.4186718 1.6392603,19.4186718 L1.6392603,19.4186718 L81.4403123,19.4186718 C82.3202833,19.4186718 83.1497189,19.0685852 83.7531276,18.4675072 L83.7531276,18.4675072 L99.5171798,2.77767084 C100.548003,1.75168431 99.8191356,0 98.3606465,0 L98.3606465,0 L18.5598459,0 Z" id="Fill-4" fill="url(#linearGradient-6)" mask="url(#mask-5)"></path>
                </g>
                <g id="Group-9" transform="translate(0.000000, 29.102984)">
                    <mask id="mask-8" fill="white">
                        <use xlink:href="#path-7"></use>
                    </mask>
                    <g id="Clip-8"></g>
                    <path d="M1.6392603,0 C0.655955541,0 0.00427414496,0.79626564 0,1.62981713 L0,1.62981713 L0,1.64758422 C0.00226278262,2.04421559 0.151857856,2.44835419 0.48272696,2.77767084 L0.48272696,2.77767084 L16.2467792,18.4675072 C16.8501879,19.0683349 17.6798749,19.418922 18.5598459,19.418922 L18.5598459,19.418922 L98.3606465,19.418922 C99.8191356,19.418922 100.548003,17.6672377 99.5171798,16.641001 L99.5171798,16.641001 L83.7531276,0.950914341 C83.1497189,0.350587103 82.3202833,0 81.4403123,0 L81.4403123,0 L1.6392603,0 Z" id="Fill-7" fill="url(#linearGradient-9)" mask="url(#mask-8)"></path>
                </g>
            </g>
        </g>
    </g>
</svg>