<?xml version="1.0" encoding="UTF-8"?>
<svg width="100px" height="85px" viewBox="0 0 100 85" version="1.1" xmlns="http://www.w3.org/2000/svg" xmlns:xlink="http://www.w3.org/1999/xlink">
    <title>E39C3084-25C4-485F-8DAD-C04A6C65C80D</title>
    <defs>
        <polygon id="path-1" points="0 0 56.6875192 0 56.6875192 3.93607177 0 3.93607177"></polygon>
    </defs>
    <g id="New-Site" stroke="none" stroke-width="1" fill="none" fill-rule="evenodd">
        <g id="Assets_Light" transform="translate(-922.000000, -1207.000000)">
            <g id="icon_moonbeam" transform="translate(922.000000, 1207.000000)">
                <path d="M35.549199,85 C35.5276771,84.9758503 35.510264,84.9454684 35.4840464,84.9283299 C34.103125,84.0180423 33.7419489,83.3946297 34.019581,82.3990391 C34.3111045,81.3532016 35.0451959,80.9486942 36.6704884,80.9486942 C46.9473771,80.9477205 57.224657,80.94811 67.5015457,80.9484995 C67.7617646,80.9484995 68.0225706,80.9424621 68.2818113,80.9582373 C69.3555569,81.0240647 70.0964962,81.5715226 70.2849104,82.4825893 C70.487803,83.4643522 70.0923875,84.1806632 69.222317,84.6611253 C69.0548377,84.7534394 68.9098586,84.886068 68.7543142,85 L35.549199,85 Z" id="Fill-1" fill="#F5007C"></path>
                <path d="M0,47.8826035 C0.123652927,47.7341998 0.243979746,47.5826799 0.37154574,47.4377818 C1.16668101,46.5347001 2.377971,46.4326482 3.22397615,47.1958953 C4.05393772,47.9449253 4.09737277,49.178702 3.32180283,49.9694096 C2.50240654,50.8045216 1.30833405,50.791473 0.458024527,49.9345484 C0.299349648,49.7746541 0.152413971,49.6032691 0,49.4373374 L0,47.8826035 Z" id="Fill-3" fill="#F5007C"></path>
                <path d="M28.7127965,85 C28.441034,84.8272518 28.1555757,84.6724211 27.9002481,84.478055 C26.9818512,83.7788825 26.8570243,82.5180348 27.6089202,81.663642 C28.3704031,80.7987324 29.6419543,80.7510173 30.4488288,81.5571107 C31.2791817,82.3867695 31.21129,83.7089652 30.2883931,84.4535158 C30.0391307,84.6548931 29.7597377,84.8188773 29.4940404,85 L28.7127965,85 Z" id="Fill-5" fill="#F5007C"></path>
                <path d="M59.4814795,32.6681801 C50.0772048,32.6681801 40.6729302,32.6681801 31.2686555,32.6681801 C30.943284,32.6681801 30.6177168,32.673049 30.2925409,32.665064 C28.8130102,32.6282552 28.2994201,32.116827 28.3023424,30.653823 C28.3131158,25.112637 29.8088858,19.9775164 32.6407726,15.2262591 C42.6572466,-1.57881116 65.5954515,-5.13563248 80.2391275,7.88416814 C87.0551038,13.944183 90.4919508,21.6029466 90.714213,30.6894633 C90.7490393,32.1102053 90.1546444,32.6600003 88.5725913,32.6635059 C83.5939958,32.6736332 78.6154003,32.6679853 73.6366091,32.6681801 C68.9180369,32.6683748 64.1996603,32.6681801 59.4814795,32.6681801" id="Fill-7" fill="#00CEC9"></path>
                <path d="M59.5630669,38.1080153 C71.2146161,38.1080153 82.8661653,38.1078205 94.5177145,38.1089891 C94.9405214,38.1089891 95.3670457,38.0918506 95.7855483,38.1387867 C96.7808369,38.2501869 97.4536888,38.9700035 97.5112109,39.9383283 C97.5716678,40.9586528 96.9635772,41.7610459 95.9367883,41.9633969 C95.5896992,42.0317561 95.2253927,42.0338984 94.8689122,42.0338984 C71.3055949,42.0368198 47.7418863,42.036625 24.1783733,42.0348722 C23.8537843,42.0346775 23.5244997,42.0368198 23.2049978,41.9883256 C22.1144259,41.8225886 21.4337479,41.0297386 21.4650524,39.9934441 C21.49577,38.9715616 22.2494267,38.2104567 23.3396073,38.1255433 C23.7281749,38.0951614 24.1202642,38.1085995 24.5107883,38.1085995 C36.194816,38.1080153 47.8788436,38.1080153 59.5630669,38.1080153" id="Fill-9" fill="#F5007C"></path>
                <path d="M55.2777886,59.1801415 C45.0574438,59.1801415 34.8369034,59.1801415 24.6165585,59.1801415 C24.291187,59.1801415 23.9652285,59.1873475 23.6400526,59.1758569 C22.3368055,59.1295051 21.4544089,58.3111421 21.4673735,57.1679268 C21.4806264,56.0461346 22.3164576,55.2982731 23.6103133,55.2565954 C23.9030107,55.2470524 24.1960995,55.2534793 24.4891882,55.2534793 C45.0275089,55.2532846 65.5660252,55.2532846 86.1045415,55.2540636 C86.49487,55.2540636 86.8885245,55.2336143 87.2751356,55.2750972 C88.3009462,55.3855236 89.0373854,56.166104 89.0677117,57.1373501 C89.0976467,58.1033379 88.3115115,59.0184944 87.3042879,59.1480068 C86.9194378,59.1976695 86.5246093,59.178973 86.1342808,59.178973 C75.8487834,59.1803363 65.563286,59.1801415 55.2777886,59.1801415" id="Fill-11" fill="#F5007C"></path>
                <path d="M35.1188203,46.67545 C43.6129155,46.67545 52.1072063,46.67545 60.6013015,46.67545 C60.829042,46.67545 61.0569782,46.6713601 61.2847187,46.6773975 C62.5701613,46.7116745 63.4388622,47.4597307 63.4674276,48.5540624 C63.4967756,49.6869556 62.5987267,50.5473858 61.324045,50.6013331 C61.0642173,50.6122394 60.8036071,50.6056177 60.5431924,50.6056177 C43.5874805,50.6058125 26.6317686,50.606202 9.67605672,50.6028912 C9.22214092,50.6026964 8.75589895,50.6174978 8.31704845,50.5245994 C7.31315104,50.3119263 6.7062343,49.4524699 6.78586522,48.4541527 C6.86138742,47.5080301 7.56867433,46.7969774 8.56337604,46.6972626 C8.91809559,46.6616223 9.27868474,46.676229 9.63633909,46.676229 C18.1306299,46.6752552 26.6247251,46.67545 35.1188203,46.67545" id="Fill-13" fill="#F5007C"></path>
                <g id="Group-17" transform="translate(43.312481, 63.811933)">
                    <mask id="mask-2" fill="white">
                        <use xlink:href="#path-1"></use>
                    </mask>
                    <g id="Clip-16"></g>
                    <path d="M28.3379141,3.93601351 C19.8792321,3.93601351 11.4201589,3.93620826 2.96128134,3.93581875 C0.958769153,3.935624 -0.00932369588,3.282219 0,1.94054775 C0.00945902714,0.597123695 0.929812455,0.00214537179 3.00178159,0.00214537179 C19.9195367,0.00175586061 36.8372919,0.00175586061 53.755047,0.00311914973 C54.1451799,0.00311914973 54.5398127,-0.0147983644 54.9244672,0.0352538219 C55.9581039,0.170024689 56.6691083,0.949826066 56.6875811,1.92477254 C56.7041302,2.84265563 55.9526256,3.73190965 54.9800328,3.88557181 C54.5660302,3.95081493 54.1369624,3.93406595 53.7147425,3.93406595 C45.2558649,3.93659777 36.7967916,3.93601351 28.3379141,3.93601351" id="Fill-15" fill="#F5007C" mask="url(#mask-2)"></path>
                </g>
                <path d="M71.977312,76.2896147 C66.7361497,76.2896147 61.4945961,76.31727 56.2540207,76.2557273 C55.5790166,76.247937 54.7537507,75.9439236 54.2708782,75.4899483 C53.3201985,74.5956306 53.8633322,72.9094367 55.1387965,72.5189518 C55.5332337,72.3982033 55.9728668,72.387297 56.3919563,72.3869075 C66.8091284,72.380091 77.2264962,72.3816491 87.6438639,72.3816491 C87.8064519,72.3816491 87.9696268,72.3783382 88.1320191,72.3859337 C89.3857658,72.4447499 90.2440971,73.248701 90.2342049,74.3516019 C90.2241405,75.4434017 89.3446786,76.2748133 88.0915188,76.2808507 C84.1201468,76.299742 80.1483835,76.2890305 76.1768159,76.2896147 C74.7771117,76.2898095 73.3770162,76.2896147 71.977312,76.2896147" id="Fill-18" fill="#F5007C"></path>
                <path d="M25.0013891,63.8138444 C28.9713916,63.8138444 32.941394,63.8120916 36.9113964,63.8167657 C37.3003553,63.81735 37.6985099,63.8126758 38.0761209,63.8892148 C38.9369957,64.0637158 39.4364987,64.637271 39.5767822,65.4793942 C39.7201961,66.3398244 39.3699766,67.0465924 38.5981241,67.4146805 C38.1224907,67.6415707 37.5390524,67.7327163 37.0035492,67.7340796 C29.0635443,67.7535552 21.1235394,67.7510234 13.1835346,67.738559 C12.7047708,67.73778 12.1956808,67.6920124 11.7540911,67.5262754 C10.9035859,67.2066815 10.4764746,66.5203628 10.554149,65.6170864 C10.6349539,64.6773907 11.1735876,64.0644948 12.1205499,63.8785032 C12.4674433,63.810144 12.8323368,63.8167657 13.1890129,63.8163762 C17.1265369,63.8124811 21.0638652,63.8140391 25.0013891,63.8138444" id="Fill-20" fill="#F5007C"></path>
                <path d="M7.62206813,65.811433 C7.60191584,66.9098545 6.68625809,67.7749588 5.58883837,67.7323073 C4.52409276,67.6910192 3.68395721,66.8142295 3.70391385,65.7654707 C3.72465311,64.6830191 4.66731102,63.7867539 5.73733927,63.8319372 C6.78721523,63.8761467 7.64104651,64.7729962 7.62206813,65.811433" id="Fill-22" fill="#F5007C"></path>
                <path d="M18.5541021,57.2286905 C18.5441237,58.3049099 17.6147703,59.1937744 16.5290897,59.1649506 C15.4979965,59.13749 14.6275347,58.2349926 14.6347739,57.2008405 C14.6422087,56.1193627 15.5696056,55.2314719 16.6560688,55.2655542 C17.6969447,55.2982731 18.5636891,56.1947331 18.5541021,57.2286905" id="Fill-24" fill="#F5007C"></path>
                <path d="M16.6308099,42.0074117 C15.5635208,42.0288348 14.6316238,41.111536 14.6351357,40.0431068 C14.6384717,38.9924004 15.4893682,38.143266 16.5564616,38.125738 C17.6605336,38.1076258 18.5579956,38.9816888 18.5542897,40.0713464 C18.5507564,41.1041353 17.6742293,41.9863781 16.6308099,42.0074117" id="Fill-26" fill="#F5007C"></path>
                <path d="M50.938647,74.3785755 C50.929647,75.4401882 49.9893369,76.3152251 48.8926998,76.2830904 C47.8197367,76.25154 47.0101231,75.4047427 47.0240145,74.3285233 C47.0379059,73.2745061 47.899172,72.4097913 48.9451349,72.3998587 C50.0096848,72.3897314 50.9474514,73.3204684 50.938647,74.3785755" id="Fill-28" fill="#F5007C"></path>
            </g>
        </g>
    </g>
</svg>