<?xml version="1.0" encoding="UTF-8"?>
<svg width="256px" height="256px" viewBox="0 0 256 256" version="1.1" xmlns="http://www.w3.org/2000/svg" xmlns:xlink="http://www.w3.org/1999/xlink">
    <title>uni</title>
    <defs>
        <linearGradient x1="100%" y1="100%" x2="0%" y2="0%" id="linearGradient-1">
            <stop stop-color="#F81E99" offset="0%"></stop>
            <stop stop-color="#C80AEC" offset="100%"></stop>
        </linearGradient>
        <circle id="path-2" cx="128" cy="128" r="128"></circle>
        <linearGradient x1="8.17988191%" y1="6.27971736%" x2="50%" y2="96.6755588%" id="linearGradient-4">
            <stop stop-color="#FFFFFF" offset="0%"></stop>
            <stop stop-color="#FFFFFF" offset="100%"></stop>
        </linearGradient>
    </defs>
    <g id="uni" stroke="none" stroke-width="1" fill="none" fill-rule="evenodd">
        <mask id="mask-3" fill="white">
            <use xlink:href="#path-2"></use>
        </mask>
        <use id="Mask" fill="url(#linearGradient-1)" xlink:href="#path-2"></use>
        <path d="M153.972769,186.626232 C159.491869,188.036562 164.428492,191.194107 166.99598,194.955973 C169.505369,198.632879 170.581878,201.837336 171.702795,208.96656 L171.748629,209.25739 L171.748629,209.25739 L171.840766,209.837156 C172.240591,212.339319 172.640774,214.668819 172.771163,215.241755 C173.612683,218.936392 175.250947,221.889664 177.280365,223.373134 C180.504342,225.728363 186.055638,225.874642 191.516268,223.748434 C192.443273,223.387909 193.247787,223.138202 193.304406,223.194349 C193.502389,223.390864 190.752831,225.228209 188.812597,226.195272 C186.202552,227.497002 184.126876,228.000111 181.368806,228.000111 C176.367423,228.000111 172.21496,225.460186 168.750073,220.282079 C168.068419,219.262933 166.535624,216.209926 165.344025,213.498604 C161.686335,205.169971 159.879694,202.632263 155.632126,199.855929 C151.93558,197.43975 147.168445,197.007195 143.582177,198.762535 C138.871292,201.067897 137.556833,207.077131 140.931055,210.885171 C142.271789,212.398931 144.772666,213.704354 146.817627,213.958125 C150.642954,214.433161 153.930582,211.527909 153.930582,207.672957 C153.930582,205.169602 152.966572,203.740802 150.540077,202.647778 C147.225805,201.155073 143.663591,202.900071 143.680614,206.008117 C143.688015,207.333118 144.266051,208.165354 145.596793,208.766351 C146.450525,209.151994 146.470509,209.182653 145.774053,209.037852 C142.733256,208.408782 142.020887,204.749606 144.465885,202.320129 C147.401214,199.403427 153.471336,200.69075 155.555893,204.671665 C156.431459,206.343154 156.533226,209.673572 155.769789,211.684161 C154.060844,216.185177 149.078704,218.551857 144.024401,217.263795 C140.583567,216.386863 139.182514,215.437162 135.033752,211.171818 C127.824581,203.758902 125.025804,202.322714 114.632621,200.703309 L112.640949,200.393022 L114.907207,198.482907 C122.519376,192.067344 131.990365,187.509812 140.617983,186.110933 C144.335993,185.507719 150.529715,185.746715 153.972769,186.626232 Z M190.667235,149.145722 C190.821551,149.145722 191.465088,149.493318 192.096044,149.917008 C193.352033,150.761064 195.870673,152.182106 202.581742,155.834633 C210.955498,160.391796 215.729293,163.920577 218.976215,167.952098 C221.819399,171.482726 223.579042,175.504273 224.426113,180.407554 C224.905343,183.185735 224.624466,189.869105 223.910617,192.666125 C221.659162,201.485308 216.42649,208.412475 208.963085,212.454339 C207.869553,213.04684 206.88815,213.532958 206.781942,213.535546 C206.675734,213.53739 207.07392,212.52637 207.667129,211.288175 C210.177998,206.049119 210.464056,200.953386 208.566009,195.281775 C207.403275,191.808771 205.03414,187.571131 200.249243,180.408662 C195.242752,172.914555 193.637225,170.369909 192.368556,167.795642 L192.228824,167.509238 L192.228824,167.509238 L192.09093,167.221072 C192.045168,167.124554 191.999556,167.02749 191.95394,166.929626 C189.229176,161.081446 188.603031,155.435323 190.09586,150.169301 C190.255727,149.60672 190.51255,149.145722 190.667235,149.145722 Z M57.0018412,28 C57.300111,28 124.649858,101.839553 129.496186,107.480136 L129.496186,107.480136 L130.834329,109.037483 L130.71776,111.459203 C130.563814,114.654425 129.561687,116.776939 127.167018,118.979611 C124.406358,121.518797 121.048048,122.880737 115.773929,123.599939 C112.538849,124.04136 111.362053,124.527846 110.054995,125.965512 C108.801596,127.343705 108.322366,129.060998 107.976359,133.415735 C107.440509,140.155622 106.648577,143.005096 103.452355,149.69216 C100.36456,156.15168 99.7376754,158.592978 100.277965,162.053422 C100.936675,166.270376 103.320613,169.336312 108.902253,173.145091 C113.162403,176.051819 115.095236,177.926842 116.156942,180.182337 C116.808991,181.567918 116.893735,182.071766 116.881153,184.480188 C116.86191,188.162266 116.269071,189.646105 113.74377,192.333046 C109.6631,196.674116 102.4073,200.216564 93.4721609,202.230847 C89.7382385,203.072687 89.573561,203.071579 89.573561,202.209792 C89.573561,201.126741 88.1858297,198.358164 85.776358,194.633237 C82.9842426,190.316178 81.8921905,188.158572 80.8460261,184.889472 C79.6507269,181.156048 79.3132306,178.633485 79.4864195,174.728665 C79.6503568,171.035505 80.0548342,169.397261 81.5261995,166.472802 C81.7957183,165.936789 82.0433815,165.46823 82.321808,164.99372 L82.4638285,164.755628 C83.3826134,163.240273 84.6978274,161.542556 88.0803621,157.331512 C95.9878403,147.487642 98.8410159,141.735872 99.8560951,133.593412 C100.761266,126.32973 102.015035,122.820157 104.820103,119.696596 C106.502773,117.823051 106.874685,117.107543 106.874685,115.745972 C106.874685,115.076638 104.198769,110.071405 96.2720477,95.9138007 C87.3090684,79.9058226 84.7066331,75.2575502 84.0827941,74.0320994 L84.0139829,73.8944947 C83.8831499,73.6267853 83.8946255,73.6040638 83.9504647,73.6489255 L83.9684494,73.6642341 L83.9684494,73.6642341 L83.9885082,73.6825333 L83.9885082,73.6825333 L84.0100536,73.7027586 C84.1691801,73.8527309 90.0072733,82.8159755 96.9833062,93.6206285 C106.100516,107.741664 110.049814,113.62826 111.028628,114.55469 C112.413028,115.866024 114.314035,116.676834 116.001517,116.676834 C117.493605,116.676834 120.473712,115.843491 121.923244,115.02086 C124.529588,113.541823 125.102074,111.65461 123.58075,109.555368 C122.272286,107.750185 103.182244,84.3346549 83.6031842,60.4661327 L81.9478382,58.4484691 C74.4970216,49.3683864 67.0459298,40.308982 60.545552,32.4337863 C58.5327865,29.9954439 56.9381906,28 57.0018412,28 Z M86.5523774,174.393259 C86.5523774,174.850194 86.8058696,175.183384 87.3765048,175.47631 C88.3371849,175.969815 88.4071266,176.524638 87.6510905,177.659404 C86.8854329,178.807837 86.9472332,179.817749 87.8253896,180.504075 C89.2408755,181.610398 91.2443895,181.002013 92.2938845,179.146937 C93.3896371,177.210595 92.8075301,174.720169 90.9746146,173.503768 C89.2427259,172.353858 86.5523774,172.895383 86.5523774,174.393259 Z M181.037046,144.371395 L182.009198,145.460356 C183.354742,146.967836 184.41756,148.89679 185.31866,151.465527 C185.957466,153.285854 186.069783,153.918477 186.078334,156.55074 L186.078658,157.195133 L186.078658,157.195133 C186.073586,160.323126 185.987361,160.979162 185.352335,162.743738 C184.350949,165.526351 183.108651,167.500001 181.022984,169.617713 C177.276109,173.424276 172.459016,175.531645 165.507037,176.40599 C164.298786,176.55781 160.776909,176.814166 157.680232,176.974481 C149.877112,177.379333 144.741396,178.216739 140.126356,179.834298 C139.462836,180.066644 138.870367,180.207751 138.810417,180.14791 C138.623536,179.962476 141.7661,178.092994 144.360972,176.845195 C148.020142,175.085422 151.662659,174.125378 159.82437,172.768978 C163.856192,172.098166 168.019756,171.285508 169.077392,170.961923 C179.061287,167.905961 184.193302,160.020965 182.550968,150.259838 C182.294146,148.73352 181.848591,146.784249 181.560313,145.927634 L181.037046,144.371395 Z M169.350165,116.130987 C169.424917,116.130987 170.21907,116.717578 171.114249,117.434194 C175.273372,120.764244 179.931709,122.186764 192.826508,124.064373 C200.413883,125.169587 204.684025,126.062033 208.622962,127.365979 C221.142889,131.510533 228.88939,139.92154 230.735998,151.377797 C231.272958,154.706738 230.958405,160.949057 230.08765,164.239212 C229.401185,166.83787 227.304416,171.521733 226.748583,171.701257 C226.594268,171.751124 226.442912,171.161578 226.403316,170.358894 C226.192751,166.057349 224.014938,161.869207 220.357248,158.731979 C216.199235,155.165151 210.611673,152.325282 196.951216,146.83541 C176.438697,138.591367 169.214722,131.435547 169.214722,119.361671 C169.214722,117.584906 169.276153,116.130987 169.350165,116.130987 Z M73.4659442,101.39337 C74.9701666,100.384915 77,101.430681 77,103.221594 C77,104.328123 76.4418771,105.371757 75.4914426,105.964464 C73.4897863,107.21384 70.9744402,108.477074 67.8988038,109.540962 C67.8565382,109.555886 67.8153563,109.571877 67.7730907,109.586801 C67.1564462,109.797873 66.5105408,109.998285 65.8494632,110.1923 L65.8494632,110.1923 L65.8494632,120.611582 L66.819405,120.611582 C68.5089459,120.611582 69.8777017,121.957965 69.8777017,123.618825 C69.8777017,124.595299 69.0724875,125.387352 68.0797873,125.387352 L68.0797873,125.387352 L65.8494632,125.387352 L65.8494632,135.806634 C66.5105408,136.001715 67.1564462,136.202127 67.7730907,136.413199 C67.8153563,136.427057 67.8565382,136.443048 67.8988038,136.457972 C70.9744402,137.52186 73.4897863,138.785094 75.4914426,140.03447 C76.4418771,140.627177 77,141.670811 77,142.778406 C77,144.569319 74.9701666,145.615085 73.4659442,144.60663 C71.1879358,143.079023 67.9692465,141.443748 63.6083018,140.278588 C63.4760863,140.244476 63.3503732,140.205033 63.2170739,140.17092 C62.6134342,140.016347 61.9837849,139.873501 61.3367958,139.739182 C61.14064,139.698673 60.9390655,139.660297 60.7396585,139.62192 C60.2032103,139.51745 59.6515898,139.420442 59.0858808,139.331962 C58.9135671,139.304246 58.7455884,139.275463 58.5700235,139.249879 C57.8341683,139.142211 57.0755546,139.047335 56.2898477,138.968449 C56.1543809,138.955657 56.0134956,138.946063 55.8758614,138.933271 C55.1963603,138.870376 54.4962683,138.820273 53.7788365,138.78083 C53.5761783,138.77017 53.3735201,138.758443 53.1676107,138.749915 C52.3027911,138.712605 51.4195481,138.68702 50.5005419,138.68702 C49.5837031,138.68702 48.7037113,138.712605 47.8421429,138.749915 C47.6264799,138.759509 47.4162356,138.771236 47.2059912,138.781896 C46.5156528,138.820273 45.8426541,138.86931 45.1880789,138.929007 C45.0201002,138.943931 44.8488703,138.955657 44.6841427,138.972713 C43.9244454,139.048401 43.1929251,139.140079 42.4798282,139.243483 C42.244658,139.277595 42.0192414,139.317038 41.7884061,139.354349 C41.3104795,139.430036 40.8433902,139.51212 40.3871383,139.599533 C40.1129537,139.651768 39.8376853,139.704003 39.5710868,139.760502 C39.1083325,139.858576 38.6596667,139.963046 38.2196708,140.070714 C37.8121869,140.17092 37.4177078,140.27539 37.0286474,140.383058 C32.8606073,141.538624 29.7611287,143.120598 27.5459769,144.602366 C26.0363358,145.611887 24,144.571452 24,142.776274 C24,141.669745 24.5570392,140.628243 25.5053062,140.036602 C27.504795,138.788292 30.0147224,137.528256 33.0838565,136.465434 C33.1347919,136.446246 33.18356,136.427057 33.2366629,136.408935 C33.85114,136.199995 34.4937941,136.000649 35.1505368,135.806634 L35.1505368,135.806634 L35.1505368,125.387352 L34.1795113,125.387352 C32.4921378,125.387352 31.1222983,124.040969 31.1222983,122.380109 C31.1222983,121.403635 31.9275125,120.611582 32.9202127,120.611582 L32.9202127,120.611582 L35.1505368,120.611582 L35.1505368,110.1923 C34.4937941,109.998285 33.85114,109.800005 33.2366629,109.589999 C33.18356,109.571877 33.1347919,109.552688 33.0838565,109.534566 C30.0147224,108.471744 27.504795,107.210642 25.5053062,105.963398 C24.5570392,105.370691 24,104.329189 24,103.223726 C24,101.427482 26.0363358,100.387047 27.5459769,101.397634 C29.7611287,102.878336 32.8606073,104.461376 37.0286474,105.615876 C37.4177078,105.723544 37.8121869,105.828014 38.2196708,105.92822 C38.6596667,106.035888 39.1083325,106.140358 39.5710868,106.238432 C39.8376853,106.294931 40.1129537,106.347166 40.3871383,106.399401 C40.8433902,106.486814 41.3104795,106.568898 41.7884061,106.645651 C42.0192414,106.682962 42.244658,106.721339 42.4798282,106.755451 C43.1929251,106.858855 43.9244454,106.950533 44.6841427,107.027287 C44.8488703,107.043277 45.0201002,107.055003 45.1880789,107.069927 C45.8426541,107.13069 46.5156528,107.178661 47.2059912,107.217038 C47.4162356,107.228764 47.6264799,107.240491 47.8421429,107.249019 C48.7037113,107.286329 49.5837031,107.311914 50.5005419,107.311914 C51.4195481,107.311914 52.3027911,107.286329 53.1676107,107.249019 C53.3735201,107.240491 53.5761783,107.228764 53.7788365,107.218104 C54.4962683,107.178661 55.1963603,107.128558 55.8758614,107.065663 C56.0134956,107.052871 56.1543809,107.043277 56.2898477,107.030485 C57.0755546,106.951599 57.8341683,106.856723 58.5700235,106.750121 C58.7455884,106.724537 58.9135671,106.694688 59.0858808,106.668038 C59.6515898,106.578492 60.2032103,106.48255 60.7396585,106.377014 C60.9390655,106.338637 61.14064,106.301327 61.3367958,106.259752 C61.9837849,106.125433 62.6134342,105.982587 63.2170739,105.828014 C63.3503732,105.793901 63.4760863,105.755524 63.6083018,105.720346 C67.9692465,104.556252 71.1879358,102.920977 73.4659442,101.39337 Z M134.162701,124.870345 C135.737314,124.387921 138.991636,124.695993 140.521841,125.47245 C143.487145,126.977344 145.640164,130.405651 145.172776,132.879086 C144.602881,135.897001 139.701044,138.310963 134.062784,138.350119 C131.182594,138.370435 130.119037,137.984053 129.019214,136.517945 C128.3383,135.610354 128.080367,132.671119 128.534433,130.995567 C129.280107,128.248784 131.686988,125.629441 134.162701,124.870345 Z M60.8025151,125.387352 L40.1985687,125.387352 L40.1985687,134.632945 C43.2471117,134.093539 46.6619569,133.763073 50.5005419,133.763073 C54.3391269,133.763073 57.7528883,134.093539 60.8025151,134.632945 L60.8025151,134.632945 L60.8025151,125.387352 Z M132.689485,128.907406 C132.689485,130.229452 134.910226,131.67155 136.946305,131.67155 C138.301101,131.67155 140.15548,130.865172 140.75424,130.015206 C141.623885,128.782183 141.243461,127.449055 139.764695,126.547744 C136.948525,124.831189 132.689485,126.251493 132.689485,128.907406 Z M133.765625,73.8499236 C141.17241,75.6074804 147.912343,80.1096039 155.106712,88.1050471 L157.018081,90.2294081 L159.752097,89.7905729 C171.271007,87.9428849 182.98901,89.4112096 192.789724,93.9306943 C193.637123,94.3214666 194.638155,94.8339219 195.629033,95.3727216 L196.16752,95.668652 C198.131063,96.7591076 199.934875,97.8856037 200.268671,98.2854312 C200.437789,98.4878569 200.749011,99.7929112 200.959206,101.185142 C201.686747,106.001985 201.322977,109.694406 199.846801,112.451901 C199.043767,113.952732 198.998989,114.428137 199.538909,115.712505 C199.970031,116.737562 201.171622,117.49592 202.36174,117.494442 C204.797486,117.491117 207.419003,113.56081 208.633545,108.092362 L209.116106,105.92035 L210.071975,107.000815 C215.315009,112.930261 219.432686,121.016574 220.140244,126.772407 L220.324534,128.272868 L219.443418,126.908712 C217.926535,124.561239 216.402621,122.962889 214.451285,121.674088 C210.933479,119.350626 207.213989,118.560132 197.363687,118.041878 C188.467034,117.573861 183.431974,116.815503 178.439102,115.190188 C169.944706,112.425675 165.662352,108.743966 155.57188,95.5290442 C151.090063,89.6598089 148.319781,86.4121334 145.564302,83.7968533 C139.302858,77.8544789 133.150212,74.7379367 125.274559,73.5185809 C123.112659,73.1839137 123.021254,73.1443889 124.038923,72.9885064 C125.988778,72.6889313 130.592716,73.097107 133.765625,73.8499236 Z M60.8025151,111.367055 C57.7528883,111.905395 54.3391269,112.235861 50.5005419,112.235861 C46.6619569,112.235861 43.2471117,111.905395 40.1985687,111.367055 L40.1985687,111.367055 L40.1985687,120.611582 L60.8025151,120.611582 Z M204.993286,76.0219358 C205.054716,76.0219358 204.870055,76.7141724 204.582147,77.5600752 C203.801317,79.859527 203.672906,83.0041427 204.210605,86.6633185 C204.893739,91.3058101 205.282304,91.9755139 210.197833,96.9907198 C212.504058,99.3429944 215.185895,102.309564 216.158047,103.58322 L217.925832,105.899295 L216.158047,104.244059 C213.996146,102.220172 209.023998,98.272872 207.926025,97.7084443 C207.189602,97.3301891 207.080064,97.3364687 206.625998,97.7878631 C206.207458,98.2037961 206.119383,98.8284343 206.060914,101.782445 C205.970619,106.386151 205.342254,109.341269 203.825001,112.296019 C203.004574,113.893999 202.875053,113.553052 203.617766,111.749322 C204.142942,110.47341 204.220735,109.874815 204.224323,106.025638 L204.224297,105.353337 L204.224297,105.353337 C204.215416,96.3989573 203.150378,94.2461533 196.904477,90.558165 C195.322464,89.6239781 192.715379,88.276444 191.111532,87.563891 C189.507314,86.8513379 188.233192,86.2303936 188.279449,86.1842199 C188.389284,86.0748148 190.789055,86.7205192 193.177144,87.4507349 L193.68786,87.6082588 C194.960009,88.0040805 196.181623,88.4104094 196.998843,88.7241445 C200.645801,90.1245014 201.247891,90.3058718 201.690855,90.1370606 C201.987645,90.0240273 202.130858,89.1607633 202.275553,86.6237938 C202.49907,82.6909001 203.033809,80.0963058 204.108098,77.7274088 C204.533299,76.7895279 204.931855,76.0219358 204.993286,76.0219358 Z M123.139155,77.6094626 L124.137952,77.7915718 C126.014535,78.1332574 129.249244,79.3352519 130.764277,80.2535551 C134.92118,82.7735326 136.72079,86.0913922 138.551855,94.611369 C138.594752,94.8109873 138.63872,95.0127096 138.683479,95.2154114 L138.819846,95.8253308 C139.30347,97.9624613 139.84337,100.083599 140.115365,100.886933 C140.636782,102.425811 142.606251,106.020344 144.207508,108.354888 C145.36099,110.035981 144.594962,110.832755 142.045237,110.602994 C138.151448,110.252074 132.876959,106.618755 129.474242,101.942649 C125.08494,95.9108825 122.369427,86.6624689 122.957085,79.7489686 L123.139155,77.6094626 Z" id="Combined-Shape" fill="url(#linearGradient-4)" mask="url(#mask-3)"></path>
    </g>
</svg>