<?xml version="1.0" encoding="UTF-8"?>
<svg width="100px" height="101px" viewBox="0 0 100 101" version="1.1" xmlns="http://www.w3.org/2000/svg" xmlns:xlink="http://www.w3.org/1999/xlink">
    <title>D8A30CA4-F631-46BE-9544-8F90409D4FBB</title>
    <g id="New-Site" stroke="none" stroke-width="1" fill="none" fill-rule="evenodd">
        <g id="Assets_Light" transform="translate(-616.000000, -1198.000000)">
            <g id="icon_balance" transform="translate(616.000000, 1198.660377)">
                <path d="M50,0 C77.61,0 100,22.39 100,50 C100,77.61 77.61,100 50,100 C22.39,100 0,77.61 0,50 C0,22.39 22.39,0 50,0" id="Fill-1" fill="#1E1E1E"></path>
                <path d="M50.75,70.9 C34.76,70.9 21.8,66.28 21.8,60.09 C21.8,56.86 25.33,53.95 30.98,51.9 C35.39,54.73 42.79,56.18 51.18,56.18 C59.37,56.18 66.61,54.41 71.06,51.7 C76.39,53.73 79.7,56.56 79.7,59.68 C79.7,65.88 66.74,70.9 50.75,70.9" id="Fill-3" fill="#FFFFFF"></path>
                <path d="M50.92002,54.79004 C38.80002,54.79004 28.97002,50.99004 28.97002,46.30004 C28.97002,43.70004 32.00002,41.37004 36.75002,39.82004 C40.14002,41.59004 45.22002,42.72004 50.92002,42.72004 C56.62002,42.72004 61.70002,41.59004 65.09002,39.82004 C69.85002,41.37994 72.8700276,43.70004 72.8700276,46.30004 C72.88002,50.99004 63.05002,54.79004 50.92002,54.79004" id="Fill-5" fill="#FFFFFF"></path>
                <path d="M50.84004,41.31001 C41.47004,41.31001 33.87004,38.17001 33.87004,34.31001 C33.87004,30.45001 41.47004,27.31001 50.84004,27.31001 C60.20994,27.31001 67.80994,30.45001 67.80994,34.31001 C67.80994,38.17001 60.20994,41.31001 50.84004,41.31001" id="Fill-7" fill="#FFFFFF"></path>
            </g>
        </g>
    </g>
</svg>