<?xml version="1.0" encoding="UTF-8"?>
<svg width="256px" height="256px" viewBox="0 0 256 256" version="1.1" xmlns="http://www.w3.org/2000/svg" xmlns:xlink="http://www.w3.org/1999/xlink">
    <title>shapeshift</title>
    <defs>
        <circle id="path-1" cx="128" cy="128" r="128"></circle>
    </defs>
    <g id="shapeshift" stroke="none" stroke-width="1" fill="none" fill-rule="evenodd">
        <g id="Group">
            <mask id="mask-2" fill="white">
                <use xlink:href="#path-1"></use>
            </mask>
            <use id="Mask" fill="#3872FA" xlink:href="#path-1"></use>
            <g id="Group-2" mask="url(#mask-2)" fill="#FFFFFF">
                <g transform="translate(60.160000, 32.000000)">
                    <path d="M125.739698,55.9275138 L119.181148,95.4059669 L95.8163142,67.9248619 L125.739698,55.9275138 Z M119.386103,112.325304 L125.227311,133.961547 L80.5471903,146.266519 L119.386103,112.325304 Z M22.0326284,101.455912 L46.0123263,70.078232 L87.6181269,70.078232 L114.262236,101.455912 L22.0326284,101.455912 Z M111.187915,109.249061 L67.84,147.086851 L23.6722659,109.249061 L111.187915,109.249061 Z M37.9166163,67.9248619 L16.498852,95.918674 L9.94030211,56.1325967 L37.9166163,67.9248619 Z M54.927855,146.266519 L9.73534743,133.961547 L15.8839879,112.838011 L54.927855,146.266519 Z M63.330997,156.520663 L54.8253776,165.954475 C47.6519637,159.084199 39.6587311,153.034254 31.1531118,147.804641 L63.330997,156.520663 Z M104.629366,147.702099 C96.1237462,152.931713 88.2329909,159.18674 81.059577,166.057017 L72.349003,156.623204 L104.629366,147.702099 Z M135.68,43.7250829 L88.6429003,62.3876243 L44.8850755,62.3876243 L0,43.52 L10.1452568,105.147403 L0.409909366,138.47337 L25.9267674,153.752044 C38.0190937,160.929945 48.7792145,170.056133 58.1046526,180.617901 L68.0449547,192 L78.4976435,180.002652 C87.4131722,169.748508 97.865861,160.929945 109.445801,153.854586 L134.450272,138.47337 L125.432266,105.147403 L135.68,43.7250829 Z" id="Fill-1"></path>
                    <path d="M57.39085,19.3976372 L57.39085,10.2539596 C60.4831081,10.7864269 63.9469208,11.1132881 67.8405496,11.1132881 C71.7341785,11.1132881 75.1968919,10.7864269 78.2902493,10.2539596 L78.2902493,19.3976372 L57.39085,19.3976372 Z M67.8405496,32.4056575 C63.9469208,32.4056575 60.4831081,32.7325187 57.39085,33.2660404 L57.39085,24.1213084 L78.2902493,24.1213084 L78.2902493,33.2660404 C75.1968919,32.7325187 71.7341785,32.4056575 67.8405496,32.4056575 L67.8405496,32.4056575 Z M85.3607803,8.49312679 C85.403652,8.47836532 85.4454244,8.46254945 85.4882961,8.44778798 C88.608036,7.39550589 91.1594512,6.1460527 93.1898104,4.91030659 C94.1538738,4.32406526 94.72,3.29181659 94.72,2.19735886 C94.72,0.425982191 92.6610596,-0.60837526 91.1352672,0.38907851 C88.824593,1.90002064 85.5597489,3.51745624 81.1362699,4.66885108 C81.0021585,4.70364598 80.8746427,4.74160405 80.739432,4.77534456 C80.1271363,4.92823124 79.488458,5.06951961 78.8321914,5.20237286 C78.6332228,5.24349411 78.4287578,5.28039779 78.2264914,5.31835586 C77.6823507,5.42274056 77.1228202,5.51763574 76.5489991,5.60620457 C76.3742145,5.63256434 76.203827,5.66208729 76.0257446,5.68739267 C75.2793375,5.79283175 74.5098456,5.88667254 73.7128719,5.96469747 C73.5754626,5.97735016 73.432557,5.98683968 73.2929492,5.99949237 C72.6037043,6.06170143 71.8935733,6.1112578 71.1658538,6.15027026 C70.9602895,6.16081417 70.7547253,6.17241247 70.5458632,6.1808476 C69.6686425,6.21775128 68.7727341,6.24305666 67.8405496,6.24305666 C66.9105637,6.24305666 66.0179532,6.21775128 65.1440303,6.1808476 C64.9252747,6.17241247 64.7120155,6.16081417 64.4987564,6.14921587 C63.7985188,6.1112578 63.1158695,6.06381021 62.451908,6.00370993 C62.2815205,5.98894846 62.1078352,5.97735016 61.9407455,5.96153429 C61.1701544,5.88561815 60.4281444,5.79494054 59.704822,5.69266462 C59.4662795,5.65892411 59.2376305,5.62096604 59.0034851,5.58406236 C58.5187052,5.50814622 58.0449181,5.42695812 57.5821237,5.34049807 C57.3040074,5.28883292 57.0247917,5.23716776 56.7543703,5.18128505 C56.2849803,5.08428109 55.8298808,4.98095078 55.3835755,4.8744573 C54.9702484,4.77534456 54.5701127,4.67201425 54.1754733,4.56552077 C49.9476651,3.42361545 46.8037411,1.857845 44.5568249,0.393296073 C43.025536,-0.606266478 40.96,0.422819018 40.96,2.19946765 C40.96,3.29287099 41.5250269,4.32301087 42.4868917,4.9092522 C44.5150524,6.14288953 47.0609713,7.39023393 50.1741155,8.44146164 C50.2257814,8.45938628 50.2752487,8.47836532 50.3291132,8.49628996 C50.9524016,8.70400497 51.6042711,8.90012167 52.2704312,9.09202081 L52.2704312,19.3976372 L50.0081251,19.3976372 C49.0011901,19.3976372 48.1844294,20.1810497 48.1844294,21.1468717 C48.1844294,22.7896127 49.5739119,24.1213084 51.2854816,24.1213084 L52.2704312,24.1213084 L52.2704312,34.4269248 C51.6042711,34.6188239 50.9524016,34.815995 50.3291132,35.0226556 C50.2752487,35.0405803 50.2257814,35.0595593 50.1741155,35.0785384 C47.0609713,36.1297661 44.5150524,37.3760561 42.4868917,38.6107478 C41.5250269,39.1959347 40.96,40.2260746 40.96,41.3205324 C40.96,43.0961266 43.025536,44.1252121 44.5568249,43.1267039 C46.8037411,41.6611006 49.9476651,40.0963845 54.1754733,38.9534248 C54.5701127,38.8469314 54.9702484,38.7436011 55.3835755,38.6444883 C55.8298808,38.5379948 56.2849803,38.4346645 56.7543703,38.3376606 C57.0247917,38.2817778 57.3040074,38.2301127 57.5821237,38.1784475 C58.0449181,38.0919875 58.5187052,38.0107994 59.0034851,37.9359376 C59.2376305,37.899034 59.4662795,37.8600215 59.704822,37.826281 C60.4281444,37.7240051 61.1701544,37.6333275 61.9407455,37.5584657 C62.1078352,37.5415955 62.2815205,37.5299972 62.451908,37.5152357 C63.1158695,37.4561898 63.7985188,37.4076878 64.4987564,37.3697297 C64.7120155,37.3591858 64.9252747,37.3475875 65.1440303,37.338098 C66.0179532,37.3011943 66.9105637,37.275889 67.8405496,37.275889 C68.7727341,37.275889 69.6686425,37.3011943 70.5458632,37.338098 C70.7547253,37.3465331 70.9602895,37.3581314 71.1658538,37.3686753 C71.8935733,37.4076878 72.6037043,37.4572442 73.2929492,37.5194532 C73.432557,37.5321059 73.5754626,37.5415955 73.7128719,37.5542481 C74.5098456,37.6322731 75.2793375,37.7261139 76.0257446,37.8326073 C76.203827,37.8579127 76.3742145,37.8863813 76.5489991,37.9137954 C77.1228202,38.0013099 77.6823507,38.0972594 78.2264914,38.2005897 C78.4287578,38.2385478 78.6332228,38.2765059 78.8321914,38.3165727 C79.488458,38.449426 80.1271363,38.5907144 80.739432,38.7436011 C80.8746427,38.7773416 81.0021585,38.816354 81.1362699,38.8500945 C85.5597489,40.0025438 88.824593,41.6199794 91.1352672,43.1309215 C92.6610596,44.1283753 94.72,43.0940178 94.72,41.3226411 C94.72,40.227129 94.1538738,39.1948803 93.1898104,38.608639 C91.1594512,37.3728929 88.608036,36.1234397 85.4882961,35.0711576 C85.4454244,35.0563962 85.403652,35.0405803 85.3607803,35.0268732 C84.7352933,34.8181038 84.080126,34.6198783 83.4095688,34.4269248 L83.4095688,24.1213084 L85.6718749,24.1213084 C86.6788099,24.1213084 87.4955706,23.3378959 87.4955706,22.3720739 C87.4955706,20.7293329 86.1071874,19.3976372 84.3934191,19.3976372 L83.4095688,19.3976372 L83.4095688,9.09202081 C84.080126,8.90012167 84.7352933,8.70189618 85.3607803,8.49312679 L85.3607803,8.49312679 Z" id="Fill-4"></path>
                </g>
            </g>
        </g>
    </g>
</svg>