<?xml version="1.0" encoding="UTF-8"?>
<svg width="256px" height="256px" viewBox="0 0 256 256" version="1.1" xmlns="http://www.w3.org/2000/svg" xmlns:xlink="http://www.w3.org/1999/xlink">
    <title>fuse</title>
    <defs>
        <path d="M120.754717,0 C187.445706,0 241.509434,54.0637283 241.509434,120.754717 C241.509434,187.445706 187.445706,241.509434 120.754717,241.509434 C54.0637283,241.509434 0,187.445706 0,120.754717 C0,109.830356 1.45065362,99.2448143 4.16983596,89.1802154 C13.0011345,93.9180886 23.09259,96.6037736 33.8113208,96.6037736 C68.4906349,96.6037736 96.6037736,68.4906349 96.6037736,33.8113208 C96.6037736,23.09259 93.9180886,13.0011345 89.1829349,4.17317048 C99.2448143,1.45065362 109.830356,0 120.754717,0 Z" id="path-1"></path>
        <path d="M105.963148,0 L115.867964,5.18487818 C120.879172,7.80493473 120.965572,12.3257931 116.058764,15.2772592 L116.058764,15.2772592 L69.4206887,43.3221908 C66.7770844,44.9107952 63.2250786,45.7213077 59.725873,45.7213077 C56.7270681,45.7213077 53.7690633,45.1257311 51.4554596,43.9165666 L51.4554596,43.9165666 L3.81538248,18.9900066 C-1.19582563,16.3675485 -1.28222577,11.8466902 3.62458217,8.8976256 L3.62458217,8.8976256 L13.9457989,2.6921021 L48.3906546,20.7118953 C51.5886598,22.3857536 55.5078661,23.2707131 59.725873,23.2707131 C64.5882808,23.2707131 69.2406884,22.0819615 72.8274942,19.9277995 L72.8274942,19.9277995" id="path-3"></path>
        <linearGradient x1="49.999843%" y1="-162.486977%" x2="49.999843%" y2="100%" id="linearGradient-5">
            <stop stop-color="#B3F9BA" offset="0%"></stop>
            <stop stop-color="#F6FB8C" offset="100%"></stop>
        </linearGradient>
        <path d="M88.6463493,11.7494287 L85.3403439,13.7667041 L82.0355386,15.7827788 L73.019924,21.2834566 C69.4247181,23.4796452 64.7579106,24.6864082 59.8835027,24.6864082 L59.8835027,24.6864082 C55.6558959,24.6864082 51.7258895,23.7858388 48.5182843,22.0855638 L48.5182843,22.0855638 L38.1898676,16.6004958 L34.7710621,14.7873494 L31.3522565,12.9730023 L12.3202257,2.86741294 L3.63461166,8.16876477 C-1.28419631,11.169462 -1.20019617,15.7683697 3.82421196,18.4364566 L3.82421196,18.4364566 L13.756628,23.7077894 L17.1754336,25.5233373 L20.5918391,27.3376845 L51.5926893,43.7928884 C53.909893,45.0236666 56.8774978,45.6276484 59.8835027,45.6276484 L59.8835027,45.6276484 C63.3911084,45.6276484 66.9551141,44.8063292 69.6023184,43.1889065 L69.6023184,43.1889065 L99.4067667,25.0058101 L102.712772,22.9873339 L106.017577,20.9712592 L116.365194,14.6576674 C118.777198,13.1879382 119.9856,11.3327652 120,9.50881202 L120,9.50881202 L120,9.44036875 C119.9832,7.56838517 118.705198,5.73362513 116.174394,4.3899756 L116.174394,4.3899756 L107.90518,0 L88.6463493,11.7494287 Z" id="path-6"></path>
        <linearGradient x1="49.9999191%" y1="-98.9553649%" x2="49.9999191%" y2="157.815373%" id="linearGradient-8">
            <stop stop-color="#B1FFBF" offset="0%"></stop>
            <stop stop-color="#FFF06D" offset="100%"></stop>
        </linearGradient>
        <path d="M60.1151031,0 C56.6074974,0 53.0446916,0.810512453 50.3962873,2.39911686 L50.3962873,2.39911686 L3.63461166,30.4344424 C-1.28419631,33.3823062 -1.20019617,37.8995623 3.82421196,40.5220204 L3.82421196,40.5220204 L12.0946253,44.8351474 L15.5134309,46.6182748 L18.9322364,48.4026029 L37.9642672,58.3304799 L41.3818728,60.1124066 L44.8018783,61.8967347 L51.5926893,65.4401751 C53.909893,66.6493396 56.8774978,67.2437154 59.8835027,67.2437154 L59.8835027,67.2437154 C63.3911084,67.2437154 66.9551141,66.4332029 69.6023184,64.8445985 L69.6023184,64.8445985 L75.1979275,61.4896773 L78.5039328,59.5084247 L81.8087382,57.527172 L101.067569,45.9806717 L104.373575,43.999419 L107.67838,42.0181663 L116.365194,36.809273 C118.777198,35.3647597 119.9856,33.5420072 120,31.7504745 L120,31.7504745 L120,31.6820312 C119.9832,29.8424681 118.705198,28.0401286 116.174394,26.7204942 L116.174394,26.7204942 L68.4071165,1.80474106 C66.0887127,0.594375799 63.1223079,0 60.1151031,0 Z" id="path-9"></path>
        <linearGradient x1="49.9999191%" y1="0.000916769343%" x2="49.9999191%" y2="180.80126%" id="linearGradient-11">
            <stop stop-color="#B3F9BA" offset="0%"></stop>
            <stop stop-color="#F6FB8C" offset="100%"></stop>
        </linearGradient>
    </defs>
    <g id="fuse" stroke="none" stroke-width="1" fill="none" fill-rule="evenodd">
        <g id="icon_chain">
            <g id="Oval" transform="translate(14.000000, 14.000000)">
                <mask id="mask-2" fill="white">
                    <use xlink:href="#path-1"></use>
                </mask>
                <use id="Mask" fill="#031928" xlink:href="#path-1"></use>
                <g id="Group-10" mask="url(#mask-2)">
                    <g transform="translate(61.000000, 59.000000)">
                        <g id="Group-3" transform="translate(0.000429, 78.278692)">
                            <mask id="mask-4" fill="white">
                                <use xlink:href="#path-3"></use>
                            </mask>
                            <g id="Clip-2"></g>
                            <path d="M59.725873,23.2707131 C55.5078661,23.2707131 51.5886598,22.3857536 48.3906546,20.7118953 L13.9457989,2.6921021 L3.62458217,8.8976256 C-1.28222577,11.8466902 -1.19582563,16.3675485 3.81538248,18.9900066 L51.4554596,43.9165666 C53.7690633,45.1257311 56.7270681,45.7213077 59.725873,45.7213077 C63.2250786,45.7213077 66.7770844,44.9107952 69.4206887,43.3221908 L116.058764,15.2772592 C120.965572,12.3257931 120.879172,7.80493473 115.867964,5.18487818 L105.963148,0 L72.8274942,19.9277995 C69.2406884,22.0819615 64.5882808,23.2707131 59.725873,23.2707131" id="Fill-1" fill="url(#linearGradient-5)" mask="url(#mask-4)"></path>
                        </g>
                        <g id="Group-6" transform="translate(0.000000, 49.232328)">
                            <mask id="mask-7" fill="white">
                                <use xlink:href="#path-6"></use>
                            </mask>
                            <g id="Clip-5"></g>
                            <path d="M88.6463493,11.7494287 L85.3403439,13.7667041 L82.0355386,15.7827788 L73.019924,21.2834566 C69.4247181,23.4796452 64.7579106,24.6864082 59.8835027,24.6864082 L59.8835027,24.6864082 C55.6558959,24.6864082 51.7258895,23.7858388 48.5182843,22.0855638 L48.5182843,22.0855638 L38.1898676,16.6004958 L34.7710621,14.7873494 L31.3522565,12.9730023 L12.3202257,2.86741294 L3.63461166,8.16876477 C-1.28419631,11.169462 -1.20019617,15.7683697 3.82421196,18.4364566 L3.82421196,18.4364566 L13.756628,23.7077894 L17.1754336,25.5233373 L20.5918391,27.3376845 L51.5926893,43.7928884 C53.909893,45.0236666 56.8774978,45.6276484 59.8835027,45.6276484 L59.8835027,45.6276484 C63.3911084,45.6276484 66.9551141,44.8063292 69.6023184,43.1889065 L69.6023184,43.1889065 L99.4067667,25.0058101 L102.712772,22.9873339 L106.017577,20.9712592 L116.365194,14.6576674 C118.777198,13.1879382 119.9856,11.3327652 120,9.50881202 L120,9.50881202 L120,9.44036875 C119.9832,7.56838517 118.705198,5.73362513 116.174394,4.3899756 L116.174394,4.3899756 L107.90518,0 L88.6463493,11.7494287 Z" id="Fill-4" fill="url(#linearGradient-8)" mask="url(#mask-7)"></path>
                        </g>
                        <g id="Group-9">
                            <mask id="mask-10" fill="white">
                                <use xlink:href="#path-9"></use>
                            </mask>
                            <g id="Clip-8"></g>
                            <path d="M60.1151031,0 C56.6074974,0 53.0446916,0.810512453 50.3962873,2.39911686 L50.3962873,2.39911686 L3.63461166,30.4344424 C-1.28419631,33.3823062 -1.20019617,37.8995623 3.82421196,40.5220204 L3.82421196,40.5220204 L12.0946253,44.8351474 L15.5134309,46.6182748 L18.9322364,48.4026029 L37.9642672,58.3304799 L41.3818728,60.1124066 L44.8018783,61.8967347 L51.5926893,65.4401751 C53.909893,66.6493396 56.8774978,67.2437154 59.8835027,67.2437154 L59.8835027,67.2437154 C63.3911084,67.2437154 66.9551141,66.4332029 69.6023184,64.8445985 L69.6023184,64.8445985 L75.1979275,61.4896773 L78.5039328,59.5084247 L81.8087382,57.527172 L101.067569,45.9806717 L104.373575,43.999419 L107.67838,42.0181663 L116.365194,36.809273 C118.777198,35.3647597 119.9856,33.5420072 120,31.7504745 L120,31.7504745 L120,31.6820312 C119.9832,29.8424681 118.705198,28.0401286 116.174394,26.7204942 L116.174394,26.7204942 L68.4071165,1.80474106 C66.0887127,0.594375799 63.1223079,0 60.1151031,0 Z" id="Fill-7" fill="url(#linearGradient-11)" mask="url(#mask-10)"></path>
                        </g>
                    </g>
                </g>
            </g>
            <g id="Group-2">
                <circle id="Oval" fill="#0072FF" cx="48.3018868" cy="48.3018868" r="48.3018868"></circle>
                <g id="Group" transform="translate(19.320755, 24.150943)" fill="#FFFFFF">
                    <path d="M14.1276538,38.6415094 L14.1276538,34.0374147 C17.3823427,33.7085508 19.8665632,32.7699184 21.5803153,31.2215175 C23.2940673,29.6731166 24.1509434,27.7890004 24.1509434,25.569169 C24.1509434,23.7878228 23.6829019,22.3558946 22.7468188,21.2733842 C21.8107357,20.1908738 20.6586335,19.3755654 19.290512,18.8274589 C17.9223906,18.2793523 16.2014379,17.7723538 14.1276538,17.3064633 L14.1276538,17.3064633 L14.1276538,9.00264954 C16.6046737,9.2767028 18.9376807,10.0166466 21.126675,11.2224809 L21.126675,11.2224809 L22.8980322,7.07057407 C21.74593,6.35803559 20.3994104,5.78252375 18.8584737,5.34403854 C17.3175369,4.90555333 15.740597,4.64520273 14.1276538,4.56298675 L14.1276538,4.56298675 L14.1276538,0 L10.5849394,0 L10.5849394,4.64520273 C7.35905312,4.94666131 4.89643456,5.87844239 3.19708374,7.44054597 C1.49773292,9.00264954 0.648057515,10.893617 0.648057515,13.1134484 C0.648057515,14.8947946 1.10889841,16.3267229 2.03058021,17.4092332 C2.95226201,18.4917436 4.09716362,19.3139034 5.46528504,19.8757126 C6.83340646,20.4375217 8.53995792,20.9513716 10.5849394,21.4172621 L10.5849394,21.4172621 L10.5849394,29.6388599 C8.94319371,29.5018333 7.35905312,29.1524154 5.83251764,28.5906062 C4.30598216,28.028797 3.00986713,27.3368125 1.94417255,26.5146527 L1.94417255,26.5146527 L0,30.6665596 C1.12329969,31.5983407 2.63543389,32.3656898 4.53640261,32.968607 C6.43737132,33.5715242 8.45355025,33.9414961 10.5849394,34.0785227 L10.5849394,34.0785227 L10.5849394,38.6415094 L14.1276538,38.6415094 Z M10.5849394,16.4431955 C9.17361416,16.0595209 8.0935183,15.5936304 7.34465184,15.0455239 C6.59578538,14.4974174 6.22135215,13.7711762 6.22135215,12.8668005 C6.22135215,11.9076141 6.5813841,11.099157 7.301448,10.4414291 C8.02151191,9.78370132 9.11600905,9.34521611 10.5849394,9.1259735 L10.5849394,9.1259735 L10.5849394,16.4431955 Z M14.1276538,29.5566439 L14.1276538,22.2805299 C15.5677816,22.6642045 16.6766801,23.1369463 17.4543491,23.6987555 C18.2320181,24.2605647 18.6208526,25.0073598 18.6208526,25.9391409 C18.6208526,26.870922 18.25362,27.6519738 17.5191548,28.2822963 C16.7846896,28.9126188 15.6541893,29.3374013 14.1276538,29.5566439 L14.1276538,29.5566439 Z" id="$1" fill-rule="nonzero"></path>
                    <polygon id="Path" points="46.6113208 48.3018868 46.6113208 0 26.469434 0 26.469434 7.89735849 37.1924528 7.89735849 37.1924528 48.3018868"></polygon>
                </g>
            </g>
        </g>
    </g>
</svg>