<svg width="200" height="200" viewBox="0 0 200 200" fill="none" xmlns="http://www.w3.org/2000/svg">
<circle cx="100" cy="100" r="100" fill="url(#paint0_linear_116_21)"/>
<path d="M105.705 79.3478C106.974 79.3478 107.609 79.969 107.609 81.2112V115.761C107.609 116.941 106.974 117.624 105.705 117.624H98.6592C97.4532 117.624 96.755 116.941 96.755 115.761V93.6336C96.755 92.3913 96.1203 91.7702 94.8509 91.7702H92.1216C90.9156 91.7702 90.2174 91.087 90.2174 89.9068V86.5528C90.2174 85.4969 90.5982 84.8137 91.4868 84.3168L99.6113 79.5342C99.8651 79.4099 100.119 79.3478 100.436 79.3478H105.705Z" fill="white"/>
<path fill-rule="evenodd" clip-rule="evenodd" d="M73.2899 68.7074V93.1433H79.3478V105.767H73.2899V130.206C81.3552 128.78 90.3895 127.906 100.545 127.906C110.7 127.906 119.732 128.78 127.8 130.206V105.767H120.652V93.1433H127.8V68.7074C119.732 70.1304 110.7 71.0039 100.545 71.0039C90.3895 71.0039 81.3552 70.1304 73.2899 68.7074ZM146.408 63.9411C146.352 63.9615 146.297 63.982 146.241 64.0017C144.61 64.5596 142.901 65.0893 141.152 65.6022V93.1433H143.718C148.188 93.1433 151.809 96.7021 151.809 101.092C151.809 103.673 149.679 105.767 147.053 105.767H141.152V133.308C142.901 133.824 144.61 134.353 146.241 134.911C146.353 134.948 146.462 134.99 146.574 135.03C154.711 137.842 161.366 141.181 166.661 144.483C169.176 146.05 170.652 148.809 170.652 151.736C170.652 156.47 165.282 159.235 161.302 156.569C155.276 152.531 146.76 148.209 135.223 145.129C135.052 145.085 134.885 145.037 134.717 144.989C134.543 144.94 134.368 144.89 134.188 144.844C132.591 144.436 130.925 144.058 129.213 143.703C128.755 143.608 128.285 143.518 127.819 143.428L127.634 143.393C126.214 143.117 124.755 142.86 123.258 142.626C123.128 142.606 122.998 142.584 122.869 142.563C122.547 142.51 122.225 142.458 121.894 142.41C119.947 142.125 117.94 141.874 115.861 141.666C115.678 141.648 115.49 141.633 115.302 141.618C115.123 141.604 114.944 141.589 114.766 141.573C112.968 141.406 111.116 141.274 109.218 141.17C109.09 141.163 108.961 141.156 108.833 141.149C108.425 141.127 108.015 141.105 107.601 141.088C105.313 140.989 102.976 140.922 100.545 140.922C98.1193 140.922 95.7912 140.989 93.5119 141.088C93.1158 141.106 92.7267 141.126 92.3397 141.146C92.1691 141.155 91.999 141.164 91.8288 141.173C90.0025 141.274 88.222 141.404 86.4902 141.561C86.3251 141.576 86.1588 141.59 85.9927 141.603C85.7116 141.626 85.4309 141.649 85.157 141.677C83.1472 141.877 81.2118 142.119 79.3253 142.393C78.8919 142.455 78.4711 142.525 78.0492 142.595C77.8654 142.625 77.6814 142.656 77.496 142.686C76.2316 142.886 74.9959 143.103 73.7888 143.334L73.7147 143.348C73.0138 143.481 72.3112 143.615 71.6299 143.759C70.4056 144.018 69.2186 144.295 68.0545 144.579C66.9765 144.844 65.9329 145.12 64.9036 145.405C53.8765 148.459 45.6765 152.641 39.8161 156.558C35.8222 159.226 30.4348 156.476 30.4348 151.731C30.4348 148.806 31.9085 146.053 34.4173 144.489C39.7071 141.189 46.3474 137.859 54.4672 135.049C54.4985 135.038 54.5295 135.026 54.5604 135.014C54.6625 134.975 54.7636 134.937 54.8714 134.9C56.4971 134.348 58.1973 133.821 59.9348 133.308V105.767H57.3658C52.9017 105.767 49.2776 102.208 49.2776 97.818C49.2776 95.2369 51.4079 93.1433 54.0342 93.1433H59.9348V65.6022C58.1973 65.0893 56.4971 64.5652 54.8714 64.0101C54.7888 63.9819 54.7101 63.9528 54.6318 63.9238C54.5771 63.9035 54.5226 63.8833 54.4672 63.8636C46.3474 61.0543 39.7071 57.7208 34.4173 54.424C31.9085 52.8573 30.4348 50.1043 30.4348 47.1823C30.4348 42.4343 35.8222 39.6841 39.8161 42.3554C45.6765 46.2693 53.8765 50.4537 64.9036 53.5054C65.9329 53.79 66.9765 54.0661 68.0545 54.331C69.2186 54.6156 70.4056 54.8918 71.6299 55.151C72.3114 55.2953 73.0143 55.4291 73.7154 55.5625L73.7888 55.5765C74.9959 55.8075 76.2316 56.0245 77.496 56.2274C77.6487 56.252 77.8004 56.2769 77.9519 56.3017C78.4065 56.376 78.8586 56.45 79.3253 56.5176C81.2118 56.791 83.1472 57.0333 85.157 57.2362C85.41 57.2607 85.6688 57.2814 85.9283 57.3022C86.1158 57.3173 86.3038 57.3323 86.4902 57.3489C88.222 57.5095 90.0025 57.6363 91.8288 57.7377L91.8289 57.7377C92.3851 57.7687 92.9413 57.7997 93.5119 57.8223C95.7912 57.9209 98.1193 57.9885 100.545 57.9885C102.976 57.9885 105.313 57.9209 107.601 57.8223C108.015 57.8051 108.424 57.7831 108.832 57.7612C108.961 57.7542 109.089 57.7473 109.218 57.7405C111.116 57.6363 112.968 57.5039 114.766 57.3376C114.944 57.3211 115.123 57.3066 115.302 57.2922C115.49 57.277 115.678 57.2619 115.861 57.2446C117.94 57.0361 119.947 56.7853 121.894 56.5035C122.165 56.464 122.43 56.4206 122.694 56.3772C122.882 56.3465 123.069 56.3158 123.258 56.2866C124.755 56.0499 126.214 55.7963 127.634 55.5173C127.749 55.4952 127.864 55.4732 127.98 55.4511C128.393 55.3723 128.808 55.2933 129.213 55.2074C130.925 54.8523 132.591 54.4747 134.188 54.0661C134.385 54.0157 134.577 53.9616 134.768 53.9075C134.919 53.865 135.069 53.8225 135.223 53.7816C146.76 50.7045 155.276 46.382 161.302 42.3441C165.282 39.6785 170.652 42.4428 170.652 47.1766C170.652 50.1015 169.176 52.8601 166.661 54.4268C161.366 57.7293 154.711 61.0684 146.574 63.8805C146.518 63.9002 146.463 63.9207 146.408 63.9411Z" fill="white"/>
<rect x="65.2174" y="92.3913" width="21.7391" height="14.1304" rx="7.06522" fill="white"/>
<rect x="116.304" y="92.3913" width="21.7391" height="14.1304" rx="7.06522" fill="white"/>
<defs>
<linearGradient id="paint0_linear_116_21" x1="100" y1="0" x2="100" y2="200" gradientUnits="userSpaceOnUse">
<stop stop-color="#3F01F0"/>
<stop offset="0.744792" stop-color="#BC0022"/>
</linearGradient>
</defs>
</svg>