<?xml version="1.0" encoding="UTF-8"?>
<svg width="256px" height="256px" viewBox="0 0 256 256" version="1.1" xmlns="http://www.w3.org/2000/svg" xmlns:xlink="http://www.w3.org/1999/xlink">
    <title>88mph</title>
    <defs>
        <path d="M120.754717,0 C187.445706,0 241.509434,54.0637283 241.509434,120.754717 C241.509434,187.445706 187.445706,241.509434 120.754717,241.509434 C54.0637283,241.509434 0,187.445706 0,120.754717 C0,109.830356 1.45065362,99.2448143 4.16983596,89.1802154 C13.0011345,93.9180886 23.09259,96.6037736 33.8113208,96.6037736 C68.4906349,96.6037736 96.6037736,68.4906349 96.6037736,33.8113208 C96.6037736,23.09259 93.9180886,13.0011345 89.1829349,4.17317048 C99.2448143,1.45065362 109.830356,0 120.754717,0 Z" id="path-1"></path>
        <linearGradient x1="50%" y1="0%" x2="50%" y2="100%" id="linearGradient-3">
            <stop stop-color="#3534F5" offset="0%"></stop>
            <stop stop-color="#8B27CD" offset="100%"></stop>
        </linearGradient>
        <linearGradient x1="50%" y1="0%" x2="50%" y2="100%" id="linearGradient-4">
            <stop stop-color="#B421BA" offset="0%"></stop>
            <stop stop-color="#F61F96" offset="100%"></stop>
        </linearGradient>
        <linearGradient x1="50%" y1="0%" x2="50%" y2="100%" id="linearGradient-5">
            <stop stop-color="#F83C7A" offset="0%"></stop>
            <stop stop-color="#F96653" offset="100%"></stop>
        </linearGradient>
        <linearGradient x1="50%" y1="0%" x2="50%" y2="100%" id="linearGradient-6">
            <stop stop-color="#F98637" offset="0%"></stop>
            <stop stop-color="#FAB014" offset="100%"></stop>
        </linearGradient>
        <linearGradient x1="50%" y1="0%" x2="50%" y2="100%" id="linearGradient-7">
            <stop stop-color="#FCBC12" offset="0%"></stop>
            <stop stop-color="#FED205" offset="100%"></stop>
        </linearGradient>
    </defs>
    <g id="88mph" stroke="none" stroke-width="1" fill="none" fill-rule="evenodd">
        <g id="icon_chain">
            <g id="Oval" transform="translate(14.000000, 14.000000)">
                <mask id="mask-2" fill="white">
                    <use xlink:href="#path-1"></use>
                </mask>
                <use id="Mask" fill="#131415" xlink:href="#path-1"></use>
                <g id="Group-14" mask="url(#mask-2)">
                    <g transform="translate(46.000000, 53.000000)" id="Path">
                        <path d="M15.7890836,0 C6.60794765,0 0.00741078241,7.6090535 0,15.8971193 L0,15.8971193 L0,15.9283951 C0.0024702608,17.8880658 0.373009382,19.8847737 1.1659631,21.8271605 L1.1659631,21.8271605 L148.788749,21.8271605 C149.607229,19.8674897 149.992589,17.8534979 150,15.8781893 L150,15.8781893 L150,15.7596708 C149.96871,7.52510288 143.374761,0 134.164805,0 L134.164805,0 L15.7890836,0 Z" fill="url(#linearGradient-3)"></path>
                        <polygon fill="url(#linearGradient-4)" points="5.61243255 29.8271605 16.4815801 48.8888889 133.670753 48.8888889 144.440266 29.8271605"></polygon>
                        <polygon fill="url(#linearGradient-5)" points="21.02686 56.9876543 30.1174197 73.0864198 119.836469 73.0864198 129.025839 56.9876543"></polygon>
                        <polygon fill="url(#linearGradient-6)" points="34.7606866 81.1851852 43.8520698 97.2839506 106.200629 97.2839506 115.389999 81.1851852"></polygon>
                        <polygon fill="url(#linearGradient-7)" points="48.3965263 105.382716 57.5858965 121.481481 92.4668024 121.481481 101.557362 105.382716"></polygon>
                        <path d="M62.3287972,129.481481 C68.5538544,138.17284 81.5968315,138.17284 87.8218887,129.481481 L87.8218887,129.481481 L62.3287972,129.481481 Z" fill="#FEE302"></path>
                    </g>
                </g>
            </g>
            <g id="Group-2">
                <circle id="Oval" fill="#0072FF" cx="48.3018868" cy="48.3018868" r="48.3018868"></circle>
                <g id="Group" transform="translate(19.320755, 24.150943)" fill="#FFFFFF">
                    <path d="M14.1276538,38.6415094 L14.1276538,34.0374147 C17.3823427,33.7085508 19.8665632,32.7699184 21.5803153,31.2215175 C23.2940673,29.6731166 24.1509434,27.7890004 24.1509434,25.569169 C24.1509434,23.7878228 23.6829019,22.3558946 22.7468188,21.2733842 C21.8107357,20.1908738 20.6586335,19.3755654 19.290512,18.8274589 C17.9223906,18.2793523 16.2014379,17.7723538 14.1276538,17.3064633 L14.1276538,17.3064633 L14.1276538,9.00264954 C16.6046737,9.2767028 18.9376807,10.0166466 21.126675,11.2224809 L21.126675,11.2224809 L22.8980322,7.07057407 C21.74593,6.35803559 20.3994104,5.78252375 18.8584737,5.34403854 C17.3175369,4.90555333 15.740597,4.64520273 14.1276538,4.56298675 L14.1276538,4.56298675 L14.1276538,0 L10.5849394,0 L10.5849394,4.64520273 C7.35905312,4.94666131 4.89643456,5.87844239 3.19708374,7.44054597 C1.49773292,9.00264954 0.648057515,10.893617 0.648057515,13.1134484 C0.648057515,14.8947946 1.10889841,16.3267229 2.03058021,17.4092332 C2.95226201,18.4917436 4.09716362,19.3139034 5.46528504,19.8757126 C6.83340646,20.4375217 8.53995792,20.9513716 10.5849394,21.4172621 L10.5849394,21.4172621 L10.5849394,29.6388599 C8.94319371,29.5018333 7.35905312,29.1524154 5.83251764,28.5906062 C4.30598216,28.028797 3.00986713,27.3368125 1.94417255,26.5146527 L1.94417255,26.5146527 L0,30.6665596 C1.12329969,31.5983407 2.63543389,32.3656898 4.53640261,32.968607 C6.43737132,33.5715242 8.45355025,33.9414961 10.5849394,34.0785227 L10.5849394,34.0785227 L10.5849394,38.6415094 L14.1276538,38.6415094 Z M10.5849394,16.4431955 C9.17361416,16.0595209 8.0935183,15.5936304 7.34465184,15.0455239 C6.59578538,14.4974174 6.22135215,13.7711762 6.22135215,12.8668005 C6.22135215,11.9076141 6.5813841,11.099157 7.301448,10.4414291 C8.02151191,9.78370132 9.11600905,9.34521611 10.5849394,9.1259735 L10.5849394,9.1259735 L10.5849394,16.4431955 Z M14.1276538,29.5566439 L14.1276538,22.2805299 C15.5677816,22.6642045 16.6766801,23.1369463 17.4543491,23.6987555 C18.2320181,24.2605647 18.6208526,25.0073598 18.6208526,25.9391409 C18.6208526,26.870922 18.25362,27.6519738 17.5191548,28.2822963 C16.7846896,28.9126188 15.6541893,29.3374013 14.1276538,29.5566439 L14.1276538,29.5566439 Z" id="$1" fill-rule="nonzero"></path>
                    <polygon id="Path" points="46.6113208 48.3018868 46.6113208 0 26.469434 0 26.469434 7.89735849 37.1924528 7.89735849 37.1924528 48.3018868"></polygon>
                </g>
            </g>
        </g>
    </g>
</svg>