<svg width="250" height="250" viewBox="0 0 250 250" fill="none" xmlns="http://www.w3.org/2000/svg">
<circle cx="125" cy="125" r="125" fill="#161522"/>
<path fill-rule="evenodd" clip-rule="evenodd" d="M137.576 193.122H111.733C118.059 201.862 131.251 201.862 137.576 193.122ZM142.319 184.962H106.991L97.738 168.641H151.572L142.319 184.962ZM93.1116 160.481H156.198L165.451 144.16H83.859L93.1116 160.481ZM79.2326 136L69.98 119.679H179.33L170.077 136H79.2326ZM65.3536 111.518H183.956L194.891 92.2304H54.4187L65.3536 111.518ZM49.9333 84.07C45.6587 73.7792 53.1719 62 64.7434 62H184.566C196.138 62 203.651 73.7792 199.376 84.07H49.9333Z" fill="url(#paint0_linear)"/>
<path d="M112.561 112.247V100.817C116.242 101.483 120.365 101.892 125.001 101.892C129.636 101.892 133.758 101.483 137.441 100.817V112.247H112.561ZM125.001 128.507C120.365 128.507 116.242 128.916 112.561 129.583V118.152H137.441V129.583C133.758 128.916 129.636 128.507 125.001 128.507ZM145.858 98.6164C145.909 98.598 145.959 98.5782 146.01 98.5597C149.724 97.2444 152.761 95.6826 155.178 94.1379C156.326 93.4051 157 92.1148 157 90.7467C157 88.5325 154.549 87.2395 152.732 88.4863C149.982 90.375 146.095 92.3968 140.829 93.8361C140.669 93.8796 140.517 93.927 140.356 93.9692C139.628 94.1603 138.867 94.3369 138.086 94.503C137.849 94.5544 137.606 94.6005 137.365 94.6479C136.717 94.7784 136.051 94.897 135.368 95.0078C135.16 95.0407 134.957 95.0776 134.745 95.1092C133.856 95.241 132.94 95.3583 131.992 95.4559C131.828 95.4717 131.658 95.4835 131.492 95.4994C130.671 95.5771 129.826 95.6391 128.959 95.6878C128.715 95.701 128.47 95.7155 128.221 95.7261C127.177 95.7722 126.11 95.8038 125.001 95.8038C123.894 95.8038 122.831 95.7722 121.791 95.7261C121.53 95.7155 121.276 95.701 121.022 95.6865C120.189 95.6391 119.376 95.5798 118.586 95.5046C118.383 95.4862 118.176 95.4717 117.977 95.4519C117.06 95.357 116.176 95.2437 115.315 95.1158C115.031 95.0737 114.759 95.0262 114.48 94.9801C113.903 94.8852 113.339 94.7837 112.788 94.6756C112.457 94.611 112.125 94.5465 111.803 94.4766C111.244 94.3554 110.702 94.2262 110.171 94.0931C109.679 93.9692 109.203 93.84 108.733 93.7069C103.7 92.2795 99.9568 90.3223 97.2819 88.4916C95.459 87.2422 93 88.5285 93 90.7493C93 92.1161 93.6727 93.4038 94.8177 94.1366C97.2322 95.6786 100.263 97.2378 103.969 98.5518C104.031 98.5742 104.09 98.598 104.154 98.6204C104.896 98.88 105.672 99.1252 106.465 99.365V112.247H103.772C102.573 112.247 101.601 113.226 101.601 114.434C101.601 116.487 103.255 118.152 105.292 118.152H106.465V131.034C105.672 131.274 104.896 131.52 104.154 131.778C104.09 131.801 104.031 131.824 103.969 131.848C100.263 133.162 97.2322 134.72 94.8177 136.263C93.6727 136.995 93 138.283 93 139.651C93 141.87 95.459 143.157 97.2819 141.908C99.9568 140.076 103.7 138.12 108.733 136.692C109.203 136.559 109.679 136.43 110.171 136.306C110.702 136.172 111.244 136.043 111.803 135.922C112.125 135.852 112.457 135.788 112.788 135.723C113.339 135.615 113.903 135.513 114.48 135.42C114.759 135.374 115.031 135.325 115.315 135.283C116.176 135.155 117.06 135.042 117.977 134.948C118.176 134.927 118.383 134.912 118.586 134.894C119.376 134.82 120.189 134.76 121.022 134.712C121.276 134.699 121.53 134.684 121.791 134.673C122.831 134.626 123.894 134.595 125.001 134.595C126.11 134.595 127.177 134.626 128.221 134.673C128.47 134.683 128.715 134.698 128.959 134.711C129.826 134.76 130.671 134.822 131.492 134.899C131.658 134.915 131.828 134.927 131.992 134.943C132.94 135.04 133.856 135.158 134.745 135.291C134.957 135.322 135.16 135.358 135.368 135.392C136.051 135.502 136.717 135.622 137.365 135.751C137.606 135.798 137.849 135.846 138.086 135.896C138.867 136.062 139.628 136.238 140.356 136.43C140.517 136.472 140.669 136.52 140.829 136.563C146.095 138.003 149.982 140.025 152.732 141.914C154.549 143.16 157 141.868 157 139.653C157 138.284 156.326 136.994 155.178 136.261C152.761 134.716 149.724 133.154 146.01 131.839C145.959 131.82 145.909 131.801 145.858 131.784C145.113 131.523 144.333 131.275 143.535 131.034V118.152H146.228C147.427 118.152 148.399 117.172 148.399 115.965C148.399 113.912 146.747 112.247 144.706 112.247H143.535V99.365C144.333 99.1252 145.113 98.8774 145.858 98.6164Z" fill="white"/>
<defs>
<linearGradient id="paint0_linear" x1="124.655" y1="199.677" x2="124.655" y2="62.497" gradientUnits="userSpaceOnUse">
<stop stop-color="#FFE600"/>
<stop offset="0.307292" stop-color="#FAAD14"/>
<stop offset="0.671875" stop-color="#F7169C"/>
<stop offset="1" stop-color="#3435F5"/>
</linearGradient>
</defs>
</svg>
