<?xml version="1.0" encoding="UTF-8"?>
<svg width="200px" height="200px" viewBox="0 0 200 200" version="1.1" xmlns="http://www.w3.org/2000/svg" xmlns:xlink="http://www.w3.org/1999/xlink">
    <title>200px_dodo</title>
    <defs>
        <circle id="path-1" cx="100" cy="100" r="100"></circle>
    </defs>
    <g id="200px_dodo" stroke="none" stroke-width="1" fill="none" fill-rule="evenodd">
        <g id="Group">
            <mask id="mask-2" fill="white">
                <use xlink:href="#path-1"></use>
            </mask>
            <use id="Mask" fill="#FFF902" xlink:href="#path-1"></use>
            <g id="Group-2" mask="url(#mask-2)">
                <g transform="translate(25.000000, 30.000000)">
                    <g id="Group-17" stroke-width="1" fill="none" transform="translate(0.000000, 55.000000)">
                        <g id="Group-3" fill="#000000">
                            <path d="M20.577507,113.91423 L0,113.91423 C0.0671424347,112.64097 0.0865083985,111.443948 0.201427304,110.256296 C0.508728971,107.082515 0.779320431,103.902239 1.20249866,100.743153 C2.97948544,87.4764587 6.33107405,74.6825254 12.8399532,62.8687193 C17.8812753,53.7183461 24.5178421,45.9832743 33.2072011,40.0890953 C40.0384916,35.4552927 47.543441,32.408966 55.5784006,30.6208862 C56.992648,30.3061382 58.4188129,30.0454808 59.9568109,29.7362696 C59.6064147,29.1564985 59.3070935,28.645938 58.9931946,28.1445346 C57.544578,25.8303485 56.5775567,23.3289746 56.1982179,20.6269967 C55.9200716,18.6461923 55.9035786,16.6623 56.7189708,14.7688072 C57.4190184,13.1431058 58.6101316,12.1236884 60.4061652,11.9550278 C61.4915104,11.8531286 62.5079042,12.1899176 63.4766281,12.660336 C64.9025802,13.3526539 66.0785836,14.3679187 67.1437116,15.5227757 C67.4301576,15.8333711 67.7026644,16.1568504 68.1212672,16.633338 C68.1435061,16.1886872 68.1738319,15.9058824 68.1692565,15.6237166 C68.1185006,12.5083923 68.5310382,9.46451461 69.7130004,6.56885384 C70.1519268,5.4933227 70.7426951,4.47401178 71.3298456,3.46726522 C71.6295924,2.95329741 72.042662,2.49320732 72.4588174,2.06112085 C75.0852465,-0.665559823 78.409595,-0.689304348 81.064541,2.00436824 C82.8039663,3.76923595 83.7869486,5.95926907 84.4722057,8.29698675 C85.0529718,10.278643 85.3710205,12.3049135 85.3903865,14.3743074 C85.3933659,14.6859676 85.4193291,14.9973083 85.4423128,15.4643195 C85.7188631,15.2449754 85.8923055,15.1094293 86.0636198,14.9712213 C86.9166798,14.2833754 87.7482458,13.5662482 88.6315253,12.9198221 C89.0233136,12.6331842 89.5060794,12.4517462 89.9702241,12.2865993 C92.3003113,11.457777 94.2975594,12.3071495 95.3188479,14.5610692 C95.9921876,16.0473913 96.1463705,17.630821 96.0952954,19.2384212 C95.9782484,22.9196743 95.0498526,26.3748754 93.1752911,29.5612202 C93.1077231,29.6761097 93.0703744,29.8086744 92.9771624,30.0337682 C93.46195,30.1616479 93.8944919,30.2827131 94.3305453,30.3897231 C104.450645,32.8742735 113.698424,37.1678799 121.857773,43.7002862 C130.936367,50.9686662 137.543991,60.1008317 142.149366,70.7280505 C145.137683,77.6236522 147.11929,84.8113221 148.358073,92.2156742 C149.489811,98.9803083 149.979281,105.793709 150,112.646187 C150,113.031317 150,113.416447 150,113.771124 C149.059291,114.052438 130.46605,114.080761 129.392091,113.820849 C129.368256,113.59682 129.330694,113.357032 129.319202,113.115967 C129.168105,109.966144 129.151293,106.803437 128.848354,103.668414 C127.83611,93.1890932 125.032727,83.272826 119.138132,74.4120721 C112.481029,64.4050859 103.231653,57.9242148 91.7649808,54.5260858 C87.0230862,53.1208998 82.1693586,52.3902498 77.2291225,52.1239491 C73.640354,51.9304792 70.0666953,52.0167261 66.5045284,52.4071798 C55.5155145,53.6114425 45.8243393,57.655891 37.9771869,65.637991 C33.135164,70.5633295 29.6408844,76.3638081 27.0227551,82.7185031 C24.6766005,88.4130365 23.1429651,94.3340478 22.1101847,100.395397 C21.3830034,104.662597 20.9558881,108.962059 20.661036,113.277281 C20.6492249,113.450626 20.6164517,113.622694 20.577507,113.91423" id="Fill-1"></path>
                        </g>
                        <path d="M63.4571639,88.6535412 C63.4567549,90.3178287 63.4692307,91.9822228 63.4537893,93.6464038 C63.4318032,96.0199236 61.7747653,97.7603982 59.5980369,97.8740927 C57.6879031,97.973935 55.4943016,96.4775787 55.4381603,93.8522687 C55.3641233,90.3839996 55.3678047,86.9112552 55.4433756,83.4428795 C55.4902111,81.29238 57.136307,79.6295843 59.1446115,79.4669809 C61.1051601,79.3082134 62.91109,80.6859737 63.3586865,82.7145739 C63.4486762,83.1224677 63.4276105,83.5571068 63.4571639,83.9793855 C63.4596182,84.0146554 63.4575729,84.0501383 63.4575729,84.0856212 C63.4575729,85.6082967 63.4575729,87.1308657 63.4571639,88.6535412" id="Fill-13" fill="#000000"></path>
                        <path d="M95.7572323,88.6378672 C95.7572323,90.3747243 95.789275,92.1123264 95.748633,93.8482257 C95.7039984,95.7553734 94.4432773,97.3306674 92.6981281,97.7630989 C90.9481673,98.1967012 89.0787375,97.3886726 88.26385,95.7218474 C87.9504868,95.08081 87.747891,94.3097131 87.7360158,93.5935349 C87.6815534,90.2979871 87.6784822,87.0004171 87.7240381,83.7046565 C87.7553642,81.4458588 89.2662845,79.7319909 91.3118979,79.4818767 C93.2203318,79.2485786 95.0770674,80.5311857 95.6058229,82.4882498 C95.7235516,82.9238743 95.7503733,83.3964306 95.7552872,83.8527028 C95.7725882,85.4475802 95.7620438,87.0427769 95.7620438,88.6378672 L95.7572323,88.6378672 Z" id="Fill-15" fill="#000000"></path>
                    </g>
                    <path d="M63.3380022,22.2858884 L63.3380022,11.780744 C66.7891831,12.3924942 70.6550455,12.768024 75.0006134,12.768024 C79.3461814,12.768024 83.2108169,12.3924942 86.6632246,11.780744 L86.6632246,22.2858884 L63.3380022,22.2858884 Z M63.3380022,38.219256 L63.3380022,27.7129002 L86.6632246,27.7129002 L86.6632246,38.219256 C83.2108169,37.6062944 79.3461814,37.2307646 75.0006134,37.2307646 C70.6550455,37.2307646 66.7891831,37.6062944 63.3380022,38.219256 Z M94.696759,9.70563877 C98.1786116,8.49667496 101.026173,7.06118187 103.292199,5.6414368 C104.368163,4.96790586 105,3.7819584 105,2.52453914 C105,0.489409686 102.702075,-0.698960547 100.999182,0.447011156 C98.4203047,2.18292812 94.7765055,4.04119513 89.839587,5.36402927 C89.689909,5.40400503 89.5475923,5.44761495 89.3966875,5.48637932 C88.7133217,5.66203037 88.0005112,5.82435617 87.2680707,5.97699088 C87.0460076,6.02423496 86.81781,6.06663349 86.5920663,6.11024341 C85.9847664,6.23017068 85.3602904,6.33919547 84.719865,6.44095194 C84.524793,6.47123661 84.3346284,6.50515543 84.1358757,6.53422871 C83.302832,6.65536736 82.4440241,6.76318077 81.5545445,6.85282338 C81.401186,6.86736002 81.2416931,6.8782625 81.0858808,6.89279913 C80.3166343,6.96427094 79.5240773,7.02120611 78.7118904,7.06602741 C78.482466,7.07814128 78.2530416,7.09146653 78.0199366,7.10115763 C77.0408956,7.14355616 76.0409979,7.17262943 75.0006134,7.17262943 C73.9626828,7.17262943 72.9664656,7.14355616 71.9911052,7.10115763 C71.7469584,7.09146653 71.5089459,7.07814128 71.2709334,7.06481603 C70.4894183,7.02120611 69.727533,6.96669372 68.9865044,6.89764468 C68.7963398,6.88068527 68.6024946,6.86736002 68.4160106,6.84918922 C67.5559759,6.76196938 66.7278397,6.65779014 65.9205603,6.54028564 C65.6543298,6.50152127 65.3991412,6.45791135 65.1378182,6.41551282 C64.5967692,6.32829299 64.067989,6.23501622 63.5514774,6.13568252 C63.2410796,6.07632458 62.9294551,6.01696664 62.6276454,5.95276315 C62.1037726,5.84131558 61.5958491,5.7225997 61.0977405,5.60024966 C60.636438,5.48637932 60.1898579,5.36766343 59.7494121,5.24531339 C55.0308762,3.93338173 51.5220325,2.13447266 49.0143135,0.451856702 C47.3052858,-0.696537773 45,0.485775526 45,2.52696191 C45,3.78316979 45.6306104,4.96669448 46.7041202,5.64022541 C48.9676925,7.05754771 51.8091197,8.49061803 55.2836111,9.69837045 C55.3412739,9.71896402 55.396483,9.74076898 55.4565995,9.76136255 C56.1522339,10 56.8797669,10.2253236 57.6232492,10.445796 L57.6232492,22.2858884 L55.098354,22.2858884 C53.9745425,22.2858884 53.0629792,23.1859486 53.0629792,24.2955787 C53.0629792,26.182919 54.6137409,27.7129002 56.5239751,27.7129002 L57.6232492,27.7129002 L57.6232492,39.5529926 C56.8797669,39.773465 56.1522339,40 55.4565995,40.2374261 C55.396483,40.2580196 55.3412739,40.2798246 55.2836111,40.3016296 C51.8091197,41.509382 48.9676925,42.9412409 46.7041202,44.3597746 C45.6306104,45.0320941 45,46.2156188 45,47.4730381 C45,49.5130131 47.3052858,50.6953264 49.0143135,49.5481433 C51.5220325,47.864316 55.0308762,46.0666183 59.7494121,44.7534752 C60.1898579,44.6311252 60.636438,44.5124093 61.0977405,44.398539 C61.5958491,44.2761889 62.1037726,44.157473 62.6276454,44.0460255 C62.9294551,43.981822 63.2410796,43.922464 63.5514774,43.8631061 C64.067989,43.7637724 64.5967692,43.6704956 65.1378182,43.5844872 C65.3991412,43.5420886 65.6543298,43.4972673 65.9205603,43.458503 C66.7278397,43.3409985 67.5559759,43.2368192 68.4160106,43.1508108 C68.6024946,43.1314286 68.7963398,43.1181033 68.9865044,43.1011439 C69.727533,43.0333063 70.4894183,42.9775825 71.2709334,42.9339726 C71.5089459,42.9218587 71.7469584,42.9085335 71.9911052,42.897631 C72.9664656,42.8552325 73.9626828,42.8261592 75.0006134,42.8261592 C76.0409979,42.8261592 77.0408956,42.8552325 78.0199366,42.897631 C78.2530416,42.9073221 78.482466,42.9206473 78.7118904,42.9327612 C79.5240773,42.9775825 80.3166343,43.0345177 81.0858808,43.1059895 C81.2416931,43.1205261 81.401186,43.1314286 81.5545445,43.1459652 C82.4440241,43.2356078 83.302832,43.3434212 84.1358757,43.4657713 C84.3346284,43.4948446 84.524793,43.527552 84.719865,43.5590481 C85.3602904,43.6595931 85.9847664,43.7698293 86.5920663,43.8885452 C86.81781,43.9321551 87.0460076,43.975765 87.2680707,44.0217977 C88.0005112,44.1744324 88.7133217,44.3367582 89.3966875,44.5124093 C89.5475923,44.5511737 89.689909,44.595995 89.839587,44.6347593 C94.7765055,45.9588049 98.4203047,47.8170719 100.999182,49.5529888 C102.702075,50.6989605 105,49.5105903 105,47.4754609 C105,46.2168302 104.368163,45.0308828 103.292199,44.3573518 C101.026173,42.9376067 98.1786116,41.5021137 94.696759,40.2931498 C94.6489112,40.2761904 94.6022902,40.2580196 94.5544423,40.2422716 C93.8563542,40.0024171 93.1251406,39.7746764 92.3767508,39.5529926 L92.3767508,27.7129002 L94.901646,27.7129002 C96.0254575,27.7129002 96.9370208,26.81284 96.9370208,25.7032099 C96.9370208,23.8158696 95.3874859,22.2858884 93.4747981,22.2858884 L92.3767508,22.2858884 L92.3767508,10.445796 C93.1251406,10.2253236 93.8563542,9.99758293 94.5544423,9.75772839 C94.6022902,9.74076898 94.6489112,9.72259818 94.696759,9.70563877 Z" id="Fill-4" fill="#000000"></path>
                </g>
            </g>
        </g>
    </g>
</svg>