<?xml version="1.0" encoding="UTF-8"?>
<svg width="200px" height="200px" viewBox="0 0 200 200" version="1.1" xmlns="http://www.w3.org/2000/svg" xmlns:xlink="http://www.w3.org/1999/xlink">
    <title>200px_fuse</title>
    <defs>
        <circle id="path-1" cx="100" cy="100" r="100"></circle>
        <path d="M105.963148,0 L115.867964,5.18487818 C120.879172,7.80493473 120.965572,12.3257931 116.058764,15.2772592 L116.058764,15.2772592 L69.4206887,43.3221908 C66.7770844,44.9107952 63.2250786,45.7213077 59.725873,45.7213077 C56.7270681,45.7213077 53.7690633,45.1257311 51.4554596,43.9165666 L51.4554596,43.9165666 L3.81538248,18.9900066 C-1.19582563,16.3675485 -1.28222577,11.8466902 3.62458217,8.8976256 L3.62458217,8.8976256 L13.9457989,2.6921021 L48.3906546,20.7118953 C51.5886598,22.3857536 55.5078661,23.2707131 59.725873,23.2707131 C64.5882808,23.2707131 69.2406884,22.0819615 72.8274942,19.9277995 L72.8274942,19.9277995" id="path-3"></path>
        <linearGradient x1="49.999843%" y1="-162.486977%" x2="49.999843%" y2="100%" id="linearGradient-5">
            <stop stop-color="#B3F9BA" offset="0%"></stop>
            <stop stop-color="#F6FB8C" offset="100%"></stop>
        </linearGradient>
        <path d="M88.6463493,11.7494287 L85.3403439,13.7667041 L82.0355386,15.7827788 L73.019924,21.2834566 C69.4247181,23.4796452 64.7579106,24.6864082 59.8835027,24.6864082 L59.8835027,24.6864082 C55.6558959,24.6864082 51.7258895,23.7858388 48.5182843,22.0855638 L48.5182843,22.0855638 L38.1898676,16.6004958 L34.7710621,14.7873494 L31.3522565,12.9730023 L12.3202257,2.86741294 L3.63461166,8.16876477 C-1.28419631,11.169462 -1.20019617,15.7683697 3.82421196,18.4364566 L3.82421196,18.4364566 L13.756628,23.7077894 L17.1754336,25.5233373 L20.5918391,27.3376845 L51.5926893,43.7928884 C53.909893,45.0236666 56.8774978,45.6276484 59.8835027,45.6276484 L59.8835027,45.6276484 C63.3911084,45.6276484 66.9551141,44.8063292 69.6023184,43.1889065 L69.6023184,43.1889065 L99.4067667,25.0058101 L102.712772,22.9873339 L106.017577,20.9712592 L116.365194,14.6576674 C118.777198,13.1879382 119.9856,11.3327652 120,9.50881202 L120,9.50881202 L120,9.44036875 C119.9832,7.56838517 118.705198,5.73362513 116.174394,4.3899756 L116.174394,4.3899756 L107.90518,0 L88.6463493,11.7494287 Z" id="path-6"></path>
        <linearGradient x1="49.9999191%" y1="-98.9553649%" x2="49.9999191%" y2="157.815373%" id="linearGradient-8">
            <stop stop-color="#B1FFBF" offset="0%"></stop>
            <stop stop-color="#FFF06D" offset="100%"></stop>
        </linearGradient>
        <path d="M60.1151031,0 C56.6074974,0 53.0446916,0.810512453 50.3962873,2.39911686 L50.3962873,2.39911686 L3.63461166,30.4344424 C-1.28419631,33.3823062 -1.20019617,37.8995623 3.82421196,40.5220204 L3.82421196,40.5220204 L12.0946253,44.8351474 L15.5134309,46.6182748 L18.9322364,48.4026029 L37.9642672,58.3304799 L41.3818728,60.1124066 L44.8018783,61.8967347 L51.5926893,65.4401751 C53.909893,66.6493396 56.8774978,67.2437154 59.8835027,67.2437154 L59.8835027,67.2437154 C63.3911084,67.2437154 66.9551141,66.4332029 69.6023184,64.8445985 L69.6023184,64.8445985 L75.1979275,61.4896773 L78.5039328,59.5084247 L81.8087382,57.527172 L101.067569,45.9806717 L104.373575,43.999419 L107.67838,42.0181663 L116.365194,36.809273 C118.777198,35.3647597 119.9856,33.5420072 120,31.7504745 L120,31.7504745 L120,31.6820312 C119.9832,29.8424681 118.705198,28.0401286 116.174394,26.7204942 L116.174394,26.7204942 L68.4071165,1.80474106 C66.0887127,0.594375799 63.1223079,0 60.1151031,0 Z" id="path-9"></path>
        <linearGradient x1="49.9999191%" y1="0.000916769343%" x2="49.9999191%" y2="180.80126%" id="linearGradient-11">
            <stop stop-color="#B3F9BA" offset="0%"></stop>
            <stop stop-color="#F6FB8C" offset="100%"></stop>
        </linearGradient>
    </defs>
    <g id="200px_fuse" stroke="none" stroke-width="1" fill="none" fill-rule="evenodd">
        <g id="Oval" transform="translate(-0.041501, -0.041501)">
            <mask id="mask-2" fill="white">
                <use xlink:href="#path-1"></use>
            </mask>
            <use id="Mask" fill="#031928" xlink:href="#path-1"></use>
            <g id="Group-10" mask="url(#mask-2)">
                <g transform="translate(40.000000, 38.000000)">
                    <g id="Group-3" transform="translate(0.000429, 78.278692)">
                        <mask id="mask-4" fill="white">
                            <use xlink:href="#path-3"></use>
                        </mask>
                        <g id="Clip-2"></g>
                        <path d="M59.725873,23.2707131 C55.5078661,23.2707131 51.5886598,22.3857536 48.3906546,20.7118953 L13.9457989,2.6921021 L3.62458217,8.8976256 C-1.28222577,11.8466902 -1.19582563,16.3675485 3.81538248,18.9900066 L51.4554596,43.9165666 C53.7690633,45.1257311 56.7270681,45.7213077 59.725873,45.7213077 C63.2250786,45.7213077 66.7770844,44.9107952 69.4206887,43.3221908 L116.058764,15.2772592 C120.965572,12.3257931 120.879172,7.80493473 115.867964,5.18487818 L105.963148,0 L72.8274942,19.9277995 C69.2406884,22.0819615 64.5882808,23.2707131 59.725873,23.2707131" id="Fill-1" fill="url(#linearGradient-5)" mask="url(#mask-4)"></path>
                    </g>
                    <g id="Group-6" transform="translate(0.000000, 49.232328)">
                        <mask id="mask-7" fill="white">
                            <use xlink:href="#path-6"></use>
                        </mask>
                        <g id="Clip-5"></g>
                        <path d="M88.6463493,11.7494287 L85.3403439,13.7667041 L82.0355386,15.7827788 L73.019924,21.2834566 C69.4247181,23.4796452 64.7579106,24.6864082 59.8835027,24.6864082 L59.8835027,24.6864082 C55.6558959,24.6864082 51.7258895,23.7858388 48.5182843,22.0855638 L48.5182843,22.0855638 L38.1898676,16.6004958 L34.7710621,14.7873494 L31.3522565,12.9730023 L12.3202257,2.86741294 L3.63461166,8.16876477 C-1.28419631,11.169462 -1.20019617,15.7683697 3.82421196,18.4364566 L3.82421196,18.4364566 L13.756628,23.7077894 L17.1754336,25.5233373 L20.5918391,27.3376845 L51.5926893,43.7928884 C53.909893,45.0236666 56.8774978,45.6276484 59.8835027,45.6276484 L59.8835027,45.6276484 C63.3911084,45.6276484 66.9551141,44.8063292 69.6023184,43.1889065 L69.6023184,43.1889065 L99.4067667,25.0058101 L102.712772,22.9873339 L106.017577,20.9712592 L116.365194,14.6576674 C118.777198,13.1879382 119.9856,11.3327652 120,9.50881202 L120,9.50881202 L120,9.44036875 C119.9832,7.56838517 118.705198,5.73362513 116.174394,4.3899756 L116.174394,4.3899756 L107.90518,0 L88.6463493,11.7494287 Z" id="Fill-4" fill="url(#linearGradient-8)" mask="url(#mask-7)"></path>
                    </g>
                    <g id="Group-9">
                        <mask id="mask-10" fill="white">
                            <use xlink:href="#path-9"></use>
                        </mask>
                        <g id="Clip-8"></g>
                        <path d="M60.1151031,0 C56.6074974,0 53.0446916,0.810512453 50.3962873,2.39911686 L50.3962873,2.39911686 L3.63461166,30.4344424 C-1.28419631,33.3823062 -1.20019617,37.8995623 3.82421196,40.5220204 L3.82421196,40.5220204 L12.0946253,44.8351474 L15.5134309,46.6182748 L18.9322364,48.4026029 L37.9642672,58.3304799 L41.3818728,60.1124066 L44.8018783,61.8967347 L51.5926893,65.4401751 C53.909893,66.6493396 56.8774978,67.2437154 59.8835027,67.2437154 L59.8835027,67.2437154 C63.3911084,67.2437154 66.9551141,66.4332029 69.6023184,64.8445985 L69.6023184,64.8445985 L75.1979275,61.4896773 L78.5039328,59.5084247 L81.8087382,57.527172 L101.067569,45.9806717 L104.373575,43.999419 L107.67838,42.0181663 L116.365194,36.809273 C118.777198,35.3647597 119.9856,33.5420072 120,31.7504745 L120,31.7504745 L120,31.6820312 C119.9832,29.8424681 118.705198,28.0401286 116.174394,26.7204942 L116.174394,26.7204942 L68.4071165,1.80474106 C66.0887127,0.594375799 63.1223079,0 60.1151031,0 Z" id="Fill-7" fill="url(#linearGradient-11)" mask="url(#mask-10)"></path>
                        <path d="M51.6020907,31.982601 L51.6020907,24.7353595 C54.1005503,25.157391 56.8992159,25.4164598 60.0451611,25.4164598 C63.1911063,25.4164598 65.9888836,25.157391 68.4882314,24.7353595 L68.4882314,31.982601 L51.6020907,31.982601 Z M60.0451611,42.2927045 C56.8992159,42.2927045 54.1005503,42.5517733 51.6020907,42.9746405 L51.6020907,35.7265633 L68.4882314,35.7265633 L68.4882314,42.9746405 C65.9888836,42.5517733 63.1911063,42.2927045 60.0451611,42.2927045 L60.0451611,42.2927045 Z M74.2010263,23.3397307 C74.2356655,23.3280308 74.2694165,23.3154952 74.3040556,23.3037953 C76.8247198,22.4697609 78.8861932,21.4794494 80.5266677,20.5000021 C81.3056045,20.0353496 81.7630189,19.2171935 81.7630189,18.3497308 C81.7630189,16.9457449 80.0994516,16.1259175 78.8666532,16.9164952 C76.9996919,18.1140618 74.3617875,19.3960346 70.787738,20.3086254 C70.6793796,20.3362037 70.5763503,20.3662891 70.4671038,20.3930317 C69.9723857,20.5142091 69.4563512,20.6261937 68.9261058,20.7314926 C68.7653446,20.7640851 68.6001425,20.7933348 68.4367168,20.8234203 C67.9970661,20.9061551 67.5449808,20.9813687 67.0813491,21.051568 C66.9401279,21.0724606 66.8024595,21.0958604 66.6585738,21.1159173 C66.0554974,21.1994879 65.4337691,21.2738657 64.7898362,21.335708 C64.6788133,21.3457364 64.5633495,21.3532578 64.4505502,21.3632863 C63.8936593,21.4125929 63.3198929,21.4518711 62.7319155,21.4827922 C62.5658252,21.4911493 62.399735,21.500342 62.2309801,21.5070277 C61.5222099,21.5362774 60.7983405,21.5563343 60.0451611,21.5563343 C59.293758,21.5563343 58.5725532,21.5362774 57.8664475,21.5070277 C57.689699,21.500342 57.5173914,21.4911493 57.3450839,21.4819565 C56.7793111,21.4518711 56.2277493,21.4142643 55.6912866,21.3666291 C55.5536182,21.3549292 55.4132852,21.3457364 55.2782814,21.3332008 C54.6556649,21.27303 54.0561412,21.2011593 53.4717165,21.1200958 C53.2789808,21.0933533 53.0942386,21.0632678 52.9050556,21.0340181 C52.5133668,20.9738473 52.1305598,20.909498 51.7566346,20.8409701 C51.5319242,20.8000205 51.3063257,20.7590709 51.0878326,20.7147785 C50.7085783,20.6378936 50.3408705,20.5559944 49.980268,20.4715881 C49.6463111,20.3930317 49.3230124,20.3111326 49.0041546,20.2267263 C45.5882017,19.3216568 43.0479975,18.0806335 41.2325508,16.9198381 C39.9953115,16.1275889 38.3264151,16.9432378 38.3264151,18.3514022 C38.3264151,19.2180293 38.7829413,20.0345139 39.5601017,20.4991664 C41.1987999,21.4769423 43.2558324,22.4655823 45.7711674,23.2987811 C45.812912,23.3129881 45.8528803,23.3280308 45.8964013,23.3422378 C46.4000012,23.5068719 46.9266939,23.6623132 47.464933,23.8144116 L47.464933,31.982601 L45.6370518,31.982601 C44.8234759,31.982601 44.1635557,32.6035304 44.1635557,33.369037 C44.1635557,34.6710668 45.2862194,35.7265633 46.6691207,35.7265633 L47.464933,35.7265633 L47.464933,43.8947527 C46.9266939,44.0468511 46.4000012,44.2031281 45.8964013,44.3669265 C45.8528803,44.3811335 45.812912,44.3961762 45.7711674,44.4112189 C43.2558324,45.2444177 41.1987999,46.232222 39.5601017,47.2108336 C38.7829413,47.6746504 38.3264151,48.491135 38.3264151,49.3585978 C38.3264151,50.7659265 39.9953115,51.5815754 41.2325508,50.7901619 C43.0479975,49.6285308 45.5882017,48.3883432 49.0041546,47.482438 C49.3230124,47.3980317 49.6463111,47.3161326 49.980268,47.2375762 C50.3408705,47.1531699 50.7085783,47.0712707 51.0878326,46.9943858 C51.3063257,46.9500934 51.5319242,46.9091438 51.7566346,46.8681942 C52.1305598,46.7996663 52.5133668,46.735317 52.9050556,46.6759819 C53.0942386,46.6467322 53.2789808,46.615811 53.4717165,46.5890684 C54.0561412,46.508005 54.6556649,46.4361343 55.2782814,46.3767992 C55.4132852,46.3634279 55.5536182,46.3542351 55.6912866,46.3425352 C56.2277493,46.2957357 56.7793111,46.2572932 57.3450839,46.2272078 C57.5173914,46.2188507 57.689699,46.209658 57.8664475,46.2021366 C58.5725532,46.1728869 59.293758,46.15283 60.0451611,46.15283 C60.7983405,46.15283 61.5222099,46.1728869 62.2309801,46.2021366 C62.399735,46.2088223 62.5658252,46.218015 62.7319155,46.2263721 C63.3198929,46.2572932 63.8936593,46.2965714 64.4505502,46.345878 C64.5633495,46.3559065 64.6788133,46.3634279 64.7898362,46.3734563 C65.4337691,46.4352986 66.0554974,46.5096764 66.6585738,46.5940827 C66.8024595,46.6141396 66.9401279,46.6367037 67.0813491,46.658432 C67.5449808,46.7277956 67.9970661,46.8038449 68.4367168,46.885744 C68.6001425,46.9158294 68.7653446,46.9459149 68.9261058,46.9776717 C69.4563512,47.0829706 69.9723857,47.1949552 70.4671038,47.3161326 C70.5763503,47.3428752 70.6793796,47.3737963 70.787738,47.4005389 C74.3617875,48.3139654 76.9996919,49.5959382 78.8666532,50.7935048 C80.0994516,51.5840825 81.7630189,50.7642551 81.7630189,49.3602692 C81.7630189,48.4919707 81.3056045,47.6738147 80.5266677,47.2091622 C78.8861932,46.2297149 76.8247198,45.2394034 74.3040556,44.405369 C74.2694165,44.3936691 74.2356655,44.3811335 74.2010263,44.3702693 C73.69565,44.2047996 73.1662928,44.0476868 72.624501,43.8947527 L72.624501,35.7265633 L74.4523822,35.7265633 C75.2659581,35.7265633 75.9258783,35.1056339 75.9258783,34.3401273 C75.9258783,33.0380975 74.8041028,31.982601 73.419425,31.982601 L72.624501,31.982601 L72.624501,23.8144116 C73.1662928,23.6623132 73.69565,23.5052004 74.2010263,23.3397307 L74.2010263,23.3397307 Z" id="Fill-4" fill="#000000" mask="url(#mask-10)"></path>
                    </g>
                </g>
            </g>
        </g>
    </g>
</svg>