<?xml version="1.0" encoding="UTF-8"?>
<svg width="200px" height="200px" viewBox="0 0 200 200" version="1.1" xmlns="http://www.w3.org/2000/svg" xmlns:xlink="http://www.w3.org/1999/xlink">
    <title>200px_wing</title>
    <defs>
        <circle id="path-1" cx="100" cy="100" r="100"></circle>
        <circle id="path-3" cx="100" cy="100" r="100"></circle>
    </defs>
    <g id="200px_wing" stroke="none" stroke-width="1" fill="none" fill-rule="evenodd">
        <g id="Group">
            <mask id="mask-2" fill="white">
                <use xlink:href="#path-1"></use>
            </mask>
            <use id="Mask" fill="#000000" xlink:href="#path-1"></use>
            <circle id="Oval" fill="#FFFFFF" mask="url(#mask-2)" cx="100" cy="6" r="63"></circle>
            <mask id="mask-4" fill="white">
                <use xlink:href="#path-3"></use>
            </mask>
            <circle stroke="#000000" stroke-width="4" cx="100" cy="100" r="98"></circle>
            <path d="M124.48,88 L141.04,116.235294 L130.06,134.764706 L119.0782,153.294118 L130.06,171.821765 L141.04,153.294118 L152.02,134.764706 L163,116.411765 L152.02,97.7058824 L146.26,88 L124.48,88 Z M80.92,88.1764706 L97.48,116.411765 L86.5,134.941176 L75.52,153.472353 L86.5,172 L97.48,153.472353 L108.46,134.941176 L119.44,116.411765 L108.64,97.8841176 L102.8782,88.1764706 L80.92,88.1764706 Z M37,88.1764706 L64.54,135.117647 L75.52,116.588235 L58.96,88.1764706 L37,88.1764706 Z" id="Fill-1" fill="#FFFFFF" mask="url(#mask-4)"></path>
            <path d="M91.8366016,32.1544041 L91.8366016,25.0109059 C94.2524282,25.4268961 96.9585318,25.6822563 100.000429,25.6822563 C103.042327,25.6822563 105.747572,25.4268961 108.164257,25.0109059 L108.164257,32.1544041 L91.8366016,32.1544041 Z M100.000429,42.3169199 C96.9585318,42.3169199 94.2524282,42.5722802 91.8366016,42.9890941 L91.8366016,35.8447722 L108.164257,35.8447722 L108.164257,42.9890941 C105.747572,42.5722802 103.042327,42.3169199 100.000429,42.3169199 L100.000429,42.3169199 Z M113.68811,23.6352553 C113.721603,23.6237229 113.754238,23.6113668 113.787731,23.5998344 C116.225028,22.777739 118.218321,21.8016037 119.804539,20.836177 C120.557714,20.378176 121,19.5717317 121,18.7166866 C121,17.3327986 119.391453,16.5247068 118.199427,17.3039676 C116.394213,18.4843911 113.843554,19.7480127 110.387711,20.6475399 C110.282936,20.6747234 110.183315,20.7043782 110.077681,20.7307379 C109.599325,20.8501807 109.100358,20.9605622 108.58765,21.0643538 C108.432205,21.0964798 108.272467,21.1253108 108.114446,21.1549655 C107.689336,21.2365161 107.252203,21.3106529 106.803906,21.3798473 C106.667355,21.4004409 106.53424,21.4235057 106.395113,21.4432755 C105.811982,21.5256498 105.210817,21.5989629 104.588181,21.6599199 C104.48083,21.6698048 104.369185,21.6772185 104.260117,21.6871034 C103.721644,21.7357042 103.166854,21.7744202 102.598323,21.8048986 C102.437726,21.8131361 102.277129,21.8221972 102.113956,21.8287872 C101.428627,21.8576182 100.728698,21.877388 100.000429,21.877388 C99.2738779,21.877388 98.5765259,21.8576182 97.8937736,21.8287872 C97.7228709,21.8221972 97.5562621,21.8131361 97.3896534,21.8040749 C96.8425928,21.7744202 96.3092731,21.7373517 95.7905531,21.6903984 C95.6574379,21.678866 95.5217462,21.6698048 95.3912074,21.6574487 C94.7891831,21.5981392 94.2094878,21.5272973 93.6443922,21.4473942 C93.4580309,21.4210345 93.2793988,21.3913797 93.0964728,21.3625487 C92.7177385,21.3032392 92.3475923,21.239811 91.9860341,21.1722641 C91.7687558,21.1319007 91.5506185,21.0915373 91.3393518,21.0478789 C90.9726408,20.9720946 90.6170944,20.8913678 90.2684184,20.8081698 C89.9455066,20.7307379 89.6329005,20.6500111 89.3245885,20.5668131 C86.0216133,19.6746996 83.5654228,18.4514414 81.8100194,17.3072626 C80.6137,16.5263543 79,17.3303274 79,18.7183341 C79,19.5725555 79.4414273,20.3773522 80.1928842,20.8353533 C81.7773847,21.7991324 83.7663838,22.7736203 86.1985278,23.5948919 C86.2388917,23.6088955 86.2775381,23.6237229 86.3196197,23.6377265 C86.8065637,23.8000039 87.3158368,23.9532201 87.8362744,24.1031413 L87.8362744,32.1544041 L86.0688478,32.1544041 C85.2821797,32.1544041 84.6440855,32.766445 84.6440855,33.5209935 C84.6440855,34.8043849 85.7296186,35.8447722 87.0667825,35.8447722 L87.8362744,35.8447722 L87.8362744,43.896035 C87.3158368,44.0459562 86.8065637,44.1999961 86.3196197,44.3614497 C86.2775381,44.3754534 86.2388917,44.3902807 86.1985278,44.4051081 C83.7663838,45.2263797 81.7773847,46.2000438 80.1928842,47.1646467 C79.4414273,47.621824 79,48.4266208 79,49.2816659 C79,50.6688489 80.6137,51.4728219 81.8100194,50.6927374 C83.5654228,49.5477348 86.0216133,48.3253004 89.3245885,47.4323632 C89.6329005,47.3491651 89.9455066,47.2684383 90.2684184,47.1910065 C90.6170944,47.1078085 90.9726408,47.0270817 91.3393518,46.9512973 C91.5506185,46.9076389 91.7687558,46.8672755 91.9860341,46.8269121 C92.3475923,46.7593652 92.7177385,46.695937 93.0964728,46.6374513 C93.2793988,46.6086203 93.4580309,46.5781418 93.6443922,46.551782 C94.2094878,46.471879 94.7891831,46.4010371 95.3912074,46.3425513 C95.5217462,46.3293714 95.6574379,46.3203103 95.7905531,46.3087779 C96.3092731,46.2626483 96.8425928,46.2247561 97.3896534,46.1951014 C97.5562621,46.1868639 97.7228709,46.1778028 97.8937736,46.1703891 C98.5765259,46.1415581 99.2738779,46.1217882 100.000429,46.1217882 C100.728698,46.1217882 101.428627,46.1415581 102.113956,46.1703891 C102.277129,46.176979 102.437726,46.1860402 102.598323,46.1942776 C103.166854,46.2247561 103.721644,46.263472 104.260117,46.3120728 C104.369185,46.3219578 104.48083,46.3293714 104.588181,46.3392564 C105.210817,46.4002133 105.811982,46.4735264 106.395113,46.5567245 C106.53424,46.5764943 106.667355,46.5987354 106.803906,46.6201527 C107.252203,46.6885233 107.689336,46.7634839 108.114446,46.8442107 C108.272467,46.8738655 108.432205,46.9035202 108.58765,46.9348225 C109.100358,47.0386141 109.599325,47.1489956 110.077681,47.2684383 C110.183315,47.2947981 110.282936,47.3252766 110.387711,47.3516364 C113.843554,48.2519873 116.394213,49.5156089 118.199427,50.6960324 C119.391453,51.4752932 121,50.6672014 121,49.2833134 C121,48.4274445 120.557714,47.6210003 119.804539,47.1629992 C118.218321,46.1975726 116.225028,45.2214373 113.787731,44.3993419 C113.754238,44.3878095 113.721603,44.3754534 113.68811,44.3647447 C113.199448,44.2016436 112.687598,44.0467799 112.163726,43.896035 L112.163726,35.8447722 L113.931152,35.8447722 C114.71782,35.8447722 115.355915,35.2327312 115.355915,34.4781827 C115.355915,33.1947913 114.27124,32.1544041 112.932359,32.1544041 L112.163726,32.1544041 L112.163726,24.1031413 C112.687598,23.9532201 113.199448,23.7983564 113.68811,23.6352553 L113.68811,23.6352553 Z" id="Fill-4" fill="#000000" mask="url(#mask-4)"></path>
        </g>
    </g>
</svg>