<?xml version="1.0" encoding="UTF-8"?>
<svg width="256px" height="256px" viewBox="0 0 256 256" version="1.1" xmlns="http://www.w3.org/2000/svg" xmlns:xlink="http://www.w3.org/1999/xlink">
    <title>logo_256_uni copy</title>
    <defs>
        <path d="M120.754717,0 C187.445706,0 241.509434,54.0637283 241.509434,120.754717 C241.509434,187.445706 187.445706,241.509434 120.754717,241.509434 C54.0637283,241.509434 0,187.445706 0,120.754717 C0,109.830356 1.45065362,99.2448143 4.16983596,89.1802154 C13.0011345,93.9180886 23.09259,96.6037736 33.8113208,96.6037736 C68.4906349,96.6037736 96.6037736,68.4906349 96.6037736,33.8113208 C96.6037736,23.09259 93.9180886,13.0011345 89.1829349,4.17317048 C99.2448143,1.45065362 109.830356,0 120.754717,0 Z" id="path-1"></path>
        <polygon id="path-3" points="-1.82158068e-15 0 100 0 100 140 -1.82158068e-15 140"></polygon>
    </defs>
    <g id="logo_256_uni-copy" stroke="none" stroke-width="1" fill="none" fill-rule="evenodd">
        <g id="icon_chain">
            <g id="Oval" transform="translate(14.000000, 14.000000)">
                <mask id="mask-2" fill="white">
                    <use xlink:href="#path-1"></use>
                </mask>
                <use id="Mask" fill="#008CFE" xlink:href="#path-1"></use>
                <g id="Group-3" mask="url(#mask-2)">
                    <g transform="translate(71.000000, 51.000000)">
                        <mask id="mask-4" fill="white">
                            <use xlink:href="#path-3"></use>
                        </mask>
                        <g id="Clip-2" stroke="none" fill="none"></g>
                        <path d="M60.0392614,50.2900791 C61.2349463,50.4679433 62.3460308,50.636268 63.4581408,50.7982331 C71.1664118,51.9211158 78.8748878,53.0428703 86.5834664,54.1645221 C86.9722178,54.2211432 87.3608666,54.2789952 87.7506435,54.3274104 C88.0447451,54.3639269 88.1742605,54.4869137 88.0888398,54.8043817 C87.4673093,57.114564 86.8499831,59.4258746 86.2404504,61.7393392 C86.145698,62.0989653 85.9151749,62.055884 85.6456843,62.0148542 C82.5382367,61.542704 79.4300712,61.0753747 76.3219057,60.6073273 C70.7138768,59.7626266 65.1050276,58.9232596 59.4991522,58.064301 C59.0625119,57.9974225 58.9363805,58.1401035 58.8629576,58.5355281 C57.9202534,63.6091693 56.9641156,68.6802461 56.0132077,73.752246 C55.8942545,74.3867717 55.9124051,74.4029785 56.5487023,74.4923208 C64.5501519,75.6160242 72.5516015,76.7408559 80.553051,77.8642515 C81.8725088,78.049501 83.1928895,78.2281857 84.5122448,78.4134352 C84.6778563,78.4368222 84.8401865,78.482673 85.0532768,78.5286263 C85.0240512,78.724441 85.0152323,78.8909194 84.973291,79.0485763 C84.3907279,81.2454138 83.7926803,83.4381483 83.226422,85.6391914 C83.1118783,86.0845697 82.9282186,86.1842721 82.4769142,86.1189322 C73.4304196,84.8116205 64.3820792,83.5170281 55.3319955,82.233924 C54.2356775,82.0785237 54.3855996,81.8821961 54.0769365,83.0595459 C53.2492887,86.2163779 52.4235894,89.3746459 51.6743892,92.5506593 C50.6984601,96.6873852 49.2625102,100.668711 47.8093326,104.65178 C45.5715765,110.785631 43.3572009,116.927585 40.6233278,122.863775 C38.0417354,128.469368 34.2825061,133.055575 28.9124863,136.219484 C25.3436847,138.322159 21.4493,139.402883 17.3604883,139.839645 C14.1854629,140.178859 11.0479693,140.012073 7.98256541,139.029615 C5.95410544,138.379395 4.09894801,137.390885 2.49820689,135.999154 C-0.330315998,133.540034 -0.786029869,131.253854 1.27965425,127.58097 C2.01213944,126.278787 3.11994253,125.763453 4.59229622,126.032506 C4.81051384,126.072305 5.03191038,126.098666 5.25310184,126.118258 C6.90337262,126.264529 8.25667054,126.908389 9.17845541,128.354997 C9.97595469,129.606508 10.8122163,130.833812 11.6461194,132.061833 C13.2798803,134.467718 15.3955042,136.050955 18.4612157,135.829907 C20.3311398,135.695021 21.9587479,134.882837 23.3342983,133.641685 C26.1880474,131.067066 28.1970237,127.891976 29.7432104,124.39952 C31.0715897,121.398807 31.8910338,118.241769 32.6586922,115.066987 C34.9476187,105.599979 37.242903,96.1345088 39.5237284,86.6655515 C39.8557719,85.2872583 40.1605383,83.8997335 40.4027516,82.5032846 C40.5239609,81.8044447 40.4806865,81.0761659 40.5022211,80.3609141 C40.5136037,79.9838504 40.2020694,79.9945181 39.9610865,79.9576939 C37.8841224,79.6399182 35.8059277,79.3305536 33.7282457,79.0173937 C27.1068585,78.0193441 20.4855738,77.0198584 13.8636739,76.0251938 C13.503943,75.9712396 13.336383,75.8607669 13.3976029,75.4316979 C13.7110857,73.2326037 13.9945225,71.0292015 14.2752931,68.8256967 C14.3278991,68.4120138 14.4510567,68.2478947 14.9252288,68.3181582 C20.9747177,69.2144539 27.027488,70.088491 33.0795405,70.9674517 C36.0717266,71.4021623 39.0654509,71.8272309 42.0551759,72.2788663 C42.4599244,72.3398981 42.5951825,72.2176293 42.679065,71.8435402 C43.7891241,66.8912447 44.9083098,61.9411032 46.0358017,56.9929106 C46.1301439,56.5791252 46.0227783,56.4179807 45.5953671,56.3509996 C36.4485827,54.9183419 27.302516,53.480453 18.1594232,52.0246135 C16.6985547,51.7919746 16.9101068,52.0942615 17.0890494,50.5640556 C17.3292118,48.5105146 17.5996253,46.4605638 17.8500423,44.4082537 C17.9432565,43.6437662 17.9358732,43.6296109 18.6718449,43.7286978 C23.0907518,44.3233221 27.5087358,44.9249213 31.9271299,45.5233408 C37.1919377,46.236336 42.4575659,46.9433818 47.7203228,47.6713529 C48.1329674,47.7284868 48.2650465,47.5705221 48.3661567,47.2290517 C48.9877898,45.1321218 49.6145502,43.0366279 50.2502321,40.9439035 C51.4121794,37.1189014 52.5275709,33.2787183 53.7604799,29.4766929 C55.5613906,23.9238238 57.9202534,18.6265703 61.328263,13.8472153 C63.5803755,10.6889473 66.0998252,7.77398594 69.1565126,5.35579275 C73.8761865,1.62218451 79.250821,-0.108144267 85.257138,0.00520052577 C87.8030445,0.053205379 90.3001391,0.279894964 92.7070959,1.18460181 C95.3943105,2.19465265 97.5299309,3.9259046 99.3144343,6.13166606 C99.7930159,6.72321304 100.05902,7.39456297 99.9888785,8.17228262 C99.8893064,9.27608652 99.8810002,10.3974307 99.6734474,11.4805145 C99.0261778,14.8573687 95.9592358,15.2869506 93.8550969,14.3243918 C92.5064136,13.7074063 91.5409442,12.6489403 90.5947534,11.5651385 C89.4259355,10.2265416 88.2849075,8.86342942 87.1006052,7.53888525 C85.5096059,5.75973102 83.5897421,4.66536397 81.1133617,4.85092119 C79.4783703,4.97339511 78.0574946,5.6517201 76.902623,6.77162819 C73.510713,10.0607812 70.701879,13.7839269 69.3086907,18.3546454 C67.3559096,24.7610366 65.566279,31.217074 63.7000466,37.6499294 C62.5384069,41.6541291 61.3638464,45.6547387 60.1964642,49.6573998 C60.1447811,49.8342382 60.1070442,50.0151796 60.0392614,50.2900791" id="Fill-1" stroke="none" fill="#FFFFFF" fill-rule="evenodd" mask="url(#mask-4)"></path>
                    </g>
                </g>
            </g>
            <g id="Group-2">
                <circle id="Oval" fill="#0072FF" cx="48.3018868" cy="48.3018868" r="48.3018868"></circle>
                <g id="Group" transform="translate(19.320755, 24.150943)" fill="#FFFFFF">
                    <path d="M14.1276538,38.6415094 L14.1276538,34.0374147 C17.3823427,33.7085508 19.8665632,32.7699184 21.5803153,31.2215175 C23.2940673,29.6731166 24.1509434,27.7890004 24.1509434,25.569169 C24.1509434,23.7878228 23.6829019,22.3558946 22.7468188,21.2733842 C21.8107357,20.1908738 20.6586335,19.3755654 19.290512,18.8274589 C17.9223906,18.2793523 16.2014379,17.7723538 14.1276538,17.3064633 L14.1276538,17.3064633 L14.1276538,9.00264954 C16.6046737,9.2767028 18.9376807,10.0166466 21.126675,11.2224809 L21.126675,11.2224809 L22.8980322,7.07057407 C21.74593,6.35803559 20.3994104,5.78252375 18.8584737,5.34403854 C17.3175369,4.90555333 15.740597,4.64520273 14.1276538,4.56298675 L14.1276538,4.56298675 L14.1276538,0 L10.5849394,0 L10.5849394,4.64520273 C7.35905312,4.94666131 4.89643456,5.87844239 3.19708374,7.44054597 C1.49773292,9.00264954 0.648057515,10.893617 0.648057515,13.1134484 C0.648057515,14.8947946 1.10889841,16.3267229 2.03058021,17.4092332 C2.95226201,18.4917436 4.09716362,19.3139034 5.46528504,19.8757126 C6.83340646,20.4375217 8.53995792,20.9513716 10.5849394,21.4172621 L10.5849394,21.4172621 L10.5849394,29.6388599 C8.94319371,29.5018333 7.35905312,29.1524154 5.83251764,28.5906062 C4.30598216,28.028797 3.00986713,27.3368125 1.94417255,26.5146527 L1.94417255,26.5146527 L0,30.6665596 C1.12329969,31.5983407 2.63543389,32.3656898 4.53640261,32.968607 C6.43737132,33.5715242 8.45355025,33.9414961 10.5849394,34.0785227 L10.5849394,34.0785227 L10.5849394,38.6415094 L14.1276538,38.6415094 Z M10.5849394,16.4431955 C9.17361416,16.0595209 8.0935183,15.5936304 7.34465184,15.0455239 C6.59578538,14.4974174 6.22135215,13.7711762 6.22135215,12.8668005 C6.22135215,11.9076141 6.5813841,11.099157 7.301448,10.4414291 C8.02151191,9.78370132 9.11600905,9.34521611 10.5849394,9.1259735 L10.5849394,9.1259735 L10.5849394,16.4431955 Z M14.1276538,29.5566439 L14.1276538,22.2805299 C15.5677816,22.6642045 16.6766801,23.1369463 17.4543491,23.6987555 C18.2320181,24.2605647 18.6208526,25.0073598 18.6208526,25.9391409 C18.6208526,26.870922 18.25362,27.6519738 17.5191548,28.2822963 C16.7846896,28.9126188 15.6541893,29.3374013 14.1276538,29.5566439 L14.1276538,29.5566439 Z" id="$1" fill-rule="nonzero"></path>
                    <polygon id="Path" points="46.6113208 48.3018868 46.6113208 0 26.469434 0 26.469434 7.89735849 37.1924528 7.89735849 37.1924528 48.3018868"></polygon>
                </g>
            </g>
        </g>
    </g>
</svg>