<?xml version="1.0" encoding="UTF-8"?>
<svg width="55px" height="55px" viewBox="0 0 55 55" version="1.1" xmlns="http://www.w3.org/2000/svg" xmlns:xlink="http://www.w3.org/1999/xlink">
    <title>08469CFE-E08D-4434-A03B-9C39191CABE0</title>
    <g id="New-Site" stroke="none" stroke-width="1" fill="none" fill-rule="evenodd">
        <g id="Assets_Dark" transform="translate(-189.000000, -2654.000000)">
            <g id="img_bubbles_onetokens" transform="translate(138.000000, 2553.000000)">
                <g id="Group-35" transform="translate(-0.405177, 15.935960)">
                    <g id="Group-31-Copy-4" transform="translate(28.645977, 81.133561)">
                        <g id="icon_chain" transform="translate(23.121430, 4.625586)">
                            <path d="M27,0 C41.9116882,0 54,12.0883118 54,27 C54,41.9116882 41.9116882,54 27,54 C12.0883118,54 0,41.9116882 0,27 C0,24.5573062 0.324377017,22.1903747 0.932405308,19.9399313 C2.90742453,20.999618 5.1635989,21.6 7.56,21.6 C15.3140779,21.6 21.6,15.3140779 21.6,7.56 C21.6,5.1635989 20.999618,2.90742453 19.941065,0.933688109 C22.1903747,0.324377017 24.5573062,0 27,0 Z" id="Combined-Shape" fill="#3B5ECA"></path>
                            <path d="M20.9997808,27.0025209 C20.9997808,28.2164528 21.0006892,29.4304185 20.9980096,30.6443504 C20.9977938,30.7379805 21.0255097,30.7932787 21.1101219,30.8405902 C21.5152207,31.0671187 21.9164362,31.3004834 22.318844,31.5317612 C23.9938645,32.4945048 25.6684081,33.4580719 27.3442234,34.4194505 C27.6102433,34.5720564 27.5097691,34.5730604 27.7842253,34.4162468 C28.7180143,33.8827354 29.6493395,33.3449937 30.5818228,32.8092262 C31.7204207,32.1550109 32.8585872,31.5000285 33.9990926,30.8490958 C34.0977388,30.7927937 34.1309728,30.7277151 34.1308252,30.6160808 C34.1277482,28.206977 34.1275665,25.7978844 34.1312459,23.3887918 C34.131427,23.26978 34.0895864,23.2060889 33.9891689,23.1502831 C33.6362659,22.954111 33.2878819,22.7499296 32.9377153,22.5489068 C31.9494256,21.981508 30.9610451,21.4142672 29.9728122,20.8467557 C29.2005721,20.4032646 28.4278779,19.9605181 27.6573977,19.5140263 C27.5843896,19.4717235 27.5297413,19.4758185 27.4606164,19.5156959 C26.5324023,20.0512491 25.6031209,20.5849748 24.6739985,21.1189825 C23.7710363,21.6379418 22.8679607,22.1566979 21.9649418,22.6755331 C21.6737381,22.8428378 21.3834994,23.0118007 21.0906493,23.1762062 C21.0226484,23.2143803 20.9888921,23.2605636 20.9992585,23.3381977 C21.0027216,23.3640531 20.9997808,23.3907434 20.9997808,23.4170501 C20.9997695,24.6121995 20.9997695,25.8073602 20.9997808,27.0025209 M16.2,33.4871649 L16.2,20.5178769 C16.2411366,20.4992412 16.2839878,20.4836286 16.3230806,20.461462 C16.5824583,20.3143949 16.8411887,20.1661998 17.0998283,20.0178694 C18.3046218,19.3268901 19.5094721,18.6360349 20.7139817,17.9445932 C21.9086926,17.2587805 23.1026654,16.5717157 24.2976375,15.8863542 C25.3550975,15.2798564 26.4138407,14.6755584 27.4706649,14.0679664 C27.5395855,14.0283371 27.5916109,14.0321049 27.6578179,14.0711701 C27.88856,14.2073286 28.1228559,14.3375084 28.3553239,14.4707678 C29.4161789,15.0789126 30.4770339,15.6870573 31.5375824,16.2957323 C32.7290459,16.9795483 33.9199418,17.6643683 35.1115643,18.3479361 C36.3293925,19.0465298 37.5473343,19.7449544 38.7669906,20.4403557 C38.8505241,20.4879943 38.8795344,20.5419839 38.879489,20.6362796 C38.8773544,24.8801735 38.8772408,29.1240674 38.88,33.3679726 C38.88,33.4699843 38.8425421,33.5213117 38.7576914,33.5696722 C37.7543232,34.1415607 36.7515795,34.7145434 35.751504,35.2920835 C34.5030419,36.0130808 33.2583267,36.7404969 32.009944,37.4616634 C30.5884423,38.2828224 29.1642951,39.0994691 27.7428729,39.9207861 C27.6573296,39.9702296 27.591293,39.9748321 27.5044894,39.9236176 C27.1632359,39.7222789 26.8180311,39.5275507 26.4737573,39.3312884 C24.6671518,38.3014131 22.8602057,37.2721244 21.0537138,36.2420461 C19.5849101,35.4045074 18.1167536,34.5658181 16.6477568,33.7286179 C16.5004802,33.6446892 16.3493545,33.5674838 16.2,33.4871649" id="Fill-1" fill="#FFFFFF"></path>
                        </g>
                    </g>
                </g>
            </g>
        </g>
    </g>
</svg>