<?xml version="1.0" encoding="UTF-8"?>
<svg width="80px" height="80px" viewBox="0 0 80 80" version="1.1" xmlns="http://www.w3.org/2000/svg" xmlns:xlink="http://www.w3.org/1999/xlink">
    <title>token_ichi</title>
    <defs>
        <polygon id="path-1" points="0.155638736 0.43856555 31.9303664 0.43856555 31.9303664 5.80382128 0.155638736 5.80382128"></polygon>
    </defs>
    <g id="Site" stroke="none" stroke-width="1" fill="none" fill-rule="evenodd">
        <g id="Assets" transform="translate(-995.000000, -161.000000)">
            <g id="token_ichi" transform="translate(995.000000, 161.000000)">
                <circle id="Oval" stroke="#0072FF" stroke-width="2" fill="#090F16" cx="40" cy="40" r="39"></circle>
                <g id="Group-23" transform="translate(14.814815, 14.333333)">
                    <path d="M37.8790123,12.1897707 C37.8790123,11.8282187 37.5580247,11.5519106 37.2005879,11.6095238 C35.5133451,11.8787772 30.8696061,12.5313345 25.4868901,12.5313345 C20.0283363,12.5313345 15.386361,11.869371 13.6979424,11.5954145 C13.3405056,11.5378013 13.0183422,11.8129336 13.0183422,12.1762493 L13.0183422,12.9945914 C13.0183422,13.2897119 13.2335097,13.5383892 13.5256908,13.576602 C13.8942975,13.6253968 14.4504409,13.6959436 15.1517931,13.7747208 L15.1517931,17.5666079 C15.1517931,17.8911229 15.4145797,18.1544974 15.7396825,18.1544974 L18.1024103,18.1544974 C18.4275132,18.1544974 18.6902998,17.8911229 18.6902998,17.5666079 L18.6902998,14.1145209 C20.7155791,14.2756026 23.0918283,14.4055262 25.4910053,14.4055262 C27.8766608,14.4055262 30.2152851,14.2650206 32.2070547,14.0898295 L32.2070547,17.5666079 C32.2070547,17.8911229 32.4698413,18.1544974 32.7949442,18.1544974 L35.157672,18.1544974 C35.4827748,18.1544974 35.7455614,17.8911229 35.7455614,17.5666079 L35.7455614,13.7106408 C36.4539683,13.6206937 37.0130511,13.5407407 37.38107,13.486067 C37.6691358,13.4431511 37.8790123,13.1962375 37.8790123,12.9052322 L37.8790123,12.1897707 Z" id="Fill-1" fill="#FFFFFF"></path>
                    <g id="Group-5" transform="translate(9.406232, 0.149383)">
                        <mask id="mask-2" fill="white">
                            <use xlink:href="#path-1"></use>
                        </mask>
                        <g id="Clip-4"></g>
                        <path d="M16.1104644,5.80382128 C23.8758965,5.80382128 29.7783069,4.38877131 31.330923,3.97724868 C31.5737213,3.91258083 31.7442093,3.70152851 31.761846,3.4510876 L31.9288066,1.07542622 C31.9587889,0.654497354 31.5513815,0.342915932 31.1516167,0.478130511 C29.3932393,1.07483833 24.7559671,2.28589065 16.0793063,2.28589065 C7.46613757,2.28589065 2.73539095,1.06778366 0.930570253,0.469312169 C0.524338624,0.334685479 0.116343327,0.65978836 0.15867137,1.08542034 L0.403821282,3.52751323 C0.42851264,3.77325103 0.600176367,3.97666079 0.838859494,4.0372134 C2.38500882,4.43109935 8.3303351,5.80382128 16.1104644,5.80382128" id="Fill-3" fill="#0072FF" mask="url(#mask-2)"></path>
                    </g>
                    <path d="M38.409465,9.69929453 L39.7416226,6.94385655 C39.9562022,6.50058789 39.5670194,6.00499706 39.0861258,6.11375661 C36.978542,6.59229865 32.1990006,7.47001764 25.5164609,7.47001764 C18.8362728,7.47001764 13.9609053,6.6005291 11.8104056,6.12962963 C11.3259847,6.02322163 10.9403292,6.52763081 11.1643151,6.96972369 L12.5487948,9.69988242 L12.6293357,9.72457378 C12.7915932,9.7739565 16.6981188,10.9326867 25.4870664,10.9326867 C34.2807172,10.9326867 38.1643151,9.7739565 38.3253968,9.72457378 L38.409465,9.69929453 Z" id="Fill-6" fill="#004CAB"></path>
                    <path d="M14.1550265,22.7046443 L36.7417402,22.7046443 C37.066843,22.7046443 37.3296296,22.4418577 37.3296296,22.1167549 L37.3296296,19.7534392 C37.3296296,19.4289242 37.066843,19.1655497 36.7417402,19.1655497 L14.1550265,19.1655497 C13.8305115,19.1655497 13.567137,19.4289242 13.567137,19.7534392 L13.567137,22.1167549 C13.567137,22.4418577 13.8305115,22.7046443 14.1550265,22.7046443" id="Fill-8" fill="#FFFFFF"></path>
                    <path d="M2.11992945,30.5911817 C1.70546737,30.5911817 1.29394474,30.6029394 0.884185773,30.6241035 C0.537918871,30.642328 0.279247501,30.9656673 0.335097002,31.3078189 C0.44973545,32.0062316 0.592592593,32.6952381 0.762492651,33.3730747 C0.821281599,33.6047031 1.01704879,33.7734274 1.25279248,33.8081129 C11.3515579,35.2866549 19.6208113,42.4730159 22.670194,51.9756614 C22.7425044,52.2014109 22.9400353,52.3648442 23.175779,52.3842446 C23.9065256,52.4447972 24.6449148,52.4747795 25.3921223,52.4712522 C25.627866,52.2055262 25.7366255,52.0826573 25.9723692,51.8163433 C24.5861258,39.8845385 14.4185773,30.5911817 2.11992945,30.5911817" id="Fill-10" fill="#0072FF"></path>
                    <g id="Group-14" transform="translate(0.000000, 23.664962)" fill="#FFFFFF">
                        <path d="M18.690535,4.59764844 L18.690535,0.639388595 C18.690535,0.314285714 18.4277484,0.0514991182 18.1026455,0.0514991182 L15.7393298,0.0514991182 C15.4148148,0.0514991182 15.1514403,0.314285714 15.1514403,0.639388595 L15.1514403,2.94332745 C12.562963,1.98683128 9.76637272,1.46302175 6.84985303,1.46302175 C4.63057025,1.46302175 2.48124633,1.7675485 0.439506173,2.33309818 C0.191416814,2.40246914 0.0162257496,2.62763081 0.00917107584,2.8851264 C0.00329218107,3.09853028 -0.000235155791,3.31252205 -0.000235155791,3.52768959 C-0.000235155791,3.64056437 0.000940623163,3.75343915 0.00270429159,3.86631393 C0.00858318636,4.20199882 0.290182246,4.46067019 0.625279248,4.44126984 C1.12028219,4.41363904 1.61881246,4.39835391 2.1196943,4.39835391 C15.7575544,4.39835391 27.0238683,14.7369782 28.4982951,27.9874192 C28.5347443,28.3184009 28.8333921,28.5606114 29.1626102,28.509465 C29.5382716,28.4506761 29.9115814,28.3842446 30.2813639,28.3101705 C30.5341564,28.2590241 30.727572,28.0462081 30.7522634,27.7887125 C30.8257496,27.0279835 30.8651382,26.2578483 30.8651382,25.4783069 C30.8651382,16.5394474 25.9533216,8.73227513 18.690535,4.59764844" id="Fill-12"></path>
                    </g>
                    <path d="M37.0155791,49.5822457 C41.388301,47.2859494 45.0079365,43.7486185 47.4006467,39.4352734 C47.6781305,38.9355673 47.133157,38.3641387 46.622281,38.6216343 C42.196649,40.8562022 38.5540858,44.4199882 36.2195767,48.7856555 C35.9503233,49.2900647 36.5088183,49.8485597 37.0155791,49.5822457" id="Fill-15" fill="#0072FF"></path>
                    <path d="M32.4358613,42.0711346 C32.8473839,43.5596708 33.1325103,45.1005291 33.2783069,46.6813639 C33.3300412,47.2463257 34.0848912,47.4038801 34.3664903,46.9118166 C37.5987066,41.2733686 42.8385655,36.9282775 49.1066432,34.8589065 C49.2894768,34.7989418 49.4340976,34.6554968 49.4899471,34.4708995 C49.7821282,33.4973545 50.017284,32.4991182 50.1912992,31.4791299 C50.2571429,31.0946502 49.9238095,30.7472075 49.5369782,30.797766 C42.4035273,31.734274 36.2483245,35.813639 32.506408,41.595532 C32.4152851,41.7366255 32.3911817,41.909465 32.4358613,42.0711346" id="Fill-17" fill="#0072FF"></path>
                    <path d="M50.519224,25.7709583 C50.503351,25.4805409 50.2717225,25.2424456 49.981893,25.2177543 C49.3111111,25.1595532 48.6338624,25.1278072 47.9489712,25.1278072 C43.4945326,25.1278072 39.3240447,26.3529688 35.7455614,28.4758377 L35.7455614,24.304174 C35.7455614,23.9790711 35.4827748,23.7162845 35.157672,23.7162845 L32.7949442,23.7162845 C32.4698413,23.7162845 32.2070547,23.9790711 32.2070547,24.304174 L32.2070547,31.0378601 C31.1229865,31.9814227 30.1194591,33.0149324 29.2188125,34.1354497 C29.0594944,34.3323927 29.0506761,34.6092887 29.1876543,34.8221046 C29.833157,35.825632 30.4134039,36.8744268 30.9213404,37.9631981 C31.1065256,38.3594356 31.6397413,38.4399765 31.9119342,38.0978248 C36.2587889,32.6410347 42.7061728,28.9302763 50.01893,28.1989418 C50.3146384,28.1695473 50.5486185,27.9296884 50.5544974,27.6322163 C50.5568489,27.4858319 50.5580247,27.3394474 50.5580247,27.192475 C50.5580247,26.7151088 50.5450911,26.2418577 50.519224,25.7709583" id="Fill-19" fill="#FFFFFF"></path>
                    <path d="M2.19517931,37.5109347 C5.29218107,44.4280423 11.4068195,49.6972957 18.8641975,51.6485009 C19.3392122,51.7731335 19.7519106,51.2987066 19.5626102,50.8454439 C16.6237507,43.8078189 10.4285714,38.4574368 2.87007643,36.6867137 C2.38918283,36.5738389 1.99294533,37.0600235 2.19517931,37.5109347" id="Fill-21" fill="#0072FF"></path>
                </g>
            </g>
        </g>
    </g>
</svg>