<?xml version="1.0" encoding="UTF-8"?>
<svg width="256px" height="256px" viewBox="0 0 256 256" version="1.1" xmlns="http://www.w3.org/2000/svg" xmlns:xlink="http://www.w3.org/1999/xlink">
    <title>logo_256_hbar</title>
    <g id="logo_256_hbar" stroke="none" stroke-width="1" fill="none" fill-rule="evenodd">
        <g id="icon_hederra">
            <path d="M135.245283,14.490566 C201.936272,14.490566 256,68.5542944 256,135.245283 C256,201.936272 201.936272,256 135.245283,256 C68.5542944,256 14.490566,201.936272 14.490566,135.245283 C14.490566,124.320923 15.9412197,113.73538 18.660402,103.670781 C27.4917005,108.408655 37.583156,111.09434 48.3018868,111.09434 C82.9812009,111.09434 111.09434,82.9812009 111.09434,48.3018868 C111.09434,37.583156 108.408655,27.4917005 103.673501,18.6637365 C113.73538,15.9412197 124.320923,14.490566 135.245283,14.490566 Z" id="Combined-Shape" fill="#222222"></path>
            <path d="M178.716981,179.522013 C178.716981,181.745046 176.914857,183.54717 174.691824,183.54717 L174.530818,183.54717 C172.307785,183.54717 170.50566,181.745046 170.50566,179.522013 L170.504774,151.345396 L104.814774,151.345396 L104.815094,179.522013 C104.815094,181.745046 103.01297,183.54717 100.789937,183.54717 L100.628931,183.54717 C98.4058979,183.54717 96.6037736,181.745046 96.6037736,179.522013 L96.6037736,90.9685535 C96.6037736,88.7455205 98.4058979,86.9433962 100.628931,86.9433962 L100.789937,86.9433962 C103.01297,86.9433962 104.815094,88.7455205 104.815094,90.9685535 L104.814774,119.144396 L170.504774,119.144396 L170.50566,90.9685535 C170.50566,88.7455205 172.307785,86.9433962 174.530818,86.9433962 L174.691824,86.9433962 C176.914857,86.9433962 178.716981,88.7455205 178.716981,90.9685535 L178.716981,179.522013 Z M170.504774,143.295396 L170.504774,127.194396 L104.814774,127.194396 L104.814774,143.295396 L170.504774,143.295396 Z" id="Combined-Shape" fill="#FFFFFF"></path>
            <g id="Group-2">
                <circle id="Oval" fill="#0072FF" cx="48.3018868" cy="48.3018868" r="48.3018868"></circle>
                <g id="Group" transform="translate(19.320755, 24.150943)" fill="#FFFFFF">
                    <path d="M14.1276538,38.6415094 L14.1276538,34.0374147 C17.3823427,33.7085508 19.8665632,32.7699184 21.5803153,31.2215175 C23.2940673,29.6731166 24.1509434,27.7890004 24.1509434,25.569169 C24.1509434,23.7878228 23.6829019,22.3558946 22.7468188,21.2733842 C21.8107357,20.1908738 20.6586335,19.3755654 19.290512,18.8274589 C17.9223906,18.2793523 16.2014379,17.7723538 14.1276538,17.3064633 L14.1276538,17.3064633 L14.1276538,9.00264954 C16.6046737,9.2767028 18.9376807,10.0166466 21.126675,11.2224809 L21.126675,11.2224809 L22.8980322,7.07057407 C21.74593,6.35803559 20.3994104,5.78252375 18.8584737,5.34403854 C17.3175369,4.90555333 15.740597,4.64520273 14.1276538,4.56298675 L14.1276538,4.56298675 L14.1276538,0 L10.5849394,0 L10.5849394,4.64520273 C7.35905312,4.94666131 4.89643456,5.87844239 3.19708374,7.44054597 C1.49773292,9.00264954 0.648057515,10.893617 0.648057515,13.1134484 C0.648057515,14.8947946 1.10889841,16.3267229 2.03058021,17.4092332 C2.95226201,18.4917436 4.09716362,19.3139034 5.46528504,19.8757126 C6.83340646,20.4375217 8.53995792,20.9513716 10.5849394,21.4172621 L10.5849394,21.4172621 L10.5849394,29.6388599 C8.94319371,29.5018333 7.35905312,29.1524154 5.83251764,28.5906062 C4.30598216,28.028797 3.00986713,27.3368125 1.94417255,26.5146527 L1.94417255,26.5146527 L0,30.6665596 C1.12329969,31.5983407 2.63543389,32.3656898 4.53640261,32.968607 C6.43737132,33.5715242 8.45355025,33.9414961 10.5849394,34.0785227 L10.5849394,34.0785227 L10.5849394,38.6415094 L14.1276538,38.6415094 Z M10.5849394,16.4431955 C9.17361416,16.0595209 8.0935183,15.5936304 7.34465184,15.0455239 C6.59578538,14.4974174 6.22135215,13.7711762 6.22135215,12.8668005 C6.22135215,11.9076141 6.5813841,11.099157 7.301448,10.4414291 C8.02151191,9.78370132 9.11600905,9.34521611 10.5849394,9.1259735 L10.5849394,9.1259735 L10.5849394,16.4431955 Z M14.1276538,29.5566439 L14.1276538,22.2805299 C15.5677816,22.6642045 16.6766801,23.1369463 17.4543491,23.6987555 C18.2320181,24.2605647 18.6208526,25.0073598 18.6208526,25.9391409 C18.6208526,26.870922 18.25362,27.6519738 17.5191548,28.2822963 C16.7846896,28.9126188 15.6541893,29.3374013 14.1276538,29.5566439 L14.1276538,29.5566439 Z" id="$1" fill-rule="nonzero"></path>
                    <polygon id="Path" points="46.6113208 48.3018868 46.6113208 0 26.469434 0 26.469434 7.89735849 37.1924528 7.89735849 37.1924528 48.3018868"></polygon>
                </g>
            </g>
        </g>
    </g>
</svg>