<?xml version="1.0" encoding="UTF-8"?>
<svg width="256px" height="256px" viewBox="0 0 256 256" version="1.1" xmlns="http://www.w3.org/2000/svg" xmlns:xlink="http://www.w3.org/1999/xlink">
    <title>logo_256_chainlink</title>
    <g id="logo_256_chainlink" stroke="none" stroke-width="1" fill="none" fill-rule="evenodd">
        <g id="icon_chain">
            <path d="M135.245283,14.490566 C201.936272,14.490566 256,68.5542944 256,135.245283 C256,201.936272 201.936272,256 135.245283,256 C68.5542944,256 14.490566,201.936272 14.490566,135.245283 C14.490566,124.320923 15.9412197,113.73538 18.660402,103.670781 C27.4917005,108.408655 37.583156,111.09434 48.3018868,111.09434 C82.9812009,111.09434 111.09434,82.9812009 111.09434,48.3018868 C111.09434,37.583156 108.408655,27.4917005 103.673501,18.6637365 C113.73538,15.9412197 124.320923,14.490566 135.245283,14.490566 Z" id="Combined-Shape" fill="#3B5ECA"></path>
            <path d="M108.409921,135.256558 C108.409921,140.685743 108.413984,146.115079 108.401999,151.544264 C108.401035,151.963016 108.524991,152.210331 108.90341,152.421927 C110.715173,153.435052 112.509568,154.478752 114.309295,155.513118 C121.800652,159.818889 129.289876,164.128344 136.784787,168.428011 C137.974533,169.110525 137.525173,169.115015 138.75265,168.413682 C142.928925,166.027608 147.094181,163.622613 151.264616,161.226448 C156.356878,158.300538 161.44721,155.371196 166.548003,152.459967 C166.989188,152.208162 167.137824,151.917104 167.137164,151.417832 C167.123402,140.643363 167.12259,129.868945 167.139045,119.094527 C167.139855,118.562258 166.952727,118.277407 166.503621,118.027821 C164.925298,117.150461 163.367187,116.237281 161.801103,115.338227 C157.381079,112.800595 152.960649,110.263669 148.540879,107.725532 C145.087115,105.742064 141.63132,103.761926 138.185427,101.765037 C137.858905,101.575843 137.614497,101.594157 137.305342,101.772504 C133.154,104.167711 128.997885,106.554744 124.842481,108.943039 C120.804076,111.26403 116.765163,113.584114 112.726504,115.90455 C111.424125,116.652803 110.126063,117.408473 108.816321,118.14376 C108.512194,118.314489 108.361222,118.521039 108.407585,118.86825 C108.423073,118.983885 108.409921,119.103255 108.409921,119.220909 C108.40987,124.566091 108.40987,129.911324 108.409921,135.256558 M86.9433962,164.258459 L86.9433962,106.254656 C87.1273756,106.171309 87.3190228,106.101484 87.4938616,106.002346 C88.6539014,105.344603 89.8110467,104.681816 90.9677857,104.018423 C96.3561004,100.92809 101.744669,97.8383114 107.131714,94.7459093 C112.474935,91.6786828 117.814856,88.6058562 123.159245,85.5406477 C127.888626,82.8281489 132.623746,80.1254882 137.350283,77.4080956 C137.658524,77.2308578 137.891202,77.2477088 138.187306,77.4224239 C139.219276,78.031379 140.267141,78.6135945 141.306829,79.2095835 C146.051394,81.9294483 150.795959,84.6493131 155.539153,87.3715491 C160.86785,90.4298456 166.194009,93.4926324 171.523418,96.5498189 C176.970029,99.6742075 182.417148,102.797839 187.871935,105.90795 C188.245531,106.121009 188.375276,106.362472 188.375073,106.784199 C188.365526,125.764578 188.365018,144.744956 188.377358,163.725384 C188.377358,164.181621 188.209832,164.411177 187.830346,164.627465 C183.342885,167.185177 178.858217,169.747783 174.385483,172.330772 C168.801864,175.555358 163.235004,178.808651 157.651741,182.033994 C151.294222,185.706543 144.92487,189.358912 138.567706,193.032167 C138.185122,193.253298 137.88978,193.273882 137.50156,193.04483 C135.975339,192.144364 134.431446,191.273462 132.891717,190.395699 C124.81186,185.789688 116.73048,181.186301 108.651131,176.579381 C102.082058,172.833576 95.515879,169.082625 88.9459426,165.338333 C88.287263,164.96297 87.6113687,164.617677 86.9433962,164.258459" id="Fill-1" fill="#FFFFFF"></path>
            <g id="Group-2">
                <circle id="Oval" fill="#0072FF" cx="48.3018868" cy="48.3018868" r="48.3018868"></circle>
                <g id="Group" transform="translate(19.320755, 24.150943)" fill="#FFFFFF">
                    <path d="M14.1276538,38.6415094 L14.1276538,34.0374147 C17.3823427,33.7085508 19.8665632,32.7699184 21.5803153,31.2215175 C23.2940673,29.6731166 24.1509434,27.7890004 24.1509434,25.569169 C24.1509434,23.7878228 23.6829019,22.3558946 22.7468188,21.2733842 C21.8107357,20.1908738 20.6586335,19.3755654 19.290512,18.8274589 C17.9223906,18.2793523 16.2014379,17.7723538 14.1276538,17.3064633 L14.1276538,17.3064633 L14.1276538,9.00264954 C16.6046737,9.2767028 18.9376807,10.0166466 21.126675,11.2224809 L21.126675,11.2224809 L22.8980322,7.07057407 C21.74593,6.35803559 20.3994104,5.78252375 18.8584737,5.34403854 C17.3175369,4.90555333 15.740597,4.64520273 14.1276538,4.56298675 L14.1276538,4.56298675 L14.1276538,0 L10.5849394,0 L10.5849394,4.64520273 C7.35905312,4.94666131 4.89643456,5.87844239 3.19708374,7.44054597 C1.49773292,9.00264954 0.648057515,10.893617 0.648057515,13.1134484 C0.648057515,14.8947946 1.10889841,16.3267229 2.03058021,17.4092332 C2.95226201,18.4917436 4.09716362,19.3139034 5.46528504,19.8757126 C6.83340646,20.4375217 8.53995792,20.9513716 10.5849394,21.4172621 L10.5849394,21.4172621 L10.5849394,29.6388599 C8.94319371,29.5018333 7.35905312,29.1524154 5.83251764,28.5906062 C4.30598216,28.028797 3.00986713,27.3368125 1.94417255,26.5146527 L1.94417255,26.5146527 L0,30.6665596 C1.12329969,31.5983407 2.63543389,32.3656898 4.53640261,32.968607 C6.43737132,33.5715242 8.45355025,33.9414961 10.5849394,34.0785227 L10.5849394,34.0785227 L10.5849394,38.6415094 L14.1276538,38.6415094 Z M10.5849394,16.4431955 C9.17361416,16.0595209 8.0935183,15.5936304 7.34465184,15.0455239 C6.59578538,14.4974174 6.22135215,13.7711762 6.22135215,12.8668005 C6.22135215,11.9076141 6.5813841,11.099157 7.301448,10.4414291 C8.02151191,9.78370132 9.11600905,9.34521611 10.5849394,9.1259735 L10.5849394,9.1259735 L10.5849394,16.4431955 Z M14.1276538,29.5566439 L14.1276538,22.2805299 C15.5677816,22.6642045 16.6766801,23.1369463 17.4543491,23.6987555 C18.2320181,24.2605647 18.6208526,25.0073598 18.6208526,25.9391409 C18.6208526,26.870922 18.25362,27.6519738 17.5191548,28.2822963 C16.7846896,28.9126188 15.6541893,29.3374013 14.1276538,29.5566439 L14.1276538,29.5566439 Z" id="$1" fill-rule="nonzero"></path>
                    <polygon id="Path" points="46.6113208 48.3018868 46.6113208 0 26.469434 0 26.469434 7.89735849 37.1924528 7.89735849 37.1924528 48.3018868"></polygon>
                </g>
            </g>
        </g>
    </g>
</svg>