<?xml version="1.0" encoding="UTF-8"?>
<svg width="64px" height="64px" viewBox="0 0 64 64" version="1.1" xmlns="http://www.w3.org/2000/svg" xmlns:xlink="http://www.w3.org/1999/xlink">
    <title>463FAFC1-B4D1-43DF-A05C-6DB1E5147AC4</title>
    <defs>
        <polygon id="path-1" points="0 0 11.9477361 0 11.9477361 17.0154039 0 17.0154039"></polygon>
        <polygon id="path-3" points="0 0 17.7263987 0 17.7263987 10.1904407 0 10.1904407"></polygon>
    </defs>
    <g id="Assets" stroke="none" stroke-width="1" fill="none" fill-rule="evenodd">
        <g id="assets_light" transform="translate(-970.000000, -362.000000)">
            <g id="icon_chain" transform="translate(970.000000, 362.000000)">
                <path d="M33.7533599,3.50671983 C50.458118,3.50671983 64,17.0486019 64,33.7533599 C64,50.458118 50.458118,64 33.7533599,64 C17.0486019,64 3.50671983,50.458118 3.50671983,33.7533599 C3.50671983,31.0168234 3.8701334,28.3651667 4.55133175,25.8440186 C6.7632133,27.0313134 9.29093527,27.7040319 11.9757791,27.7040319 C20.6622532,27.7040319 27.7040319,20.6622532 27.7040319,11.9757791 C27.7040319,9.29093527 27.0313134,6.7632133 25.8452388,4.55197544 C28.3651667,3.8701334 31.0168234,3.50671983 33.7533599,3.50671983 Z" id="Combined-Shape" fill="#000C2C"></path>
                <g id="Group-13" transform="translate(22.793679, 15.028799)">
                    <g id="Group-3" transform="translate(12.599303, 20.556594)">
                        <mask id="mask-2" fill="white">
                            <use xlink:href="#path-1"></use>
                        </mask>
                        <g id="Clip-2"></g>
                        <path d="M0.0115515664,17.0154132 C0.00797097901,16.9352066 0.00336291865,16.8807442 0.00336291865,16.8263128 C0.00305156322,13.5290446 0.0038299518,10.2317764 0,6.93453919 C-0.000124262157,6.81312953 0.04128601,6.75287391 0.143566269,6.69484883 C4.01807323,4.49702114 7.89083661,2.29618841 11.7640359,0.095975279 C11.8164059,0.0662347148 11.8704572,0.0393752678 11.9449022,0 L11.9449022,0.188078089 C11.9449022,3.48534628 11.944155,6.7825835 11.9477361,10.0798517 C11.9478913,10.2039256 11.9100927,10.2708419 11.8013674,10.3324296 C7.93439523,12.5226053 4.06935347,14.7161268 0.204031493,16.9090907 C0.14739594,16.9411857 0.0900754058,16.9720725 0.0115515664,17.0154132" id="Fill-1" fill="#FFFFFF" mask="url(#mask-2)"></path>
                    </g>
                    <path d="M8.95022365,23.6898402 C8.83162837,23.6233576 8.7329287,23.5691121 8.63516309,23.5131627 C5.80612539,21.8938509 2.97752358,20.2737027 0.146711154,18.6574269 C0.0378612961,18.5952506 -0.000155201816,18.5276527 -1.10615669e-16,18.4036408 C0.00342538562,15.1112054 0.00270926814,11.8187391 0.00270926814,8.52627277 L0.00270926814,8.33153404 C0.0691836523,8.36384592 0.113676343,8.38243377 0.155180022,8.40616427 C3.05196867,10.0634262 5.94841482,11.7212458 8.84554596,13.3778572 C8.91762474,13.4190603 8.96000028,13.4597057 8.96000028,13.5545967 C8.95698007,16.8986443 8.95747823,20.2427229 8.95722915,23.5868015 C8.95722915,23.6123598 8.95386651,23.6378871 8.95022365,23.6898402" id="Fill-4" fill="#FFFFFF"></path>
                    <path d="M12.6006668,23.6930156 L12.6006668,23.4937229 C12.6006668,20.2068019 12.6014763,16.91985 12.5977084,13.632929 C12.5975532,13.4984769 12.6339196,13.4234749 12.7555973,13.3540802 C15.6405233,11.7081569 18.5225537,10.0572458 21.4053002,8.40754287 C21.4485786,8.38275906 21.4937251,8.36132107 21.5583625,8.32773902 L21.5583625,8.50026527 C21.5583625,11.8078497 21.5577398,15.1154342 21.5610405,18.4230186 C21.5611647,18.5367763 21.5236464,18.595297 21.4260987,18.6509986 C18.5375299,20.3009804 15.6508291,21.954184 12.7636925,23.606675 C12.7198848,23.6317377 12.6744269,23.6540431 12.6006668,23.6930156" id="Fill-6" fill="#FFFFFF"></path>
                    <path d="M8.94918995,37.5634137 C8.88856905,37.5327128 8.84295548,37.5121113 8.79973935,37.4873894 C5.9075899,35.8321721 3.01590748,34.1762423 0.122574881,32.5231006 C0.034928328,32.4730374 0.000367875306,32.4201239 0.000461093153,32.3179527 C0.00323234526,28.9994944 0.00273417657,25.681098 0.003045532,22.3627016 C0.003045532,22.3225209 0.0074667791,22.2823711 0.0109850955,22.2224872 C0.0674961059,22.2499353 0.112486965,22.2686161 0.154364271,22.2925634 C3.04635804,23.9480286 5.9377291,25.604516 8.83137306,27.2571 C8.93296834,27.3150941 8.95986944,27.3794701 8.95977628,27.4892004 C8.95700497,30.7921379 8.95756541,34.0950444 8.95722292,37.3979509 C8.95722292,37.4472706 8.95255259,37.4965594 8.94918995,37.5634137" id="Fill-8" fill="#FFFFFF"></path>
                    <g id="Group-12" transform="translate(2.383865, 0.000000)">
                        <mask id="mask-4" fill="white">
                            <use xlink:href="#path-3"></use>
                        </mask>
                        <g id="Clip-11"></g>
                        <path d="M17.7263987,5.10393621 C17.3324718,5.3296547 16.9609625,5.54267149 16.5893286,5.75540947 C14.039172,7.21536137 11.488486,8.67444584 8.94029094,10.1377436 C8.82290994,10.2051555 8.73974691,10.2101742 8.61903441,10.1395404 C5.81045275,8.49634323 2.99891323,6.85810284 0.188027544,5.21874718 C0.130457925,5.18519611 0.0740714567,5.14969331 0,5.10464875 C0.0470458054,5.07236784 0.0813883093,5.04538448 0.118750961,5.02357473 C2.96531798,3.36324578 5.81225862,1.70353642 8.65810951,0.041999253 C8.73629086,-0.00366490494 8.79575975,-0.0190308631 8.8833129,0.0311873187 C11.8002151,1.70437287 14.7189232,3.37442947 17.6372576,5.04516762 C17.6592393,5.0577454 17.6796642,5.07298744 17.7263987,5.10393621" id="Fill-10" fill="#FFFFFF" mask="url(#mask-4)"></path>
                    </g>
                </g>
                <g id="Group-2">
                    <circle id="Oval" fill="#0072FF" cx="12.098656" cy="12.098656" r="12.098656"></circle>
                    <g id="Group" transform="translate(4.839462, 6.049328)" fill="#FFFFFF">
                        <path d="M3.53869456,9.67892483 L3.53869456,8.52569123 C4.35392899,8.4433174 4.9761765,8.20820877 5.40543711,7.82036533 C5.83469771,7.43252188 6.04932802,6.96058849 6.04932802,6.40456515 C6.04932802,5.95837358 5.93209298,5.5997042 5.6976229,5.32855702 C5.46315282,5.05740983 5.17457426,4.85319138 4.83188723,4.71590167 C4.48920019,4.57861196 4.05813597,4.45161897 3.53869456,4.33492271 L3.53869456,4.33492271 L3.53869456,2.25498355 C4.15913846,2.32362841 4.74351004,2.50896952 5.2918093,2.81100689 L5.2918093,2.81100689 L5.73549884,1.77103731 C5.44692028,1.59256068 5.10964409,1.44840648 4.72367027,1.33857471 C4.33769645,1.22874294 3.94270455,1.16353032 3.53869456,1.14293687 L3.53869456,1.14293687 L3.53869456,0 L2.6513155,0 L2.6513155,1.16353032 C1.84329554,1.23903967 1.22645887,1.47243218 0.800805498,1.86370787 C0.375152125,2.25498355 0.162325439,2.72863306 0.162325439,3.2846564 C0.162325439,3.73084797 0.277756862,4.08951735 0.508619708,4.36066454 C0.739482554,4.63181172 1.0262575,4.83774629 1.36894453,4.97846825 C1.71163157,5.11919021 2.13908856,5.24789931 2.6513155,5.36459557 L2.6513155,5.36459557 L2.6513155,7.42394128 C2.24009105,7.38961885 1.84329554,7.30209666 1.46092895,7.1613747 C1.07856236,7.02065274 0.753911482,6.84732448 0.486976316,6.64138991 L0.486976316,6.64138991 L0,7.68135949 C0.281364094,7.914752 0.660123451,8.1069576 1.13627807,8.25797629 C1.61243269,8.40899497 2.11744517,8.50166553 2.6513155,8.53598796 L2.6513155,8.53598796 L2.6513155,9.67892483 L3.53869456,9.67892483 Z M2.6513155,4.11869142 C2.29780677,4.02258862 2.02726437,3.90589236 1.83968831,3.76860265 C1.65211224,3.63131293 1.55832421,3.44940406 1.55832421,3.22287603 C1.55832421,2.98261903 1.64850501,2.78011671 1.82886661,2.61536905 C2.00922821,2.45062139 2.28337784,2.34078962 2.6513155,2.28587374 L2.6513155,2.28587374 L2.6513155,4.11869142 Z M3.53869456,7.40334782 L3.53869456,5.58082687 C3.89941776,5.67692967 4.17717462,5.79534205 4.37196515,5.936064 C4.56675568,6.07678596 4.66415094,6.26384319 4.66415094,6.49723571 C4.66415094,6.73062822 4.57216652,6.92626606 4.38819769,7.08414923 C4.20422886,7.24203241 3.92106115,7.34843193 3.53869456,7.40334782 L3.53869456,7.40334782 Z" id="$1" fill-rule="nonzero"></path>
                        <polygon id="Path" points="11.6752031 12.098656 11.6752031 0 6.63006351 0 6.63006351 1.97813026 9.31596515 1.97813026 9.31596515 12.098656"></polygon>
                    </g>
                </g>
            </g>
        </g>
    </g>
</svg>