<?xml version="1.0" encoding="UTF-8"?>
<svg width="256px" height="256px" viewBox="0 0 256 256" version="1.1" xmlns="http://www.w3.org/2000/svg" xmlns:xlink="http://www.w3.org/1999/xlink">
    <title>logo_256_scrt</title>
    <defs>
        <path d="M120.754717,0 C187.445706,0 241.509434,54.0637283 241.509434,120.754717 C241.509434,187.445706 187.445706,241.509434 120.754717,241.509434 C54.0637283,241.509434 0,187.445706 0,120.754717 C0,109.830356 1.45065362,99.2448143 4.16983596,89.1802154 C13.0011345,93.9180886 23.09259,96.6037736 33.8113208,96.6037736 C68.4906349,96.6037736 96.6037736,68.4906349 96.6037736,33.8113208 C96.6037736,23.09259 93.9180886,13.0011345 89.1829349,4.17317048 C99.2448143,1.45065362 109.830356,0 120.754717,0 Z" id="path-1"></path>
    </defs>
    <g id="logo_256_scrt" stroke="none" stroke-width="1" fill="none" fill-rule="evenodd">
        <g id="icon_scrt">
            <g id="Fill-1" transform="translate(14.490566, 14.490566)">
                <mask id="mask-2" fill="white">
                    <use xlink:href="#path-1"></use>
                </mask>
                <use id="Mask" fill="#000000" xlink:href="#path-1"></use>
                <path d="M168.018642,152.078674 C167.284252,163.322574 158.357543,170.498339 151.012914,174.510426 C150.335052,174.905645 149.65695,175.244817 148.979087,175.583988 C151.521431,172.306773 153.046741,168.407983 153.159799,163.944388 C153.49873,141.795039 134.176772,133.828114 115.476148,126.143832 C95.701962,118.007081 77.001338,110.266271 77.3402691,87.2697135 C77.4533263,78.285755 82.8204164,69.8666014 92.3686988,63.5380439 C93.7809517,62.5777793 95.3065023,61.7303314 96.888341,60.8826429 C94.6849282,64.0468014 93.385492,67.6064195 93.1596181,71.4486806 C91.6340675,93.5980304 111.351725,102.581748 130.447809,111.226776 C150.560926,120.493137 169.600481,129.194693 168.018642,152.078674 M132.933624,105.689378 C114.233,97.1576485 98.07472,89.8120573 99.2613395,71.956957 C99.7698564,64.9507779 104.798015,60.7695857 108.922439,58.5096443 C114.063655,55.6844169 120.956296,54.2153949 126.94496,54.6108546 C142.877366,55.6844169 155.41974,62.4081935 167.623183,76.3645041 L172.312411,72.2963691 C159.092175,57.1531984 144.798136,49.5817333 127.340419,48.3955949 C125.984455,48.2825377 124.62873,48.2825377 123.216237,48.3388257 L122.425318,48.3388257 C110.956266,48.3388257 98.4704202,52.0682702 88.8658498,58.3963466 C77.5663835,65.854995 71.2385477,76.0818611 71.0689619,87.2131849 C70.6169736,114.447703 93.1596181,123.714064 113.046621,131.907104 C131.351785,139.478328 147.227663,145.976231 146.888732,163.88786 C146.719146,175.979208 130.108878,182.477351 118.413952,182.477351 L117.961963,182.477351 L117.961963,182.533639 L117.905435,182.533639 C100.617304,182.307765 85.2499436,175.075472 72.1990528,161.062632 L67.6226415,165.300353 C81.690566,180.443283 99.0352251,188.579313 117.848906,188.805668 L118.696354,188.805668 C130.843268,188.805668 143.950688,185.584981 154.007246,180.047343 C166.323747,173.323566 173.49879,163.548688 174.233421,152.58695 C176.097662,125.352672 153.159799,114.899451 132.933624,105.689378" id="Fill-4" fill="#FFFFFF" mask="url(#mask-2)"></path>
            </g>
            <g id="Group-2">
                <circle id="Oval" fill="#0072FF" cx="48.3018868" cy="48.3018868" r="48.3018868"></circle>
                <g id="Group" transform="translate(19.320755, 24.150943)" fill="#FFFFFF">
                    <path d="M14.1276538,38.6415094 L14.1276538,34.0374147 C17.3823427,33.7085508 19.8665632,32.7699184 21.5803153,31.2215175 C23.2940673,29.6731166 24.1509434,27.7890004 24.1509434,25.569169 C24.1509434,23.7878228 23.6829019,22.3558946 22.7468188,21.2733842 C21.8107357,20.1908738 20.6586335,19.3755654 19.290512,18.8274589 C17.9223906,18.2793523 16.2014379,17.7723538 14.1276538,17.3064633 L14.1276538,17.3064633 L14.1276538,9.00264954 C16.6046737,9.2767028 18.9376807,10.0166466 21.126675,11.2224809 L21.126675,11.2224809 L22.8980322,7.07057407 C21.74593,6.35803559 20.3994104,5.78252375 18.8584737,5.34403854 C17.3175369,4.90555333 15.740597,4.64520273 14.1276538,4.56298675 L14.1276538,4.56298675 L14.1276538,0 L10.5849394,0 L10.5849394,4.64520273 C7.35905312,4.94666131 4.89643456,5.87844239 3.19708374,7.44054597 C1.49773292,9.00264954 0.648057515,10.893617 0.648057515,13.1134484 C0.648057515,14.8947946 1.10889841,16.3267229 2.03058021,17.4092332 C2.95226201,18.4917436 4.09716362,19.3139034 5.46528504,19.8757126 C6.83340646,20.4375217 8.53995792,20.9513716 10.5849394,21.4172621 L10.5849394,21.4172621 L10.5849394,29.6388599 C8.94319371,29.5018333 7.35905312,29.1524154 5.83251764,28.5906062 C4.30598216,28.028797 3.00986713,27.3368125 1.94417255,26.5146527 L1.94417255,26.5146527 L0,30.6665596 C1.12329969,31.5983407 2.63543389,32.3656898 4.53640261,32.968607 C6.43737132,33.5715242 8.45355025,33.9414961 10.5849394,34.0785227 L10.5849394,34.0785227 L10.5849394,38.6415094 L14.1276538,38.6415094 Z M10.5849394,16.4431955 C9.17361416,16.0595209 8.0935183,15.5936304 7.34465184,15.0455239 C6.59578538,14.4974174 6.22135215,13.7711762 6.22135215,12.8668005 C6.22135215,11.9076141 6.5813841,11.099157 7.301448,10.4414291 C8.02151191,9.78370132 9.11600905,9.34521611 10.5849394,9.1259735 L10.5849394,9.1259735 L10.5849394,16.4431955 Z M14.1276538,29.5566439 L14.1276538,22.2805299 C15.5677816,22.6642045 16.6766801,23.1369463 17.4543491,23.6987555 C18.2320181,24.2605647 18.6208526,25.0073598 18.6208526,25.9391409 C18.6208526,26.870922 18.25362,27.6519738 17.5191548,28.2822963 C16.7846896,28.9126188 15.6541893,29.3374013 14.1276538,29.5566439 L14.1276538,29.5566439 Z" id="$1" fill-rule="nonzero"></path>
                    <polygon id="Path" points="46.6113208 48.3018868 46.6113208 0 26.469434 0 26.469434 7.89735849 37.1924528 7.89735849 37.1924528 48.3018868"></polygon>
                </g>
            </g>
        </g>
    </g>
</svg>