<?xml version="1.0" encoding="UTF-8"?>
<svg width="256px" height="256px" viewBox="0 0 256 256" version="1.1" xmlns="http://www.w3.org/2000/svg" xmlns:xlink="http://www.w3.org/1999/xlink">
    <title>logo_256_bitcoin</title>
    <g id="logo_256_bitcoin" stroke="none" stroke-width="1" fill="none" fill-rule="evenodd">
        <g id="icon_bitcoin">
            <path d="M135.245283,14.490566 C201.936272,14.490566 256,68.5542944 256,135.245283 C256,201.936272 201.936272,256 135.245283,256 C68.5542944,256 14.490566,201.936272 14.490566,135.245283 C14.490566,124.320923 15.9412197,113.73538 18.660402,103.670781 C27.4917005,108.408655 37.583156,111.09434 48.3018868,111.09434 C82.9812009,111.09434 111.09434,82.9812009 111.09434,48.3018868 C111.09434,37.583156 108.408655,27.4917005 103.673501,18.6637365 C113.73538,15.9412197 124.320923,14.490566 135.245283,14.490566 Z" id="Combined-Shape" fill="#EA973D"></path>
            <g id="Group-27" transform="translate(91.773585, 77.283019)">
                <path d="M19.5489059,11.8338249 C19.4933865,12.0059833 19.4649026,12.0797517 19.4458812,12.1558374 C18.5633639,15.681851 17.6837434,19.2085405 16.796688,22.7333955 C16.7080501,23.0856299 16.918541,23.1349698 17.1732544,23.1949307 C18.935006,23.6098297 20.7065097,23.9893893 22.45204,24.4639596 C23.7623946,24.8200563 25.0990123,25.1741253 26.3170599,25.7536514 C28.5988594,26.8394179 29.5949259,29.2574572 28.9816054,31.7057183 C27.3477898,38.2289111 25.7270093,44.7555798 24.1019803,51.2811865 C21.9110395,60.0796129 19.7389271,68.8827706 17.5118746,77.6720243 C17.1627299,79.050354 16.2546255,80.1027123 14.7769402,80.3641846 C14.0572155,80.4915413 13.2609223,80.4399807 12.5430322,80.2768984 C10.2478115,79.755016 7.97026047,79.153958 5.69290255,78.5565691 C5.27047225,78.4457234 5.07398182,78.5199746 4.89651282,78.9341011 C3.32932057,82.5922992 1.73963088,86.2407452 0.157375972,89.8925706 C-0.0960822044,90.4776003 -0.093668317,90.4769244 0.542922067,90.6373997 C7.19578884,92.3140859 13.8486556,93.9910617 20.5008465,95.6700652 C20.6324516,95.7031838 20.7575876,95.7616964 20.8996207,95.8135467 C19.4638405,101.592297 18.0399366,107.322769 16.6045426,113.099587 C20.1623229,113.98307 23.6347482,114.845311 27.117505,115.710062 C27.1853835,115.476108 27.2299921,115.339289 27.2647521,115.200056 C28.6125703,109.811293 29.9635748,104.423304 31.2974889,99.0309689 C31.3873821,98.6674375 31.5199528,98.6122077 31.8557728,98.7008457 C34.27275,99.3394637 36.6920445,99.9694884 39.1154909,100.583002 C39.5074096,100.682261 39.5758675,100.828639 39.4771878,101.221041 C38.1306248,106.574077 36.8076214,111.933197 35.4626034,117.28662 C35.3696204,117.657007 35.4247536,117.792667 35.8067271,117.885361 C38.1095757,118.444031 40.4061482,119.028674 42.705038,119.603373 C43.7418509,119.862527 44.7794363,120.118593 45.8866381,120.393293 C47.3323636,114.603343 48.7658265,108.862153 50.1916615,103.151185 C52.0798042,103.435734 53.8826884,103.713621 55.6876003,103.978183 C58.693566,104.418572 61.7125667,104.621918 64.7540648,104.564371 C67.0412714,104.521114 69.2992217,104.293919 71.5255983,103.776575 C76.2623212,102.675746 80.1960887,100.307722 83.1442176,96.3884381 C85.0694377,93.828945 86.3795026,90.9652056 87.3326985,87.92728 C88.4127683,84.4850766 89.0615247,80.9919884 88.5491046,77.3623708 C88.1296676,74.3916478 86.9505318,71.7654349 85.030912,69.4670279 C83.2550634,67.3406828 81.0724264,65.7164262 78.6891471,64.3409932 C78.3377816,64.1381301 77.9845816,63.9384533 77.5612823,63.6968715 C77.8406174,63.6241652 78.0239763,63.578591 78.2061765,63.5287683 C82.1944978,62.4353739 85.4843366,60.3383816 87.75117,56.8107266 C89.6595894,53.8410658 90.5288785,50.5317227 90.8704919,47.0520557 C91.0977835,44.7370412 90.9051553,42.4698216 90.2105351,40.2506866 C89.0697319,36.6049442 86.7698765,33.7914136 83.8293754,31.4519705 C80.5782553,28.8654419 76.890801,27.0659371 73.0549408,25.54345 C71.9999754,25.1247854 70.9313958,24.7402049 69.854802,24.3345752 C69.9009555,24.1322915 69.9370673,23.9610986 69.979262,23.791354 C71.3125003,18.4311722 72.6411039,13.0699283 73.9899842,7.7137053 C74.0908847,7.31299999 74.0003156,7.18467774 73.6188249,7.09121202 C70.4790333,6.32205094 67.3433935,5.53579953 64.2068848,4.75360346 C63.5592871,4.59216267 63.5574525,4.58945912 63.4020947,5.21340073 C62.2990448,9.64346344 61.1978293,14.0741055 60.0940069,18.5040716 C59.8671015,19.4148796 59.6318923,20.3236599 59.3961038,21.2505927 C56.630175,20.6004846 53.9248832,19.9646666 51.1986387,19.3238278 C51.2209431,19.1927054 51.2288606,19.1157507 51.2473027,19.0414995 C52.5669267,13.7526722 53.8870334,8.4639415 55.2082988,3.17550044 C55.3660705,2.54335161 55.3702224,2.54006872 54.776213,2.39243537 C51.6359386,1.61188074 48.492671,0.843492103 45.3574175,0.0433367094 C44.9186693,-0.0686676658 44.7742223,0.0258601646 44.6696527,0.451380235 C43.5162973,5.14561878 42.3462378,9.83589854 41.1786887,14.5267576 C40.9717703,15.3577142 40.7553894,16.1863535 40.5257804,17.0846093 C33.5022371,15.3265268 26.5447378,13.5849553 19.5489059,11.8338249" id="Path" fill="#FFFFFF"></path>
                <path d="M34.83787,85.8962352 C35.0904592,84.8641535 35.33291,83.8546658 35.5847267,82.8475919 C37.182334,76.4595769 38.786507,70.0730102 40.371562,63.6819053 C40.4847251,63.2250047 40.6197096,63.1060484 41.1105012,63.2205632 C45.0271784,64.1350403 48.9657736,64.9619416 52.7911092,66.2297152 C56.2020287,67.360187 59.5161029,68.6981565 62.4214578,70.8731656 C64.3217665,72.2959108 65.8934969,73.9989566 66.6469194,76.3041225 C68.0647403,80.6419747 66.2126128,86.3796885 60.9688769,88.2768109 C58.4934837,89.1724597 55.9437427,89.3815989 53.3452412,89.3401766 C49.784178,89.283402 46.2933106,88.7068691 42.8366238,87.9124105 C40.3083182,87.3313395 37.7990339,86.6679067 35.2818322,86.0392339 C35.145013,86.0050532 35.0126354,85.9531064 34.83787,85.8962352" id="Fill-6" fill="#EA973D"></path>
                <path d="M43.1821863,52.4480403 C44.905026,45.5342806 46.6148307,38.6726608 48.3353531,31.7675911 C50.1969431,32.1983252 52.0070689,32.6021203 53.8093738,33.0375855 C57.0591421,33.8228714 60.2499151,34.78524 63.2438113,36.3095616 C65.2231024,37.3173113 67.0564982,38.5267655 68.4468008,40.2960484 C70.6296309,43.0733707 70.7981202,46.1416147 69.6247778,49.3490917 C68.5810129,52.2025962 66.4355498,53.8688544 63.5771209,54.6655338 C61.3899458,55.2749921 59.1519825,55.3357255 56.8932598,55.1969753 C52.5275031,54.928551 48.3315874,53.8170041 44.1323889,52.7095126 C43.8276598,52.6291784 43.5245721,52.5424716 43.1821863,52.4480403" id="Fill-8" fill="#EA973D"></path>
            </g>
            <g id="Group-2">
                <circle id="Oval" fill="#0072FF" cx="48.3018868" cy="48.3018868" r="48.3018868"></circle>
                <g id="Group" transform="translate(19.320755, 24.150943)" fill="#FFFFFF">
                    <path d="M14.1276538,38.6415094 L14.1276538,34.0374147 C17.3823427,33.7085508 19.8665632,32.7699184 21.5803153,31.2215175 C23.2940673,29.6731166 24.1509434,27.7890004 24.1509434,25.569169 C24.1509434,23.7878228 23.6829019,22.3558946 22.7468188,21.2733842 C21.8107357,20.1908738 20.6586335,19.3755654 19.290512,18.8274589 C17.9223906,18.2793523 16.2014379,17.7723538 14.1276538,17.3064633 L14.1276538,17.3064633 L14.1276538,9.00264954 C16.6046737,9.2767028 18.9376807,10.0166466 21.126675,11.2224809 L21.126675,11.2224809 L22.8980322,7.07057407 C21.74593,6.35803559 20.3994104,5.78252375 18.8584737,5.34403854 C17.3175369,4.90555333 15.740597,4.64520273 14.1276538,4.56298675 L14.1276538,4.56298675 L14.1276538,0 L10.5849394,0 L10.5849394,4.64520273 C7.35905312,4.94666131 4.89643456,5.87844239 3.19708374,7.44054597 C1.49773292,9.00264954 0.648057515,10.893617 0.648057515,13.1134484 C0.648057515,14.8947946 1.10889841,16.3267229 2.03058021,17.4092332 C2.95226201,18.4917436 4.09716362,19.3139034 5.46528504,19.8757126 C6.83340646,20.4375217 8.53995792,20.9513716 10.5849394,21.4172621 L10.5849394,21.4172621 L10.5849394,29.6388599 C8.94319371,29.5018333 7.35905312,29.1524154 5.83251764,28.5906062 C4.30598216,28.028797 3.00986713,27.3368125 1.94417255,26.5146527 L1.94417255,26.5146527 L0,30.6665596 C1.12329969,31.5983407 2.63543389,32.3656898 4.53640261,32.968607 C6.43737132,33.5715242 8.45355025,33.9414961 10.5849394,34.0785227 L10.5849394,34.0785227 L10.5849394,38.6415094 L14.1276538,38.6415094 Z M10.5849394,16.4431955 C9.17361416,16.0595209 8.0935183,15.5936304 7.34465184,15.0455239 C6.59578538,14.4974174 6.22135215,13.7711762 6.22135215,12.8668005 C6.22135215,11.9076141 6.5813841,11.099157 7.301448,10.4414291 C8.02151191,9.78370132 9.11600905,9.34521611 10.5849394,9.1259735 L10.5849394,9.1259735 L10.5849394,16.4431955 Z M14.1276538,29.5566439 L14.1276538,22.2805299 C15.5677816,22.6642045 16.6766801,23.1369463 17.4543491,23.6987555 C18.2320181,24.2605647 18.6208526,25.0073598 18.6208526,25.9391409 C18.6208526,26.870922 18.25362,27.6519738 17.5191548,28.2822963 C16.7846896,28.9126188 15.6541893,29.3374013 14.1276538,29.5566439 L14.1276538,29.5566439 Z" id="$1" fill-rule="nonzero"></path>
                    <polygon id="Path" points="46.6113208 48.3018868 46.6113208 0 26.469434 0 26.469434 7.89735849 37.1924528 7.89735849 37.1924528 48.3018868"></polygon>
                </g>
            </g>
        </g>
    </g>
</svg>