<?xml version="1.0" encoding="UTF-8"?>
<svg width="256px" height="256px" viewBox="0 0 256 256" version="1.1" xmlns="http://www.w3.org/2000/svg" xmlns:xlink="http://www.w3.org/1999/xlink">
    <title>logo_256_maker</title>
    <defs>
        <path d="M120.754717,0 C187.445706,0 241.509434,54.0637283 241.509434,120.754717 C241.509434,187.445706 187.445706,241.509434 120.754717,241.509434 C54.0637283,241.509434 0,187.445706 0,120.754717 C0,109.830356 1.45065362,99.2448143 4.16983596,89.1802154 C13.0011345,93.9180886 23.09259,96.6037736 33.8113208,96.6037736 C68.4906349,96.6037736 96.6037736,68.4906349 96.6037736,33.8113208 C96.6037736,23.09259 93.9180886,13.0011345 89.1829349,4.17317048 C99.2448143,1.45065362 109.830356,0 120.754717,0 Z" id="path-1"></path>
    </defs>
    <g id="logo_256_maker" stroke="none" stroke-width="1" fill="none" fill-rule="evenodd">
        <g id="icon_maker">
            <g id="Group-7" transform="translate(14.490566, 14.490566)">
                <mask id="mask-2" fill="white">
                    <use xlink:href="#path-1"></use>
                </mask>
                <use id="Mask" fill="#00BD9A" xlink:href="#path-1"></use>
                <g mask="url(#mask-2)">
                    <g transform="translate(67.622642, 86.943396)">
                        <g id="Group-3" transform="translate(59.266095, 0.015297)">
                            <path d="M43.7047717,65.7635165 C43.6464082,65.949158 43.603773,66.1417027 43.5269748,66.3194211 C43.1419639,67.2104845 42.0759669,67.7974928 41.1622719,67.6311097 C40.0740748,67.4329562 39.2978166,66.6035902 39.2337657,65.5621075 C39.219371,65.327869 39.225529,65.0922184 39.225529,64.8572347 C39.2252152,45.7402032 39.2252544,26.6232108 39.2252544,7.5061793 L39.2252544,6.91289536 C39.0087446,6.88398816 38.9100208,7.02754358 38.7939998,7.11434361 C37.099889,8.38186733 35.4089945,9.65362712 33.7177077,10.924877 C25.8876619,16.8102568 18.0576946,22.6957935 10.2277664,28.5812518 C8.46344682,29.907492 6.7039124,31.2402433 4.93017934,32.5537361 C4.63659675,32.7711088 4.5260277,32.9990324 4.52638071,33.3652164 C4.53626485,43.8769637 4.53434293,54.3887109 4.53418604,64.9004582 C4.53418604,65.0962976 4.53728464,65.2923331 4.53026376,65.4880156 C4.48711869,66.6907433 3.4841527,67.6584088 2.28417062,67.6578989 C1.10478052,67.6573498 0.103265765,66.7042359 0.0416467597,65.5215903 C0.0341944294,65.3783095 0.035978795,65.2344011 0.035978795,65.0908064 C0.035978795,54.0697512 0.0352926675,43.0487744 0.0398817341,32.0277977 C0.0399994025,31.7173101 0.0631016265,31.3987033 0.135271562,31.098296 C0.26227496,30.5694551 0.60402314,30.181424 1.03680742,29.8575614 C3.17005659,28.2613507 5.29785379,26.657923 7.42741601,25.0568094 C16.5197297,18.2207084 25.6120434,11.3845289 34.7042786,4.54834939 C36.3327304,3.32397074 37.965889,2.10567162 39.5864179,0.870898934 C40.079213,0.495379931 40.5815001,0.15782859 41.1965134,0.0238435348 L41.7452011,0.0238435348 C41.8570645,0.0569475705 41.9686141,0.0909145077 42.0807913,0.123077197 C42.7323995,0.309816905 43.2153497,0.701456476 43.5023429,1.3172543 C43.589339,1.50387634 43.6383675,1.70814863 43.7047717,1.90434104 L43.7047717,65.7635165 Z" id="Fill-1" stroke="#FFFFFF" stroke-width="5.06019766" fill="#FFFFFF"></path>
                        </g>
                        <g id="Group-6" transform="translate(0.000000, 0.093742)">
                            <path d="M4.41513703,6.77806701 C4.40944972,6.95578548 4.39882034,7.13350395 4.39882034,7.31118319 C4.39799667,15.8386494 4.39807511,24.3661157 4.39807511,32.893582 C4.39807511,43.510564 4.39811433,54.127546 4.39795744,64.744528 C4.39795744,64.966529 4.40136983,65.1887261 4.39328993,65.4104526 C4.35187066,66.5478743 3.43656761,67.4445465 2.30000879,67.4955754 C1.4021991,67.5358572 0.732352268,67.1783414 0.273053383,66.4160073 C0.108827556,66.1435657 0.0127709408,65.8467277 0.00861332495,65.524787 C0.00578928398,65.302786 0.000768766708,65.0808242 0.000768766708,64.8589017 C-7.6273241e-06,44.108084 -7.6273241e-06,23.3573055 0.000572652752,2.60652706 C0.000572652752,2.42370963 -0.0023298338,2.24069608 0.00484793699,2.05811399 C0.0482283441,0.94842278 0.937918917,0.0759902357 2.04682567,0.019195634 C2.6851766,-0.0134769511 3.21978324,0.204719436 3.71516709,0.579022533 C5.09063194,1.61838728 6.46896004,2.65394741 7.84760193,3.68911532 C11.8895106,6.72413568 15.932439,9.75790091 19.9743868,12.7928428 C25.2174542,16.7295952 30.4600902,20.666975 35.7026869,24.6042765 C37.9689013,26.3062319 40.2339783,28.0097169 42.5014086,29.7099464 C42.7961679,29.9309669 43.072767,30.1645386 43.2665668,30.4848319 C43.4595822,30.8037916 43.5854089,31.1415783 43.5910178,31.5181563 C43.593881,31.7139565 43.5976098,31.9098351 43.5976098,32.1056745 C43.5976098,43.0230247 43.5976098,53.9403748 43.5976098,64.857725 C43.5976098,65.0274812 43.5987447,65.1973159 43.5939595,65.3669937 C43.5633657,66.4518569 42.7716929,67.3541772 41.7448402,67.4765915 C40.555919,67.6183427 39.5508349,66.9658716 39.2618806,65.8582984 C39.226031,65.7209402 39.213362,65.5753844 39.2070079,65.4328488 C39.197163,65.2112008 39.2007323,64.9889252 39.2007323,64.7669242 C39.2005362,54.3327989 39.2006931,43.8986343 39.2002616,33.4644697 C39.2002224,32.6406734 39.2453678,32.8071349 38.630276,32.3444237 C35.2800221,29.8240063 31.9252183,27.3096293 28.5728856,24.7919576 C24.3642409,21.6311889 20.156459,18.4692436 15.9484027,15.3076905 C12.2728741,12.5462099 8.59762014,9.78445474 4.92185626,7.0232879 C4.78857722,6.92319134 4.65129745,6.82835063 4.51586115,6.73107811 C4.48228644,6.746728 4.44871173,6.76241712 4.41513703,6.77806701" id="Fill-4" stroke="#FFFFFF" stroke-width="5.06019766" fill="#FFFFFF"></path>
                        </g>
                    </g>
                </g>
            </g>
            <g id="Group-2">
                <circle id="Oval" fill="#0072FF" cx="48.3018868" cy="48.3018868" r="48.3018868"></circle>
                <g id="Group" transform="translate(19.320755, 24.150943)" fill="#FFFFFF">
                    <path d="M14.1276538,38.6415094 L14.1276538,34.0374147 C17.3823427,33.7085508 19.8665632,32.7699184 21.5803153,31.2215175 C23.2940673,29.6731166 24.1509434,27.7890004 24.1509434,25.569169 C24.1509434,23.7878228 23.6829019,22.3558946 22.7468188,21.2733842 C21.8107357,20.1908738 20.6586335,19.3755654 19.290512,18.8274589 C17.9223906,18.2793523 16.2014379,17.7723538 14.1276538,17.3064633 L14.1276538,17.3064633 L14.1276538,9.00264954 C16.6046737,9.2767028 18.9376807,10.0166466 21.126675,11.2224809 L21.126675,11.2224809 L22.8980322,7.07057407 C21.74593,6.35803559 20.3994104,5.78252375 18.8584737,5.34403854 C17.3175369,4.90555333 15.740597,4.64520273 14.1276538,4.56298675 L14.1276538,4.56298675 L14.1276538,0 L10.5849394,0 L10.5849394,4.64520273 C7.35905312,4.94666131 4.89643456,5.87844239 3.19708374,7.44054597 C1.49773292,9.00264954 0.648057515,10.893617 0.648057515,13.1134484 C0.648057515,14.8947946 1.10889841,16.3267229 2.03058021,17.4092332 C2.95226201,18.4917436 4.09716362,19.3139034 5.46528504,19.8757126 C6.83340646,20.4375217 8.53995792,20.9513716 10.5849394,21.4172621 L10.5849394,21.4172621 L10.5849394,29.6388599 C8.94319371,29.5018333 7.35905312,29.1524154 5.83251764,28.5906062 C4.30598216,28.028797 3.00986713,27.3368125 1.94417255,26.5146527 L1.94417255,26.5146527 L0,30.6665596 C1.12329969,31.5983407 2.63543389,32.3656898 4.53640261,32.968607 C6.43737132,33.5715242 8.45355025,33.9414961 10.5849394,34.0785227 L10.5849394,34.0785227 L10.5849394,38.6415094 L14.1276538,38.6415094 Z M10.5849394,16.4431955 C9.17361416,16.0595209 8.0935183,15.5936304 7.34465184,15.0455239 C6.59578538,14.4974174 6.22135215,13.7711762 6.22135215,12.8668005 C6.22135215,11.9076141 6.5813841,11.099157 7.301448,10.4414291 C8.02151191,9.78370132 9.11600905,9.34521611 10.5849394,9.1259735 L10.5849394,9.1259735 L10.5849394,16.4431955 Z M14.1276538,29.5566439 L14.1276538,22.2805299 C15.5677816,22.6642045 16.6766801,23.1369463 17.4543491,23.6987555 C18.2320181,24.2605647 18.6208526,25.0073598 18.6208526,25.9391409 C18.6208526,26.870922 18.25362,27.6519738 17.5191548,28.2822963 C16.7846896,28.9126188 15.6541893,29.3374013 14.1276538,29.5566439 L14.1276538,29.5566439 Z" id="$1" fill-rule="nonzero"></path>
                    <polygon id="Path" points="46.6113208 48.3018868 46.6113208 0 26.469434 0 26.469434 7.89735849 37.1924528 7.89735849 37.1924528 48.3018868"></polygon>
                </g>
            </g>
        </g>
    </g>
</svg>