<?xml version="1.0" encoding="UTF-8"?>
<svg width="256px" height="256px" viewBox="0 0 256 256" version="1.1" xmlns="http://www.w3.org/2000/svg" xmlns:xlink="http://www.w3.org/1999/xlink">
    <title>logo_256_1inch</title>
    <defs>
        <path d="M120.754717,0 C187.445706,0 241.509434,54.0637283 241.509434,120.754717 C241.509434,187.445706 187.445706,241.509434 120.754717,241.509434 C54.0637283,241.509434 0,187.445706 0,120.754717 C0,109.830356 1.45065362,99.2448143 4.16983596,89.1802154 C13.0011345,93.9180886 23.09259,96.6037736 33.8113208,96.6037736 C68.4906349,96.6037736 96.6037736,68.4906349 96.6037736,33.8113208 C96.6037736,23.09259 93.9180886,13.0011345 89.1829349,4.17317048 C99.2448143,1.45065362 109.830356,0 120.754717,0 Z" id="path-1"></path>
        <polygon id="path-3" points="0.00010140335 0.34688396 167.975725 0.34688396 167.975725 158.442734 0.00010140335 158.442734"></polygon>
    </defs>
    <g id="logo_256_1inch" stroke="none" stroke-width="1" fill="none" fill-rule="evenodd">
        <g id="icon_scrt">
            <g id="Fill-1" transform="translate(14.490566, 14.490566)">
                <mask id="mask-2" fill="white">
                    <use xlink:href="#path-1"></use>
                </mask>
                <use id="Mask" fill="#0D131D" xlink:href="#path-1"></use>
                <g id="Group-30" mask="url(#mask-2)">
                    <g transform="translate(30.000000, 34.000000)">
                        <polygon id="Fill-1" fill="#FFFFFF" points="39.972102 87.5358081 44.4084986 54.1238268 5.86719783 27.3672853 41.0812011 39.2897842 49.3992334 26.5353554 79.7610865 7.68066999 146.722789 44.5585333 150.188671 100.844998 120.381578 142.29742 96.8133273 145.902309 109.013418 123.581741 109.013418 102.092681 100.140625 85.3176098 91.129247 79.3563603 77.2652965 93.6360646 77.2652965 108.747276 66.4518968 118.867753 52.7265309 120.531613 46.6266968 123.997495 36.6448046 120.809205 32.4855772 105.836155 39.972102 95.299502"></polygon>
                        <g id="Group-29" stroke-width="1" fill="none" transform="translate(0.000000, 0.075630)">
                            <path d="M101.526724,27.0142749 C94.1792063,25.4889995 86.1383431,25.9051758 86.1383431,25.9051758 C86.1383431,25.9051758 83.5039686,38.1052663 67.1446507,41.2939792 C67.2836578,41.2939792 88.7722952,48.6414969 101.526724,27.0142749" id="Fill-2" fill="#94A6C3"></path>
                            <path d="M108.181319,137.646893 C117.054112,130.715552 123.708707,121.14899 126.758835,110.335168 C126.89742,109.919415 128.145103,109.226069 128.977033,108.671731 C130.363302,107.839801 131.74957,107.146455 132.027162,106.037356 C132.5815,102.849066 132.858669,99.522191 132.858669,96.1948936 C132.858669,94.9463649 131.610985,93.6986812 130.363302,92.4509974 C129.392787,91.6190675 128.422273,90.6489754 128.422273,89.95563 C127.036004,77.3393632 121.213339,65.5554489 111.924793,56.959825 L110.954278,57.9303395 C119.965656,66.3873789 125.788321,77.894124 127.036004,90.0942146 C127.174589,91.2033137 128.283688,92.3124129 129.392787,93.421512 C130.363302,94.253442 131.472401,95.5011257 131.472401,96.055464 C131.472401,99.2441769 131.195232,102.43289 130.640471,105.621603 C130.501886,106.176786 129.254203,106.730702 128.283688,107.285885 C126.89742,107.978385 125.649736,108.671731 125.372567,109.78083 C122.045269,121.564744 114.42016,131.824651 104.299683,138.479246 C106.101705,134.596765 111.785785,121.98092 114.835914,115.603495 L114.281575,95.0857945 L96.6745737,78.0327086 L86.6926815,79.4193994 L75.7402746,97.1645632 C75.7402746,97.1645632 80.8700166,103.680573 73.6606609,111.305683 C66.5903124,118.792208 61.0448167,120.455645 61.0448167,120.455645 L55.9150747,117.683108 C57.4399276,115.742079 60.4900558,112.831381 62.8468387,110.889929 C66.8674815,107.562632 70.8881243,107.285885 70.8881243,103.680573 C71.0267089,96.1948936 62.9854233,98.2736623 62.9854233,98.2736623 L60.0743021,101.046621 L58.8266184,111.305683 L52.7263619,118.930792 L52.033439,118.792208 L42.0515467,116.574009 C42.0515467,116.574009 48.1513807,113.385297 49.1218953,109.78083 C50.0924098,106.31537 47.1808662,94.8077803 47.0422816,94.1152799 C47.1808662,94.253442 49.9538253,96.6102248 51.201509,100.491861 C53.4197073,94.3920266 56.3308284,88.5697842 57.1627584,88.0146009 C57.9946884,87.4606851 69.2242644,81.4985906 69.2242644,81.4985906 L65.4812132,91.3418983 L68.2537498,89.8170454 L74.9083447,73.4577275 C74.9083447,73.4577275 81.4243549,70.2690146 86.2765052,70.2690146 C95.0107137,70.1304301 107.90415,59.4556149 102.081485,40.3233379 C103.744922,41.0166833 132.5815,55.4349721 137.572657,83.7167889 C141.315708,105.483018 128.977033,125.862556 108.181319,137.646893" id="Fill-4" fill="#94A6C3"></path>
                            <path d="M75.1860208,30.0644877 C78.3747337,26.321014 77.1266274,20.7755183 77.1266274,20.7755183 L67.8380806,34.5008843 C67.699496,34.5008843 71.165378,34.6394688 75.1860208,30.0644877" id="Fill-6" fill="#1B314F"></path>
                            <path d="M43.9921956,105.067518 L45.1012947,99.522022 C45.1012947,99.522022 40.5263136,107.562463 40.1105598,108.671562 C39.6948061,109.919668 40.387729,112.137866 42.1901735,111.998859 C43.9921956,111.860697 46.2103938,109.226745 46.2103938,107.285716 C46.2103938,104.790349 43.9921956,105.067518 43.9921956,105.067518" id="Fill-8" fill="#1B314F"></path>
                            <g id="Group-12">
                                <mask id="mask-4" fill="white">
                                    <use xlink:href="#path-3"></use>
                                </mask>
                                <g id="Clip-11"></g>
                                <path d="M106.795135,137.78552 C115.806513,130.853756 122.738277,121.149033 125.788405,110.196626 C125.92699,109.780872 127.174673,109.087527 128.006603,108.533611 C129.392872,107.839843 130.779562,107.008336 131.056732,105.899236 C131.61107,102.710524 131.888662,99.3832262 131.888662,96.0559288 C131.888662,94.8082451 130.640978,93.5601388 129.392872,92.3124551 C128.699949,91.4809476 127.59085,90.5104331 127.59085,89.8170877 C126.48175,79.6966108 122.461108,70.1304723 116.222689,62.2281938 C113.44973,45.5917067 102.358738,40.4623872 102.081569,40.3233801 C102.358738,40.7395564 109.567672,51.1372024 104.576937,63.3372929 C99.4471948,75.675968 86.2770122,73.7353614 85.1679131,73.873946 C84.0588139,73.873946 79.761002,79.4194417 74.3540908,89.6789256 C73.6607454,89.4013339 70.7496243,88.7079885 67.4219043,89.2627494 C69.9176943,82.3305628 73.6607454,72.4872552 74.3540908,71.6557477 C74.63126,71.378156 76.7108737,70.8238177 78.097142,70.408064 C80.7315165,69.7147186 81.9792002,69.2989648 82.394954,68.744204 C82.6721231,68.3284503 84.0583914,65.1397374 85.4450822,61.81244 C86.692766,61.81244 89.8814788,61.5352709 90.158648,61.3962638 C90.4358171,61.1190946 93.0701916,54.3259152 93.0701916,53.4939852 C93.0701916,52.8010623 87.6632805,39.3532881 85.5836668,34.2235461 C86.5541814,33.114447 87.5246959,31.7281787 88.4952105,30.2029033 C116.915612,33.2530315 139.097595,57.3760435 139.097595,86.6283748 C139.097595,109.087527 125.92699,128.635558 106.795135,137.78552 M115.529344,83.3010774 C116.915612,76.2307288 117.054196,70.1304723 116.638443,65.1397374 C122.045354,72.3486706 125.372651,81.0828791 126.343166,90.0942568 C126.48175,91.203356 127.59085,92.3124551 128.699949,93.4215542 C129.670463,94.2534842 130.779562,95.3625834 130.779562,96.0559288 C130.779562,99.2446416 130.501971,102.432932 129.947632,105.621645 C129.809048,106.037821 128.561364,106.730744 127.59085,107.285505 C126.204159,107.978428 124.956475,108.671773 124.679306,109.780872 C121.629178,120.45611 115.113167,129.883241 106.379381,136.537836 C119.272395,123.090062 125.511236,100.908079 115.529344,83.3010774 M60.2129712,109.780872 C61.4606549,107.978428 61.3220703,104.928722 61.4606549,103.958207 C61.5992395,102.988115 61.8768311,101.185248 62.9859303,100.908079 C64.0950294,100.63091 66.7289814,101.046664 66.7289814,102.988115 C66.7289814,104.790137 64.7879523,105.206314 63.401684,106.453575 C62.4311695,107.424512 60.4901403,109.503703 60.2129712,109.780872 M73.2449917,108.117435 C72.6902309,108.810358 70.333448,110.889971 68.6700106,112.414824 C67.0061506,113.9401 65.2041286,115.464952 63.8174378,116.851221 C63.2630994,117.406404 62.1540003,117.683151 60.4901403,117.683151 L58.9652875,117.683151 L58.1333575,117.683151 L57.5790192,117.683151 L56.3309129,117.683151 C58.4105266,114.910614 64.5107832,108.533611 66.5903969,107.14692 C69.0857643,105.48306 70.333448,103.819623 68.8085951,100.908079 C67.2833198,97.9965354 63.2630994,98.6898808 63.2630994,98.6898808 C63.2630994,98.6898808 65.6198823,97.7193662 67.699496,97.7193662 C65.0651215,97.0264433 61.7378241,97.7193662 60.2129712,99.2446416 C58.5495337,100.769917 58.8267029,106.176406 58.1333575,109.64271 C57.4404346,113.246754 55.0832292,115.049199 51.4787626,118.376496 C49.5377335,120.178518 48.1514652,120.733702 47.0423661,120.733702 C44.6855832,120.317525 41.9126241,119.624602 39.9720175,118.930834 C38.5853267,117.128812 36.5061355,111.16714 35.9513747,108.671773 C36.3671284,107.285505 38.0309884,104.373961 38.8629184,102.710524 C40.5263558,99.5218108 41.4968704,97.7193662 41.7740395,96.0559288 C42.3288004,93.6991459 44.1312449,79.14185 44.8241678,73.042016 C46.6266123,75.3987989 49.1219798,79.2808571 48.5676415,81.7762245 C52.5878618,76.0921443 49.6767406,70.5466486 48.2900498,68.3284503 C47.0423661,66.110252 45.3789286,61.6738554 46.7651969,56.9598672 C48.1514652,52.2463015 53.1426226,39.214281 53.1426226,39.214281 C53.1426226,39.214281 54.8060601,42.1258247 57.1628429,41.5714863 C59.5196258,41.0167255 78.5128957,12.457317 78.5128957,12.457317 C78.5128957,12.457317 83.6426377,23.686893 78.2357266,31.8667632 C72.6902309,40.046211 67.2833198,41.5714863 67.2833198,41.5714863 C67.2833198,41.5714863 74.9084292,42.9577546 81.9792002,37.8280127 C84.8903214,44.6211921 87.6632805,51.6919632 87.8018651,52.6624777 C87.3861114,53.6325698 81.8401931,66.9417595 81.2858548,67.7736895 C81.0086857,68.0508586 79.0676566,68.6056194 77.6813883,68.8827886 C75.3246054,69.576134 73.9379146,69.9918877 73.3835763,70.408064 C72.4130617,71.2395715 67.9766652,83.439662 65.8970515,89.4013339 C63.401684,90.0942568 60.9063166,91.4809476 59.103872,94.2534842 C60.0743866,93.5601388 63.1245149,93.1443851 65.3427131,92.8672159 C67.2833198,92.7286314 73.2449917,95.9173442 74.7698446,101.879016 L74.7698446,102.155763 C75.0470137,104.373961 74.3540908,106.453575 73.2449917,108.117435 M126.343166,16.8937136 C126.343166,16.8937136 133.27493,17.1713053 140.483863,18.0028127 C124.263552,5.24838388 108.874749,1.50491022 96.3974891,1.50491022 C79.2062411,1.50491022 67.5609114,8.5756813 66.867566,8.99143504 L72.2744771,0.395811076 C72.2744771,0.395811076 50.6468327,-1.68338011 43.0217233,21.1915256 C41.0811166,16.3393753 39.2786721,9.26860419 39.2786721,9.26860419 C39.2786721,9.26860419 28.0490961,19.1119119 33.3174227,35.4712298 C20.4239867,30.7576641 1.98547759,24.2416538 1.29213219,24.1030693 C0.321617625,23.9644847 0.0444484684,24.3802384 0.0444484684,24.3802384 C0.0444484684,24.3802384 -0.232720688,24.7959922 0.598786781,25.4893376 C2.12406217,26.7370213 31.237809,48.2260812 37.6152346,52.3848861 C36.2285438,57.3760435 36.2285438,59.7328263 37.6152346,62.0896092 C39.5558413,65.278322 39.6944258,66.9417595 39.4172567,69.2989648 C39.1400875,71.6557477 36.6447201,92.035286 36.0899593,94.5306534 C35.5356209,97.0264433 29.7125336,105.899236 29.9901252,108.533611 C30.2672944,111.16714 33.871761,122.396716 37.0604738,123.644823 C39.4172567,124.47633 45.240344,126.279197 49.1219798,126.279197 C50.5082481,126.279197 51.7559318,126.001606 52.3106926,125.446845 C54.6674755,123.367231 55.3608209,122.9519 57.0242583,122.9519 L57.4404346,122.9519 C58.1333575,122.9519 58.9652875,123.090062 59.935802,123.090062 C62.1540003,123.090062 65.0651215,122.674308 67.1447352,120.733702 C70.1948634,117.683151 75.46319,113.523923 77.1266274,111.583317 C79.2062411,108.948942 80.3153403,105.344476 79.761002,101.740009 C79.3448257,98.4127116 81.1472703,95.5011679 83.226884,92.5900468 C85.860836,89.1237423 90.7129863,82.8853237 90.7129863,82.8853237 C100.279125,90.0942568 106.240374,101.046664 106.240374,113.246754 C106.240374,134.874399 87.3861114,152.342393 64.0950294,152.342393 C60.4901403,152.342393 57.0242583,151.92664 53.5583763,151.09471 C64.233614,154.838183 73.2449917,156.085867 80.5925094,156.085867 C96.2589045,156.085867 104.576937,150.401787 104.576937,150.401787 C104.576937,150.401787 101.665393,154.144838 96.9518274,158.443072 L97.090412,158.443072 C123.015868,154.838183 135.631713,133.487708 135.631713,133.487708 C135.631713,133.487708 134.661198,140.419894 133.413514,145.133883 C167.934172,119.208426 162.111507,86.7669594 161.972923,85.6578603 C162.250092,86.0740365 165.715974,90.2328414 167.518419,92.4510397 C173.063914,35.3326452 126.343166,16.8937136 126.343166,16.8937136" id="Fill-10" fill="#1B314F" mask="url(#mask-4)"></path>
                            </g>
                            <path d="M69.9177788,62.9215392 C72.5517308,59.8714109 71.1654625,54.1873306 66.3133122,53.2168161 C67.5609959,50.3052724 69.363018,44.4826075 69.363018,44.4826075 C69.363018,44.4826075 55.2223208,66.6645903 53.9742146,67.080344 C52.7265309,67.4965203 51.4788471,62.6439475 51.4788471,62.6439475 C48.8448951,72.7648468 55.9152437,74.1511151 56.7471737,70.9624023 C60.6288094,69.9918877 67.2834043,65.8326603 69.9177788,62.9215392" id="Fill-13" fill="#1B314F"></path>
                            <path d="M57.8561461,68.3286193 L65.0650792,55.9899442 C65.0650792,55.9899442 69.2243066,58.0695579 67.1446929,61.3968553 C64.5107409,65.278491 57.8561461,68.3286193 57.8561461,68.3286193" id="Fill-15" fill="#FFD923"></path>
                            <path d="M146.999789,125.446802 C144.920175,128.219762 142.563392,131.130883 139.790856,133.904264 C157.675026,99.522191 140.622786,68.0508164 139.92944,66.8031326 C141.177124,68.0508164 142.424808,69.4375072 143.533907,70.6851909 C157.259273,85.9354097 158.92271,108.810315 146.999789,125.446802" id="Fill-17" fill="#D82122"></path>
                            <path d="M163.636276,81.2214637 C157.397857,64.446392 148.525064,50.1666878 128.977033,37.2736744 C110.122348,24.7959922 89.8813943,25.7665067 88.7722952,25.9050913 L88.495126,25.9050913 C89.1880489,25.6279221 89.8813943,25.4893376 90.5743172,25.350753 C94.8721292,23.9644847 100.417625,22.8553855 105.963121,22.1620401 C120.659001,20.0824264 135.493044,25.0735838 145.61352,35.748399 C145.752105,35.8869836 145.752105,35.8869836 145.89069,36.0255681 C157.397857,48.2256587 163.359107,63.4758775 163.636276,81.2214637" id="Fill-19" fill="#D82122"></path>
                            <path d="M124.540721,12.5963664 C103.883591,8.71473065 90.5744017,10.6553373 81.0086857,14.2602263 C80.7315165,13.1511272 79.761002,10.9329289 78.929072,9.13048438 C76.0175283,12.5963664 72.9678225,16.7555938 71.0267934,19.3895458 C65.7584669,22.9944349 63.5402686,26.4603169 63.5402686,26.4603169 C66.5903969,16.0622484 75.46319,8.2985544 86.2770122,6.35794779 C89.326718,5.80318696 92.6540154,5.52601781 96.2589045,5.52601781 C105.82462,5.66460238 115.390759,8.02138524 124.540721,12.5963664" id="Fill-21" fill="#D82122"></path>
                            <path d="M48.1515075,39.2147457 C31.9311966,38.6604074 37.3381077,19.805722 37.6152769,18.6966229 C37.6152769,18.8352075 38.724376,33.5306655 48.1515075,39.2147457" id="Fill-23" fill="#D82122"></path>
                            <path d="M64.0950294,5.24838388 C51.6173472,12.7349087 54.1131372,30.6190795 54.1131372,30.6190795 C42.1902158,12.4577396 63.1245149,5.66413762 64.0950294,5.24838388" id="Fill-25" fill="#D82122"></path>
                            <path d="M43.5764841,44.2054806 C44.4084141,44.898826 45.240344,46.1465097 44.2698295,47.9485318 C43.7150687,48.9190463 42.8835612,48.7804617 41.635455,48.2261234 C39.9720175,47.3941935 29.9901252,41.5715286 20.9787475,35.6098566 C31.237809,39.2143232 41.635455,43.0963815 43.2993149,43.9283115 L43.5764841,44.2054806 Z" id="Fill-27" fill="#FFFFFF"></path>
                        </g>
                    </g>
                </g>
            </g>
            <g id="Group-2">
                <circle id="Oval" fill="#0072FF" cx="48.3018868" cy="48.3018868" r="48.3018868"></circle>
                <g id="Group" transform="translate(19.320755, 24.150943)" fill="#FFFFFF">
                    <path d="M14.1276538,38.6415094 L14.1276538,34.0374147 C17.3823427,33.7085508 19.8665632,32.7699184 21.5803153,31.2215175 C23.2940673,29.6731166 24.1509434,27.7890004 24.1509434,25.569169 C24.1509434,23.7878228 23.6829019,22.3558946 22.7468188,21.2733842 C21.8107357,20.1908738 20.6586335,19.3755654 19.290512,18.8274589 C17.9223906,18.2793523 16.2014379,17.7723538 14.1276538,17.3064633 L14.1276538,17.3064633 L14.1276538,9.00264954 C16.6046737,9.2767028 18.9376807,10.0166466 21.126675,11.2224809 L21.126675,11.2224809 L22.8980322,7.07057407 C21.74593,6.35803559 20.3994104,5.78252375 18.8584737,5.34403854 C17.3175369,4.90555333 15.740597,4.64520273 14.1276538,4.56298675 L14.1276538,4.56298675 L14.1276538,0 L10.5849394,0 L10.5849394,4.64520273 C7.35905312,4.94666131 4.89643456,5.87844239 3.19708374,7.44054597 C1.49773292,9.00264954 0.648057515,10.893617 0.648057515,13.1134484 C0.648057515,14.8947946 1.10889841,16.3267229 2.03058021,17.4092332 C2.95226201,18.4917436 4.09716362,19.3139034 5.46528504,19.8757126 C6.83340646,20.4375217 8.53995792,20.9513716 10.5849394,21.4172621 L10.5849394,21.4172621 L10.5849394,29.6388599 C8.94319371,29.5018333 7.35905312,29.1524154 5.83251764,28.5906062 C4.30598216,28.028797 3.00986713,27.3368125 1.94417255,26.5146527 L1.94417255,26.5146527 L0,30.6665596 C1.12329969,31.5983407 2.63543389,32.3656898 4.53640261,32.968607 C6.43737132,33.5715242 8.45355025,33.9414961 10.5849394,34.0785227 L10.5849394,34.0785227 L10.5849394,38.6415094 L14.1276538,38.6415094 Z M10.5849394,16.4431955 C9.17361416,16.0595209 8.0935183,15.5936304 7.34465184,15.0455239 C6.59578538,14.4974174 6.22135215,13.7711762 6.22135215,12.8668005 C6.22135215,11.9076141 6.5813841,11.099157 7.301448,10.4414291 C8.02151191,9.78370132 9.11600905,9.34521611 10.5849394,9.1259735 L10.5849394,9.1259735 L10.5849394,16.4431955 Z M14.1276538,29.5566439 L14.1276538,22.2805299 C15.5677816,22.6642045 16.6766801,23.1369463 17.4543491,23.6987555 C18.2320181,24.2605647 18.6208526,25.0073598 18.6208526,25.9391409 C18.6208526,26.870922 18.25362,27.6519738 17.5191548,28.2822963 C16.7846896,28.9126188 15.6541893,29.3374013 14.1276538,29.5566439 L14.1276538,29.5566439 Z" id="$1" fill-rule="nonzero"></path>
                    <polygon id="Path" points="46.6113208 48.3018868 46.6113208 0 26.469434 0 26.469434 7.89735849 37.1924528 7.89735849 37.1924528 48.3018868"></polygon>
                </g>
            </g>
        </g>
    </g>
</svg>