<?xml version="1.0" encoding="UTF-8"?>
<svg width="256px" height="256px" viewBox="0 0 256 256" version="1.1" xmlns="http://www.w3.org/2000/svg" xmlns:xlink="http://www.w3.org/1999/xlink">
    <title>logo_256_dai</title>
    <defs>
        <path d="M120.754717,0 C187.445706,0 241.509434,54.0637283 241.509434,120.754717 C241.509434,187.445706 187.445706,241.509434 120.754717,241.509434 C54.0637283,241.509434 0,187.445706 0,120.754717 C0,109.830356 1.45065362,99.2448143 4.16983596,89.1802154 C13.0011345,93.9180886 23.09259,96.6037736 33.8113208,96.6037736 C68.4906349,96.6037736 96.6037736,68.4906349 96.6037736,33.8113208 C96.6037736,23.09259 93.9180886,13.0011345 89.1829349,4.17317048 C99.2448143,1.45065362 109.830356,0 120.754717,0 Z" id="path-1"></path>
    </defs>
    <g id="logo_256_dai" stroke="none" stroke-width="1" fill="none" fill-rule="evenodd">
        <g id="icon_dai">
            <g id="Fill-4" transform="translate(14.490566, 14.490566)">
                <mask id="mask-2" fill="white">
                    <use xlink:href="#path-1"></use>
                </mask>
                <use id="Mask" fill="#F6AC38" xlink:href="#path-1"></use>
                <path d="M122.872883,128.191282 C134.883437,128.191282 146.894088,128.191379 158.904642,128.191089 C159.162187,128.191089 159.420119,128.194953 159.677279,128.183747 C160.288491,128.157085 160.486239,127.979141 160.538598,127.378168 C160.853816,123.761903 160.856231,120.142449 160.601487,116.523865 C160.497155,115.040224 160.380747,114.966612 158.862522,114.966612 C134.88962,114.966516 110.916621,114.966612 86.9438146,114.966709 C86.750607,114.966709 86.5571097,114.962458 86.3642885,114.970959 C85.5363942,115.007765 85.3125633,115.232273 85.2817466,116.052342 C85.2757569,116.213091 85.2757569,116.374226 85.2757569,116.535264 C85.2757569,119.900167 85.2757569,123.26507 85.27653,126.629972 C85.2771097,128.190606 85.279235,128.191186 86.8410282,128.191186 C98.8516787,128.191379 110.862233,128.191282 122.872883,128.191282 M119.79045,140.825993 C108.843697,140.825993 97.8969436,140.825897 86.950287,140.826476 C86.6283066,140.826476 86.3063263,140.831017 85.9844425,140.838069 C85.5565844,140.847536 85.3325602,141.076197 85.3082161,141.496617 C85.2896682,141.817921 85.2773995,142.139998 85.2773029,142.461592 C85.2759921,149.190624 85.2759921,155.919657 85.2759921,162.648593 C85.2759921,162.825764 85.2759921,163.002839 85.2808772,163.179913 C85.3042553,163.947141 85.4319655,164.080454 86.1849919,164.10702 C86.5227187,164.118902 86.8609285,164.118999 87.1989451,164.119095 C97.0509844,164.119675 106.90312,164.119095 116.755159,164.120254 C117.65541,164.120351 118.56194,164.199953 119.454752,164.121124 C121.16773,163.969649 122.873366,163.734419 124.581321,163.52788 C130.071024,162.864116 135.244446,161.123702 140.126221,158.610651 C145.99461,155.589658 150.686269,151.184623 154.320406,145.67531 C155.10763,144.48206 155.802405,143.224279 156.481722,141.964855 C156.941846,141.111844 156.725937,140.800683 155.765406,140.750353 C155.668995,140.745233 155.572198,140.740789 155.475787,140.743494 C154.495162,140.77006 153.514538,140.821839 152.534009,140.822322 C141.619522,140.828119 130.704938,140.825993 119.79045,140.825993 M120.995969,102.847345 C132.505632,102.847345 144.015199,102.848152 155.524959,102.842452 C155.808587,102.842259 156.095501,102.78449 156.373623,102.721311 C156.45931,102.701894 156.592624,102.561625 156.581995,102.498929 C156.502975,102.064985 156.473415,101.595684 156.279531,101.21323 C153.852651,96.4280583 150.593433,92.2951556 146.41986,88.9164386 C138.54559,82.5418454 129.550909,79.2201247 119.395534,79.1936552 C108.529735,79.1652537 97.6639353,79.1871828 86.7981361,79.1872794 C85.3173934,79.1872794 85.2766266,79.2260175 85.2758169,80.7013503 C85.2758169,87.5910349 85.2758169,94.4807194 85.2758169,101.370404 C85.2758169,102.842742 85.2810704,102.847089 86.7566931,102.847345 C98.1697527,102.847345 109.582909,102.847345 120.995969,102.847345 M97.5145859,67.6531752 C104.517876,67.6530786 111.52223,67.5741533 118.524168,67.6704673 C130.818157,67.8395239 142.157122,71.1863617 152.239851,78.3334952 C160.323751,84.0637413 166.220252,91.5703375 169.916602,100.78228 C169.994369,100.976164 170.062474,101.174202 170.130097,101.372046 C170.384841,102.118697 170.901961,102.48695 171.69189,102.486081 C175.362544,102.481927 179.033197,102.477773 182.703851,102.475454 C184.044518,102.474585 184.144793,102.557954 184.148947,103.88471 C184.159283,107.152816 184.157061,110.421115 184.149526,113.689221 C184.147111,114.674289 183.871211,114.953957 182.878414,114.958497 C180.189834,114.970766 177.501255,114.965067 174.812578,114.966709 C174.619467,114.966805 174.425873,114.961589 174.233149,114.971925 C173.637104,115.003998 173.477707,115.144267 173.494227,115.735482 C173.518957,116.619793 173.627926,117.503137 173.624642,118.386579 C173.615078,121.007922 173.569095,123.629073 173.534414,126.250319 C173.529294,126.636348 173.493067,127.022377 173.497415,127.408309 C173.504563,128.048405 173.613339,128.151192 174.268892,128.181429 C174.526052,128.193311 174.783984,128.190799 175.041529,128.190896 C177.907184,128.191959 180.772935,128.190123 183.638686,128.194084 C184.221786,128.194857 184.363697,128.377438 184.331238,128.955611 C184.262939,130.17166 184.177831,131.388288 184.161795,132.605399 C184.134166,134.697933 184.154646,136.791144 184.153294,138.884161 C184.153101,139.14161 184.155999,139.400122 184.134456,139.656411 C184.082773,140.272937 183.814215,140.550383 183.196627,140.62129 C182.973762,140.64689 182.746646,140.640224 182.521366,140.640031 C178.786375,140.637809 175.051286,140.633945 171.316295,140.631047 C170.599784,140.630467 170.096575,140.947811 169.850139,141.594766 C166.506586,150.374793 160.951772,157.484058 153.576171,163.238842 C147.72488,167.804433 141.128002,170.819726 134.021442,172.81073 C129.726438,174.014027 125.347486,174.70484 120.899268,174.941713 C118.810984,175.053097 116.717387,175.110479 114.626206,175.112798 C101.08651,175.127482 87.5467187,175.120623 74.0070236,175.119464 C72.991235,175.119464 73.0863897,175.178585 73.0861965,174.212934 C73.0841678,163.490591 73.0850372,152.768248 73.0847474,142.046002 C73.0846508,140.759337 73.0732516,140.748131 71.8004002,140.748034 C67.5661602,140.747744 63.3320168,140.748227 59.0978734,140.747551 C58.139564,140.747358 57.9753376,140.597139 57.9734055,139.626851 C57.9665466,136.036668 57.9767866,132.446485 57.96228,128.856303 C57.9604606,128.392605 58.1152199,128.250597 58.5753436,128.252046 C63.0348636,128.265764 67.4944802,128.260741 71.9540968,128.259002 C72.931727,128.258712 73.0760531,128.135156 73.078758,127.149024 C73.088515,123.3979 73.0860033,119.646679 73.0799172,115.895457 C73.078758,115.170446 72.9385859,115.045054 72.1785074,115.044378 C67.8638931,115.040514 63.5491821,115.04177 59.2345678,115.040031 C59.0255172,115.039934 58.8152108,115.040224 58.6078025,115.018971 C58.2826342,114.985643 58.0689466,114.812819 58.0289527,114.474416 C58.0006478,114.235322 57.9726327,113.994295 57.9723429,113.754138 C57.9686719,110.373199 57.9684787,106.992261 57.9705074,103.611418 C57.971087,102.664411 58.0807323,102.55438 59.0232953,102.553993 C63.2575353,102.552158 67.4916787,102.553124 71.7258221,102.552641 C71.9190297,102.552641 72.1122372,102.550516 72.3052516,102.545492 C72.7595791,102.53361 73.03461,102.332674 73.0461059,101.846854 C73.0545104,101.493091 73.0832017,101.139617 73.0832983,100.785951 C73.085327,90.2407798 73.0847474,79.6956084 73.0852304,69.1503405 C73.085327,67.7120069 73.136527,67.6550107 74.5727353,67.6545277 C82.2199866,67.6521126 89.867238,67.6533684 97.5145859,67.6531752" stroke="#FFFFFF" stroke-width="4.39108062" fill="#FFFFFF" mask="url(#mask-2)"></path>
            </g>
            <g id="Group-2">
                <circle id="Oval" fill="#0072FF" cx="48.3018868" cy="48.3018868" r="48.3018868"></circle>
                <g id="Group" transform="translate(19.320755, 24.150943)" fill="#FFFFFF">
                    <path d="M14.1276538,38.6415094 L14.1276538,34.0374147 C17.3823427,33.7085508 19.8665632,32.7699184 21.5803153,31.2215175 C23.2940673,29.6731166 24.1509434,27.7890004 24.1509434,25.569169 C24.1509434,23.7878228 23.6829019,22.3558946 22.7468188,21.2733842 C21.8107357,20.1908738 20.6586335,19.3755654 19.290512,18.8274589 C17.9223906,18.2793523 16.2014379,17.7723538 14.1276538,17.3064633 L14.1276538,17.3064633 L14.1276538,9.00264954 C16.6046737,9.2767028 18.9376807,10.0166466 21.126675,11.2224809 L21.126675,11.2224809 L22.8980322,7.07057407 C21.74593,6.35803559 20.3994104,5.78252375 18.8584737,5.34403854 C17.3175369,4.90555333 15.740597,4.64520273 14.1276538,4.56298675 L14.1276538,4.56298675 L14.1276538,0 L10.5849394,0 L10.5849394,4.64520273 C7.35905312,4.94666131 4.89643456,5.87844239 3.19708374,7.44054597 C1.49773292,9.00264954 0.648057515,10.893617 0.648057515,13.1134484 C0.648057515,14.8947946 1.10889841,16.3267229 2.03058021,17.4092332 C2.95226201,18.4917436 4.09716362,19.3139034 5.46528504,19.8757126 C6.83340646,20.4375217 8.53995792,20.9513716 10.5849394,21.4172621 L10.5849394,21.4172621 L10.5849394,29.6388599 C8.94319371,29.5018333 7.35905312,29.1524154 5.83251764,28.5906062 C4.30598216,28.028797 3.00986713,27.3368125 1.94417255,26.5146527 L1.94417255,26.5146527 L0,30.6665596 C1.12329969,31.5983407 2.63543389,32.3656898 4.53640261,32.968607 C6.43737132,33.5715242 8.45355025,33.9414961 10.5849394,34.0785227 L10.5849394,34.0785227 L10.5849394,38.6415094 L14.1276538,38.6415094 Z M10.5849394,16.4431955 C9.17361416,16.0595209 8.0935183,15.5936304 7.34465184,15.0455239 C6.59578538,14.4974174 6.22135215,13.7711762 6.22135215,12.8668005 C6.22135215,11.9076141 6.5813841,11.099157 7.301448,10.4414291 C8.02151191,9.78370132 9.11600905,9.34521611 10.5849394,9.1259735 L10.5849394,9.1259735 L10.5849394,16.4431955 Z M14.1276538,29.5566439 L14.1276538,22.2805299 C15.5677816,22.6642045 16.6766801,23.1369463 17.4543491,23.6987555 C18.2320181,24.2605647 18.6208526,25.0073598 18.6208526,25.9391409 C18.6208526,26.870922 18.25362,27.6519738 17.5191548,28.2822963 C16.7846896,28.9126188 15.6541893,29.3374013 14.1276538,29.5566439 L14.1276538,29.5566439 Z" id="$1" fill-rule="nonzero"></path>
                    <polygon id="Path" points="46.6113208 48.3018868 46.6113208 0 26.469434 0 26.469434 7.89735849 37.1924528 7.89735849 37.1924528 48.3018868"></polygon>
                </g>
            </g>
        </g>
    </g>
</svg>