<?xml version="1.0" encoding="UTF-8"?>
<svg width="256px" height="256px" viewBox="0 0 256 256" version="1.1" xmlns="http://www.w3.org/2000/svg" xmlns:xlink="http://www.w3.org/1999/xlink">
    <title>logo_256_general</title>
    <defs>
        <linearGradient x1="14.4113173%" y1="12.6221874%" x2="100%" y2="100%" id="linearGradient-1">
            <stop stop-color="#02A39D" offset="0%"></stop>
            <stop stop-color="#0068E9" offset="100%"></stop>
        </linearGradient>
        <path d="M120.754717,0 C187.445706,0 241.509434,54.0637283 241.509434,120.754717 C241.509434,187.445706 187.445706,241.509434 120.754717,241.509434 C54.0637283,241.509434 2.27373675e-13,187.445706 2.27373675e-13,120.754717 C2.27373675e-13,109.830356 1.45065362,99.2448143 4.16983596,89.1802154 C13.0011345,93.9180886 23.09259,96.6037736 33.8113208,96.6037736 C68.4906349,96.6037736 96.6037736,68.4906349 96.6037736,33.8113208 C96.6037736,23.09259 93.9180886,13.0011345 89.1829349,4.17317048 C99.2448143,1.45065362 109.830356,0 120.754717,0 Z" id="path-2"></path>
    </defs>
    <g id="logo_256_general" stroke="none" stroke-width="1" fill="none" fill-rule="evenodd">
        <g id="icon_chain">
            <g id="Oval" transform="translate(14.000000, 14.000000)">
                <mask id="mask-3" fill="white">
                    <use xlink:href="#path-2"></use>
                </mask>
                <use id="Mask" fill="url(#linearGradient-1)" xlink:href="#path-2"></use>
                <circle stroke="#000000" stroke-width="16" opacity="0.2" stroke-linecap="round" mask="url(#mask-3)" cx="121" cy="121" r="116"></circle>
            </g>
            <g id="Group-8" transform="translate(65.000000, 67.000000)" fill="#FFFFFF">
                <path d="M50.6384395,114.024642 C35.3868561,114.024642 22.9787216,101.618741 22.9787216,86.369531 C22.9787216,71.1206234 35.3868561,58.7144197 50.6384395,58.7144197 C65.8900229,58.7144197 78.2978549,71.1206234 78.2978549,86.369531 C78.2978549,101.618741 65.8900229,114.024642 50.6384395,114.024642 M50.6384395,52.7576875 C32.1023232,52.7576875 17.0213649,67.8356941 17.0213649,86.369531 C17.0213649,104.903368 32.1023232,119.981072 50.6384395,119.981072 C69.1748583,119.981072 84.2552116,104.903065 84.2552116,86.369531 C84.2552116,67.8359966 69.1748583,52.7576875 50.6384395,52.7576875" id="Fill-1"></path>
                <g id="Group-5">
                    <path d="M50.6383301,131.04357 C26.0012101,131.04357 5.95764635,111.00278 5.95764635,86.3697428 C5.95764635,61.7364033 26.0012101,41.6956127 50.6383301,41.6956127 C75.27545,41.6956127 95.3190138,61.7364033 95.3190138,86.3697428 C95.3190138,111.00278 75.27545,131.04357 50.6383301,131.04357 M89.3616699,5.95642968 C113.998487,5.95642968 134.042354,25.9972203 134.042354,50.6302572 C134.042354,71.2442468 120.268038,88.7805057 100.723037,93.8488551 C101.282106,90.0890328 101.436696,86.1997492 101.097565,82.1295827 C113.88262,77.3464717 122.978672,65.0921128 122.978672,50.6299548 C122.978672,32.0964204 107.898049,17.0184137 89.3619725,17.0184137 C87.7168356,17.0184137 86.382998,18.3517441 86.382998,19.9966286 C86.382998,21.641513 87.7168356,22.9748434 89.3619725,22.9748434 C104.613523,22.9748434 117.021328,35.3810471 117.021328,50.6299548 C117.021328,61.7451752 110.258962,71.7711664 100.222054,76.0694025 C95.1677507,51.7137394 72.7744668,34.1230342 47.1819694,35.8592675 C53.3789139,18.0538016 70.1494479,5.95642968 89.3616699,5.95642968 M140,50.6302572 C140,22.712896 117.283618,0 89.3616699,0 C65.8732416,0 46.6322795,15.8408604 40.6628347,36.7279891 C17.5017395,41.3731694 0,61.8652597 0,86.3697428 C0,114.287406 22.7163818,137 50.6383301,137 C73.7398276,137 93.2772652,121.452242 99.3347451,100.272918 C122.902133,95.5557479 140,74.7968705 140,50.6302572" id="Fill-3"></path>
                </g>
                <path d="M50.6384395,89.356911 C49.7883393,88.2259395 48.7815303,87.2189847 47.6503828,86.3696218 C48.7815303,85.5196539 49.7883393,84.5130015 50.6384395,83.3820301 C51.4882371,84.5130015 52.4950461,85.5199564 53.6261936,86.3696218 C52.4950461,87.2192872 51.4882371,88.2259395 50.6384395,89.356911 M62.5534554,83.3911044 C57.6258997,83.3911044 53.6171178,79.3829463 53.6171178,74.4564599 C53.6171178,72.811878 52.2832774,71.4782451 50.6384395,71.4782451 C48.993299,71.4782451 47.6594586,72.811878 47.6594586,74.4564599 C47.6594586,79.3829463 43.6506767,83.3911044 38.7234236,83.3911044 C37.0782831,83.3911044 35.7447452,84.7250398 35.7447452,86.3696218 C35.7447452,88.0142037 37.0782831,89.3478366 38.7234236,89.3478366 C43.6506767,89.3478366 47.6594586,93.3559947 47.6594586,98.2827836 C47.6594586,99.9270631 48.993299,101.260696 50.6384395,101.260696 C52.2832774,101.260696 53.6171178,99.9270631 53.6171178,98.2827836 C53.6171178,93.3559947 57.6258997,89.3478366 62.5534554,89.3478366 C64.1982933,89.3478366 65.5318312,88.0142037 65.5318312,86.3696218 C65.5318312,84.7250398 64.1982933,83.3911044 62.5534554,83.3911044" id="Fill-6"></path>
            </g>
            <g id="Group-2">
                <circle id="Oval" fill="#0072FF" cx="48.3018868" cy="48.3018868" r="48.3018868"></circle>
                <g id="Group" transform="translate(19.320755, 24.150943)" fill="#FFFFFF">
                    <path d="M14.1276538,38.6415094 L14.1276538,34.0374147 C17.3823427,33.7085508 19.8665632,32.7699184 21.5803153,31.2215175 C23.2940673,29.6731166 24.1509434,27.7890004 24.1509434,25.569169 C24.1509434,23.7878228 23.6829019,22.3558946 22.7468188,21.2733842 C21.8107357,20.1908738 20.6586335,19.3755654 19.290512,18.8274589 C17.9223906,18.2793523 16.2014379,17.7723538 14.1276538,17.3064633 L14.1276538,17.3064633 L14.1276538,9.00264954 C16.6046737,9.2767028 18.9376807,10.0166466 21.126675,11.2224809 L21.126675,11.2224809 L22.8980322,7.07057407 C21.74593,6.35803559 20.3994104,5.78252375 18.8584737,5.34403854 C17.3175369,4.90555333 15.740597,4.64520273 14.1276538,4.56298675 L14.1276538,4.56298675 L14.1276538,0 L10.5849394,0 L10.5849394,4.64520273 C7.35905312,4.94666131 4.89643456,5.87844239 3.19708374,7.44054597 C1.49773292,9.00264954 0.648057515,10.893617 0.648057515,13.1134484 C0.648057515,14.8947946 1.10889841,16.3267229 2.03058021,17.4092332 C2.95226201,18.4917436 4.09716362,19.3139034 5.46528504,19.8757126 C6.83340646,20.4375217 8.53995792,20.9513716 10.5849394,21.4172621 L10.5849394,21.4172621 L10.5849394,29.6388599 C8.94319371,29.5018333 7.35905312,29.1524154 5.83251764,28.5906062 C4.30598216,28.028797 3.00986713,27.3368125 1.94417255,26.5146527 L1.94417255,26.5146527 L0,30.6665596 C1.12329969,31.5983407 2.63543389,32.3656898 4.53640261,32.968607 C6.43737132,33.5715242 8.45355025,33.9414961 10.5849394,34.0785227 L10.5849394,34.0785227 L10.5849394,38.6415094 L14.1276538,38.6415094 Z M10.5849394,16.4431955 C9.17361416,16.0595209 8.0935183,15.5936304 7.34465184,15.0455239 C6.59578538,14.4974174 6.22135215,13.7711762 6.22135215,12.8668005 C6.22135215,11.9076141 6.5813841,11.099157 7.301448,10.4414291 C8.02151191,9.78370132 9.11600905,9.34521611 10.5849394,9.1259735 L10.5849394,9.1259735 L10.5849394,16.4431955 Z M14.1276538,29.5566439 L14.1276538,22.2805299 C15.5677816,22.6642045 16.6766801,23.1369463 17.4543491,23.6987555 C18.2320181,24.2605647 18.6208526,25.0073598 18.6208526,25.9391409 C18.6208526,26.870922 18.25362,27.6519738 17.5191548,28.2822963 C16.7846896,28.9126188 15.6541893,29.3374013 14.1276538,29.5566439 L14.1276538,29.5566439 Z" id="$1" fill-rule="nonzero"></path>
                    <polygon id="Path" points="46.6113208 48.3018868 46.6113208 0 26.469434 0 26.469434 7.89735849 37.1924528 7.89735849 37.1924528 48.3018868"></polygon>
                </g>
            </g>
        </g>
    </g>
</svg>