<?xml version="1.0" encoding="UTF-8"?>
<svg width="640px" height="740px" viewBox="0 0 640 740" version="1.1" xmlns="http://www.w3.org/2000/svg" xmlns:xlink="http://www.w3.org/1999/xlink">
    <title>ichi_logo_light_vertical</title>
    <defs>
        <linearGradient x1="50%" y1="0%" x2="50%" y2="100%" id="linearGradient-1">
            <stop stop-color="#006EF5" offset="0%"></stop>
            <stop stop-color="#0062DB" offset="100%"></stop>
        </linearGradient>
    </defs>
    <g id="ichi_logo_light_vertical" stroke="none" stroke-width="1" fill="none" fill-rule="evenodd">
        <g id="Group" transform="translate(20.000000, 20.000000)">
            <path d="M206.704018,178.287107 L206.704018,94.2459518 C234.313465,99.1399536 265.240364,102.144192 300.004907,102.144192 C334.769451,102.144192 365.686535,99.1399536 393.305797,94.2459518 L393.305797,178.287107 L206.704018,178.287107 Z M300.004907,297.846117 C265.240364,297.846117 234.313465,300.850355 206.704018,305.754048 L206.704018,221.703202 L393.305797,221.703202 L393.305797,305.754048 C365.686535,300.850355 334.769451,297.846117 300.004907,297.846117 L300.004907,297.846117 Z M456.435538,78.0618271 C456.818321,77.9261518 457.191289,77.7807854 457.574072,77.6451101 C485.428893,67.9733997 508.209386,56.4894549 526.337593,45.1314944 C534.945302,39.7432469 540,30.2556672 540,20.1963131 C540,3.91527749 521.616604,-5.59168437 507.993457,3.57608925 C487.362437,17.463425 458.212044,32.329561 418.716696,42.9122342 C417.519272,43.2320402 416.380738,43.5809196 415.1735,43.8910345 C409.706574,45.296243 404.00409,46.5948494 398.144566,47.8159271 C396.368061,48.1938797 394.54248,48.5330679 392.73653,48.8819472 C387.878131,49.8413654 382.882323,50.7135637 377.75892,51.5276155 C376.198344,51.7698928 374.677027,52.0412434 373.087005,52.2738297 C366.422656,53.2429389 359.552193,54.1054462 352.436356,54.822587 C351.209488,54.9388801 349.933545,55.0261 348.687046,55.1423931 C342.533074,55.7141675 336.192618,56.1696489 329.695123,56.5282193 C327.859728,56.6251302 326.024333,56.7317323 324.159493,56.809261 C316.327165,57.1484492 308.327983,57.3810355 300.004907,57.3810355 C291.701462,57.3810355 283.731725,57.1484492 275.928842,56.809261 C273.975667,56.7317323 272.071567,56.6251302 270.167468,56.5185282 C263.915346,56.1696489 257.820264,55.7335497 251.892036,55.1811574 C250.370719,55.0454821 248.819957,54.9388801 247.328085,54.7935137 C240.447807,54.0957551 233.822718,53.2623211 227.364482,52.3222851 C225.234639,52.0121702 223.19313,51.6632908 221.102546,51.3241026 C216.774154,50.6263439 212.543912,49.8801298 208.411819,49.0854602 C205.928637,48.6105966 203.435641,48.1357331 201.021163,47.6221052 C196.830181,46.7305247 192.766793,45.7807976 188.781924,44.8019972 C185.091504,43.8910345 181.518863,42.9413075 177.995297,41.9625071 C140.24701,31.4670538 112.17626,17.0757813 92.1145077,3.61485362 C78.4422861,-5.57230219 60,3.88620421 60,20.2156953 C60,30.2653583 65.0448829,39.7335558 73.6329619,45.1218033 C91.7415397,56.4603817 114.472958,67.9249442 142.268889,77.5869636 C142.730191,77.7517122 143.171864,77.9261518 143.652796,78.0909004 C149.217871,80.0000456 155.038135,81.8025889 160.985993,83.5663677 L160.985993,178.287107 L140.786832,178.287107 C131.79634,178.287107 124.503834,185.487589 124.503834,194.36463 C124.503834,209.463352 136.909927,221.703202 152.1918,221.703202 L160.985993,221.703202 L160.985993,316.423941 C155.038135,318.18772 149.217871,319.999954 143.652796,321.899409 C143.171864,322.064157 142.730191,322.238597 142.268889,322.413036 C114.472958,332.075056 91.7415397,343.529927 73.6329619,354.878197 C65.0448829,360.256753 60,369.724951 60,379.784305 C60,396.104105 78.4422861,405.562611 92.1145077,396.385146 C112.17626,382.914528 140.24701,368.532946 177.995297,358.027802 C181.518863,357.049001 185.091504,356.099274 188.781924,355.188312 C192.766793,354.209511 196.830181,353.259784 201.021163,352.368204 C203.435641,351.854576 205.928637,351.379712 208.411819,350.904849 C212.543912,350.110179 216.774154,349.363965 221.102546,348.675897 C223.19313,348.336709 225.234639,347.978139 227.364482,347.668024 C233.822718,346.727988 240.447807,345.894554 247.328085,345.206486 C248.819957,345.051429 250.370719,344.944827 251.892036,344.809151 C257.820264,344.26645 263.915346,343.82066 270.167468,343.471781 C272.071567,343.37487 273.975667,343.268268 275.928842,343.181048 C283.731725,342.84186 291.701462,342.609273 300.004907,342.609273 C308.327983,342.609273 316.327165,342.84186 324.159493,343.181048 C326.024333,343.258577 327.859728,343.365179 329.695123,343.46209 C336.192618,343.82066 342.533074,344.276141 348.687046,344.847916 C349.933545,344.964209 351.209488,345.051429 352.436356,345.167722 C359.552193,345.884863 366.422656,346.74737 373.087005,347.72617 C374.677027,347.958757 376.198344,348.220416 377.75892,348.472384 C382.882323,349.276745 387.878131,350.158635 392.73653,351.108362 C394.54248,351.457241 396.368061,351.80612 398.144566,352.174382 C404.00409,353.39546 409.706574,354.694066 415.1735,356.099274 C416.380738,356.409389 417.519272,356.76796 418.716696,357.078075 C458.212044,367.670439 487.362437,382.536575 507.993457,396.423911 C521.616604,405.591684 540,396.084723 540,379.803687 C540,369.734642 534.945302,360.247062 526.337593,354.858815 C508.209386,343.500854 485.428893,332.016909 457.574072,322.345199 C457.191289,322.209523 456.818321,322.064157 456.435538,321.938173 C450.850833,320.019337 445.001125,318.197411 439.014007,316.423941 L439.014007,221.703202 L459.213168,221.703202 C468.20366,221.703202 475.496166,214.50272 475.496166,205.625679 C475.496166,190.526957 463.099888,178.287107 447.798385,178.287107 L439.014007,178.287107 L439.014007,83.5663677 C445.001125,81.8025889 450.850833,79.9806635 456.435538,78.0618271 L456.435538,78.0618271 Z" id="Fill-4" fill="url(#linearGradient-1)"></path>
            <path d="M26.3780419,698.655462 C38.1758159,698.655462 44.0747029,695.294118 44.0747029,688.571429 L44.0747029,688.571429 L44.0747029,471.428571 C44.0747029,464.705882 38.1758159,461.344538 26.3780419,461.344538 L26.3780419,461.344538 L18.0305603,461.344538 C6.01018676,461.344538 -1.70530257e-13,464.705882 -1.70530257e-13,471.428571 L-1.70530257e-13,471.428571 L-1.70530257e-13,688.571429 C-1.70530257e-13,695.294118 6.01018676,698.655462 18.0305603,698.655462 L18.0305603,698.655462 L26.3780419,698.655462 Z M204.99717,700 C215.904546,700 227.034522,698.879552 238.387097,696.638655 C249.739672,694.397759 258.977551,691.260504 266.100736,687.226891 C273.669119,682.969188 277.453311,678.263305 277.453311,673.109244 C277.453311,671.316527 276.562913,668.291317 274.782117,664.033613 C273.001321,659.77591 270.830975,656.022409 268.271081,652.773109 C265.711187,649.52381 263.206942,647.89916 260.758347,647.89916 C259.42275,647.89916 256.974156,648.795518 253.412564,650.588235 C246.511979,653.94958 239.277495,656.7507 231.709111,658.991597 C224.140728,661.232493 215.236748,662.352941 204.99717,662.352941 C183.405018,662.352941 167.322203,655.518207 156.748727,641.848739 C146.17525,628.179272 140.888512,607.563025 140.888512,580 C140.888512,551.988796 146.17525,531.260504 156.748727,517.815126 C167.322203,504.369748 183.627617,497.647059 205.664969,497.647059 C215.014148,497.647059 223.19468,498.543417 230.206565,500.336134 C237.218449,502.128852 243.061686,504.145658 247.736276,506.386555 C252.410866,508.627451 255.08206,509.747899 255.749859,509.747899 C257.975854,509.747899 260.480098,508.067227 263.262592,504.705882 C266.045086,501.344538 268.49368,497.478992 270.608376,493.109244 C272.723071,488.739496 273.780419,485.210084 273.780419,482.521008 C273.780419,478.935574 270.997925,475.57423 265.432937,472.436975 C259.200151,468.851541 250.51877,465.882353 239.388795,463.529412 C228.258819,461.176471 217.240143,460 206.332767,460 C132.65233,460 95.8121109,499.887955 95.8121109,579.663866 C95.8121109,620.896359 104.660441,651.260504 122.357102,670.756303 C140.053763,690.252101 167.600453,700 204.99717,700 Z M340.560272,698.319328 C352.358046,698.319328 358.256933,695.070028 358.256933,688.571429 L358.256933,596.2703 L459.09451,596.2703 L459.09451,688.571429 C459.09451,695.070028 464.993397,698.319328 476.791171,698.319328 L485.472552,698.319328 C497.270326,698.319328 503.169213,695.070028 503.169213,688.571429 L503.169213,471.428571 C503.169213,464.929972 497.270326,461.680672 485.472552,461.680672 L476.791171,461.680672 C464.993397,461.680672 459.09451,464.929972 459.09451,471.428571 L459.09451,558.287107 L358.256933,558.287107 L358.256933,471.428571 C358.256933,464.929972 352.358046,461.680672 340.560272,461.680672 L331.878891,461.680672 C320.081117,461.680672 314.18223,464.929972 314.18223,471.428571 L314.18223,688.571429 C314.18223,695.070028 320.081117,698.319328 331.878891,698.319328 L340.560272,698.319328 Z M582.303339,698.655462 C594.101113,698.655462 600,695.294118 600,688.571429 L600,688.571429 L600,471.428571 C600,464.705882 594.101113,461.344538 582.303339,461.344538 L582.303339,461.344538 L573.955857,461.344538 C561.935484,461.344538 555.925297,464.705882 555.925297,471.428571 L555.925297,471.428571 L555.925297,688.571429 C555.925297,695.294118 561.935484,698.655462 573.955857,698.655462 L573.955857,698.655462 L582.303339,698.655462 Z" id="ICHI" fill="#090F16" fill-rule="nonzero"></path>
        </g>
    </g>
</svg>