<svg width="106" height="100" viewBox="0 0 106 100" fill="none" xmlns="http://www.w3.org/2000/svg">
<g clip-path="url(#clip0_248_4)">
<path d="M25.2257 54.973L28.0386 33.8882L3.70361 17.0028L25.9243 24.5376L31.1741 16.4882L50.3339 4.59131L92.5915 27.8625L94.7779 63.3824L75.9674 89.5411L61.1003 91.8048L68.8005 77.7189V64.1583L63.2013 53.5732L57.5142 49.8111L48.7635 58.8204V68.3577L41.9352 74.7434L33.2752 75.7939L29.4251 77.9802L23.1247 75.9699L20.5011 66.5206L25.2257 59.871V54.973Z" fill="white"/>
<path d="M64.0701 16.8295C59.4335 15.8669 54.3569 16.1282 54.3569 16.1282C54.3569 16.1282 52.6958 23.8284 42.3721 25.8388C42.4601 25.8388 56.034 30.4754 64.0701 16.8295Z" fill="#94A6C3"/>
<path d="M68.2695 86.6429C73.8686 82.2676 78.068 76.2312 80.0011 69.4082C80.0864 69.1416 80.8756 68.707 81.4008 68.3577C82.2754 67.8244 83.1499 67.3952 83.3232 66.6966C83.6791 64.645 83.8575 62.5665 83.8565 60.4842C83.8565 59.6977 83.0566 58.9084 82.2834 58.1219C81.6701 57.5886 81.0569 56.9834 81.0569 56.5461C80.2053 48.5818 76.5139 41.1906 70.6585 35.7253L70.0452 36.3385C75.7512 41.6687 79.3525 48.8713 80.193 56.6341C80.281 57.3353 80.9796 58.0339 81.6808 58.7351C82.294 59.2684 82.9926 60.0469 82.9926 60.3962C82.9899 62.42 82.8114 64.4397 82.4593 66.4326C82.3714 66.7846 81.5848 67.1339 80.9716 67.4832C80.097 67.9204 79.3105 68.3577 79.1345 69.0589C77.005 76.4937 72.2808 82.9187 65.8192 87.1682C66.955 84.7179 70.5438 76.7698 72.4689 72.733L72.1169 59.7856L61.0066 49.0219L54.7009 49.8991L47.7872 61.0974C47.7872 61.0974 51.0268 65.2088 46.4754 70.0188C42.0148 74.7434 38.514 75.7939 38.514 75.7939L35.2771 74.0448C36.2396 72.8183 38.1647 70.984 39.6525 69.7575C42.1881 67.6591 44.7184 67.4832 44.7184 65.2088C44.8064 60.4842 39.7325 61.796 39.7325 61.796L37.9034 63.5451L37.1035 70.0188L33.2561 74.8314L32.8375 74.7434L26.5371 73.3436C26.5371 73.3436 30.3872 71.3332 30.9978 69.0589C31.611 66.8699 29.774 59.6097 29.686 59.1724C30.8852 60.2714 31.786 61.6566 32.3042 63.1985C33.704 59.3484 35.5411 55.6743 36.0663 55.325C36.5916 54.9757 43.6839 51.2003 43.6839 51.2003L41.3216 57.41L43.0733 56.4501L47.2727 46.1344C47.2727 46.1344 51.384 44.1213 54.4449 44.1213C59.9561 44.0334 68.0935 37.2984 64.4194 25.2255C65.4699 25.6628 83.6672 34.7601 86.816 52.6081C89.1783 66.3447 81.3928 79.196 68.2695 86.6429Z" fill="#94A6C3"/>
<path d="M47.4464 18.7518C49.4594 16.3895 48.6729 12.886 48.6729 12.886L42.8071 21.5461C42.7218 21.5514 44.9108 21.6394 47.4464 18.7518Z" fill="#1B314F"/>
<path d="M27.7717 66.0833L28.4729 62.5852C28.4729 62.5852 25.5853 67.6511 25.324 68.3577C25.0574 69.1442 25.4974 70.544 26.6359 70.4587C27.7743 70.3734 29.1715 68.7069 29.1715 67.4831C29.1608 65.9074 27.7717 66.0833 27.7717 66.0833Z" fill="#1B314F"/>
<path d="M79.7294 10.4411C79.7294 10.4411 84.1048 10.6171 88.6534 11.1423C78.4176 3.09289 68.7071 0.743916 60.8336 0.743916C49.9846 0.743916 42.6364 5.20724 42.1964 5.46853L45.6092 0.0426867C45.6092 0.0426867 31.9606 -1.26911 27.1507 13.166C25.9242 10.1052 24.7884 5.64451 24.7884 5.64451C24.7884 5.64451 17.7015 11.8542 21.0263 22.1753C12.8888 19.2051 1.25327 15.0778 0.816 14.9924C0.205425 14.9044 0.0161204 15.1657 0.0161204 15.1657C0.0161204 15.1657 -0.159854 15.4324 0.3654 15.867C1.32792 16.6668 19.7012 30.2141 23.7245 32.8377C22.85 35.9893 22.85 37.4744 23.7245 38.9701C24.9484 40.9832 25.0363 42.031 24.863 43.5188C24.6897 45.0066 23.1113 57.8686 22.762 59.4417C22.4127 61.0148 18.752 66.6086 18.9253 68.2644C19.0986 69.9201 21.3756 77.0124 23.3886 77.8016C24.8764 78.3349 28.5505 79.4627 30.9981 79.4627C31.8753 79.4627 32.6619 79.2894 33.0111 78.9295C34.4989 77.6177 34.9362 77.3564 35.9867 77.3564H36.2533C36.6906 77.3564 37.2158 77.4443 37.8291 77.4443C39.2289 77.4443 41.0659 77.1777 42.3777 75.9566C44.3028 74.0315 47.6276 71.4053 48.6781 70.1814C49.3576 69.3162 49.8547 68.3222 50.1392 67.2595C50.4238 66.1968 50.49 65.0874 50.3339 63.9984C50.0672 61.8974 51.2084 60.0603 52.5202 58.2232C54.184 56.0342 57.2448 52.0908 57.2448 52.0908C63.2813 56.6395 67.0434 63.5558 67.0434 71.2506C67.0434 84.8992 55.1465 95.9216 40.4474 95.9216C38.2074 95.9243 35.9752 95.6602 33.7977 95.135C40.5353 97.4973 46.2225 98.2839 50.8618 98.2839C60.7483 98.2839 65.9982 94.6977 65.9982 94.6977C64.5255 96.5066 62.9166 98.2002 61.1856 99.7637H61.2736C77.6338 97.4893 85.5952 84.014 85.5952 84.014C85.5952 84.014 84.982 88.3894 84.1954 91.3649C105.979 75.0047 102.305 54.5331 102.217 53.8319C102.393 54.0985 104.579 56.7195 105.715 58.1193C109.213 22.0767 79.7294 10.4411 79.7294 10.4411ZM46.2225 67.9978C45.8732 68.435 44.3854 69.7468 43.3349 70.7094C42.2844 71.6719 41.1486 72.6344 40.2741 73.5089C39.9221 73.8582 39.2235 74.0422 38.173 74.0422H35.5494C36.8612 72.2931 40.7113 68.2671 42.0231 67.3925C43.5962 66.342 44.3854 65.2942 43.4229 63.4571C42.4604 61.6201 39.9221 62.0573 39.9221 62.0573C40.8151 61.7 41.7611 61.4928 42.7217 61.4441C41.0606 61.0068 38.9596 61.4441 37.9971 62.4066C36.9492 63.3691 37.1225 66.782 36.6853 68.9683C36.248 71.2426 34.7602 72.3811 32.4859 74.4795C31.2621 75.6153 30.3875 75.9672 29.6863 75.9672C28.1727 75.7014 26.6815 75.3208 25.2257 74.8287C24.3511 73.6929 23.0393 69.9308 22.6874 68.3551C22.954 67.4805 23.9992 65.6435 24.5244 64.593C25.5749 62.5826 26.1882 61.4441 26.3615 60.3936C26.7134 58.9058 27.8493 49.7285 28.2865 45.8704C29.425 47.3582 30.9981 49.8085 30.6488 51.3843C33.1871 47.7955 31.3501 44.2973 30.4755 42.8976C29.6756 41.4978 28.6385 38.6982 29.513 35.7226C30.3875 32.7471 33.5364 24.5243 33.5364 24.5243C33.5364 24.5243 34.5869 26.3614 36.0747 26.0121C37.5625 25.6628 49.5473 7.63887 49.5473 7.63887C49.5473 7.63887 52.7842 14.7258 49.3713 19.8877C45.8732 25.0496 42.4604 26.0201 42.4604 26.0201C45.7388 26.43 49.051 25.5863 51.7337 23.6578C53.5707 27.9451 55.3198 32.4058 55.4078 33.019C55.1411 33.6323 51.6457 42.0284 51.2964 42.5536C51.1204 42.7296 49.8966 43.0869 49.0221 43.2548C47.5343 43.6921 46.6598 43.9534 46.3105 44.2174C45.6972 44.7506 42.8977 52.4401 41.5859 56.2022C39.8217 56.6466 38.2905 57.7407 37.2985 59.2658C37.9117 58.8258 39.8368 58.5645 41.2366 58.3912C42.4604 58.3032 46.2225 60.3136 47.185 64.0757V64.2517C47.3219 65.5753 46.9805 66.9041 46.2225 67.9978V67.9978ZM37.9971 69.0643C38.7969 67.9258 38.6983 66.0007 38.7969 65.3902C38.8956 64.7796 39.0636 63.6384 39.7595 63.4651C40.4554 63.2918 42.1218 63.5504 42.1218 64.7769C42.1218 65.9128 40.8953 66.1767 40.0208 66.9633C39.3969 67.5712 38.1704 68.883 37.9971 69.0643ZM72.9065 52.3468C73.6703 48.5761 73.9054 44.7174 73.605 40.8819C77.0208 45.4879 79.1385 50.9258 79.7374 56.6288C79.8254 57.33 80.524 58.0286 81.2252 58.7298C81.8385 59.2631 82.537 59.9536 82.537 60.3909C82.5329 62.4146 82.3545 64.4342 82.0038 66.4273C81.9158 66.694 81.1292 67.1286 80.516 67.4778C79.6415 67.9151 78.8549 68.3524 78.6789 69.0536C76.7419 75.7749 72.6931 81.6944 67.1313 85.9364C75.2688 77.4577 79.2042 63.4651 72.9065 52.3468ZM67.3953 86.7416C73.0798 82.3663 77.4551 76.2419 79.3802 69.3309C79.4681 69.0643 80.2547 68.6297 80.7799 68.2804C81.6545 67.8431 82.529 67.3179 82.705 66.6193C83.0595 64.5675 83.2379 62.4891 83.2382 60.4069C83.2382 59.6204 82.4384 58.8312 81.6625 58.0446C81.2252 57.5114 80.524 56.9088 80.524 56.4715C79.811 50.1108 77.3259 44.0781 73.3517 39.0608C71.6027 28.5611 64.6037 25.3242 64.4277 25.2389C64.6037 25.5055 69.1524 32.0619 66.0035 39.7594C62.756 47.5369 54.4346 46.3104 53.7467 46.401C53.0455 46.401 50.3339 49.9018 46.9211 56.3755C45.5035 55.9508 44.007 55.8595 42.5484 56.1089C44.1215 51.7362 46.4838 45.5238 46.9211 44.9986C47.097 44.8226 48.4088 44.4653 49.2834 44.212C50.9471 43.7748 51.7337 43.5108 51.9976 43.1615C52.1709 42.8949 53.0455 40.8872 53.92 38.7888C54.7199 38.7888 56.7196 38.6129 56.8955 38.5222C57.0715 38.3462 58.7326 34.0616 58.7326 33.5363C58.7326 33.099 55.3198 24.6123 54.008 21.3755C54.6826 20.5762 55.2966 19.7278 55.845 18.8372C63.588 19.6779 70.8455 23.0212 76.5164 28.3598C82.1874 33.6984 85.9624 40.741 87.2686 48.4192C88.5749 56.0973 87.3412 63.992 83.7547 70.9056C80.1682 77.8192 74.4246 83.3743 67.3953 86.7283V86.7416Z" fill="#1B314F"/>
<path d="M44.1214 39.4874C45.7852 37.5623 44.9213 33.9762 41.8471 33.355C42.647 31.5179 43.7721 27.8438 43.7721 27.8438C43.7721 27.8438 34.8481 41.8417 34.0616 42.103C33.275 42.3643 32.4858 39.3034 32.4858 39.3034C30.8247 45.7025 35.2854 46.5663 35.8107 44.5533C38.261 43.9481 42.4603 41.3351 44.1214 39.4874Z" fill="#1B314F"/>
<path d="M36.5117 42.9002L41.0604 35.1121C41.0604 35.1121 43.684 36.4265 42.3722 38.5249C40.7111 40.9752 36.5117 42.9002 36.5117 42.9002Z" fill="#FFD923"/>
<path d="M92.7645 78.9427C91.3774 80.8265 89.8573 82.6086 88.2158 84.2753C99.5021 62.5799 88.7491 42.7189 88.3038 41.9323C89.1037 42.7189 89.8769 43.5934 90.5781 44.3826C99.2275 54.0105 100.294 68.4456 92.7645 78.9427Z" fill="#D82122"/>
<path d="M103.265 51.035C99.3265 40.4499 93.7273 31.4379 81.4012 23.3058C69.5016 15.4324 56.7276 16.0429 56.029 16.1309H55.853C56.2784 15.9737 56.7176 15.8567 57.1648 15.7816C59.8791 14.9071 63.3772 14.2059 66.878 13.7686C76.1513 12.4568 85.5125 15.6057 91.8982 22.3433L92.0742 22.5166C99.3265 30.2141 103.089 39.8367 103.265 51.035Z" fill="#D82122"/>
<path d="M78.5933 7.74017C65.5552 5.28988 57.1565 6.51636 51.1307 8.79068C50.9574 8.08945 50.3442 6.68967 49.8189 5.55384C47.9819 7.74017 46.0568 10.3531 44.833 12.0275C41.5082 14.3019 40.1084 16.4882 40.1084 16.4882C42.0334 9.92651 47.6326 5.02325 54.4556 3.80477C56.5354 3.43787 58.6441 3.25939 60.7559 3.27151C66.9629 3.3948 73.0613 4.92258 78.5933 7.74017V7.74017Z" fill="#D82122"/>
<path d="M30.3874 24.5376C20.1517 24.1884 23.5618 12.2888 23.7378 11.5903C23.7378 11.6676 24.439 20.9409 30.3874 24.5376Z" fill="#D82122"/>
<path d="M40.4472 3.0929C32.5737 7.81751 34.1495 19.1038 34.1495 19.1038C26.6253 7.64154 39.8366 3.35419 40.4472 3.0929Z" fill="#D82122"/>
<path d="M27.5053 27.6758C28.0385 28.1131 28.5558 28.9023 27.9425 30.0381C27.5933 30.6514 27.068 30.5714 26.2815 30.2141C25.231 29.6808 18.9306 26.0147 13.2461 22.2526C19.7198 24.5269 26.2815 26.9772 27.3293 27.5025L27.5053 27.6758Z" fill="white"/>
</g>
<defs>
<clipPath id="clip0_248_4">
<rect width="106" height="99.7663" fill="white"/>
</clipPath>
</defs>
</svg>
