<svg width="115" height="100" viewBox="0 0 115 100" fill="none" xmlns="http://www.w3.org/2000/svg">
<g clip-path="url(#clip0_144_443)">
<path fill-rule="evenodd" clip-rule="evenodd" d="M23.3821 56.0188C21.4388 56.0188 19.4954 55.9929 17.552 56.0188C16.0297 56.0447 15.3333 56.7832 15.5017 58.2472C16.0516 63.3504 17.5593 68.3041 19.9456 72.8485C20.8395 74.5295 22.3068 74.5328 23.2396 72.8485C25.8308 68.1822 28.3863 63.5008 30.9063 58.8043C31.7711 57.1848 31.065 56.0609 29.2058 56.022C27.2624 55.9799 25.319 56.022 23.3757 56.022L23.3821 56.0188ZM52.5523 51.5393C55.6779 51.5393 58.8035 51.562 61.9291 51.5393C63.5713 51.5231 64.3162 50.4057 63.6231 48.9481C60.6821 42.8427 57.7249 36.7437 54.6997 30.6803C54.4147 30.1103 53.6244 29.4819 53.0576 29.4819C52.4908 29.4819 51.694 30.0941 51.383 30.6512C48.0599 36.6238 44.8015 42.6354 41.556 48.6437C40.5843 50.4251 41.2936 51.5361 43.3439 51.5587C46.4177 51.5782 49.498 51.5587 52.5588 51.5587L52.5523 51.5393ZM91.2256 51.5587C92.952 51.5587 94.6784 51.5393 96.408 51.5587C97.859 51.5782 98.5004 50.8591 98.3838 49.4566C98.3194 48.4891 98.1961 47.5264 98.0145 46.574C94.7496 30.7775 85.5088 20.0597 70.4347 14.4336C70.0477 14.3225 69.6403 14.3015 69.2439 14.3723C68.8476 14.443 68.4726 14.6036 68.1479 14.8417C67.7755 15.1851 67.8435 16.3608 68.122 16.9892C69.2622 19.603 70.5545 22.1489 71.795 24.7174C75.8178 33.0545 79.8666 41.3819 83.8472 49.7384C84.495 51.102 85.3534 51.6818 86.8627 51.5587C88.3073 51.4454 89.7778 51.5361 91.2256 51.5361V51.5587ZM29.2544 84.7323C33.8699 88.7454 38.8839 91.7544 44.5974 93.4613C57.1711 97.2185 68.9966 95.5083 80.0415 88.4279C81.797 87.3008 82.0107 86.3647 81.0812 84.4699C77.3628 76.8713 73.6423 69.2737 69.9197 61.6773C69.7318 61.2983 69.5796 60.9032 69.3431 60.3623C69.8581 60.3072 70.2533 60.2327 70.6387 60.2327C76.2519 60.2327 81.8682 60.2618 87.4814 60.1971C88.5859 60.1971 89.1009 60.5728 89.5446 61.5218C90.8175 64.2587 92.1649 66.96 93.522 69.6549C93.7196 70.0435 94.131 70.5391 94.4937 70.5715C94.7852 70.6006 95.3326 70.0759 95.4331 69.7067C96.4533 65.9236 97.5125 62.1469 98.3319 58.3185C98.6947 56.6374 97.9918 56.0253 96.2849 56.0253C77.555 56.0123 58.8251 56.0123 40.0952 56.0253C38.1518 56.0253 37.07 57.0844 36.2085 58.678C29.6355 70.8025 23.042 82.9195 16.4281 95.029C14.9932 97.6655 12.9462 98.3813 10.274 97.0922C11.0514 95.6379 11.819 94.1771 12.6028 92.739C14.5462 89.1761 16.441 85.6133 18.4136 82.0925C19.097 80.8714 19.0613 79.809 18.3099 78.6268C14.2909 72.4553 11.8526 65.3895 11.2101 58.0529C11.087 56.7055 10.4619 55.9799 9.04321 56.0123C7.53385 56.0415 6.02125 56.0479 4.50865 56.0123C1.84621 55.9411 0.272074 54.422 0 51.5361H8.54117C10.6433 51.5361 10.9607 51.1409 11.236 49.0291C13.4622 31.8604 22.3651 19.4789 37.9445 11.8846C38.1366 11.8049 38.3348 11.741 38.5373 11.6935C39.6871 14.0352 38.9907 16.16 36.5939 17.5592C30.7019 20.9159 25.7047 25.6419 22.025 31.3378C18.7396 36.428 16.6122 42.1777 15.7932 48.1805C15.3884 51.0405 15.8321 51.5296 18.6856 51.5296C23.1133 51.5296 27.541 51.4778 31.9654 51.5522C34.0351 51.5879 35.4473 50.7943 36.4255 48.9837C40.8564 40.7784 45.31 32.5881 49.7862 24.4129C50.5539 23.0072 50.5603 21.7278 49.8445 20.2767C46.7222 13.9478 43.6905 7.58321 40.5973 1.22835C40.4386 0.904448 40.2734 0.580551 40.0337 0.0299259H47.1303C50.9101 0.0299259 54.69 0.0752715 58.4667 0.000775189C59.5582 -0.0186586 60.1088 0.324672 60.5105 1.32875C61.0838 2.77657 61.9129 4.12399 62.5219 5.55885C63.283 7.36944 64.611 8.33141 66.4993 8.73304C77.8357 11.1461 86.9891 17.0507 93.9528 26.2818C99.0436 32.98 102.131 40.9842 102.857 49.3659C102.999 50.8883 103.673 51.6073 105.234 51.5425C106.637 51.4842 108.042 51.5101 109.445 51.5425C112.153 51.5911 113.688 52.9871 114.086 55.8828C113.633 55.9281 113.183 56.0123 112.732 56.0155C110.248 56.0155 107.767 56.0155 105.283 56.0155C103.501 56.0155 103.093 56.4917 102.857 58.2828C100.405 77.0689 90.4288 90.2968 72.7343 96.9626C58.2367 102.424 44.2055 100.373 31.201 91.8645C28.5612 90.1381 27.839 87.5081 29.2576 84.7193" fill="white"/>
</g>
<defs>
<clipPath id="clip0_144_443">
<rect width="114.093" height="100" fill="white"/>
</clipPath>
</defs>
</svg>
