<svg width="100" height="100" viewBox="0 0 100 100" fill="none" xmlns="http://www.w3.org/2000/svg">
<path d="M50 1C77.0577 1 99 22.9423 99 50C99 77.0577 77.0577 99 50 99C22.9423 99 1 77.0577 1 50C1 22.9423 22.9423 1 50 1Z" fill="#1E1E1E" stroke="#1F2A34" stroke-width="2"/>
<path d="M50.7498 70.9C34.7598 70.9 21.7998 66.28 21.7998 60.09C21.7998 56.86 25.3298 53.95 30.9798 51.9C35.3898 54.73 42.7898 56.18 51.1798 56.18C59.3698 56.18 66.6098 54.41 71.0598 51.7C76.3898 53.73 79.6998 56.56 79.6998 59.68C79.6998 65.88 66.7398 70.9 50.7498 70.9Z" fill="white"/>
<path d="M50.9202 54.79C38.8002 54.79 28.9702 50.99 28.9702 46.3C28.9702 43.7 32.0002 41.37 36.7502 39.82C40.1402 41.59 45.2202 42.72 50.9202 42.72C56.6202 42.72 61.7002 41.59 65.0902 39.82C69.8502 41.38 72.8702 43.7 72.8702 46.3C72.8802 50.99 63.0502 54.79 50.9202 54.79Z" fill="white"/>
<path d="M50.8401 41.31C41.4701 41.31 33.8701 38.17 33.8701 34.31C33.8701 30.45 41.4701 27.31 50.8401 27.31C60.2101 27.31 67.8101 30.45 67.8101 34.31C67.8101 38.17 60.2101 41.31 50.8401 41.31Z" fill="white"/>
</svg>
