<svg width="92" height="100" viewBox="0 0 92 100" fill="none" xmlns="http://www.w3.org/2000/svg">
<g clip-path="url(#clip0_144_403)">
<path d="M91.3469 29.4229C91.2272 41.6447 88.1221 55.0386 81.1873 67.4496C74.9739 78.5622 66.4022 87.4876 55.7479 94.4052C52.7988 96.32 49.6808 97.9773 46.6323 99.7372C46.3465 99.9064 46.0209 99.9969 45.6887 99.9996C45.3565 100.002 45.0295 99.9168 44.741 99.7521C39.0778 96.771 33.6359 93.4414 28.6683 89.3768C15.9144 78.9408 7.35835 65.7784 3.0002 49.8894C0.775528 41.8349 -0.165843 33.6254 0.0275602 25.2813C0.087241 21.9694 0.423214 18.6684 1.03198 15.4124C1.0822 15.1506 1.09822 14.8781 1.15378 14.6228C1.36001 13.644 2.00005 13.0542 2.96386 12.9366C3.73961 12.8437 4.54635 13.3181 4.95132 14.112C6.19366 16.5504 7.43742 18.9884 8.68261 21.4261C13.2637 30.3689 17.8434 39.3121 22.4217 48.2556C22.645 48.6916 22.8897 48.8562 23.3909 48.8562C38.331 48.8412 53.2711 48.8369 68.2112 48.8433C68.4078 48.8433 68.6161 48.8006 68.7967 48.8519C69.5532 49.0656 69.8193 48.6382 70.1099 48.0334C75.3899 37.0198 80.6833 26.0111 85.9903 15.0074C86.1442 14.6869 86.2767 14.3567 86.4402 14.0457C86.8281 13.2978 87.6541 12.8437 88.4138 12.9462C89.3466 13.0723 89.9781 13.644 90.1832 14.549C90.881 17.6168 91.3469 22.8023 91.3469 29.4229ZM45.7123 93.6818L67.5348 52.8706H24.7938L45.7123 93.6818ZM4.32303 21.6611L4.15527 21.722C3.24168 37.6687 6.225 52.752 14.3063 66.6685C20.7612 77.7737 29.7443 86.3635 40.8057 92.8623L4.32303 21.6611ZM87.2106 22.0063L87.0717 21.9763C86.9883 22.1398 86.9018 22.3022 86.8217 22.4679C84.5543 27.1772 82.2865 31.8866 80.0184 36.5959C77.7253 41.3519 75.5658 46.1795 73.1029 50.8458C65.7963 64.6842 58.369 78.4596 50.9844 92.2597C50.8979 92.4231 50.8252 92.5952 50.6938 92.873C50.9556 92.7266 51.1105 92.6518 51.2537 92.5588C52.5541 91.719 53.8737 90.909 55.1474 90.0296C66.4086 82.2604 75.0016 72.2366 80.6103 59.722C85.2424 49.3851 87.3356 38.5096 87.3581 27.2121C87.3677 25.4768 87.264 23.7415 87.2106 22.0063Z" fill="white"/>
<path d="M13.4346 11.2088C13.4293 10.2696 13.9689 9.56116 14.9476 9.25877C17.2236 8.55568 19.5006 7.85793 21.7787 7.16552C29.4614 4.8226 37.1445 2.47719 44.8279 0.12929C45.3883 -0.0470644 45.9898 -0.0437022 46.5482 0.138906C56.6422 3.22694 66.739 6.30821 76.8387 9.38271C78.0258 9.74494 78.6445 10.494 78.5836 11.493C78.5013 12.8447 77.2704 13.6707 75.9027 13.2647C73.9441 12.6823 71.9919 12.0765 70.0365 11.4802C62.0824 9.05254 54.1265 6.62841 46.1688 4.20785C45.8552 4.11596 45.522 4.11374 45.2072 4.20144C35.599 7.12207 25.9926 10.0452 16.388 12.9708C15.9191 13.1207 15.4224 13.1631 14.9348 13.0948C14.017 12.9366 13.44 12.1352 13.4346 11.2088Z" fill="white"/>
</g>
<defs>
<clipPath id="clip0_144_403">
<rect width="91.3471" height="100" fill="white"/>
</clipPath>
</defs>
</svg>
