<svg width="160" height="65" viewBox="0 0 160 65" fill="none" xmlns="http://www.w3.org/2000/svg">
<g clip-path="url(#clip0_144_341)">
<path fill-rule="evenodd" clip-rule="evenodd" d="M79.9387 36.8293H156.115C157.227 36.8293 157.083 36.8773 157.083 35.848C157.083 25.1493 157.083 14.4516 157.083 3.75467C157.083 2.92533 157.083 2.92267 156.283 2.92267H3.74933C2.93333 2.93333 2.93333 2.93333 2.93333 3.73333C2.93333 14.4142 2.93333 25.0924 2.93333 35.768C2.93333 36.92 2.77067 36.8347 4 36.8347L79.9387 36.8293ZM160 39.832C159.637 39.832 159.277 39.8 158.915 39.8H1.29867C0 39.8 0 39.8 0 38.4667V0.890667C0 0 0 0 0.874667 0H159.395C159.597 0 159.8 0 160 0.0133333V39.832Z" fill="white"/>
<path fill-rule="evenodd" clip-rule="evenodd" d="M46.808 51.2213V53.6C46.808 56.8195 46.808 60.0364 46.808 63.2507C46.808 63.488 46.7147 63.912 46.6187 63.9253C46.1852 63.9683 45.748 63.9567 45.3173 63.8907C45.264 63.8907 45.208 63.608 45.208 63.456C45.208 58.4516 45.208 53.4453 45.208 48.4373C45.208 48.2667 45.3573 47.9467 45.4107 47.952C45.7253 47.9867 46.1333 48 46.3227 48.1973C47.1227 49.0347 47.8773 49.936 48.6453 50.816C51.4436 54.0373 54.24 57.2587 57.0347 60.48C57.0878 60.5631 57.1299 60.6527 57.16 60.7467L57.352 60.6427V60.016C57.352 56.2827 57.352 52.536 57.352 48.7973C57.352 48.5307 57.44 48.0587 57.5733 48.024C57.9829 47.9361 58.4064 47.9361 58.816 48.024C58.912 48.0427 58.9867 48.4373 58.9867 48.6587C58.9973 52.2764 58.9973 55.896 58.9867 59.5173C58.9867 60.8027 58.9867 62.0907 58.9867 63.376C58.9726 63.6084 58.8931 63.8321 58.7573 64.0213C58.4293 63.9813 58.0053 63.9413 57.8053 63.7253C56.608 62.4213 55.4587 61.072 54.296 59.7253L47.096 51.4373C47.007 51.3541 46.9135 51.2758 46.816 51.2027" fill="white"/>
<path fill-rule="evenodd" clip-rule="evenodd" d="M107.771 52.8C107.771 53.784 107.771 54.768 107.771 55.752C107.771 56.112 107.899 56.248 108.259 56.2533C108.963 56.2533 109.669 56.3653 110.368 56.3227C110.845 56.3076 111.31 56.1689 111.717 55.92C112.213 55.5904 112.632 55.1577 112.944 54.6515C113.257 54.1452 113.457 53.5773 113.531 52.9867C113.771 51.2213 112.877 49.856 111.131 49.5333C110.213 49.3627 109.251 49.4373 108.309 49.3867C107.872 49.3627 107.776 49.576 107.776 49.9707C107.795 50.9147 107.776 51.8587 107.776 52.8027L107.771 52.8ZM112.725 57.2213C113.907 58.68 115.048 60.24 116.363 61.6373C116.917 62.2267 117.808 62.5707 118.611 62.832C119.195 63.024 119.032 63.3467 119.043 63.6987C119.059 64.16 118.747 64.128 118.429 64.128C117.68 64.1294 116.94 63.9552 116.27 63.6195C115.6 63.2838 115.018 62.7958 114.571 62.1947C113.528 60.8907 112.528 59.552 111.539 58.2107C111.438 58.0501 111.296 57.9198 111.128 57.8338C110.959 57.7479 110.77 57.7094 110.581 57.7227C109.877 57.7476 109.172 57.7351 108.469 57.6853C107.883 57.6347 107.757 57.8667 107.765 58.4C107.795 60.048 107.747 61.6987 107.789 63.344C107.808 63.9893 107.488 64.016 107.016 63.992C106.544 63.968 106.152 64.1067 106.157 63.368C106.187 58.4613 106.176 53.5573 106.157 48.6533C106.157 48.2373 106.248 48.0187 106.72 48.024C108.267 48.024 109.845 47.8213 111.352 48.064C114.933 48.6373 116.392 52.2907 114.331 55.2933C113.891 55.9333 113.333 56.4933 112.717 57.2213" fill="white"/>
<path fill-rule="evenodd" clip-rule="evenodd" d="M97.3336 53.3787C97.2642 55.224 97.3336 57.0853 97.0962 58.912C96.6696 62.2267 94.3842 64.136 91.0322 64.2133C89.5789 64.2453 88.1629 64.0933 86.8962 63.328C84.9762 62.1706 84.1576 60.3173 84.0696 58.208C83.9362 54.9787 83.9949 51.7387 83.9629 48.504C83.9629 48.088 84.1202 47.9067 84.5336 47.9413C84.6746 47.9546 84.8165 47.9546 84.9576 47.9413C85.4482 47.8907 85.6269 48.096 85.6216 48.5973C85.6029 51.208 85.6082 53.824 85.6216 56.4347C85.6116 57.1373 85.6445 57.84 85.7202 58.5387C86.1336 61.7387 88.2296 62.9387 91.2162 62.6933C94.1096 62.4533 95.5896 60.7547 95.6402 57.6853C95.6882 54.7093 95.6402 51.7333 95.6696 48.76C95.6696 48.4933 95.7469 48.056 95.8616 48.0293C96.2732 47.9533 96.6953 47.9533 97.1069 48.0293C97.1896 48.0293 97.2616 48.4053 97.2642 48.608C97.2642 50.208 97.2642 51.784 97.2642 53.3733H97.3336" fill="white"/>
<path fill-rule="evenodd" clip-rule="evenodd" d="M6.93352 46.3733C7.43285 46.3347 7.93475 46.3445 8.43219 46.4027C8.56129 46.4563 8.67805 46.5357 8.77528 46.6362C8.8725 46.7366 8.94814 46.8559 8.99752 46.9867C10.5193 50.5315 12.0304 54.0871 13.5309 57.6533C14.0295 58.832 14.5255 60.0133 15.0695 61.3013C15.4002 60.5013 15.6829 59.8346 15.9682 59.1546C17.6037 55.2595 19.242 51.3635 20.8829 47.4667C21.3922 46.256 21.6349 46.1333 23.0349 46.4533C22.9815 46.6213 22.9389 46.7893 22.8722 46.9467C20.5095 52.472 18.1486 57.9991 15.7895 63.528C15.7385 63.7198 15.618 63.8858 15.4514 63.9937C15.2848 64.1016 15.0841 64.1438 14.8882 64.112C14.4455 64.0906 14.3789 63.784 14.2562 63.496C12.8162 60.1555 11.3797 56.8124 9.94685 53.4666C9.02774 51.3333 8.10863 49.1911 7.18952 47.04C7.11218 46.8613 7.04818 46.6747 6.92285 46.3627" fill="white"/>
<path fill-rule="evenodd" clip-rule="evenodd" d="M124.467 55.9413C124.467 53.5484 124.467 51.1564 124.467 48.7653C124.467 47.9493 124.467 47.944 125.267 47.944C127.363 47.944 129.459 47.9627 131.552 47.944C132.155 47.944 132.296 48.16 132.299 48.7173C132.301 49.2747 132.12 49.4853 131.536 49.4747C129.965 49.44 128.395 49.4747 126.824 49.4533C126.307 49.4533 126.107 49.6053 126.12 50.1413C126.149 51.408 126.141 52.6747 126.12 53.9413C126.12 54.3973 126.251 54.5813 126.739 54.5707C128.189 54.544 129.64 54.5893 131.088 54.5493C131.739 54.5333 131.669 54.9173 131.685 55.328C131.701 55.7387 131.64 56.0453 131.077 56.032C129.627 55.9973 128.176 56.032 126.725 56.0133C126.291 56.0133 126.115 56.1387 126.12 56.5947C126.139 58.3627 126.141 60.1307 126.12 61.8987C126.12 62.4027 126.333 62.504 126.776 62.4987C128.467 62.4827 130.16 62.52 131.843 62.48C132.464 62.464 132.523 62.7467 132.523 63.2453C132.523 63.744 132.475 64.016 131.848 64.0053C129.613 63.968 127.376 63.976 125.141 64.0053C124.608 64.0053 124.453 63.8293 124.459 63.312C124.48 60.8613 124.459 58.408 124.459 55.9573" fill="white"/>
<path fill-rule="evenodd" clip-rule="evenodd" d="M29.5065 55.9573C29.5065 53.504 29.5065 51.0507 29.5065 48.5973C29.5065 48.1067 29.6452 47.9307 30.1519 47.9333C32.3305 47.9547 34.5065 47.9627 36.6825 47.9333C37.3092 47.9333 37.2826 48.272 37.2852 48.7013C37.2879 49.1307 37.2985 49.4773 36.6772 49.464C35.0452 49.4293 33.4132 49.464 31.7812 49.4453C31.2985 49.4453 31.0985 49.576 31.1092 50.0933C31.1412 51.3787 31.1412 52.6649 31.1092 53.952C31.1092 54.448 31.2879 54.5653 31.7412 54.56C33.1919 54.5387 34.6452 54.5786 36.0959 54.5413C36.7439 54.5226 36.6665 54.9067 36.6825 55.3173C36.6985 55.728 36.6452 56.0346 36.0799 56.0213C34.6292 55.9867 33.1785 56.0213 31.7279 56C31.2505 56 31.1039 56.1493 31.1092 56.6213C31.1341 58.3706 31.1341 60.12 31.1092 61.8693C31.1092 62.352 31.2665 62.496 31.7359 62.4906C33.4292 62.4693 35.1225 62.5066 36.8025 62.4693C37.4265 62.4533 37.5332 62.7093 37.5252 63.2506C37.5172 63.792 37.4425 64.0053 36.8372 63.9946C34.6203 63.9573 32.4034 63.9573 30.1865 63.9946C29.5999 63.9946 29.4905 63.7813 29.4932 63.2586C29.5172 60.8266 29.4932 58.3947 29.4932 55.96" fill="white"/>
<path fill-rule="evenodd" clip-rule="evenodd" d="M138.283 62.8027C138.501 62.4747 138.709 62.16 138.925 61.8507C139.141 61.5413 139.387 61.7707 139.589 61.896C140.888 62.7077 142.455 62.9705 143.947 62.6267C144.936 62.4133 145.773 61.9707 146.08 60.9067C146.24 60.4233 146.249 59.9028 146.106 59.4142C145.963 58.9256 145.675 58.492 145.28 58.1707C144.565 57.5227 143.781 56.9547 143.027 56.3547C142.192 55.6907 141.307 55.0827 140.531 54.3573C140.021 53.9082 139.637 53.3352 139.414 52.6937C139.191 52.0523 139.138 51.3642 139.259 50.696C139.317 50.192 139.502 49.7108 139.795 49.2966C140.088 48.8824 140.48 48.5484 140.936 48.3253C143.195 47.2053 145.416 47.6107 147.683 48.576C147.541 48.904 147.416 49.1493 147.328 49.4107C147.187 49.832 146.971 49.8533 146.549 49.7387C145.603 49.472 144.632 49.32 143.667 49.1547C143.385 49.1261 143.101 49.1468 142.827 49.216C140.96 49.56 140.232 51.2747 141.392 52.7893C141.925 53.4933 142.685 54.048 143.384 54.6133C144.387 55.4133 145.483 56.12 146.437 56.976C148.304 58.648 148.357 61.4587 146.621 63.0213C146.426 63.1948 146.213 63.3485 145.987 63.48C143.936 64.688 140.408 64.4773 138.52 63.0373C138.443 62.9787 138.376 62.9067 138.253 62.8027" fill="white"/>
<path fill-rule="evenodd" clip-rule="evenodd" d="M72.3467 56.7413C72.3467 58.9307 72.32 61.1227 72.3627 63.3147C72.376 63.9973 72.0294 63.9813 71.544 63.9893C71.0587 63.9973 70.744 63.96 70.744 63.2987C70.7734 58.9573 70.76 54.6133 70.76 50.272C70.76 49.472 70.76 49.472 69.96 49.472C68.6907 49.472 67.4214 49.448 66.152 49.472C65.5707 49.4853 65.4907 49.2053 65.5067 48.7333C65.5227 48.2613 65.48 47.9173 66.1414 47.9333C69.768 47.9564 73.3947 47.9564 77.0214 47.9333C77.6907 47.9333 77.6294 48.3173 77.648 48.7547C77.672 49.24 77.568 49.4987 76.9947 49.4827C75.7067 49.4453 74.416 49.4987 73.128 49.4587C72.5334 49.4427 72.328 49.5947 72.328 50.2267C72.368 52.3973 72.344 54.568 72.344 56.7413" fill="white"/>
<path fill-rule="evenodd" clip-rule="evenodd" d="M100.533 19.912C100.533 21.68 100.547 23.448 100.533 25.2133C100.533 25.6907 100.688 25.848 101.157 25.84C102.123 25.8187 103.091 25.8773 104.056 25.84C107.04 25.7227 108.771 24.128 109.165 21.1787C109.651 17.5627 107.608 14.6453 104.125 14.0907C103.163 13.9387 102.157 14.048 101.173 14.0027C100.659 13.976 100.528 14.184 100.533 14.6693C100.557 16.416 100.533 18.1627 100.533 19.912ZM97.4561 19.864C97.4561 17.2293 97.4694 14.5947 97.4561 11.96C97.4561 11.4267 97.5894 11.2107 98.1601 11.208C99.9307 11.1947 101.704 11.056 103.475 11.0987C108.808 11.2267 112.509 15.2747 112.296 20.5947C112.192 23.24 111.405 25.528 109.176 27.1413C107.623 28.2546 105.754 28.8423 103.843 28.8187C101.933 28.8187 100.021 28.6613 98.1094 28.5893C97.5761 28.568 97.4561 28.3227 97.4587 27.8267C97.4827 25.16 97.4587 22.5173 97.4587 19.864" fill="white"/>
<path fill-rule="evenodd" clip-rule="evenodd" d="M46.6082 19.9627C46.5495 19.464 46.5255 18.96 46.4295 18.472C45.6135 14.312 40.6375 12.432 37.3949 15.0773C35.4029 16.704 34.8642 18.8853 35.3309 21.3227C35.7282 23.3813 36.9309 24.8747 38.9229 25.5893C42.8002 26.9893 46.5549 24.2053 46.6082 19.9547V19.9627ZM40.8535 10.9707C45.8215 10.9707 49.6669 14.84 49.6935 19.896C49.7202 24.952 45.8535 28.864 40.8935 28.872C35.9335 28.88 32.0695 24.984 32.0562 19.944C32.0429 14.904 35.8829 10.984 40.8562 10.9707" fill="white"/>
<path fill-rule="evenodd" clip-rule="evenodd" d="M137.637 16.7707C137.637 17.3333 137.637 17.896 137.637 18.4587C137.653 19.5253 137.429 19.5413 138.704 19.5253C139.269 19.5253 139.944 19.5627 140.384 19.288C140.879 18.9903 141.286 18.5665 141.563 18.0601C141.84 17.5536 141.978 16.9826 141.963 16.4053C141.963 15.3093 141.52 14.5573 140.459 14.272C139.659 14.0613 138.797 14.072 137.96 14.032C137.856 14.032 137.651 14.2987 137.645 14.4667C137.611 15.2293 137.629 15.992 137.627 16.7547L137.637 16.7707ZM142.784 21.176C143.851 22.48 144.859 23.7787 145.939 25.0213C146.252 25.3676 146.632 25.6466 147.056 25.8414C147.48 26.0362 147.939 26.1428 148.405 26.1547C148.861 26.1813 148.995 26.3867 148.957 26.808C148.915 27.3067 148.888 27.8107 148.885 28.312C148.885 28.6587 148.776 28.824 148.4 28.8267C146.491 28.8267 144.733 28.4267 143.453 26.8933C142.408 25.6453 141.411 24.3547 140.453 23.0373C140.31 22.8116 140.109 22.6285 139.87 22.5071C139.632 22.3856 139.366 22.3302 139.099 22.3467C137.627 22.3467 137.627 22.328 137.627 23.8293C137.627 25.216 137.627 26.6027 137.627 27.992C137.627 28.4453 137.515 28.656 137.019 28.6267C136.397 28.5936 135.774 28.5936 135.152 28.6267C134.691 28.648 134.571 28.4587 134.573 28.024C134.592 26.0533 134.573 24.0827 134.573 22.112C134.573 18.7547 134.573 15.3947 134.573 12.0373C134.573 11.504 134.709 11.2693 135.259 11.2613C136.888 11.24 138.531 11.0507 140.144 11.192C142.253 11.376 143.979 12.3707 144.752 14.4693C145.552 16.6507 145.019 18.6187 143.52 20.3573C143.416 20.48 143.304 20.5973 143.197 20.7147L142.787 21.176" fill="white"/>
<path fill-rule="evenodd" clip-rule="evenodd" d="M27.3385 10.6933C27.0532 11.5813 26.7705 12.4533 26.4665 13.392C25.9332 13.2533 25.4719 13.088 24.9839 13.008C23.5199 12.7653 22.0505 12.432 20.5785 12.3627C17.7439 12.2293 15.6212 13.7467 14.6425 16.3973C13.3092 20.016 14.8879 23.8773 18.3385 25.3867C20.1412 26.1867 22.0052 26.0133 23.8585 25.6533C24.5475 25.5038 25.2201 25.2868 25.8665 25.0053C26.3385 24.8133 26.5545 24.912 26.7225 25.3707C26.904 25.8612 27.1151 26.3403 27.3545 26.8053C27.5279 27.1547 27.4319 27.3387 27.1092 27.5307C25.8372 28.2907 24.4425 28.624 22.9865 28.808C20.0372 29.1867 17.3065 28.6987 14.8639 26.88C8.86387 22.4 10.1705 13.0667 16.3492 10.168C18.2585 9.27199 20.2905 9.14399 22.3252 9.45866C23.8879 9.69866 25.4212 10.1493 26.9652 10.5253C27.0953 10.5733 27.2204 10.634 27.3385 10.7067" fill="white"/>
<path fill-rule="evenodd" clip-rule="evenodd" d="M118.896 19.9307C118.896 17.264 118.909 14.5973 118.896 11.9093C118.896 11.352 119.075 11.192 119.624 11.1973C122.221 11.2204 124.82 11.2204 127.419 11.1973C127.995 11.1973 128.16 11.3947 128.123 11.9307C128.089 12.4519 128.089 12.9748 128.123 13.496C128.152 13.9733 127.963 14.128 127.496 14.1227C125.883 14.104 124.272 14.1387 122.661 14.104C122.091 14.104 121.925 14.2933 121.949 14.8347C121.987 15.6187 121.979 16.4027 121.949 17.1867C121.933 17.6347 122.104 17.784 122.547 17.7787C123.957 17.76 125.368 17.7973 126.779 17.76C127.371 17.744 127.579 17.952 127.52 18.5253C127.484 19.0465 127.484 19.5695 127.52 20.0907C127.544 20.5493 127.349 20.6747 126.915 20.6693C125.464 20.6507 124.013 20.6693 122.563 20.6693C122.139 20.6693 121.941 20.7627 121.949 21.2347C121.974 22.5413 121.974 23.848 121.949 25.1547C121.949 25.616 122.125 25.7307 122.557 25.7253C124.269 25.7067 125.981 25.7253 127.693 25.7093C128.179 25.7093 128.392 25.8293 128.36 26.3467C128.323 26.9467 128.341 27.552 128.36 28.1547C128.36 28.5147 128.227 28.6533 127.864 28.6533C125.043 28.6533 122.222 28.6533 119.403 28.6533C118.869 28.6533 118.909 28.3093 118.909 27.9653V19.9307" fill="white"/>
<path fill-rule="evenodd" clip-rule="evenodd" d="M56.2666 19.8587C56.2666 17.2489 56.2666 14.6373 56.2666 12.024C56.2666 11.2 56.2666 11.2 57.1173 11.2C57.6506 11.2 58.1653 11.2293 58.6879 11.2C59.2106 11.1707 59.3786 11.376 59.3733 11.8933C59.3519 14.3227 59.3733 16.7547 59.3733 19.1867C59.3733 21.1333 59.3733 23.0827 59.3733 25.032C59.3733 25.5653 59.5306 25.7227 60.0639 25.7147C61.9946 25.6853 63.9279 25.7147 65.8613 25.696C66.3546 25.696 66.5546 25.832 66.5253 26.3413C66.4906 26.9413 66.5093 27.5467 66.5253 28.1493C66.5253 28.5067 66.3786 28.6427 66.0159 28.64C62.9564 28.64 59.8959 28.64 56.8346 28.64C56.3306 28.64 56.3013 28.3733 56.3013 27.9947C56.3013 25.5627 56.3013 23.1316 56.3013 20.7013V19.8587" fill="white"/>
<path fill-rule="evenodd" clip-rule="evenodd" d="M71.5732 19.9173V12.08C71.5732 11.208 71.5732 11.208 72.4746 11.208C72.9786 11.208 73.4852 11.2347 73.9866 11.208C74.4879 11.1813 74.6346 11.3893 74.6319 11.8747C74.6106 13.8827 74.6319 15.8933 74.6319 17.9013C74.6319 20.2747 74.6479 22.6453 74.6319 25.016C74.6319 25.576 74.8052 25.728 75.3546 25.72C77.2852 25.6907 79.2213 25.72 81.1519 25.7013C81.6133 25.7013 81.8133 25.824 81.7866 26.312C81.7519 26.9333 81.7706 27.5573 81.7866 28.1787C81.7866 28.512 81.6506 28.6427 81.3173 28.6427C78.2381 28.6427 75.1572 28.6427 72.0746 28.6427C71.5732 28.6427 71.6026 28.3333 71.6026 28V19.9173" fill="white"/>
<path fill-rule="evenodd" clip-rule="evenodd" d="M89.8666 19.9386C89.8666 22.6053 89.8666 25.272 89.8666 27.9546C89.8666 28.472 89.736 28.6826 89.192 28.6453C88.589 28.608 87.9843 28.608 87.3813 28.6453C86.9199 28.6666 86.7973 28.48 86.8 28.0453C86.8186 26.136 86.8 24.2266 86.8 22.32C86.8 18.8533 86.8 15.408 86.7866 11.952C86.7866 11.384 86.928 11.152 87.5253 11.2C88.1076 11.2426 88.6923 11.2426 89.2746 11.2C89.808 11.1653 89.856 11.4427 89.8533 11.8613C89.8533 14.5547 89.8533 17.2453 89.8533 19.9386" fill="white"/>
</g>
<defs>
<clipPath id="clip0_144_341">
<rect width="160" height="64.2667" fill="white"/>
</clipPath>
</defs>
</svg>
