<svg xmlns="http://www.w3.org/2000/svg" xmlns:xlink="http://www.w3.org/1999/xlink" width="789.27016" height="236.97963" viewBox="0 0 789.27016 236.97963">
  <defs>
    <style>
      .cls-1 {
        isolation: isolate;
      }

      .cls-2 {
        fill: #333;
      }

      .cls-3 {
        fill: #4d4d4d;
      }

      .cls-4 {
        fill: gray;
      }

      .cls-5 {
        fill: #999;
      }

      .cls-10, .cls-11, .cls-12, .cls-6, .cls-7, .cls-8, .cls-9 {
        opacity: 0.7;
      }

      .cls-6 {
        fill: url(#Fade_to_Black);
      }

      .cls-7 {
        fill: url(#Fade_to_Black-2);
      }

      .cls-8 {
        fill: url(#Fade_to_Black-3);
      }

      .cls-9 {
        fill: url(#Fade_to_Black-4);
      }

      .cls-10, .cls-11, .cls-12 {
        mix-blend-mode: darken;
      }

      .cls-10 {
        fill: url(#Fade_to_Black-5);
      }

      .cls-11 {
        fill: url(#Fade_to_Black-6);
      }

      .cls-12 {
        fill: url(#Fade_to_Black-7);
      }
    </style>
    <linearGradient id="Fade_to_Black" data-name="Fade to Black" x1="81.75901" y1="101.39969" x2="80.03136" y2="66.84654" gradientUnits="userSpaceOnUse">
      <stop offset="0"/>
      <stop offset="0.08963" stop-opacity="0.79752"/>
      <stop offset="1" stop-opacity="0"/>
    </linearGradient>
    <linearGradient id="Fade_to_Black-2" x1="53.31456" y1="121.86663" x2="31.02747" y2="99.57954" xlink:href="#Fade_to_Black"/>
    <linearGradient id="Fade_to_Black-3" x1="103.97536" y1="124.18828" x2="130.75471" y2="151.83149" xlink:href="#Fade_to_Black"/>
    <linearGradient id="Fade_to_Black-4" x1="119.26657" y1="121.8561" x2="142.15774" y2="94.64585" xlink:href="#Fade_to_Black"/>
    <linearGradient id="Fade_to_Black-5" x1="116.26693" y1="111.60789" x2="98.26961" y2="102.53751" xlink:href="#Fade_to_Black"/>
    <linearGradient id="Fade_to_Black-6" x1="105.54583" y1="173.49286" x2="91.42191" y2="166.37462" xlink:href="#Fade_to_Black"/>
    <linearGradient id="Fade_to_Black-7" x1="171.62347" y1="203.96214" x2="145.734" y2="190.91425" xlink:href="#Fade_to_Black"/>
  </defs>
  <g class="cls-1">
    <g id="Layer_1" data-name="Layer 1">
      <g>
        <path class="cls-2" d="M351.05636,159.58789a93.34656,93.34656,0,0,1-25.89806,3.62171q-48.56427,0-48.56248-44.96591,0-42.56041,48.56248-42.55861a93.61514,93.61514,0,0,1,25.89806,3.6217v5.43615a89.02615,89.02615,0,0,0-24.60462-3.62172q-43.05624,0-43.058,37.12248,0,39.53694,43.058,39.53335a89.161,89.161,0,0,0,24.60462-3.62171Z"/>
        <path class="cls-2" d="M412.7626,157.77452q38.32969,0,38.33329-38.56684,0-38.08717-38.33329-38.08538-39.0411,0-39.04111,38.08538,0,38.56685,39.04111,38.56684M366.27329,119.567q0-43.87542,46.48931-43.88082,45.78331,0,45.7779,43.88082,0,43.6491-45.7779,43.64011-46.48932,0-46.48931-43.64011"/>
        <path class="cls-2" d="M474.079,159.58789v-6.03258a115.04207,115.04207,0,0,0,32.11385,4.22173q28.42935,0,28.42751-21.12661,0-14.476-18.90613-14.48323h-20.329q-25.84236,0-25.837-21.13019,0-25.34656,37.23025-25.35193a124.49308,124.49308,0,0,1,30.10541,3.6217v5.43615a124.31512,124.31512,0,0,0-30.10541-3.62172q-30.42883,0-30.43238,19.9158,0,15.09042,19.03909,15.094h20.329q25.70223,0,25.704,20.5194,0,26.55916-35.22539,26.55917a132.92822,132.92822,0,0,1-32.11385-3.62171"/>
      </g>
      <rect class="cls-2" x="559.54401" y="76.28976" width="6.80149" height="86.31729"/>
      <polygon class="cls-2" points="585.77 162.608 585.77 76.291 592.572 76.291 634.333 155.182 673.503 76.291 679.655 76.291 679.655 162.608 673.503 162.608 673.503 87.94 636.726 162.608 631.16 162.608 591.922 87.336 591.922 162.608 585.77 162.608"/>
      <path class="cls-2" d="M742.33337,157.77452q38.3297,0,38.33326-38.56684,0-38.08717-38.33326-38.08538-39.04113,0-39.04472,38.08538,0,38.56685,39.04472,38.56684M695.84406,119.567q0-43.87542,46.48931-43.88082,45.78327,0,45.7779,43.88082,0,43.6491-45.7779,43.64011-46.48936,0-46.48931-43.64011"/>
      <path class="cls-2" d="M769.86939,236.97963q19.39737,0,19.40077-14.35362,0-13.69833-15.22505-13.70531h-7.39633q-5.43756,0-5.4375-4.56611,0-4.77873,9.35526-4.78221a43.98065,43.98065,0,0,1,16.52865,3.04639v-9.5714a49.626,49.626,0,0,0-16.22889-2.61419q-20.307,0-20.314,14.36059,0,13.69834,13.92148,13.69834h8.26772q4.9983,0,4.9984,4.57308,0,4.77873-7.43824,4.78222a47.11846,47.11846,0,0,1-17.57438-3.0464v9.57141a52.60082,52.60082,0,0,0,17.14209,2.60721m-42.13365-37.0587q9.56786,0,9.5644,9.48078v.34856H717.81575q.78422-9.82933,9.92-9.82934M706.2854,213.18706q0,23.36036,24.83827,23.36036a70.86748,70.86748,0,0,0,14.70916-1.30361v-9.13919a74.39731,74.39731,0,0,1-13.83776,1.31058q-14.17938,0-14.17932-9.662h30.31758a40.54711,40.54711,0,0,0,.39038-5.65361q0-21.22719-20.788-21.22719-21.44688,0-21.45034,22.3147M694.783,236.54742v-31.0147q5.09242-5.35386,11.53035-5.35385v-9.30651q-6.70284,0-12.7015,5.82789l-1.436-5.82789h-8.92308v45.67506Zm-29.237-45.67506v31.8861q-5.82432,4.47549-11.43962,4.48246-6.6087,0-6.61567-7.57069V190.87236H635.96735V219.97q0,16.57394,14.00508,16.57742a27.60972,27.60972,0,0,0,16.70288-5.82789l1.39421,5.82789h9.0068V190.87236Zm-54.00556,33.364q0,12.30759,11.48844,12.31107h10.26857V227.4152h-4.69864q-5.53152,0-5.52812-6.39953V200.00458h10.22676v-9.13222H621.80888l-1.74279-7.3964h-8.52568ZM575.855,236.54742v-31.8861q5.35379-4.48594,10.96562-4.48245,7.51834,0,7.52185,7.57068v28.79787h11.53035V207.74955q0-16.87719-16.22889-16.87719-8.3967,0-14.96008,6.69929l-1.43612-6.69929h-8.91606v45.67506Zm-36.508-36.62649q9.57838,0,9.57142,9.48078v.34856H529.43406q.78423-9.82933,9.913-9.82934m-21.44332,13.26613q0,23.36036,24.83828,23.36036a70.749,70.749,0,0,0,14.70213-1.30361v-9.13919a74.32293,74.32293,0,0,1-13.83074,1.31058q-14.17936,0-14.17932-9.662h30.31758a40.56391,40.56391,0,0,0,.39038-5.65361q0-21.22719-20.795-21.22719-21.44688,0-21.44332,22.3147M490.779,236.54742H501.7446l18.57119-45.67506H508.1371l-11.53024,31.92793-11.09114-31.92793H473.337Z"/>
      <g>
        <polygon class="cls-3" points="55.859 164.905 58.448 89.755 164.122 136.938 164.069 213.095 55.859 164.905"/>
        <polygon class="cls-4" points="80.342 147.049 0 110.772 62.196 43.644 142.538 79.921 80.342 147.049"/>
        <polygon class="cls-5" points="171.04 103.34 115.169 160.354 115.169 57.014 171.04 0 171.04 103.34"/>
        <polygon class="cls-4" points="160.711 183.515 80.371 147.231 147.748 74.922 228.09 111.204 160.711 183.515"/>
        <polygon class="cls-3" points="50.459 90.975 50.89 13.229 164.338 61.28 163.91 139.026 50.459 90.975"/>
        <path class="cls-6" d="M110.61611,62.974c-.74192-.09851-35.57232,38.86949-35.57232,38.86949l-24.5844-10.8689.7168-70.51109Z"/>
        <path class="cls-7" d="M55.15144,135.69885c16.84562-24.40049,19.89235-33.85532,19.89235-33.85532l-24.5844-10.8689L.21268,110.51707Z"/>
        <polygon class="cls-5" points="82.403 148.239 111.577 116.842 111.577 60.773 111.291 61.064 111.291 60.773 51.394 122.106 51.394 220.906 110.334 160.797 82.403 148.239"/>
        <path class="cls-8" d="M111.48593,117.02774c-.745-.10216-29.08267,31.211-29.08267,31.211l53.17615,23.75966,28.02313-32.57784Z"/>
        <path class="cls-9" d="M111.577,60.77287c-.744-.099-.0366,56.1863-.0366,56.1863l52.36921,22.0668.42859-77.74586Z"/>
        <path class="cls-10" d="M111.577,60.77287c-.744-.099,0,56.06944,0,56.06944l-26.226,27.65583-12.85149-44.0572Z"/>
        <path class="cls-11" d="M82.53954,148.46191c-.74192-.09851,27.79467,12.33491,27.79467,12.33491L90.4586,180.99843,76.20334,154.798Z"/>
        <path class="cls-12" d="M163.89914,184.87507c-.743-.098.16977,28.22025.16977,28.22025l-34.85445-15.31254-12.82434-25.2159Z"/>
      </g>
    </g>
  </g>
</svg>