<svg width="140" height="87" viewBox="0 0 140 87" fill="none" xmlns="http://www.w3.org/2000/svg">
<g clip-path="url(#clip0_144_421)">
<path d="M0 50.5786V71.4981H4.88685V63.7869H12.5952V59.1292H4.88685V55.0587H12.5952V50.5786H0Z" fill="#00C7FF"/>
<path d="M15.812 50.5786V55.0616C15.812 55.0616 20.9853 54.1564 20.9853 50.5815L15.812 50.5786Z" fill="#00C7FF"/>
<path d="M15.812 59.1349V71.4982H20.9853V57.5594C20.9853 57.5594 19.0289 59.1349 15.812 59.1349Z" fill="#00C7FF"/>
<path d="M37.1615 63.7095C37.1615 63.7095 41.0114 61.8791 41.0114 57.5594C41.0114 53.2397 38.0466 50.5786 32.4007 50.5786H25.5889V71.2776H30.1721V64.5288H32.5382L36.4167 71.4981H41.6215L37.1615 63.7095ZM33.598 60.3351H30.2867V55.0616H33.598C33.598 55.0616 36.2792 55.0071 36.2792 57.6998C36.2792 60.3924 33.598 60.3351 33.598 60.3351Z" fill="#00C7FF"/>
<path d="M88.204 83.7726C88.584 83.5767 88.9043 83.282 89.1311 82.9196C89.3579 82.5572 89.4829 82.1404 89.493 81.713C89.493 80.2807 88.4991 79.3755 86.6085 79.3755H84.3169V86.3077H85.8465V84.0476H86.64L87.9376 86.3821H89.6821L88.204 83.7726ZM87.0095 82.6439H85.9009V80.8766H87.0095C87.1298 80.8697 87.2502 80.8875 87.3634 80.9288C87.4765 80.9701 87.5801 81.0341 87.6677 81.1168C87.7553 81.1996 87.825 81.2993 87.8727 81.4099C87.9204 81.5206 87.945 81.6398 87.945 81.7603C87.945 81.8807 87.9204 81.9999 87.8727 82.1106C87.825 82.2212 87.7553 82.321 87.6677 82.4037C87.5801 82.4864 87.4765 82.5504 87.3634 82.5917C87.2502 82.633 87.1298 82.6508 87.0095 82.6439Z" fill="white"/>
<path d="M53.5923 57.1813L57.6599 54.8467C56.9586 53.3913 55.8557 52.1669 54.4812 51.3178C53.1068 50.4686 51.5182 50.0303 49.9028 50.0544C44.1738 50.0544 42.9965 53.9015 42.9965 56.5511C42.9965 59.2008 44.5433 61.501 48.863 62.8244C53.1827 64.1478 53.4462 64.8296 53.4462 65.4741C53.4462 66.1186 53.0681 67.21 50.5817 67.21C48.0953 67.21 46.8292 65.6316 46.136 64.2767L42.0054 66.7373C42.0054 66.7373 43.7241 71.9393 50.4557 71.9393C57.1873 71.9393 58.2787 67.4305 58.2787 65.222C58.2787 63.0135 56.7318 60.5872 53.0108 59.3555C49.2898 58.1237 47.7459 57.8115 47.7459 56.3936C47.7459 54.9756 49.1982 54.8152 50.1119 54.8152C51.0257 54.8152 52.647 55.1303 53.5923 57.1813Z" fill="#00C7FF"/>
<path d="M109.682 81.6586L110.985 80.9109C110.76 80.4451 110.407 80.0531 109.967 79.7811C109.527 79.5091 109.019 79.3684 108.502 79.3756C106.663 79.3756 106.29 80.6073 106.29 81.4552C106.29 82.3031 106.786 83.0421 108.167 83.4604C109.547 83.8786 109.63 84.1049 109.63 84.3197C109.63 84.5345 109.51 84.8726 108.714 84.8726C108.409 84.8758 108.11 84.7885 107.855 84.6218C107.6 84.455 107.401 84.2163 107.281 83.9359L105.958 84.7236C105.958 84.7236 106.514 86.3879 108.665 86.3879C110.816 86.3879 111.169 84.9556 111.169 84.2366C111.169 83.5176 110.673 82.7528 109.481 82.3604C108.29 81.9679 107.806 81.8648 107.806 81.4122C107.806 80.9596 108.27 80.9052 108.562 80.9052C108.803 80.9016 109.04 80.9718 109.24 81.1065C109.44 81.2411 109.594 81.4338 109.682 81.6586Z" fill="white"/>
<path d="M59.2695 50.5786V55.0587H64.6319V71.6557H69.6763V55.0587H74.8181V50.5786H59.2695Z" fill="#00C7FF"/>
<path d="M78.0322 50.5786V71.4036H82.8589V59.4844L88.3445 68.0922L94.0534 59.4213V71.6557H98.9718V50.5786H93.9589L88.502 59.7049L82.7329 50.5786H78.0322Z" fill="white"/>
<path d="M108.118 50.5786H103.294V71.4351H108.118V50.5786Z" fill="white"/>
<path d="M112.28 50.5786V71.4351H124.643V66.9264H117.075V50.5786H112.28Z" fill="white"/>
<path d="M126.946 50.5786V71.4351H140V66.8633H131.55V63.1108H139.181V58.6336H131.518V55.0358H140V50.5786H126.946Z" fill="white"/>
<path d="M95.7661 79.3842V86.3821H100.149V84.8496H97.3129V83.5893H99.8738V82.0883H97.3015V80.8794H100.149V79.3842H95.7661Z" fill="white"/>
<path d="M26.8721 79.4901L29.4415 86.3821H31.5355L33.8328 79.4901H31.8277L30.4212 84.4915L28.7884 79.4901H26.8721Z" fill="white"/>
<path d="M39.2407 79.4901V86.3821H43.8125V84.8954H40.9737V83.4546H43.589V82.0367H41.0196V80.931H43.8125V79.4901H39.2407Z" fill="white"/>
<path d="M50.1201 79.4901V86.3821H51.6755V82.6898L54.4684 86.3821H55.7317V79.4901H54.2593V83.3572L51.3375 79.4901H50.1201Z" fill="white"/>
<path d="M61.4292 79.4901V80.888H63.2338V86.3821H64.8981V80.8192H66.7028V79.4901H61.4292Z" fill="white"/>
<path d="M72.3115 79.4901V84.8066C72.3115 84.8066 72.2886 86.6313 75.176 86.6313C78.0635 86.6313 77.9231 84.8066 77.9231 84.8066V79.4901H76.233V84.2796C76.233 84.2796 76.1443 85.0444 75.1188 85.0444C74.0933 85.0444 74.0045 84.2796 74.0045 84.2796V79.4901H72.3115Z" fill="white"/>
<path d="M26.7715 43.1424H39.5386L54.8179 28.2527L61.7414 35.1733L68.4873 28.6107L54.8179 14.9413L26.7715 43.1424Z" fill="#00C7FF"/>
<path d="M55.9956 13.764L69.7596 0L83.4806 13.7239L76.9151 20.3294L69.7596 13.1739L62.6441 20.2893L55.9956 13.764Z" fill="#00C7FF"/>
<path d="M84.7008 14.9413L63.2056 36.4337L69.92 43.1481L84.6923 28.3787L99.5848 43.2713H112.816L84.7008 14.9413Z" fill="white"/>
</g>
<defs>
<clipPath id="clip0_144_421">
<rect width="140" height="86.6313" fill="white"/>
</clipPath>
</defs>
</svg>
