<svg width="178" height="70" viewBox="0 0 178 70" fill="none" xmlns="http://www.w3.org/2000/svg">
<g clip-path="url(#clip0_373_611)">
<path d="M177.296 0.0478724V69.9837C177.121 69.9895 176.946 69.999 176.771 69.999H0V0H0.558193C59.2817 0 118.005 0 176.729 0C176.917 0.0019149 177.107 0.0325532 177.296 0.0478724ZM175.221 2.04319H2.00777V67.953H175.221V2.04319Z" fill="white"/>
<path d="M83.542 15.4159C84.4353 15.4159 85.296 15.3843 86.151 15.436C86.4009 15.4513 86.6393 15.6993 86.8758 15.8525C87.075 15.9818 87.2588 16.1292 87.4503 16.2642C89.5854 14.4968 92.3333 14.7849 94.1132 16.9641C95.017 16.0124 96.0942 15.3766 97.4107 15.1938C100.063 14.8252 101.802 16.5687 101.766 18.8723C101.701 23.0745 101.748 27.2777 101.748 31.48V32.1109H98.0636V31.5365C98.0636 27.5248 98.0636 23.5134 98.0636 19.5023C98.0636 18.4817 97.6807 17.8344 96.9769 17.6372C96.1105 17.3959 95.0075 17.8095 94.5555 18.5764C94.4598 18.7392 94.4483 18.968 94.4483 19.1662C94.4426 23.2737 94.441 27.3808 94.4435 31.4876V32.0966H90.7736V31.5585C90.7736 27.5149 90.7736 23.4716 90.7736 19.4286C90.7736 18.2883 90.225 17.6094 89.2292 17.5663C88.8772 17.5487 88.5257 17.6115 88.2015 17.75C87.8773 17.8886 87.589 18.0992 87.3584 18.3658C87.233 18.5046 87.209 18.7718 87.209 18.9805C87.2001 23.1511 87.1979 27.3218 87.2023 31.4924V32.11H83.542V15.4159Z" fill="white"/>
<path d="M63.5887 31.2846C62.0788 32.3273 60.455 32.6365 58.7297 32.2344C57.237 31.8868 56.2461 30.5416 56.2451 29.0068C56.2451 25.5696 56.2451 22.132 56.2451 18.6942C56.2451 16.8137 57.6181 15.3536 59.5004 15.2474C61.0247 15.1602 62.4906 15.3326 63.8224 16.3839V10.0676H67.521V32.1454C66.6306 32.1454 65.7411 32.1904 64.8612 32.1205C64.574 32.0975 64.3068 31.7777 64.033 31.592C63.8827 31.4943 63.7429 31.3918 63.5887 31.2846ZM63.8511 23.8165V19.4257C63.8511 18.4577 63.762 18.3208 62.8649 17.9435C62.6888 17.8693 62.5078 17.8075 62.323 17.7587C60.8083 17.3585 59.9294 18.0307 59.9294 19.5923C59.9294 22.4238 59.9294 25.2543 59.9294 28.0839C59.925 28.3063 59.9433 28.5286 59.984 28.7474C60.1467 29.5181 60.6829 29.9471 61.4699 29.9691C62.2158 29.9901 62.8726 29.7402 63.4882 29.3439C63.7525 29.1734 63.8597 28.9609 63.8568 28.6325C63.8425 27.0268 63.8511 25.4202 63.8511 23.8146V23.8165Z" fill="white"/>
<path d="M89.7856 37.6009H93.4383V43.7544C94.234 43.4672 94.9932 43.1081 95.7917 42.9147C96.7894 42.6734 97.8158 42.6744 98.8087 43.021C99.4544 43.2398 100.016 43.654 100.416 44.2062C100.816 44.7584 101.034 45.4213 101.04 46.103C101.052 49.6047 101.052 53.1058 101.04 56.6062C101.033 58.4656 99.5631 59.8855 97.6272 59.9515C96.1268 60.0013 95.1589 59.7285 93.7121 58.8486C93.3024 59.1243 92.9203 59.5743 92.4828 59.6366C91.6105 59.762 90.7077 59.6739 89.7856 59.6739V37.6009ZM93.4536 51.3125V55.7014C93.4536 56.7623 93.5494 56.9011 94.5537 57.2841C94.7757 57.3695 95.0052 57.4336 95.2393 57.4756C96.5797 57.7063 97.3667 57.0467 97.3754 55.6967C97.3821 54.6147 97.3754 53.5338 97.3754 52.4519C97.3754 50.6394 97.3821 48.827 97.3754 47.0145C97.3696 45.7411 96.6601 45.068 95.4078 45.249C94.8601 45.3285 94.3374 45.6119 93.8175 45.8369C93.5302 45.9594 93.4421 46.2103 93.446 46.5387C93.468 48.1319 93.4536 49.7222 93.4536 51.3125V51.3125Z" fill="white"/>
<path d="M53.7204 32.109H50.0716V19.8891C50.0716 19.7618 50.0716 19.6344 50.0716 19.5061C50.0582 18.7957 49.9452 18.1111 49.2395 17.7521C48.5339 17.393 47.8101 17.5529 47.1475 17.9436C46.7061 18.2059 46.4601 18.5314 46.4658 19.1298C46.5013 23.2469 46.485 27.3725 46.485 31.4953V32.0966H42.8467V15.4274C43.7428 15.4274 44.6553 15.3441 45.54 15.4638C45.9613 15.5212 46.3299 15.9664 46.7435 16.2498C47.9547 15.2033 49.4004 14.987 50.9342 15.2359C52.5485 15.4973 53.7328 16.8109 53.7443 18.4453C53.7778 22.9328 53.7568 27.4204 53.7558 31.9079C53.7489 31.9757 53.7371 32.0429 53.7204 32.109V32.109Z" fill="white"/>
<path d="M36.6274 15.437H40.2849V32.1463C39.3916 32.1463 38.5155 32.1904 37.649 32.1214C37.3618 32.0985 37.0908 31.7873 36.816 31.6035C36.6715 31.5077 36.5336 31.3967 36.389 31.2904C35.0409 32.4326 33.4755 32.603 31.844 32.2306C30.4193 31.907 29.3814 30.5733 29.3767 29.1352C29.3613 24.6466 29.3719 20.1581 29.3767 15.6706C29.3811 15.5971 29.3894 15.5239 29.4015 15.4513H33.0399V15.9999C33.0399 19.9146 33.0399 23.8299 33.0399 27.7459C33.0365 28.032 33.0528 28.318 33.0887 28.6019C33.2074 29.4636 33.78 29.9509 34.6484 29.971C35.2707 29.9854 35.7973 29.7556 36.276 29.3822C36.3956 29.295 36.4913 29.1792 36.5543 29.0453C36.6174 28.9115 36.6458 28.7639 36.637 28.6162C36.6249 24.4303 36.622 20.2443 36.6284 16.0583L36.6274 15.437Z" fill="white"/>
<path d="M117.705 15.4159C118.598 15.4159 119.458 15.3843 120.313 15.436C120.563 15.4503 120.802 15.6964 121.039 15.8486C121.238 15.9769 121.422 16.1244 121.584 16.2383C123.256 15.0367 125.019 14.7447 126.867 15.6188C127.973 16.1416 128.582 17.1278 128.59 18.3437C128.624 22.8323 128.604 27.3217 128.603 31.8112C128.603 31.9069 128.584 31.9931 128.571 32.108H124.952V19.8575C124.952 19.7301 124.952 19.6028 124.952 19.4745C124.934 18.517 124.569 17.8765 123.911 17.6553C123.136 17.3949 121.951 17.7377 121.488 18.3945C121.383 18.5438 121.369 18.7775 121.369 18.9776C121.362 23.1482 121.361 27.3189 121.364 31.4895V32.108H117.705V15.4159Z" fill="white"/>
<path d="M81.0291 32.1492C80.1233 32.1492 79.2635 32.1875 78.4114 32.1262C78.1337 32.1061 77.8714 31.8284 77.6081 31.6599C77.4348 31.5489 77.272 31.4215 77.0834 31.2865C75.9881 32.2928 74.6525 32.4833 73.2536 32.3627C71.3665 32.2009 70.1802 30.8308 70.0558 28.9436C69.9102 26.7415 70.9289 25.2 72.6303 23.9955C73.92 23.0841 75.3782 22.5335 76.891 22.1266C77.2184 22.0385 77.3697 21.9265 77.3525 21.5598C77.3228 20.7651 77.3525 19.9685 77.3419 19.1729C77.3343 18.3054 76.9532 17.7922 76.1805 17.5854C75.2691 17.3403 74.371 17.6209 74.0244 18.3581C73.8214 18.7889 73.7611 19.2954 73.6845 19.7761C73.6366 20.0815 73.6759 20.4013 73.6759 20.7393H70.1467C69.7637 18.5515 70.7604 16.5064 72.6533 15.7356C74.7712 14.8739 76.9254 14.9189 79.0002 15.8927C80.355 16.5294 81.0348 17.6592 81.0319 19.1844C81.0243 23.3065 81.0243 27.428 81.0319 31.5489L81.0291 32.1492ZM77.3438 24.1842C75.5199 24.4427 73.8875 26.1527 73.764 27.8991C73.7132 28.6238 73.8214 29.3295 74.5041 29.7431C75.1867 30.1567 75.8818 30.0179 76.5492 29.6723C76.7384 29.5884 76.9072 29.4646 77.0442 29.3094C77.1849 29.1179 77.3257 28.8795 77.3314 28.6574C77.3601 27.5458 77.3438 26.4332 77.3438 25.3216V24.1842Z" fill="white"/>
<path d="M115.111 24.4015H107.966C107.953 24.5767 107.936 24.7146 107.936 24.8515C107.936 26.0301 107.93 27.2088 107.936 28.3864C107.941 29.4396 108.575 30.0323 109.675 30.0323C110.775 30.0323 111.408 29.4243 111.412 28.3816C111.412 27.9987 111.412 27.6214 111.412 27.204H115.051C115.381 29.4272 114.792 31.1602 112.324 31.9682C110.523 32.572 108.569 32.543 106.787 31.8859C105.069 31.2674 104.236 30.0265 104.236 28.2103V19.4707C104.236 17.3796 105.168 16.1024 107.204 15.5202C109.061 14.9879 110.921 15.0157 112.737 15.7165C114.156 16.2642 115.196 17.5644 115.13 19.2648C115.07 20.791 115.117 22.321 115.117 23.85L115.111 24.4015ZM111.386 22.2712C111.386 21.0782 111.439 19.935 111.368 18.7995C111.315 17.9282 110.557 17.4667 109.505 17.5251C108.554 17.5768 107.966 18.136 107.939 19.0389C107.921 19.6258 107.939 20.2136 107.939 20.8006C107.939 21.286 107.939 21.7714 107.939 22.2932C108.98 22.2932 109.949 22.2932 110.915 22.2932C111.051 22.2923 111.191 22.2808 111.386 22.2712V22.2712Z" fill="white"/>
<path d="M79.9604 48.3147H76.3958C76.0052 46.0351 77.0967 43.742 79.6224 43.0488C81.2615 42.592 83.0003 42.6401 84.6116 43.1867C86.0536 43.6654 87.3174 44.9206 87.2848 46.9322C87.2188 50.9898 87.2647 55.0494 87.2647 59.108V59.7141C86.3398 59.7141 85.4628 59.7543 84.5935 59.6911C84.3177 59.671 84.0592 59.378 83.7959 59.2047C83.6504 59.109 83.5087 59.0018 83.3335 58.8754C82.3224 59.8137 81.0739 60.0071 79.7516 59.9745C77.7908 59.9257 76.4322 58.4962 76.3048 56.544C76.1545 54.2078 77.2862 52.6414 79.1063 51.4284C80.4592 50.5274 81.9787 50.0123 83.5632 49.5881C83.5632 48.5053 83.6159 47.4253 83.5441 46.3529C83.4991 45.6684 82.9572 45.2471 82.2573 45.1398C81.3238 44.9981 80.6172 45.248 80.2754 45.9278C80.1108 46.2844 80.0069 46.6659 79.968 47.0567C79.9211 47.4607 79.9604 47.8753 79.9604 48.3147ZM83.5987 51.7558C81.6732 52.0986 80.1892 53.6831 80.0025 55.5377C79.902 56.5277 80.4132 57.3741 81.2472 57.5263C82.1366 57.6891 82.8748 57.3578 83.4819 56.7163C83.5522 56.6331 83.592 56.5284 83.5948 56.4195C83.5977 54.8761 83.5958 53.3327 83.5958 51.7558H83.5987Z" fill="white"/>
<path d="M142.099 20.7259C141.781 17.6036 143.506 15.5039 146.579 15.2272C148.111 15.0903 149.609 15.1698 151.001 15.8907C152.312 16.5705 153.011 17.641 153.011 19.1518C153.003 23.2893 153.003 27.4267 153.011 31.5642V32.1444C152.098 32.1444 151.199 32.2325 150.331 32.108C149.893 32.0448 149.509 31.5977 149.066 31.3009C147.934 32.3254 146.537 32.5044 145.074 32.3445C143.351 32.153 142.189 30.7724 142.054 29.0585C141.875 26.7607 142.922 25.1589 144.725 23.9257C145.987 23.064 147.406 22.5402 148.862 22.1218L149.341 21.9868C149.341 20.9537 149.373 19.935 149.329 18.923C149.298 18.1944 148.795 17.7051 148.071 17.5558C147.215 17.3786 146.375 17.6333 146.06 18.2882C145.842 18.7449 145.773 19.282 145.688 19.7914C145.637 20.0786 145.678 20.3898 145.678 20.7278L142.099 20.7259ZM149.338 24.1832C147.563 24.4321 146.082 25.9066 145.783 27.7028C145.652 28.4802 145.739 29.2347 146.446 29.7134C147.154 30.1922 147.908 30.0179 148.617 29.6292C148.777 29.5566 148.919 29.4498 149.033 29.3161C149.167 29.1246 149.321 28.8862 149.321 28.666C149.348 27.472 149.334 26.2781 149.334 25.0832L149.338 24.1832Z" fill="white"/>
<path d="M21.8788 18.9393H26.8145V21.6278H21.8511V32.1282H18.0845V10.0599H28.5532L28.0745 12.713H21.8788V18.9393Z" fill="white"/>
<path d="M113.278 48.2774H110.234C110.194 47.7279 110.172 47.1927 110.114 46.6613C109.983 45.4568 109.32 44.9178 108.153 45.0441C107.231 45.1399 106.683 45.9279 107.031 46.8461C107.276 47.48 107.64 48.0614 108.103 48.5589C109.103 49.6255 110.209 50.5906 111.236 51.6352C112.097 52.5161 112.814 53.5118 113.198 54.7048C113.942 57.0132 112.765 59.1703 110.412 59.7582C109.046 60.1127 107.609 60.0795 106.261 59.6625C104.622 59.1531 103.585 57.7552 103.687 56.1266C103.721 55.5914 103.687 55.0514 103.687 54.4626H106.72C106.77 55.0878 106.786 55.6594 106.866 56.2233C107.02 57.3301 107.645 57.8069 108.748 57.7045C109.657 57.6202 110.176 56.9232 109.978 56.0328C109.799 55.2237 109.308 54.5966 108.734 54.0346C107.8 53.1231 106.801 52.27 105.933 51.2992C105.22 50.5006 104.537 49.6274 104.049 48.6805C102.709 46.0763 103.997 43.5026 106.868 42.909C108.074 42.6533 109.325 42.6957 110.512 43.0325C112.307 43.5419 113.271 44.8201 113.271 46.6708L113.278 48.2774Z" fill="white"/>
<path d="M63.8252 59.6816V37.6076H67.6042V56.9825H74.3188C74.1628 57.8002 74.0029 58.5614 73.8794 59.3292C73.8344 59.6165 73.7195 59.6902 73.4456 59.6873C72.2182 59.6739 70.9907 59.6816 69.7623 59.6816H63.8252Z" fill="white"/>
<path d="M139.575 29.7585C139.575 30.2132 139.585 30.7322 139.566 31.2492C139.544 31.3712 139.479 31.4816 139.384 31.5613C137.994 32.8682 134.638 32.6059 133.519 31.1046C132.901 30.2755 132.724 29.3104 132.722 28.3089C132.713 25.0784 132.722 21.848 132.722 18.6176V18.1283H131.122V15.4475H132.708V13.2722H136.41V15.4168H139.544V18.0977H136.454C136.441 18.3102 136.425 18.4807 136.425 18.6434C136.425 21.8423 136.419 25.0401 136.43 28.239C136.426 28.5557 136.476 28.8708 136.578 29.1706C136.762 29.6771 137.153 29.9902 137.709 29.9576C138.315 29.9241 138.922 29.8312 139.575 29.7585Z" fill="white"/>
<path d="M155.52 32.1205V10.0753H159.158V32.1205H155.52Z" fill="white"/>
</g>
<defs>
<clipPath id="clip0_373_611">
<rect width="177.296" height="70" fill="white"/>
</clipPath>
</defs>
</svg>
