<svg width="140" height="40" viewBox="0 0 140 40" fill="none" xmlns="http://www.w3.org/2000/svg">
<g clip-path="url(#clip0_144_449)">
<path fill-rule="evenodd" clip-rule="evenodd" d="M140 38.2514C139.397 38.2618 138.783 38.2792 138.187 38.2809L129.862 38.2914H128.645C128.408 37.5733 128.499 37.2169 129.352 37.1577C130.834 37.0586 131.507 36.3267 131.666 34.8505C131.694 34.6504 131.71 34.449 131.717 34.2472C131.703 28.9128 131.694 23.5785 131.663 18.2511C131.65 17.703 131.572 17.1584 131.43 16.6289C131.065 15.1858 130.009 14.3321 128.521 14.1947C125.795 13.9531 123.827 15.1545 122.469 17.4218C121.585 18.8923 121.117 20.5747 121.113 22.2901C121.075 26.2405 121.075 30.1908 121.113 34.1411C121.128 36.278 121.685 36.8848 123.801 37.1943C124.578 37.3073 124.289 37.7941 124.294 38.2375H112.953C112.779 37.6098 112.779 37.2134 113.676 37.1682C115.712 37.0639 116.535 36.1858 116.542 34.1498C116.562 28.7865 116.562 23.4226 116.542 18.0581C116.534 17.512 116.459 16.9689 116.319 16.4411C116.02 15.2588 115.237 14.5703 114.02 14.3877C113.673 14.3373 113.335 14.2921 112.937 14.2365V13.3671L121.046 12.9272V17.6791L121.187 17.726C121.332 17.4687 121.479 17.2044 121.622 16.9523C122.654 15.1055 124.313 13.6893 126.299 12.9602C128.286 12.2311 130.467 12.2373 132.449 12.9777C134.634 13.7966 135.693 15.4814 136.02 17.6843C136.15 18.5972 136.215 19.5181 136.215 20.4402C136.234 24.6217 136.215 28.8033 136.224 32.9849C136.224 33.3013 136.224 33.6195 136.236 33.9359C136.314 36.2745 137.009 36.9891 139.352 37.2082C139.573 37.2493 139.79 37.3116 140 37.3942V38.2514Z" fill="white"/>
<path fill-rule="evenodd" clip-rule="evenodd" d="M65.3296 0C65.3418 0.403378 65.3661 0.806756 65.3661 1.21709C65.3661 11.8544 65.3661 22.4912 65.3661 33.1274C65.3661 33.4752 65.3661 33.8229 65.3852 34.1706C65.5209 36.3023 66.2355 37.0638 68.3671 37.1925C69.1878 37.2429 69.1565 37.6515 69.0278 38.2479H60.882V36.9769C60.882 26.802 60.882 16.6266 60.882 6.45057C60.8876 5.81679 60.8539 5.18327 60.7812 4.55365C60.5656 2.83408 59.6962 1.9456 57.9767 1.80651C57.2047 1.74218 57.0221 1.45877 57.2551 0.730253C58.0723 0.730253 58.9016 0.771982 59.724 0.719821C61.2767 0.622454 62.8276 0.481619 64.3751 0.328614C64.6446 0.300795 64.8967 0.123448 65.1592 0.0156483L65.3296 0Z" fill="white"/>
<path fill-rule="evenodd" clip-rule="evenodd" d="M92.5858 0.368591V1.27619C92.5858 11.6852 92.5858 22.0954 92.5858 32.5067C92.5692 33.2267 92.6193 33.9467 92.7353 34.6575C93.0465 36.304 93.822 36.9804 95.4703 37.1821C96.3188 37.2846 96.3188 37.2846 96.1866 38.1418L88.06 38.5852V37.768C88.06 31.3348 88.0426 24.9016 88.0704 18.4684C88.0791 16.422 87.0272 15.0832 85.3093 14.2486C82.7413 13.0037 79.8811 13.8157 78.2572 16.1612C77.214 17.6617 76.6558 19.3604 76.4037 21.1443C75.8769 24.9155 75.8074 28.6885 76.8506 32.3833C77.1489 33.4357 77.6258 34.4291 78.2607 35.3199C79.9402 37.6585 83.0282 38.121 85.4241 36.5161C85.5423 36.4379 85.6623 36.3649 85.7875 36.2849C86.1839 37.2342 86.0796 37.5733 85.2659 38.0566C81.4668 40.3169 75.703 38.7817 73.2828 34.8783C72.0379 32.8666 71.4989 30.6393 71.3111 28.3147C71.0694 25.305 71.1372 22.3197 72.2674 19.4473C74.2043 14.5546 78.6901 11.877 83.7428 12.5969C85.2294 12.809 85.9075 13.1689 88.0895 14.9319V12.4804C88.0895 10.3174 88.0895 8.15448 88.0895 5.99154C88.0943 5.47316 88.0535 4.95537 87.9678 4.4441C87.6288 2.61673 86.8776 1.95081 85.012 1.75607C84.8382 1.73695 84.6765 1.71434 84.4643 1.68652V0.817176L92.5858 0.368591Z" fill="white"/>
<path fill-rule="evenodd" clip-rule="evenodd" d="M18.178 23.5767H30.0793C30.2723 24.1592 30.2063 24.533 29.4013 24.6304C28.3372 24.7608 27.9094 25.1885 27.8364 26.2717C27.7269 28.1408 27.706 30.0151 27.6852 31.8895C27.6608 33.9081 27.6695 35.9267 27.6852 37.9471C27.6852 38.4183 27.6 38.7243 27.0557 38.7556C22.4917 39.0042 17.9067 39.4389 13.3652 38.8373C6.41045 37.9175 2.14368 33.9463 0.648399 27.0767C-0.570428 21.4503 -0.174005 15.9265 2.65138 10.7799C6.82425 3.16616 14.9961 1.92994 20.2279 3.806C21.8049 4.36934 23.2219 5.39865 24.6703 6.28364C25.6874 6.90436 26.0612 6.82612 26.3985 5.6751C26.5724 5.07177 26.6698 4.45801 26.8071 3.80774H27.8729C27.8729 4.47714 27.8729 5.10133 27.8729 5.72031C27.8521 8.54743 27.8266 11.3746 27.7964 14.2017C27.7964 14.5651 27.9564 15.0397 27.2887 15.0867C26.6889 15.1301 26.4889 14.8815 26.4055 14.3199C26.2699 13.4088 26.0751 12.5047 25.8543 11.6093C24.8302 7.48856 21.5232 4.68404 17.2686 4.17286C13.1462 3.66864 10.1226 5.29954 7.97006 8.71087C6.20354 11.5032 5.45068 14.6381 5.20205 17.8912C4.88735 22.0206 4.9708 26.1378 6.14442 30.1577C6.38051 30.9597 6.68413 31.7403 7.05202 32.491C8.45515 35.3599 10.639 37.2446 13.939 37.4411C15.749 37.5489 17.5764 37.4533 19.3881 37.3438C19.9932 37.3055 20.6052 36.9856 21.1703 36.7161C22.4778 36.1006 23.095 35.0869 23.0289 33.6003C22.9472 31.7278 23.0289 29.8482 22.9524 27.9774C22.8551 25.6475 22.2309 25.006 19.9184 24.6582C19.5707 24.6061 19.2229 24.6043 18.8752 24.5782C18.0319 24.5104 18.0058 24.4826 18.1797 23.5767" fill="white"/>
<path fill-rule="evenodd" clip-rule="evenodd" d="M50.6916 25.2285C50.6133 24.2514 50.549 22.6639 50.3438 21.0939C50.0743 19.0492 49.5527 17.0705 48.1931 15.4275C46.1344 12.9394 42.5701 12.8803 40.6228 15.4501C39.7818 16.5804 39.172 17.8654 38.8284 19.2317C37.8322 23.1977 37.8947 27.2297 38.5607 31.2496C38.8615 33.0631 39.43 34.7809 40.661 36.2067C42.6831 38.5556 46.1257 38.5904 48.087 36.1927C48.7618 35.333 49.2937 34.3702 49.6623 33.3413C50.5612 30.9297 50.6012 28.3738 50.6916 25.2285ZM33.082 25.3172C33.4106 23.6306 33.5845 21.4068 34.2904 19.3674C36.1074 14.1269 40.4159 12.1587 45.2947 12.5308C50.5473 12.9324 53.7708 15.7856 54.9827 20.927C55.7492 24.1413 55.7445 27.4915 54.9688 30.7037C53.6387 36.2675 49.8187 39.1085 43.9089 39.0181C38.658 38.9399 34.8155 35.7146 33.7253 30.3664C33.4211 28.8763 33.3324 27.3428 33.082 25.3241" fill="white"/>
<path fill-rule="evenodd" clip-rule="evenodd" d="M110.407 38.2514H98.7025C98.4521 37.3055 98.473 37.2742 99.4518 37.196C101.375 37.043 102.251 36.2136 102.265 34.275C102.303 28.8241 102.324 23.3716 102.253 17.9208C102.223 15.7683 101.47 14.4434 99.0659 14.3095C98.9182 14.2877 98.7727 14.2528 98.6312 14.2052V13.3758L106.803 12.9377V13.7653C106.803 20.1973 106.803 26.6305 106.803 33.0648C106.803 33.4404 106.803 33.8159 106.824 34.1898C106.932 36.2762 107.646 37.0586 109.722 37.1786C110.555 37.2273 110.607 37.5941 110.418 38.2461" fill="white"/>
<path fill-rule="evenodd" clip-rule="evenodd" d="M104.226 0.992806C104.647 0.98688 105.065 1.06509 105.455 1.22285C105.846 1.38062 106.2 1.61475 106.499 1.91151C106.798 2.20827 107.034 2.56168 107.194 2.951C107.354 3.34032 107.435 3.75771 107.432 4.17866C107.428 4.59962 107.341 5.01566 107.174 5.40238C107.008 5.7891 106.766 6.13869 106.463 6.43065C106.16 6.72261 105.801 6.95105 105.408 7.10257C105.016 7.25408 104.597 7.32562 104.176 7.31297C103.346 7.31297 102.55 6.98324 101.963 6.39632C101.376 5.80939 101.046 5.01335 101.046 4.18332C101.041 3.76376 101.12 3.34741 101.278 2.95882C101.436 2.57023 101.671 2.21727 101.968 1.92074C102.265 1.6242 102.618 1.3901 103.007 1.23222C103.395 1.07435 103.812 0.995898 104.231 1.0015" fill="white"/>
</g>
<defs>
<clipPath id="clip0_144_449">
<rect width="140" height="39.1416" fill="white"/>
</clipPath>
</defs>
</svg>
