<svg width="108" height="90" viewBox="0 0 108 90" fill="none" xmlns="http://www.w3.org/2000/svg">
<g clip-path="url(#clip0_373_644)">
<path d="M-0.00244141 19.5169C0.0696455 19.031 0.13079 18.5424 0.216394 18.0591C0.648443 15.5971 1.68823 13.2819 3.24147 11.3234C5.3056 8.69162 7.33112 6.03148 9.42936 3.42541C11.2116 1.21324 13.5724 0.0675689 16.4205 0.0283072C19.1422 -0.00816539 21.865 -0.00816539 24.5889 0.0283072C27.511 0.0630634 29.9053 1.24671 31.7274 3.5271C33.4259 5.65431 35.0833 7.81499 36.7593 9.96344C36.8501 10.0799 36.9473 10.1913 37.0644 10.3335C37.1565 10.2286 37.2279 10.154 37.291 10.0761C39.0423 7.83366 40.7576 5.56613 42.5527 3.36491C44.3252 1.192 46.6668 0.0714313 49.4749 0.0289515C52.09 -0.0109538 54.7064 0.0289513 57.3221 0.0167223C60.5133 0.00127505 63.0653 1.26473 65.0142 3.78455C66.6342 5.8783 68.271 7.95981 69.9013 10.0458C69.9657 10.1289 70.039 10.2054 70.1388 10.32C70.236 10.21 70.3216 10.1231 70.3963 10.0272C72.1547 7.78281 73.8719 5.50499 75.6805 3.30183C77.4292 1.17269 79.745 0.0765803 82.503 0.0308823C85.2468 -0.0148157 87.9919 -0.00516169 90.7364 0.0263764C93.6591 0.0598453 96.0553 1.24542 97.873 3.52774C99.9429 6.12738 101.971 8.7592 104.015 11.3801C105.821 13.6972 106.89 16.3213 107.155 19.244C107.514 23.2069 106.458 26.7829 104.029 29.9348C101.994 32.5749 99.941 35.201 97.8685 37.8128C96.0341 40.119 93.6095 41.2885 90.6668 41.3174C88.0065 41.3462 85.3479 41.3462 82.6909 41.3174C79.7212 41.2859 77.2928 40.0913 75.4462 37.7646C73.7412 35.6148 72.0652 33.4413 70.3763 31.2793C70.3119 31.1956 70.2386 31.1171 70.1375 30.9993C70.0268 31.1364 69.9277 31.2568 69.8324 31.3778C68.15 33.5314 66.4855 35.7024 64.7799 37.836C62.9629 40.1061 60.5673 41.2743 57.6626 41.3155C54.9832 41.3535 52.3024 41.3457 49.6223 41.3155C46.6661 41.2846 44.2403 40.1035 42.3976 37.7897C40.6881 35.6431 39.014 33.4683 37.3238 31.307C37.2523 31.2156 37.1738 31.13 37.0721 31.0103C36.9576 31.1448 36.8591 31.2523 36.7696 31.3668C35.0788 33.5282 33.4105 35.7075 31.6946 37.8482C29.8621 40.1396 27.4369 41.2885 24.5071 41.3181C21.9023 41.3445 19.2969 41.3316 16.6915 41.3219C13.6072 41.3103 11.1135 40.0874 9.21053 37.6532C7.1509 35.0182 5.07583 32.3954 3.04195 29.741C1.29834 27.4651 0.313582 24.8784 0.0541982 22.0174C0.0415549 21.9331 0.0234961 21.8497 0.000133186 21.7677L-0.00244141 19.5169ZM17.1092 2.07442C17.2456 2.2585 17.3242 2.36856 17.4072 2.4754C20.0465 5.85577 22.6871 9.23528 25.329 12.6139C31.5453 20.5714 37.7619 28.5284 43.979 36.485C45.4246 38.3322 47.3458 39.2559 49.6944 39.2623C51.978 39.2694 54.2642 39.2623 56.5453 39.2623C56.6785 39.2623 56.8117 39.2507 57.0151 39.2411C56.8915 39.0731 56.8137 38.9617 56.73 38.8549C54.5326 36.0422 52.3348 33.2299 50.1366 30.4181C43.499 21.9222 36.861 13.4238 30.2226 4.92314C28.7422 3.02442 26.7946 2.06991 24.379 2.07571C22.1064 2.08086 19.8337 2.07571 17.561 2.07571L17.1092 2.07442ZM83.2554 39.243C83.4285 39.252 83.5232 39.261 83.6178 39.261C86.0082 39.261 88.3987 39.2861 90.7885 39.2533C92.9202 39.225 94.7378 38.403 96.0766 36.7431C98.2849 34.009 100.44 31.2304 102.577 28.4402C104.2 26.3208 105.05 23.8897 105.158 21.2264C105.286 18.0558 104.37 15.1943 102.425 12.6809C100.398 10.0634 98.3602 7.45327 96.3109 4.85041C94.8672 3.02121 92.9685 2.08279 90.6282 2.07378C88.3021 2.06734 85.976 2.07378 83.65 2.07378C83.5412 2.07378 83.4318 2.08665 83.2638 2.09759C83.3925 2.26236 83.4717 2.37242 83.556 2.48377L88.4257 8.71737C90.8157 11.7755 93.2058 14.833 95.5958 17.8898C96.381 18.8919 96.7376 20.0086 96.5612 21.2811C96.4422 22.1474 96.0463 22.8773 95.5102 23.557C91.8904 28.1821 88.2738 32.8101 84.6605 37.4408C84.2067 38.0201 83.7549 38.6045 83.2554 39.243ZM86.1762 32.163C86.023 32.1276 85.9304 32.1025 85.8364 32.0845C84.7795 31.8785 83.928 31.3327 83.2709 30.4915C76.6178 21.9788 69.967 13.4642 63.3182 4.9476C61.8379 3.05017 59.907 2.07313 57.4869 2.07442C55.193 2.07442 52.8989 2.07442 50.6045 2.07442H50.1829C50.3117 2.25206 50.3928 2.36148 50.4752 2.46704C53.8929 6.84375 57.311 11.2205 60.7295 15.5972C66.1729 22.5647 71.6159 29.5336 77.0585 36.5037C77.9596 37.6622 79.1181 38.4533 80.5103 38.9218C80.7337 38.9971 80.872 38.9707 81.0252 38.7719C82.2307 37.2104 83.4491 35.6592 84.663 34.1049C85.1567 33.4728 85.6497 32.8401 86.1762 32.163ZM19.9972 9.17756C19.9668 9.11525 19.9326 9.05485 19.8948 8.9967C18.5542 7.28206 17.2302 5.55519 15.8651 3.86115C15.0998 2.91179 13.9303 2.69102 12.811 3.20528C12.0605 3.54963 11.4871 4.11796 10.9876 4.75001C8.90051 7.4065 6.82179 10.0677 4.75144 12.7336C3.15844 14.7894 2.25542 17.1277 2.07907 19.7184C1.85444 23.015 2.74459 26.0022 4.76753 28.625C6.79047 31.2478 8.83336 33.8545 10.882 36.4567C12.3551 38.3292 14.2884 39.2651 16.6818 39.2642C18.956 39.2642 21.2287 39.2642 23.4998 39.2642H23.9407C23.8448 39.1207 23.7991 39.0415 23.7431 38.9701C21.3158 35.8605 18.8884 32.7513 16.4611 29.6425C14.8249 27.5475 13.1824 25.4589 11.5527 23.3575C10.2912 21.7316 10.2725 19.6405 11.5218 18.0262C13.4038 15.5933 15.2976 13.169 17.2032 10.7532C17.814 9.97567 18.6224 9.49294 19.5846 9.27282L19.9972 9.17756ZM53.4912 11.2179C53.1766 11.2252 52.8676 11.303 52.587 11.4456C52.3064 11.5882 52.0613 11.7919 51.8699 12.0417C49.6816 14.8308 47.496 17.6242 45.3132 20.4218C45.1658 20.6104 45.1742 20.7392 45.3184 20.9226C47.4733 23.6713 49.6256 26.4229 51.7753 29.1772C52.7819 30.458 54.4547 30.4387 55.4569 29.1553L61.6699 21.1994C62.0831 20.6696 62.0863 20.6677 61.666 20.1296C59.5961 17.4766 57.5253 14.8244 55.4537 12.173C54.9845 11.5725 54.3891 11.223 53.4912 11.2179V11.2179ZM12.6681 20.6883C12.6552 21.181 12.8194 21.6619 13.1309 22.0438C15.0013 24.4437 16.876 26.841 18.755 29.2358C19.7114 30.4484 21.3939 30.4207 22.3542 29.1965C24.4996 26.4538 26.6451 23.7108 28.7905 20.9676C28.9701 20.7385 28.9669 20.5956 28.7905 20.3697C27.2381 18.4006 25.6933 16.4257 24.1563 14.4451C23.5481 13.6682 22.947 12.8868 22.3316 12.1164C21.3952 10.9424 19.6972 10.9019 18.7917 12.052C16.8942 14.4599 15.0142 16.8793 13.1277 19.2961C12.8171 19.6926 12.6546 20.1849 12.6681 20.6883V20.6883ZM86.6306 11.2172C85.8698 11.2359 85.2706 11.6002 84.786 12.2245C82.7362 14.8647 80.6796 17.5002 78.6161 20.1309C78.199 20.6651 78.199 20.6677 78.6161 21.2051C80.686 23.8578 82.7568 26.5093 84.8284 29.1598C85.819 30.4252 87.486 30.4658 88.4695 29.2242C90.3497 26.8453 92.2163 24.4555 94.0691 22.0547C94.7359 21.1949 94.7159 20.1238 94.0524 19.2582C93.831 18.9692 93.6018 18.684 93.3791 18.397C91.7563 16.3202 90.1341 14.2427 88.5126 12.1647C88.0466 11.5571 87.4416 11.2256 86.6306 11.2172ZM86.1421 9.17949C86.1131 9.11672 86.0793 9.05626 86.0411 8.99863C84.7152 7.30201 83.4022 5.59381 82.0544 3.91393C81.226 2.88411 80.0315 2.66206 78.8452 3.25356C78.1894 3.58052 77.6642 4.07676 77.2181 4.64123C75.34 7.02268 73.4812 9.41571 71.6095 11.801C71.4808 11.9677 71.4846 12.0784 71.614 12.2432C73.3201 14.4174 75.0227 16.5946 76.7219 18.7748C76.7721 18.8392 76.8332 18.8951 76.9021 18.9679C76.98 18.8765 77.0443 18.8063 77.1023 18.7317C79.1336 16.1318 81.164 13.5311 83.1936 10.9295C83.9093 10.0085 84.8188 9.42279 85.9709 9.22069C86.0211 9.21489 86.0694 9.1988 86.1434 9.17949H86.1421ZM53.0593 9.18851C53.0417 9.13317 53.0186 9.0797 52.9905 9.02888C51.6298 7.29107 50.2943 5.53009 48.895 3.82317C48.1085 2.8648 46.9551 2.69102 45.8313 3.2291C45.1285 3.56572 44.5788 4.09672 44.1058 4.69594C42.2669 7.02718 40.448 9.37387 38.6104 11.7058C38.4238 11.9426 38.4173 12.0919 38.6059 12.3339C40.0361 14.1413 41.4476 15.9608 42.8693 17.7765C43.177 18.1711 43.4866 18.565 43.8174 18.9872C43.9204 18.8662 43.9976 18.7812 44.0684 18.6905C45.7638 16.5197 47.4587 14.3483 49.1531 12.1763C49.4827 11.754 49.8199 11.3395 50.143 10.9096C50.8703 9.94606 51.8397 9.39189 53.06 9.18851H53.0593ZM54.1606 32.1875C54.1798 32.2336 54.2032 32.2778 54.2308 32.3194C55.5631 34.0257 56.8697 35.75 58.2387 37.4286C59.179 38.5839 60.6664 38.7294 61.8585 37.8193C62.3464 37.4522 62.7877 37.0271 63.1728 36.5532C65.0129 34.2362 66.8202 31.8966 68.6436 29.5705C68.8 29.3716 68.791 29.2486 68.6366 29.051C67.0597 27.0468 65.4888 25.0378 63.9239 23.0241C63.7546 22.8072 63.5808 22.5935 63.389 22.354C63.2963 22.4628 63.2249 22.54 63.1605 22.6224C61.2296 25.0966 59.2775 27.5578 57.3717 30.0525C56.5498 31.1281 55.5875 31.9236 54.2179 32.1379C54.205 32.1405 54.1915 32.163 54.1612 32.1875H54.1606ZM21.0379 32.1534C21.1718 32.331 21.2645 32.4584 21.3598 32.582C22.5794 34.1448 23.7946 35.7101 25.022 37.267C26.0654 38.5916 27.5966 38.777 28.9218 37.7176C29.3591 37.3724 29.7565 36.9795 30.1067 36.5462C31.9366 34.2368 33.74 31.9056 35.5615 29.5885C35.7231 29.3832 35.7308 29.2512 35.5615 29.0401C33.8911 26.9187 32.2275 24.7921 30.5708 22.6604C30.4948 22.5632 30.4125 22.4712 30.3198 22.3611C30.2361 22.4532 30.175 22.5117 30.1267 22.578C28.8072 24.2661 27.4882 25.9547 26.1696 27.6441C25.4179 28.6095 24.6712 29.575 23.913 30.5314C23.1948 31.4402 22.2473 31.9603 21.0386 32.1534H21.0379Z" fill="#D3A719"/>
<path d="M92.8328 50.0561C92.9924 50.0452 93.1398 50.0265 93.2872 50.0265C97.2846 50.0265 101.282 50.0265 105.281 50.0265C105.774 50.0265 105.774 50.0265 105.774 50.5111C105.774 51.176 105.76 51.8409 105.78 52.5064C105.789 52.7967 105.691 52.8656 105.414 52.8649C102.402 52.8559 99.3902 52.8591 96.3786 52.8591C95.9171 52.8591 95.9165 52.8591 95.9165 53.3354C95.9165 54.5255 95.9255 55.7169 95.91 56.9044C95.9062 57.2056 96.0085 57.2828 96.2962 57.2815C98.9351 57.2725 101.57 57.2764 104.206 57.277C104.667 57.277 104.667 57.277 104.667 57.7379C104.667 58.4131 104.656 59.0895 104.673 59.7628C104.68 60.0466 104.582 60.1296 104.302 60.129C101.644 60.12 98.986 60.129 96.3278 60.1168C96.0111 60.1168 95.903 60.1888 95.9081 60.5235C95.9274 61.7986 95.9236 63.0743 95.9081 64.3493C95.9081 64.6396 95.9847 64.7303 96.2859 64.7297C99.3509 64.7188 102.417 64.7226 105.482 64.7233C105.898 64.7233 105.899 64.7233 105.899 65.1468C105.899 65.8007 105.899 66.4544 105.899 67.1079C105.899 67.5327 105.899 67.534 105.483 67.534H95.5824C94.7676 67.534 93.9527 67.5269 93.1366 67.5385C92.8933 67.5417 92.8006 67.4742 92.8013 67.2167C92.8077 61.59 92.8096 55.9634 92.8071 50.3367C92.8096 50.2492 92.8232 50.1636 92.8328 50.0561Z" fill="white"/>
<path d="M33.4868 67.5115C33.3329 67.5192 33.2293 67.5289 33.1244 67.5289C32.2664 67.5289 31.4091 67.5205 30.5499 67.5353C30.2976 67.5398 30.1701 67.4619 30.0723 67.2231C29.5876 66.033 29.0772 64.8533 28.5919 63.6638C28.4935 63.4237 28.3712 63.3259 28.0983 63.3272C25.5898 63.3379 23.0811 63.3379 20.5723 63.3272C20.3193 63.3272 20.1912 63.4006 20.0934 63.6368C19.5978 64.834 19.0784 66.0182 18.5815 67.2186C18.4856 67.4503 18.3646 67.5404 18.1065 67.5353C17.2698 67.5186 16.433 67.5295 15.5963 67.5282C15.5017 67.5282 15.4077 67.5173 15.2681 67.5083C15.3125 67.3834 15.3402 67.2849 15.3807 67.1922C17.8497 61.5385 20.3169 55.8844 22.7825 50.2299C22.89 49.9814 23.029 49.9035 23.289 49.9081C23.9854 49.9248 24.6838 49.9325 25.3795 49.9081C25.7084 49.8958 25.8668 50.0007 25.9994 50.3071C27.8539 54.5813 29.7166 58.8518 31.5874 63.1187C32.1705 64.4536 32.7532 65.7887 33.3355 67.124C33.3876 67.2373 33.4269 67.3551 33.4868 67.5115ZM24.3266 53.6785L21.3955 60.5158H27.2796L24.3266 53.6785Z" fill="white"/>
<path d="M87.589 62.7511L89.6486 64.7103C89.543 64.8281 89.4632 64.9259 89.3744 65.0154C87.7788 66.6245 85.893 67.6048 83.6029 67.7979C80.928 68.0225 78.5375 67.3808 76.5307 65.5632C74.8489 64.0397 73.9175 62.1126 73.6948 59.8573C73.402 56.8966 74.2258 54.2969 76.373 52.1922C77.8128 50.7807 79.5674 49.9904 81.58 49.7915C83.4942 49.6029 85.3401 49.8295 87.0831 50.6926C87.9262 51.1103 88.6645 51.6748 89.3538 52.3081C89.4111 52.3691 89.4647 52.4336 89.5141 52.5012L87.5362 54.7797C87.3334 54.611 87.1577 54.4578 86.9756 54.315C86.0269 53.5632 85.0228 52.9305 83.7992 52.7129C80.6454 52.153 77.769 54.0273 77.0932 57.1618C76.6156 59.3765 76.9851 61.4387 78.542 63.163C79.7592 64.5115 81.3161 65.0495 83.1324 64.9504C84.8098 64.8597 86.1067 64.0255 87.3199 62.9815L87.589 62.7511Z" fill="white"/>
<path d="M57.784 60.2254C57.784 62.5289 57.7789 64.8331 57.7904 67.1373C57.7904 67.4418 57.7151 67.546 57.3991 67.5377C56.6177 67.5164 55.8351 67.5312 55.0524 67.5306C54.6283 67.5306 54.6257 67.5306 54.6251 67.1071C54.6251 64.3099 54.6251 61.5129 54.6251 58.7161C54.6251 56.9139 54.6186 55.115 54.6315 53.3147C54.6315 53.0026 54.5356 52.9163 54.2286 52.9189C52.6427 52.9331 51.0561 52.9189 49.4702 52.9324C49.1684 52.9324 49.084 52.8365 49.0885 52.5462C49.104 51.8608 49.0924 51.1747 49.0937 50.4866C49.0937 50.0226 49.0937 50.0206 49.5494 50.0206H62.8597C63.3173 50.0206 63.3173 50.0206 63.3179 50.477C63.3179 51.185 63.3076 51.8929 63.3231 52.6009C63.3282 52.8584 63.2452 52.9298 62.9936 52.9286C61.3755 52.9189 59.7574 52.9286 58.1393 52.9176C57.8548 52.9176 57.7769 52.9961 57.7782 53.2787C57.7885 55.5945 57.784 57.9083 57.784 60.2254Z" fill="white"/>
<path d="M41.6356 60.2345C41.6356 62.5279 41.6356 64.8214 41.6356 67.1149C41.6356 67.5281 41.6356 67.5294 41.205 67.5294H38.8879C38.4702 67.5294 38.4676 67.5294 38.4676 67.0975C38.4676 62.5959 38.4676 58.0944 38.4676 53.5929C38.4676 52.9241 38.4676 52.9241 37.8079 52.9241C36.3288 52.9241 34.8497 52.9241 33.3706 52.9241C32.9368 52.9241 32.9362 52.9241 32.9355 52.4736C32.9355 51.7982 32.9355 51.123 32.9355 50.4481C32.9355 50.0252 32.9355 50.022 33.3681 50.0214H46.7139C47.1683 50.0214 47.1689 50.0214 47.1689 50.4828C47.1689 51.1471 47.1689 51.8122 47.1689 52.4781C47.1689 52.9228 47.1689 52.9235 46.7081 52.9235C45.1633 52.9235 43.6199 52.9235 42.0777 52.9235C41.6362 52.9235 41.6356 52.9235 41.6356 53.3528V60.2345Z" fill="white"/>
<path d="M18.3901 89.7039C18.4603 89.5256 18.4944 89.4265 18.5375 89.3312C20.9962 83.8964 23.4534 78.4607 25.9091 73.0241C26.0378 72.739 26.1852 72.6064 26.5063 72.6334C26.8491 72.6593 27.1934 72.6593 27.5362 72.6334C27.8149 72.6148 27.9532 72.7216 28.0665 72.9752C29.1658 75.4287 30.2725 77.8786 31.3864 80.3249C32.738 83.3109 34.0896 86.2967 35.4413 89.2823C35.4927 89.3956 35.5333 89.514 35.608 89.7033C35.1503 89.7033 34.7494 89.711 34.349 89.7033C33.3147 89.6807 33.6108 89.8861 33.1776 88.9309C32.6627 87.8007 32.1592 86.6651 31.667 85.5241C31.5762 85.3143 31.4578 85.239 31.2332 85.2397C28.3922 85.2452 25.5514 85.2452 22.7108 85.2397C22.4714 85.2397 22.3485 85.3246 22.2526 85.5422C21.6958 86.8069 21.1153 88.0607 20.5663 89.328C20.4375 89.6228 20.2779 89.7251 19.9638 89.7084C19.4611 89.6846 18.9591 89.7039 18.3901 89.7039ZM26.9736 74.9698L23.1871 83.4233H30.7389L26.9736 74.9698Z" fill="white"/>
<path d="M73.9707 89.704C74.0402 89.527 74.0763 89.4189 74.1232 89.3178C76.5776 83.8902 79.0303 78.4623 81.4813 73.0338C81.6151 72.7365 81.7664 72.5987 82.1017 72.6303C82.4444 72.6577 82.7888 72.6577 83.1315 72.6303C83.4006 72.6122 83.5319 72.7204 83.6387 72.9585C85.0088 76.0051 86.3845 79.0501 87.7657 82.0936C88.8479 84.4841 89.9296 86.8746 91.0109 89.265C91.063 89.3809 91.1087 89.4987 91.1789 89.6667C90.9961 89.6802 90.8571 89.6976 90.7129 89.6988C90.2733 89.7027 89.833 89.6892 89.3941 89.7046C89.1643 89.713 89.0497 89.6229 88.9603 89.4176C88.4003 88.1303 87.8236 86.852 87.2669 85.5641C87.162 85.3215 87.0249 85.2359 86.761 85.2372C83.9526 85.2453 81.1442 85.2453 78.3358 85.2372C78.0552 85.2372 77.9175 85.335 77.8074 85.586C77.2532 86.8514 76.6765 88.1071 76.1211 89.3719C76.0168 89.6087 75.8913 89.7188 75.619 89.7072C75.0945 89.6885 74.5706 89.704 73.9707 89.704ZM86.3201 83.4324C85.0612 80.6068 83.8215 77.8225 82.551 74.9699L78.7606 83.4324H86.3201Z" fill="white"/>
<path d="M1.30353 58.7716V50.571C1.30353 50.022 1.30353 50.022 1.868 50.022C2.56441 50.022 3.26104 50.022 3.95788 50.022C4.40006 50.022 4.4007 50.022 4.4007 50.4596C4.4007 55.0681 4.4007 59.6763 4.4007 64.2843C4.4007 64.7162 4.4007 64.7162 4.84159 64.7162H13.1696C13.5873 64.7162 13.5879 64.7162 13.5879 65.141C13.5879 65.8059 13.5738 66.4708 13.595 67.1363C13.6047 67.444 13.5126 67.5366 13.1998 67.5354C9.70618 67.5251 6.21189 67.5289 2.71824 67.5289C2.33206 67.5289 1.94588 67.5225 1.5597 67.5289C1.38206 67.5328 1.30225 67.4646 1.30546 67.2888C1.30546 67.1814 1.30225 67.0745 1.30225 66.967L1.30353 58.7716Z" fill="white"/>
<path d="M38.8589 81.2079C38.8589 78.5394 38.8589 75.8709 38.8589 73.2024C38.8589 72.7641 38.8589 72.7628 39.3094 72.7628C41.335 72.7628 43.3605 72.7512 45.386 72.7673C46.6771 72.7776 47.9238 73.019 49.0547 73.6768C50.6471 74.603 51.4535 76.0158 51.5443 77.8405C51.7065 81.0992 49.5767 82.9561 46.9101 83.5218C46.2702 83.6481 45.6199 83.7151 44.9676 83.722C43.7145 83.7529 42.4575 83.7394 41.2062 83.722C40.9211 83.722 40.8394 83.8057 40.8413 84.0856C40.8522 85.7893 40.8471 87.4969 40.8464 89.1974C40.8464 89.6994 40.8464 89.7001 40.3598 89.7001C39.9524 89.7001 39.545 89.6949 39.1369 89.7001C38.9438 89.7001 38.8608 89.6235 38.8634 89.4349C38.8634 89.2637 38.8634 89.0918 38.8634 88.92C38.8604 86.3532 38.8589 83.7825 38.8589 81.2079ZM40.8439 78.2472C40.8439 79.3723 40.8439 80.4999 40.8439 81.6224C40.8439 81.8542 40.8889 81.9681 41.1618 81.9649C42.48 81.9513 43.8007 81.9777 45.1163 81.952C46.1223 81.932 47.0974 81.7389 47.9631 81.1796C49.1217 80.4317 49.6404 79.344 49.5632 77.9866C49.4802 76.5307 48.7561 75.4854 47.3748 74.9937C46.751 74.7716 46.0977 74.6437 45.4362 74.6139C44.035 74.5566 42.6293 74.6023 41.2255 74.5869C40.9295 74.5837 40.8394 74.6725 40.8394 74.9673C40.8522 76.0589 40.8432 77.1531 40.8439 78.2472Z" fill="white"/>
<path d="M16.4875 75.1848L15.1584 76.6091C14.8732 76.3678 14.6164 76.1425 14.3513 75.9275C12.7241 74.6061 10.8698 74.0661 8.7967 74.3937C6.6534 74.7316 5.10353 75.9262 4.12713 77.8456C2.69183 80.6666 3.24857 84.251 5.44208 86.3834C6.58646 87.4956 7.96641 88.0749 9.56906 88.1508C11.5811 88.2467 13.279 87.5381 14.7529 86.2122C14.926 86.0564 15.1024 85.9045 15.28 85.7488L16.51 87.045C16.5242 87.0077 16.5209 87.045 16.5016 87.065C13.1663 90.7401 7.7952 90.7717 4.58476 88.2235C2.71114 86.7374 1.66523 84.7769 1.38912 82.4121C1.08918 79.8466 1.67682 77.507 3.33611 75.4989C4.90915 73.5956 6.9662 72.6237 9.43132 72.495C11.9981 72.3605 14.2476 73.1116 16.147 74.8636C16.248 74.9582 16.3459 75.0535 16.4875 75.1848Z" fill="white"/>
<path d="M66.685 58.7721V50.4423C66.685 50.0271 66.685 50.0245 67.1143 50.0239C67.8867 50.0239 68.659 50.0335 69.4314 50.0194C69.7165 50.0136 69.797 50.1192 69.7963 50.394C69.7903 55.9794 69.7903 61.5649 69.7963 67.1503C69.7963 67.4367 69.7191 67.5442 69.4147 67.5365C68.6226 67.5159 67.8287 67.5159 67.0332 67.5365C66.7391 67.5436 66.6786 67.4387 66.6792 67.1664C66.6889 64.3685 66.685 61.57 66.685 58.7721Z" fill="white"/>
<path d="M66.4325 82.1303C66.4325 79.7399 66.4273 77.3494 66.4396 74.959C66.4396 74.6545 66.3449 74.5844 66.0579 74.5863C64.4391 74.5985 62.8204 74.5927 61.2017 74.5921C60.7724 74.5921 60.7717 74.5921 60.7711 74.1769C60.7711 73.8339 60.7917 73.4895 60.7653 73.1471C60.7402 72.8253 60.8683 72.7468 61.1688 72.7571C61.7796 72.777 62.3917 72.7629 63.0019 72.7629H73.6154C74.066 72.7629 74.066 72.7629 74.066 73.2218C74.066 73.5649 74.0512 73.9086 74.0705 74.2516C74.0859 74.5232 73.981 74.5985 73.7197 74.5966C72.1106 74.5876 70.5015 74.5921 68.8924 74.5921C68.402 74.5921 68.402 74.5921 68.402 75.0729V89.2534C68.402 89.704 68.402 89.704 67.9688 89.704C67.6039 89.704 67.2396 89.704 66.8747 89.704C66.428 89.704 66.4241 89.704 66.4241 89.2695C66.4297 86.8902 66.4325 84.5105 66.4325 82.1303Z" fill="white"/>
<path d="M94.4342 81.219C94.4342 78.5505 94.4342 75.8815 94.4342 73.2122C94.4342 72.7655 94.4342 72.7648 94.8738 72.7616C95.2703 72.7616 95.668 72.7783 96.0632 72.7565C96.3548 72.7404 96.4333 72.8575 96.4269 73.1298C96.4127 73.7618 96.423 74.3945 96.423 75.0266V87.4069C96.423 87.8736 96.423 87.8736 96.898 87.8736H105.484C105.9 87.8736 105.9 87.8736 105.902 88.2984C105.902 88.6524 105.887 89.0064 105.906 89.3597C105.921 89.632 105.814 89.7066 105.554 89.7053C104 89.6963 102.445 89.7008 100.891 89.7008C98.8759 89.7008 96.8607 89.6944 94.8455 89.7079C94.5166 89.7079 94.4265 89.6082 94.4277 89.287C94.4387 86.5998 94.4342 83.9113 94.4342 81.219Z" fill="white"/>
<path d="M57.0877 81.2601C57.0877 83.9286 57.0877 86.5973 57.0877 89.2663C57.0877 89.7027 57.0877 89.7033 56.6436 89.704C56.2362 89.704 55.8288 89.6962 55.4207 89.704C55.1993 89.7098 55.115 89.6242 55.1182 89.4027C55.1279 88.8563 55.1182 88.3086 55.1182 87.7628C55.1182 82.9612 55.1182 78.1595 55.1182 73.3575C55.1182 72.6817 55.0648 72.768 55.729 72.7622C56.0611 72.759 56.3945 72.7783 56.7254 72.7564C57.0111 72.7384 57.0909 72.842 57.089 73.1226C57.0781 74.955 57.0832 76.7881 57.0832 78.6212L57.0877 81.2601Z" fill="white"/>
</g>
<defs>
<clipPath id="clip0_373_644">
<rect width="107.223" height="90" fill="white"/>
</clipPath>
</defs>
</svg>
