<svg width="100" height="86" viewBox="0 0 100 86" fill="none" xmlns="http://www.w3.org/2000/svg">
<g clip-path="url(#clip0_144_386)">
<path d="M99.9998 66.5982C99.3561 67.7017 98.3915 68.0147 97.1354 68.0128C80.1254 67.9828 63.116 67.9749 46.1073 67.9893C45.654 68.0079 45.2002 67.9678 44.7573 67.8699C44.3268 67.7605 43.9484 67.5032 43.6884 67.143C43.4284 66.7829 43.3033 66.3428 43.3349 65.8997C43.3571 65.4563 43.5348 65.0348 43.8368 64.7092C44.1387 64.3837 44.5456 64.1748 44.9862 64.1193C45.276 64.0804 45.5685 64.066 45.8608 64.0762C63.0325 64.0762 80.2043 64.0717 97.3761 64.0625C98.6107 64.0625 99.5283 64.4049 99.9998 65.6278V66.5982Z" fill="#E4017B"/>
<path d="M35.7516 85.3417C34.2255 84.5258 33.7598 83.8371 34.024 82.7826C34.2881 81.728 35.0531 81.2937 36.7435 81.2937H67.5314C67.8577 81.284 68.1842 81.2911 68.5097 81.3152C69.4586 81.413 70.0749 81.9295 70.2823 82.8608C70.4779 83.755 70.116 84.4476 69.3295 84.9132C69.079 85.0619 68.8208 85.1989 68.5664 85.3398L35.7516 85.3417Z" fill="#E4017B"/>
<path d="M28.7219 85.3417C28.4812 85.1832 28.2308 85.0385 27.9979 84.8663C27.2388 84.3028 26.9551 83.5515 27.2603 82.6515C27.3705 82.2564 27.6118 81.9105 27.9446 81.6709C28.2775 81.4312 28.682 81.312 29.0916 81.3328C29.5012 81.3172 29.9041 81.4406 30.2347 81.6828C30.5654 81.925 30.8045 82.2719 30.9132 82.6671C31.2086 83.5789 30.9132 84.3224 30.154 84.8741C29.8831 85.0487 29.6007 85.2049 29.3088 85.3417H28.7219Z" fill="#E4017B"/>
<path d="M59.453 32.6134H30.5532C28.6788 32.6134 28.3052 32.269 28.3756 30.3751C28.7297 20.8605 32.5567 13.0109 39.9191 6.98286C46.27 1.78241 53.6715 -0.622162 61.8165 0.135014C74.2718 1.30893 83.1231 7.77525 88.2551 19.2288C89.8614 22.8151 90.5129 26.6186 90.6029 30.5238C90.642 32.181 90.192 32.6134 88.5427 32.6134H59.453Z" fill="#4CCBC9"/>
<path d="M59.4844 42.1534C47.8013 42.1534 36.1202 42.1534 24.441 42.1534C23.9216 42.1702 23.4019 42.1295 22.8915 42.0321C22.4766 41.9286 22.1103 41.6849 21.8546 41.3422C21.5989 40.9995 21.4696 40.579 21.4887 40.1518C21.4919 39.7088 21.6503 39.2808 21.9362 38.9424C22.2221 38.6039 22.6176 38.3763 23.0539 38.299C23.4085 38.2517 23.7666 38.2347 24.1241 38.2481C47.7146 38.2481 71.3051 38.2481 94.8955 38.2481C95.2526 38.2346 95.6102 38.2536 95.9638 38.3049C96.4009 38.3849 96.7951 38.6182 97.0756 38.9628C97.356 39.3075 97.5043 39.7409 97.4938 40.1851C97.5132 40.6125 97.3811 41.033 97.1209 41.3726C96.8608 41.7123 96.4891 41.9492 96.0714 42.0418C95.5596 42.1331 95.0395 42.1705 94.5199 42.1534C82.8473 42.1573 71.1688 42.1573 59.4844 42.1534Z" fill="#E4017B"/>
<path d="M55.3793 55.4675H86.3276C88.1178 55.4675 89.055 56.1366 89.0452 57.4006C89.0354 58.6645 88.0669 59.3845 86.3452 59.3845H24.1551C23.8285 59.3973 23.5013 59.3842 23.1768 59.3454C22.7046 59.276 22.2734 59.0385 21.9624 58.6765C21.6515 58.3145 21.4817 57.8524 21.4844 57.3751C21.492 56.8986 21.6764 56.4419 22.0018 56.0937C22.3272 55.7455 22.7704 55.5307 23.2453 55.491C23.6027 55.4642 23.9612 55.457 24.3194 55.4695L55.3793 55.4675Z" fill="#E4017B"/>
<path d="M35.1684 46.851C43.6623 46.851 52.1549 46.851 60.6462 46.851C60.971 46.851 61.2997 46.8373 61.6245 46.8666C62.0999 46.8961 62.5482 47.098 62.8853 47.4345C63.2224 47.7709 63.4253 48.2187 63.4558 48.694C63.4699 49.1709 63.3124 49.6371 63.0119 50.0076C62.7113 50.3782 62.2878 50.6285 61.8182 50.7132C61.4944 50.7606 61.167 50.7782 60.8399 50.766C43.6929 50.766 26.5446 50.766 9.39503 50.766C9.00621 50.7805 8.6171 50.7464 8.23677 50.6642C7.78946 50.5532 7.39795 50.2829 7.13543 49.9041C6.87292 49.5253 6.7574 49.0638 6.81046 48.606C6.84708 48.1638 7.03807 47.7487 7.34999 47.4332C7.66191 47.1177 8.07486 46.922 8.51655 46.8803C8.87307 46.8497 9.23112 46.8405 9.58873 46.8529C18.1166 46.8503 26.6431 46.8497 35.1684 46.851Z" fill="#E4017B"/>
<path d="M72.0687 72.683H87.3942C87.752 72.6722 88.1101 72.6839 88.4664 72.7182C88.9415 72.7609 89.3837 72.9789 89.707 73.3297C90.0303 73.6805 90.2116 74.139 90.2155 74.616C90.2033 75.0754 90.0335 75.5166 89.7346 75.8657C89.4358 76.2148 89.026 76.4506 88.574 76.5334C88.2843 76.5736 87.9916 76.5874 87.6994 76.5745C77.2542 76.5745 66.8096 76.5745 56.3656 76.5745C55.8815 76.5868 55.3997 76.5044 54.9471 76.3319C54.1039 75.97 53.7537 75.25 53.8808 74.3441C53.9164 73.9494 54.0841 73.5782 54.3568 73.2906C54.6295 73.003 54.9912 72.8158 55.3835 72.7593C55.7716 72.6981 56.1648 72.6759 56.5574 72.6928C61.7265 72.6849 66.897 72.6817 72.0687 72.683Z" fill="#E4017B"/>
<path d="M25.1627 64.0743C29.0992 64.0743 33.0364 64.0743 36.9742 64.0743C37.3636 64.0643 37.753 64.0938 38.1364 64.1623C39.007 64.3443 39.4766 64.9449 39.5901 65.7921C39.6576 66.166 39.5992 66.5517 39.4239 66.8888C39.2487 67.2259 38.9665 67.4953 38.6216 67.6547C38.2167 67.8576 37.7713 67.9666 37.3186 67.9736C29.1859 67.9906 21.052 67.9906 12.9168 67.9736C12.4958 67.9737 12.0791 67.8885 11.692 67.7232C11.3216 67.5811 11.0106 67.317 10.8104 66.9745C10.6101 66.632 10.5326 66.2315 10.5905 65.8391C10.6805 64.943 11.1774 64.3286 12.0892 64.1447C12.4771 64.0814 12.8702 64.0558 13.2631 64.0684C17.2205 64.0697 21.187 64.0717 25.1627 64.0743Z" fill="#E4017B"/>
<path d="M16.6224 42.1279C16.1142 42.1237 15.6272 41.9237 15.2627 41.5695C14.8983 41.2152 14.6845 40.7341 14.6659 40.2262C14.6559 39.717 14.8475 39.2244 15.1989 38.8558C15.5503 38.4872 16.0331 38.2723 16.5422 38.2579C16.8026 38.2487 17.0621 38.292 17.3054 38.3852C17.5487 38.4783 17.7707 38.6194 17.9584 38.8001C18.146 38.9808 18.2954 39.1974 18.3976 39.437C18.4999 39.6767 18.5529 39.9344 18.5535 40.1949C18.5474 40.7053 18.3421 41.1932 17.9813 41.5543C17.6205 41.9155 17.1329 42.1213 16.6224 42.1279Z" fill="#E4017B"/>
<path d="M1.94278 50.7523C1.4331 50.7539 0.943325 50.5545 0.57964 50.1975C0.215956 49.8404 0.00767489 49.3543 -4.51193e-05 48.8447C-0.0158778 48.3358 0.170667 47.8415 0.518714 47.47C0.86676 47.0985 1.34791 46.8801 1.8567 46.8627C2.11686 46.8578 2.37543 46.9043 2.61757 46.9996C2.85972 47.0948 3.08066 47.237 3.26773 47.4179C3.45479 47.5988 3.60427 47.8148 3.70762 48.0536C3.81097 48.2924 3.86614 48.5493 3.86996 48.8095C3.85866 49.3185 3.65248 49.8038 3.2939 50.1653C2.93533 50.5268 2.45171 50.7369 1.94278 50.7523Z" fill="#E4017B"/>
<path d="M18.5537 57.4143C18.547 57.9234 18.3448 58.4104 17.989 58.7746C17.6332 59.1388 17.1509 59.3523 16.6421 59.3708C16.3817 59.3713 16.1238 59.3203 15.8832 59.2207C15.6426 59.1211 15.4241 58.9749 15.2402 58.7905C15.0563 58.6061 14.9108 58.3872 14.8119 58.1463C14.713 57.9054 14.6628 57.6473 14.6641 57.3869C14.6798 56.8776 14.8925 56.3944 15.2575 56.0389C15.6225 55.6835 16.1111 55.4835 16.6206 55.4812C17.1289 55.495 17.6126 55.7031 17.9722 56.0627C18.3317 56.4223 18.5398 56.906 18.5537 57.4143Z" fill="#E4017B"/>
<path d="M49.017 72.7065C49.5242 72.7279 50.0039 72.9425 50.3578 73.3063C50.7118 73.6701 50.9132 74.1555 50.9207 74.663C50.9129 74.923 50.8536 75.1788 50.7463 75.4157C50.6389 75.6526 50.4856 75.8658 50.2953 76.043C50.105 76.2203 49.8813 76.358 49.6374 76.4482C49.3935 76.5384 49.1341 76.5794 48.8742 76.5686C48.6222 76.5599 48.3744 76.5011 48.1453 76.3957C47.9162 76.2902 47.7104 76.1403 47.5398 75.9546C47.3692 75.7689 47.2372 75.5511 47.1516 75.3139C47.066 75.0767 47.0283 74.8249 47.041 74.573C47.0603 74.0651 47.2782 73.5851 47.6477 73.236C48.0172 72.887 48.5089 72.6969 49.017 72.7065Z" fill="#E4017B"/>
<path d="M7.62248 66.0269C7.62264 66.5374 7.42324 67.0278 7.06683 67.3934C6.71042 67.7589 6.22524 67.9707 5.71487 67.9834C5.45514 67.9845 5.19779 67.9341 4.9576 67.8353C4.7174 67.7365 4.4991 67.5912 4.31526 67.4077C4.13143 67.2243 3.98568 67.0063 3.88641 66.7663C3.78714 66.5263 3.7363 66.269 3.73682 66.0093C3.75588 65.5012 3.96968 65.0199 4.33392 64.6651C4.69816 64.3104 5.18492 64.1093 5.69335 64.1036C6.20055 64.1146 6.68404 64.3205 7.04332 64.6787C7.40259 65.0369 7.61001 65.5197 7.62248 66.0269Z" fill="#E4017B"/>
</g>
<defs>
<clipPath id="clip0_144_386">
<rect width="100" height="85.3417" fill="white"/>
</clipPath>
</defs>
</svg>
