<svg width="100" height="100" viewBox="0 0 100 100" fill="none" xmlns="http://www.w3.org/2000/svg">
<g clip-path="url(#clip0_144_401)">
<path d="M90.6475 50C90.6465 42.1511 88.3618 34.4721 84.0719 27.8993L100 11.9712L88.0288 0L72.1007 15.9281C65.5277 11.6459 57.852 9.36617 50.0072 9.36617C42.1624 9.36617 34.4866 11.6459 27.9137 15.9281L11.9712 0L0 11.9712L15.9281 27.8993C11.6459 34.4723 9.36617 42.148 9.36617 49.9928C9.36617 57.8376 11.6459 65.5134 15.9281 72.0863L0 88.0288L11.9712 99.9712L27.8993 84.0576C34.4696 88.3467 42.1464 90.6306 49.9928 90.6306C57.8392 90.6306 65.516 88.3467 72.0863 84.0576L88.0288 99.9712L100 88.0288L84.0576 72.1007C88.3509 65.5288 90.6405 57.8501 90.6475 50ZM26.3165 50C26.3107 46.4643 27.0961 42.972 28.6152 39.7792C30.1344 36.5865 32.3487 33.7741 35.0958 31.5482C37.843 29.3223 41.0535 27.7394 44.4919 26.9155C47.9303 26.0915 51.5095 26.0474 54.9672 26.7864C58.4249 27.5253 61.6733 29.0286 64.4746 31.1861C67.2758 33.3436 69.5587 36.1006 71.1561 39.2549C72.7534 42.4093 73.6246 45.8811 73.7059 49.416C73.7872 52.9508 73.0765 56.459 71.6259 59.6835L55.9856 44.0144L44.0144 55.9856L59.6547 71.6115C56.052 73.2349 52.0999 73.9294 48.1596 73.6314C44.2193 73.3334 40.4166 72.0524 37.0991 69.9056C33.7816 67.7589 31.0551 64.8147 29.169 61.3424C27.2829 57.87 26.2972 53.9803 26.3022 50.0288L26.3165 50Z" fill="#4CBBFD"/>
</g>
<defs>
<clipPath id="clip0_144_401">
<rect width="100" height="100" fill="white"/>
</clipPath>
</defs>
</svg>
