<svg width="100" height="75" viewBox="0 0 100 75" fill="none" xmlns="http://www.w3.org/2000/svg">
<path fill-rule="evenodd" clip-rule="evenodd" d="M1.63615 18.5466H81.437C81.8664 18.547 82.2917 18.4671 82.6886 18.3112C83.0855 18.1554 83.4462 17.9268 83.7501 17.6384L99.5141 2.65293C99.7431 2.43566 99.899 2.15868 99.9623 1.85709C100.025 1.5555 99.9931 1.24286 99.8693 0.958765C99.7454 0.674673 99.5357 0.431913 99.2665 0.261236C98.9975 0.090558 98.6811 -0.00035836 98.3576 2.12448e-06H18.5567C17.6915 0.00845026 16.863 0.333754 16.2437 0.90821L0.479612 15.8936C0.250674 16.1109 0.0947245 16.3879 0.0315086 16.6895C-0.0317074 16.9911 0.000653135 17.3037 0.124502 17.5878C0.248351 17.8719 0.458111 18.1147 0.727212 18.2853C0.996312 18.456 1.31265 18.5469 1.63615 18.5466ZM98.3576 55.9504H18.5567C18.1273 55.9499 17.702 56.0299 17.3052 56.1857C16.9083 56.3415 16.5476 56.5702 16.2437 56.8586L0.479612 71.844C0.250674 72.0613 0.0947245 72.3383 0.0315086 72.6399C-0.0317074 72.9415 0.000653135 73.2541 0.124502 73.5382C0.248351 73.8223 0.458111 74.065 0.727212 74.2357C0.996312 74.4064 1.31265 74.4973 1.63615 74.4969H81.437C81.8664 74.4974 82.2917 74.4175 82.6886 74.2616C83.0855 74.1058 83.4462 73.8771 83.7501 73.5887L99.5141 58.6033C99.7431 58.386 99.899 58.1091 99.9623 57.8075C100.025 57.5059 99.9931 57.1932 99.8693 56.9091C99.7454 56.6251 99.5357 56.3823 99.2665 56.2116C98.9975 56.0409 98.6811 55.95 98.3576 55.9504ZM82.6886 28.0313C83.0855 28.1871 83.4462 28.4158 83.7501 28.7042L99.5141 43.6896C99.7431 43.9069 99.899 44.1838 99.9623 44.4854C100.025 44.787 99.9931 45.0997 99.8693 45.3838C99.7454 45.6679 99.5357 45.9106 99.2665 46.0813C98.9975 46.252 98.6811 46.3429 98.3576 46.3425H18.5567C18.1273 46.343 17.702 46.263 17.3052 46.1072C16.9083 45.9514 16.5476 45.7227 16.2437 45.4343L0.479612 30.4489C0.250674 30.2316 0.0947245 29.9546 0.0315086 29.6531C-0.0317074 29.3515 0.000653135 29.0388 0.124502 28.7547C0.248351 28.4706 0.458111 28.2279 0.727212 28.0572C0.996312 27.8865 1.31265 27.7956 1.63615 27.796H81.437C81.8664 27.7955 82.2917 27.8754 82.6886 28.0313Z" fill="url(#paint0_linear_144_385)"/>
<defs>
<linearGradient id="paint0_linear_144_385" x1="110" y1="-4.75303" x2="4.0964" y2="79.3081" gradientUnits="userSpaceOnUse">
<stop stop-color="#00FFA3"/>
<stop offset="1" stop-color="#DC1FFF"/>
</linearGradient>
</defs>
</svg>
