<svg width="80" height="100" viewBox="0 0 80 100" fill="none" xmlns="http://www.w3.org/2000/svg">
<g clip-path="url(#clip0_144_366)">
<path fill-rule="evenodd" clip-rule="evenodd" d="M59.3748 50V60C59.3748 65.2491 57.2896 70.2832 53.578 73.9948C49.8663 77.7065 44.8322 79.7917 39.5832 79.7917C34.3341 79.7917 29.3 77.7065 25.5884 73.9948C21.8767 70.2832 19.7915 65.2491 19.7915 60V20H59.3748V50Z" fill="url(#paint0_linear_144_366)"/>
<path d="M79.1667 40V60C79.1941 65.2255 78.192 70.4053 76.2176 75.2436C74.2432 80.0818 71.3351 84.4838 67.6594 88.1981C63.9838 91.9125 59.6125 94.8665 54.7952 96.8915C49.9779 98.9164 44.8089 99.9727 39.5833 100C29.8626 99.9181 20.5044 96.299 13.2579 89.8193C6.01137 83.3396 1.37249 74.4427 0.208333 64.7917L9.79167 60V63.3333C10.2209 70.8489 13.5393 77.9075 19.0529 83.0328C24.5664 88.1581 31.8481 90.9531 39.375 90.8333C46.9019 90.9531 54.1836 88.1581 59.6971 83.0328C65.2107 77.9075 68.5291 70.8489 68.9583 63.3333V50H0V0H79.1667V25L69.1667 30V10H10V40H79.1667Z" fill="white"/>
</g>
<defs>
<linearGradient id="paint0_linear_144_366" x1="57.104" y1="16.5667" x2="8.78101" y2="48.0842" gradientUnits="userSpaceOnUse">
<stop stop-color="#8FCF4A"/>
<stop offset="1" stop-color="#00AAFF"/>
</linearGradient>
<clipPath id="clip0_144_366">
<rect width="79.1667" height="100" fill="white"/>
</clipPath>
</defs>
</svg>
