<svg width="100" height="100" viewBox="0 0 100 100" fill="none" xmlns="http://www.w3.org/2000/svg">
<path d="M70.6733 19.6503L70.6889 19.6613L70.7049 19.6718C81.4362 26.6471 89.6534 35.0656 94.3849 42.8526C96.7513 46.7472 98.2226 50.4454 98.7266 53.6974C99.23 56.9454 98.762 59.6837 97.3402 61.7702L97.3383 61.773L78.4691 89.6666H78.2847L77.9851 90.0754C74.9726 94.1851 68.2259 95.6479 59.2501 94.0314C50.3699 92.4322 39.6925 87.8671 29.3716 80.5187C19.0322 73.157 10.9064 64.841 6.092 57.1615C1.24384 49.4282 -0.0615786 42.6646 2.51486 38.1146L21.6542 10.2377C21.6547 10.237 21.6552 10.2362 21.6558 10.2354C24.6333 5.9582 31.3666 4.41598 40.3984 6.01591C49.3387 7.59962 60.1413 12.2159 70.6733 19.6503Z" fill="url(#paint0_linear_144_310)" stroke="#1F2A34" stroke-width="2"/>
<path d="M70.2167 74.1073L70.2553 74.0757L70.2906 74.0404C70.3728 73.9582 70.4478 73.9151 70.6557 73.8111L70.6757 73.8011C70.8751 73.7016 71.1831 73.5478 71.4909 73.2555C73.3786 71.7862 74.7065 70.6737 76.4401 68.2358C78.1499 65.8314 80.2614 62.1299 83.7974 55.4739C85.139 53.0166 87.2896 51.0993 89.8842 50.0474C92.3458 49.0495 95.0629 48.8889 97.6184 49.5832C98.4683 51.4823 98.9086 53.5411 98.9086 55.625C98.9086 57.8316 98.4149 60.01 97.464 62.0006L78.3459 90.2623C78.3447 90.2641 78.3434 90.2659 78.3422 90.2677C75.3692 94.5343 68.6478 95.982 59.6071 94.3288C50.6618 92.6931 39.8548 88.0743 29.3183 80.8438C25.808 78.4067 22.4258 75.7908 19.185 73.0065C22.7322 71.9238 25.894 69.8078 28.2533 66.9089C31.5565 63.4016 33.9768 61.2992 35.8889 60.1225C37.7748 58.9619 39.1037 58.7392 40.2754 58.9066C41.4929 59.0806 42.8879 59.6977 44.6725 61.1849C46.4644 62.6782 48.5996 65.0071 51.2891 68.5241C54.0981 72.1974 57.4928 74.6356 60.8587 75.6453C64.2361 76.6586 67.6188 76.2329 70.2167 74.1073Z" fill="#0E0F23" stroke="#1F2A34" stroke-width="2"/>
<path fill-rule="evenodd" clip-rule="evenodd" d="M95.4584 60.8333C89.6251 69.1667 69.2084 65 49.6251 51.25C30.0417 37.5 17.9584 20 23.7917 11.6667C29.6251 3.33333 50.0417 7.5 69.6251 21.25C89.2084 35 100.833 52.5 95.4584 60.8333ZM77.1251 48.3333C74.2084 52.5 64.2084 50.4167 54.2084 43.75C44.2084 37.0833 38.7917 28.3333 41.7084 24.1667C44.6251 20 54.6251 22.0833 64.6251 28.75C74.6251 35.4167 80.0001 44.1667 77.0834 48.3333H77.1251Z" fill="white"/>
<path d="M19.1667 19.1667C19.1667 18.75 18.75 18.3333 18.3333 18.75C17.9167 19.1667 17.5 19.1667 17.5 19.5833C17.9164 20.5105 18.1971 21.4928 18.3333 22.5C18.3333 22.9167 18.75 23.3333 19.1667 22.9167C19.5833 22.5 20 22.5 19.5833 22.0833C19.6188 21.0941 19.4777 20.1064 19.1667 19.1667Z" fill="white"/>
<path d="M21.25 25.8333C21.25 25.4167 20.8333 25 20.4167 25.4167C20 25.8333 20 25.8333 20 26.25C25.9805 38.4989 35.2034 48.8747 46.6667 56.25C47.0833 56.6667 47.5 56.25 47.9167 56.25C48.3333 56.25 47.9167 55.4167 47.9167 55C36.497 47.9365 27.2646 37.8386 21.25 25.8333Z" fill="white"/>
<path d="M71.6668 66.6667C71.2502 66.6667 70.8335 66.6667 70.8335 67.0833C70.8335 67.5 70.8335 67.9167 71.2502 67.9167L75.4168 69.1667C75.8335 69.1667 76.2502 69.1667 76.2502 68.75C76.2502 68.3333 76.2502 67.9167 75.8335 67.9167C74.6252 67.5 72.9168 67.0833 71.6668 66.6667Z" fill="white"/>
<path d="M79.1668 68.3333C78.9521 68.3521 78.7509 68.4459 78.5985 68.5983C78.4461 68.7507 78.3523 68.952 78.3335 69.1667C78.3523 69.3814 78.4461 69.5826 78.5985 69.735C78.7509 69.8874 78.9521 69.9812 79.1668 70C82.4707 70.5459 85.829 70.6859 89.1668 70.4167C89.3815 70.3979 89.5828 70.3041 89.7352 70.1517C89.8876 69.9993 89.9814 69.7981 90.0002 69.5833C89.9814 69.3686 89.8876 69.1674 89.7352 69.015C89.5828 68.8626 89.3815 68.7688 89.1668 68.75C85.8291 69.0277 82.4698 68.8877 79.1668 68.3333Z" fill="white"/>
<defs>
<linearGradient id="paint0_linear_144_310" x1="35.2083" y1="-1.33335" x2="62.4583" y2="92.1667" gradientUnits="userSpaceOnUse">
<stop stop-color="#03B8FF"/>
<stop offset="0.75" stop-color="#FA52A0"/>
</linearGradient>
</defs>
</svg>
