<svg width="192" height="42" viewBox="0 0 192 42" fill="none" xmlns="http://www.w3.org/2000/svg">
<g clip-path="url(#clip0_373_660)">
<path d="M21.46 3.59C22.4616 2.47778 23.5969 1.49365 24.84 0.660004C23.094 0.22054 21.3004 -0.0011452 19.5 4.44856e-06C14.2927 0.102127 9.33326 2.24267 5.68709 5.96176C2.04093 9.68085 -0.00100093 14.6817 3.68082e-07 19.89C3.68082e-07 31.18 9.13 40 19.5 40C21.3049 40.0337 23.1047 39.7977 24.84 39.3C23.642 38.406 22.5304 37.4016 21.52 36.3C9 36 3.6 28 3.6 19.88C3.6 11.76 9.59 3.18 21.46 3.59Z" fill="white"/>
<path d="M38.45 39.91C35.5805 39.9304 32.7366 39.3691 30.09 38.26C27.6816 37.2366 25.5073 35.7326 23.7 33.84C21.9404 31.9875 20.552 29.815 19.61 27.44C17.7153 22.5781 17.7153 17.1819 19.61 12.32C20.515 9.96794 21.8742 7.81705 23.61 5.99001C25.4176 4.11026 27.5927 2.62272 30 1.62001C32.6816 0.525818 35.5539 -0.0248347 38.45 1.13749e-05C41.3256 -0.0228295 44.1705 0.591909 46.78 1.80001C49.1538 2.90567 51.2719 4.49255 53 6.46001C54.6594 8.34331 55.9638 10.5117 56.85 12.86C58.613 17.3602 58.613 22.3599 56.85 26.86C56.4008 28.0282 55.8522 29.1557 55.21 30.23C54.557 31.3273 53.8038 32.3617 52.96 33.32C51.1694 35.3956 48.9485 37.0566 46.4515 38.1877C43.9544 39.3187 41.2412 39.8928 38.5 39.87L38.45 39.91ZM38.16 3.37001C28.32 3.37001 21.7 11.9 21.7 19.87C21.6493 24.2047 23.3221 28.382 26.3506 31.4837C29.3791 34.5853 33.5154 36.3573 37.85 36.41H38.16C48.43 36.41 54.57 28 54.57 19.86C54.57 11.93 48.3 3.37001 38.16 3.37001Z" fill="white"/>
<path d="M31.7402 8.56998C32.8702 8.01845 34.0573 7.59258 35.2802 7.29999C37.8802 10.81 39.8502 14.18 39.8502 20.14C39.7708 24.7071 38.1617 29.1156 35.2802 32.66C34.0864 32.3518 32.9418 31.8772 31.8802 31.25C34.7492 28.1591 36.3425 24.0972 36.3402 19.88C36.3291 15.6566 34.6801 11.6022 31.7402 8.56998V8.56998Z" fill="#CF6035"/>
<path d="M71.0898 3.64001V10.81H72.4898C72.4898 10.81 74.3698 5.23001 76.8598 5.23001H80.1199V25.13C80.1199 27.13 78.8098 27.6 76.2598 27.6V28.93H90.3699V27.59C90.3699 27.59 86.4598 27.71 86.4598 25.12V5.22002H89.3398C91.4598 5.22002 92.9998 7.84002 94.1098 10.8H95.5998V3.64001H71.0898Z" fill="white"/>
<path d="M114.24 29H100.85V27.5C103.7 27.5 104.53 26.91 104.53 24.9V7.32002C104.53 6.22002 103.53 5.67003 102.66 5.40003C102.052 5.21956 101.424 5.11214 100.79 5.08003V3.64002H115.41C117.306 3.57923 119.197 3.84996 121 4.44002C123.53 5.37002 124.81 7.09002 124.81 9.54002C124.819 10.7784 124.471 11.9931 123.81 13.04C123.251 13.8872 122.522 14.6091 121.67 15.16C120.714 15.7703 119.663 16.2165 118.56 16.48C118.56 16.55 125.01 24.6 126.32 26.06C127.256 26.9728 128.513 27.4825 129.82 27.48H129.89V29H120.1C117.563 25.0627 114.826 21.2578 111.9 17.6H110.84V24.91C110.815 25.3755 110.935 25.8373 111.181 26.2327C111.428 26.6281 111.791 26.9379 112.22 27.12C112.812 27.3806 113.453 27.5102 114.1 27.5H114.24V29V29ZM110.84 5.29002V15.79H112.5C115.79 15.79 117.67 13.72 117.67 10.12C117.67 5.91003 114.43 5.28002 112.5 5.28002L110.84 5.29002Z" fill="white"/>
<path d="M156.48 3.59999H154.81L153.81 4.52999C151.607 3.53556 149.227 2.99157 146.81 2.92999C139.33 2.92999 132.67 7.42999 132.67 16.63C132.67 25.83 139.67 29.63 146.28 29.63C150.255 29.6224 154.161 28.5891 157.62 26.63V17.26H147.72V18.63C147.72 18.63 151.53 18.57 151.53 21.25V26.25C150.199 27.3264 148.52 27.8778 146.81 27.8C143.67 27.8 139.81 25.23 139.81 16.22C139.81 7.20999 144.11 4.50999 146.81 4.50999C149.51 4.50999 152.81 5.75999 155.01 12.82H156.65L156.48 3.59999Z" fill="white"/>
<path d="M187.54 3.63999H185.8L184.8 4.55999C182.782 3.4695 180.523 2.90221 178.23 2.90999C170.69 2.90999 164.28 7.82999 164.28 16.68C164.28 25.53 170.8 29.62 178.23 29.62C185.66 29.62 188.75 22.62 188.75 22.62L187.25 21.62C187.25 21.62 184.38 27.07 179.25 27.07C174.12 27.07 171.48 22.8 171.48 16.07C171.48 9.33999 173.8 4.58999 178.24 4.58999C182.68 4.58999 184.85 8.97 186.06 12.91H187.73L187.54 3.63999Z" fill="white"/>
<path d="M72.7002 40H190" stroke="white" stroke-width="3" stroke-linecap="round"/>
</g>
<defs>
<clipPath id="clip0_373_660">
<rect width="191.5" height="41.5" fill="white"/>
</clipPath>
</defs>
</svg>
